#
# Compatibility version : 4.3
# File ID : FJ4643
# Representation ID : BP23722
# Build-up logic : FMA 3.0 is_a
# Concept ID : FMA59805
# English name : Left sublingual gland
# Bounds(mm): (7.288300,-163.639600,1440.786300)-(19.903000,-140.969500,1454.063400)
# Volume(cm3): 0.367500
#
v 19.7922 -143.113 1452.93
v 19.881 -142.377 1451.66
v 19.8381 -141.696 1452.96
v 17.8318 -149.471 1451.19
v 19.0842 -146.431 1450.9
v 17.5666 -147.149 1452.29
v 17.2145 -146.735 1452.23
v 18.5218 -146.774 1448.25
v 17.9414 -145.883 1447.79
v 19.3909 -143.9 1453.3
v 19.4113 -143.108 1453.74
v 19.0395 -143.83 1453.7
v 19.0615 -143.067 1453.98
v 18.688 -143.466 1453.93
v 18.3347 -144.983 1453.21
v 18.3346 -144.141 1453.59
v 18.2959 -143.169 1453.83
v 17.9056 -144.673 1453.13
v 19.6658 -143.234 1450.57
v 18.7136 -145.33 1452.8
v 17.027 -144.499 1451.93
v 19.4866 -143.242 1450.05
v 17.2581 -144.68 1449.08
v 19.4167 -142.364 1453.84
v 19.4245 -141.189 1453.4
v 18.7175 -142.361 1453.99
v 17.9857 -142.408 1453.35
v 19.7407 -142.039 1451.25
v 19.4245 -140.969 1452.32
v 18.9977 -142.29 1450.46
v 18.6858 -141.253 1453
v 18.3024 -142.115 1451.23
v 17.8699 -142.176 1452.56
v 14.5071 -157.215 1443.16
v 15.025 -154.593 1450.23
v 15.3895 -156.317 1448.16
v 16.3293 -152.798 1445.84
v 15.9686 -154.088 1444.79
v 15.9322 -153.219 1444.7
v 15.6116 -153.917 1443.81
v 14.8363 -152.194 1444.2
v 16.8436 -148.528 1451.93
v 15.8729 -150.913 1451.37
v 15.201 -148.741 1450.62
v 14.0641 -149.576 1447.86
v 15.8416 -149.551 1445.54
v 16.5421 -147.452 1451.71
v 16.3538 -146.703 1451.25
v 16.0021 -148.372 1451.52
v 15.4342 -146.866 1448.13
v 16.3839 -146.768 1447.12
v 16.644 -144.804 1450.52
v 12.9357 -160.343 1447.27
v 11.499 -160.41 1448.16
v 13.0938 -160.27 1445.99
v 11.7726 -161.846 1446.08
v 11.5108 -161.721 1446.94
v 11.3537 -160.719 1441.74
v 13.7494 -158.099 1449.01
v 13.5376 -157.272 1449.63
v 11.4315 -159.693 1448.35
v 13.2763 -157.873 1441.53
v 12.9392 -157.449 1441.25
v 12.12 -158.733 1440.97
v 11.4641 -158.338 1440.85
v 13.9584 -155.72 1450
v 13.6056 -155.382 1449.86
v 13.0417 -156.671 1449.46
v 13.1593 -155.114 1449.33
v 12.929 -155.776 1441.84
v 12.3948 -155.121 1442.69
v 13.7844 -153.738 1450.1
v 12.9937 -153.548 1448.19
v 10.0255 -163.086 1444.53
v 8.99672 -163.451 1444.77
v 8.90615 -163.571 1443.92
v 8.93469 -162.896 1442.24
v 8.55604 -162.766 1441.82
v 10.678 -162.543 1446.09
v 10.031 -162.271 1446.48
v 9.99287 -161.513 1446.89
v 8.35987 -162.62 1445.08
v 8.57676 -161.33 1445.15
v 8.94634 -160.042 1441.68
v 10.2616 -161.637 1441.58
v 10.3603 -160.787 1440.96
v 9.63877 -160.387 1440.95
v 8.95945 -162.273 1441.47
v 8.61063 -161.874 1441.28
v 10.0661 -157.905 1444.76
v 8.89192 -159.786 1443.88
v 8.76901 -159.769 1443.25
v 11.1284 -157.88 1441.09
v 10.2066 -158.304 1441.57
v 8.19649 -163.478 1443.93
v 8.23166 -163.25 1442.61
v 8.20389 -162.987 1442.11
v 7.84156 -163.122 1442.56
v 7.73754 -162.927 1443.93
v 7.57737 -163.003 1442.95
v 7.99221 -162.259 1444.64
v 8.21566 -162.616 1441.69
v 8.20593 -161.172 1441.53
v 7.82593 -162.648 1441.92
v 7.85664 -162.259 1441.68
v 7.6758 -161.893 1441.8
v 7.90852 -160.719 1443.32
v 7.73462 -160.85 1442.53
v 7.39673 -162.66 1442.93
v 7.4042 -162.639 1442.54
v 7.32906 -162.283 1442.91
v 7.30223 -162.267 1442.53
v 7.41476 -162.255 1442.17
v 7.48905 -161.59 1443.31
v 7.3584 -161.603 1442.55
v 7.50249 -161.558 1442.14
v 8.22675 -161.555 1441.4
v 17.9414 -145.883 1447.79
v 17.9414 -145.883 1447.79
v 19.4866 -143.242 1450.05
v 19.4167 -142.364 1453.84
v 19.4245 -141.189 1453.4
v 19.4245 -141.189 1453.4
v 19.4245 -141.189 1453.4
v 19.4245 -141.189 1453.4
v 19.7407 -142.039 1451.25
v 19.4245 -140.969 1452.32
v 19.4245 -140.969 1452.32
v 19.4245 -140.969 1452.32
v 18.9977 -142.29 1450.46
v 18.6858 -141.253 1453
v 15.025 -154.593 1450.23
v 16.3293 -152.798 1445.84
v 16.3293 -152.798 1445.84
v 15.9322 -153.219 1444.7
v 14.8363 -152.194 1444.2
v 14.8363 -152.194 1444.2
v 15.8729 -150.913 1451.37
v 15.8416 -149.551 1445.54
v 16.3839 -146.768 1447.12
v 16.644 -144.804 1450.52
v 13.5376 -157.272 1449.63
v 8.99672 -163.451 1444.77
v 10.678 -162.543 1446.09
vn 0.963341 -0.161868 0.213948
vn 0.995202 0.0331841 -0.0920434
vn 0.958424 0.239981 0.154379
vn 0.594464 -0.428105 0.68069
vn 0.937156 -0.3303 0.11243
vn -0.135229 -0.268785 0.95366
vn -0.577626 -0.0349512 0.815553
vn 0.874556 -0.0720353 -0.479544
vn 0.706123 0.102129 -0.700685
vn 0.775302 -0.405991 0.483817
vn 0.726646 -0.230075 0.647341
vn 0.422794 -0.432368 0.796431
vn 0.298 -0.148637 0.942923
vn -0.0872548 -0.26476 0.960359
vn 0.0212697 -0.429863 0.902644
vn -0.381881 -0.316573 0.868302
vn -0.618052 -0.0616488 0.783716
vn -0.611008 -0.16672 0.773869
vn 0.976959 -0.0751068 -0.199774
vn 0.628047 -0.472572 0.61825
vn -0.90982 0.164214 0.381132
vn 0.891016 0.060639 -0.449904
vn -0.504569 0.685381 -0.525036
vn 0.886643 0.0326035 0.461304
vn 0.817003 0.565219 0.114165
vn -0.252881 0.26409 0.930756
vn -0.795932 0.332751 0.505736
vn 0.951894 0.223559 -0.20957
vn 0.872578 0.48839 -0.00910461
vn 0.409619 0.593105 -0.693137
vn -0.667235 0.70225 0.248278
vn -0.62259 0.699514 -0.350801
vn -0.865612 0.497703 0.0548464
vn 0.865636 -0.407989 -0.290206
vn 0.475412 -0.415959 0.775217
vn 0.906711 -0.417018 0.0630175
vn 0.970506 -0.192747 -0.144801
vn 0.956032 -0.176676 -0.234067
vn 0.941708 0.00529877 -0.336389
vn 0.73898 0.116234 -0.663624
vn 0.60529 0.461589 -0.648506
vn -0.393914 -0.047302 0.917929
vn -0.347756 -0.112849 0.930769
vn -0.867021 0.29484 0.401676
vn -0.928044 0.361712 0.0888738
vn 0.647378 0.110458 -0.754123
vn -0.623337 0.133746 0.770431
vn -0.8162 0.202557 0.5411
vn -0.614435 0.115042 0.780535
vn -0.857871 0.508909 -0.0711999
vn -0.0336955 0.568851 -0.82175
vn -0.759482 0.599307 -0.253019
vn 0.719904 -0.634155 0.282109
vn -0.0815578 -0.507647 0.857696
vn 0.809832 -0.580308 -0.0861078
vn 0.668149 -0.743086 0.0374111
vn 0.370999 -0.73874 0.562692
vn 0.685403 -0.59349 -0.421891
vn 0.547525 -0.546037 0.634082
vn 0.375461 -0.494167 0.78411
vn -0.576614 -0.0688793 0.814108
vn 0.711544 -0.27092 -0.648311
vn 0.391574 0.123972 -0.911757
vn 0.439394 -0.241551 -0.865209
vn -0.00552727 0.157 -0.987583
vn -0.288135 -0.116179 0.950516
vn -0.609535 -0.0161152 0.792596
vn -0.67407 0.0812448 0.734186
vn -0.832479 0.127434 0.539203
vn 0.00326578 0.468463 -0.883477
vn -0.613712 0.592991 -0.521267
vn -0.631045 0.0189336 0.775515
vn -0.918427 0.304607 0.252403
vn 0.54086 -0.831689 -0.125554
vn 0.20152 -0.969115 0.142147
vn 0.18654 -0.974261 -0.126561
vn 0.365405 -0.819445 -0.441576
vn 0.136269 -0.757392 -0.638583
vn 0.476261 -0.862431 0.171433
vn -0.212472 -0.651723 0.728088
vn -0.613073 -0.199018 0.764548
vn -0.681731 -0.34032 0.647631
vn -0.808174 0.279419 0.51844
vn -0.693277 0.58026 -0.427395
vn 0.510647 -0.677879 -0.528884
vn 0.236974 -0.346368 -0.907674
vn -0.376317 0.195939 -0.905535
vn 0.202945 -0.597946 -0.775419
vn -0.181509 -0.258367 -0.948842
vn -0.866836 0.47357 0.15597
vn -0.810997 0.519472 0.269134
vn -0.755287 0.655393 -0.00133495
vn -0.403889 0.456257 -0.792908
vn -0.700795 0.530589 -0.476824
vn -0.473292 -0.868427 0.147746
vn -0.0384387 -0.94199 -0.333433
vn -0.109944 -0.826988 -0.551365
vn -0.481639 -0.807538 -0.34045
vn -0.885126 -0.303679 0.352607
vn -0.774077 -0.632974 -0.0122313
vn -0.857617 0.0294702 0.513444
vn -0.19619 -0.565605 -0.801
vn -0.645151 0.378207 -0.663882
vn -0.554406 -0.568464 -0.607851
vn -0.539498 -0.248913 -0.804353
vn -0.724219 0.0857793 -0.684214
vn -0.800078 0.547115 0.246049
vn -0.811248 0.55957 -0.169583
vn -0.942326 -0.319472 0.0997979
vn -0.873187 -0.430811 -0.227918
vn -0.985468 -0.0658035 0.156599
vn -0.989024 -0.0904365 -0.116845
vn -0.867361 -0.135762 -0.478804
vn -0.922784 0.242876 0.299134
vn -0.971508 0.220797 -0.0861476
vn -0.838917 0.288926 -0.461238
vn -0.496212 0.0595512 -0.866157
vn 0.311989 0.506196 -0.804008
vn -0.0900226 0.61275 -0.785133
vn 0.41629 0.531276 -0.737867
vn 0.330153 0.112029 0.937256
vn 0.819917 0.192719 0.539069
vn 0.199833 0.336923 0.920081
vn -0.422932 0.594894 0.683542
vn -0.188892 0.962559 0.194422
vn 0.454172 0.630235 -0.629707
vn 0.389247 0.705448 -0.592309
vn -0.188892 0.962559 0.194422
vn -0.452251 0.805318 -0.383316
vn -0.366723 0.706723 -0.605026
vn -0.188892 0.962559 0.194422
vn -0.115764 -0.181872 0.976484
vn 0.710777 0.542007 -0.448358
vn 0.738878 0.000715802 -0.673839
vn 0.697421 0.492774 -0.520363
vn 0.682254 0.0788062 -0.726856
vn -0.160888 0.555233 -0.815985
vn 0.343235 -0.358462 0.868156
vn 0.00424869 0.478338 -0.878166
vn -0.597218 0.6285 -0.498315
vn -0.931604 0.312952 0.184867
vn -0.273927 -0.180527 0.944655
vn -0.344059 -0.707221 0.617626
vn 0.0402005 -0.791727 0.609551
g grp1
usemtl mtl1
f 1//1 5//5 19//19 
f 19//19 2//2 1//1 
f 19//19 28//28 2//2 
f 1//1 2//2 3//3 
f 2//2 28//28 3//3 
f 3//3 28//28 29//29 
f 25//25 3//3 29//29 
f 36//36 37//37 8//8 
f 5//5 4//4 36//36 
f 43//43 6//6 42//42 
f 138//138 4//4 6//6 
f 35//35 4//4 138//138 
f 36//36 8//8 5//5 
f 19//19 5//5 8//8 
f 4//4 5//5 20//20 
f 15//15 4//4 20//20 
f 15//15 18//18 6//6 
f 4//4 15//15 6//6 
f 18//18 7//7 6//6 
f 7//7 42//42 6//6 
f 47//47 42//42 7//7 
f 48//48 47//47 7//7 
f 18//18 48//48 7//7 
f 9//9 22//22 8//8 
f 1//1 11//11 10//10 
f 24//24 11//11 1//1 
f 20//20 10//10 12//12 
f 12//12 11//11 13//13 
f 12//12 10//10 11//11 
f 13//13 11//11 121//121 
f 14//14 15//15 12//12 
f 15//15 20//20 12//12 
f 14//14 12//12 13//13 
f 14//14 13//13 26//26 
f 26//26 13//13 121//121 
f 16//16 15//15 14//14 
f 16//16 14//14 17//17 
f 17//17 14//14 26//26 
f 17//17 26//26 27//27 
f 15//15 16//16 18//18 
f 17//17 18//18 16//16 
f 21//21 17//17 27//27 
f 10//10 20//20 5//5 
f 1//1 10//10 5//5 
f 19//19 22//22 28//28 
f 32//32 23//23 52//52 
f 32//32 52//52 33//33 
f 17//17 21//21 18//18 
f 8//8 22//22 19//19 
f 118//118 30//30 120//120 
f 23//23 130//130 119//119 
f 1//1 3//3 24//24 
f 122//122 24//24 3//3 
f 26//26 121//121 123//123 
f 31//31 26//26 124//124 
f 27//27 26//26 31//31 
f 27//27 33//33 21//21 
f 30//30 126//126 120//120 
f 30//30 127//127 126//126 
f 128//128 131//131 125//125 
f 130//130 23//23 32//32 
f 32//32 129//129 130//130 
f 31//31 129//129 32//32 
f 27//27 31//31 33//33 
f 21//21 33//33 141//141 
f 32//32 33//33 31//31 
f 36//36 59//59 53//53 
f 55//55 58//58 34//34 
f 55//55 34//34 36//36 
f 4//4 59//59 36//36 
f 35//35 60//60 59//59 
f 66//66 142//142 132//132 
f 36//36 34//34 38//38 
f 72//72 132//132 43//43 
f 66//66 132//132 72//72 
f 49//49 44//44 72//72 
f 59//59 4//4 35//35 
f 38//38 39//39 37//37 
f 36//36 38//38 37//37 
f 133//133 135//135 41//41 
f 38//38 40//40 39//39 
f 136//136 8//8 134//134 
f 135//135 40//40 41//41 
f 38//38 34//34 40//40 
f 41//41 40//40 70//70 
f 72//72 43//43 49//49 
f 49//49 43//43 42//42 
f 44//44 50//50 45//45 
f 73//73 44//44 45//45 
f 136//136 46//46 8//8 
f 71//71 139//139 137//137 
f 47//47 49//49 42//42 
f 48//48 18//18 21//21 
f 21//21 141//141 50//50 
f 47//47 48//48 49//49 
f 48//48 21//21 50//50 
f 48//48 44//44 49//49 
f 44//44 48//48 50//50 
f 51//51 23//23 119//119 
f 140//140 50//50 23//23 
f 23//23 50//50 52//52 
f 71//71 51//51 139//139 
f 71//71 50//50 140//140 
f 45//45 50//50 71//71 
f 46//46 9//9 8//8 
f 139//139 51//51 119//119 
f 57//57 53//53 59//59 
f 54//54 59//59 60//60 
f 57//57 59//59 54//54 
f 56//56 53//53 57//57 
f 55//55 53//53 56//56 
f 56//56 58//58 55//55 
f 56//56 74//74 58//58 
f 56//56 57//57 79//79 
f 79//79 74//74 56//56 
f 74//74 85//85 58//58 
f 53//53 55//55 36//36 
f 68//68 61//61 142//142 
f 54//54 142//142 61//61 
f 90//90 83//83 68//68 
f 40//40 34//34 62//62 
f 58//58 62//62 34//34 
f 62//62 63//63 40//40 
f 70//70 40//40 63//63 
f 58//58 64//64 62//62 
f 64//64 63//63 62//62 
f 65//65 70//70 63//63 
f 58//58 86//86 64//64 
f 63//63 64//64 65//65 
f 93//93 70//70 65//65 
f 86//86 65//65 64//64 
f 87//87 65//65 86//86 
f 68//68 142//142 66//66 
f 68//68 66//66 67//67 
f 67//67 66//66 72//72 
f 69//69 67//67 72//72 
f 72//72 73//73 69//69 
f 69//69 68//68 67//67 
f 68//68 69//69 90//90 
f 90//90 69//69 73//73 
f 90//90 73//73 71//71 
f 71//71 137//137 70//70 
f 93//93 71//71 70//70 
f 94//94 71//71 93//93 
f 72//72 44//44 73//73 
f 73//73 45//45 71//71 
f 79//79 75//75 74//74 
f 75//75 76//76 74//74 
f 80//80 82//82 143//143 
f 81//81 82//82 80//80 
f 77//77 85//85 74//74 
f 74//74 76//76 77//77 
f 77//77 78//78 88//88 
f 75//75 95//95 76//76 
f 95//95 96//96 76//76 
f 76//76 96//96 77//77 
f 77//77 96//96 97//97 
f 78//78 77//77 97//97 
f 78//78 97//97 102//102 
f 88//88 78//78 102//102 
f 80//80 144//144 57//57 
f 80//80 143//143 144//144 
f 54//54 81//81 80//80 
f 57//57 54//54 80//80 
f 61//61 81//81 54//54 
f 81//81 61//61 83//83 
f 82//82 81//81 83//83 
f 77//77 88//88 85//85 
f 83//83 91//91 107//107 
f 91//91 92//92 107//107 
f 88//88 102//102 89//89 
f 85//85 86//86 58//58 
f 85//85 88//88 86//86 
f 89//89 87//87 86//86 
f 87//87 103//103 84//84 
f 88//88 89//89 86//86 
f 103//103 87//87 117//117 
f 117//117 87//87 89//89 
f 68//68 83//83 61//61 
f 91//91 83//83 90//90 
f 71//71 94//94 90//90 
f 90//90 94//94 84//84 
f 91//91 90//90 92//92 
f 90//90 84//84 92//92 
f 87//87 93//93 65//65 
f 94//94 93//93 87//87 
f 84//84 94//94 87//87 
f 95//95 143//143 82//82 
f 99//99 95//95 82//82 
f 95//95 98//98 96//96 
f 96//96 98//98 97//97 
f 104//104 102//102 97//97 
f 98//98 104//104 97//97 
f 100//100 95//95 99//99 
f 98//98 95//95 100//100 
f 82//82 101//101 99//99 
f 100//100 99//99 109//109 
f 100//100 110//110 98//98 
f 110//110 104//104 98//98 
f 110//110 100//100 109//109 
f 83//83 101//101 82//82 
f 101//101 83//83 114//114 
f 102//102 104//104 105//105 
f 102//102 105//105 89//89 
f 89//89 105//105 117//117 
f 83//83 107//107 114//114 
f 105//105 106//106 117//117 
f 116//116 108//108 103//103 
f 116//116 103//103 106//106 
f 108//108 114//114 107//107 
f 108//108 84//84 103//103 
f 108//108 107//107 92//92 
f 84//84 108//108 92//92 
f 109//109 99//99 111//111 
f 109//109 111//111 110//110 
f 110//110 111//111 112//112 
f 104//104 110//110 113//113 
f 113//113 110//110 112//112 
f 104//104 113//113 105//105 
f 112//112 111//111 115//115 
f 112//112 115//115 113//113 
f 113//113 115//115 116//116 
f 113//113 116//116 106//106 
f 105//105 113//113 106//106 
f 114//114 99//99 101//101 
f 99//99 114//114 111//111 
f 111//111 114//114 115//115 
f 115//115 108//108 116//116 
f 115//115 114//114 108//108 
f 106//106 103//103 117//117 
