#
# Compatibility version : 4.3
# File ID : FJ3957
# Representation ID : BP29084
# Build-up logic : FMA 3.0 is_a
# Concept ID : FMA52940
# English name : Left middle superior alveolar nerve
# Bounds(mm): (20.244000,-164.280000,1465.805400)-(27.547200,-138.532000,1505.008400)
# Volume(cm3): 0.014400
#
v 20.2776 -164.199 1467.26
v 20.3155 -164.253 1467.25
v 20.3155 -164.204 1467.22
v 20.314 -164.153 1467.24
v 20.2501 -164.188 1467.32
v 20.2671 -164.089 1467.37
v 20.2731 -164.247 1467.3
v 20.2705 -164.222 1467.37
v 20.3187 -164.277 1467.3
v 20.3142 -164.271 1467.35
v 20.322 -164.209 1467.44
v 20.3155 -164.084 1467.29
v 20.3154 -163.873 1467.78
v 20.3745 -163.797 1467.95
v 20.3651 -164.251 1467.25
v 20.3634 -164.205 1467.23
v 20.4046 -164.201 1467.26
v 20.3709 -164.126 1467.27
v 20.3654 -164.277 1467.3
v 20.3654 -164.265 1467.36
v 20.4087 -164.248 1467.3
v 20.4141 -164.212 1467.39
v 20.4382 -164.182 1467.33
v 20.4451 -164.075 1467.4
v 20.4118 -164.009 1467.71
v 20.414 -163.891 1467.86
v 20.4625 -163.902 1467.82
v 20.4737 -163.771 1468
v 20.5318 -163.727 1467.96
v 20.473 -163.614 1468.22
v 20.4347 -163.349 1468.48
v 20.4452 -163.145 1468.6
v 20.52 -163.215 1468.71
v 20.5155 -163.018 1468.64
v 20.6554 -163.136 1468.63
v 20.6503 -163.148 1468.71
v 20.6046 -163.077 1468.58
v 20.4981 -162.978 1468.92
v 20.568 -162.794 1469.19
v 20.6669 -162.917 1469.06
v 20.7546 -162.695 1469.23
v 20.5336 -162.712 1469.17
v 20.6039 -162.469 1469.53
v 20.5978 -162.396 1469.51
v 20.6427 -162.438 1469.61
v 20.6583 -162.711 1469.33
v 20.6602 -162.562 1469.5
v 20.713 -162.51 1469.57
v 20.634 -162.26 1469.73
v 20.7588 -162.321 1469.47
v 20.8294 -162.27 1469.61
v 20.7638 -162.069 1470.08
v 20.8204 -162.08 1470.07
v 20.7945 -161.666 1470.48
v 20.8149 -161.82 1470.36
v 20.8726 -161.694 1470.51
v 20.8775 -161.499 1470.72
v 20.9924 -161.658 1470.38
v 20.9954 -161.621 1470.51
v 20.8325 -161.353 1470.72
v 20.8502 -161.344 1470.62
v 20.9546 -161.427 1470.48
v 21.0187 -161.454 1470.53
v 21.0615 -161.37 1470.7
v 21.0918 -161.254 1470.86
v 21.0773 -161.214 1470.8
v 21.0655 -161.19 1471.05
v 21.1552 -160.977 1471.21
v 21.1233 -160.86 1471.12
v 21.1613 -160.946 1471.14
v 20.9934 -160.885 1471.36
v 21.0076 -160.671 1471.53
v 21.055 -160.919 1471.37
v 21.072 -160.751 1471.2
v 21.0786 -160.667 1471.63
v 21.109 -160.325 1471.93
v 21.1692 -160.592 1471.72
v 21.315 -159.851 1472.14
v 21.3826 -159.968 1472.11
v 21.4155 -159.963 1472.24
v 21.2252 -159.711 1472.39
v 21.2729 -159.838 1472.48
v 21.3697 -159.963 1472.35
v 21.4875 -159.661 1472.48
v 21.2602 -159.767 1472.24
v 21.277 -159.549 1472.67
v 21.3596 -159.709 1472.64
v 21.5279 -159.137 1472.86
v 21.5015 -159.013 1473.32
v 21.4503 -158.933 1473.08
v 21.4363 -158.907 1473.3
v 21.5104 -158.907 1473.07
v 21.5124 -158.808 1473.48
v 21.6218 -159.133 1473.14
v 21.6078 -158.836 1473.5
v 21.7644 -158.663 1473.51
v 21.7273 -158.617 1473.69
v 21.6403 -158.18 1473.81
v 21.7337 -158.057 1473.88
v 21.7823 -158.271 1474.04
v 21.769 -158.044 1474.24
v 21.6346 -158.122 1474.01
v 21.9008 -157.939 1474.03
v 21.7453 -157.82 1474.37
v 21.8577 -157.282 1474.71
v 21.9686 -156.881 1475.12
v 21.9828 -157.192 1474.65
v 21.967 -157.032 1474.83
v 21.9654 -156.985 1475.11
v 22.0118 -156.968 1475.19
v 22.0661 -157.083 1475.13
v 22.13 -157.128 1475.08
v 22.1917 -157.118 1475
v 22.1896 -156.713 1475.09
v 22.3349 -156.606 1475.32
v 22.1549 -156.278 1475.71
v 22.2184 -156.186 1475.85
v 22.324 -156.006 1476.05
v 22.2605 -155.864 1475.9
v 22.3166 -155.634 1476.15
v 22.4206 -155.961 1476.11
v 22.375 -155.712 1475.94
v 22.5235 -155.926 1476.08
v 22.5505 -155.331 1476.24
v 22.6559 -155.232 1476.36
v 22.444 -155.368 1476.53
v 22.4582 -155.178 1476.61
v 22.6211 -155.145 1476.8
v 22.6662 -155.348 1476.6
v 22.7269 -154.768 1476.7
v 22.7019 -154.542 1476.9
v 22.7035 -154.377 1477.29
v 22.9667 -159.369 1465.83
v 22.967 -159.319 1465.81
v 23.0173 -159.368 1465.82
v 23.0138 -159.323 1465.81
v 23.0641 -159.321 1465.83
v 22.9243 -159.248 1466.08
v 22.9095 -159.318 1465.85
v 22.8897 -159.282 1465.94
v 22.9193 -159.376 1465.9
v 22.9677 -159.408 1465.9
v 22.9788 -159.295 1466.08
v 23.0155 -159.393 1465.85
v 23.0159 -159.41 1465.9
v 23.063 -159.395 1465.9
v 23.0715 -159.306 1466.05
v 23.0629 -159.368 1465.85
v 23.0933 -159.361 1465.9
v 23.1055 -159.31 1465.9
v 23.111 -159.245 1466.07
v 22.963 -159.27 1465.83
v 23.0164 -159.267 1465.83
v 22.9048 -159.212 1465.96
v 22.9747 -159.146 1465.96
v 23.0904 -159.261 1465.9
v 23.0792 -159.035 1466.12
v 23.1339 -159.126 1466.13
v 23.0294 -158.278 1467.05
v 22.9932 -158.372 1467.04
v 23.1251 -158.105 1467.21
v 23.1369 -157.197 1468.44
v 23.1749 -156.859 1468.94
v 22.763 -155.208 1476.58
v 22.763 -155.098 1476.55
v 22.8895 -154.762 1476.88
v 22.8369 -154.676 1476.82
v 22.8419 -154.91 1476.89
v 22.7581 -154.533 1477.28
v 22.8692 -154.542 1477.28
v 22.861 -154.369 1477.43
v 22.8904 -153.67 1477.74
v 23.017 -153.528 1478.05
v 23.1129 -153.529 1478.1
v 22.9815 -153.394 1477.89
v 23.0859 -153.179 1477.99
v 23.1414 -152.942 1478.43
v 23.2503 -158.31 1467.22
v 23.2958 -158.044 1467.47
v 23.2213 -158.158 1467.49
v 23.3003 -157.862 1467.61
v 23.2129 -157.589 1468.23
v 23.1648 -157.263 1468.57
v 23.2658 -156.851 1468.76
v 23.3191 -156.962 1468.62
v 23.3548 -157.048 1468.54
v 23.4215 -157.17 1468.67
v 23.2571 -156.438 1469.35
v 23.4124 -156.639 1469.47
v 23.4588 -156.224 1469.57
v 23.4669 -155.868 1470.02
v 23.2994 -156.127 1470.04
v 23.3617 -156.191 1470.04
v 23.4183 -156.139 1470.14
v 23.5265 -155.846 1470.54
v 23.4183 -155.579 1470.41
v 23.4341 -155.718 1470.69
v 23.3913 -155.168 1471.09
v 23.4184 -155.256 1470.88
v 23.4697 -154.827 1471.81
v 23.5249 -154.643 1471.67
v 23.5426 -153.971 1472.83
v 23.2064 -153.402 1477.81
v 23.1622 -153.149 1477.97
v 23.2289 -153.535 1478.05
v 23.2808 -153.215 1478.33
v 23.3738 -153.143 1478.11
v 23.4023 -152.383 1478.96
v 23.5204 -152.24 1479.09
v 23.4729 -151.991 1478.86
v 23.4659 -151.996 1479.2
v 23.5869 -156.091 1469.9
v 23.5639 -155.951 1469.99
v 23.622 -155.85 1470.43
v 23.6899 -155.541 1470.71
v 23.6194 -155.31 1470.79
v 23.7164 -155.137 1471.11
v 23.8039 -154.805 1471.67
v 23.5797 -154.613 1472.22
v 23.7669 -154.525 1471.87
v 23.6542 -154.432 1471.92
v 23.7496 -154.287 1472.73
v 23.8169 -154.311 1472.66
v 23.9206 -154.162 1472.68
v 23.6717 -153.984 1472.54
v 23.77 -153.988 1472.54
v 23.5708 -153.928 1472.74
v 23.9345 -153.735 1473.02
v 23.6174 -153.449 1473.48
v 23.6703 -153.495 1473.27
v 23.9098 -153.509 1473.25
v 23.7676 -153.232 1473.6
v 23.8141 -153.269 1473.53
v 23.9212 -152.978 1473.96
v 23.8165 -153.018 1474.55
v 23.9126 -153.101 1474.47
v 23.744 -152.754 1474.77
v 23.819 -152.481 1474.73
v 23.6499 -152.266 1479
v 23.9157 -152.345 1474.87
v 23.7734 -152.307 1475.31
v 23.806 -152.305 1475.05
v 23.7181 -151.956 1479.27
v 23.738 -152.068 1479.07
v 23.6121 -151.32 1479.45
v 23.766 -151.405 1479.28
v 23.8909 -151.316 1479.4
v 23.8953 -151.456 1476.48
v 23.5811 -151.396 1479.51
v 23.7782 -150.793 1480.01
v 23.8438 -150.952 1480.04
v 23.9547 -150.943 1480.07
v 23.9725 -153.294 1474.16
v 24.0596 -153.198 1474.21
v 24.0345 -152.99 1474.04
v 24.1551 -152.84 1474.56
v 24.1603 -152.72 1474.62
v 24.1675 -152.434 1475.41
v 24.0733 -152.367 1475.59
v 24.0228 -152.122 1475.2
v 23.9721 -152.265 1475.73
v 24.1607 -151.885 1475.6
v 24.2377 -151.887 1475.69
v 24.3331 -151.788 1476.31
v 23.9662 -151.599 1476.66
v 24.0139 -151.332 1476.43
v 24.0657 -151.42 1476.25
v 24.0783 -151.387 1477.09
v 24.1778 -151.289 1477.3
v 23.9975 -151.212 1479.6
v 24.2139 -151.09 1476.76
v 23.9979 -150.899 1477.24
v 24.1301 -150.703 1477.39
v 24.1702 -150.839 1477.15
v 23.9721 -150.97 1477.41
v 24.2182 -150.655 1478.31
v 24.0898 -150.428 1478.44
v 24.1321 -150.554 1478.36
v 24.1278 -150.082 1478.53
v 24.1623 -150.127 1478.37
v 24.3188 -149.944 1478.57
v 24.1464 -149.792 1479.16
v 24.3143 -149.56 1479.23
v 24.3009 -149.523 1480.12
v 24.3147 -149.133 1480.03
v 24.2905 -149.019 1480.34
v 24.2646 -149.079 1480.56
v 24.3279 -148.99 1481.15
v 24.4398 -151.037 1477.09
v 24.505 -150.928 1477.65
v 24.5123 -150.945 1477.51
v 24.4508 -150.846 1477.96
v 24.4085 -150.584 1477.62
v 24.5585 -150.625 1477.87
v 24.358 -150.325 1478.91
v 24.4683 -150.32 1478.91
v 24.4064 -150.1 1478.33
v 24.6107 -149.973 1478.73
v 24.6917 -149.953 1479.32
v 24.6642 -149.832 1479.66
v 24.565 -149.565 1479.24
v 24.5169 -149.438 1479.41
v 24.3509 -149.735 1479.86
v 24.4701 -149.082 1479.99
v 24.7167 -149.026 1480.19
v 24.4155 -149.144 1480.88
v 24.4155 -149.168 1480.9
v 24.5155 -149.218 1480.89
v 24.5655 -149.257 1480.79
v 24.5655 -149.202 1480.88
v 24.6615 -149.278 1480.74
v 24.3655 -148.956 1481.12
v 24.3658 -148.931 1481.11
v 24.5357 -149.406 1480.83
v 24.568 -149.216 1480.93
v 24.6542 -149.158 1481.08
v 24.6655 -149.124 1481.03
v 24.7138 -149.046 1481.17
v 24.6692 -149.176 1481.16
v 24.531 -149.185 1481.36
v 24.6183 -149.072 1481.42
v 24.6629 -149.161 1481.26
v 24.4223 -148.637 1480.84
v 24.4643 -148.743 1480.6
v 24.3637 -148.843 1481.26
v 24.711 -148.564 1480.9
v 24.3228 -148.982 1481.26
v 24.3637 -148.782 1481.31
v 24.3854 -148.821 1481.44
v 24.4157 -148.678 1481.58
v 24.402 -148.928 1481.46
v 24.466 -148.667 1481.69
v 24.5045 -148.744 1481.7
v 24.5329 -148.9 1481.57
v 24.6733 -148.739 1481.74
v 24.7462 -148.845 1481.55
v 24.5784 -148.676 1481.81
v 24.6619 -148.488 1481.01
v 24.4034 -148.404 1481.37
v 24.5716 -148.118 1481.69
v 24.6681 -148.144 1481.61
v 24.4042 -148.21 1481.9
v 24.457 -148.103 1482.47
v 24.52 -148.23 1482.45
v 24.5202 -147.938 1482.12
v 24.5664 -147.317 1483.47
v 24.6043 -147.294 1483.37
v 24.7165 -147.197 1483.39
v 24.6105 -147.031 1484.27
v 24.7704 -146.885 1485.07
v 24.7312 -146.547 1484.83
v 24.8006 -149.518 1479.95
v 24.7812 -149.432 1479.79
v 24.8494 -149.171 1480.71
v 24.7564 -149.01 1481.22
v 24.7635 -148.913 1481.41
v 24.8129 -148.893 1481.39
v 24.919 -148.91 1480.81
v 24.7672 -148.775 1481.66
v 25.0246 -148.441 1481.95
v 24.8239 -148.377 1481.29
v 24.8993 -148.487 1481.23
v 25.0736 -148.258 1482.1
v 24.8658 -148.187 1482.77
v 24.9123 -148.274 1482.57
v 25.0104 -148.142 1482.74
v 24.8629 -147.884 1482.12
v 25.14 -147.731 1482.79
v 24.8215 -147.535 1484
v 25.1056 -147.465 1483.06
v 24.9181 -147.158 1483.4
v 25.0685 -147.134 1483.53
v 25.0821 -147.087 1484.95
v 24.8048 -147.194 1483.34
v 24.9152 -146.715 1484.23
v 25.0762 -146.744 1484.21
v 24.7656 -146.585 1484.65
v 24.8672 -146.564 1484.56
v 25.108 -146.125 1485.37
v 24.9148 -145.936 1485.88
v 25.0593 -145.881 1485.87
v 24.7798 -146.209 1486.06
v 24.804 -146.041 1485.95
v 24.8772 -145.78 1486.38
v 24.8634 -146.079 1486.56
v 24.8538 -145.751 1486.73
v 25.0267 -145.684 1486.32
v 25.1125 -145.578 1487.92
v 25.0683 -145.135 1487.61
v 25.0037 -145.251 1488.15
v 25.0278 -145.012 1488.16
v 25.0981 -145.24 1488.48
v 25.1459 -144.654 1488.76
v 25.1905 -147.559 1483.77
v 25.1653 -147.314 1484.41
v 25.2836 -147.33 1484.02
v 25.3138 -147.12 1484.57
v 25.3127 -147.175 1484.04
v 25.2275 -146.799 1485.51
v 25.3257 -146.747 1485.53
v 25.2689 -146.626 1484.61
v 25.4038 -146.617 1484.93
v 25.3585 -146.581 1484.85
v 25.5564 -146.223 1486.18
v 25.2565 -146.255 1485.21
v 25.2608 -145.894 1485.86
v 25.4919 -145.891 1486.16
v 25.5375 -145.962 1486.17
v 25.2169 -145.695 1486.23
v 25.4072 -145.76 1486.25
v 25.3699 -145.601 1486.5
v 25.1787 -145.366 1486.93
v 25.2177 -145.641 1487.92
v 25.4295 -145.714 1487.82
v 25.3623 -145.124 1487.44
v 25.1715 -145.021 1487.73
v 25.319 -144.804 1489.67
v 25.4747 -144.841 1489.74
v 25.52 -144.782 1488.23
v 25.4644 -144.602 1488.58
v 25.2735 -144.439 1490.24
v 25.2204 -144.449 1490.05
v 25.3719 -144.412 1489.03
v 25.1701 -144.387 1489.72
v 25.1984 -144.296 1489.77
v 25.1985 -144.348 1490.06
v 25.3588 -144.011 1490.07
v 25.3642 -143.793 1490.71
v 25.432 -143.347 1492.13
v 25.4591 -143.405 1492.42
v 25.4503 -143.293 1492.4
v 25.5167 -143.459 1492.55
v 25.522 -143.074 1492.57
v 25.5789 -146.01 1486.28
v 25.5647 -145.587 1488.02
v 25.5674 -145.207 1487.46
v 25.6781 -145.335 1487.49
v 25.8039 -145.144 1488.57
v 25.8179 -144.925 1488.56
v 25.8247 -145.05 1488.52
v 25.7705 -145.18 1488.66
v 25.7937 -144.536 1489.06
v 25.6586 -144.678 1490.13
v 25.7619 -144.259 1489.52
v 25.7295 -144.007 1491.71
v 25.6229 -143.807 1490.39
v 25.7125 -143.872 1490.27
v 25.6575 -143.597 1492.57
v 25.9117 -143.429 1491.39
v 25.6125 -143.374 1491.46
v 25.5736 -143.117 1492.23
v 25.9092 -143.042 1492.24
v 25.8594 -142.859 1492.67
v 25.8939 -142.78 1494.65
v 25.8316 -142.523 1495.09
v 25.8084 -142.593 1493.38
v 25.7286 -142.357 1494.3
v 25.8644 -142.181 1494.51
v 25.7164 -142.294 1494.79
v 25.805 -142.205 1495.57
v 25.8644 -141.809 1495.82
v 25.9531 -141.493 1497.12
v 26.0121 -144.19 1490.91
v 25.9511 -144.213 1491.04
v 25.9717 -143.685 1490.96
v 26.0191 -143.786 1490.89
v 26.1259 -143.722 1491.39
v 26.1318 -143.818 1491.48
v 26.0096 -143.689 1492.42
v 26.1739 -143.51 1492.61
v 26.1102 -142.762 1493.05
v 26.1546 -142.865 1492.9
v 26.2269 -142.852 1493.07
v 26.2712 -142.909 1493.09
v 26.2182 -142.639 1493.47
v 26.0724 -142.907 1494.45
v 26.3202 -142.726 1494.77
v 26.0625 -142.352 1493.95
v 26.2267 -142.306 1494.2
v 25.9756 -142.158 1494.46
v 26.3533 -142.401 1494.22
v 26.2795 -142.13 1496.5
v 26.2157 -141.823 1495.33
v 25.9671 -141.66 1495.97
v 26.1099 -141.577 1496
v 26.2119 -141.545 1496.05
v 26.2621 -141.311 1498.52
v 26.2708 -141.171 1497.07
v 26.0649 -141.148 1497.55
v 26.0521 -141.121 1497.84
v 26.234 -140.897 1497.95
v 26.2956 -140.332 1499.92
v 26.3176 -140.479 1500.34
v 26.4171 -142.602 1494.92
v 26.375 -142.14 1494.79
v 26.5039 -142.144 1495.13
v 26.547 -142.151 1495.34
v 26.4122 -142.163 1496.35
v 26.6124 -142.042 1496.06
v 26.6109 -141.781 1497.24
v 26.7035 -141.721 1496.99
v 26.7016 -141.665 1497.33
v 26.4186 -141.43 1496.44
v 26.4647 -141.568 1496.18
v 26.6304 -141.411 1496.84
v 26.757 -141.539 1497.32
v 26.7649 -141.303 1497.48
v 26.3617 -141.524 1498.12
v 26.6104 -141.121 1499.28
v 26.7111 -141.134 1499.18
v 26.4079 -141.091 1497.29
v 26.6662 -140.819 1498.2
v 26.614 -140.544 1498.83
v 26.5073 -140.511 1498.89
v 26.7168 -140.476 1501.1
v 26.5974 -139.959 1500.49
v 26.7228 -140.021 1500.29
v 26.4675 -139.884 1501
v 26.5751 -139.721 1501.3
v 26.5018 -139.64 1502.05
v 26.7176 -138.985 1504.3
v 26.803 -141.144 1498.99
v 27.0073 -140.288 1500.09
v 26.961 -140.608 1500.52
v 27.0701 -140.432 1500.8
v 26.9808 -140.356 1501.36
v 27.1313 -140.283 1501.07
v 26.8755 -140.362 1501.43
v 26.9726 -140.012 1500.59
v 26.9238 -139.683 1501.32
v 26.73 -139.036 1504.36
v 26.778 -138.856 1504.76
v 26.7952 -139.104 1504.5
v 26.9376 -139.23 1504.55
v 27.032 -139.301 1504.48
v 26.8056 -138.908 1504.81
v 26.8613 -138.949 1504.87
v 26.8396 -138.848 1504.87
v 26.9166 -138.891 1504.94
v 26.963 -139.048 1504.9
v 26.9674 -138.947 1504.96
v 26.988 -138.889 1504.98
v 27.0671 -139.135 1504.88
v 27.0619 -139.041 1504.96
v 27.069 -138.944 1504.99
v 27.1185 -139.186 1504.83
v 27.1145 -138.845 1505.01
v 26.7717 -138.787 1504.63
v 26.817 -138.706 1504.76
v 26.8055 -138.73 1504.48
v 26.8549 -138.656 1504.75
v 26.8521 -138.682 1504.48
v 26.9149 -138.604 1504.75
v 26.9444 -138.645 1504.38
v 26.9653 -138.567 1504.7
v 26.9659 -138.576 1504.76
v 27.0265 -138.556 1504.76
v 27.0422 -138.619 1504.36
v 27.066 -138.539 1504.65
v 27.1175 -138.544 1504.76
v 26.8192 -138.755 1504.81
v 26.8485 -138.701 1504.82
v 26.8673 -138.75 1504.88
v 26.9192 -138.756 1504.92
v 26.9129 -138.798 1504.93
v 26.9181 -138.699 1504.89
v 26.9187 -138.629 1504.81
v 26.966 -138.797 1504.96
v 27.0126 -138.743 1504.96
v 27.0182 -138.65 1504.9
v 27.0146 -138.58 1504.81
v 27.0607 -138.794 1504.99
v 27.0678 -138.566 1504.81
v 27.073 -138.599 1504.86
v 27.1154 -138.744 1504.98
v 27.2775 -139.569 1502.34
v 27.3283 -139.588 1502.62
v 27.1845 -139.283 1504.57
v 27.294 -139.247 1504.61
v 27.3753 -139.274 1504.38
v 27.4485 -139.154 1504.58
v 27.5007 -139.091 1504.44
v 27.5369 -138.932 1504.6
v 27.5362 -138.908 1504.72
v 27.5151 -138.91 1504.43
v 27.1624 -139.043 1504.97
v 27.2135 -139.147 1504.88
v 27.211 -138.942 1505
v 27.2155 -138.842 1505
v 27.2653 -139.044 1504.96
v 27.3149 -139.119 1504.88
v 27.3151 -138.944 1504.97
v 27.3138 -138.841 1504.97
v 27.3618 -139.046 1504.92
v 27.405 -138.893 1504.93
v 27.4108 -139.098 1504.83
v 27.414 -138.994 1504.9
v 27.4625 -138.899 1504.87
v 27.4791 -139.001 1504.82
v 27.5004 -138.898 1504.82
v 27.1305 -138.655 1504.25
v 27.2104 -138.544 1504.65
v 27.2222 -138.557 1504.76
v 27.2516 -138.614 1504.44
v 27.3119 -138.577 1504.65
v 27.3155 -138.593 1504.76
v 27.3393 -138.696 1504.34
v 27.4561 -138.707 1504.76
v 27.4096 -138.659 1504.77
v 27.4122 -138.643 1504.66
v 27.439 -138.801 1504.33
v 27.4796 -138.716 1504.66
v 27.5275 -138.814 1504.66
v 27.5197 -138.807 1504.73
v 27.1613 -138.644 1504.91
v 27.1605 -138.565 1504.81
v 27.2194 -138.742 1504.97
v 27.2144 -138.603 1504.86
v 27.2209 -138.65 1504.91
v 27.3156 -138.749 1504.94
v 27.3141 -138.698 1504.91
v 27.3154 -138.646 1504.86
v 27.3662 -138.797 1504.94
v 27.3665 -138.747 1504.91
v 27.4407 -138.8 1504.87
v 27.4124 -138.705 1504.83
v 27.4807 -138.802 1504.82
v 20.2776 -164.199 1467.26
v 20.3155 -164.253 1467.25
v 20.3155 -164.253 1467.25
v 20.3155 -164.253 1467.25
v 20.3155 -164.204 1467.22
v 20.3155 -164.204 1467.22
v 20.3155 -164.204 1467.22
v 20.314 -164.153 1467.24
v 20.2501 -164.188 1467.32
v 20.2671 -164.089 1467.37
v 20.3187 -164.277 1467.3
v 20.3187 -164.277 1467.3
v 20.3142 -164.271 1467.35
v 20.3155 -164.084 1467.29
v 20.3651 -164.251 1467.25
v 20.3634 -164.205 1467.23
v 20.4046 -164.201 1467.26
v 20.3654 -164.277 1467.3
v 20.3654 -164.277 1467.3
v 20.3654 -164.277 1467.3
v 20.4382 -164.182 1467.33
v 20.5318 -163.727 1467.96
v 20.5155 -163.018 1468.64
v 20.5155 -163.018 1468.64
v 20.6554 -163.136 1468.63
v 20.8294 -162.27 1469.61
v 20.8502 -161.344 1470.62
v 20.9546 -161.427 1470.48
v 21.0187 -161.454 1470.53
v 21.4363 -158.907 1473.3
v 22.3349 -156.606 1475.32
v 22.375 -155.712 1475.94
v 22.967 -159.319 1465.81
v 22.967 -159.319 1465.81
v 23.0138 -159.323 1465.81
v 23.0641 -159.321 1465.83
v 22.9095 -159.318 1465.85
v 22.9095 -159.318 1465.85
v 22.8897 -159.282 1465.94
v 22.9193 -159.376 1465.9
v 22.9677 -159.408 1465.9
v 23.0159 -159.41 1465.9
v 23.063 -159.395 1465.9
v 23.0933 -159.361 1465.9
v 23.0933 -159.361 1465.9
v 23.1055 -159.31 1465.9
v 23.111 -159.245 1466.07
v 22.963 -159.27 1465.83
v 22.9747 -159.146 1465.96
v 23.2503 -158.31 1467.22
v 23.2213 -158.158 1467.49
v 23.2129 -157.589 1468.23
v 23.1648 -157.263 1468.57
v 23.4215 -157.17 1468.67
v 23.4124 -156.639 1469.47
v 24.3279 -148.99 1481.15
v 24.4155 -149.144 1480.88
v 24.4155 -149.144 1480.88
v 24.4155 -149.144 1480.88
v 24.4155 -149.168 1480.9
v 24.4155 -149.168 1480.9
v 24.5155 -149.218 1480.89
v 24.5155 -149.218 1480.89
v 24.5155 -149.218 1480.89
v 24.5155 -149.218 1480.89
v 24.5655 -149.257 1480.79
v 24.5655 -149.202 1480.88
v 24.5655 -149.202 1480.88
v 24.3655 -148.956 1481.12
v 24.3655 -148.956 1481.12
v 24.3658 -148.931 1481.11
v 24.3658 -148.931 1481.11
v 24.3658 -148.931 1481.11
v 24.568 -149.216 1480.93
v 24.568 -149.216 1480.93
v 24.6542 -149.158 1481.08
v 24.6655 -149.124 1481.03
v 24.7138 -149.046 1481.17
v 24.6692 -149.176 1481.16
v 24.3637 -148.782 1481.31
v 24.5045 -148.744 1481.7
v 24.5045 -148.744 1481.7
v 24.5045 -148.744 1481.7
v 24.7564 -149.01 1481.22
v 24.7564 -149.01 1481.22
v 24.8215 -147.535 1484
vn -0.766736 -0.401197 -0.501156
vn -0.500754 -0.799972 -0.33059
vn -0.665792 -0.427691 -0.611393
vn -0.74862 0.332291 -0.573716
vn -0.983561 -0.179699 0.0177982
vn -0.782512 0.47226 -0.405766
vn -0.766369 -0.597867 -0.235019
vn -0.781151 -0.520313 0.345077
vn -0.53589 -0.832551 -0.14029
vn -0.613993 -0.741633 0.270172
vn -0.337009 -0.734414 0.589119
vn -0.752768 0.507412 -0.419372
vn -0.92231 -0.227848 0.312137
vn -0.433565 -0.673296 0.59891
vn 0.0345069 -0.897352 -0.439965
vn 0.238682 -0.47096 -0.849251
vn 0.714611 -0.411404 -0.565755
vn 0.398338 0.505862 -0.765134
vn 0.00028925 -0.884779 -0.466011
vn 0.269069 -0.891569 0.364288
vn 0.75052 -0.645837 -0.14005
vn 0.716249 -0.624856 0.310713
vn 0.923218 -0.383248 -0.0280951
vn 0.872244 0.273596 -0.405383
vn 0.25435 -0.788842 0.559496
vn 0.0186095 -0.780967 0.624295
vn 0.524801 -0.70618 0.475283
vn 0.379561 -0.750954 0.540372
vn 0.791487 -0.533879 0.297526
vn 0.00543082 -0.788076 0.615554
vn -0.826976 -0.366061 0.426743
vn -0.975418 0.219058 -0.0239488
vn -0.336268 -0.704375 0.625124
vn -0.753148 0.564861 -0.337194
vn 0.838326 0.340509 -0.42575
vn 0.845842 -0.477499 0.237795
vn 0.513586 0.618609 -0.594603
vn -0.867227 -0.30419 0.394189
vn -0.659523 -0.51959 0.54319
vn 0.465801 -0.722174 0.511365
vn 0.949328 -0.304765 0.0767785
vn -0.967897 -0.0832607 0.237155
vn -0.864839 -0.302148 0.400948
vn -0.983594 0.178546 0.0257582
vn -0.550013 -0.579725 0.601169
vn -0.075745 -0.765353 0.639138
vn -0.416942 -0.654708 0.63049
vn -0.0133012 -0.754579 0.656074
vn -0.968616 -0.0668574 0.239401
vn 0.463825 0.625842 -0.627047
vn 0.721589 0.449014 -0.526968
vn -0.359493 -0.671867 0.647579
vn 0.242693 -0.755934 0.608
vn -0.749549 -0.413819 0.516653
vn -0.348148 -0.664333 0.661404
vn -0.165216 -0.719455 0.674602
vn -0.470194 -0.609483 0.638316
vn 0.990956 -0.0788948 -0.108545
vn 0.889287 -0.418464 0.184543
vn -0.986782 0.0621057 0.149678
vn -0.857031 0.457593 -0.23687
vn 0.584535 0.537938 -0.607406
vn 0.664643 0.481644 -0.571199
vn 0.982225 -0.0599787 -0.177869
vn 0.966497 -0.256058 0.0178327
vn 0.88786 0.225936 -0.400821
vn 0.525863 -0.685063 0.504139
vn 0.876877 -0.436632 0.201095
vn 0.631945 0.487797 -0.602245
vn 0.968709 0.0256005 -0.246877
vn -0.710371 -0.434384 0.553791
vn -0.919024 -0.161619 0.359548
vn -0.148065 -0.713613 0.684714
vn 0.00960934 0.722744 -0.691049
vn -0.460783 -0.58911 0.663799
vn -0.774638 -0.356364 0.522437
vn 0.110213 -0.734955 0.6691
vn 0.238195 0.661595 -0.711024
vn 0.83663 0.272863 -0.474969
vn 0.961267 -0.274873 0.0202644
vn -0.923273 0.36053 -0.132605
vn -0.581339 -0.502444 0.639996
vn 0.534343 -0.66767 0.518357
vn 0.923244 0.113863 -0.366955
vn -0.4169 0.695902 -0.584735
vn -0.920511 -0.137484 0.365729
vn -0.081256 -0.700575 0.708937
vn 0.452373 0.559881 -0.694184
vn -0.377859 -0.590959 0.712735
vn -0.591232 0.634205 -0.498226
vn -0.980983 0.182148 0.0670417
vn -0.205431 0.708641 -0.675001
vn -0.698317 -0.390214 0.600072
vn 0.795326 -0.520636 0.310475
vn -0.0155886 -0.69132 0.72238
vn 0.979678 -0.170649 -0.1054
vn 0.514798 -0.662151 0.544554
vn -0.631121 0.612764 -0.475613
vn -0.0921188 0.687103 -0.720697
vn 0.144119 -0.696172 0.70326
vn -0.382264 -0.572296 0.725501
vn -0.971411 0.0387147 0.234228
vn 0.673343 0.392859 -0.626315
vn -0.878896 -0.173419 0.444373
vn -0.93891 0.332998 -0.0869445
vn -0.97977 0.150378 0.132046
vn -0.149528 0.677507 -0.720157
vn -0.589425 0.620549 -0.517202
vn -0.889006 -0.142313 0.435218
vn -0.641631 -0.402145 0.653138
vn -0.132772 -0.639388 0.757334
vn 0.431786 -0.6659 0.608389
vn 0.86038 -0.454939 0.22973
vn 0.381119 0.538311 -0.751644
vn 0.780115 0.270508 -0.564133
vn -0.916083 -0.0789249 0.393144
vn -0.721036 -0.321764 0.613658
vn -0.429338 -0.510878 0.744764
vn -0.830605 0.476808 -0.287662
vn -0.96318 0.268773 0.00672682
vn 0.0893057 -0.661588 0.744531
vn -0.562838 0.61949 -0.547216
vn 0.678971 -0.583019 0.446192
vn 0.109846 0.613937 -0.781675
vn 0.515094 0.448506 -0.730425
vn -0.771591 -0.257872 0.581506
vn -0.960841 0.0545459 0.271677
vn -0.157595 -0.602303 0.782556
vn 0.502971 -0.637374 0.58376
vn 0.149992 0.591255 -0.792414
vn -0.41131 0.638559 -0.650436
vn -0.881093 -0.107788 0.460497
vn -0.325757 -0.595309 -0.7345
vn -0.290784 -0.343885 -0.892854
vn 0.221023 -0.474232 -0.852204
vn 0.0984084 -0.324255 -0.940837
vn 0.427927 -0.273744 -0.861361
vn -0.793559 -0.457651 0.401024
vn -0.60136 -0.450909 -0.659581
vn -0.938348 -0.304552 0.163558
vn -0.76221 -0.56197 0.321286
vn -0.258957 -0.877839 -0.402914
vn -0.279975 -0.770831 0.572218
vn 0.122067 -0.859768 -0.495881
vn 0.123595 -0.951671 -0.281152
vn 0.469677 -0.807698 -0.35641
vn 0.413032 -0.760025 0.501763
vn 0.590404 -0.54973 -0.590949
vn 0.832271 -0.333452 -0.442872
vn 0.888109 0.099612 -0.448708
vn 0.686903 -0.612408 0.391306
vn -0.598474 0.475085 -0.645076
vn 0.255096 0.53523 -0.805267
vn -0.799437 0.46656 -0.378447
vn -0.508251 0.676907 -0.532426
vn 0.754969 0.407085 -0.514105
vn 0.50872 0.634217 -0.582213
vn 0.979218 0.0869486 -0.183227
vn -0.660304 0.612364 -0.434752
vn -0.996986 0.0663338 0.0402322
vn -0.00645275 0.772827 -0.634584
vn -0.905162 0.371563 -0.206452
vn -0.996239 0.0115863 0.0858659
vn 0.971828 -0.220085 -0.0843443
vn 0.860494 0.145175 -0.488337
vn 0.959843 -0.0739096 -0.270628
vn 0.683862 0.319966 -0.655709
vn 0.847175 -0.464448 0.258036
vn -0.513763 -0.44265 0.734921
vn 0.226703 -0.653341 0.722323
vn -0.118424 -0.600996 0.79043
vn -0.97174 0.217292 0.0922293
vn -0.638761 -0.347251 0.686587
vn -0.163821 -0.577351 0.799893
vn -0.819116 0.485101 -0.306147
vn -0.574498 0.599638 -0.557124
vn -0.875141 -0.0995527 0.473516
vn 0.651419 -0.628654 0.424791
vn 0.992348 -0.120472 -0.0270432
vn 0.0785237 -0.789599 0.608578
vn 0.830717 0.380393 -0.406461
vn -0.513195 -0.651985 0.558163
vn -0.941321 -0.215745 0.259554
vn -0.273039 0.767261 -0.58031
vn 0.155288 0.764231 -0.625969
vn 0.497071 0.64711 -0.578073
vn 0.580724 -0.675457 0.454442
vn -0.721763 0.578804 -0.379531
vn -0.0957749 -0.792213 0.602682
vn 0.39948 0.702493 -0.588998
vn 0.159175 0.774803 -0.611837
vn -0.819383 -0.418369 0.391891
vn -0.437358 -0.699817 0.564778
vn -0.185033 -0.781918 0.595287
vn 0.160275 -0.805963 0.569856
vn -0.299575 0.77325 -0.558874
vn -0.345576 -0.740539 0.57635
vn -0.903778 0.379892 -0.197148
vn -0.660669 0.630259 -0.407787
vn -0.790821 -0.457138 0.406972
vn -0.427012 0.747774 -0.508424
vn -0.996689 0.0676043 0.045183
vn 0.536136 0.403172 -0.741627
vn -0.130627 0.628563 -0.76671
vn 0.569736 -0.610335 0.550356
vn 0.322273 -0.640536 0.697032
vn 0.885021 0.0801778 -0.458596
vn -0.504895 -0.421656 0.753184
vn -0.0250225 -0.599608 0.799903
vn -0.395499 0.622318 -0.6755
vn -0.788978 -0.196747 0.582069
vn 0.921721 0.245794 -0.300028
vn 0.658377 0.557444 -0.505763
vn 0.74933 -0.571896 0.333826
vn 0.99486 -0.032701 -0.0958314
vn 0.475479 0.675816 -0.563198
vn 0.834443 0.390751 -0.388611
vn 0.946662 0.196585 -0.255316
vn -0.488487 -0.691081 0.532717
vn 0.608958 0.604319 -0.513779
vn 0.0802996 0.795438 -0.600692
vn -0.0519276 -0.816407 0.575138
vn 0.47869 -0.745477 0.463811
vn 0.953333 -0.288862 0.0878306
vn -0.168754 0.806609 -0.566484
vn 0.239534 0.773573 -0.586692
vn -0.801025 0.520217 -0.296198
vn 0.791529 0.449415 -0.414135
vn -0.922107 0.353335 -0.157713
vn -0.552888 0.704818 -0.444462
vn 0.516422 0.669115 -0.534409
vn -0.284181 0.79829 -0.531013
vn 0.00638512 0.81679 -0.5769
vn 0.262993 0.778559 -0.569807
vn -0.421976 -0.734717 0.531156
vn -0.00838763 -0.832047 0.554641
vn -0.845009 -0.403408 0.35103
vn -0.495719 0.739784 -0.454954
vn 0.710216 -0.554658 0.43353
vn -0.169257 0.822362 -0.543205
vn -0.993204 -0.0298294 0.112501
vn -0.762799 0.567896 -0.309245
vn 0.474827 -0.620059 0.624552
vn 0.952329 -0.305035 0.00492371
vn -0.832776 0.47091 -0.291081
vn 0.174721 0.548715 -0.817548
vn 0.674578 0.286355 -0.680401
vn -0.963974 0.255035 -0.0755727
vn -0.971592 0.183705 0.149205
vn -0.930556 0.0145729 0.365858
vn -0.427368 -0.453573 0.782067
vn 0.0923593 -0.613272 0.784453
vn 0.356483 -0.795615 0.489813
vn 0.757573 -0.581393 0.29676
vn 0.65874 0.581845 -0.476989
vn 0.982861 -0.184315 0.00357545
vn 0.953439 0.183395 -0.239415
vn 0.530758 -0.738515 0.415801
vn 0.109644 -0.841654 0.528769
vn 0.116117 0.817731 -0.563767
vn -0.30578 -0.787254 0.535471
vn 0.437772 0.723783 -0.533379
vn 0.724433 0.532803 -0.437399
vn 0.801219 -0.542699 0.252043
vn -0.705444 -0.567051 0.425207
vn -0.474998 0.757585 -0.447708
vn -0.126602 0.834102 -0.536885
vn -0.438229 -0.745664 0.501937
vn -0.0559488 -0.849408 0.524762
vn 0.918622 -0.00218661 -0.395132
vn 0.193165 0.813154 -0.549061
vn -0.803019 0.534325 -0.263926
vn -0.357174 0.805707 -0.472508
vn -0.106347 0.842649 -0.527857
vn -0.976757 -0.128253 0.171748
vn -0.424537 -0.757918 0.495307
vn -0.860688 -0.398664 0.316675
vn -0.638437 -0.631334 0.440246
vn -0.801181 0.542077 -0.253498
vn -0.596154 0.706674 -0.381067
vn -0.0979975 0.851489 -0.515134
vn -0.961531 0.26567 -0.0698373
vn -0.366368 0.811698 -0.454886
vn -0.713333 -0.578032 0.396278
vn -0.623317 0.698061 -0.352401
vn -0.849914 0.486198 -0.203122
vn -0.986707 -0.0837105 0.139292
vn -0.904719 0.383963 -0.184545
vn 0.839163 0.408193 -0.359421
vn 0.853652 -0.483541 0.193562
vn 0.970676 -0.23846 0.0304253
vn 0.51394 -0.758025 0.401576
vn 0.535472 0.683895 -0.495538
vn 0.970217 0.134519 -0.201453
vn -0.217331 -0.832634 0.509399
vn 0.192533 -0.857882 0.476413
vn 0.208045 0.81932 -0.534258
vn 0.723247 0.549182 -0.418705
vn 0.820005 -0.531194 0.213131
vn 0.534562 -0.758325 0.373078
vn 0.44098 0.744763 -0.500863
vn 0.164039 0.837664 -0.520971
vn -0.48773 -0.73555 0.470197
vn -0.0940247 0.860853 -0.500091
vn 0.554413 0.687849 -0.468499
vn -0.520136 -0.721609 0.456879
vn -0.0693356 0.600832 -0.796362
vn 0.49423 0.390754 -0.776562
vn 0.0325295 -0.866512 0.498095
vn 0.129038 -0.866921 0.481453
vn 0.226016 -0.864103 0.449715
vn -0.636689 0.572526 -0.516568
vn -0.784583 -0.507883 0.355647
vn 0.772717 0.183834 -0.607548
vn 0.719393 0.222714 -0.65793
vn 0.903483 0.0258059 -0.427846
vn 0.804774 -0.552488 -0.217016
vn 0.888294 -0.272078 -0.370009
vn 0.950069 -0.309839 -0.0369833
vn 0.16728 -0.603556 0.779575
vn 0.384144 -0.643969 0.661617
vn 0.788254 -0.52367 0.323151
vn -0.544663 0.749309 -0.376669
vn -0.323884 0.831126 -0.452027
vn -0.954848 0.242218 -0.172035
vn 0.322601 0.802427 -0.502036
vn -0.969674 0.244277 0.00775781
vn -0.918928 -0.277385 0.280408
vn -0.961638 0.0379977 0.271678
vn -0.909195 -0.251035 0.332184
vn -0.852688 -0.164894 0.495714
vn -0.819543 -0.378335 0.430362
vn -0.830086 -0.346902 0.436596
vn -0.071793 -0.635577 0.768692
vn 0.0631768 -0.815195 0.575731
vn 0.513956 -0.714489 0.474714
vn -0.143946 -0.798468 0.584576
vn 0.115844 0.854928 -0.505646
vn -0.783551 0.570429 -0.246289
vn -0.338451 0.835007 -0.433837
vn -0.041678 0.872029 -0.487676
vn -0.955965 0.285156 -0.0694063
vn -0.913832 -0.316636 0.254268
vn -0.772675 -0.524391 0.357755
vn -0.593769 0.726967 -0.344902
vn -0.907355 0.400737 -0.126951
vn -0.726171 0.632594 -0.269258
vn -0.423663 0.814995 -0.395339
vn -0.994864 0.0888639 0.048463
vn -0.723582 -0.589765 0.358617
vn -0.780565 0.584191 -0.22235
vn 0.942742 -0.325595 0.0722831
vn 0.899546 0.320429 -0.296886
vn 0.750589 -0.610715 0.252275
vn 0.399141 -0.833708 0.381598
vn 0.658457 -0.665051 0.352338
vn 0.446035 -0.803938 0.393366
vn 0.989825 0.0326541 -0.138494
vn 0.245438 -0.851061 0.464173
vn 0.855143 -0.492325 0.162315
vn 0.516128 0.718797 -0.465771
vn 0.747032 0.535684 -0.393682
vn 0.983084 -0.18201 -0.0204238
vn 0.164594 -0.878224 0.449035
vn 0.325939 -0.843106 0.42771
vn 0.512258 -0.781501 0.356157
vn 0.324147 0.8109 -0.487206
vn 0.899163 0.329851 -0.287584
vn -0.0600572 -0.887978 0.455947
vn 0.674626 0.612598 -0.411828
vn 0.124368 0.867717 -0.481248
vn 0.448764 0.765413 -0.461253
vn 0.162683 -0.893359 0.41886
vn -0.157245 0.874283 -0.459243
vn -0.12938 0.88362 -0.449975
vn 0.268149 0.841136 -0.469666
vn -0.592696 0.73729 -0.324213
vn -0.356875 0.844031 -0.400315
vn 0.069764 0.884826 -0.460668
vn -0.548134 0.769454 -0.327857
vn -0.194939 0.88493 -0.422963
vn -0.967592 -0.176527 0.180564
vn -0.920242 0.379161 -0.0969123
vn -0.776506 0.595488 -0.205991
vn -0.892902 -0.366049 0.26217
vn -0.989827 0.137678 0.0358663
vn -0.390411 0.844467 -0.366681
vn -0.581241 -0.7138 0.390702
vn -0.595113 0.751201 -0.285548
vn -0.956495 -0.213453 0.198883
vn -0.907487 0.409786 -0.0924226
vn -0.793198 -0.517473 0.321029
vn -0.75397 0.625665 -0.200184
vn 0.710061 -0.658336 0.249813
vn 0.411292 -0.834477 0.366725
vn 0.926258 -0.368981 0.0768002
vn 0.802252 -0.567684 0.184735
vn 0.992675 0.000564861 -0.120816
vn 0.303654 -0.871713 0.384592
vn 0.543733 -0.777824 0.315189
vn 0.636133 0.653431 -0.41032
vn 0.927044 0.276942 -0.25277
vn 0.805803 0.482016 -0.344008
vn 0.960417 -0.27759 0.023294
vn 0.455887 0.770341 -0.445804
vn 0.294526 0.841487 -0.452939
vn 0.730891 0.577954 -0.362997
vn 0.878154 0.382724 -0.286997
vn 0.0872238 0.892625 -0.442282
vn 0.535171 0.733552 -0.418919
vn 0.354636 0.829412 -0.431636
vn -0.137715 0.902464 -0.408159
vn -0.323956 -0.846059 0.423363
vn 0.0612244 -0.907031 0.416588
vn 0.133874 0.892854 -0.429988
vn -0.393668 0.850845 -0.347977
vn -0.583505 -0.718692 0.378157
vn -0.220188 -0.886069 0.407921
vn 0.336837 0.843507 -0.418374
vn 0.0559363 0.908768 -0.413536
vn -0.814782 -0.495434 0.301123
vn -0.911482 -0.332671 0.241931
vn -0.224008 0.89961 -0.374862
vn -0.980044 0.198029 0.0172456
vn -0.890517 0.444496 -0.0969644
vn -0.989187 -0.0633622 0.132269
vn -0.516758 0.8038 -0.294732
vn -0.736275 0.647525 -0.196494
vn -0.951617 0.306319 -0.0243754
vn -0.950046 -0.239544 0.200076
vn -0.994242 0.0760032 0.0755458
vn -0.791979 -0.531202 0.300988
vn -0.840817 0.526825 -0.124431
vn 0.976548 0.129221 -0.172206
vn 0.433706 -0.835558 0.337255
vn 0.600599 0.699258 -0.387709
vn 0.851507 0.435164 -0.29252
vn 0.932594 -0.355806 0.0605827
vn 0.937116 0.270547 -0.220497
vn 0.995061 -0.0568715 -0.0813541
vn 0.787949 -0.587524 0.184259
vn 0.757382 0.562939 -0.330865
vn 0.123723 -0.914329 0.385609
vn 0.51438 0.763585 -0.390323
vn -0.0999358 -0.915484 0.389745
vn -0.00217433 0.919918 -0.392105
vn 0.25844 0.876667 -0.405788
vn -0.491942 -0.785742 0.374969
vn 0.434364 0.813503 -0.386704
vn -0.281563 0.895528 -0.344604
vn -0.578345 0.775187 -0.25417
vn 0.213951 0.89575 -0.389688
vn -0.0366064 0.927733 -0.371445
vn -0.363978 -0.855836 0.367512
vn -0.712104 -0.627118 0.315645
vn -0.306188 0.894889 -0.324688
vn -0.758754 0.630094 -0.16515
vn -0.470057 0.838823 -0.274632
vn -0.949029 0.314517 -0.0205865
vn -0.916586 -0.330662 0.224796
vn -0.840778 0.53007 -0.110082
vn -0.994417 0.00250603 0.105495
vn 0.787542 -0.592283 0.170231
vn 0.536309 -0.795563 0.281872
vn 0.641063 0.680706 -0.35451
vn 0.838324 0.463944 -0.286303
vn 0.971494 0.163279 -0.171871
vn 0.960684 -0.277217 0.015422
vn 0.339095 -0.882735 0.325259
vn 0.731697 -0.655535 0.186798
vn 0.479812 0.79647 -0.367989
vn 0.607132 0.716771 -0.342971
vn 0.714979 0.620338 -0.322468
vn 0.885395 0.390824 -0.251658
vn 0.609835 0.712182 -0.347704
vn 0.0606593 -0.932326 0.356496
vn 0.495199 -0.82739 0.264959
vn 0.175585 0.909937 -0.375746
vn 0.458866 0.810963 -0.363016
vn -0.129765 0.929308 -0.345757
vn 0.73664 0.600376 -0.311304
vn -0.0132981 -0.937639 0.347356
vn 0.168147 0.9152 -0.366246
vn -0.603679 0.765695 -0.221997
vn -0.297332 0.904154 -0.306757
vn -0.0279391 0.936803 -0.348739
vn -0.543037 -0.770684 0.333403
vn -0.148165 0.934166 -0.324625
vn -0.756744 0.636354 -0.14964
vn -0.93649 0.349652 -0.0270096
vn -0.445477 0.856538 -0.260564
vn -0.850385 0.518168 -0.0913683
vn -0.8847 -0.400986 0.237732
vn 0.749371 -0.640822 0.166704
vn 0.63848 0.693215 -0.334361
vn 0.890776 0.384953 -0.241516
vn 0.987246 0.0804947 -0.13735
vn 0.287473 -0.907474 0.30635
vn 0.931852 -0.360991 0.0365683
vn 0.554748 -0.798358 0.234261
vn 0.915445 -0.398571 0.0556917
vn 0.791824 -0.595881 0.133945
vn 0.343199 0.868179 -0.358441
vn 0.541966 0.766888 -0.343738
vn 0.745228 0.596514 -0.298005
vn 0.969245 -0.245838 -0.0112922
vn 0.928019 0.307499 -0.210296
vn -0.22648 -0.907591 0.353534
vn 0.0232853 -0.94262 0.333054
vn 0.331012 -0.899468 0.285286
vn 0.118658 0.928377 -0.352187
vn 0.495503 0.799508 -0.339507
vn 0.245177 0.904544 -0.348839
vn -0.0673371 0.942099 -0.328505
vn -0.142709 -0.929607 0.339802
vn -0.19762 0.932082 -0.303594
vn 0.0851028 0.938074 -0.33582
vn -0.715284 0.68009 -0.160769
vn -0.497834 0.834399 -0.236516
vn -0.934659 0.354852 -0.0221918
vn -0.99343 0.0660302 0.0934698
vn 0.567204 -0.792951 0.222503
vn 0.814161 0.515044 -0.268089
vn 0.574967 -0.789517 0.214654
vn 0.780429 -0.611475 0.130499
vn 0.380405 -0.885503 0.266789
vn 0.927675 -0.372017 0.0319816
vn 0.143104 -0.939384 0.311573
vn 0.624585 0.714061 -0.316244
vn 0.345466 0.874581 -0.340237
vn -0.952126 -0.233215 0.197652
vn -0.959406 0.0216681 0.281196
vn -0.789523 -0.529428 0.310417
vn -0.53927 -0.75622 0.370565
vn -0.272539 -0.893978 0.355704
vn -0.882061 -0.264288 0.390027
vn -0.71348 -0.357057 0.602874
vn -0.776993 0.0336472 0.62861
vn -0.563063 -0.0550552 0.824578
vn -0.562102 -0.587102 0.58254
vn -0.453702 -0.285788 0.844085
vn -0.341355 -0.0118329 0.93986
vn -0.284995 -0.747997 0.599398
vn -0.269093 -0.481247 0.83426
vn -0.176725 -0.203705 0.96295
vn -0.117943 -0.882419 0.45544
vn -0.0804112 0.0692547 0.994353
vn -0.953733 0.288656 0.0840941
vn -0.857889 0.475314 0.195201
vn -0.814074 0.577222 -0.0640166
vn -0.711353 0.683593 0.163332
vn -0.634099 0.761679 -0.133282
vn -0.589318 0.794732 0.145274
vn -0.3901 0.891157 -0.231651
vn -0.434448 0.900574 -0.014876
vn -0.398017 0.868728 0.294779
vn -0.21579 0.951059 0.221182
vn -0.134114 0.949463 -0.283784
vn -0.128311 0.984949 -0.115806
vn 0.00174894 0.979657 0.200673
vn -0.867898 0.269924 0.417006
vn -0.696879 0.527323 0.486097
vn -0.673483 0.325136 0.663858
vn -0.490999 0.357674 0.794348
vn -0.578524 0.173515 0.796996
vn -0.497176 0.527434 0.688934
vn -0.505418 0.715561 0.482208
vn -0.410595 0.188884 0.89204
vn -0.30881 0.421721 0.852519
vn -0.255936 0.646555 0.718654
vn -0.288212 0.826716 0.483193
vn -0.222863 0.209187 0.952141
vn -0.112849 0.901174 0.41851
vn -0.0827461 0.79235 0.60443
vn -0.0468573 0.410165 0.910807
vn 0.922582 0.323683 -0.209932
vn 0.994683 -0.0109992 -0.102398
vn 0.0556648 -0.93611 0.347274
vn 0.322336 -0.88823 0.327333
vn 0.565622 -0.791427 0.231764
vn 0.775933 -0.602303 0.187508
vn 0.931715 -0.357548 0.0637698
vn 0.998229 -0.0380688 -0.0457047
vn 0.981988 -0.0856768 0.168401
vn 0.955725 0.23922 -0.171356
vn -0.0168421 -0.489955 0.871585
vn 0.104344 -0.787378 0.607575
vn 0.10354 -0.175607 0.979
vn 0.159918 0.124957 0.97919
vn 0.227297 -0.461719 0.85741
vn 0.339836 -0.722321 0.602299
vn 0.376074 -0.155294 0.913484
vn 0.372256 0.158127 0.914561
vn 0.464627 -0.449445 0.762969
vn 0.584415 0.0279966 0.810972
vn 0.603531 -0.664871 0.440109
vn 0.631813 -0.283551 0.721396
vn 0.76094 -0.00162345 0.64882
vn 0.849392 -0.352027 0.393206
vn 0.893496 0.0258472 0.448327
vn 0.0749766 0.947778 -0.309992
vn 0.156837 0.98272 -0.0983066
vn 0.245781 0.938144 0.243879
vn 0.309909 0.902499 -0.299084
vn 0.43264 0.898204 -0.0778035
vn 0.442684 0.852351 0.27844
vn 0.550943 0.779659 -0.297647
vn 0.776188 0.570469 0.26851
vn 0.614853 0.723983 0.312736
vn 0.657513 0.752055 -0.0457022
vn 0.794016 0.550864 -0.257074
vn 0.834037 0.551052 -0.0268954
vn 0.956967 0.282445 -0.0666214
vn 0.922463 0.312068 0.227324
vn 0.0246419 0.657384 0.753153
vn 0.0750016 0.892928 0.443908
vn 0.19175 0.437686 0.878443
vn 0.203529 0.815056 0.542457
vn 0.228559 0.656772 0.718618
vn 0.380958 0.39759 0.834741
vn 0.399182 0.577826 0.711878
vn 0.431428 0.720567 0.542819
vn 0.534999 0.257236 0.804739
vn 0.549433 0.45397 0.701452
vn 0.688301 0.296336 0.662138
vn 0.636478 0.55995 0.530427
vn 0.815538 0.319914 0.482237
vn -0.758511 0.326171 -0.564158
vn -0.742553 -0.315424 -0.590866
vn 0.0686552 -0.908124 -0.413035
vn 0.0828885 -0.483385 -0.871475
vn -0.615255 0.156796 -0.772577
vn 0.0654935 -0.469921 -0.880275
vn 0.252409 0.335649 -0.907541
vn 0.281561 0.439137 -0.85316
vn -0.824119 0.377821 -0.421994
vn -0.990464 0.128604 0.0494078
vn 0.0345069 -0.897352 -0.439965
vn 0.0446873 -0.984491 0.16965
vn 0.0451567 -0.930115 0.364483
vn 0.166746 0.716782 -0.677067
vn 0.47131 -0.570953 -0.67222
vn 0.29315 0.410259 -0.863568
vn 0.695101 0.349429 -0.628279
vn 0.000319995 -0.978823 0.204706
vn 0.508096 -0.760832 -0.403699
vn 0.550714 -0.817003 0.170937
vn 0.930298 0.155283 -0.332315
vn 0.991896 -0.09718 -0.0818487
vn 0.168298 0.739738 -0.651509
vn -0.196193 0.764992 -0.61343
vn 0.98461 -0.171584 -0.0332029
vn 0.979405 0.0100724 -0.201654
vn -0.232951 0.738738 -0.632455
vn -0.228322 0.745514 -0.626161
vn 0.982212 -0.0187793 -0.186836
vn -0.848362 -0.233125 0.475326
vn 0.975519 -0.19135 -0.108386
vn -0.038541 0.64761 -0.760996
vn -0.523221 0.234283 -0.81936
vn 0.0235673 0.33348 -0.942463
vn 0.206676 0.329209 -0.921361
vn 0.752801 0.135823 -0.644083
vn -0.733924 0.357263 -0.577683
vn -0.959368 -0.262478 -0.103529
vn -0.944888 0.255275 -0.204993
vn -0.591054 -0.66587 -0.455271
vn -0.286398 -0.802202 0.523877
vn 0.103105 -0.840237 0.532326
vn 0.515005 -0.748608 0.417559
vn 0.700921 -0.626277 0.3413
vn 0.969986 -0.235732 0.059644
vn 0.972513 -0.226056 0.055839
vn 0.972759 -0.224475 0.0578848
vn 0.0208465 0.547544 -0.836517
vn 0.107258 0.748259 -0.654679
vn 0.972129 -0.225454 0.0643055
vn 0.648625 -0.630258 0.426686
vn 0.0535394 -0.789729 0.611115
vn -0.543313 -0.635104 0.549048
vn 0.936796 -0.322076 0.136678
vn 0.534609 -0.701465 0.471317
vn -0.545424 -0.228005 -0.806552
vn -0.343259 -0.58078 -0.738152
vn -0.987501 -0.0974601 -0.123869
vn -0.59808 -0.801357 0.0113224
vn -0.985565 -0.0703446 -0.153994
vn -0.343259 -0.58078 -0.738152
vn -0.343259 -0.58078 -0.738152
vn -0.59808 -0.801357 0.0113224
vn 0.349838 -0.81494 0.462046
vn 0.254371 -0.928254 -0.271366
vn -0.59808 -0.801357 0.0113224
vn 0.254371 -0.928254 -0.271366
vn 0.769155 -0.604775 -0.206513
vn -0.982005 -0.0431133 -0.183866
vn -0.545424 -0.228005 -0.806552
vn -0.985565 -0.0703446 -0.153994
vn -0.545424 -0.228005 -0.806552
vn -0.967659 0.212208 -0.136395
vn 0.254371 -0.928254 -0.271366
vn 0.770887 -0.600534 -0.212352
vn 0.7326 -0.632833 -0.250637
vn 0.170029 -0.884077 0.435314
vn 0.359166 -0.862937 0.355443
vn 0.84025 -0.415622 -0.348193
vn -0.971757 0.140448 -0.18964
vn 0.113682 -0.618679 0.777375
vn -0.425026 -0.620192 0.659329
vn 0.143076 -0.884579 0.443902
vn 0.789931 -0.220759 -0.572079
vn 0.857817 -0.485099 0.169788
vn -0.61681 -0.671714 0.410299
g grp1
usemtl mtl1
f 2//2 9//9 7//7 
f 3//3 629//629 7//7 
f 1//1 3//3 7//7 
f 5//5 1//1 7//7 
f 4//4 632//632 628//628 
f 628//628 6//6 4//4 
f 636//636 6//6 628//628 
f 4//4 6//6 12//12 
f 638//638 630//630 15//15 
f 15//15 19//19 638//638 
f 642//642 631//631 16//16 
f 16//16 631//631 633//633 
f 643//643 634//634 18//18 
f 18//18 634//634 635//635 
f 18//18 635//635 641//641 
f 7//7 8//8 5//5 
f 5//5 13//13 637//637 
f 5//5 8//8 13//13 
f 7//7 9//9 10//10 
f 8//8 7//7 10//10 
f 11//11 8//8 10//10 
f 8//8 11//11 13//13 
f 645//645 20//20 639//639 
f 639//639 20//20 640//640 
f 11//11 640//640 20//20 
f 11//11 20//20 25//25 
f 12//12 6//6 34//34 
f 13//13 11//11 14//14 
f 637//637 13//13 32//32 
f 6//6 32//32 34//34 
f 21//21 646//646 642//642 
f 16//16 17//17 642//642 
f 23//23 21//21 17//17 
f 21//21 642//642 17//17 
f 18//18 644//644 643//643 
f 24//24 648//648 644//644 
f 18//18 24//24 644//644 
f 20//20 647//647 21//21 
f 22//22 20//20 21//21 
f 23//23 22//22 21//21 
f 20//20 22//22 25//25 
f 18//18 37//37 24//24 
f 37//37 18//18 641//641 
f 37//37 641//641 650//650 
f 26//26 11//11 25//25 
f 26//26 14//14 11//11 
f 28//28 26//26 27//27 
f 27//27 26//26 25//25 
f 28//28 14//14 26//26 
f 28//28 30//30 14//14 
f 27//27 25//25 22//22 
f 27//27 22//22 29//29 
f 27//27 29//29 28//28 
f 22//22 23//23 29//29 
f 648//648 24//24 649//649 
f 13//13 31//31 32//32 
f 13//13 14//14 31//31 
f 14//14 33//33 31//31 
f 14//14 30//30 33//33 
f 28//28 40//40 30//30 
f 40//40 33//33 30//30 
f 36//36 28//28 29//29 
f 24//24 37//37 35//35 
f 649//649 24//24 652//652 
f 33//33 38//38 31//31 
f 31//31 38//38 32//32 
f 40//40 28//28 36//36 
f 652//652 36//36 649//649 
f 36//36 41//41 40//40 
f 36//36 652//652 41//41 
f 33//33 39//39 38//38 
f 38//38 42//42 32//32 
f 46//46 33//33 40//40 
f 46//46 39//39 33//33 
f 38//38 39//39 42//42 
f 39//39 43//43 42//42 
f 42//42 44//44 32//32 
f 42//42 43//43 44//44 
f 39//39 47//47 43//43 
f 39//39 46//46 47//47 
f 47//47 45//45 43//43 
f 40//40 48//48 46//46 
f 48//48 47//47 46//46 
f 50//50 37//37 650//650 
f 35//35 37//37 51//51 
f 50//50 51//51 37//37 
f 43//43 49//49 44//44 
f 45//45 54//54 43//43 
f 49//49 43//43 54//54 
f 48//48 45//45 47//47 
f 48//48 52//52 45//45 
f 52//52 54//54 45//45 
f 48//48 40//40 53//53 
f 53//53 52//52 48//48 
f 62//62 50//50 650//650 
f 32//32 44//44 61//61 
f 34//34 32//32 61//61 
f 655//655 651//651 654//654 
f 49//49 60//60 44//44 
f 54//54 60//60 49//49 
f 55//55 54//54 52//52 
f 652//652 653//653 41//41 
f 59//59 40//40 41//41 
f 58//58 59//59 41//41 
f 653//653 58//58 41//41 
f 40//40 59//59 53//53 
f 51//51 50//50 62//62 
f 51//51 62//62 63//63 
f 653//653 656//656 58//58 
f 55//55 52//52 53//53 
f 55//55 53//53 56//56 
f 67//67 56//56 53//53 
f 59//59 67//67 53//53 
f 55//55 56//56 54//54 
f 56//56 57//57 54//54 
f 59//59 58//58 656//656 
f 44//44 60//60 61//61 
f 59//59 656//656 64//64 
f 63//63 62//62 66//66 
f 656//656 66//66 64//64 
f 65//65 64//64 66//66 
f 57//57 71//71 54//54 
f 54//54 71//71 60//60 
f 61//61 60//60 81//81 
f 65//65 67//67 59//59 
f 64//64 65//65 59//59 
f 66//66 62//62 69//69 
f 68//68 67//67 65//65 
f 66//66 69//69 70//70 
f 66//66 70//70 65//65 
f 65//65 70//70 68//68 
f 57//57 73//73 71//71 
f 56//56 73//73 57//57 
f 56//56 67//67 73//73 
f 655//655 654//654 74//74 
f 62//62 74//74 69//69 
f 60//60 72//72 81//81 
f 60//60 71//71 72//72 
f 71//71 73//73 75//75 
f 72//72 71//71 75//75 
f 74//74 654//654 85//85 
f 85//85 78//78 74//74 
f 78//78 69//69 74//74 
f 86//86 81//81 72//72 
f 75//75 76//76 72//72 
f 72//72 76//76 86//86 
f 75//75 73//73 77//77 
f 77//77 73//73 67//67 
f 61//61 81//81 85//85 
f 70//70 69//69 79//79 
f 69//69 78//78 79//79 
f 68//68 83//83 67//67 
f 77//77 67//67 83//83 
f 68//68 70//70 80//80 
f 70//70 79//79 80//80 
f 68//68 80//80 83//83 
f 76//76 75//75 82//82 
f 75//75 87//87 82//82 
f 75//75 77//77 87//87 
f 77//77 83//83 87//87 
f 92//92 78//78 85//85 
f 88//88 78//78 92//92 
f 80//80 79//79 84//84 
f 88//88 79//79 78//78 
f 80//80 94//94 83//83 
f 96//96 94//94 80//80 
f 90//90 85//85 81//81 
f 76//76 82//82 86//86 
f 92//92 85//85 90//90 
f 79//79 88//88 84//84 
f 80//80 84//84 96//96 
f 82//82 93//93 86//86 
f 86//86 91//91 81//81 
f 86//86 93//93 657//657 
f 82//82 89//89 93//93 
f 82//82 87//87 89//89 
f 87//87 83//83 95//95 
f 89//89 87//87 95//95 
f 91//91 102//102 81//81 
f 657//657 93//93 102//102 
f 102//102 93//93 104//104 
f 95//95 93//93 89//89 
f 88//88 103//103 84//84 
f 96//96 84//84 103//103 
f 83//83 97//97 95//95 
f 94//94 97//97 83//83 
f 94//94 96//96 113//113 
f 113//113 97//97 94//94 
f 90//90 81//81 98//98 
f 92//92 90//90 98//98 
f 99//99 88//88 92//92 
f 88//88 99//99 103//103 
f 98//98 81//81 105//105 
f 105//105 81//81 102//102 
f 95//95 101//101 93//93 
f 93//93 101//101 104//104 
f 99//99 92//92 98//98 
f 99//99 98//98 108//108 
f 95//95 97//97 100//100 
f 101//101 95//95 100//100 
f 107//107 99//99 108//108 
f 113//113 112//112 97//97 
f 97//97 112//112 100//100 
f 108//108 98//98 105//105 
f 102//102 104//104 105//105 
f 101//101 110//110 104//104 
f 101//101 100//100 111//111 
f 111//111 110//110 101//101 
f 111//111 100//100 112//112 
f 110//110 109//109 104//104 
f 108//108 105//105 119//119 
f 105//105 106//106 119//119 
f 105//105 104//104 106//106 
f 109//109 116//116 106//106 
f 109//109 106//106 104//104 
f 99//99 114//114 103//103 
f 107//107 114//114 99//99 
f 103//103 115//115 96//96 
f 96//96 658//658 113//113 
f 109//109 110//110 116//116 
f 103//103 114//114 115//115 
f 107//107 108//108 122//122 
f 122//122 108//108 119//119 
f 110//110 117//117 116//116 
f 110//110 111//111 118//118 
f 117//117 110//110 118//118 
f 117//117 126//126 116//116 
f 117//117 118//118 126//126 
f 118//118 111//111 121//121 
f 116//116 120//120 106//106 
f 106//106 120//120 119//119 
f 116//116 127//127 120//120 
f 116//116 126//126 127//127 
f 121//121 111//111 112//112 
f 123//123 112//112 113//113 
f 123//123 129//129 112//112 
f 112//112 129//129 121//121 
f 659//659 114//114 107//107 
f 115//115 114//114 165//165 
f 124//124 114//114 659//659 
f 124//124 659//659 130//130 
f 124//124 125//125 114//114 
f 125//125 124//124 130//130 
f 114//114 125//125 165//165 
f 128//128 118//118 121//121 
f 113//113 168//168 123//123 
f 123//123 168//168 129//129 
f 168//168 113//113 164//164 
f 113//113 658//658 164//164 
f 119//119 120//120 175//175 
f 175//175 120//120 172//172 
f 172//172 120//120 127//127 
f 175//175 122//122 119//119 
f 659//659 131//131 130//130 
f 126//126 132//132 127//127 
f 127//127 132//132 172//172 
f 130//130 131//131 204//204 
f 131//131 122//122 175//175 
f 204//204 131//131 176//176 
f 131//131 175//175 176//176 
f 128//128 169//169 118//118 
f 169//169 126//126 118//118 
f 126//126 169//169 132//132 
f 133//133 139//139 134//134 
f 664//664 152//152 660//660 
f 133//133 135//135 144//144 
f 142//142 133//133 144//144 
f 135//135 133//133 136//136 
f 136//136 133//133 134//134 
f 662//662 661//661 153//153 
f 153//153 661//661 675//675 
f 144//144 135//135 148//148 
f 148//148 135//135 137//137 
f 137//137 135//135 136//136 
f 156//156 663//663 153//153 
f 153//153 663//663 662//662 
f 141//141 143//143 138//138 
f 139//139 133//133 667//667 
f 665//665 141//141 140//140 
f 141//141 138//138 140//140 
f 152//152 664//664 154//154 
f 154//154 664//664 666//666 
f 138//138 183//183 160//160 
f 138//138 160//160 140//140 
f 133//133 142//142 667//667 
f 668//668 143//143 141//141 
f 680//680 138//138 143//143 
f 144//144 145//145 142//142 
f 669//669 143//143 668//668 
f 143//143 182//182 680//680 
f 148//148 149//149 146//146 
f 148//148 146//146 144//144 
f 144//144 146//146 145//145 
f 670//670 147//147 669//669 
f 669//669 147//147 143//143 
f 147//147 679//679 143//143 
f 679//679 147//147 180//180 
f 147//147 670//670 671//671 
f 149//149 148//148 663//663 
f 149//149 663//663 150//150 
f 147//147 671//671 151//151 
f 674//674 672//672 673//673 
f 678//678 147//147 151//151 
f 663//663 156//156 150//150 
f 666//666 160//160 154//154 
f 154//154 160//160 159//159 
f 152//152 154//154 155//155 
f 155//155 154//154 159//159 
f 153//153 675//675 676//676 
f 153//153 676//676 157//157 
f 153//153 157//157 156//156 
f 150//150 156//156 158//158 
f 151//151 178//178 678//678 
f 158//158 677//677 674//674 
f 156//156 157//157 158//158 
f 674//674 673//673 158//158 
f 161//161 157//157 676//676 
f 186//186 157//157 161//161 
f 155//155 159//159 161//161 
f 162//162 159//159 160//160 
f 160//160 163//163 162//162 
f 163//163 160//160 183//183 
f 164//164 658//658 165//165 
f 125//125 167//167 165//165 
f 125//125 130//130 167//167 
f 164//164 165//165 166//166 
f 170//170 121//121 129//129 
f 205//205 170//170 129//129 
f 205//205 129//129 168//168 
f 167//167 166//166 165//165 
f 168//168 164//164 166//166 
f 130//130 203//203 167//167 
f 128//128 121//121 170//170 
f 128//128 170//170 171//171 
f 171//171 169//169 128//128 
f 130//130 204//204 203//203 
f 167//167 207//207 166//166 
f 169//169 173//173 132//132 
f 132//132 173//173 177//177 
f 172//172 132//132 177//177 
f 169//169 171//171 174//174 
f 173//173 169//169 174//174 
f 174//174 171//171 170//170 
f 246//246 203//203 204//204 
f 172//172 177//177 249//249 
f 172//172 249//249 175//175 
f 245//245 176//176 175//175 
f 179//179 677//677 158//158 
f 158//158 157//157 181//181 
f 181//181 157//157 186//186 
f 179//179 158//158 181//181 
f 178//178 187//187 678//678 
f 179//179 681//681 677//677 
f 189//189 679//679 180//180 
f 678//678 187//187 682//682 
f 185//185 186//186 161//161 
f 159//159 162//162 188//188 
f 161//161 159//159 184//184 
f 184//184 159//159 188//188 
f 185//185 161//161 184//184 
f 214//214 682//682 187//187 
f 181//181 186//186 213//213 
f 681//681 179//179 214//214 
f 191//191 185//185 184//184 
f 185//185 190//190 186//186 
f 190//190 185//185 191//191 
f 190//190 213//213 186//186 
f 181//181 213//213 212//212 
f 179//179 181//181 212//212 
f 193//193 680//680 182//182 
f 193//193 679//679 189//189 
f 194//194 193//193 189//189 
f 189//189 195//195 194//194 
f 680//680 193//193 192//192 
f 183//183 192//192 163//163 
f 190//190 191//191 213//213 
f 192//192 193//193 200//200 
f 192//192 200//200 163//163 
f 197//197 193//193 194//194 
f 200//200 193//193 197//197 
f 162//162 163//163 188//188 
f 184//184 188//188 196//196 
f 191//191 184//184 196//196 
f 221//221 191//191 196//196 
f 191//191 216//216 213//213 
f 221//221 216//216 191//191 
f 200//200 202//202 163//163 
f 198//198 188//188 163//163 
f 163//163 202//202 198//198 
f 196//196 188//188 199//199 
f 198//198 199//199 188//188 
f 195//195 197//197 194//194 
f 198//198 202//202 227//227 
f 199//199 198//198 227//227 
f 196//196 199//199 201//201 
f 227//227 201//201 199//199 
f 221//221 196//196 201//201 
f 197//197 219//219 200//200 
f 200//200 237//237 202//202 
f 219//219 237//237 200//200 
f 201//201 227//227 230//230 
f 167//167 203//203 207//207 
f 174//174 170//170 206//206 
f 210//210 204//204 176//176 
f 210//210 246//246 204//204 
f 206//206 170//170 205//205 
f 166//166 207//207 244//244 
f 168//168 166//166 244//244 
f 205//205 168//168 239//239 
f 174//174 206//206 209//209 
f 206//206 205//205 239//239 
f 239//239 168//168 244//244 
f 174//174 208//208 173//173 
f 210//210 176//176 245//245 
f 209//209 208//208 174//174 
f 173//173 208//208 177//177 
f 177//177 208//208 211//211 
f 209//209 206//206 243//243 
f 177//177 211//211 249//249 
f 214//214 179//179 215//215 
f 179//179 212//212 215//215 
f 212//212 213//213 217//217 
f 215//215 212//212 217//217 
f 195//195 682//682 214//214 
f 213//213 216//216 217//217 
f 223//223 195//195 214//214 
f 215//215 217//217 218//218 
f 224//224 214//214 215//215 
f 216//216 221//221 220//220 
f 216//216 220//220 217//217 
f 215//215 218//218 224//224 
f 222//222 197//197 195//195 
f 222//222 219//219 197//197 
f 195//195 223//223 222//222 
f 224//224 218//218 257//257 
f 218//218 217//217 220//220 
f 235//235 219//219 222//222 
f 221//221 226//226 220//220 
f 218//218 220//220 228//228 
f 218//218 228//228 257//257 
f 201//201 230//230 225//225 
f 201//201 225//225 221//221 
f 226//226 221//221 225//225 
f 231//231 220//220 226//226 
f 231//231 228//228 220//220 
f 235//235 237//237 219//219 
f 224//224 223//223 214//214 
f 202//202 229//229 227//227 
f 225//225 230//230 232//232 
f 225//225 233//233 226//226 
f 233//233 225//225 232//232 
f 226//226 234//234 231//231 
f 233//233 234//234 226//226 
f 228//228 231//231 255//255 
f 231//231 234//234 255//255 
f 254//254 253//253 223//223 
f 240//240 233//233 232//232 
f 234//234 233//233 240//240 
f 202//202 248//248 229//229 
f 230//230 227//227 242//242 
f 242//242 227//227 229//229 
f 229//229 248//248 242//242 
f 235//235 265//265 237//237 
f 222//222 223//223 236//236 
f 236//236 235//235 222//222 
f 236//236 261//261 235//235 
f 261//261 265//265 235//235 
f 236//236 223//223 253//253 
f 236//236 253//253 259//259 
f 236//236 259//259 261//261 
f 230//230 242//242 238//238 
f 232//232 230//230 238//238 
f 237//237 241//241 202//202 
f 202//202 241//241 248//248 
f 237//237 265//265 275//275 
f 237//237 275//275 241//241 
f 240//240 232//232 238//238 
f 239//239 243//243 206//206 
f 244//244 207//207 270//270 
f 207//207 203//203 270//270 
f 238//238 242//242 266//266 
f 238//238 266//266 240//240 
f 240//240 266//266 267//267 
f 241//241 275//275 248//248 
f 243//243 239//239 322//322 
f 322//322 239//239 244//244 
f 319//319 244//244 270//270 
f 265//265 277//277 275//275 
f 210//210 245//245 312//312 
f 307//307 246//246 210//210 
f 246//246 247//247 203//203 
f 247//247 246//246 308//308 
f 308//308 246//246 307//307 
f 247//247 270//270 203//203 
f 322//322 244//244 319//319 
f 270//270 247//247 314//314 
f 175//175 249//249 245//245 
f 243//243 322//322 321//321 
f 242//242 248//248 272//272 
f 266//266 242//242 272//272 
f 247//247 308//308 314//314 
f 249//249 211//211 250//250 
f 249//249 327//327 245//245 
f 249//249 250//250 327//327 
f 245//245 327//327 288//288 
f 288//288 312//312 245//245 
f 208//208 209//209 251//251 
f 251//251 211//211 208//208 
f 209//209 243//243 252//252 
f 251//251 209//209 252//252 
f 252//252 243//243 321//321 
f 248//248 275//275 282//282 
f 248//248 282//282 272//272 
f 224//224 254//254 223//223 
f 255//255 257//257 228//228 
f 255//255 263//263 257//257 
f 256//256 254//254 224//224 
f 224//224 257//257 256//256 
f 258//258 253//253 254//254 
f 254//254 264//264 258//258 
f 291//291 264//264 254//254 
f 254//254 256//256 291//291 
f 259//259 253//253 258//258 
f 259//259 258//258 292//292 
f 240//240 260//260 234//234 
f 234//234 262//262 255//255 
f 260//260 262//262 234//234 
f 260//260 240//240 267//267 
f 256//256 257//257 291//291 
f 269//269 261//261 259//259 
f 292//292 269//269 259//259 
f 257//257 263//263 289//289 
f 268//268 261//261 269//269 
f 261//261 268//268 265//265 
f 292//292 258//258 264//264 
f 262//262 263//263 255//255 
f 263//263 262//262 293//293 
f 263//263 293//293 289//289 
f 293//293 262//262 271//271 
f 271//271 262//262 260//260 
f 290//290 292//292 264//264 
f 264//264 291//291 290//290 
f 292//292 296//296 269//269 
f 267//267 266//266 274//274 
f 260//260 267//267 271//271 
f 267//267 274//274 271//271 
f 274//274 266//266 273//273 
f 277//277 287//287 275//275 
f 275//275 287//287 282//282 
f 266//266 272//272 280//280 
f 280//280 273//273 266//266 
f 269//269 296//296 295//295 
f 265//265 278//278 277//277 
f 265//265 268//268 278//278 
f 268//268 269//269 295//295 
f 295//295 276//276 268//268 
f 278//278 268//268 276//276 
f 303//303 276//276 295//295 
f 303//303 278//278 276//276 
f 280//280 272//272 279//279 
f 273//273 281//281 274//274 
f 297//297 271//271 274//274 
f 281//281 297//297 274//274 
f 279//279 272//272 282//282 
f 281//281 273//273 283//283 
f 273//273 280//280 283//283 
f 283//283 280//280 285//285 
f 280//280 279//279 285//285 
f 287//287 277//277 328//328 
f 307//307 210//210 312//312 
f 277//277 278//278 284//284 
f 284//284 328//328 277//277 
f 303//303 284//284 278//278 
f 306//306 284//284 303//303 
f 306//306 313//313 284//284 
f 250//250 211//211 331//331 
f 331//331 211//211 251//251 
f 333//333 331//331 251//251 
f 283//283 285//285 324//324 
f 286//286 279//279 282//282 
f 279//279 286//286 285//285 
f 687//687 696//696 698//698 
f 313//313 328//328 284//284 
f 683//683 699//699 697//697 
f 288//288 327//327 325//325 
f 286//286 282//282 342//342 
f 286//286 342//342 339//339 
f 285//285 286//286 339//339 
f 323//323 285//285 339//339 
f 342//342 282//282 287//287 
f 250//250 329//329 327//327 
f 291//291 257//257 294//294 
f 257//257 289//289 294//294 
f 290//290 299//299 292//292 
f 289//289 353//353 294//294 
f 297//297 293//293 271//271 
f 289//289 298//298 353//353 
f 293//293 298//298 289//289 
f 291//291 299//299 290//290 
f 299//299 300//300 292//292 
f 292//292 300//300 296//296 
f 301//301 293//293 297//297 
f 298//298 293//293 301//301 
f 300//300 311//311 296//296 
f 306//306 303//303 295//295 
f 296//296 309//309 295//295 
f 309//309 306//306 295//295 
f 311//311 309//309 296//296 
f 291//291 352//352 299//299 
f 299//299 354//354 300//300 
f 352//352 354//354 299//299 
f 301//301 297//297 302//302 
f 297//297 281//281 302//302 
f 304//304 302//302 281//281 
f 305//305 298//298 301//301 
f 304//304 281//281 283//283 
f 326//326 301//301 302//302 
f 305//305 301//301 326//326 
f 357//357 300//300 354//354 
f 311//311 300//300 357//357 
f 270//270 314//314 316//316 
f 270//270 316//316 319//319 
f 304//304 283//283 324//324 
f 338//338 302//302 304//304 
f 338//338 326//326 302//302 
f 689//689 688//688 684//684 
f 687//687 698//698 685//685 
f 693//693 690//690 686//686 
f 308//308 315//315 314//314 
f 310//310 691//691 309//309 
f 701//701 692//692 694//694 
f 310//310 309//309 311//311 
f 311//311 357//357 355//355 
f 325//325 707//707 700//700 
f 288//288 325//325 700//700 
f 314//314 315//315 316//316 
f 695//695 317//317 702//702 
f 317//317 703//703 702//702 
f 317//317 706//706 703//703 
f 311//311 704//704 310//310 
f 311//311 355//355 704//704 
f 318//318 706//706 317//317 
f 704//704 355//355 705//705 
f 711//711 706//706 318//318 
f 322//322 319//319 712//712 
f 329//329 250//250 331//331 
f 251//251 252//252 334//334 
f 708//708 251//251 334//334 
f 252//252 321//321 320//320 
f 334//334 252//252 320//320 
f 320//320 321//321 334//334 
f 334//334 321//321 335//335 
f 336//336 335//335 321//321 
f 322//322 336//336 321//321 
f 712//712 356//356 322//322 
f 356//356 336//336 322//322 
f 324//324 285//285 323//323 
f 324//324 341//341 304//304 
f 341//341 338//338 304//304 
f 361//361 305//305 326//326 
f 324//324 323//323 340//340 
f 324//324 340//340 341//341 
f 325//325 327//327 707//707 
f 327//327 329//329 328//328 
f 329//329 330//330 328//328 
f 329//329 331//331 330//330 
f 331//331 333//333 332//332 
f 331//331 332//332 330//330 
f 334//334 337//337 709//709 
f 335//335 337//337 334//334 
f 336//336 359//359 335//335 
f 332//332 333//333 344//344 
f 330//330 332//332 344//344 
f 330//330 344//344 328//328 
f 369//369 337//337 335//335 
f 369//369 710//710 337//337 
f 326//326 338//338 367//367 
f 367//367 338//338 341//341 
f 323//323 339//339 345//345 
f 345//345 340//340 323//323 
f 328//328 343//343 287//287 
f 328//328 344//344 343//343 
f 287//287 343//343 349//349 
f 713//713 344//344 333//333 
f 342//342 287//287 349//349 
f 342//342 346//346 339//339 
f 342//342 349//349 346//346 
f 346//346 347//347 339//339 
f 345//345 339//339 347//347 
f 340//340 345//345 348//348 
f 340//340 374//374 341//341 
f 374//374 340//340 348//348 
f 347//347 348//348 345//345 
f 344//344 713//713 350//350 
f 344//344 350//350 343//343 
f 351//351 347//347 346//346 
f 343//343 382//382 349//349 
f 347//347 351//351 377//377 
f 343//343 350//350 382//382 
f 291//291 294//294 358//358 
f 291//291 358//358 352//352 
f 294//294 353//353 358//358 
f 357//357 356//356 355//355 
f 298//298 305//305 362//362 
f 298//298 362//362 353//353 
f 305//305 361//361 362//362 
f 356//356 357//357 336//336 
f 336//336 357//357 359//359 
f 357//357 364//364 359//359 
f 359//359 364//364 335//335 
f 352//352 360//360 354//354 
f 363//363 352//352 358//358 
f 352//352 363//363 360//360 
f 364//364 369//369 335//335 
f 366//366 357//357 354//354 
f 366//366 354//354 360//360 
f 361//361 326//326 367//367 
f 367//367 370//370 361//361 
f 362//362 361//361 370//370 
f 364//364 357//357 365//365 
f 365//365 357//357 366//366 
f 360//360 363//363 396//396 
f 366//366 360//360 394//394 
f 341//341 371//371 367//367 
f 372//372 370//370 367//367 
f 371//371 372//372 367//367 
f 368//368 362//362 370//370 
f 362//362 368//368 353//353 
f 358//358 353//353 368//368 
f 363//363 358//358 398//398 
f 364//364 365//365 366//366 
f 360//360 396//396 394//394 
f 364//364 366//366 373//373 
f 369//369 364//364 373//373 
f 394//394 395//395 366//366 
f 395//395 373//373 366//366 
f 341//341 374//374 371//371 
f 376//376 372//372 371//371 
f 347//347 377//377 348//348 
f 374//374 348//348 375//375 
f 371//371 374//374 375//375 
f 371//371 375//375 379//379 
f 379//379 376//376 371//371 
f 405//405 372//372 376//376 
f 348//348 377//377 378//378 
f 380//380 378//378 377//377 
f 375//375 348//348 378//378 
f 375//375 378//378 381//381 
f 378//378 380//380 381//381 
f 406//406 405//405 376//376 
f 406//406 376//376 379//379 
f 380//380 377//377 351//351 
f 350//350 385//385 382//382 
f 350//350 392//392 385//385 
f 350//350 388//388 392//392 
f 413//413 388//388 350//350 
f 413//413 350//350 713//713 
f 346//346 383//383 351//351 
f 379//379 375//375 381//381 
f 349//349 383//383 346//346 
f 380//380 387//387 381//381 
f 382//382 386//386 349//349 
f 383//383 349//349 386//386 
f 384//384 351//351 383//383 
f 351//351 384//384 380//380 
f 392//392 390//390 385//385 
f 385//385 390//390 382//382 
f 382//382 390//390 386//386 
f 381//381 387//387 412//412 
f 389//389 380//380 384//384 
f 387//387 380//380 389//389 
f 389//389 416//416 387//387 
f 387//387 416//416 412//412 
f 409//409 381//381 412//412 
f 413//413 417//417 388//388 
f 417//417 392//392 388//388 
f 383//383 391//391 384//384 
f 383//383 386//386 391//391 
f 427//427 416//416 389//389 
f 392//392 422//422 390//390 
f 422//422 426//426 390//390 
f 390//390 426//426 386//386 
f 386//386 426//426 424//424 
f 393//393 389//389 384//384 
f 393//393 384//384 391//391 
f 427//427 389//389 393//393 
f 386//386 424//424 391//391 
f 424//424 425//425 391//391 
f 393//393 391//391 425//425 
f 393//393 425//425 428//428 
f 427//427 393//393 428//428 
f 363//363 398//398 396//396 
f 398//398 358//358 368//368 
f 394//394 400//400 395//395 
f 394//394 397//397 400//400 
f 396//396 397//397 394//394 
f 404//404 397//397 396//396 
f 396//396 398//398 404//404 
f 368//368 403//403 402//402 
f 368//368 370//370 403//403 
f 368//368 402//402 398//398 
f 404//404 398//398 434//434 
f 398//398 402//402 434//434 
f 373//373 395//395 399//399 
f 397//397 441//441 400//400 
f 404//404 441//441 397//397 
f 400//400 399//399 395//395 
f 401//401 370//370 372//372 
f 370//370 401//401 403//403 
f 401//401 372//372 405//405 
f 401//401 407//407 403//403 
f 400//400 435//435 399//399 
f 399//399 435//435 373//373 
f 369//369 373//373 414//414 
f 435//435 414//414 373//373 
f 441//441 435//435 400//400 
f 369//369 414//414 413//413 
f 410//410 405//405 406//406 
f 401//401 405//405 410//410 
f 408//408 402//402 403//403 
f 379//379 409//409 406//406 
f 401//401 410//410 407//407 
f 403//403 407//407 408//408 
f 402//402 408//408 434//434 
f 409//409 379//379 381//381 
f 410//410 406//406 411//411 
f 411//411 406//406 409//409 
f 443//443 413//413 414//414 
f 414//414 435//435 443//443 
f 418//418 413//413 443//443 
f 409//409 415//415 411//411 
f 436//436 410//410 411//411 
f 415//415 409//409 412//412 
f 416//416 427//427 423//423 
f 417//417 413//413 418//418 
f 412//412 420//420 415//415 
f 415//415 419//419 411//411 
f 420//420 419//419 415//415 
f 419//419 436//436 411//411 
f 416//416 423//423 412//412 
f 412//412 423//423 420//420 
f 392//392 421//421 422//422 
f 392//392 417//417 421//421 
f 426//426 422//422 430//430 
f 422//422 421//421 430//430 
f 417//417 432//432 421//421 
f 446//446 447//447 420//420 
f 420//420 423//423 446//446 
f 430//430 431//431 426//426 
f 421//421 432//432 430//430 
f 426//426 431//431 424//424 
f 448//448 417//417 418//418 
f 432//432 417//417 448//448 
f 428//428 425//425 433//433 
f 450//450 423//423 427//427 
f 427//427 428//428 451//451 
f 433//433 425//425 429//429 
f 425//425 424//424 429//429 
f 428//428 433//433 451//451 
f 424//424 431//431 429//429 
f 431//431 459//459 429//429 
f 429//429 459//459 433//433 
f 431//431 430//430 462//462 
f 432//432 460//460 430//430 
f 430//430 460//460 462//462 
f 440//440 404//404 434//434 
f 408//408 407//407 437//437 
f 408//408 437//437 434//434 
f 440//440 434//434 439//439 
f 439//439 434//434 437//437 
f 407//407 410//410 436//436 
f 407//407 436//436 437//437 
f 404//404 440//440 438//438 
f 404//404 438//438 441//441 
f 440//440 468//468 438//438 
f 439//439 437//437 442//442 
f 440//440 439//439 467//467 
f 440//440 467//467 468//468 
f 438//438 468//468 441//441 
f 467//467 439//439 466//466 
f 463//463 441//441 468//468 
f 435//435 441//441 463//463 
f 437//437 436//436 442//442 
f 439//439 442//442 466//466 
f 435//435 464//464 443//443 
f 463//463 464//464 435//435 
f 444//444 436//436 419//419 
f 442//442 436//436 444//444 
f 447//447 419//419 420//420 
f 444//444 419//419 447//447 
f 449//449 444//444 447//447 
f 418//418 445//445 448//448 
f 445//445 418//418 443//443 
f 464//464 469//469 443//443 
f 446//446 423//423 450//450 
f 447//447 446//446 452//452 
f 449//449 447//447 452//452 
f 442//442 444//444 465//465 
f 445//445 454//454 448//448 
f 446//446 450//450 453//453 
f 465//465 444//444 449//449 
f 451//451 450//450 427//427 
f 450//450 451//451 456//456 
f 450//450 456//456 453//453 
f 480//480 453//453 456//456 
f 446//446 453//453 452//452 
f 452//452 453//453 478//478 
f 478//478 453//453 480//480 
f 471//471 449//449 452//452 
f 452//452 478//478 471//471 
f 458//458 456//456 451//451 
f 455//455 432//432 448//448 
f 455//455 448//448 454//454 
f 432//432 455//455 460//460 
f 462//462 459//459 431//431 
f 433//433 459//459 457//457 
f 451//451 433//433 457//457 
f 457//457 458//458 451//451 
f 460//460 455//455 493//493 
f 454//454 487//487 455//455 
f 493//493 455//455 487//487 
f 480//480 456//456 458//458 
f 480//480 458//458 485//485 
f 461//461 457//457 459//459 
f 457//457 461//461 484//484 
f 458//458 457//457 484//484 
f 484//484 485//485 458//458 
f 459//459 490//490 461//461 
f 459//459 462//462 490//490 
f 484//484 461//461 489//489 
f 461//461 490//490 489//489 
f 463//463 470//470 464//464 
f 466//466 442//442 465//465 
f 463//463 468//468 470//470 
f 468//468 467//467 497//497 
f 470//470 469//469 464//464 
f 469//469 445//445 443//443 
f 469//469 470//470 477//477 
f 467//467 466//466 474//474 
f 466//466 465//465 473//473 
f 474//474 466//466 473//473 
f 467//467 474//474 497//497 
f 469//469 476//476 445//445 
f 465//465 449//449 471//471 
f 473//473 465//465 472//472 
f 472//472 465//465 471//471 
f 472//472 471//471 473//473 
f 475//475 473//473 471//471 
f 471//471 479//479 475//475 
f 475//475 479//479 481//481 
f 473//473 475//475 481//481 
f 473//473 481//481 474//474 
f 454//454 445//445 476//476 
f 477//477 476//476 469//469 
f 494//494 477//477 470//470 
f 482//482 454//454 476//476 
f 479//479 471//471 478//478 
f 495//495 481//481 479//479 
f 498//498 482//482 476//476 
f 498//498 476//476 477//477 
f 495//495 504//504 505//505 
f 504//504 495//495 479//479 
f 480//480 485//485 486//486 
f 483//483 478//478 480//480 
f 480//480 486//486 483//483 
f 479//479 478//478 483//483 
f 479//479 483//483 503//503 
f 504//504 479//479 503//503 
f 508//508 454//454 482//482 
f 508//508 487//487 454//454 
f 485//485 491//491 488//488 
f 485//485 488//488 486//486 
f 511//511 486//486 488//488 
f 511//511 483//483 486//486 
f 485//485 484//484 491//491 
f 511//511 503//503 483//483 
f 491//491 484//484 489//489 
f 460//460 493//493 462//462 
f 487//487 533//533 493//493 
f 518//518 491//491 489//489 
f 489//489 492//492 518//518 
f 489//489 490//490 492//492 
f 490//490 462//462 520//520 
f 492//492 490//490 520//520 
f 520//520 518//518 492//492 
f 499//499 470//470 468//468 
f 468//468 497//497 499//499 
f 499//499 494//494 470//470 
f 496//496 474//474 481//481 
f 474//474 496//496 497//497 
f 502//502 494//494 499//499 
f 502//502 477//477 494//494 
f 505//505 481//481 495//495 
f 481//481 505//505 496//496 
f 496//496 505//505 507//507 
f 497//497 496//496 507//507 
f 499//499 497//497 506//506 
f 477//477 500//500 498//498 
f 502//502 500//500 477//477 
f 502//502 499//499 501//501 
f 501//501 506//506 502//502 
f 501//501 499//499 506//506 
f 500//500 510//510 498//498 
f 498//498 510//510 482//482 
f 512//512 505//505 504//504 
f 482//482 509//509 508//508 
f 482//482 510//510 509//509 
f 502//502 522//522 500//500 
f 510//510 500//500 522//522 
f 503//503 512//512 504//504 
f 514//514 511//511 488//488 
f 514//514 488//488 491//491 
f 514//514 513//513 511//511 
f 511//511 513//513 503//503 
f 524//524 510//510 522//522 
f 512//512 503//503 513//513 
f 513//513 514//514 517//517 
f 512//512 513//513 530//530 
f 513//513 517//517 530//530 
f 509//509 515//515 508//508 
f 515//515 487//487 508//508 
f 519//519 491//491 518//518 
f 491//491 519//519 516//516 
f 514//514 491//491 516//516 
f 514//514 516//516 517//517 
f 554//554 516//516 519//519 
f 519//519 518//518 552//552 
f 554//554 519//519 552//552 
f 493//493 531//531 462//462 
f 462//462 521//521 520//520 
f 462//462 531//531 521//521 
f 521//521 532//532 548//548 
f 518//518 520//520 550//550 
f 497//497 507//507 577//577 
f 506//506 497//497 577//577 
f 502//502 524//524 522//522 
f 525//525 524//524 502//502 
f 527//527 525//525 502//502 
f 523//523 507//507 505//505 
f 512//512 530//530 529//529 
f 529//529 505//505 512//512 
f 502//502 506//506 527//527 
f 580//580 524//524 525//525 
f 506//506 577//577 527//527 
f 509//509 528//528 515//515 
f 510//510 528//528 509//509 
f 524//524 526//526 510//510 
f 510//510 526//526 528//528 
f 580//580 526//526 524//524 
f 529//529 523//523 505//505 
f 516//516 601//601 517//517 
f 601//601 530//530 517//517 
f 611//611 523//523 529//529 
f 535//535 487//487 515//515 
f 515//515 578//578 535//535 
f 516//516 554//554 558//558 
f 516//516 558//558 601//601 
f 601//601 604//604 530//530 
f 607//607 529//529 530//530 
f 607//607 530//530 604//604 
f 493//493 533//533 531//531 
f 533//533 537//537 536//536 
f 533//533 536//536 531//531 
f 531//531 532//532 521//521 
f 531//531 536//536 532//532 
f 534//534 533//533 487//487 
f 535//535 534//534 487//487 
f 543//543 534//534 535//535 
f 546//546 535//535 578//578 
f 546//546 543//543 535//535 
f 536//536 538//538 532//532 
f 536//536 537//537 538//538 
f 537//537 539//539 538//538 
f 538//538 539//539 565//565 
f 533//533 534//534 540//540 
f 533//533 540//540 537//537 
f 540//540 541//541 537//537 
f 541//541 539//539 537//537 
f 542//542 568//568 539//539 
f 568//568 565//565 539//539 
f 543//543 540//540 534//534 
f 539//539 541//541 542//542 
f 545//545 547//547 542//542 
f 541//541 545//545 542//542 
f 568//568 542//542 572//572 
f 542//542 547//547 572//572 
f 540//540 543//543 544//544 
f 541//541 540//540 544//544 
f 544//544 545//545 541//541 
f 543//543 546//546 587//587 
f 544//544 543//543 586//586 
f 545//545 544//544 586//586 
f 575//575 572//572 547//547 
f 587//587 546//546 578//578 
f 586//586 588//588 545//545 
f 588//588 547//547 545//545 
f 518//518 550//550 552//552 
f 548//548 520//520 521//521 
f 532//532 561//561 548//548 
f 550//550 520//520 548//548 
f 561//561 549//549 548//548 
f 561//561 562//562 549//549 
f 548//548 549//549 550//550 
f 549//549 551//551 550//550 
f 562//562 551//551 549//549 
f 552//552 550//550 551//551 
f 551//551 567//567 553//553 
f 551//551 562//562 567//567 
f 552//552 551//551 553//553 
f 554//554 552//552 555//555 
f 552//552 553//553 555//555 
f 555//555 553//553 556//556 
f 553//553 567//567 556//556 
f 555//555 556//556 557//557 
f 557//557 556//556 571//571 
f 558//558 554//554 559//559 
f 554//554 555//555 559//559 
f 557//557 573//573 560//560 
f 557//557 571//571 573//573 
f 555//555 557//557 559//559 
f 557//557 560//560 559//559 
f 573//573 616//616 560//560 
f 601//601 558//558 559//559 
f 601//601 559//559 602//602 
f 602//602 559//559 560//560 
f 538//538 561//561 532//532 
f 538//538 563//563 561//561 
f 538//538 565//565 563//563 
f 563//563 562//562 561//561 
f 564//564 563//563 565//565 
f 566//566 562//562 563//563 
f 566//566 563//563 564//564 
f 562//562 566//566 567//567 
f 564//564 565//565 568//568 
f 567//567 566//566 570//570 
f 572//572 569//569 568//568 
f 569//569 564//564 568//568 
f 569//569 566//566 564//564 
f 569//569 570//570 566//566 
f 567//567 570//570 571//571 
f 571//571 556//556 567//567 
f 569//569 572//572 575//575 
f 570//570 569//569 575//575 
f 570//570 574//574 571//571 
f 571//571 574//574 573//573 
f 616//616 573//573 574//574 
f 570//570 615//615 574//574 
f 575//575 615//615 570//570 
f 616//616 574//574 618//618 
f 615//615 618//618 574//574 
f 523//523 611//611 576//576 
f 507//507 523//523 576//576 
f 577//577 507//507 576//576 
f 577//577 576//576 585//585 
f 576//576 611//611 585//585 
f 528//528 578//578 515//515 
f 607//607 611//611 529//529 
f 528//528 579//579 578//578 
f 528//528 526//526 579//579 
f 579//579 526//526 580//580 
f 580//580 596//596 579//579 
f 525//525 581//581 580//580 
f 580//580 581//581 596//596 
f 581//581 599//599 596//596 
f 581//581 525//525 582//582 
f 582//582 599//599 581//581 
f 611//611 613//613 585//585 
f 614//614 600//600 584//584 
f 614//614 627//627 600//600 
f 582//582 525//525 527//527 
f 527//527 577//577 582//582 
f 584//584 599//599 582//582 
f 599//599 584//584 600//600 
f 582//582 577//577 583//583 
f 582//582 583//583 584//584 
f 577//577 585//585 583//583 
f 585//585 613//613 583//583 
f 583//583 613//613 584//584 
f 584//584 613//613 614//614 
f 586//586 543//543 587//587 
f 587//587 590//590 586//586 
f 589//589 547//547 588//588 
f 589//589 575//575 547//547 
f 578//578 579//579 587//587 
f 591//591 587//587 579//579 
f 587//587 591//591 590//590 
f 590//590 588//588 586//586 
f 590//590 591//591 594//594 
f 594//594 592//592 590//590 
f 592//592 588//588 590//590 
f 588//588 592//592 589//589 
f 596//596 591//591 579//579 
f 596//596 594//594 591//591 
f 592//592 593//593 589//589 
f 595//595 623//623 593//593 
f 597//597 592//592 594//594 
f 596//596 597//597 594//594 
f 595//595 592//592 597//597 
f 592//592 595//595 593//593 
f 625//625 595//595 598//598 
f 595//595 625//625 623//623 
f 599//599 597//597 596//596 
f 597//597 598//598 595//595 
f 627//627 598//598 600//600 
f 625//625 598//598 627//627 
f 599//599 600//600 598//598 
f 597//597 599//599 598//598 
f 604//604 601//601 602//602 
f 602//602 560//560 603//603 
f 603//603 560//560 616//616 
f 605//605 603//603 606//606 
f 603//603 605//605 602//602 
f 605//605 607//607 604//604 
f 605//605 604//604 602//602 
f 610//610 611//611 607//607 
f 605//605 610//610 607//607 
f 606//606 610//610 605//605 
f 608//608 627//627 614//614 
f 608//608 626//626 627//627 
f 608//608 610//610 609//609 
f 626//626 608//608 609//609 
f 610//610 612//612 611//611 
f 610//610 606//606 609//609 
f 613//613 611//611 612//612 
f 613//613 612//612 614//614 
f 614//614 612//612 608//608 
f 610//610 608//608 612//612 
f 589//589 617//617 575//575 
f 619//619 615//615 617//617 
f 617//617 615//615 575//575 
f 619//619 618//618 615//615 
f 618//618 603//603 616//616 
f 622//622 618//618 619//619 
f 606//606 603//603 618//618 
f 622//622 606//606 618//618 
f 593//593 617//617 589//589 
f 593//593 620//620 617//617 
f 620//620 621//621 617//617 
f 621//621 619//619 617//617 
f 621//621 622//622 619//619 
f 624//624 620//620 623//623 
f 623//623 620//620 593//593 
f 624//624 621//621 620//620 
f 624//624 626//626 621//621 
f 609//609 622//622 626//626 
f 626//626 622//622 621//621 
f 622//622 609//609 606//606 
f 625//625 624//624 623//623 
f 625//625 626//626 624//624 
f 626//626 625//625 627//627 
