#
# Compatibility version : 4.3
# File ID : FJ3902
# Representation ID : BP29212
# Build-up logic : FMA 3.0 is_a
# Concept ID : FMA52803
# English name : Right greater palatine nerve
# Bounds(mm): (-21.393800,-165.609200,1465.934900)-(-14.905500,-127.974000,1501.382600)
# Volume(cm3): 0.005900
#
v -21.3377 -128.254 1500.9
v -21.3452 -128.334 1501.05
v -21.3519 -128.268 1501.26
v -21.2798 -128.368 1501.26
v -21.2344 -128.439 1501.05
v -21.271 -128.219 1501.35
v -21.3834 -128.178 1501.2
v -21.3397 -128.099 1501.02
v -21.3456 -128.077 1501.2
v -21.3258 -128.129 1501.29
v -21.2732 -128.028 1501.24
v -21.271 -128.075 1501.3
v -21.2373 -128.016 1501
v -20.9517 -128.578 1500.31
v -21.1704 -128.441 1501.19
v -21.1752 -128.367 1501.32
v -21.17 -128.221 1501.38
v -21.0631 -128.429 1501.17
v -21.0771 -128.316 1501.34
v -20.9573 -128.387 1501.11
v -20.9376 -128.329 1501.17
v -20.9781 -128.314 1501.26
v -21.1723 -128.119 1501.36
v -21.1762 -128 1501.25
v -21.0754 -127.974 1501.1
v -21.0321 -128.175 1501.34
v -21.0311 -128.074 1501.29
v -20.9483 -128.172 1501.26
v -20.9241 -128.095 1501.06
v -20.8844 -128.203 1501.07
v -20.6122 -128.706 1498.62
v -20.7122 -128.398 1498.79
v -20.4276 -128.471 1499.44
v -20.7181 -128.602 1500
v -20.6711 -128.473 1500.23
v -20.5254 -128.253 1499.11
v -20.2496 -128.839 1497.85
v -20.1891 -128.66 1496.64
v -20.2163 -128.713 1498.42
v -20.1745 -128.428 1498.29
v -19.7508 -128.97 1495.64
v -19.8754 -128.871 1496.94
v -19.904 -128.537 1495.91
v -19.7179 -128.507 1496.07
v -19.7969 -128.695 1497.03
v -19.3039 -128.861 1492.89
v -19.1058 -129.046 1492.24
v -18.9616 -128.674 1492.38
v -18.5568 -150.886 1468.15
v -18.5301 -150.844 1468.05
v -18.5439 -150.791 1468.1
v -18.4715 -150.975 1468.12
v -18.4766 -150.935 1468.05
v -18.4305 -150.845 1468
v -18.4728 -150.846 1468.01
v -18.4759 -150.793 1468.03
v -18.5067 -150.91 1468.24
v -18.501 -150.774 1468.31
v -18.4365 -150.933 1468.28
v -18.4971 -150.714 1468.2
v -18.4544 -150.701 1468.13
v -18.5213 -129.254 1489.76
v -18.7772 -129.053 1490.46
v -18.746 -128.781 1490.96
v -18.8566 -128.705 1492.44
v -18.4254 -150.961 1468.06
v -18.4243 -150.895 1468.01
v -18.4237 -150.797 1468.01
v -18.3754 -150.978 1468.11
v -18.3503 -150.952 1468.23
v -18.3749 -150.94 1468.05
v -18.3755 -150.894 1468.02
v -18.3768 -150.846 1468.01
v -18.2899 -150.92 1468.23
v -18.2994 -150.92 1468.14
v -18.3274 -150.89 1468.05
v -18.252 -150.848 1468.18
v -18.3045 -150.768 1468.1
v -18.4222 -150.744 1468.05
v -18.3437 -150.659 1468.2
v -18.1989 -150.406 1468.86
v -18.1261 -150.333 1468.87
v -18.0781 -150.331 1468.82
v -18.1969 -129.387 1487.66
v -18.1287 -129.421 1488.29
v -18.3217 -129.323 1489.29
v -18.3754 -129.221 1490.2
v -18.1884 -128.953 1488.59
v -18.4125 -129.03 1488.83
v -18.0813 -128.983 1488.83
v -18.4402 -128.817 1490.19
v -18.2832 -128.914 1490.03
v -18.4071 -128.967 1490.89
v -17.9735 -158.679 1466.51
v -18.0129 -158.637 1466.46
v -18.0108 -158.632 1466.51
v -17.9853 -158.589 1466.41
v -18.0148 -158.586 1466.46
v -17.9765 -158.578 1466.56
v -17.9824 -158.539 1466.45
v -17.9699 -158.533 1466.52
v -17.9719 -158.688 1466.46
v -17.9709 -158.64 1466.4
v -17.9679 -158.629 1466.58
v -17.9194 -158.703 1466.47
v -17.9194 -158.699 1466.52
v -17.925 -158.686 1466.43
v -17.9251 -158.592 1466.38
v -17.9246 -158.542 1466.41
v -17.9016 -158.503 1466.53
v -17.8628 -158.687 1466.48
v -17.8787 -158.639 1466.4
v -17.8497 -158.584 1466.43
v -17.8433 -158.515 1466.5
v -17.8041 -158.628 1466.49
v -17.8813 -158.573 1466.7
v -17.8125 -158.648 1466.73
v -17.7673 -158.668 1466.69
v -17.9775 -150.501 1469.12
v -17.9784 -150.389 1469.26
v -17.847 -150.446 1469.18
v -17.7746 -150.318 1469.1
v -17.7775 -150.385 1469.2
v -17.74 -150.097 1469.27
v -17.7747 -149.998 1469.42
v -17.7594 -149.922 1469.71
v -17.7441 -150.013 1469.79
v -17.6792 -129.9 1484.61
v -17.8657 -129.681 1485.87
v -17.7254 -129.663 1486.47
v -18.0083 -129.406 1488.23
v -18.0168 -129.369 1486.6
v -17.9803 -129.144 1487.15
v -17.8708 -129.124 1487.34
v -17.8953 -129.266 1488.2
v -17.8612 -129.139 1487.88
v -18.0133 -129.082 1488.82
v -17.65 -158.438 1466.92
v -17.522 -158.56 1466.9
v -17.426 -158.456 1467.03
v -17.4254 -158.438 1467.38
v -17.3366 -158.509 1467.34
v -17.4254 -158.35 1467.29
v -17.3947 -158.365 1467.18
v -17.5591 -149.703 1469.92
v -17.3804 -149.594 1470.05
v -17.2794 -149.681 1470.05
v -17.4382 -149.572 1470.36
v -17.4256 -149.72 1470.33
v -17.3345 -149.809 1470.24
v -17.2713 -149.362 1470.38
v -17.2531 -149.269 1470.59
v -17.3212 -130.664 1482.2
v -17.2706 -130.611 1482
v -17.4317 -130.364 1483.2
v -17.376 -130.301 1483.7
v -17.2779 -130.293 1483.72
v -17.2755 -130.251 1482.68
v -17.4749 -130.114 1483.36
v -17.5754 -129.999 1484.78
v -17.3848 -129.883 1485.02
v -17.5406 -129.609 1484.75
v -17.2886 -129.823 1484.73
v -17.4679 -129.505 1485.51
v -17.553 -129.611 1486.19
v -17.5738 -129.445 1486.45
v -17.1677 -158.424 1467.5
v -17.1774 -158.382 1467.42
v -17.1754 -158.226 1467.6
v -17.1624 -158.215 1467.83
v -17.0292 -158.265 1467.99
v -16.9855 -158.051 1468.08
v -16.9739 -158.284 1467.95
v -16.9552 -158.175 1467.84
v -16.8886 -158.207 1467.98
v -16.9399 -158.09 1468.28
v -17.0995 -149.566 1470.46
v -17.1132 -149.448 1470.74
v -17.2123 -149.374 1470.35
v -17.12 -149.134 1470.67
v -16.9906 -149.219 1470.6
v -16.9875 -149.061 1470.73
v -16.8402 -149.133 1470.81
v -16.9847 -149.084 1471.11
v -16.9513 -148.803 1471.12
v -16.8803 -148.781 1471.04
v -16.8663 -133.978 1477.86
v -16.8617 -133.753 1477.88
v -16.8244 -133.078 1478.35
v -16.9196 -133.117 1478.59
v -16.9088 -132.827 1478.69
v -16.8755 -132.29 1479.16
v -17.0282 -132.055 1479.73
v -17.049 -131.656 1480.15
v -17.0439 -131.583 1480.72
v -16.8838 -131.437 1481.03
v -16.9242 -131.314 1480.47
v -16.9304 -130.988 1481.03
v -17.2254 -130.798 1482.27
v -17.1184 -130.805 1481.42
v -16.8819 -130.823 1481.46
v -17.0713 -130.412 1482.25
v -16.8974 -130.713 1482.07
v -16.9375 -130.559 1482.18
v -17.0254 -130.655 1482.57
v -17.2331 -130.474 1483.18
v -17.1909 -130.008 1483.43
v -17.1503 -130.164 1483.76
v -16.8391 -157.987 1468.16
v -16.7554 -158.039 1468.23
v -16.7175 -157.982 1468.56
v -16.6788 -157.985 1468.46
v -16.7662 -157.898 1468.66
v -16.762 -157.793 1468.71
v -16.6254 -157.666 1468.73
v -16.5501 -157.767 1468.71
v -16.5257 -157.746 1468.89
v -16.4711 -157.251 1469.58
v -16.457 -157.095 1469.68
v -16.4446 -157.173 1469.72
v -16.4782 -156.754 1469.86
v -16.5052 -156.705 1469.76
v -16.5093 -156.712 1469.81
v -16.5405 -156.376 1469.85
v -16.5361 -156.252 1469.93
v -16.5303 -156.141 1469.82
v -16.4732 -156.188 1470
v -16.4681 -156.059 1469.79
v -16.5641 -155.861 1469.96
v -16.5603 -155.804 1469.91
v -16.5663 -155.49 1470
v -16.5198 -155.759 1469.86
v -16.5385 -155.616 1470.06
v -16.5457 -155.201 1469.99
v -16.5336 -154.792 1470.11
v -16.4687 -154.69 1470.21
v -16.4462 -153.952 1470.25
v -16.4043 -153.634 1470.19
v -16.7617 -149.039 1471.14
v -16.7754 -148.836 1470.99
v -16.5734 -148.725 1471.26
v -16.7998 -148.618 1471.44
v -16.7739 -148.881 1471.35
v -16.6754 -148.311 1471.52
v -16.5527 -148.351 1471.38
v -16.581 -148.36 1471.74
v -16.4401 -137.192 1475.93
v -16.5193 -136.982 1475.93
v -16.6123 -136.586 1476.22
v -16.5844 -136.579 1476.05
v -16.655 -136.394 1476.25
v -16.7264 -135.926 1476.58
v -16.6771 -135.932 1476.39
v -16.6341 -136.249 1476.49
v -16.5239 -135.891 1476.76
v -16.5127 -135.908 1476.32
v -16.4362 -135.649 1476.82
v -16.8088 -135.107 1477.02
v -16.7525 -135.288 1477.06
v -16.4891 -134.902 1477
v -16.4523 -134.974 1477.16
v -16.4507 -134.881 1477.13
v -16.5749 -134.665 1477.51
v -16.7202 -134.583 1477.16
v -16.5757 -134.32 1477.34
v -16.5224 -134.315 1477.7
v -16.5042 -134.272 1477.46
v -16.7684 -134.285 1477.77
v -16.4863 -134.065 1477.75
v -16.7269 -133.57 1477.88
v -16.5557 -133.506 1478.01
v -16.5086 -133.664 1477.97
v -16.7754 -133.677 1478.27
v -16.5254 -133.539 1478.26
v -16.6764 -133.257 1478.15
v -16.5954 -133.004 1478.83
v -16.5355 -133.08 1478.54
v -16.7719 -132.738 1478.64
v -16.6308 -132.735 1478.69
v -16.622 -132.328 1479.22
v -16.7733 -132.167 1479.28
v -16.6055 -132.215 1479.54
v -16.8095 -131.983 1480.17
v -16.7651 -131.351 1480.55
v -16.7196 -131.406 1480.65
v -16.7952 -131.06 1481.18
v -16.0232 -159.007 1469.32
v -16.2703 -158.072 1469.51
v -16.0118 -158.203 1469.42
v -16.0615 -158.147 1469.37
v -16.2076 -157.816 1469.67
v -16.1336 -157.57 1469.61
v -16.4254 -157.356 1469.54
v -16.4016 -157.371 1469.59
v -16.42 -157.321 1469.59
v -16.4254 -157.121 1469.57
v -16.4254 -157.07 1469.63
v -16.3754 -157.375 1469.51
v -16.3754 -157.372 1469.56
v -16.3254 -157.374 1469.53
v -16.3133 -157.326 1469.49
v -16.2754 -157.323 1469.54
v -16.2754 -157.12 1469.6
v -16.1937 -157.36 1469.58
v -16.37 -157.23 1469.79
v -16.2685 -157.278 1469.79
v -16.3254 -157.07 1469.59
v -16.2644 -156.908 1469.68
v -16.3805 -156.906 1469.88
v -16.2499 -156.863 1469.81
v -16.4111 -156.205 1470
v -16.3754 -155.934 1469.82
v -16.3016 -156.204 1469.88
v -16.4295 -155.715 1469.84
v -16.4191 -155.102 1470.18
v -16.3254 -155.118 1470.13
v -16.4182 -154.412 1470.02
v -16.3254 -154.394 1470.02
v -16.2744 -153.915 1470.32
v -16.1993 -153.836 1470.16
v -16.1711 -153.476 1470.34
v -16.1235 -153.149 1470.23
v -16.2345 -152.937 1470.45
v -16.0863 -152.31 1470.3
v -16.1041 -151.483 1470.63
v -16.1072 -151.363 1470.6
v -16.4045 -148.278 1471.83
v -16.2447 -148.06 1471.93
v -16.0754 -147.743 1471.94
v -16.3579 -147.775 1472.08
v -16.3107 -147.899 1472.07
v -16.0338 -147.734 1471.94
v -16.0754 -147.618 1471.94
v -16.1254 -147.277 1472.07
v -16.0969 -147.017 1472.26
v -16.2265 -137.897 1475.4
v -16.1969 -137.75 1475.37
v -16.1282 -137.517 1475.44
v -16.2951 -137.713 1475.62
v -16.19 -137.719 1475.73
v -16.3941 -137.264 1475.66
v -16.0821 -137.269 1475.65
v -16.0898 -137.164 1475.8
v -16.3836 -136.902 1475.78
v -16.3215 -137.084 1476.08
v -16.2829 -136.762 1476.21
v -16.2752 -136.733 1475.89
v -16.2121 -136.725 1475.99
v -16.2195 -136.739 1476.13
v -16.1618 -137.108 1475.99
v -16.4222 -135.947 1476.33
v -16.3546 -136.192 1476.49
v -16.3281 -136.14 1476.43
v -16.3598 -136.038 1476.34
v -16.4235 -135.67 1476.53
v -16.3928 -135.636 1476.65
v -15.7743 -165.516 1466.07
v -15.7254 -165.609 1466.07
v -15.7254 -165.572 1465.96
v -15.7254 -165.564 1466.12
v -15.7063 -165.452 1465.99
v -15.6754 -165.6 1465.97
v -15.6754 -165.523 1465.93
v -15.648 -160.934 1468.58
v -15.8254 -160.051 1468.93
v -15.8185 -159.939 1468.87
v -15.8754 -159.456 1468.98
v -15.9685 -159.364 1469.08
v -15.815 -159.367 1469.23
v -15.7762 -159.293 1469.19
v -15.9239 -159.094 1469.32
v -15.9022 -158.914 1469.35
v -15.8524 -151.513 1470.54
v -16.0243 -151.629 1470.66
v -15.8649 -151.458 1470.64
v -15.9808 -151.045 1470.52
v -16.0036 -150.643 1470.68
v -15.9988 -150.517 1470.79
v -15.9625 -150.599 1470.84
v -15.8273 -150.622 1470.61
v -15.791 -150.509 1470.89
v -15.7063 -150.399 1470.78
v -15.8796 -149.931 1470.81
v -15.8276 -150.012 1470.76
v -15.6808 -149.91 1470.87
v -15.9225 -149.858 1471.02
v -15.7779 -149.461 1470.93
v -15.7297 -149.665 1470.88
v -15.9343 -149.771 1470.96
v -15.8201 -149.713 1471.13
v -15.6274 -149.379 1471.13
v -15.9086 -148.972 1471.26
v -15.6368 -148.822 1471.25
v -15.8303 -148.928 1471.42
v -15.8754 -148.233 1471.47
v -15.6553 -148.521 1471.54
v -15.743 -147.795 1471.75
v -15.7742 -147.801 1471.99
v -15.9254 -147.496 1471.88
v -15.9949 -147.677 1472.09
v -15.9664 -147.152 1472.12
v -15.9254 -147.259 1472.41
v -15.9145 -147.192 1472.12
v -15.8989 -147.024 1472.2
v -15.8533 -147.241 1472.15
v -15.8254 -147.183 1472.28
v -15.8376 -147.101 1472.24
v -15.933 -146.888 1472.25
v -15.9629 -146.87 1472.56
v -15.6754 -146.598 1472.69
v -15.9055 -146.4 1472.57
v -15.7343 -146.211 1472.52
v -15.6341 -145.431 1472.98
v -15.7132 -139.416 1474.71
v -15.8116 -139.032 1475.04
v -15.7776 -138.653 1474.88
v -15.7303 -138.465 1475
v -15.705 -138.827 1475.19
v -15.8663 -138.085 1475.49
v -15.852 -137.919 1475.43
v -15.6254 -165.604 1466.07
v -15.6254 -165.572 1465.96
v -15.6254 -165.472 1465.96
v -15.5255 -165.466 1466.12
v -15.4266 -165.244 1466.17
v -15.5586 -165.154 1466.3
v -15.5376 -165.115 1466.24
v -15.4514 -164.879 1466.45
v -15.4254 -165.2 1466.37
v -15.4254 -164.88 1466.38
v -15.3924 -165.016 1466.27
v -15.3766 -164.868 1466.59
v -15.3631 -164.506 1466.73
v -15.3464 -164.491 1466.8
v -15.3254 -164.589 1466.56
v -15.2797 -164.462 1466.88
v -15.3165 -164.061 1467.09
v -15.2873 -163.951 1467.01
v -15.3407 -163.23 1467.65
v -15.3555 -163.186 1467.55
v -15.3911 -162.878 1467.75
v -15.2715 -162.997 1467.82
v -15.3694 -162.646 1467.79
v -15.2791 -162.664 1467.76
v -15.2823 -162.361 1467.92
v -15.3747 -162.541 1468.04
v -15.2866 -162.456 1468.08
v -15.4254 -162.261 1467.99
v -15.3742 -162.221 1467.98
v -15.4851 -162.012 1468.22
v -15.2373 -162.359 1468.05
v -15.4754 -161.851 1468.17
v -15.3858 -161.762 1468.18
v -15.3162 -161.775 1468.33
v -15.3147 -161.733 1468.27
v -15.4746 -161.607 1468.46
v -15.5754 -161.28 1468.56
v -15.4696 -161.378 1468.56
v -15.3912 -161.177 1468.54
v -15.435 -161.014 1468.64
v -15.5279 -160.782 1468.77
v -15.6254 -160.627 1468.6
v -15.5298 -160.681 1468.6
v -15.4723 -160.698 1468.66
v -15.6384 -160.511 1468.87
v -15.4953 -160.568 1468.76
v -15.6201 -160.083 1468.97
v -15.6405 -159.858 1468.94
v -15.6148 -146.2 1472.54
v -15.5428 -146.265 1472.61
v -15.505 -146.194 1472.71
v -15.4553 -145.866 1472.71
v -15.5114 -145.66 1473.04
v -15.3459 -145.558 1472.98
v -15.3009 -145.385 1472.92
v -15.5254 -145.026 1472.99
v -15.4315 -145.142 1472.87
v -15.3247 -145.152 1472.89
v -15.2669 -144.478 1473.06
v -15.3314 -143.727 1473.38
v -15.2883 -143.961 1473.22
v -15.2789 -143.594 1473.57
v -15.2498 -142.511 1473.76
v -15.2526 -141.902 1473.85
v -15.2389 -141.792 1474.02
v -15.2932 -141.262 1474.15
v -15.2951 -141.194 1474.02
v -15.4051 -140.612 1474.28
v -15.3961 -140.549 1474.22
v -15.3303 -140.65 1474.42
v -15.268 -140.731 1474.08
v -15.4972 -140.18 1474.41
v -15.5273 -140.047 1474.55
v -15.5134 -139.838 1474.43
v -15.4805 -139.863 1474.73
v -15.4189 -139.712 1474.8
v -15.3803 -139.66 1474.47
v -15.4061 -139.279 1474.72
v -15.393 -139.409 1474.84
v -15.2154 -164.732 1466.63
v -15.2302 -164.667 1466.54
v -15.2353 -164.583 1466.8
v -15.2276 -164.056 1467.16
v -15.1628 -164.316 1466.95
v -15.1335 -164.271 1466.9
v -15.1438 -164.171 1466.9
v -15.1819 -163.884 1467.05
v -15.1246 -163.852 1467.14
v -15.1291 -163.863 1467.22
v -15.2322 -163.282 1467.42
v -15.1743 -163.495 1467.5
v -15.1364 -163.442 1467.46
v -15.1519 -163.337 1467.45
v -15.1666 -163.25 1467.62
v -15.1804 -162.887 1467.77
v -15.2171 -162.73 1467.91
v -15.2241 -162.586 1467.85
v -15.1597 -144.535 1473.33
v -15.1152 -144.409 1473.17
v -15.0955 -144.409 1473.27
v -15.0839 -143.605 1473.3
v -15.0875 -143.348 1473.69
v -14.9719 -143.371 1473.46
v -14.9615 -143.165 1473.65
v -14.9797 -142.795 1473.8
v -15.1754 -142.491 1473.59
v -15.0872 -142.621 1473.54
v -14.9806 -142.796 1473.53
v -14.9141 -142.464 1473.73
v -15.1785 -142.338 1473.93
v -15.0867 -142.138 1474.01
v -14.986 -141.96 1473.75
v -15.0277 -141.911 1474.06
v -14.9341 -142.032 1473.95
v -14.9258 -141.676 1473.98
v -15.2254 -141.51 1473.87
v -14.9349 -141.625 1473.93
v -15.1857 -141.467 1474.19
v -15.0337 -141.296 1474.22
v -14.9814 -141.236 1474.17
v -15.1246 -141.152 1474.29
v -15.0342 -140.909 1474.1
v -14.9704 -141.158 1474.11
v -15.2287 -140.518 1474.5
v -15.1375 -140.253 1474.45
v -15.1516 -140.353 1474.49
v -21.3519 -128.268 1501.26
v -21.2798 -128.368 1501.26
v -21.2732 -128.028 1501.24
v -21.1752 -128.367 1501.32
v -21.0771 -128.316 1501.34
v -20.9781 -128.314 1501.26
v -21.1762 -128 1501.25
v -21.0754 -127.974 1501.1
v -20.7122 -128.398 1498.79
v -20.7122 -128.398 1498.79
v -20.5254 -128.253 1499.11
v -20.1891 -128.66 1496.64
v -20.1745 -128.428 1498.29
v -19.7508 -128.97 1495.64
v -19.8754 -128.871 1496.94
v -19.904 -128.537 1495.91
v -19.7969 -128.695 1497.03
v -19.3039 -128.861 1492.89
v -19.1058 -129.046 1492.24
v -18.5439 -150.791 1468.1
v -18.5067 -150.91 1468.24
v -18.4222 -150.744 1468.05
v -18.3754 -129.221 1490.2
v -18.3754 -129.221 1490.2
v -18.0129 -158.637 1466.46
v -18.0129 -158.637 1466.46
v -18.0148 -158.586 1466.46
v -17.9824 -158.539 1466.45
v -17.9824 -158.539 1466.45
v -17.9699 -158.533 1466.52
v -17.9719 -158.688 1466.46
v -17.9251 -158.592 1466.38
v -17.9251 -158.592 1466.38
v -17.9246 -158.542 1466.41
v -17.9246 -158.542 1466.41
v -17.8787 -158.639 1466.4
v -17.8433 -158.515 1466.5
v -17.8813 -158.573 1466.7
v -17.7746 -150.318 1469.1
v -17.7594 -149.922 1469.71
v -17.6792 -129.9 1484.61
v -17.8657 -129.681 1485.87
v -17.9803 -129.144 1487.15
v -17.65 -158.438 1466.92
v -17.4254 -158.438 1467.38
v -17.4254 -158.438 1467.38
v -17.4254 -158.35 1467.29
v -17.3947 -158.365 1467.18
v -17.2794 -149.681 1470.05
v -17.3345 -149.809 1470.24
v -17.2531 -149.269 1470.59
v -17.4317 -130.364 1483.2
v -17.4749 -130.114 1483.36
v -17.5406 -129.609 1484.75
v -17.4679 -129.505 1485.51
v -17.1754 -158.226 1467.6
v -17.1624 -158.215 1467.83
v -17.1624 -158.215 1467.83
v -16.9855 -158.051 1468.08
v -16.9399 -158.09 1468.28
v -17.0995 -149.566 1470.46
v -16.8402 -149.133 1470.81
v -16.9513 -148.803 1471.12
v -16.9196 -133.117 1478.59
v -16.9196 -133.117 1478.59
v -17.0282 -132.055 1479.73
v -17.0439 -131.583 1480.72
v -16.8838 -131.437 1481.03
v -16.9242 -131.314 1480.47
v -17.2254 -130.798 1482.27
v -17.2254 -130.798 1482.27
v -17.0254 -130.655 1482.57
v -17.1909 -130.008 1483.43
v -16.8391 -157.987 1468.16
v -16.7662 -157.898 1468.66
v -16.762 -157.793 1468.71
v -16.762 -157.793 1468.71
v -16.6254 -157.666 1468.73
v -16.6254 -157.666 1468.73
v -16.5501 -157.767 1468.71
v -16.5257 -157.746 1468.89
v -16.4711 -157.251 1469.58
v -16.4711 -157.251 1469.58
v -16.4446 -157.173 1469.72
v -16.5336 -154.792 1470.11
v -16.4462 -153.952 1470.25
v -16.7754 -148.836 1470.99
v -16.5734 -148.725 1471.26
v -16.5734 -148.725 1471.26
v -16.6754 -148.311 1471.52
v -16.5527 -148.351 1471.38
v -16.5844 -136.579 1476.05
v -16.5239 -135.891 1476.76
v -16.5954 -133.004 1478.83
v -16.5954 -133.004 1478.83
v -16.6055 -132.215 1479.54
v -16.8095 -131.983 1480.17
v -16.8095 -131.983 1480.17
v -16.2703 -158.072 1469.51
v -16.2076 -157.816 1469.67
v -16.4254 -157.356 1469.54
v -16.4254 -157.356 1469.54
v -16.4016 -157.371 1469.59
v -16.42 -157.321 1469.59
v -16.4254 -157.121 1469.57
v -16.4254 -157.07 1469.63
v -16.3754 -157.375 1469.51
v -16.3754 -157.372 1469.56
v -16.3754 -157.372 1469.56
v -16.3254 -157.374 1469.53
v -16.3254 -157.374 1469.53
v -16.3254 -157.374 1469.53
v -16.3254 -157.374 1469.53
v -16.3133 -157.326 1469.49
v -16.3133 -157.326 1469.49
v -16.2754 -157.323 1469.54
v -16.2754 -157.323 1469.54
v -16.2685 -157.278 1469.79
v -16.3254 -157.07 1469.59
v -16.3254 -157.07 1469.59
v -16.2499 -156.863 1469.81
v -16.4111 -156.205 1470
v -16.3754 -155.934 1469.82
v -16.3754 -155.934 1469.82
v -16.3016 -156.204 1469.88
v -16.3016 -156.204 1469.88
v -16.3254 -155.118 1470.13
v -16.3254 -155.118 1470.13
v -16.3254 -155.118 1470.13
v -16.3254 -154.394 1470.02
v -16.3254 -154.394 1470.02
v -16.3254 -154.394 1470.02
v -16.2744 -153.915 1470.32
v -16.1993 -153.836 1470.16
v -16.1711 -153.476 1470.34
v -16.0863 -152.31 1470.3
v -16.0863 -152.31 1470.3
v -16.4045 -148.278 1471.83
v -16.2447 -148.06 1471.93
v -16.0754 -147.743 1471.94
v -16.0754 -147.743 1471.94
v -16.3579 -147.775 1472.08
v -16.0338 -147.734 1471.94
v -16.0338 -147.734 1471.94
v -16.0338 -147.734 1471.94
v -16.0338 -147.734 1471.94
v -16.0754 -147.618 1471.94
v -16.0754 -147.618 1471.94
v -16.1254 -147.277 1472.07
v -16.19 -137.719 1475.73
v -16.3215 -137.084 1476.08
v -16.1618 -137.108 1475.99
v -15.7743 -165.516 1466.07
v -15.7743 -165.516 1466.07
v -15.7254 -165.609 1466.07
v -15.7254 -165.609 1466.07
v -15.7254 -165.609 1466.07
v -15.7254 -165.609 1466.07
v -15.7254 -165.572 1465.96
v -15.7254 -165.572 1465.96
v -15.7254 -165.572 1465.96
v -15.7254 -165.564 1466.12
v -15.7063 -165.452 1465.99
v -15.6754 -165.6 1465.97
v -15.6754 -165.6 1465.97
v -15.6754 -165.523 1465.93
v -15.6754 -165.523 1465.93
v -15.6754 -165.523 1465.93
v -15.648 -160.934 1468.58
v -15.8254 -160.051 1468.93
v -15.8185 -159.939 1468.87
v -15.8754 -159.456 1468.98
v -15.8754 -159.456 1468.98
v -15.9685 -159.364 1469.08
v -15.8524 -151.513 1470.54
v -16.0243 -151.629 1470.66
v -15.8649 -151.458 1470.64
v -15.791 -150.509 1470.89
v -15.7063 -150.399 1470.78
v -15.8201 -149.713 1471.13
v -15.8201 -149.713 1471.13
v -15.6274 -149.379 1471.13
v -15.8303 -148.928 1471.42
v -15.8303 -148.928 1471.42
v -15.8303 -148.928 1471.42
v -15.8754 -148.233 1471.47
v -15.8754 -148.233 1471.47
v -15.6553 -148.521 1471.54
v -15.743 -147.795 1471.75
v -15.7742 -147.801 1471.99
v -15.7742 -147.801 1471.99
v -15.7742 -147.801 1471.99
v -15.7742 -147.801 1471.99
v -15.9254 -147.496 1471.88
v -15.9254 -147.496 1471.88
v -15.9949 -147.677 1472.09
v -15.9949 -147.677 1472.09
v -15.9949 -147.677 1472.09
v -15.9254 -147.259 1472.41
v -15.9629 -146.87 1472.56
v -15.9629 -146.87 1472.56
v -15.6754 -146.598 1472.69
v -15.6754 -146.598 1472.69
v -15.9055 -146.4 1472.57
v -15.6341 -145.431 1472.98
v -15.6341 -145.431 1472.98
v -15.7132 -139.416 1474.71
v -15.705 -138.827 1475.19
v -15.8663 -138.085 1475.49
v -15.6254 -165.604 1466.07
v -15.6254 -165.604 1466.07
v -15.6254 -165.572 1465.96
v -15.6254 -165.472 1465.96
v -15.5586 -165.154 1466.3
v -15.5586 -165.154 1466.3
v -15.5376 -165.115 1466.24
v -15.4514 -164.879 1466.45
v -15.4254 -165.2 1466.37
v -15.4254 -165.2 1466.37
v -15.4254 -165.2 1466.37
v -15.4254 -164.88 1466.38
v -15.3924 -165.016 1466.27
v -15.3924 -165.016 1466.27
v -15.3766 -164.868 1466.59
v -15.3254 -164.589 1466.56
v -15.3254 -164.589 1466.56
v -15.2797 -164.462 1466.88
v -15.3165 -164.061 1467.09
v -15.2873 -163.951 1467.01
v -15.3407 -163.23 1467.65
v -15.3555 -163.186 1467.55
v -15.3555 -163.186 1467.55
v -15.3911 -162.878 1467.75
v -15.3747 -162.541 1468.04
v -15.4851 -162.012 1468.22
v -15.4851 -162.012 1468.22
v -15.2373 -162.359 1468.05
v -15.4754 -161.851 1468.17
v -15.3858 -161.762 1468.18
v -15.3147 -161.733 1468.27
v -15.5754 -161.28 1468.56
v -15.5279 -160.782 1468.77
v -15.6254 -160.627 1468.6
v -15.4723 -160.698 1468.66
v -15.6201 -160.083 1468.97
v -15.6405 -159.858 1468.94
v -15.6405 -159.858 1468.94
v -15.5114 -145.66 1473.04
v -15.3459 -145.558 1472.98
v -15.4315 -145.142 1472.87
v -15.3314 -143.727 1473.38
v -15.2883 -143.961 1473.22
v -15.2789 -143.594 1473.57
v -15.2951 -141.194 1474.02
v -15.3303 -140.65 1474.42
v -15.4189 -139.712 1474.8
v -15.2154 -164.732 1466.63
v -15.2302 -164.667 1466.54
v -15.1438 -164.171 1466.9
v -15.1246 -163.852 1467.14
v -15.2322 -163.282 1467.42
v -15.1519 -163.337 1467.45
v -15.2241 -162.586 1467.85
v -15.1754 -142.491 1473.59
v -15.1785 -142.338 1473.93
v -15.1857 -141.467 1474.19
vn -0.973468 -0.0567739 -0.221667
vn -0.874433 -0.484685 -0.0211497
vn -0.890585 -0.44127 0.110181
vn -0.569875 -0.784268 0.24529
vn -0.528706 -0.847228 0.0517116
vn -0.471469 -0.0695114 0.879139
vn -0.990932 0.0772212 0.109956
vn -0.867438 0.45731 -0.196009
vn -0.771493 0.601 0.208799
vn -0.749863 0.248545 0.613132
vn -0.41905 0.907821 -0.0160622
vn -0.449893 0.539703 0.71156
vn -0.413797 0.902138 -0.122144
vn -0.128344 -0.987083 0.0958923
vn -0.12925 -0.942006 0.309707
vn 0.0732613 -0.84125 0.535659
vn -0.0121057 -0.108635 0.994008
vn 0.322474 -0.860199 0.395055
vn 0.306606 -0.239151 0.921303
vn 0.634386 -0.69492 0.338586
vn 0.861362 -0.356583 0.361807
vn 0.556207 -0.691685 0.460658
vn -0.0250061 0.427609 0.903618
vn 0.0334916 0.769916 0.637266
vn 0.550906 0.801303 0.233272
vn 0.483306 0.094545 0.870331
vn 0.510709 0.645891 0.567451
vn 0.848193 0.206057 0.487965
vn 0.756299 0.626167 0.189544
vn 0.953597 0.0627148 0.294481
vn -0.761594 -0.632305 -0.142001
vn -0.964029 -0.0457849 -0.261826
vn 0.962327 -0.0621026 0.264708
vn 0.409942 -0.884399 0.223129
vn 0.838596 -0.459448 0.292683
vn -0.236504 0.956739 -0.169459
vn 0.0297078 -0.995086 0.0944494
vn -0.947123 -0.243774 -0.208644
vn 0.709278 -0.65953 0.248888
vn 0.912392 0.357003 0.200225
vn -0.442273 -0.895028 -0.0576223
vn 0.227086 -0.966321 0.121062
vn -0.224759 0.967908 -0.112419
vn 0.261846 0.965098 0.00463158
vn 0.86311 -0.442789 0.242857
vn -0.808858 0.549091 -0.210351
vn -0.2916 -0.956537 -0.00261966
vn 0.0101625 0.998567 -0.0525359
vn -0.945687 -0.322956 -0.0370984
vn -0.780463 -0.0334784 -0.624304
vn -0.979843 0.197825 0.0278056
vn -0.364131 -0.931219 -0.0154756
vn -0.526251 -0.556585 -0.642863
vn -0.0296835 0.0217364 -0.999323
vn -0.376259 -0.0278156 -0.926097
vn -0.464893 0.498244 -0.731866
vn -0.547869 -0.752578 0.365331
vn -0.927683 0.106588 0.35783
vn -0.272368 -0.850006 0.450895
vn -0.769763 0.638009 -0.0202325
vn -0.393423 0.831784 -0.391604
vn -0.521219 -0.852739 -0.0341723
vn -0.947256 -0.269486 -0.173446
vn -0.52552 0.833334 -0.171413
vn 0.589999 0.802843 0.0856979
vn -0.048897 -0.800914 -0.596779
vn -0.0391205 -0.374215 -0.926516
vn 0.0745062 0.383705 -0.920445
vn 0.343186 -0.924302 -0.167
vn 0.187697 -0.943438 0.273304
vn 0.392989 -0.657381 -0.64297
vn 0.348933 -0.325942 -0.87864
vn 0.374587 0.0802488 -0.923712
vn 0.605227 -0.79442 0.0509614
vn 0.756694 -0.601102 -0.257082
vn 0.736747 -0.231728 -0.635221
vn 0.898316 -0.218923 -0.380921
vn 0.650179 0.388891 -0.65271
vn -0.242454 0.744636 -0.621878
vn 0.153082 0.828134 -0.539221
vn -0.82555 0.552324 0.115779
vn -0.541182 0.823712 -0.169175
vn -0.131579 0.898797 -0.418153
vn -0.798427 -0.596133 -0.0844939
vn -0.139154 -0.986578 0.0854373
vn -0.0836501 -0.993662 0.0750932
vn 0.18618 -0.978177 0.0922377
vn -0.0730172 0.990354 -0.117756
vn -0.773733 0.596236 -0.214103
vn 0.604433 0.795922 0.0341809
vn 0.258623 0.965785 -0.019308
vn 0.76502 0.634777 0.108635
vn 0.977327 0.0427498 0.207377
vn -0.630379 -0.715588 0.300926
vn -0.786115 -0.612066 0.0860161
vn -0.926953 -0.201945 0.31619
vn -0.655365 0.247132 -0.713739
vn -0.834525 0.231857 -0.49981
vn -0.845029 0.287568 0.450811
vn -0.619398 0.541342 -0.56859
vn -0.80432 0.527137 0.27422
vn -0.784146 -0.615076 0.0824452
vn -0.418865 -0.417206 -0.80653
vn -0.758121 -0.322178 0.566969
vn 0.0431699 -0.990976 -0.126899
vn -0.215254 -0.954204 0.207752
vn 0.028703 -0.802636 -0.595778
vn -0.388562 0.236642 -0.890517
vn -0.40622 0.535393 -0.7405
vn -0.20826 0.970688 -0.119965
vn 0.49111 -0.801289 -0.341682
vn -0.0138867 -0.433987 -0.900812
vn 0.635925 0.292915 -0.714003
vn 0.571195 0.588607 -0.572082
vn 0.785862 -0.269851 -0.556418
vn -0.744696 -0.301804 0.595266
vn -0.456038 -0.745314 0.486349
vn 0.180671 -0.980288 0.079965
vn -0.0310139 -0.864913 0.500962
vn -0.517267 -0.598712 0.611538
vn 0.434162 -0.861642 0.262824
vn 0.783172 0.264978 -0.562519
vn 0.789957 -0.610914 -0.0524607
vn 0.409168 0.682138 -0.606027
vn -0.277631 0.882256 -0.380192
vn -0.912244 0.258576 0.317726
vn -0.841473 -0.136166 0.52286
vn -0.732013 -0.679456 0.0499562
vn -0.507659 -0.859112 0.0648751
vn 0.192703 -0.961518 0.19583
vn 0.531765 -0.82338 0.198172
vn -0.948509 0.233641 -0.213874
vn -0.608279 0.761391 -0.224233
vn 0.350792 0.932873 -0.0818139
vn 0.926245 -0.313192 0.209715
vn 0.813737 0.577411 0.066551
vn 0.941719 0.301879 0.148437
vn -0.699554 0.607081 0.376931
vn 0.726228 -0.598766 -0.337746
vn 0.759028 0.299159 -0.578256
vn -0.507737 -0.687541 0.519125
vn 0.0561518 -0.965847 0.252955
vn -0.266476 0.95606 -0.12223
vn -0.158251 0.977386 -0.140261
vn -0.433015 0.835127 -0.339205
vn 0.112941 0.787943 -0.605302
vn 0.911917 -0.242632 -0.330963
vn -0.906663 0.135778 0.399407
vn -0.518262 -0.540879 0.662461
vn -0.0958183 -0.814542 0.572136
vn -0.280509 0.832135 -0.478399
vn -0.560503 0.770597 -0.303343
vn -0.974474 -0.222215 -0.0319595
vn -0.83772 0.447237 -0.313377
vn -0.964501 -0.25927 -0.0501678
vn -0.230593 -0.944181 0.235265
vn 0.279904 -0.904092 0.322911
vn -0.341097 0.866872 -0.363574
vn -0.989193 -0.0270836 -0.144097
vn -0.295913 -0.936576 0.187781
vn 0.643499 -0.715242 0.272651
vn -0.628708 0.725363 -0.280311
vn 0.989465 0.0377723 0.139759
vn 0.320049 0.934213 -0.157525
vn 0.834962 -0.500474 0.228833
vn 0.980812 0.124545 0.149991
vn 0.679874 -0.716884 -0.154431
vn 0.873373 -0.161081 -0.459643
vn -0.417234 0.901996 -0.110988
vn -0.674091 0.733028 0.0909434
vn -0.411318 -0.73796 0.535007
vn -0.666117 0.745127 -0.0327686
vn 0.381951 -0.901439 0.203769
vn 0.714054 0.43735 -0.546674
vn 0.869929 -0.422165 -0.254951
vn -0.918741 0.16573 0.358396
vn 0.906462 -0.357838 -0.224229
vn 0.083468 -0.788167 0.609775
vn 0.0899921 0.763021 -0.640078
vn -0.37817 0.796319 -0.472084
vn 0.481873 0.521893 -0.703865
vn 0.0337051 0.743868 -0.667476
vn 0.906906 -0.340888 -0.247622
vn -0.592627 -0.375864 0.712404
vn -0.905407 0.381117 0.187051
vn -0.343127 0.75599 -0.557443
vn -0.95708 -0.20357 0.206293
vn -0.883648 0.25727 -0.391125
vn -0.516069 0.565073 -0.643712
vn -0.985563 0.0738473 -0.152354
vn -0.883194 0.304273 -0.356913
vn -0.50237 0.644522 -0.576382
vn -0.981657 0.102693 -0.160634
vn -0.901552 0.306429 -0.305461
vn -0.2015 -0.868291 0.453287
vn -0.142786 -0.864852 0.481294
vn -0.404044 0.747428 -0.527352
vn 0.240424 0.866019 -0.438415
vn -0.836334 -0.535218 0.118689
vn -0.409934 0.792334 -0.451841
vn 0.688906 0.679256 -0.253021
vn 0.29129 0.894624 -0.338818
vn 0.98363 -0.0794033 0.161761
vn 0.885198 0.461099 -0.0617487
vn 0.0599627 -0.9182 0.391553
vn -0.119974 -0.946604 0.299244
vn 0.156988 0.951693 -0.263883
vn 0.82179 -0.495601 0.281141
vn 0.650657 0.52074 -0.552699
vn 0.903212 0.0363673 -0.427651
vn 0.138831 -0.882693 0.448976
vn 0.784559 -0.620052 -0.00167413
vn -0.311773 -0.766908 0.560936
vn -0.920045 -0.0510394 0.388473
vn 0.632286 0.533285 -0.56198
vn 0.643565 0.514202 -0.566939
vn 0.513332 -0.797031 0.31817
vn -0.778322 -0.422507 0.464438
vn -0.981021 0.0643042 -0.18293
vn -0.916483 -0.349463 0.19477
vn -0.717417 -0.214499 0.6628
vn -0.940283 -0.0322091 -0.338867
vn -0.980952 -0.136098 0.138603
vn -0.994878 -0.0510912 -0.0872174
vn -0.866959 -0.135098 0.479719
vn -0.799826 0.0541267 -0.597786
vn -0.393484 -0.172047 0.903089
vn -0.278785 0.143709 -0.94954
vn -0.982463 -0.0506122 0.179454
vn -0.943177 0.0363453 -0.330297
vn -0.997891 0.0128008 0.0636348
vn -0.602297 0.122465 -0.788822
vn -0.745197 -0.0884812 0.660948
vn -0.880328 0.107995 -0.461909
vn -0.978792 0.10308 -0.177034
vn -0.607637 -0.06144 0.791835
vn -0.684095 -0.0264473 0.728913
vn -0.862445 0.170369 -0.476617
vn 0.613592 -0.703513 0.358572
vn 0.0799637 0.671433 -0.736739
vn 0.854642 -0.518121 0.0337176
vn -0.897702 0.134733 0.419496
vn -0.0297628 -0.668663 0.74297
vn -0.529464 0.671442 -0.518491
vn -0.301591 0.652528 -0.695162
vn -0.485459 -0.356423 0.798306
vn -0.716706 -0.472537 0.512876
vn -0.972441 -0.20087 -0.11836
vn -0.914235 -0.327569 0.238481
vn -0.931547 -0.00214267 -0.363615
vn -0.982015 -0.0834657 -0.169353
vn -0.972647 -0.196971 0.123125
vn -0.767375 0.247361 -0.591564
vn -0.603165 -0.473419 0.641924
vn -0.348108 -0.518104 0.781274
vn 0.0211489 0.510516 -0.859608
vn 0.847354 -0.205137 0.489806
vn -0.988211 0.023966 -0.151208
vn -0.739184 -0.404216 0.538717
vn 0.784097 0.373569 -0.495619
vn 0.935034 -0.158487 0.317166
vn 0.979837 0.145272 -0.137173
vn 0.484811 -0.481171 0.730365
vn -0.476008 0.465993 -0.745833
vn 0.352874 0.549101 -0.757606
vn 0.835494 -0.30838 0.454809
vn 0.813972 0.362924 -0.453581
vn -0.481633 -0.530218 0.697781
vn 0.990562 -0.0510699 0.127198
vn -0.260559 0.587945 -0.765787
vn 0.708564 0.475283 -0.521577
vn 0.950452 0.221202 -0.218428
vn -0.103063 -0.619402 0.77828
vn 0.798614 -0.359243 0.482866
vn 0.179733 0.653558 -0.735226
vn -0.277422 -0.677523 0.681175
vn 0.988006 0.137799 -0.069676
vn -0.073416 0.714546 -0.695726
vn 0.572869 0.608221 -0.549444
vn 0.801394 0.495194 -0.335485
vn 0.23403 0.770786 -0.592553
vn 0.928081 0.332756 -0.167153
vn -0.160056 -0.797928 0.581114
vn 0.717088 0.61678 -0.324605
vn 0.991963 -0.0385059 0.120526
vn 0.9285 0.363124 -0.077649
vn -0.570623 -0.342256 0.746492
vn -0.974926 -0.166696 -0.147413
vn 0.971651 0.224728 -0.0734231
vn 0.648318 0.312538 -0.694265
vn -0.481199 -0.317219 0.817202
vn 0.982937 0.142847 0.115887
vn -0.62695 -0.573276 0.52753
vn -0.74195 -0.0913402 -0.664205
vn -0.742157 -0.523568 0.418425
vn -0.399954 0.776218 -0.487362
vn -0.729468 0.134876 -0.670585
vn 0.223905 -0.877541 0.424015
vn -0.697535 -0.0684385 -0.713275
vn -0.556431 0.0984884 -0.825036
vn 0.648649 -0.712488 0.267611
vn -0.0790035 0.239514 -0.967673
vn 0.669122 0.263271 -0.694956
vn 0.758588 0.264432 -0.595499
vn -0.47002 -0.277856 0.837782
vn 0.116308 -0.206057 0.971603
vn -0.2738 0.782148 -0.559713
vn 0.813891 0.22036 -0.537608
vn -0.178035 -0.216511 0.95991
vn 0.722106 -0.0482695 0.690096
vn 0.0240493 -0.16922 0.985285
vn 0.100467 0.146891 -0.984037
vn 0.912255 0.107217 -0.395341
vn -0.072319 0.144719 -0.986826
vn 0.0130793 -0.144376 0.989436
vn 0.545992 -0.144288 0.825272
vn -0.307617 0.153774 -0.939002
vn -0.00055773 0.130258 -0.99148
vn 0.360589 -0.148858 0.92077
vn 0.835393 -0.0471533 -0.547626
vn 0.948182 -0.196622 0.249583
vn 0.732356 -0.000246979 -0.680922
vn -0.163777 -0.110978 0.980235
vn -0.345296 0.175304 -0.921976
vn -0.748815 -0.0184527 0.662522
vn -0.989791 0.115773 0.0831261
vn 0.00201791 -0.563244 0.826288
vn 0.754454 -0.606238 0.251545
vn 0.86563 -0.0963979 -0.491318
vn -0.833959 0.016088 0.551592
vn -0.151973 -0.446376 0.881846
vn -0.125345 -0.0960054 -0.987457
vn 0.827726 -0.0290431 -0.56038
vn -0.289331 0.484855 -0.825351
vn -0.731538 0.516365 -0.44522
vn -0.918219 -0.117303 -0.378304
vn -0.559242 0.214033 -0.800899
vn 0.139151 0.48444 -0.863687
vn -0.918909 -0.369114 0.139145
vn -0.399059 -0.510366 0.76176
vn -0.795144 0.0868723 -0.600166
vn 0.78402 0.454776 -0.422482
vn 0.969882 0.233479 0.0693962
vn -0.404097 0.360489 -0.840687
vn -0.400287 -0.510759 0.760852
vn 0.635097 -0.270354 0.723575
vn 0.543374 0.498762 -0.675264
vn 0.910093 0.340001 -0.236916
vn 0.935976 0.0174149 0.351632
vn 0.403336 -0.35345 0.844034
vn 0.58431 0.471066 -0.660817
vn 0.78948 -0.19592 0.581667
vn 0.985411 0.0808106 0.149783
vn 0.883927 0.325725 -0.335524
vn 0.814622 0.359653 -0.455017
vn 0.98582 0.148064 -0.0789658
vn -0.871294 -0.466517 -0.152346
vn -0.871294 -0.466517 -0.152346
vn -0.871294 -0.466517 -0.152346
vn -0.71824 -0.197393 0.667209
vn -0.770227 0.389656 -0.504895
vn -0.41442 -0.865125 -0.282516
vn 0.05085 -0.419495 -0.906332
vn -0.984909 -0.172811 -0.00947434
vn -0.717425 -0.345812 0.604744
vn -0.951531 -0.109978 -0.287217
vn -0.683435 0.0591685 -0.72761
vn -0.960166 -0.150613 -0.235366
vn 0.46765 -0.163835 0.868598
vn 0.882856 0.0618246 0.465557
vn 0.0363085 -0.270862 0.961933
vn 0.684991 -0.0485415 0.726933
vn 0.747541 0.0153801 -0.664038
vn 0.314607 -0.211534 0.925352
vn 0.949264 -0.178855 0.258666
vn -0.398847 0.228874 -0.887997
vn -0.900162 0.190722 -0.391577
vn -0.970731 0.0484508 0.235232
vn -0.568061 -0.137601 0.811402
vn 0.497307 0.136912 -0.856704
vn 0.477868 -0.254229 0.840839
vn 0.772362 0.054585 -0.632833
vn -0.606224 0.271576 -0.747488
vn -0.0591576 0.273241 -0.960125
vn 0.842143 0.0988484 -0.530117
vn -0.852611 -0.109132 0.511023
vn -0.016787 0.354073 -0.935067
vn 0.480485 0.240157 -0.84348
vn -0.982761 0.109189 -0.149196
vn -0.569816 -0.224659 0.790467
vn 0.533293 -0.27888 0.798639
vn -0.992983 -0.0504104 0.106975
vn 0.757032 0.2649 -0.597269
vn 0.305717 -0.386344 0.870216
vn -0.891599 0.176439 -0.417038
vn 0.403942 -0.372843 0.835356
vn 0.994872 0.0838776 0.0565193
vn 0.445626 -0.422718 0.78913
vn -0.328192 0.231252 -0.915867
vn 0.776748 -0.594105 0.20905
vn 0.205995 0.49134 -0.846257
vn 0.115243 -0.522734 0.844671
vn 0.576221 0.411856 -0.705935
vn 0.394462 0.286608 -0.873073
vn 0.801772 0.352902 -0.48231
vn 0.993248 -0.115593 -0.00987502
vn 0.803369 0.0974315 -0.587457
vn -0.122091 0.455234 -0.881961
vn -0.199254 -0.337393 0.920034
vn -0.0511475 -0.35825 0.932224
vn -0.779636 0.422005 -0.462688
vn -0.296967 0.41415 -0.860401
vn -0.976906 0.213567 0.0066781
vn -0.830892 -0.0215358 -0.556017
vn -0.659088 -0.482503 0.576883
vn -0.0985089 0.383684 -0.918195
vn 0.479104 0.495094 -0.724805
vn -0.184629 -0.451471 0.872976
vn 0.33383 -0.3355 0.880907
vn 0.959479 0.227936 0.165667
vn 0.477485 -0.861792 -0.171238
vn 0.105285 -0.417704 -0.902462
vn -0.115961 0.582931 -0.804204
vn 0.865607 -0.50062 -0.0102266
vn 0.899271 -0.143728 -0.413103
vn -0.893369 0.448756 -0.0225674
vn -0.846548 0.510993 -0.14914
vn -0.824478 0.487591 -0.287214
vn 0.106545 -0.629184 0.76992
vn -0.79145 0.518853 -0.323108
vn -0.260155 0.607359 -0.750623
vn -0.281224 -0.504801 0.816143
vn -0.97484 0.204191 -0.0894044
vn -0.85654 -0.201364 0.475175
vn -0.30376 0.571907 -0.762006
vn -0.614834 -0.387771 0.68674
vn -0.999824 0.018745 0.000491641
vn -0.953332 0.19126 -0.23362
vn -0.955594 -0.200092 0.216339
vn -0.997938 -0.0599531 -0.0229167
vn -0.979763 -0.170773 0.10441
vn 0.14994 -0.471928 0.868793
vn -0.557251 0.329618 -0.762118
vn 0.208764 0.456094 -0.865099
vn 0.481132 0.415098 -0.772144
vn -0.738136 -0.348874 0.577445
vn 0.396073 -0.346726 0.850239
vn -0.784281 0.188048 -0.591221
vn -0.1995 0.393093 -0.897595
vn -0.797795 -0.326639 0.506784
vn 0.834303 -0.153563 0.529487
vn -0.923654 0.0176332 -0.382822
vn -0.0742872 0.369689 -0.926181
vn 0.846674 -0.104151 0.52182
vn 0.706353 0.355547 -0.612088
vn -0.334001 -0.401254 0.8529
vn -0.971059 -0.209864 0.114027
vn 0.276732 -0.318839 0.906511
vn 0.981254 0.0858514 0.172541
vn 0.76304 -0.110926 0.636761
vn 0.148014 -0.285846 0.946776
vn -0.718617 0.100543 -0.6881
vn 0.520419 0.36728 -0.770889
vn 0.740198 0.336772 -0.581973
vn -0.181428 -0.343105 0.921609
vn 0.964332 0.0999828 0.245087
vn 0.45145 -0.179288 0.874099
vn 0.565882 0.353208 -0.744998
vn 0.326685 0.235508 -0.915321
vn 0.911139 -0.125612 -0.392488
vn 0.954664 -0.294448 0.0437713
vn 0.732112 0.0392639 -0.680051
vn -0.0629709 -0.280847 0.957684
vn 0.934094 -0.28908 0.209528
vn 0.944151 -0.12623 -0.304375
vn -0.756914 0.329347 -0.564458
vn 0.110579 0.263137 -0.9584
vn 0.53523 0.13169 -0.834378
vn -0.00461739 0.25048 -0.968111
vn -0.84848 0.230731 -0.476282
vn -0.257576 0.276221 -0.925935
vn -0.953994 0.0193232 0.299203
vn -0.994266 -0.00843995 0.106597
vn -0.97952 9.32316e-05 -0.201346
vn -0.879347 -0.162723 0.447515
vn -0.928907 -0.198425 0.312664
vn -0.98938 -0.0961451 -0.109012
vn -0.979851 -0.198296 0.0238974
vn -0.855629 0.00742287 -0.517536
vn -0.817814 -0.317 0.480303
vn -0.257392 0.260248 -0.930602
vn -0.955529 -0.133209 -0.263098
vn -0.889683 -0.349359 0.293961
vn -0.645297 0.122739 -0.754008
vn -0.342765 -0.426603 0.836972
vn -0.0573129 -0.386553 0.920485
vn 0.406627 0.417287 -0.812728
vn 0.895193 0.373989 -0.242409
vn 0.861586 0.0425791 0.505823
vn 0.756912 -0.469478 0.454615
vn 0.92433 0.015158 -0.381292
vn 0.246322 -0.582916 0.774296
vn 0.0116899 -0.547623 0.836643
vn 0.711615 -0.439595 0.548051
vn 0.996193 -0.0819414 -0.0297467
vn 0.595645 0.430753 -0.677982
vn 0.39647 0.502521 -0.7683
vn 0.99698 0.0445956 -0.0635792
vn 0.864665 -0.274216 0.420904
vn -0.295753 0.467553 -0.833021
vn 0.601674 -0.399397 0.691716
vn 0.984642 -0.0491544 0.167522
vn 0.628349 0.428423 -0.649332
vn 0.795055 -0.252898 0.551299
vn 0.994988 0.0430099 0.0902716
vn 0.756909 -0.240979 0.607468
vn 0.61471 0.403304 -0.677848
vn 0.647785 -0.303623 0.698704
vn 0.864519 -0.00640127 -0.50256
vn 0.977361 -0.187575 0.0978827
vn 0.514367 0.158524 -0.842791
vn 0.215113 -0.273286 0.937572
vn 0.947202 -0.00851528 -0.320524
vn 0.894362 -0.179428 0.409784
vn 0.657863 -0.216294 0.72141
vn -0.892534 0.127836 -0.432482
vn 0.0280968 0.253284 -0.966984
vn 0.67082 0.158166 -0.724557
vn 0.985156 0.029868 -0.169042
vn -0.826071 -0.145414 0.544482
vn -0.0970831 -0.261179 0.960396
vn 0.560442 0.243182 -0.791686
vn 0.416283 -0.229502 0.879794
vn 0.860337 -0.119589 0.495498
vn 0.992489 0.019079 0.120834
vn -0.652995 0.164198 -0.739349
vn 0.918173 0.159542 -0.362636
vn -0.727379 -0.245755 0.640722
vn 0.587968 -0.174588 0.789818
vn 0.899393 -0.0232155 0.436523
vn 0.0833324 -0.272626 0.958505
vn 0.721583 0.312815 -0.617628
vn 0.99017 0.137226 -0.0270456
vn 0.122587 -0.300498 0.945872
vn 0.977692 0.207897 0.0299697
vn 0.696193 -0.104969 0.710138
vn -0.732516 -0.105364 0.672547
vn -0.479757 -0.408837 0.776329
vn -0.462191 0.676871 0.572909
vn -0.230187 -0.396139 0.888869
vn 0.35452 -0.752823 0.554593
vn 0.806122 -0.143645 0.57405
vn -0.266156 0.963928 0.00216495
vn -0.196562 0.976395 -0.0895339
vn -0.461825 0.85764 -0.226212
vn -0.858308 0.440646 -0.262943
vn 0.590618 0.804105 0.06772
vn -0.836282 0.495446 -0.234873
vn 0.551315 0.831299 0.0706712
vn 0.1573 -0.983452 0.0898791
vn 0.843965 -0.487302 0.224186
vn -0.826239 0.510299 -0.238585
vn 0.916037 0.346843 0.201435
vn -0.959853 -0.195699 -0.200959
vn -0.912984 -0.363561 -0.18516
vn -0.625873 0.622192 -0.470276
vn -0.851214 -0.199972 0.485227
vn 0.436689 0.586098 -0.682489
vn 0.00450896 -0.996792 0.0799024
vn 0.829023 -0.518006 0.210692
vn -0.800907 -0.246357 -0.545762
vn -0.998239 -0.0392264 0.0444974
vn -0.929874 0.313928 0.191791
vn -0.812661 0.57356 0.103011
vn -0.287052 0.946545 -0.147154
vn -0.411078 0.909986 0.0542339
vn -0.405292 -0.876725 -0.25902
vn -0.0142769 -0.386054 -0.922366
vn 0.467136 0.29163 -0.834707
vn -0.0664126 0.952193 -0.298192
vn 0.460479 0.525282 -0.715568
vn 0.635081 -0.342311 -0.692455
vn 0.0485644 0.956814 -0.286615
vn -0.72732 0.571571 0.379885
vn 0.904834 -0.327683 -0.271844
vn -0.621484 0.768658 -0.151403
vn -0.983414 -0.120865 -0.135235
vn -0.9785 -0.154286 -0.136873
vn 0.0708173 0.986373 -0.148506
vn -0.291351 0.956609 0.00382821
vn -0.828887 0.40324 0.387741
vn -0.789562 -0.212646 0.57565
vn -0.779021 0.531538 0.332555
vn 0.467176 0.727419 -0.502601
vn 0.602743 0.461659 -0.650824
vn 0.595121 -0.773803 0.216932
vn -0.892368 0.419144 0.167324
vn -0.536405 -0.824819 0.178726
vn -0.662382 0.68411 -0.305357
vn 0.178426 0.963586 -0.199164
vn 0.854067 0.518789 0.0377822
vn 0.390146 0.768092 -0.50776
vn -0.871603 0.353357 0.339775
vn -0.781339 -0.319029 0.536405
vn -0.675233 0.735083 -0.0609466
vn -0.616031 -0.575406 0.537972
vn 0.55895 -0.780141 0.280989
vn 0.724877 0.239053 -0.646071
vn -0.610691 0.708748 -0.353177
vn -0.523132 -0.58555 0.619245
vn -0.709169 -0.549492 0.441745
vn -0.605894 -0.680599 0.41192
vn -0.942051 -0.325667 0.0805007
vn 0.797829 -0.476318 0.369581
vn 0.418237 0.77484 -0.474027
vn -0.435314 -0.849033 0.299408
vn 0.0780022 -0.915886 0.393787
vn 0.814021 -0.492327 0.308196
vn 0.837993 0.542844 -0.0555658
vn -0.210356 0.915993 -0.341624
vn -0.819779 -0.291762 0.492786
vn -0.655587 0.731228 -0.188445
vn -0.935147 0.33984 0.100047
vn -0.138161 0.883269 -0.448048
vn -0.555567 0.781098 -0.285012
vn 0.945509 -0.275904 -0.172887
vn 0.91537 -0.39449 -0.0804701
vn -0.940509 0.319587 -0.115359
vn -0.977068 -0.041784 0.208787
vn -0.908931 -0.191154 0.370547
vn -0.862844 -0.0195812 0.50509
vn -0.988357 0.106502 0.10866
vn 0.692926 0.253411 -0.675008
vn 0.615596 0.247192 -0.74829
vn 0.86563 -0.0963979 -0.491318
vn -0.926006 0.326203 0.190013
vn 0.698844 0.212887 -0.682859
vn -0.572458 0.296097 -0.764604
vn 0.47004 -0.402712 0.78542
vn 0.379118 -0.652262 0.656371
vn 0.929175 -0.225882 0.292595
vn 0.849662 -0.382375 0.36313
vn -0.487877 -0.745888 0.453462
vn 0.769832 -0.477459 0.423548
vn -0.697428 -0.313317 0.644536
vn 0.218922 -0.192928 0.956479
vn -0.10915 -0.860677 0.497315
vn -0.207577 -0.944078 -0.256181
vn -0.973973 -0.225784 -0.019964
vn -0.73043 -0.300756 -0.613203
vn -0.920922 0.33958 -0.191281
vn -0.222616 0.723705 -0.653217
vn 0.272142 -0.638674 -0.719745
vn -0.456279 -0.694944 0.555754
vn -0.207577 -0.944078 -0.256181
vn -0.0790035 0.239514 -0.967673
vn -0.117752 -0.919896 0.374066
vn -0.207577 -0.944078 -0.256181
vn 0.475295 -0.616747 -0.627469
vn 0.934951 -0.0746915 -0.346827
vn 0.475295 -0.616747 -0.627469
vn 0.608626 0.255416 -0.751224
vn 0.654556 -0.563818 -0.503653
vn 0.755506 -0.0288145 0.654507
vn 0.543413 0.409363 -0.732888
vn -0.140231 0.169077 -0.975576
vn 0.974988 0.152005 -0.162153
vn 0.654758 -0.0890218 0.750578
vn 0.577261 0.183327 -0.795714
vn 0.851507 0.110874 -0.512487
vn 0.738867 -0.0778962 0.669334
vn 0.998179 0.00851384 0.0597227
vn 0.998179 0.00851384 0.0597227
vn 0.861012 -0.0717763 -0.503495
vn 0.915901 -0.100109 0.38872
vn 0.769912 0.0593783 -0.635382
vn 0.998179 0.00851384 0.0597227
vn 0.753503 -0.0196139 -0.657152
vn 0.91923 -0.167474 0.356326
vn 0.936725 -0.17105 0.30543
vn 0.30353 -0.171423 0.937275
vn 0.632192 0.038333 -0.773863
vn 0.138677 0.163631 -0.976726
vn 0.532324 -0.690511 0.489721
vn 0.338784 -0.578347 0.742119
vn -0.000633728 -0.0517579 -0.998659
vn 0.202249 -0.928617 0.311071
vn -0.851791 0.0931952 0.515526
vn -0.0489859 -0.925273 0.376125
vn -0.843198 0.205017 -0.496976
vn -0.80273 -0.349181 0.483422
vn -0.268354 -0.425397 0.864305
vn -0.263448 0.0190737 -0.964485
vn 0.324552 0.383633 -0.864576
vn 0.513562 0.292711 -0.806582
vn 0.219807 -0.384947 0.896382
vn 0.340554 -0.392907 0.854194
vn 0.908944 0.0357003 0.415386
vn -0.853808 0.459548 -0.244596
vn -0.798199 -0.215115 0.562675
vn -0.818831 -0.409737 0.402034
vn -0.41442 -0.865125 -0.282516
vn 0.0538378 -0.996661 -0.0613831
vn 0.0403416 -0.713203 0.699795
vn -0.72815 0.283823 -0.623892
vn -0.41442 -0.865125 -0.282516
vn -0.0037371 -0.420036 -0.9075
vn 0.0735938 -0.67257 0.736365
vn -0.194844 0.617264 -0.762247
vn 0.05085 -0.419495 -0.906332
vn 0.258769 -0.952264 -0.16196
vn -0.619771 0.294252 -0.72753
vn -0.119428 0.575152 -0.809282
vn 0.499023 0.0084464 -0.866547
vn -0.822225 0.0613285 -0.565849
vn -0.971253 -0.148677 -0.185912
vn -0.674219 0.0924395 -0.732724
vn -0.0790035 0.239514 -0.967673
vn 0.410635 0.339608 -0.846195
vn -0.696127 0.0569743 -0.715654
vn 0.960398 -0.176289 0.215775
vn -0.402853 -0.11467 0.908053
vn 0.44971 -0.234445 0.861856
vn -0.11723 -0.229385 0.96625
vn 0.98233 -0.130108 0.134535
vn -0.0794276 -0.294669 0.952293
vn 0.401276 -0.313567 0.860612
vn 0.998707 -0.0263774 -0.0434687
vn -0.483809 -0.307825 0.819251
vn -0.849241 -0.232051 0.47428
vn -0.268354 -0.425397 0.864305
vn -0.452006 0.326014 -0.830304
vn 0.219049 0.446002 -0.867813
vn 0.996435 0.0771725 0.0340829
vn 0.484896 0.523506 -0.700584
vn 0.963072 -0.0234356 0.268222
vn -0.268354 -0.425397 0.864305
vn -0.296921 -0.8596 0.415842
vn 0.0153785 -0.60759 0.794102
vn 0.274694 0.528712 -0.803123
vn -0.820091 0.235636 -0.521465
vn 0.894234 -0.162717 -0.416977
vn -0.0489859 -0.925273 0.376125
vn 0.248313 -0.612875 0.75015
vn 0.835244 -0.320013 0.447168
vn -0.891793 0.0996135 0.441342
vn -0.56701 -0.108424 0.816544
vn 0.851639 -0.409826 0.326731
vn 0.491445 -0.381227 0.783038
vn -0.937747 0.156376 0.310123
vn -0.585212 -0.121739 0.801689
vn -0.976044 0.133901 0.171488
vn -0.939728 -0.332154 0.0811528
vn 0.474427 -0.226935 0.850541
vn 0.90231 0.0854589 0.422532
vn 0.0735938 -0.67257 0.736365
vn 0.670966 -0.627737 0.394654
vn 0.76064 -0.380613 -0.52589
vn 0.597679 0.0901475 -0.796651
vn -0.613487 -0.187045 0.767234
vn -0.878244 0.0836184 0.470846
vn -0.309989 0.628002 -0.713807
vn -0.918741 -0.0161516 0.394531
vn -0.447103 -0.356403 0.820412
vn 0.837775 -0.509869 0.195363
vn 0.589747 -0.572587 0.569511
vn -0.287333 0.57764 -0.76405
vn 0.658174 0.204678 -0.72451
vn 0.273909 0.51552 -0.811919
vn -0.818931 -0.152775 0.553183
vn -0.824936 0.428002 -0.369181
vn 0.15438 0.542078 -0.826026
vn -0.0111031 -0.575612 0.817648
vn -0.566322 -0.440474 0.696608
vn -0.175964 0.541307 -0.822206
vn -0.371971 -0.497647 0.783572
vn -0.46742 0.423109 -0.776207
vn -0.91165 0.151033 -0.382209
vn -0.894363 0.132662 -0.427218
vn -0.11899 -0.450163 0.884983
vn -0.957209 0.00475407 -0.289357
vn -0.95576 -0.211921 0.203989
vn 0.987492 0.146232 -0.0589574
vn -0.331578 0.329902 -0.883867
vn 0.69097 0.359011 -0.627432
vn 0.990345 0.137325 -0.0189242
vn -0.559657 -0.368447 0.742314
vn 0.638693 -0.168622 0.750758
vn 0.00899037 0.338061 -0.941081
vn 0.979825 0.191633 -0.0567487
vn 0.887135 0.0248326 0.460842
vn 0.825037 0.319418 -0.466139
vn 0.976223 0.164612 0.14104
vn -0.0692199 -0.341429 0.937355
vn 0.486926 -0.369312 0.791525
vn -0.540926 0.343125 -0.767896
vn -0.973009 0.0559197 0.223892
vn -0.722631 0.263681 -0.638965
vn -0.376095 -0.208456 0.902828
vn -0.744298 0.11906 -0.65715
vn -0.229756 -0.352676 0.907101
vn 0.508743 -0.19751 0.837956
vn 0.965985 -0.217492 -0.139893
vn 0.342846 0.495557 -0.798047
vn 0.955442 0.0928399 -0.280198
vn 0.698898 0.400687 -0.592445
vn 0.578312 0.439388 -0.687382
vn 0.97647 0.157728 -0.147063
vn 0.972524 0.178384 -0.149587
vn -0.281499 0.259076 -0.923925
vn -0.259247 -0.26259 0.929429
vn -0.170669 -0.303684 0.937362
g grp1
usemtl mtl1
f 31//31 2//2 1//1 
f 2//2 7//7 1//1 
f 2//2 4//4 3//3 
f 7//7 2//2 3//3 
f 7//7 547//547 10//10 
f 31//31 5//5 2//2 
f 4//4 2//2 5//5 
f 548//548 6//6 547//547 
f 31//31 14//14 5//5 
f 5//5 14//14 15//15 
f 4//4 5//5 15//15 
f 4//4 15//15 16//16 
f 550//550 6//6 548//548 
f 32//32 1//1 8//8 
f 13//13 555//555 8//8 
f 7//7 8//8 1//1 
f 9//9 8//8 7//7 
f 10//10 9//9 7//7 
f 13//13 8//8 9//9 
f 547//547 6//6 10//10 
f 12//12 10//10 6//6 
f 12//12 9//9 10//10 
f 13//13 9//9 11//11 
f 12//12 549//549 9//9 
f 14//14 31//31 37//37 
f 1//1 32//32 31//31 
f 21//21 20//20 35//35 
f 30//30 21//21 35//35 
f 30//30 35//35 33//33 
f 6//6 550//550 17//17 
f 17//17 23//23 6//6 
f 18//18 16//16 15//15 
f 19//19 26//26 17//17 
f 26//26 23//23 17//17 
f 14//14 18//18 15//15 
f 16//16 18//18 551//551 
f 550//550 19//19 17//17 
f 14//14 34//34 18//18 
f 34//34 20//20 18//18 
f 22//22 20//20 21//21 
f 22//22 18//18 20//20 
f 18//18 22//22 551//551 
f 552//552 28//28 26//26 
f 19//19 552//552 26//26 
f 552//552 21//21 30//30 
f 552//552 30//30 28//28 
f 36//36 555//555 13//13 
f 25//25 29//29 557//557 
f 23//23 12//12 6//6 
f 24//24 549//549 12//12 
f 23//23 24//24 12//12 
f 13//13 11//11 553//553 
f 36//36 13//13 554//554 
f 13//13 553//553 554//554 
f 26//26 27//27 23//23 
f 27//27 24//24 23//23 
f 27//27 25//25 24//24 
f 28//28 29//29 27//27 
f 26//26 28//28 27//27 
f 29//29 25//25 27//27 
f 30//30 29//29 28//28 
f 40//40 29//29 30//30 
f 41//41 37//37 31//31 
f 14//14 37//37 34//34 
f 37//37 39//39 34//34 
f 35//35 39//39 33//33 
f 39//39 35//35 34//34 
f 33//33 40//40 30//30 
f 35//35 20//20 34//34 
f 557//557 29//29 559//559 
f 47//47 41//41 31//31 
f 31//31 32//32 38//38 
f 43//43 555//555 36//36 
f 560//560 42//42 37//37 
f 45//45 39//39 561//561 
f 42//42 39//39 37//37 
f 46//46 558//558 64//64 
f 562//562 64//64 558//558 
f 558//558 556//556 562//562 
f 44//44 48//48 43//43 
f 43//43 36//36 44//44 
f 557//557 559//559 44//44 
f 563//563 93//93 40//40 
f 563//563 40//40 33//33 
f 45//45 33//33 39//39 
f 87//87 42//42 560//560 
f 47//47 569//569 41//41 
f 93//93 45//45 561//561 
f 31//31 38//38 565//565 
f 46//46 64//64 89//89 
f 570//570 93//93 561//561 
f 89//89 63//63 564//564 
f 565//565 564//564 63//63 
f 565//565 38//38 564//564 
f 48//48 44//44 65//65 
f 40//40 93//93 65//65 
f 44//44 559//559 65//65 
f 49//49 51//51 50//50 
f 49//49 58//58 51//51 
f 51//51 58//58 60//60 
f 61//61 566//566 60//60 
f 49//49 50//50 53//53 
f 49//49 53//53 52//52 
f 49//49 52//52 57//57 
f 52//52 59//59 57//57 
f 53//53 50//50 55//55 
f 50//50 56//56 55//55 
f 50//50 566//566 56//56 
f 56//56 566//566 61//61 
f 53//53 67//67 66//66 
f 52//52 53//53 66//66 
f 54//54 67//67 55//55 
f 67//67 53//53 55//55 
f 54//54 55//55 68//68 
f 55//55 56//56 68//68 
f 56//56 79//79 68//68 
f 56//56 61//61 79//79 
f 567//567 120//120 58//58 
f 567//567 58//58 49//49 
f 120//120 57//57 59//59 
f 81//81 60//60 58//58 
f 61//61 60//60 82//82 
f 79//79 61//61 80//80 
f 83//83 80//80 61//61 
f 82//82 83//83 61//61 
f 60//60 81//81 82//82 
f 62//62 86//86 47//47 
f 63//63 62//62 565//565 
f 86//86 569//569 47//47 
f 135//135 93//93 570//570 
f 89//89 64//64 88//88 
f 91//91 64//64 48//48 
f 91//91 48//48 65//65 
f 63//63 89//89 132//132 
f 43//43 48//48 64//64 
f 65//65 92//92 91//91 
f 93//93 92//92 65//65 
f 52//52 66//66 69//69 
f 69//69 70//70 52//52 
f 70//70 59//59 52//52 
f 66//66 67//67 71//71 
f 66//66 71//71 69//69 
f 71//71 67//67 72//72 
f 54//54 73//73 67//67 
f 73//73 72//72 67//67 
f 68//68 73//73 54//54 
f 68//68 568//568 78//78 
f 71//71 75//75 69//69 
f 70//70 69//69 74//74 
f 69//69 75//75 74//74 
f 74//74 121//121 70//70 
f 76//76 71//71 72//72 
f 76//76 72//72 73//73 
f 68//68 78//78 73//73 
f 123//123 74//74 75//75 
f 121//121 74//74 123//123 
f 71//71 76//76 75//75 
f 75//75 76//76 77//77 
f 123//123 75//75 77//77 
f 73//73 78//78 76//76 
f 76//76 78//78 77//77 
f 78//78 122//122 77//77 
f 124//124 122//122 78//78 
f 70//70 119//119 59//59 
f 120//120 59//59 119//119 
f 70//70 121//121 119//119 
f 78//78 568//568 80//80 
f 124//124 78//78 80//80 
f 124//124 80//80 83//83 
f 58//58 126//126 81//81 
f 58//58 127//127 126//126 
f 125//125 124//124 83//83 
f 58//58 120//120 127//127 
f 83//83 82//82 125//125 
f 82//82 81//81 586//586 
f 84//84 63//63 132//132 
f 86//86 85//85 569//569 
f 569//569 85//85 131//131 
f 84//84 62//62 63//63 
f 84//84 85//85 62//62 
f 85//85 86//86 62//62 
f 135//135 570//570 131//131 
f 89//89 88//88 133//133 
f 88//88 64//64 91//91 
f 589//589 88//88 134//134 
f 134//134 88//88 90//90 
f 90//90 91//91 92//92 
f 88//88 91//91 90//90 
f 90//90 92//92 137//137 
f 92//92 93//93 137//137 
f 135//135 137//137 93//93 
f 95//95 102//102 94//94 
f 577//577 571//571 103//103 
f 94//94 96//96 95//95 
f 104//104 96//96 94//94 
f 103//103 571//571 97//97 
f 571//571 98//98 97//97 
f 572//572 96//96 573//573 
f 96//96 99//99 573//573 
f 96//96 104//104 99//99 
f 100//100 97//97 98//98 
f 573//573 101//101 574//574 
f 99//99 101//101 573//573 
f 577//577 107//107 105//105 
f 105//105 106//106 577//577 
f 577//577 106//106 94//94 
f 104//104 94//94 117//117 
f 117//117 94//94 106//106 
f 577//577 103//103 107//107 
f 108//108 103//103 97//97 
f 109//109 108//108 97//97 
f 109//109 97//97 100//100 
f 110//110 580//580 575//575 
f 575//575 576//576 110//110 
f 99//99 138//138 101//101 
f 576//576 590//590 110//110 
f 105//105 107//107 111//111 
f 105//105 118//118 106//106 
f 106//106 118//118 117//117 
f 107//107 103//103 112//112 
f 111//111 107//107 582//582 
f 112//112 103//103 578//578 
f 113//113 579//579 581//581 
f 581//581 114//114 113//113 
f 583//583 580//580 110//110 
f 105//105 111//111 118//118 
f 582//582 115//115 111//111 
f 579//579 113//113 582//582 
f 582//582 113//113 115//115 
f 583//583 110//110 144//144 
f 113//113 140//140 115//115 
f 140//140 113//113 114//114 
f 104//104 116//116 99//99 
f 584//584 138//138 99//99 
f 104//104 117//117 116//116 
f 110//110 590//590 144//144 
f 115//115 139//139 111//111 
f 115//115 140//140 139//139 
f 114//114 594//594 140//140 
f 120//120 119//119 150//150 
f 119//119 121//121 150//150 
f 77//77 585//585 123//123 
f 177//177 123//123 585//585 
f 150//150 149//149 120//120 
f 125//125 82//82 586//586 
f 177//177 585//585 147//147 
f 122//122 124//124 595//595 
f 127//127 120//120 149//149 
f 125//125 586//586 145//145 
f 146//146 124//124 125//125 
f 127//127 148//148 126//126 
f 128//128 160//160 129//129 
f 587//587 588//588 132//132 
f 159//159 587//587 132//132 
f 162//162 599//599 132//132 
f 132//132 588//588 84//84 
f 130//130 129//129 160//160 
f 129//129 85//85 84//84 
f 85//85 129//129 130//130 
f 131//131 130//130 165//165 
f 130//130 131//131 85//85 
f 135//135 131//131 165//165 
f 133//133 132//132 89//89 
f 132//132 133//133 162//162 
f 600//600 589//589 134//134 
f 134//134 164//164 600//600 
f 136//136 166//166 601//601 
f 136//136 601//601 134//134 
f 90//90 136//136 134//134 
f 136//136 137//137 166//166 
f 136//136 90//90 137//137 
f 166//166 137//137 135//135 
f 118//118 111//111 139//139 
f 139//139 142//142 118//118 
f 144//144 590//590 143//143 
f 117//117 141//141 116//116 
f 118//118 142//142 117//117 
f 584//584 593//593 138//138 
f 591//591 593//593 584//584 
f 141//141 117//117 142//142 
f 140//140 594//594 174//174 
f 167//167 142//142 139//139 
f 174//174 168//168 140//140 
f 140//140 168//168 139//139 
f 142//142 171//171 141//141 
f 144//144 143//143 169//169 
f 143//143 170//170 169//169 
f 591//591 603//603 593//593 
f 121//121 123//123 596//596 
f 146//146 125//125 145//145 
f 586//586 152//152 145//145 
f 145//145 152//152 151//151 
f 145//145 151//151 146//146 
f 124//124 146//146 595//595 
f 177//177 147//147 183//183 
f 146//146 181//181 595//595 
f 595//595 181//181 608//608 
f 126//126 148//148 597//597 
f 149//149 148//148 127//127 
f 149//149 150//150 178//178 
f 146//146 151//151 179//179 
f 596//596 123//123 607//607 
f 181//181 146//146 179//179 
f 179//179 151//151 182//182 
f 154//154 194//194 153//153 
f 153//153 159//159 154//154 
f 158//158 154//154 599//599 
f 158//158 200//200 154//154 
f 153//153 199//199 155//155 
f 155//155 159//159 153//153 
f 616//616 206//206 598//598 
f 598//598 206//206 156//156 
f 158//158 207//207 202//202 
f 159//159 155//155 587//587 
f 206//206 157//157 156//156 
f 156//156 160//160 598//598 
f 156//156 157//157 160//160 
f 160//160 128//128 598//598 
f 161//161 160//160 157//157 
f 160//160 161//161 130//130 
f 207//207 158//158 600//600 
f 158//158 599//599 162//162 
f 164//164 207//207 600//600 
f 208//208 163//163 161//161 
f 619//619 601//601 163//163 
f 163//163 165//165 161//161 
f 163//163 601//601 166//166 
f 163//163 166//166 165//165 
f 165//165 130//130 161//161 
f 166//166 135//135 165//165 
f 167//167 173//173 142//142 
f 139//139 168//168 167//167 
f 171//171 142//142 173//173 
f 175//175 167//167 168//168 
f 173//173 167//167 175//175 
f 594//594 602//602 174//174 
f 174//174 602//602 209//209 
f 168//168 174//174 175//175 
f 592//592 171//171 604//604 
f 169//169 170//170 172//172 
f 170//170 176//176 172//172 
f 620//620 169//169 172//172 
f 174//174 209//209 210//210 
f 174//174 210//210 175//175 
f 606//606 604//604 171//171 
f 211//211 171//171 173//173 
f 596//596 607//607 178//178 
f 182//182 181//181 179//179 
f 182//182 151//151 180//180 
f 152//152 180//180 151//151 
f 178//178 184//184 149//149 
f 180//180 152//152 186//186 
f 182//182 180//180 186//186 
f 182//182 240//240 181//181 
f 149//149 184//184 148//148 
f 242//242 148//148 184//184 
f 243//243 184//184 178//178 
f 243//243 246//246 184//184 
f 607//607 239//239 178//178 
f 182//182 186//186 240//240 
f 597//597 148//148 185//185 
f 186//186 152//152 609//609 
f 242//242 184//184 246//246 
f 186//186 609//609 244//244 
f 148//148 242//242 185//185 
f 185//185 242//242 636//636 
f 187//187 188//188 258//258 
f 258//258 188//188 264//264 
f 187//187 190//190 188//188 
f 188//188 191//191 189//189 
f 191//191 192//192 189//189 
f 278//278 189//189 192//192 
f 191//191 188//188 190//190 
f 273//273 276//276 610//610 
f 194//194 192//192 191//191 
f 192//192 194//194 197//197 
f 191//191 190//190 193//193 
f 276//276 283//283 610//610 
f 197//197 281//281 192//192 
f 643//643 612//612 611//611 
f 643//643 195//195 612//612 
f 194//194 191//191 193//193 
f 284//284 281//281 615//615 
f 193//193 613//613 194//194 
f 195//195 643//643 196//196 
f 153//153 194//194 613//613 
f 194//194 200//200 197//197 
f 200//200 202//202 198//198 
f 198//198 202//202 201//201 
f 197//197 200//200 198//198 
f 284//284 198//198 201//201 
f 196//196 205//205 195//195 
f 203//203 618//618 285//285 
f 613//613 199//199 153//153 
f 205//205 617//617 195//195 
f 617//617 205//205 206//206 
f 194//194 154//154 200//200 
f 202//202 200//200 158//158 
f 204//204 201//201 202//202 
f 204//204 163//163 203//203 
f 286//286 204//204 203//203 
f 204//204 286//286 201//201 
f 618//618 203//203 208//208 
f 203//203 163//163 208//208 
f 205//205 157//157 206//206 
f 208//208 157//157 618//618 
f 163//163 204//204 619//619 
f 619//619 204//204 202//202 
f 161//161 157//157 208//208 
f 210//210 209//209 216//216 
f 212//212 173//173 175//175 
f 175//175 210//210 212//212 
f 173//173 212//212 211//211 
f 210//210 626//626 212//212 
f 213//213 606//606 171//171 
f 213//213 171//171 211//211 
f 215//215 216//216 209//209 
f 620//620 172//172 624//624 
f 621//621 214//214 176//176 
f 172//172 176//176 214//214 
f 622//622 625//625 605//605 
f 625//625 622//622 296//296 
f 621//621 218//218 214//214 
f 623//623 628//628 651//651 
f 621//621 293//293 218//218 
f 213//213 211//211 647//647 
f 298//298 647//647 211//211 
f 217//217 211//211 212//212 
f 627//627 212//212 626//626 
f 217//217 298//298 211//211 
f 217//217 301//301 298//298 
f 660//660 627//627 626//626 
f 218//218 293//293 295//295 
f 218//218 295//295 220//220 
f 628//628 219//219 651//651 
f 629//629 630//630 219//219 
f 651//651 219//219 297//297 
f 307//307 296//296 652//652 
f 630//630 223//223 219//219 
f 630//630 305//305 221//221 
f 630//630 221//221 223//223 
f 297//297 219//219 222//222 
f 219//219 223//223 222//222 
f 221//221 225//225 223//223 
f 223//223 224//224 222//222 
f 223//223 225//225 224//224 
f 305//305 309//309 221//221 
f 297//297 222//222 226//226 
f 228//228 297//297 226//226 
f 222//222 224//224 226//226 
f 221//221 227//227 225//225 
f 309//309 227//227 221//221 
f 225//225 229//229 224//224 
f 309//309 311//311 227//227 
f 230//230 232//232 226//226 
f 226//226 224//224 230//230 
f 224//224 229//229 230//230 
f 225//225 233//233 229//229 
f 234//234 232//232 230//230 
f 233//233 231//231 229//229 
f 229//229 231//231 230//230 
f 230//230 231//231 234//234 
f 228//228 226//226 232//232 
f 233//233 225//225 227//227 
f 314//314 228//228 232//232 
f 314//314 232//232 317//317 
f 233//233 227//227 315//315 
f 311//311 315//315 227//227 
f 231//231 235//235 234//234 
f 233//233 236//236 631//631 
f 231//231 233//233 631//631 
f 236//236 233//233 315//315 
f 317//317 232//232 234//234 
f 315//315 323//323 236//236 
f 236//236 237//237 631//631 
f 237//237 236//236 323//323 
f 238//238 317//317 234//234 
f 235//235 238//238 234//234 
f 235//235 632//632 238//238 
f 633//633 608//608 181//181 
f 245//245 240//240 186//186 
f 177//177 183//183 241//241 
f 239//239 177//177 241//241 
f 637//637 608//608 633//633 
f 608//608 637//637 634//634 
f 178//178 239//239 243//243 
f 245//245 186//186 244//244 
f 246//246 243//243 327//327 
f 331//331 246//246 327//327 
f 330//330 246//246 331//331 
f 242//242 246//246 330//330 
f 684//684 243//243 239//239 
f 245//245 244//244 335//335 
f 248//248 247//247 249//249 
f 248//248 250//250 341//341 
f 247//247 254//254 249//249 
f 248//248 249//249 251//251 
f 248//248 251//251 250//250 
f 253//253 344//344 638//638 
f 249//249 252//252 251//251 
f 254//254 252//252 249//249 
f 255//255 254//254 345//345 
f 344//344 253//253 256//256 
f 252//252 253//253 251//251 
f 251//251 253//253 250//250 
f 259//259 254//254 255//255 
f 252//252 254//254 259//259 
f 697//697 346//346 639//639 
f 253//253 264//264 256//256 
f 252//252 258//258 253//253 
f 252//252 259//259 258//258 
f 258//258 264//264 253//253 
f 256//256 264//264 265//265 
f 351//351 256//256 265//265 
f 260//260 351//351 265//265 
f 355//355 351//351 260//260 
f 259//259 255//255 268//268 
f 268//268 639//639 263//263 
f 639//639 257//257 263//263 
f 356//356 261//261 257//257 
f 356//356 355//355 260//260 
f 187//187 258//258 259//259 
f 257//257 261//261 263//263 
f 260//260 265//265 267//267 
f 261//261 356//356 262//262 
f 356//356 260//260 262//262 
f 260//260 267//267 262//262 
f 265//265 264//264 270//270 
f 275//275 265//265 270//270 
f 259//259 268//268 187//187 
f 265//265 275//275 271//271 
f 265//265 271//271 267//267 
f 263//263 261//261 266//266 
f 269//269 266//266 261//261 
f 261//261 262//262 269//269 
f 270//270 264//264 188//188 
f 271//271 272//272 267//267 
f 267//267 272//272 262//262 
f 262//262 272//272 269//269 
f 268//268 610//610 187//187 
f 268//268 263//263 273//273 
f 273//273 263//263 274//274 
f 266//266 274//274 263//263 
f 274//274 266//266 269//269 
f 610//610 268//268 273//273 
f 275//275 279//279 271//271 
f 269//269 272//272 277//277 
f 272//272 271//271 277//277 
f 269//269 277//277 274//274 
f 275//275 270//270 189//189 
f 270//270 188//188 189//189 
f 275//275 189//189 278//278 
f 278//278 279//279 275//275 
f 271//271 279//279 277//277 
f 640//640 273//273 274//274 
f 641//641 274//274 277//277 
f 279//279 278//278 281//281 
f 279//279 281//281 280//280 
f 279//279 280//280 277//277 
f 281//281 278//278 192//192 
f 282//282 277//277 280//280 
f 641//641 642//642 644//644 
f 277//277 642//642 641//641 
f 284//284 280//280 281//281 
f 280//280 284//284 282//282 
f 282//282 284//284 285//285 
f 642//642 614//614 644//644 
f 198//198 284//284 615//615 
f 285//285 614//614 642//642 
f 285//285 618//618 614//614 
f 284//284 286//286 285//285 
f 284//284 201//201 286//286 
f 203//203 285//285 286//286 
f 465//465 287//287 365//365 
f 291//291 287//287 371//371 
f 716//716 288//288 368//368 
f 367//367 720//720 294//294 
f 649//649 368//368 288//288 
f 287//287 645//645 365//365 
f 645//645 287//287 291//291 
f 288//288 220//220 649//649 
f 291//291 305//305 645//645 
f 367//367 294//294 299//299 
f 300//300 367//367 299//299 
f 718//718 656//656 302//302 
f 371//371 372//372 646//646 
f 290//290 719//719 662//662 
f 306//306 646//646 372//372 
f 289//289 292//292 372//372 
f 372//372 292//292 664//664 
f 289//289 304//304 292//292 
f 657//657 647//647 298//298 
f 299//299 294//294 650//650 
f 654//654 295//295 293//293 
f 655//655 648//648 658//658 
f 649//649 220//220 295//295 
f 645//645 305//305 630//630 
f 665//665 216//216 215//215 
f 307//307 625//625 296//296 
f 303//303 660//660 626//626 
f 653//653 661//661 659//659 
f 303//303 216//216 665//665 
f 661//661 663//663 659//659 
f 660//660 303//303 662//662 
f 290//290 662//662 304//304 
f 303//303 304//304 662//662 
f 304//304 308//308 292//292 
f 303//303 308//308 304//304 
f 290//290 304//304 289//289 
f 646//646 306//306 305//305 
f 306//306 309//309 305//305 
f 664//664 292//292 310//310 
f 666//666 297//297 228//228 
f 666//666 228//228 312//312 
f 303//303 665//665 308//308 
f 308//308 665//665 669//669 
f 309//309 306//306 311//311 
f 292//292 308//308 667//667 
f 664//664 310//310 668//668 
f 667//667 308//308 313//313 
f 308//308 670//670 313//313 
f 310//310 671//671 668//668 
f 312//312 228//228 314//314 
f 317//317 312//312 314//314 
f 312//312 317//317 318//318 
f 668//668 316//316 315//315 
f 668//668 671//671 316//316 
f 319//319 315//315 316//316 
f 315//315 319//319 323//323 
f 313//313 670//670 676//676 
f 672//672 677//677 673//673 
f 674//674 678//678 320//320 
f 675//675 680//680 679//679 
f 318//318 317//317 324//324 
f 321//321 679//679 680//680 
f 324//324 317//317 238//238 
f 323//323 319//319 681//681 
f 238//238 632//632 326//326 
f 322//322 320//320 678//678 
f 682//682 322//322 678//678 
f 323//323 325//325 237//237 
f 320//320 322//322 373//373 
f 680//680 721//721 321//321 
f 323//323 681//681 374//374 
f 722//722 325//325 323//323 
f 632//632 325//325 326//326 
f 377//377 376//376 238//238 
f 377//377 238//238 326//326 
f 245//245 335//335 334//334 
f 634//634 637//637 695//695 
f 239//239 328//328 684//684 
f 328//328 239//239 241//241 
f 400//400 328//328 241//241 
f 742//742 635//635 329//329 
f 329//329 635//635 333//333 
f 686//686 693//693 332//332 
f 743//743 687//687 689//689 
f 409//409 330//330 331//331 
f 327//327 685//685 331//331 
f 331//331 685//685 402//402 
f 744//744 402//402 685//685 
f 335//335 636//636 242//242 
f 695//695 694//694 634//634 
f 332//332 693//693 399//399 
f 693//693 334//334 399//399 
f 331//331 402//402 409//409 
f 335//335 242//242 330//330 
f 411//411 335//335 330//330 
f 410//410 409//409 402//402 
f 336//336 337//337 494//494 
f 494//494 414//414 336//336 
f 341//341 337//337 336//336 
f 339//339 336//336 753//753 
f 415//415 418//418 340//340 
f 419//419 696//696 754//754 
f 696//696 419//419 697//697 
f 339//339 247//247 248//248 
f 248//248 341//341 336//336 
f 344//344 341//341 638//638 
f 336//336 339//339 248//248 
f 247//247 339//339 415//415 
f 337//337 341//341 344//344 
f 337//337 344//344 338//338 
f 338//338 344//344 256//256 
f 347//347 338//338 256//256 
f 338//338 347//347 342//342 
f 345//345 254//254 247//247 
f 340//340 247//247 415//415 
f 340//340 345//345 247//247 
f 697//697 419//419 350//350 
f 346//346 697//697 350//350 
f 349//349 346//346 698//698 
f 343//343 342//342 348//348 
f 343//343 348//348 349//349 
f 347//347 348//348 342//342 
f 343//343 349//349 698//698 
f 256//256 351//351 347//347 
f 351//351 348//348 347//347 
f 348//348 351//351 354//354 
f 346//346 349//349 352//352 
f 349//349 348//348 353//353 
f 352//352 257//257 639//639 
f 346//346 352//352 639//639 
f 348//348 354//354 353//353 
f 349//349 353//353 352//352 
f 352//352 353//353 257//257 
f 353//353 354//354 356//356 
f 351//351 355//355 354//354 
f 354//354 355//355 356//356 
f 257//257 353//353 356//356 
f 357//357 359//359 358//358 
f 361//361 705//705 699//699 
f 360//360 700//700 701//701 
f 361//361 699//699 427//427 
f 706//706 362//362 702//702 
f 710//710 707//707 363//363 
f 712//712 705//705 361//361 
f 421//421 703//703 711//711 
f 708//708 704//704 756//756 
f 422//422 710//710 363//363 
f 429//429 708//708 756//756 
f 713//713 709//709 423//423 
f 699//699 426//426 427//427 
f 360//360 760//760 700//700 
f 360//360 764//764 760//760 
f 364//364 457//457 716//716 
f 366//366 364//364 716//716 
f 462//462 715//715 717//717 
f 717//717 367//367 462//462 
f 369//369 465//465 467//467 
f 368//368 366//366 716//716 
f 367//367 717//717 720//720 
f 719//719 290//290 468//468 
f 792//792 290//290 289//289 
f 371//371 465//465 369//369 
f 467//467 370//370 369//369 
f 370//370 791//791 793//793 
f 793//793 289//289 370//370 
f 371//371 287//287 465//465 
f 371//371 369//369 372//372 
f 369//369 370//370 372//372 
f 370//370 289//289 372//372 
f 682//682 373//373 322//322 
f 321//321 721//721 375//375 
f 374//374 681//681 723//723 
f 238//238 376//376 324//324 
f 683//683 376//376 380//380 
f 380//380 376//376 384//384 
f 682//682 380//380 373//373 
f 326//326 378//378 377//377 
f 326//326 325//325 378//378 
f 722//722 379//379 325//325 
f 723//723 381//381 374//374 
f 724//724 379//379 722//722 
f 373//373 380//380 382//382 
f 721//721 725//725 375//375 
f 325//325 379//379 378//378 
f 378//378 379//379 386//386 
f 377//377 378//378 389//389 
f 378//378 386//386 389//389 
f 379//379 390//390 386//386 
f 383//383 376//376 377//377 
f 376//376 383//383 384//384 
f 388//388 380//380 384//384 
f 724//724 726//726 379//379 
f 381//381 723//723 391//391 
f 381//381 391//391 727//727 
f 728//728 375//375 725//725 
f 388//388 385//385 380//380 
f 380//380 385//385 382//382 
f 725//725 385//385 728//728 
f 377//377 389//389 383//383 
f 395//395 383//383 389//389 
f 383//383 387//387 384//384 
f 387//387 388//388 384//384 
f 387//387 383//383 732//732 
f 387//387 393//393 388//388 
f 385//385 388//388 393//393 
f 727//727 396//396 394//394 
f 727//727 391//391 396//396 
f 385//385 393//393 728//728 
f 389//389 392//392 395//395 
f 734//734 728//728 393//393 
f 389//389 386//386 392//392 
f 390//390 729//729 386//386 
f 392//392 690//690 395//395 
f 387//387 733//733 393//393 
f 392//392 730//730 691//691 
f 392//392 386//386 730//730 
f 394//394 396//396 398//398 
f 734//734 393//393 397//397 
f 393//393 733//733 735//735 
f 734//734 397//397 736//736 
f 737//737 692//692 731//731 
f 740//740 735//735 733//733 
f 395//395 690//690 741//741 
f 743//743 689//689 738//738 
f 397//397 406//406 736//736 
f 401//401 735//735 740//740 
f 401//401 403//403 735//735 
f 735//735 403//403 405//405 
f 405//405 406//406 735//735 
f 402//402 744//744 739//739 
f 406//406 745//745 736//736 
f 334//334 401//401 399//399 
f 408//408 401//401 334//334 
f 408//408 334//334 335//335 
f 401//401 404//404 403//403 
f 404//404 401//401 408//408 
f 404//404 407//407 403//403 
f 745//745 406//406 748//748 
f 403//403 407//407 405//405 
f 405//405 407//407 406//406 
f 748//748 406//406 471//471 
f 470//470 406//406 407//407 
f 470//470 471//471 406//406 
f 335//335 412//412 408//408 
f 335//335 411//411 412//412 
f 688//688 746//746 750//750 
f 407//407 472//472 470//470 
f 408//408 412//412 404//404 
f 472//472 407//407 404//404 
f 412//412 469//469 404//404 
f 750//750 746//746 413//413 
f 476//476 750//750 413//413 
f 476//476 412//412 411//411 
f 751//751 747//747 473//473 
f 753//753 415//415 339//339 
f 338//338 416//416 337//337 
f 337//337 416//416 494//494 
f 342//342 417//417 338//338 
f 338//338 417//417 416//416 
f 417//417 342//342 498//498 
f 755//755 499//499 420//420 
f 754//754 499//499 419//419 
f 420//420 498//498 342//342 
f 755//755 420//420 698//698 
f 698//698 420//420 343//343 
f 420//420 342//342 343//343 
f 421//421 711//711 758//758 
f 758//758 424//424 421//421 
f 424//424 765//765 757//757 
f 714//714 759//759 758//758 
f 709//709 431//431 423//423 
f 762//762 431//431 709//709 
f 759//759 425//425 758//758 
f 424//424 758//758 425//425 
f 759//759 768//768 425//425 
f 765//765 424//424 425//425 
f 764//764 432//432 760//760 
f 430//430 427//427 428//428 
f 428//428 427//427 426//426 
f 761//761 770//770 763//763 
f 502//502 432//432 764//764 
f 767//767 431//431 762//762 
f 501//501 425//425 768//768 
f 500//500 502//502 766//766 
f 425//425 501//501 803//803 
f 765//765 425//425 803//803 
f 431//431 767//767 435//435 
f 428//428 771//771 430//430 
f 770//770 434//434 763//763 
f 434//434 433//433 763//763 
f 428//428 433//433 771//771 
f 770//770 436//436 434//434 
f 772//772 804//804 769//769 
f 432//432 502//502 773//773 
f 438//438 771//771 433//433 
f 434//434 437//437 433//433 
f 507//507 804//804 772//772 
f 507//507 772//772 775//775 
f 434//434 436//436 774//774 
f 436//436 503//503 774//774 
f 433//433 437//437 438//438 
f 773//773 502//502 503//503 
f 510//510 507//507 775//775 
f 440//440 438//438 437//437 
f 439//439 440//440 437//437 
f 503//503 776//776 774//774 
f 775//775 777//777 510//510 
f 510//510 777//777 443//443 
f 439//439 446//446 450//450 
f 439//439 450//450 441//441 
f 441//441 440//440 439//439 
f 442//442 780//780 776//776 
f 776//776 503//503 442//442 
f 442//442 516//516 447//447 
f 779//779 443//443 778//778 
f 781//781 448//448 779//779 
f 448//448 443//443 779//779 
f 780//780 442//442 447//447 
f 444//444 510//510 443//443 
f 444//444 443//443 449//449 
f 449//449 445//445 444//444 
f 445//445 517//517 444//444 
f 447//447 456//456 780//780 
f 515//515 451//451 516//516 
f 447//447 516//516 451//451 
f 448//448 449//449 443//443 
f 450//450 456//456 787//787 
f 446//446 456//456 450//450 
f 447//447 458//458 456//456 
f 515//515 809//809 783//783 
f 447//447 451//451 454//454 
f 458//458 447//447 454//454 
f 452//452 781//781 715//715 
f 448//448 781//781 452//452 
f 364//364 782//782 457//457 
f 449//449 448//448 784//784 
f 453//453 449//449 784//784 
f 453//453 445//445 449//449 
f 785//785 455//455 445//445 
f 445//445 455//455 517//517 
f 809//809 786//786 783//783 
f 783//783 786//786 454//454 
f 454//454 786//786 459//459 
f 454//454 460//460 458//458 
f 454//454 459//459 460//460 
f 456//456 465//465 787//787 
f 456//456 458//458 465//465 
f 465//465 458//458 461//461 
f 458//458 460//460 788//788 
f 365//365 787//787 465//465 
f 452//452 715//715 462//462 
f 453//453 784//784 789//789 
f 463//463 453//453 789//789 
f 463//463 455//455 785//785 
f 789//789 719//719 463//463 
f 463//463 719//719 468//468 
f 468//468 464//464 463//463 
f 455//455 463//463 464//464 
f 786//786 790//790 459//459 
f 467//467 465//465 461//461 
f 791//791 466//466 793//793 
f 788//788 460//460 791//791 
f 466//466 460//460 459//459 
f 791//791 460//460 466//466 
f 790//790 793//793 466//466 
f 790//790 466//466 459//459 
f 404//404 469//469 472//472 
f 409//409 410//410 794//794 
f 471//471 470//470 475//475 
f 474//474 748//748 471//471 
f 474//474 471//471 475//475 
f 469//469 412//412 477//477 
f 478//478 469//469 477//477 
f 472//472 469//469 478//478 
f 475//475 472//472 478//478 
f 470//470 472//472 475//475 
f 795//795 473//473 749//749 
f 413//413 480//480 476//476 
f 476//476 796//796 412//412 
f 481//481 479//479 477//477 
f 477//477 479//479 478//478 
f 520//520 474//474 475//475 
f 478//478 519//519 475//475 
f 475//475 519//519 520//520 
f 795//795 518//518 473//473 
f 798//798 796//796 476//476 
f 476//476 480//480 798//798 
f 518//518 522//522 473//473 
f 752//752 482//482 797//797 
f 473//473 799//799 751//751 
f 799//799 473//473 522//522 
f 526//526 798//798 480//480 
f 483//483 797//797 482//482 
f 483//483 526//526 480//480 
f 526//526 483//483 484//484 
f 483//483 485//485 484//484 
f 485//485 486//486 484//484 
f 484//484 486//486 487//487 
f 538//538 486//486 485//485 
f 800//800 536//536 484//484 
f 800//800 491//491 536//536 
f 490//490 486//486 538//538 
f 489//489 487//487 488//488 
f 486//486 490//490 488//488 
f 490//490 493//493 488//488 
f 488//488 487//487 486//486 
f 491//491 800//800 489//489 
f 493//493 490//490 495//495 
f 495//495 801//801 544//544 
f 544//544 496//496 495//495 
f 488//488 493//493 492//492 
f 494//494 489//489 492//492 
f 494//494 491//491 489//489 
f 489//489 488//488 492//492 
f 493//493 753//753 492//492 
f 493//493 415//415 753//753 
f 495//495 415//415 493//493 
f 497//497 491//491 494//494 
f 492//492 414//414 494//494 
f 415//415 495//495 418//418 
f 496//496 418//418 495//495 
f 802//802 546//546 754//754 
f 497//497 494//494 416//416 
f 417//417 498//498 497//497 
f 498//498 420//420 499//499 
f 546//546 499//499 754//754 
f 416//416 417//417 497//497 
f 502//502 500//500 504//504 
f 504//504 500//500 505//505 
f 803//803 501//501 505//505 
f 507//507 506//506 804//804 
f 505//505 501//501 805//805 
f 503//503 502//502 504//504 
f 805//805 508//508 505//505 
f 513//513 507//507 807//807 
f 513//513 806//806 507//507 
f 509//509 505//505 508//508 
f 505//505 509//509 504//504 
f 506//506 507//507 806//806 
f 504//504 509//509 503//503 
f 509//509 508//508 512//512 
f 511//511 503//503 509//509 
f 511//511 509//509 512//512 
f 503//503 511//511 442//442 
f 508//508 808//808 512//512 
f 511//511 512//512 514//514 
f 514//514 512//512 515//515 
f 512//512 808//808 515//515 
f 511//511 514//514 442//442 
f 516//516 442//442 514//514 
f 516//516 514//514 515//515 
f 807//807 444//444 517//517 
f 807//807 517//517 513//513 
f 808//808 809//809 515//515 
f 518//518 474//474 520//520 
f 478//478 479//479 521//521 
f 519//519 478//478 521//521 
f 520//520 519//519 523//523 
f 523//523 524//524 520//520 
f 524//524 518//518 520//520 
f 519//519 521//521 523//523 
f 528//528 523//523 521//521 
f 521//521 479//479 527//527 
f 521//521 527//527 528//528 
f 524//524 522//522 518//518 
f 522//522 524//524 525//525 
f 528//528 529//529 523//523 
f 481//481 810//810 479//479 
f 532//532 528//528 527//527 
f 523//523 529//529 524//524 
f 482//482 530//530 483//483 
f 485//485 483//483 530//530 
f 525//525 524//524 534//534 
f 528//528 532//532 529//529 
f 532//532 537//537 529//529 
f 522//522 531//531 799//799 
f 811//811 799//799 531//531 
f 525//525 533//533 522//522 
f 533//533 531//531 522//522 
f 524//524 529//529 534//534 
f 810//810 527//527 479//479 
f 527//527 491//491 532//532 
f 530//530 538//538 485//485 
f 484//484 536//536 526//526 
f 527//527 810//810 536//536 
f 541//541 812//812 811//811 
f 531//531 541//541 811//811 
f 533//533 541//541 531//531 
f 539//539 541//541 533//533 
f 525//525 534//534 533//533 
f 534//534 540//540 539//539 
f 533//533 534//534 539//539 
f 540//540 534//534 535//535 
f 529//529 537//537 535//535 
f 529//529 535//535 534//534 
f 535//535 537//537 543//543 
f 543//543 540//540 535//535 
f 542//542 537//537 532//532 
f 491//491 542//542 532//532 
f 537//537 542//542 543//543 
f 540//540 543//543 545//545 
f 527//527 536//536 491//491 
f 497//497 542//542 491//491 
f 801//801 812//812 544//544 
f 541//541 544//544 812//812 
f 541//541 539//539 544//544 
f 543//543 542//542 545//545 
f 546//546 544//544 539//539 
f 540//540 545//545 546//546 
f 539//539 540//540 546//546 
f 545//545 542//542 497//497 
f 498//498 499//499 545//545 
f 802//802 544//544 546//546 
f 545//545 499//499 546//546 
f 545//545 497//497 498//498 
