#
# Compatibility version : 4.3
# File ID : FJ3993
# Representation ID : BP29147
# Build-up logic : FMA 3.0 is_a
# Concept ID : FMA52798
# English name : Right nasopalatine nerve
# Bounds(mm): (-21.187600,-169.365100,1479.047200)-(-0.840700,-127.717200,1502.616000)
# Volume(cm3): 0.008900
#
v -20.986 -128.157 1502.23
v -20.9861 -128.198 1502.4
v -20.9919 -128.154 1502.5
v -20.9993 -127.996 1502.15
v -20.9805 -127.844 1502.17
v -21.1743 -128.019 1502.35
v -21.1791 -127.916 1502.35
v -21.126 -128.11 1502.41
v -21.145 -128.004 1502.5
v -21.1506 -127.974 1502.25
v -21.1294 -127.875 1502.25
v -21.1501 -127.86 1502.45
v -21.0822 -128.104 1502.51
v -21.0746 -128.004 1502.57
v -21.0753 -127.904 1502.57
v -21.071 -127.808 1502.52
v -21.0732 -127.762 1502.34
v -21.0726 -127.762 1502.44
v -21.0231 -128.052 1502.58
v -21.0223 -127.951 1502.6
v -21.0153 -127.727 1502.39
v -20.9707 -127.999 1502.61
v -20.9741 -127.812 1502.56
v -20.975 -127.745 1502.48
v -20.8976 -128.064 1502.59
v -20.9277 -127.905 1502.61
v -20.8268 -127.788 1502.22
v -20.8445 -127.964 1502.6
v -20.8385 -127.867 1502.57
v -20.8233 -127.743 1502.37
v -20.816 -127.775 1502.47
v -20.7683 -128.265 1502.4
v -20.5162 -128.13 1502.5
v -20.2247 -128.394 1502.31
v -20.3913 -127.974 1502.4
v -19.7932 -128.625 1501.96
v -19.8694 -128.431 1501.76
v -19.7754 -128.258 1501.77
v -19.6915 -128.196 1501.82
v -20.0159 -128.173 1502.31
v -19.912 -128.279 1502.3
v -19.4849 -128.66 1501.66
v -19.5579 -128.527 1502.14
v -19.2782 -128.484 1502.06
v -19.022 -128.697 1501.42
v -18.9129 -128.86 1501.78
v -18.9852 -128.651 1501.93
v -19.2374 -128.31 1501.86
v -18.7109 -128.586 1501.78
v -18.549 -128.738 1501.75
v -18.4573 -128.906 1501.67
v -18.7138 -128.518 1501.43
v -18.0803 -128.723 1501.44
v -18.1698 -128.907 1501.57
v -18.0614 -128.82 1501.5
v -17.9523 -129.182 1501
v -18.0602 -129.052 1500.98
v -17.7165 -129.306 1501.08
v -17.9254 -128.942 1500.92
v -17.3276 -129.372 1501.02
v -17.5311 -129.066 1501.26
v -17.2617 -129.231 1501.11
v -17.4856 -128.937 1500.8
v -17.294 -128.945 1500.99
v -16.9687 -129.148 1500.94
v -16.6684 -129.546 1500.29
v -16.691 -129.628 1500.44
v -16.513 -129.275 1500.25
v -16.6589 -129.131 1500.56
v -16.5328 -129.503 1500.18
v -16.1369 -129.482 1500.52
v -16.3214 -129.456 1500.07
v -15.7667 -129.901 1499.86
v -15.8254 -129.875 1500.16
v -15.7788 -129.731 1500.29
v -15.5975 -129.985 1499.88
v -15.4968 -129.525 1499.79
v -15.4442 -129.779 1499.56
v -15.3743 -129.656 1500.06
v -15.3889 -129.558 1499.96
v -15.1536 -129.968 1499.39
v -14.9731 -129.803 1499.33
v -14.2558 -129.993 1498.94
v -14.2104 -130.178 1498.8
v -14.4179 -130.103 1499.5
v -14.1416 -130.101 1499.33
v -13.7794 -130.492 1498.56
v -13.7142 -130.482 1498.99
v -13.9773 -129.999 1499.01
v -13.8258 -130.087 1499.04
v -13.443 -130.672 1498.42
v -13.3778 -130.702 1498.63
v -12.8356 -130.489 1498.46
v -12.8431 -130.424 1498.12
v -12.6932 -130.449 1498.12
v -12.6019 -130.492 1498.19
v -12.0311 -131.196 1497.73
v -12.3756 -130.789 1498.19
v -12.0317 -131.218 1497.61
v -12.0271 -131.178 1497.45
v -11.9669 -131.075 1497.32
v -11.73 -130.993 1497.2
v -11.6737 -130.89 1497.28
v -11.6149 -130.865 1497.34
v -11.6144 -130.884 1497.57
v -11.4841 -130.906 1497.4
v -11.424 -131.056 1497.53
v -10.8758 -131.653 1496.94
v -11.07 -131.508 1497.18
v -10.6543 -131.767 1496.56
v -10.6284 -131.566 1496.38
v -10.6258 -131.426 1496.98
v -10.6201 -131.311 1496.91
v -10.726 -131.242 1496.68
v -10.407 -131.834 1496.3
v -9.6959 -132.206 1495.89
v -9.93163 -132.082 1496.22
v -10.087 -131.581 1496.13
v -10.0689 -131.498 1496.36
v -9.42725 -131.809 1495.99
v -9.7555 -131.934 1496.34
v -9.56534 -131.808 1496.18
v -9.15746 -132.465 1495.61
v -9.07906 -132.256 1495.26
v -8.93479 -132.451 1495.16
v -9.11674 -132.467 1495.39
v -9.25261 -132.328 1495.86
v -9.16229 -131.951 1495.57
v -8.52946 -132.444 1494.9
v -8.75894 -132.351 1495.63
v -8.79585 -132.107 1495.44
v -8.38156 -132.856 1495.08
v -8.16763 -132.831 1495.12
v -8.13636 -132.502 1495.09
v -7.87011 -133.13 1494.42
v -7.87221 -133.045 1494.36
v -7.88365 -133.163 1494.61
v -7.86811 -132.95 1494.35
v -7.81925 -132.691 1494.53
v -7.25595 -133.129 1493.98
v -7.44228 -132.859 1494.4
v -7.01499 -133.7 1493.84
v -7.21548 -133.519 1494.26
v -6.91381 -133.538 1494.2
v -7.24404 -133.257 1493.9
v -6.95054 -133.214 1493.88
v -6.89136 -133.327 1494.21
v -6.79086 -133.718 1493.53
v -6.65908 -133.707 1493.43
v -6.61544 -133.402 1493.72
v -6.82541 -133.257 1494.03
v -6.05125 -134.408 1493.21
v -6.34425 -133.84 1493.22
v -6.21964 -133.79 1493.23
v -6.18533 -133.767 1493.64
v -6.19229 -133.688 1493.51
v -5.68868 -134.527 1492.67
v -5.69735 -134.414 1492.69
v -6.03004 -134.388 1493.01
v -5.84092 -134.471 1493.25
v -5.82846 -134.002 1493.06
v -5.36125 -134.978 1492.52
v -5.33298 -135.008 1492.66
v -5.52227 -134.394 1492.65
v -5.37863 -134.339 1492.78
v -5.66024 -134.385 1493.26
v -5.47323 -134.418 1493.13
v -5.42492 -134.303 1492.98
v -4.83634 -135.475 1492.3
v -4.86848 -134.792 1492.39
v -4.98032 -134.74 1492.7
v -4.94925 -134.968 1492.72
v -4.90854 -134.753 1492.57
v -5.12432 -134.609 1492.48
v -4.5412 -169.284 1479.13
v -4.49716 -169.056 1479.2
v -4.52125 -169.19 1479.08
v -4.47445 -169.343 1479.14
v -4.47287 -169.286 1479.07
v -4.4692 -169.192 1479.05
v -4.44728 -169.078 1479.13
v -4.54924 -169.279 1479.23
v -4.51649 -169.165 1479.33
v -4.5556 -169.162 1479.2
v -4.52286 -169.324 1479.18
v -4.49217 -169.223 1479.33
v -4.47369 -169.342 1479.23
v -4.71764 -135.537 1491.93
v -4.64975 -135.69 1491.98
v -4.77409 -135.227 1491.98
v -4.63599 -135.207 1491.97
v -4.49605 -135.192 1492.03
v -4.85092 -135.174 1492.6
v -4.83057 -135.368 1492.46
v -4.38004 -169.337 1479.14
v -4.37681 -169.24 1479.06
v -4.3666 -169.117 1479.09
v -4.31023 -169.154 1479.12
v -4.42523 -169.361 1479.19
v -4.39204 -169.253 1479.35
v -4.36314 -169.312 1479.26
v -4.27357 -169.218 1479.24
v -4.20454 -168.676 1479.47
v -4.11441 -168.643 1479.53
v -4.05079 -168.676 1479.59
v -4.12139 -168.368 1480.1
v -4.16189 -168.284 1480
v -4.23022 -136.163 1491.63
v -4.24006 -136.159 1491.73
v -4.2894 -135.969 1492
v -4.23032 -135.906 1491.54
v -4.18819 -135.733 1491.59
v -4.32595 -135.77 1492.16
v -4.27486 -135.663 1492.18
v -4.29233 -135.359 1492.03
v -4.21985 -135.453 1492.05
v -3.98605 -168.314 1480.22
v -3.85204 -168.324 1480.05
v -3.88032 -168.308 1480.19
v -3.77452 -167.775 1480.32
v -3.6559 -167.865 1480.56
v -3.67681 -167.873 1480.37
v -3.82961 -167.687 1480.42
v -3.66131 -167.741 1480.43
v -3.65971 -167.41 1481.08
v -3.69327 -167.235 1481.12
v -3.9987 -136.377 1491.37
v -4.0067 -136.449 1491.48
v -3.96325 -136.346 1491.76
v -3.92936 -136.534 1491.54
v -3.8272 -136.324 1491.78
v -3.93805 -136.103 1491.35
v -3.86973 -136.056 1491.38
v -3.80469 -136.04 1491.8
v -3.69785 -136.058 1491.6
v -4.03858 -135.713 1491.65
v -3.61144 -167.536 1480.98
v -3.49397 -167.507 1480.84
v -3.61439 -166.991 1481.21
v -3.43286 -166.937 1481.15
v -3.34854 -167.111 1481.14
v -3.3805 -166.987 1481.14
v -3.27452 -166.341 1481.75
v -3.308 -166.274 1482.14
v -3.30845 -166.182 1482.08
v -3.29842 -137.488 1490.94
v -3.56505 -137.003 1491.04
v -3.45479 -136.892 1490.94
v -3.37182 -136.889 1490.91
v -3.61658 -136.96 1491.31
v -3.57657 -137.045 1491.12
v -3.50704 -136.922 1491.44
v -3.52143 -136.525 1491.1
v -3.53044 -136.335 1491.28
v -3.13475 -166.486 1481.7
v -3.21638 -166.307 1482.22
v -3.17499 -166.414 1482.13
v -3.07544 -166.089 1482.02
v -3.036 -166.372 1481.99
v -3.05559 -166.378 1482.07
v -2.99372 -166.201 1482.06
v -3.20123 -165.94 1482.24
v -2.86202 -165.637 1482.53
v -3.05179 -165.465 1482.84
v -2.9938 -165.326 1483.08
v -2.85139 -165.363 1483.22
v -2.87164 -165.106 1483.41
v -3.04544 -137.941 1490.71
v -3.05182 -137.83 1490.63
v -2.92251 -137.65 1490.56
v -3.18389 -137.547 1491.09
v -3.03683 -137.895 1490.89
v -2.93293 -137.918 1490.96
v -3.11811 -137.541 1491.13
v -3.11455 -137.473 1490.67
v -3.2878 -137.3 1490.79
v -3.08613 -137.443 1491.19
v -2.9796 -137.142 1491.14
v -3.16468 -137.058 1490.83
v -3.11946 -136.982 1490.91
v -3.17931 -137.034 1491.33
v -3.06924 -136.938 1491.09
v -2.73413 -165.54 1482.84
v -2.83563 -164.967 1483.2
v -2.6254 -165.147 1483.15
v -2.63296 -165.06 1483.52
v -2.50544 -164.83 1483.66
v -2.49108 -139.2 1490.38
v -2.5408 -138.996 1490.26
v -2.46918 -138.943 1490.17
v -2.48212 -138.407 1490.29
v -2.75044 -138.559 1490.51
v -2.74915 -138.397 1490.39
v -2.67592 -138.309 1490.34
v -2.49739 -137.967 1490.72
v -2.76501 -138.355 1490.76
v -2.72087 -138.113 1490.91
v -2.49859 -138.159 1490.81
v -2.6513 -137.868 1490.5
v -2.62888 -137.734 1490.65
v -2.35706 -164.365 1484.04
v -2.24848 -163.568 1485.06
v -2.2005 -163.703 1484.86
v -2.22544 -163.17 1484.97
v -2.08216 -163.378 1485.07
v -2.12809 -163.355 1484.9
v -2.34335 -163.353 1485.21
v -2.074 -163.135 1485.44
v -2.36177 -163.058 1485.26
v -2.07316 -162.518 1485.58
v -2.12827 -162.397 1485.72
v -2.06384 -161.809 1486.3
v -2.16588 -140.095 1490.27
v -2.22708 -139.835 1490.01
v -2.12157 -139.796 1489.94
v -2.26763 -139.892 1490.11
v -2.07701 -139.489 1489.99
v -2.10145 -139.212 1490.52
v -2.32841 -139.014 1490.11
v -2.22296 -138.93 1490.14
v -2.10072 -138.905 1490.26
v -2.08346 -139.053 1490.17
v -2.38128 -139.108 1490.57
v -2.26354 -139.099 1490.59
v -2.17148 -138.792 1490.54
v -2.28964 -138.504 1490.34
v -2.26634 -138.461 1490.44
v -2.02164 -162.549 1486.03
v -1.92544 -162.277 1485.83
v -1.85496 -162.412 1485.89
v -1.80351 -162.163 1486.21
v -2.0204 -161.961 1486.5
v -1.97241 -161.811 1486.21
v -1.77357 -161.696 1486.74
v -1.67536 -161.435 1486.66
v -2.02915 -161.557 1486.71
v -1.79145 -161.407 1487
v -1.91684 -160.945 1487.01
v -1.83751 -160.987 1486.88
v -1.72544 -160.971 1486.89
v -1.81967 -160.907 1487.35
v -1.67329 -160.876 1487.4
v -1.76418 -160.202 1487.48
v -1.83899 -160.403 1487.57
v -1.63299 -143.271 1489.85
v -1.75593 -142.346 1489.8
v -1.66947 -141.929 1489.65
v -1.80001 -141.862 1490.01
v -1.67283 -141.998 1490.09
v -1.89207 -141.429 1489.83
v -1.92389 -141.364 1489.93
v -1.99807 -140.945 1490.06
v -2.02019 -140.81 1489.92
v -1.68051 -141.021 1490.21
v -1.92306 -140.794 1489.8
v -1.82144 -140.758 1489.76
v -1.76991 -140.471 1489.81
v -1.9086 -140.84 1490.21
v -1.88276 -140.21 1489.85
v -1.77598 -140.229 1489.88
v -1.72431 -140.225 1489.93
v -2.02804 -140.098 1490.36
v -1.83933 -140.145 1490.33
v -1.65497 -140.324 1490.13
v -1.92551 -139.787 1489.94
v -1.87305 -139.74 1490
v -1.82302 -139.93 1490.31
v -1.76055 -139.93 1490.06
v -2.02524 -139.376 1490.05
v -1.96627 -139.285 1490.17
v -1.89254 -139.478 1490.28
v -2.03515 -139.033 1490.32
v -1.54776 -160.719 1487.42
v -1.46093 -160.299 1487.61
v -1.53664 -160.055 1487.56
v -1.45736 -160.1 1487.63
v -1.42142 -159.994 1487.87
v -1.58446 -160.111 1487.94
v -1.48238 -160.03 1487.95
v -1.62974 -159.617 1488.22
v -1.51865 -159.527 1488.3
v -1.34426 -159.173 1488.42
v -1.31828 -159.245 1488.26
v -1.52544 -158.676 1488.34
v -1.37708 -158.807 1488.28
v -1.25379 -158.634 1488.63
v -1.60399 -158.643 1488.66
v -1.5217 -158.625 1488.76
v -1.61824 -158.502 1488.57
v -1.3773 -158.422 1488.87
v -1.32544 -157.77 1488.73
v -1.47633 -157.687 1489.12
v -1.4218 -158.03 1489.04
v -1.47896 -157.511 1488.88
v -1.53493 -157.591 1489.03
v -1.37519 -157.324 1489.29
v -1.27689 -157.55 1489.22
v -1.46021 -156.487 1489.33
v -1.27815 -156.556 1489.53
v -1.32588 -156.181 1489.22
v -1.41561 -156.411 1489.46
v -1.31334 -155.29 1489.42
v -1.31527 -155.414 1489.73
v -1.34404 -154.836 1489.75
v -1.36099 -154.718 1489.63
v -1.27341 -153.483 1489.92
v -1.30315 -152.729 1489.83
v -1.26697 -150.584 1489.96
v -1.25331 -150.292 1489.74
v -1.29123 -150.243 1489.85
v -1.32689 -148.305 1489.8
v -1.31388 -148.392 1489.9
v -1.29164 -148.284 1489.7
v -1.38007 -146.92 1489.78
v -1.36466 -146.571 1489.66
v -1.38163 -146.255 1489.89
v -1.27898 -145.805 1489.54
v -1.34017 -145.551 1489.96
v -1.48722 -144.893 1489.82
v -1.38608 -143.956 1489.53
v -1.51919 -143.991 1489.62
v -1.61136 -143.404 1489.7
v -1.32753 -143.579 1489.53
v -1.47263 -143.084 1490.04
v -1.6263 -142.745 1489.64
v -1.47691 -142.558 1489.58
v -1.37533 -142.758 1489.58
v -1.32374 -142.584 1489.63
v -1.6294 -142.655 1490.01
v -1.49207 -142.114 1490.1
v -1.28856 -142.354 1489.95
v -1.41921 -141.969 1490.07
v -1.33987 -141.993 1489.76
v -1.36701 -141.671 1489.9
v -1.62516 -141.556 1489.66
v -1.51541 -141.665 1489.67
v -1.52372 -141.259 1489.75
v -1.62952 -141.091 1489.73
v -1.50864 -141.032 1490.07
v -1.49478 -140.979 1489.97
v -1.47311 -141.152 1489.87
v -1.54309 -141.073 1490.13
v -1.62349 -140.778 1489.81
v -1.57311 -140.661 1489.95
v -1.22993 -157.832 1489.07
v -1.15875 -157.649 1488.92
v -1.12491 -157.173 1489.24
v -1.07092 -156.491 1489.25
v -1.13041 -156.842 1489.39
v -1.05406 -156.545 1489.33
v -1.17544 -156.091 1489.23
v -1.1769 -156.442 1489.55
v -1.05514 -156.342 1489.46
v -1.06216 -155.936 1489.6
v -1.17644 -155.67 1489.73
v -0.993248 -155.513 1489.61
v -1.17396 -155.016 1489.42
v -1.02858 -154.902 1489.48
v -0.960515 -154.967 1489.59
v -1.17529 -154.861 1489.86
v -1.07834 -154.981 1489.83
v -0.972863 -154.709 1489.78
v -1.22323 -154.111 1489.93
v -1.07663 -154.245 1489.93
v -1.17377 -153.873 1489.56
v -0.975781 -153.672 1489.95
v -0.900509 -153.553 1489.83
v -1.12369 -153.641 1490
v -0.989037 -153.352 1489.62
v -1.02913 -153.508 1490
v -0.899329 -152.812 1489.73
v -1.22523 -152.52 1489.68
v -1.1205 -152.638 1489.63
v -1.17669 -152.483 1490.04
v -1.07556 -152.58 1490.06
v -0.978309 -152.468 1490.04
v -0.916563 -152.703 1489.98
v -0.982534 -152.049 1489.66
v -1.12699 -151.447 1490.08
v -1.0258 -151.503 1490.09
v -0.930115 -151.415 1490.04
v -0.846933 -151.361 1489.85
v -0.861964 -151.292 1489.95
v -1.13043 -150.992 1489.66
v -0.993914 -150.763 1489.66
v -0.926324 -150.936 1489.7
v -1.03537 -149.709 1490.08
v -1.17769 -149.255 1489.64
v -0.865128 -149.685 1489.76
v -0.905274 -148.598 1489.96
v -0.863124 -148.553 1489.81
v -1.22823 -147.953 1490.01
v -0.931178 -147.716 1489.67
v -0.940705 -146.469 1489.85
v -0.929854 -146.446 1489.75
v -1.07867 -146.1 1489.56
v -1.22777 -145.644 1490
v -1.05178 -144.957 1489.62
v -1.04921 -144.563 1489.85
v -1.03566 -144.539 1489.75
v -1.225 -144.411 1489.53
v -1.1281 -144.242 1489.93
v -1.12605 -143.746 1489.67
v -1.22752 -143.536 1489.58
v -1.13087 -143.455 1489.8
v -1.24755 -143.546 1489.99
v -20.9805 -127.844 1502.17
v -21.1743 -128.019 1502.35
v -21.1506 -127.974 1502.25
v -21.1294 -127.875 1502.25
v -21.1294 -127.875 1502.25
v -21.0732 -127.762 1502.34
v -19.8694 -128.431 1501.76
v -19.7754 -128.258 1501.77
v -19.6915 -128.196 1501.82
v -18.7138 -128.518 1501.43
v -17.9254 -128.942 1500.92
v -17.4856 -128.937 1500.8
v -7.21548 -133.519 1494.26
v -5.84092 -134.471 1493.25
v -4.52125 -169.19 1479.08
v -4.47445 -169.343 1479.14
v -4.38004 -169.337 1479.14
v -4.38004 -169.337 1479.14
v -4.37681 -169.24 1479.06
v -4.42523 -169.361 1479.19
v -4.42523 -169.361 1479.19
v -4.42523 -169.361 1479.19
v -4.27357 -169.218 1479.24
v -3.04544 -137.941 1490.71
v -2.34335 -163.353 1485.21
v -2.36177 -163.058 1485.26
v -2.36177 -163.058 1485.26
v -2.06384 -161.809 1486.3
v -2.0204 -161.961 1486.5
v -1.97241 -161.811 1486.21
v -2.02915 -161.557 1486.71
v -1.91684 -160.945 1487.01
v -1.83751 -160.987 1486.88
v -1.72544 -160.971 1486.89
v -1.67329 -160.876 1487.4
v -1.76418 -160.202 1487.48
v -1.76418 -160.202 1487.48
v -1.63299 -143.271 1489.85
v -1.53664 -160.055 1487.56
v -1.58446 -160.111 1487.94
v -1.52544 -158.676 1488.34
v -1.37708 -158.807 1488.28
v -1.32544 -157.77 1488.73
v -1.47896 -157.511 1488.88
v -1.46021 -156.487 1489.33
v -1.36099 -154.718 1489.63
v -1.36099 -154.718 1489.63
v -1.30315 -152.729 1489.83
v -1.25331 -150.292 1489.74
v -1.27898 -145.805 1489.54
v -1.15875 -157.649 1488.92
v -1.22523 -152.52 1489.68
v -1.17769 -149.255 1489.64
v -1.22777 -145.644 1490
vn -0.549962 -0.661531 -0.509821
vn -0.421843 -0.898894 0.118481
vn -0.215367 -0.764813 0.607188
vn -0.453477 -0.0478288 -0.889984
vn -0.365498 0.205479 -0.907849
vn -0.986393 -0.153262 0.0594873
vn -0.972581 0.220282 -0.0745768
vn -0.746047 -0.663275 0.0589896
vn -0.885361 -0.15082 0.439761
vn -0.647638 -0.334423 -0.684636
vn -0.526777 0.138313 -0.838675
vn -0.858573 0.415479 0.300383
vn -0.580127 -0.620291 0.527912
vn -0.589611 -0.200519 0.782401
vn -0.602573 0.238692 0.761533
vn -0.515075 0.613853 0.598233
vn -0.248579 0.812096 -0.527928
vn -0.55998 0.791448 0.245016
vn -0.302196 -0.436325 0.847525
vn -0.318116 0.0708466 0.945401
vn -0.167527 0.98351 -0.0681403
vn -0.0505877 -0.164606 0.985061
vn -0.0832469 0.580123 0.810264
vn -0.0760351 0.898126 0.433115
vn 0.0515626 -0.450947 0.89106
vn 0.0478067 0.240904 0.969371
vn 0.032823 0.874655 -0.483633
vn 0.256567 0.0251073 0.9662
vn 0.322093 0.467084 0.823461
vn 0.208436 0.977704 0.0254991
vn 0.322669 0.799485 0.506664
vn -0.204084 -0.898357 0.388978
vn 0.244222 -0.179447 0.952971
vn -0.0179477 -0.724103 0.689459
vn 0.438694 0.623731 0.646922
vn -0.321148 -0.946966 0.0109465
vn -0.443152 -0.415094 -0.794552
vn -0.333033 0.113796 -0.936023
vn -0.0267642 0.717872 -0.695661
vn 0.421354 0.386576 0.820378
vn 0.344766 0.0319561 0.938145
vn -0.472313 -0.562791 -0.678371
vn 0.20806 -0.396967 0.89394
vn 0.402973 0.125628 0.906549
vn -0.423385 -0.106748 -0.899639
vn -0.0321702 -0.825515 0.563463
vn 0.328593 -0.19469 0.924187
vn 0.382434 0.904403 0.189207
vn 0.471751 0.506826 0.721512
vn 0.435124 0.113245 0.89322
vn 0.214942 -0.512447 0.831383
vn 0.171927 0.9431 -0.284612
vn 0.480048 0.6806 0.553478
vn 0.387953 -0.132697 0.912077
vn 0.490549 0.327695 0.807451
vn -0.483984 -0.705847 -0.517243
vn -0.472733 -0.204283 -0.8572
vn -0.257468 -0.960215 0.108155
vn -0.149176 0.647398 -0.747411
vn 0.085107 -0.764396 0.639105
vn 0.468093 0.0589227 0.881713
vn 0.375722 -0.273698 0.885394
vn 0.110715 0.926189 -0.360439
vn 0.445544 0.823149 0.352017
vn 0.527665 0.435271 0.729458
vn -0.531257 -0.555772 -0.63944
vn -0.439563 -0.843975 -0.307393
vn -0.19616 0.650723 -0.73354
vn 0.256029 0.961204 -0.102646
vn -0.511853 -0.172729 -0.841529
vn 0.500981 0.0529632 0.863836
vn -0.413643 0.245676 -0.876666
vn -0.504974 -0.732902 -0.455912
vn -0.00371785 -0.875303 0.48356
vn 0.316666 -0.475449 0.820774
vn -0.318538 -0.947687 -0.0205444
vn 0.0406467 0.901743 -0.430357
vn -0.4669 0.156192 -0.870407
vn 0.556691 0.407791 0.723741
vn 0.475266 0.792416 0.38236
vn -0.556895 -0.271216 -0.785054
vn -0.278322 0.562307 -0.778683
vn -0.202871 0.691625 -0.693179
vn -0.483929 0.16788 -0.858853
vn 0.485143 -0.131461 0.864497
vn 0.574866 0.257739 0.776595
vn -0.593388 -0.431535 -0.679461
vn 0.26684 -0.607118 0.748468
vn 0.350134 0.934974 0.0568383
vn 0.537765 0.688365 0.486788
vn -0.49174 -0.807265 -0.326367
vn -0.152778 -0.946823 0.283168
vn 0.597833 0.466187 0.652124
vn 0.0492775 0.905818 -0.420792
vn 0.272483 0.955867 -0.109873
vn 0.482434 0.832129 0.27353
vn -0.132269 -0.934634 0.330097
vn 0.531974 -0.0823746 0.842745
vn -0.358274 -0.933613 0.00251796
vn -0.568606 -0.696854 -0.437129
vn -0.600102 -0.181142 -0.779144
vn -0.393237 0.425145 -0.81524
vn -0.0746388 0.814863 -0.574829
vn 0.213861 0.948418 -0.234022
vn 0.576266 0.676573 0.458439
vn 0.439864 0.889589 0.123093
vn 0.61987 0.339927 0.707256
vn -0.211602 -0.940268 0.266683
vn 0.108491 -0.784163 0.610997
vn -0.474864 -0.866757 -0.152434
vn -0.600715 -0.0596347 -0.797236
vn 0.608717 0.11839 0.784505
vn 0.606517 0.641706 0.469416
vn 0.12902 0.917324 -0.376657
vn -0.629159 -0.577002 -0.520796
vn -0.461865 -0.885027 -0.0583847
vn -0.252564 -0.935572 0.246813
vn -0.118229 0.75649 -0.64323
vn 0.398893 0.916924 -0.011648
vn 0.582676 0.753078 0.305552
vn 0.41168 -0.391078 0.823151
vn 0.657186 0.424609 0.622747
vn -0.266368 -0.92589 0.26791
vn -0.524155 0.177027 -0.83302
vn -0.661982 -0.281171 -0.694783
vn -0.589037 -0.764678 -0.261349
vn 0.019216 -0.823728 0.56666
vn 0.140108 0.899215 -0.414465
vn -0.275155 0.568658 -0.775189
vn 0.585328 -0.0280047 0.810313
vn 0.443976 0.895507 -0.030858
vn -0.280013 -0.915766 0.288037
vn 0.200523 -0.638786 0.742794
vn 0.666884 0.594319 0.449499
vn -0.678891 -0.589105 -0.438249
vn -0.675904 -0.257781 -0.690437
vn -0.485813 -0.873354 0.0351901
vn -0.56646 0.092885 -0.818838
vn 0.131935 0.867187 -0.480187
vn -0.142599 0.659107 -0.738406
vn 0.468147 0.880084 -0.0793123
vn -0.640097 -0.747574 -0.177225
vn 0.0673288 -0.719496 0.691225
vn 0.339385 -0.444896 0.828786
vn -0.398862 0.377077 -0.835896
vn 0.185559 0.854428 -0.485306
vn 0.666239 0.189063 0.721374
vn -0.696672 -0.277397 -0.661588
vn -0.537915 0.142678 -0.830837
vn 0.40807 0.875776 -0.257867
vn 0.657421 0.708651 0.256149
vn -0.549886 -0.823625 0.138806
vn -0.290936 0.474805 -0.830612
vn 0.0446086 0.75164 -0.658063
vn 0.730407 0.461245 0.503744
vn 0.62047 0.782768 0.0478795
vn -0.67144 -0.120146 -0.731254
vn -0.428593 0.281821 -0.85842
vn -0.738016 -0.530567 -0.41693
vn 0.159057 -0.575469 0.802207
vn 0.318543 0.838769 -0.441585
vn -0.760095 -0.579942 -0.293126
vn -0.574796 -0.79422 0.197037
vn -0.0771284 0.620194 -0.780648
vn 0.561622 0.811769 -0.160038
vn 0.435516 -0.275277 0.857058
vn 0.670949 0.111869 0.733016
vn 0.72602 0.637643 0.257501
vn -0.527074 -0.774532 0.349705
vn 0.58243 0.785414 -0.209525
vn 0.75992 0.375377 0.530674
vn 0.535941 -0.128384 0.834437
vn 0.738631 0.654376 0.161911
vn 0.279761 0.784901 -0.552869
vn -0.843769 -0.385126 -0.373808
vn -0.718372 0.586023 -0.374857
vn -0.737237 0.441218 -0.511672
vn -0.479586 -0.84578 -0.233782
vn -0.27332 -0.485199 -0.830589
vn -0.181488 0.221751 -0.958065
vn -0.310862 0.649525 -0.693889
vn -0.867724 -0.388665 0.309829
vn -0.886419 -0.0667752 0.458042
vn -0.980487 0.192297 -0.0408187
vn -0.655773 -0.754797 -0.0156055
vn -0.523638 -0.48853 0.697955
vn -0.300843 -0.855622 0.421194
vn -0.779208 -0.342563 -0.524867
vn -0.761941 -0.637532 -0.114013
vn -0.3492 0.335371 -0.874978
vn 0.0614366 0.644837 -0.761847
vn 0.430648 0.770764 -0.469537
vn 0.242646 -0.449197 0.859852
vn -0.213318 -0.741315 0.636355
vn 0.0925118 -0.782086 -0.616265
vn 0.239762 -0.101967 -0.965462
vn 0.267099 0.449286 -0.852526
vn 0.758281 0.0719938 -0.647941
vn -0.346446 -0.938053 0.00563949
vn 0.0174227 -0.723067 0.690558
vn 0.455227 -0.810118 0.369427
vn 0.88638 -0.272944 -0.37394
vn 0.0576111 0.657382 -0.751352
vn 0.54773 0.414802 -0.726589
vn 0.882724 0.0207329 -0.469435
vn -0.7344 -0.266191 0.624339
vn -0.936106 0.343744 0.0744656
vn -0.81412 -0.530362 -0.236483
vn -0.709167 -0.69167 0.136657
vn -0.350985 -0.720038 0.598627
vn -0.539571 0.100313 -0.835943
vn -0.08029 0.518665 -0.851199
vn 0.0759309 -0.529495 0.844908
vn 0.506484 -0.156709 0.847889
vn 0.704287 0.705831 -0.0760438
vn 0.801993 0.499344 0.327815
vn -0.14858 -0.646807 0.748041
vn 0.920313 -0.389732 -0.0336475
vn 0.538041 -0.69763 0.473101
vn 0.292357 0.594549 -0.749025
vn 0.800369 -0.559477 0.215394
vn 0.930183 -0.0581114 -0.362467
vn -0.415473 0.716436 -0.560448
vn 0.734489 0.278736 -0.618734
vn -0.477023 -0.518884 0.709372
vn -0.933626 0.0204493 0.357666
vn -0.805034 -0.312417 -0.504298
vn -0.819512 -0.560058 -0.12139
vn -0.28442 -0.654268 0.700741
vn -0.667866 -0.68576 0.28929
vn 0.250906 -0.363951 0.896987
vn -0.20766 0.384987 -0.899257
vn 0.167717 0.613372 -0.771781
vn 0.722825 0.159773 0.672307
vn 0.809785 0.580038 0.0883368
vn 0.448255 0.730333 -0.515443
vn 0.144209 -0.728363 0.669844
vn 0.932863 -0.3586 -0.03425
vn -0.867853 0.477951 -0.135624
vn 0.151954 0.667539 -0.728905
vn 0.924205 0.00565969 -0.381856
vn 0.622605 0.411653 -0.665511
vn -0.227472 0.736316 -0.637256
vn -0.875708 -0.153454 0.457807
vn -0.95321 0.297825 0.0518697
vn -0.84618 -0.529036 0.0640402
vn -0.822837 -0.291571 -0.487777
vn -0.416905 0.188923 -0.8891
vn -0.165131 0.35673 -0.919497
vn -0.661366 -0.650523 0.373382
vn -0.850454 -0.51154 -0.122695
vn -0.157843 -0.536467 0.829029
vn 0.15364 0.55713 -0.816089
vn 0.561296 0.681485 -0.469601
vn 0.784603 0.269917 -0.55816
vn -0.46833 -0.549008 0.692284
vn 0.0756527 -0.730865 0.678316
vn 0.293992 0.627789 -0.720729
vn 0.948297 -0.313337 -0.0505281
vn 0.696287 -0.625462 0.35211
vn 0.931491 0.0303718 -0.362495
vn -0.734069 0.599226 -0.319486
vn 0.694063 0.388916 -0.605822
vn -0.906034 0.41712 -0.0715035
vn -0.972555 0.122231 0.197979
vn -0.22281 -0.663979 0.713784
vn -0.72032 -0.370931 0.586131
vn -0.844318 -0.507951 0.170627
vn -0.830108 -0.25431 -0.496233
vn -0.0789053 0.340089 -0.937077
vn -0.568328 -0.594938 0.568377
vn -0.734713 -0.545366 0.403451
vn -0.401972 -0.528484 0.747746
vn -0.246655 -0.513138 0.822101
vn -0.476471 0.109708 -0.872318
vn -0.656954 -0.0536137 -0.752022
vn 0.068581 -0.366126 0.928035
vn 0.829125 0.291942 0.476783
vn 0.169655 0.499843 -0.849338
vn 0.527751 0.611758 -0.589263
vn 0.434012 -0.155024 0.887469
vn 0.830426 0.554041 -0.0585743
vn 0.958989 -0.278956 -0.0502289
vn -0.632241 0.649891 -0.421797
vn 0.915224 0.102113 -0.389793
vn 0.418239 -0.714891 0.560364
vn 0.828296 -0.508132 0.236067
vn -0.89263 -0.386368 0.232232
vn -0.885326 -0.213905 -0.412846
vn -0.577119 0.00580944 -0.81664
vn 0.142858 0.366096 -0.919546
vn -0.917291 -0.391814 -0.0711262
vn -0.750597 -0.112564 -0.651101
vn -0.362498 0.149828 -0.919862
vn 0.901697 0.369734 0.22414
vn -0.60203 -0.493807 0.627467
vn 0.0261411 -0.337938 0.940805
vn 0.675448 0.0602515 0.734942
vn 0.39851 0.503621 -0.766522
vn 0.768631 0.538767 -0.344872
vn 0.975163 -0.206457 -0.0802001
vn 0.103663 -0.713179 0.693275
vn 0.710004 -0.58651 0.389744
vn -0.00316519 0.692188 -0.72171
vn 0.955282 -0.291004 0.0524739
vn 0.819387 0.268848 -0.506286
vn -0.887582 -0.181385 0.423435
vn 0.616867 -0.610235 0.49708
vn -0.922262 -0.122579 0.366616
vn 5.63242e-05 0.674363 -0.7384
vn -0.461851 0.641021 -0.613014
vn -0.962704 0.255724 -0.0883554
vn -0.759632 -0.322802 0.564587
vn -0.752795 -0.0892946 -0.65217
vn -0.32312 0.09539 -0.941538
vn -0.961056 -0.254882 -0.106799
vn 0.125723 0.255809 -0.958517
vn 0.539808 -0.0247989 0.841423
vn -0.146493 0.207621 -0.967178
vn 0.329214 0.36609 -0.8704
vn 0.833703 0.416081 -0.363065
vn 0.656655 0.403445 -0.63721
vn -0.438462 -0.379759 0.814576
vn 0.125198 -0.209336 0.969796
vn 0.867109 0.215903 0.448897
vn 0.634132 0.469685 -0.614226
vn 0.899321 0.424731 -0.104046
vn 0.134874 -0.679185 0.721469
vn 0.401852 0.557028 -0.726798
vn 0.98438 -0.0792903 -0.157193
vn 0.901228 -0.374847 0.217436
vn -0.80252 -0.283675 0.524872
vn -0.453399 0.628505 -0.631989
vn 0.563809 -0.587268 0.58072
vn 0.880825 0.183179 -0.43657
vn -0.843556 -0.23795 0.481448
vn -0.0124697 -0.627075 0.778859
vn -0.630511 0.532194 -0.565001
vn -0.604151 0.548708 -0.577859
vn -0.0647253 0.620675 -0.781392
vn -0.504829 -0.455269 0.733401
vn 0.509372 -0.56129 0.652299
vn -0.654717 0.497768 -0.568835
vn -0.983977 0.0310402 0.175575
vn -0.993212 -0.116302 -0.00196822
vn -0.982088 -0.143234 -0.122425
vn -0.359193 0.0217063 -0.933011
vn -0.824782 -0.183216 0.534945
vn -0.43389 -0.142952 0.889553
vn -0.89745 -0.116945 -0.425332
vn -0.979731 -0.161685 -0.118254
vn -0.940167 -0.231376 0.250102
vn -0.925527 -0.157573 -0.344341
vn 0.231218 -0.0822416 0.96942
vn -0.6159 -0.0240234 -0.787458
vn -0.120646 0.112373 -0.986315
vn 0.307505 0.213234 -0.927347
vn -0.465128 -0.21513 0.858705
vn 0.125315 0.208467 -0.969968
vn 0.507344 0.272721 -0.817451
vn 0.77198 0.289686 -0.565799
vn -0.182523 -0.238852 0.953748
vn 0.401027 -0.0655915 0.913715
vn 0.957131 0.211669 0.197727
vn 0.392897 0.287841 -0.873372
vn 0.688838 0.332907 -0.643953
vn 0.777818 0.100526 0.620398
vn 0.922372 0.303985 -0.238374
vn 0.528327 0.351593 -0.772822
vn 0.856976 0.360852 -0.367937
vn 0.948622 0.256742 0.18493
vn 0.939438 0.342651 0.00689499
vn 0.8247 -0.418029 0.380949
vn 0.990195 -0.134463 -0.0378667
vn 0.669646 0.340668 -0.659939
vn 0.887349 0.15711 -0.433506
vn 0.908701 -0.30581 0.284152
vn -0.235066 -0.515405 0.824076
vn 0.587818 -0.492429 0.641859
vn -0.536481 -0.385955 0.750484
vn 0.132592 -0.497675 0.857169
vn 0.725535 -0.386409 0.569462
vn 0.992825 -0.0704395 -0.0966295
vn -0.0241847 0.4511 -0.892146
vn 0.783935 0.214319 -0.582678
vn 0.936724 -0.220867 0.271599
vn -0.877079 -0.137979 0.460103
vn -0.424533 -0.361103 0.830287
vn -0.951121 0.211609 -0.224924
vn 0.229228 -0.427689 0.874378
vn -0.183302 0.349066 -0.918996
vn -0.707554 -0.193773 0.679573
vn -0.225431 -0.345976 0.910759
vn -0.899353 0.212657 -0.382023
vn -0.987063 0.025391 0.158307
vn -0.348045 -0.261943 0.900139
vn 0.236984 -0.333518 0.912472
vn -0.876782 0.170177 -0.449769
vn -0.202684 -0.232346 0.95128
vn -0.540273 0.222319 -0.81159
vn -0.829805 -0.0870772 0.551218
vn -0.621213 0.155833 -0.767991
vn -0.538723 -0.124338 0.833257
vn -0.893379 -0.0238913 0.448669
vn -0.759217 0.120344 -0.639614
vn -0.820269 -0.0192459 0.571654
vn -0.967918 0.00486048 0.251218
vn -0.85831 -0.00359545 0.513119
vn -0.923401 -0.00534625 -0.3838
vn -0.995975 -0.0127102 -0.0887261
vn -0.988456 -0.0339912 -0.147643
vn -0.949165 -0.0205693 0.314108
vn -0.823939 -0.0369868 -0.56547
vn -0.99889 -0.0470857 -0.00136147
vn -0.861238 -0.0502259 -0.505714
vn -0.862987 -0.0316717 0.504232
vn -0.618799 -0.042274 -0.784411
vn -0.662034 -0.041555 0.748321
vn -0.981645 -0.0733075 0.176064
vn -0.261695 -0.00419285 -0.965142
vn -0.867507 -0.065584 -0.493083
vn -0.950413 -0.0945803 -0.296259
vn 0.138618 0.0427669 -0.989422
vn -0.326495 -0.0851158 0.941359
vn -0.717186 -0.0568757 -0.694557
vn -0.0153664 0.0618929 -0.997965
vn 0.334313 0.0962119 -0.937538
vn 0.6785 0.13416 -0.722246
vn -0.652225 -0.158358 0.7413
vn 0.0965155 -0.0668917 0.993081
vn 0.884988 0.0917999 0.456475
vn 0.58453 0.0244438 0.811004
vn 0.878576 0.164085 -0.448531
vn 0.987286 0.156612 0.027195
vn 0.0222546 0.103923 -0.994336
vn 0.435539 0.147375 -0.888024
vn 0.676921 0.201379 -0.707972
vn 0.328474 0.181702 -0.926871
vn 0.90888 0.135936 0.394282
vn 0.979148 0.20154 0.0255233
vn 0.905727 0.218381 -0.363275
vn 0.688337 0.0466091 0.723892
vn 0.672315 0.246614 -0.697978
vn 0.92516 0.257738 -0.278658
vn 0.663766 -0.331814 0.670308
vn 0.722295 0.177259 -0.668483
vn 0.927595 -0.188834 0.322349
vn 0.856261 0.0544162 -0.513668
vn 0.66749 -0.255602 0.699374
vn 0.996616 -0.0807025 0.0156178
vn 0.362952 0.183814 -0.913498
vn 0.346089 -0.254713 0.902964
vn 0.899325 -0.164324 0.405231
vn 0.680127 -0.185887 0.709136
vn 0.0891738 -0.197152 0.976309
vn 0.954819 -0.104386 0.278253
vn -0.03453 0.14966 -0.988134
vn 0.610788 0.0808998 -0.787651
vn 0.987805 -0.025289 -0.153627
vn -0.112833 -0.137944 0.983992
vn 0.436852 -0.1583 0.885495
vn 0.835979 -0.108718 0.537884
vn -0.463257 -0.077336 0.882843
vn 0.268202 -0.118693 0.956023
vn -0.285134 0.0901356 -0.95424
vn 0.683764 -0.085716 0.724652
vn 0.980525 -0.0459473 0.190942
vn -0.105247 -0.0769898 0.991461
vn 0.394811 0.0643184 -0.916508
vn 0.319302 -0.0788742 0.944365
vn 0.84321 0.00386139 -0.537571
vn -0.483946 0.039082 -0.874225
vn -0.132717 0.0333752 -0.990592
vn -0.490682 -0.0290363 0.870855
vn 0.0038878 -0.0425953 0.999085
vn 0.470731 -0.0458574 0.881084
vn 0.808166 -0.043892 0.587317
vn 0.391839 0.0178809 -0.91986
vn -0.334333 -0.00473001 0.942443
vn 0.18992 -0.0120838 0.981725
vn 0.63689 -0.00555161 0.770934
vn 0.998384 -0.0088973 -0.0561234
vn 0.937881 -0.00765693 0.346873
vn -0.338293 0.00367331 -0.941034
vn 0.19721 -0.00745686 -0.980333
vn 0.609703 -0.00313418 -0.792624
vn 0.176409 0.0172014 0.984167
vn -0.658003 -0.0321165 -0.75233
vn 0.900567 0.00119556 -0.434716
vn 0.79746 0.0262211 0.602801
vn 0.999828 0.0185077 0.000880917
vn -0.569019 -0.0041113 0.822314
vn 0.776421 0.00965897 -0.630141
vn 0.946195 0.0460349 0.320307
vn 0.982095 0.0399046 -0.18411
vn 0.401305 0.00235021 -0.915941
vn -0.329312 -0.0136482 0.944122
vn 0.792437 0.0474418 -0.608106
vn 0.931743 0.0685933 0.356581
vn 0.995148 0.0696215 -0.0695266
vn 0.259186 0.0187791 -0.965645
vn 0.690385 0.0466521 0.721936
vn 0.897004 0.103958 -0.429623
vn 0.573101 0.0771352 -0.815846
vn 0.989274 0.107154 0.0992676
vn 0.357701 -0.00460513 0.933825
vn -0.215026 0.744411 -0.632152
vn -0.69401 -0.591126 -0.410999
vn -0.946706 0.0582924 -0.316782
vn -0.885984 0.366497 -0.284098
vn -0.439182 0.680109 -0.587001
vn -0.750001 0.658568 -0.0615446
vn -0.293567 0.167451 -0.941158
vn -0.0313553 0.684432 -0.728402
vn 0.251801 0.946755 -0.200627
vn -0.116223 0.666933 -0.735998
vn -0.446942 0.014893 -0.894439
vn -0.182432 0.644215 -0.742769
vn -0.412959 -0.884861 0.215606
vn -0.33119 -0.839226 0.431293
vn -0.584737 -0.202603 -0.785515
vn 0.036493 -0.849618 -0.526134
vn 0.818551 -0.372595 -0.437204
vn 0.637599 -0.766914 0.0728711
vn 0.823608 -0.354944 -0.442363
vn 0.0428661 -0.916373 -0.398024
vn 0.537658 -0.837069 0.101187
vn 0.129503 -0.876201 0.46422
vn 0.751979 -0.631478 0.189112
vn -0.881502 -0.306783 -0.358941
vn -0.361139 -0.600076 0.713784
vn -0.679419 0.581858 -0.447024
vn -0.940069 0.320445 -0.116554
vn -0.579959 0.587792 -0.564046
vn -0.286601 -0.590484 0.754445
vn 0.059241 0.635742 -0.769625
vn -0.964604 0.253257 -0.0734823
vn -0.952736 0.273842 -0.131545
vn -0.0564763 0.623718 -0.779607
vn 0.647434 0.388357 -0.65575
vn -0.158511 -0.563809 0.810551
vn -0.879936 0.331962 -0.339874
vn -0.0749588 0.571106 -0.817447
vn -0.759746 -0.125063 0.638079
vn -0.0185548 0.532539 -0.846202
vn 0.386796 -0.53695 0.749716
vn -0.742918 0.359772 -0.564479
vn 0.0613507 0.441167 -0.895325
vn 0.683884 0.206039 -0.699893
vn -0.30039 0.348727 -0.887781
vn -0.950589 -0.0100185 0.310291
vn -0.977296 0.0095286 0.211665
vn -0.912964 0.0655837 -0.402735
vn -0.912423 0.0251275 -0.408476
vn -0.593432 -0.0126357 -0.804785
vn -0.0359996 -0.0194428 -0.999163
vn 0.995985 -0.0874924 -0.0189396
vn -0.896961 0.0337942 -0.440815
vn -0.0856785 -0.0216554 -0.996087
vn 0.32951 0.0146468 0.944039
g grp1
usemtl mtl1
f 4//4 37//37 1//1 
f 2//2 8//8 1//1 
f 2//2 1//1 36//36 
f 3//3 13//13 2//2 
f 32//32 3//3 2//2 
f 36//36 32//32 2//2 
f 11//11 5//5 4//4 
f 4//4 10//10 11//11 
f 5//5 38//38 4//4 
f 38//38 513//513 4//4 
f 507//507 27//27 514//514 
f 509//509 6//6 7//7 
f 1//1 8//8 508//508 
f 8//8 9//9 6//6 
f 6//6 9//9 7//7 
f 10//10 4//4 1//1 
f 1//1 508//508 10//10 
f 7//7 9//9 12//12 
f 9//9 15//15 12//12 
f 7//7 510//510 509//509 
f 12//12 15//15 16//16 
f 507//507 511//511 17//17 
f 512//512 510//510 7//7 
f 7//7 12//12 512//512 
f 512//512 12//12 18//18 
f 12//12 16//16 18//18 
f 13//13 8//8 2//2 
f 9//9 8//8 13//13 
f 13//13 14//14 9//9 
f 9//9 14//14 15//15 
f 19//19 13//13 3//3 
f 14//14 13//13 19//19 
f 19//19 20//20 14//14 
f 15//15 14//14 20//20 
f 20//20 23//23 15//15 
f 16//16 15//15 23//23 
f 507//507 17//17 27//27 
f 16//16 24//24 18//18 
f 27//27 17//17 21//21 
f 512//512 18//18 21//21 
f 18//18 24//24 21//21 
f 22//22 20//20 19//19 
f 22//22 26//26 20//20 
f 23//23 20//20 26//26 
f 23//23 24//24 16//16 
f 25//25 19//19 3//3 
f 25//25 22//22 19//19 
f 25//25 28//28 22//22 
f 28//28 26//26 22//22 
f 23//23 29//29 31//31 
f 26//26 29//29 23//23 
f 31//31 24//24 23//23 
f 29//29 26//26 28//28 
f 30//30 48//48 27//27 
f 30//30 24//24 31//31 
f 27//27 21//21 30//30 
f 24//24 30//30 21//21 
f 42//42 36//36 1//1 
f 34//34 3//3 32//32 
f 36//36 34//34 32//32 
f 3//3 34//34 25//25 
f 33//33 25//25 34//34 
f 40//40 35//35 29//29 
f 40//40 29//29 28//28 
f 35//35 31//31 29//29 
f 31//31 48//48 30//30 
f 31//31 35//35 48//48 
f 25//25 33//33 28//28 
f 33//33 40//40 28//28 
f 41//41 40//40 33//33 
f 34//34 43//43 33//33 
f 43//43 41//41 33//33 
f 42//42 1//1 37//37 
f 38//38 45//45 513//513 
f 48//48 35//35 40//40 
f 44//44 41//41 43//43 
f 40//40 41//41 44//44 
f 27//27 39//39 514//514 
f 515//515 27//27 48//48 
f 46//46 34//34 36//36 
f 43//43 34//34 46//46 
f 37//37 45//45 42//42 
f 43//43 47//47 44//44 
f 49//49 48//48 40//40 
f 49//49 40//40 44//44 
f 45//45 57//57 42//42 
f 38//38 57//57 45//45 
f 43//43 46//46 51//51 
f 43//43 51//51 47//47 
f 49//49 44//44 50//50 
f 50//50 44//44 47//47 
f 48//48 52//52 515//515 
f 36//36 58//58 46//46 
f 46//46 60//60 51//51 
f 514//514 39//39 59//59 
f 39//39 516//516 59//59 
f 57//57 38//38 517//517 
f 48//48 49//49 53//53 
f 69//69 52//52 48//48 
f 48//48 53//53 64//64 
f 56//56 42//42 57//57 
f 36//36 42//42 56//56 
f 55//55 65//65 53//53 
f 51//51 54//54 47//47 
f 54//54 50//50 47//47 
f 50//50 55//55 49//49 
f 53//53 49//49 55//55 
f 64//64 69//69 48//48 
f 36//36 56//56 58//58 
f 58//58 56//56 67//67 
f 62//62 54//54 51//51 
f 58//58 60//60 46//46 
f 62//62 61//61 54//54 
f 54//54 61//61 55//55 
f 63//63 52//52 69//69 
f 59//59 516//516 518//518 
f 55//55 50//50 54//54 
f 517//517 70//70 57//57 
f 56//56 57//57 70//70 
f 66//66 56//56 70//70 
f 60//60 62//62 51//51 
f 65//65 55//55 61//61 
f 62//62 65//65 61//61 
f 68//68 59//59 518//518 
f 68//68 518//518 77//77 
f 63//63 69//69 77//77 
f 65//65 64//64 53//53 
f 67//67 56//56 66//66 
f 70//70 81//81 66//66 
f 73//73 66//66 81//81 
f 76//76 58//58 67//67 
f 67//67 66//66 73//73 
f 75//75 62//62 60//60 
f 72//72 59//59 68//68 
f 70//70 517//517 72//72 
f 70//70 72//72 81//81 
f 58//58 74//74 60//60 
f 75//75 71//71 62//62 
f 65//65 71//71 79//79 
f 62//62 71//71 65//65 
f 60//60 74//74 75//75 
f 71//71 85//85 79//79 
f 75//75 85//85 71//71 
f 79//79 80//80 65//65 
f 80//80 64//64 65//65 
f 73//73 76//76 67//67 
f 74//74 58//58 76//76 
f 72//72 78//78 81//81 
f 82//82 78//78 72//72 
f 75//75 74//74 88//88 
f 82//82 72//72 68//68 
f 73//73 91//91 76//76 
f 77//77 82//82 68//68 
f 80//80 69//69 64//64 
f 86//86 79//79 85//85 
f 73//73 81//81 91//91 
f 81//81 78//78 84//84 
f 78//78 82//82 84//84 
f 77//77 69//69 89//89 
f 89//89 69//69 80//80 
f 90//90 80//80 79//79 
f 86//86 90//90 79//79 
f 82//82 77//77 83//83 
f 77//77 94//94 83//83 
f 84//84 87//87 81//81 
f 74//74 92//92 88//88 
f 76//76 92//92 74//74 
f 83//83 84//84 82//82 
f 95//95 94//94 77//77 
f 77//77 89//89 95//95 
f 88//88 85//85 75//75 
f 80//80 90//90 89//89 
f 87//87 91//91 81//81 
f 91//91 92//92 76//76 
f 98//98 86//86 85//85 
f 88//88 98//98 85//85 
f 86//86 93//93 90//90 
f 92//92 97//97 109//109 
f 92//92 109//109 88//88 
f 96//96 89//89 90//90 
f 95//95 89//89 96//96 
f 102//102 84//84 83//83 
f 93//93 86//86 98//98 
f 84//84 101//101 87//87 
f 121//121 98//98 88//88 
f 96//96 90//90 93//93 
f 91//91 99//99 92//92 
f 97//97 92//92 99//99 
f 101//101 100//100 87//87 
f 91//91 87//87 100//100 
f 99//99 91//91 100//100 
f 103//103 83//83 94//94 
f 102//102 83//83 103//103 
f 99//99 108//108 97//97 
f 100//100 110//110 99//99 
f 108//108 99//99 110//110 
f 111//111 101//101 102//102 
f 115//115 100//100 101//101 
f 84//84 102//102 101//101 
f 103//103 94//94 104//104 
f 95//95 104//104 94//94 
f 106//106 104//104 95//95 
f 107//107 105//105 93//93 
f 105//105 96//96 93//93 
f 121//121 112//112 98//98 
f 106//106 96//96 105//105 
f 96//96 106//106 95//95 
f 98//98 107//107 93//93 
f 115//115 110//110 100//100 
f 109//109 121//121 88//88 
f 118//118 103//103 114//114 
f 103//103 104//104 114//114 
f 106//106 119//119 104//104 
f 112//112 107//107 98//98 
f 101//101 111//111 115//115 
f 109//109 97//97 108//108 
f 104//104 119//119 114//114 
f 105//105 107//107 113//113 
f 113//113 106//106 105//105 
f 112//112 113//113 107//107 
f 110//110 116//116 108//108 
f 110//110 115//115 116//116 
f 115//115 111//111 125//125 
f 117//117 108//108 116//116 
f 127//127 108//108 117//117 
f 109//109 108//108 127//127 
f 121//121 109//109 127//127 
f 102//102 103//103 118//118 
f 118//118 114//114 128//128 
f 119//119 128//128 114//114 
f 113//113 119//119 106//106 
f 123//123 117//117 116//116 
f 111//111 102//102 124//124 
f 102//102 118//118 129//129 
f 129//129 118//118 128//128 
f 119//119 131//131 128//128 
f 111//111 124//124 125//125 
f 115//115 126//126 116//116 
f 126//126 115//115 125//125 
f 123//123 127//127 117//117 
f 131//131 119//119 120//120 
f 119//119 113//113 120//120 
f 122//122 134//134 120//120 
f 122//122 113//113 112//112 
f 122//122 120//120 113//113 
f 112//112 121//121 130//130 
f 112//112 130//130 122//122 
f 135//135 126//126 125//125 
f 123//123 116//116 132//132 
f 127//127 123//123 132//132 
f 129//129 128//128 139//139 
f 139//139 128//128 131//131 
f 131//131 120//120 134//134 
f 133//133 127//127 132//132 
f 132//132 116//116 126//126 
f 127//127 133//133 121//121 
f 133//133 130//130 121//121 
f 124//124 102//102 129//129 
f 130//130 134//134 122//122 
f 131//131 141//141 139//139 
f 131//131 134//134 141//141 
f 135//135 137//137 126//126 
f 126//126 137//137 132//132 
f 124//124 138//138 125//125 
f 129//129 138//138 124//124 
f 141//141 134//134 151//151 
f 136//136 135//135 125//125 
f 136//136 125//125 138//138 
f 135//135 136//136 148//148 
f 136//136 138//138 148//148 
f 133//133 132//132 143//143 
f 132//132 137//137 519//519 
f 130//130 133//133 144//144 
f 134//134 130//130 147//147 
f 147//147 151//151 134//134 
f 142//142 137//137 135//135 
f 146//146 140//140 139//139 
f 153//153 145//145 140//140 
f 129//129 145//145 138//138 
f 145//145 129//129 140//140 
f 140//140 129//129 139//139 
f 139//139 141//141 146//146 
f 148//148 138//138 149//149 
f 142//142 519//519 137//137 
f 135//135 148//148 142//142 
f 133//133 143//143 144//144 
f 144//144 147//147 130//130 
f 149//149 138//138 145//145 
f 145//145 153//153 149//149 
f 154//154 153//153 140//140 
f 154//154 140//140 146//146 
f 150//150 141//141 151//151 
f 146//146 141//141 150//150 
f 155//155 151//151 147//147 
f 142//142 152//152 519//519 
f 142//142 148//148 159//159 
f 159//159 148//148 157//157 
f 150//150 151//151 156//156 
f 151//151 155//155 156//156 
f 144//144 143//143 160//160 
f 144//144 160//160 166//166 
f 148//148 149//149 157//157 
f 157//157 149//149 158//158 
f 149//149 153//153 158//158 
f 158//158 153//153 164//164 
f 164//164 153//153 154//154 
f 150//150 161//161 154//154 
f 146//146 150//150 154//154 
f 159//159 157//157 162//162 
f 162//162 152//152 159//159 
f 519//519 152//152 520//520 
f 152//152 142//142 159//159 
f 194//194 520//520 152//152 
f 160//160 193//193 166//166 
f 166//166 167//167 147//147 
f 174//174 164//164 161//161 
f 154//154 161//161 164//164 
f 156//156 161//161 150//150 
f 168//168 156//156 155//155 
f 147//147 167//167 155//155 
f 166//166 147//147 144//144 
f 157//157 188//188 162//162 
f 157//157 158//158 190//190 
f 164//164 190//190 158//158 
f 163//163 152//152 162//162 
f 194//194 152//152 163//163 
f 165//165 174//174 161//161 
f 165//165 170//170 174//174 
f 168//168 165//165 156//156 
f 166//166 193//193 172//172 
f 172//172 167//167 166//166 
f 165//165 161//161 156//156 
f 188//188 157//157 211//211 
f 157//157 190//190 211//211 
f 189//189 163//163 162//162 
f 188//188 189//189 162//162 
f 169//169 163//163 189//189 
f 194//194 163//163 169//169 
f 160//160 194//194 193//193 
f 190//190 164//164 191//191 
f 191//191 164//164 174//174 
f 165//165 173//173 170//170 
f 155//155 167//167 171//171 
f 165//165 168//168 173//173 
f 171//171 168//168 155//155 
f 171//171 173//173 168//168 
f 175//175 185//185 182//182 
f 177//177 175//175 184//184 
f 175//175 182//182 184//184 
f 176//176 177//177 184//184 
f 184//184 207//207 176//176 
f 175//175 178//178 185//185 
f 178//178 175//175 179//179 
f 175//175 521//521 179//179 
f 179//179 521//521 180//180 
f 181//181 180//180 177//177 
f 181//181 177//177 176//176 
f 179//179 196//196 195//195 
f 195//195 522//522 179//179 
f 196//196 179//179 180//180 
f 185//185 187//187 182//182 
f 182//182 186//186 183//183 
f 182//182 183//183 184//184 
f 184//184 183//183 207//207 
f 176//176 207//207 223//223 
f 185//185 178//178 187//187 
f 187//187 186//186 182//182 
f 187//187 200//200 186//186 
f 181//181 176//176 223//223 
f 199//199 187//187 178//178 
f 189//189 209//209 169//169 
f 169//169 210//210 194//194 
f 194//194 210//210 213//213 
f 211//211 190//190 212//212 
f 212//212 190//190 191//191 
f 212//212 191//191 236//236 
f 192//192 191//191 174//174 
f 236//236 191//191 192//192 
f 170//170 215//215 192//192 
f 193//193 194//194 213//213 
f 193//193 213//213 214//214 
f 193//193 214//214 172//172 
f 214//214 167//167 172//172 
f 216//216 171//171 234//234 
f 234//234 171//171 167//167 
f 173//173 215//215 170//170 
f 215//215 173//173 216//216 
f 174//174 170//170 192//192 
f 173//173 171//171 216//216 
f 522//522 195//195 526//526 
f 196//196 180//180 197//197 
f 197//197 180//180 181//181 
f 197//197 181//181 203//203 
f 525//525 202//202 523//523 
f 196//196 197//197 198//198 
f 198//198 202//202 525//525 
f 524//524 201//201 527//527 
f 528//528 201//201 187//187 
f 200//200 187//187 201//201 
f 219//219 200//200 201//201 
f 201//201 524//524 529//529 
f 529//529 219//219 201//201 
f 218//218 219//219 529//529 
f 203//203 181//181 223//223 
f 197//197 203//203 204//204 
f 198//198 197//197 204//204 
f 202//202 198//198 205//205 
f 218//218 202//202 205//205 
f 198//198 204//204 205//205 
f 183//183 206//206 207//207 
f 220//220 204//204 203//203 
f 220//220 203//203 223//223 
f 186//186 206//206 183//183 
f 207//207 206//206 226//226 
f 207//207 226//226 239//239 
f 223//223 207//207 239//239 
f 200//200 217//217 186//186 
f 217//217 206//206 186//186 
f 208//208 209//209 189//189 
f 188//188 208//208 189//189 
f 209//209 210//210 169//169 
f 211//211 227//227 188//188 
f 209//209 230//230 210//210 
f 208//208 188//188 227//227 
f 211//211 212//212 232//232 
f 213//213 210//210 229//229 
f 215//215 236//236 192//192 
f 214//214 234//234 167//167 
f 217//217 200//200 219//219 
f 218//218 205//205 222//222 
f 218//218 222//222 238//238 
f 219//219 218//218 221//221 
f 221//221 218//218 238//238 
f 205//205 204//204 224//224 
f 222//222 205//205 224//224 
f 225//225 226//226 206//206 
f 221//221 260//260 219//219 
f 217//217 225//225 206//206 
f 220//220 224//224 204//204 
f 217//217 219//219 237//237 
f 225//225 217//217 237//237 
f 250//250 230//230 251//251 
f 229//229 230//230 250//250 
f 246//246 250//250 251//251 
f 229//229 250//250 252//252 
f 208//208 227//227 228//228 
f 211//211 276//276 227//227 
f 227//227 251//251 228//228 
f 228//228 230//230 209//209 
f 229//229 210//210 230//230 
f 209//209 208//208 228//228 
f 251//251 230//230 228//228 
f 229//229 252//252 231//231 
f 231//231 234//234 214//214 
f 231//231 281//281 234//234 
f 281//281 231//231 252//252 
f 233//233 232//232 212//212 
f 236//236 233//233 212//212 
f 254//254 233//233 236//236 
f 253//253 232//232 233//233 
f 254//254 253//253 233//233 
f 231//231 213//213 229//229 
f 235//235 216//216 234//234 
f 213//213 231//231 214//214 
f 235//235 254//254 236//236 
f 215//215 235//235 236//236 
f 235//235 215//215 216//216 
f 221//221 238//238 260//260 
f 225//225 237//237 257//257 
f 219//219 260//260 237//237 
f 257//257 237//237 260//260 
f 222//222 224//224 241//241 
f 222//222 241//241 238//238 
f 240//240 220//220 223//223 
f 224//224 220//220 242//242 
f 241//241 224//224 242//242 
f 223//223 239//239 262//262 
f 225//225 257//257 256//256 
f 240//240 223//223 243//243 
f 220//220 240//240 242//242 
f 242//242 255//255 241//241 
f 226//226 225//225 244//244 
f 226//226 245//245 239//239 
f 226//226 244//244 245//245 
f 239//239 245//245 262//262 
f 244//244 225//225 256//256 
f 243//243 223//223 262//262 
f 258//258 240//240 243//243 
f 244//244 265//265 245//245 
f 256//256 267//267 244//244 
f 267//267 265//265 244//244 
f 247//247 269//269 251//251 
f 276//276 269//269 247//247 
f 251//251 269//269 246//246 
f 271//271 250//250 246//246 
f 276//276 247//247 227//227 
f 211//211 248//248 276//276 
f 232//232 248//248 211//211 
f 232//232 249//249 248//248 
f 279//279 249//249 253//253 
f 280//280 279//279 253//253 
f 247//247 251//251 227//227 
f 252//252 277//277 281//281 
f 271//271 252//252 250//250 
f 274//274 252//252 271//271 
f 274//274 277//277 252//252 
f 253//253 249//249 232//232 
f 254//254 280//280 253//253 
f 259//259 238//238 241//241 
f 260//260 238//238 259//259 
f 242//242 240//240 258//258 
f 241//241 255//255 261//261 
f 241//241 261//261 259//259 
f 255//255 242//242 258//258 
f 258//258 263//263 255//255 
f 283//283 260//260 259//259 
f 259//259 261//261 283//283 
f 263//263 261//261 255//255 
f 245//245 264//264 262//262 
f 245//245 265//265 264//264 
f 243//243 262//262 284//284 
f 264//264 284//284 262//262 
f 284//284 258//258 243//243 
f 284//284 304//304 258//258 
f 264//264 265//265 284//284 
f 257//257 266//266 256//256 
f 266//266 267//267 256//256 
f 268//268 272//272 246//246 
f 269//269 292//292 530//530 
f 269//269 530//530 246//246 
f 293//293 292//292 269//269 
f 293//293 275//275 294//294 
f 293//293 269//269 275//275 
f 294//294 275//275 270//270 
f 294//294 270//270 291//291 
f 291//291 270//270 299//299 
f 271//271 246//246 272//272 
f 273//273 271//271 272//272 
f 271//271 273//273 274//274 
f 277//277 274//274 297//297 
f 297//297 274//274 273//273 
f 275//275 269//269 276//276 
f 248//248 275//275 276//276 
f 275//275 249//249 270//270 
f 270//270 249//249 279//279 
f 299//299 270//270 279//279 
f 280//280 299//299 279//279 
f 248//248 249//249 275//275 
f 280//280 254//254 282//282 
f 297//297 281//281 277//277 
f 234//234 281//281 278//278 
f 298//298 278//278 281//281 
f 297//297 298//298 281//281 
f 254//254 235//235 282//282 
f 235//235 234//234 278//278 
f 235//235 278//278 282//282 
f 263//263 258//258 304//304 
f 283//283 261//261 285//285 
f 261//261 263//263 285//285 
f 265//265 267//267 307//307 
f 286//286 266//266 257//257 
f 260//260 286//286 257//257 
f 260//260 287//287 286//286 
f 287//287 260//260 283//283 
f 283//283 285//285 301//301 
f 283//283 301//301 287//287 
f 307//307 309//309 265//265 
f 532//532 284//284 265//265 
f 266//266 531//531 267//267 
f 288//288 323//323 296//296 
f 313//313 323//323 288//288 
f 288//288 292//292 289//289 
f 293//293 289//289 292//292 
f 290//290 289//289 293//293 
f 294//294 290//290 293//293 
f 290//290 294//294 319//319 
f 291//291 319//319 294//294 
f 292//292 296//296 272//272 
f 268//268 292//292 272//272 
f 297//297 296//296 323//323 
f 288//288 296//296 292//292 
f 318//318 298//298 297//297 
f 326//326 291//291 299//299 
f 327//327 326//326 300//300 
f 295//295 300//300 282//282 
f 272//272 296//296 273//273 
f 297//297 273//273 296//296 
f 282//282 278//278 295//295 
f 295//295 278//278 298//298 
f 300//300 326//326 299//299 
f 299//299 280//280 300//300 
f 300//300 280//280 282//282 
f 287//287 303//303 286//286 
f 287//287 301//301 303//303 
f 301//301 285//285 306//306 
f 285//285 263//263 306//306 
f 303//303 301//301 305//305 
f 301//301 306//306 305//305 
f 304//304 284//284 532//532 
f 303//303 302//302 286//286 
f 263//263 304//304 306//306 
f 266//266 286//286 302//302 
f 303//303 308//308 302//302 
f 305//305 308//308 303//303 
f 302//302 531//531 266//266 
f 332//332 336//336 307//307 
f 307//307 336//336 309//309 
f 531//531 302//302 328//328 
f 302//302 308//308 328//328 
f 331//331 308//308 305//305 
f 311//311 304//304 532//532 
f 310//310 304//304 311//311 
f 304//304 329//329 306//306 
f 310//310 329//329 304//304 
f 308//308 331//331 328//328 
f 537//537 312//312 533//533 
f 311//311 532//532 534//534 
f 333//333 310//310 311//311 
f 531//531 328//328 535//535 
f 333//333 311//311 534//534 
f 316//316 353//353 352//352 
f 314//314 353//353 316//316 
f 352//352 313//313 316//316 
f 313//313 358//358 362//362 
f 323//323 313//313 362//362 
f 289//289 290//290 314//314 
f 314//314 290//290 315//315 
f 313//313 288//288 316//316 
f 314//314 316//316 289//289 
f 363//363 324//324 362//362 
f 324//324 363//363 318//318 
f 317//317 315//315 319//319 
f 315//315 317//317 359//359 
f 365//365 359//359 317//317 
f 369//369 365//365 317//317 
f 288//288 289//289 316//316 
f 317//317 319//319 320//320 
f 317//317 320//320 369//369 
f 323//323 362//362 324//324 
f 315//315 290//290 319//319 
f 320//320 319//319 291//291 
f 322//322 326//326 321//321 
f 320//320 322//322 369//369 
f 372//372 321//321 327//327 
f 327//327 321//321 326//326 
f 322//322 321//321 370//370 
f 370//370 321//321 372//372 
f 324//324 297//297 323//323 
f 297//297 324//324 318//318 
f 320//320 291//291 326//326 
f 320//320 326//326 322//322 
f 325//325 298//298 318//318 
f 295//295 327//327 300//300 
f 325//325 295//295 298//298 
f 325//325 327//327 295//295 
f 330//330 331//331 305//305 
f 329//329 310//310 536//536 
f 305//305 306//306 330//330 
f 331//331 334//334 328//328 
f 339//339 333//333 534//534 
f 536//536 340//340 329//329 
f 306//306 329//329 335//335 
f 330//330 306//306 335//335 
f 330//330 335//335 331//331 
f 331//331 335//335 374//374 
f 537//537 344//344 312//312 
f 328//328 334//334 337//337 
f 535//535 328//328 337//337 
f 339//339 534//534 338//338 
f 340//340 536//536 539//539 
f 329//329 540//540 335//335 
f 332//332 341//341 336//336 
f 336//336 341//341 344//344 
f 312//312 344//344 538//538 
f 535//535 337//337 341//341 
f 342//342 337//337 334//334 
f 341//341 337//337 541//541 
f 338//338 343//343 339//339 
f 538//538 344//344 542//542 
f 340//340 539//539 543//543 
f 341//341 380//380 344//344 
f 344//344 389//389 542//542 
f 387//387 344//344 380//380 
f 389//389 344//344 387//387 
f 425//425 346//346 350//350 
f 345//345 346//346 422//422 
f 346//346 425//425 422//422 
f 355//355 425//425 350//350 
f 347//347 425//425 355//355 
f 346//346 345//345 348//348 
f 429//429 349//349 348//348 
f 544//544 429//429 348//348 
f 349//349 429//429 424//424 
f 426//426 347//347 435//435 
f 346//346 352//352 351//351 
f 353//353 350//350 351//351 
f 350//350 346//346 351//351 
f 346//346 348//348 352//352 
f 352//352 348//348 358//358 
f 358//358 348//348 349//349 
f 349//349 424//424 430//430 
f 355//355 356//356 347//347 
f 347//347 356//356 435//435 
f 355//355 350//350 353//353 
f 349//349 430//430 358//358 
f 358//358 430//430 354//354 
f 355//355 353//353 314//314 
f 352//352 353//353 351//351 
f 435//435 356//356 438//438 
f 356//356 357//357 438//438 
f 362//362 358//358 354//354 
f 355//355 315//315 356//356 
f 355//355 314//314 315//315 
f 357//357 356//356 359//359 
f 357//357 443//443 438//438 
f 444//444 443//443 361//361 
f 313//313 352//352 358//358 
f 354//354 363//363 362//362 
f 363//363 354//354 442//442 
f 356//356 315//315 359//359 
f 359//359 365//365 360//360 
f 365//365 366//366 360//360 
f 357//357 359//359 360//360 
f 360//360 443//443 357//357 
f 366//366 361//361 360//360 
f 443//443 360//360 361//361 
f 361//361 368//368 444//444 
f 366//366 368//368 361//361 
f 364//364 444//444 368//368 
f 442//442 367//367 363//363 
f 439//439 367//367 442//442 
f 439//439 364//364 367//367 
f 365//365 369//369 366//366 
f 366//366 370//370 368//368 
f 363//363 367//367 318//318 
f 367//367 325//325 318//318 
f 371//371 325//325 367//367 
f 368//368 371//371 364//364 
f 368//368 370//370 371//371 
f 371//371 367//367 364//364 
f 369//369 370//370 366//366 
f 369//369 322//322 370//370 
f 372//372 325//325 371//371 
f 372//372 371//371 370//370 
f 327//327 325//325 372//372 
f 373//373 342//342 334//334 
f 334//334 331//331 373//373 
f 331//331 374//374 373//373 
f 540//540 375//375 335//335 
f 541//541 378//378 341//341 
f 380//380 341//341 378//378 
f 342//342 379//379 546//546 
f 373//373 379//379 342//342 
f 379//379 373//373 377//377 
f 373//373 374//374 377//377 
f 335//335 376//376 374//374 
f 543//543 545//545 340//340 
f 376//376 335//335 375//375 
f 380//380 378//378 381//381 
f 546//546 379//379 381//381 
f 379//379 377//377 382//382 
f 381//381 379//379 382//382 
f 377//377 374//374 383//383 
f 377//377 383//383 382//382 
f 383//383 374//374 376//376 
f 388//388 380//380 381//381 
f 543//543 384//384 545//545 
f 385//385 376//376 375//375 
f 382//382 390//390 381//381 
f 542//542 389//389 547//547 
f 389//389 394//394 547//547 
f 548//548 545//545 384//384 
f 383//383 386//386 382//382 
f 376//376 385//385 383//383 
f 380//380 388//388 387//387 
f 388//388 381//381 390//390 
f 388//388 390//390 393//393 
f 390//390 382//382 445//445 
f 384//384 391//391 548//548 
f 387//387 395//395 389//389 
f 388//388 392//392 387//387 
f 392//392 395//395 387//387 
f 392//392 388//388 393//393 
f 393//393 390//390 397//397 
f 397//397 390//390 445//445 
f 391//391 384//384 550//550 
f 446//446 385//385 549//549 
f 397//397 396//396 393//393 
f 394//394 389//389 395//395 
f 395//395 392//392 401//401 
f 392//392 393//393 396//396 
f 397//397 399//399 396//396 
f 395//395 398//398 394//394 
f 395//395 401//401 551//551 
f 392//392 396//396 401//401 
f 401//401 396//396 399//399 
f 403//403 401//401 399//399 
f 400//400 394//394 398//398 
f 405//405 400//400 398//398 
f 550//550 400//400 391//391 
f 397//397 452//452 399//399 
f 551//551 401//401 552//552 
f 403//403 404//404 401//401 
f 401//401 404//404 552//552 
f 399//399 455//455 403//403 
f 405//405 402//402 400//400 
f 460//460 403//403 455//455 
f 400//400 402//402 457//457 
f 460//460 463//463 403//403 
f 404//404 403//403 463//463 
f 406//406 404//404 463//463 
f 405//405 465//465 402//402 
f 407//407 552//552 404//404 
f 404//404 406//406 407//407 
f 465//465 405//405 472//472 
f 553//553 554//554 558//558 
f 408//408 407//407 406//406 
f 409//409 558//558 554//554 
f 554//554 410//410 409//409 
f 407//407 408//408 410//410 
f 408//408 412//412 410//410 
f 412//412 411//411 410//410 
f 412//412 408//408 492//492 
f 555//555 413//413 488//488 
f 409//409 410//410 413//413 
f 410//410 411//411 413//413 
f 414//414 411//411 412//412 
f 416//416 412//412 492//492 
f 414//414 412//412 416//416 
f 413//413 417//417 488//488 
f 415//415 413//413 411//411 
f 417//417 413//413 415//415 
f 411//411 414//414 415//415 
f 416//416 492//492 418//418 
f 421//421 415//415 414//414 
f 414//414 419//419 421//421 
f 419//419 414//414 416//416 
f 416//416 418//418 419//419 
f 556//556 420//420 501//501 
f 419//419 422//422 421//421 
f 419//419 418//418 544//544 
f 417//417 415//415 421//421 
f 419//419 345//345 422//422 
f 497//497 424//424 418//418 
f 418//418 424//424 544//544 
f 560//560 506//506 424//424 
f 425//425 417//417 421//421 
f 420//420 417//417 425//425 
f 501//501 420//420 423//423 
f 423//423 504//504 501//501 
f 544//544 424//424 429//429 
f 421//421 422//422 425//425 
f 423//423 420//420 426//426 
f 426//426 427//427 423//423 
f 504//504 423//423 427//427 
f 425//425 347//347 420//420 
f 504//504 427//427 428//428 
f 427//427 436//436 428//428 
f 504//504 428//428 503//503 
f 436//436 433//433 428//428 
f 433//433 503//503 428//428 
f 506//506 430//430 424//424 
f 502//502 432//432 506//506 
f 502//502 431//431 432//432 
f 420//420 347//347 426//426 
f 426//426 436//436 427//427 
f 503//503 433//433 505//505 
f 506//506 432//432 430//430 
f 430//430 432//432 354//354 
f 432//432 431//431 442//442 
f 431//431 505//505 434//434 
f 505//505 433//433 434//434 
f 436//436 426//426 435//435 
f 354//354 432//432 442//442 
f 436//436 435//435 438//438 
f 437//437 433//433 436//436 
f 436//436 438//438 437//437 
f 439//439 442//442 431//431 
f 433//433 437//437 441//441 
f 434//434 441//441 440//440 
f 434//434 440//440 439//439 
f 434//434 433//433 441//441 
f 434//434 439//439 431//431 
f 438//438 443//443 437//437 
f 441//441 437//437 443//443 
f 443//443 444//444 441//441 
f 439//439 440//440 364//364 
f 441//441 444//444 440//440 
f 364//364 440//440 444//444 
f 445//445 382//382 386//386 
f 386//386 383//383 557//557 
f 383//383 385//385 446//446 
f 447//447 386//386 557//557 
f 445//445 386//386 447//447 
f 557//557 448//448 450//450 
f 451//451 448//448 446//446 
f 447//447 557//557 450//450 
f 549//549 451//451 446//446 
f 449//449 397//397 445//445 
f 445//445 447//447 449//449 
f 397//397 449//449 452//452 
f 453//453 449//449 447//447 
f 453//453 447//447 450//450 
f 451//451 391//391 400//400 
f 452//452 455//455 399//399 
f 449//449 454//454 452//452 
f 450//450 448//448 459//459 
f 454//454 449//449 453//453 
f 454//454 453//453 456//456 
f 450//450 459//459 456//456 
f 453//453 450//450 456//456 
f 451//451 400//400 457//457 
f 452//452 454//454 455//455 
f 451//451 458//458 448//448 
f 455//455 454//454 461//461 
f 460//460 455//455 461//461 
f 454//454 462//462 461//461 
f 454//454 456//456 462//462 
f 458//458 451//451 457//457 
f 458//458 459//459 448//448 
f 456//456 459//459 462//462 
f 402//402 465//465 457//457 
f 458//458 457//457 469//469 
f 457//457 465//465 469//469 
f 458//458 471//471 459//459 
f 460//460 464//464 463//463 
f 461//461 464//464 460//460 
f 464//464 461//461 462//462 
f 466//466 464//464 462//462 
f 469//469 471//471 458//458 
f 474//474 406//406 463//463 
f 464//464 468//468 463//463 
f 468//468 474//474 463//463 
f 470//470 468//468 464//464 
f 470//470 464//464 466//466 
f 466//466 462//462 467//467 
f 462//462 459//459 467//467 
f 466//466 467//467 477//477 
f 465//465 472//472 473//473 
f 459//459 471//471 467//467 
f 474//474 468//468 475//475 
f 470//470 475//475 468//468 
f 476//476 470//470 466//466 
f 466//466 477//477 476//476 
f 469//469 465//465 478//478 
f 469//469 478//478 471//471 
f 478//478 486//486 471//471 
f 467//467 471//471 482//482 
f 406//406 474//474 408//408 
f 476//476 475//475 470//470 
f 476//476 480//480 475//475 
f 465//465 473//473 478//478 
f 471//471 486//486 489//489 
f 474//474 475//475 479//479 
f 480//480 479//479 475//475 
f 476//476 477//477 481//481 
f 476//476 481//481 480//480 
f 473//473 472//472 484//484 
f 473//473 484//484 485//485 
f 478//478 473//473 485//485 
f 474//474 479//479 408//408 
f 481//481 477//477 483//483 
f 477//477 467//467 483//483 
f 555//555 484//484 472//472 
f 485//485 486//486 478//478 
f 481//481 483//483 490//490 
f 467//467 482//482 483//483 
f 482//482 471//471 489//489 
f 482//482 491//491 483//483 
f 482//482 489//489 491//491 
f 555//555 488//488 484//484 
f 479//479 492//492 408//408 
f 480//480 487//487 479//479 
f 481//481 487//487 480//480 
f 481//481 490//490 487//487 
f 559//559 485//485 484//484 
f 483//483 491//491 490//490 
f 492//492 479//479 487//487 
f 490//490 502//502 487//487 
f 491//491 489//489 493//493 
f 486//486 493//493 489//489 
f 556//556 485//485 559//559 
f 485//485 493//493 486//486 
f 491//491 493//493 495//495 
f 502//502 560//560 487//487 
f 490//490 491//491 494//494 
f 485//485 556//556 496//496 
f 485//485 496//496 493//493 
f 491//491 495//495 494//494 
f 487//487 497//497 492//492 
f 493//493 498//498 495//495 
f 492//492 497//497 418//418 
f 490//490 494//494 502//502 
f 495//495 498//498 500//500 
f 498//498 493//493 496//496 
f 494//494 495//495 500//500 
f 494//494 500//500 499//499 
f 496//496 556//556 501//501 
f 496//496 501//501 498//498 
f 502//502 506//506 560//560 
f 503//503 500//500 498//498 
f 499//499 502//502 494//494 
f 499//499 500//500 505//505 
f 500//500 503//503 505//505 
f 501//501 504//504 498//498 
f 504//504 503//503 498//498 
f 499//499 505//505 502//502 
f 502//502 505//505 431//431 
