#
# Compatibility version : 4.3
# File ID : FJ3959
# Representation ID : BP29143
# Build-up logic : FMA 3.0 is_a
# Concept ID : FMA52799
# English name : Left nasopalatine nerve
# Bounds(mm): (-0.470000,-169.355700,1479.039400)-(19.881500,-127.719000,1502.616000)
# Volume(cm3): 0.008900
#
v -0.448468 -150.585 1489.96
v -0.462077 -149.54 1489.86
v -0.437956 -148.592 1489.91
v -0.43073 -147.785 1489.82
v -0.0490199 -158.769 1488.47
v -0.105479 -158.226 1488.8
v -0.116925 -158.112 1488.76
v -0.0768363 -158.16 1488.91
v -0.0925202 -158.081 1488.7
v -0.18731 -157.367 1489.11
v -0.172835 -157.361 1489.01
v -0.0888993 -157.549 1489.19
v -0.0819538 -156.504 1489.12
v -0.243678 -156.461 1489.43
v -0.133267 -156.592 1489.5
v -0.27426 -156.235 1489.36
v -0.224273 -156.04 1489.29
v -0.083566 -155.848 1489.27
v -0.330117 -155.246 1489.66
v -0.132618 -155.634 1489.73
v -0.350826 -154.941 1489.59
v -0.282675 -154.907 1489.48
v -0.181326 -154.935 1489.43
v -0.275062 -155.192 1489.75
v -0.141883 -154.948 1489.85
v -0.278953 -154.447 1489.89
v -0.237124 -154.104 1489.54
v -0.13177 -154.23 1489.52
v -0.394255 -154.145 1489.76
v -0.367982 -154.048 1489.64
v -0.361264 -153.894 1489.89
v -0.088578 -153.86 1489.95
v -0.420567 -153.214 1489.86
v -0.233838 -153.628 1489.99
v -0.42681 -152.904 1489.79
v -0.193202 -153.101 1489.61
v -0.084477 -153.065 1489.65
v -0.184569 -152.971 1490.04
v -0.332019 -152.859 1489.65
v -0.38543 -152.406 1490
v -0.326286 -152.462 1490.04
v -0.0850484 -152.637 1490
v -0.226335 -151.457 1489.65
v -0.193179 -151.363 1490.08
v -0.370354 -150.997 1489.69
v -0.375677 -150.979 1490.05
v -0.074711 -150.808 1489.73
v -0.133142 -150.016 1490.06
v -0.27667 -149.564 1490.08
v -0.039238 -149.71 1489.96
v -0.375564 -149.032 1490.02
v -0.129877 -148.903 1489.63
v -0.280536 -147.656 1489.59
v -0.37609 -147.683 1489.67
v -0.382499 -146.96 1489.88
v -0.136013 -146.637 1490.02
v -0.179328 -146.109 1489.54
v -0.281468 -146.075 1489.59
v -0.354042 -145.959 1489.72
v -0.228511 -146.03 1489.98
v -0.0751438 -144.854 1489.52
v -0.180383 -144.895 1489.55
v -0.27195 -144.786 1489.66
v -0.231235 -144.095 1489.82
v -0.165644 -143.854 1489.62
v -0.178228 -144.083 1489.92
v -0.166345 -143.448 1489.7
v -0.0643877 -142.829 1489.67
v -0.100787 -142.753 1489.81
v 0.314646 -161.248 1486.99
v 0.291504 -161.146 1486.97
v 0.321476 -160.996 1486.94
v 0.212677 -160.676 1487.4
v 0.300592 -160.941 1487.3
v 0.27232 -160.417 1487.72
v 0.112098 -159.873 1487.99
v 0.075902 -159.782 1487.93
v 0.313964 -160.07 1487.97
v 0.165523 -159.671 1487.8
v 0.0964644 -159.771 1487.84
v 0.168473 -159.471 1488.33
v 0.362181 -159.343 1488.32
v 0.168175 -159.086 1488.12
v -0.00353814 -158.981 1488.5
v 0.0689416 -159.253 1488.41
v 0.26279 -159.232 1488.45
v 0.349003 -158.94 1488.47
v -0.0119117 -158.753 1488.38
v 0.311982 -158.671 1488.44
v 0.0689708 -158.785 1488.69
v 0.0146986 -158.269 1488.54
v 0.174197 -158.407 1488.47
v 0.157894 -158.265 1488.93
v 0.264168 -158.476 1488.77
v 0.203357 -157.911 1488.73
v 0.0154545 -158.016 1489.04
v 0.234424 -157.772 1489
v 0.0107611 -157.601 1488.79
v 0.0123639 -157.407 1489.28
v 0.17222 -157.524 1489.16
v 0.227522 -157.547 1489
v 0.069031 -156.992 1489.38
v 0.0199566 -156.604 1489.11
v 0.144232 -156.541 1489.27
v 0.0596553 -156.41 1489.52
v 0.131386 -156.728 1489.38
v 0.146552 -156.526 1489.37
v -0.0330398 -156.343 1489.58
v 0.0364276 -155.329 1489.45
v 0.0837003 -155.402 1489.55
v -0.0371332 -155.527 1489.74
v 0.0346089 -154.942 1489.73
v -0.0409317 -154.622 1489.51
v 0.00941709 -154.346 1489.61
v -0.0184976 -152.167 1489.84
v -0.0193766 -150.037 1489.84
v -0.0211344 -148.897 1489.74
v 0.0178248 -148.198 1489.85
v -0.0340758 -146.889 1489.98
v 0.0880348 -146.52 1489.8
v 0.0812285 -145.701 1489.91
v 0.0235824 -145.544 1489.56
v 0.110012 -145.675 1489.66
v 0.0163851 -145.476 1489.97
v 0.191284 -144.692 1489.82
v 0.0707246 -144.181 1490
v 0.160919 -144.189 1489.95
v 0.259905 -143.78 1489.68
v -0.0352933 -144.117 1490.01
v 0.0176518 -143.299 1489.55
v 0.311684 -143.391 1489.85
v 0.158374 -143.189 1489.56
v 0.221951 -143.086 1490.02
v 0.123538 -142.508 1490.07
v -0.0321012 -142.396 1489.94
v 0.0621087 -142.171 1490.04
v 0.312321 -141.742 1489.65
v 0.212704 -141.53 1489.7
v 0.107878 -141.537 1489.8
v 0.234206 -141.368 1490.14
v 0.144412 -141.217 1489.98
v 0.186396 -141.178 1490.08
v 0.352241 -140.329 1489.99
v 0.755856 -163.32 1485.12
v 0.556337 -162.434 1486
v 0.609812 -162.518 1485.69
v 0.634561 -162.566 1485.98
v 0.623214 -162.226 1486.32
v 0.666402 -162.018 1486.03
v 0.469408 -161.763 1486.68
v 0.612218 -161.703 1486.75
v 0.503266 -161.466 1486.96
v 0.415523 -161.022 1486.85
v 0.525833 -161.046 1486.83
v 0.623759 -161.206 1487.06
v 0.633803 -161.126 1486.86
v 0.659352 -161.132 1486.95
v 0.423215 -160.669 1487.56
v 0.422285 -160.354 1487.34
v 0.508469 -160.419 1487.36
v 0.543595 -160.422 1487.44
v 0.365081 -159.853 1487.68
v 0.448054 -159.837 1487.79
v 0.467605 -159.979 1487.88
v 0.414331 -160.068 1487.92
v 0.370282 -159.413 1488
v 0.405684 -159.355 1488.16
v 0.354735 -142.386 1489.65
v 0.489509 -141.71 1490.06
v 0.526995 -141.593 1489.76
v 0.601109 -141.434 1489.9
v 0.416879 -141.038 1490.22
v 0.626583 -140.911 1490.17
v 0.694533 -140.86 1490.1
v 0.364301 -140.472 1489.88
v 0.47555 -140.482 1489.81
v 0.564049 -140.818 1489.77
v 0.565012 -140.716 1490.25
v 0.426856 -140.076 1490.21
v 0.731211 -140.09 1490.36
v 0.510922 -139.935 1490.31
v 0.620251 -139.966 1490.38
v 0.65043 -139.534 1490.03
v 0.68009 -139.206 1490.22
v 1.11716 -164.211 1483.97
v 1.00907 -164.206 1484.32
v 0.976956 -164.118 1484.27
v 1.1289 -163.849 1484.31
v 0.963679 -163.815 1484.8
v 0.793683 -163.389 1485.15
v 1.07463 -163.408 1485.13
v 1.09122 -163.232 1485.1
v 0.91904 -163.315 1485.31
v 0.78728 -162.746 1485.37
v 0.923853 -162.868 1485.28
v 0.809983 -162.484 1486.05
v 0.857632 -162.266 1486.11
v 0.787001 -162 1486.12
v 0.861865 -162.205 1486.07
v 0.88642 -140.119 1490.04
v 0.893446 -140.048 1490.24
v 0.758907 -139.73 1489.94
v 0.920839 -139.726 1490.01
v 1.02151 -139.684 1490.26
v 1.00631 -139.636 1490.35
v 0.768591 -139.428 1490.01
v 0.934214 -139.276 1490.04
v 0.860431 -138.89 1490.19
v 0.804933 -138.864 1490.45
v 1.06238 -138.816 1490.67
v 0.890758 -138.643 1490.35
v 1.01743 -138.683 1490.21
v 1.02248 -138.501 1490.3
v 0.911355 -138.772 1490.6
v 1.11547 -138.091 1490.61
v 1.55194 -165.742 1482.81
v 1.36689 -165.364 1482.99
v 1.33163 -165.243 1483.25
v 1.4396 -165.082 1483.06
v 1.17152 -164.784 1483.66
v 1.17614 -164.704 1483.6
v 1.17392 -164.643 1483.94
v 1.21871 -164.549 1484.08
v 1.43082 -164.57 1483.89
v 1.31552 -164.164 1484.07
v 1.23959 -164.355 1484.26
v 1.21395 -139.101 1490.28
v 1.21196 -138.965 1490.56
v 1.24935 -139.022 1490.44
v 1.34468 -138.433 1490.32
v 1.35859 -138.633 1490.34
v 1.46362 -138.499 1490.48
v 1.23264 -138.357 1490.81
v 1.31508 -138.305 1490.32
v 1.26642 -138.141 1490.38
v 1.52913 -138.287 1490.75
v 1.25185 -138.094 1490.85
v 1.41295 -138.201 1490.87
v 1.23857 -137.913 1490.55
v 1.42932 -137.646 1490.6
v 1.3325 -137.658 1490.76
v 1.33316 -137.696 1490.85
v 1.53734 -137.805 1491.02
v 1.94019 -166.9 1481.52
v 1.70714 -166.302 1482.01
v 1.82637 -166.306 1481.81
v 1.61725 -166.079 1482.32
v 1.85514 -166.043 1482.46
v 1.62857 -165.938 1482.26
v 1.88388 -165.862 1482.41
v 1.59915 -165.647 1482.94
v 1.59093 -165.238 1482.9
v 1.54816 -138.319 1490.66
v 1.72359 -137.91 1490.64
v 1.74024 -137.555 1490.63
v 1.90574 -137.627 1490.94
v 1.606 -137.562 1490.6
v 1.61625 -137.199 1490.87
v 1.73512 -137.121 1490.83
v 1.84773 -137.54 1491.11
v 1.92537 -137.025 1490.84
v 1.84631 -136.981 1491.31
v 1.86494 -136.817 1491.28
v 1.85179 -136.79 1491.18
v 2.30841 -167.434 1480.67
v 2.22362 -167.602 1480.75
v 2.23 -167.56 1480.68
v 2.28873 -167.53 1480.99
v 1.98362 -166.897 1481.29
v 2.02471 -167.114 1481.19
v 1.99864 -166.531 1481.55
v 2.05712 -137.154 1491.31
v 2.17558 -137.116 1491.27
v 2.02459 -136.992 1491.4
v 2.30634 -136.95 1491.1
v 2.33914 -136.946 1491.23
v 2.14151 -136.392 1491.3
v 2.22644 -136.455 1491.15
v 2.62311 -168.324 1479.86
v 2.55072 -168.28 1480.2
v 2.48409 -168.176 1480.14
v 2.35035 -167.439 1481.06
v 2.47844 -167.476 1480.67
v 2.36451 -167.227 1481.16
v 2.37204 -136.696 1491.1
v 2.63831 -136.516 1491.4
v 2.51779 -136.503 1491.67
v 2.63146 -136.532 1491.51
v 2.55744 -136.269 1491.28
v 2.47401 -135.953 1491.69
v 2.52262 -136.283 1491.8
v 2.57026 -135.878 1491.56
v 2.74089 -135.781 1491.57
v 2.7045 -135.764 1491.96
v 3.00286 -169.287 1479.14
v 2.95901 -169.179 1479.18
v 3.0125 -169.16 1479.11
v 3.06505 -169.34 1479.14
v 3.0665 -169.286 1479.08
v 3.04281 -169.081 1479.12
v 3.11461 -169.194 1479.05
v 2.95855 -169.22 1479.24
v 3.01684 -169.317 1479.18
v 3.00225 -169.273 1479.26
v 3.06935 -169.35 1479.19
v 3.08719 -169.275 1479.33
v 2.79594 -168.553 1479.99
v 2.79821 -168.448 1479.68
v 2.77831 -168.289 1480.18
v 2.8089 -168.199 1480.12
v 3.05781 -136.012 1491.82
v 2.91819 -135.912 1492.06
v 2.97875 -136.038 1491.92
v 2.75182 -135.815 1492.02
v 2.95417 -135.404 1491.92
v 3.01596 -135.386 1491.87
v 3.0856 -135.261 1492.17
v 3.16079 -169.341 1479.14
v 3.16419 -169.287 1479.07
v 3.13145 -169.072 1479.14
v 3.21014 -169.234 1479.09
v 3.23089 -169.285 1479.14
v 3.191 -169.065 1479.2
v 3.16395 -169.343 1479.23
v 3.14472 -169.259 1479.33
v 3.21281 -169.324 1479.18
v 3.23758 -169.279 1479.23
v 3.20147 -169.159 1479.34
v 3.22646 -169.119 1479.24
v 3.21474 -135.809 1491.84
v 3.29632 -135.346 1491.87
v 3.38053 -135.378 1491.9
v 3.36424 -135.34 1492.46
v 3.47183 -135.398 1492.43
v 3.44979 -135.076 1492.07
v 3.38446 -134.977 1492.22
v 3.4781 -134.976 1492.58
v 3.56347 -135.342 1492.04
v 3.66639 -135.357 1492.28
v 3.94176 -134.73 1492.37
v 3.92584 -134.567 1492.5
v 3.77906 -134.595 1492.72
v 3.99189 -134.856 1492.89
v 4.16112 -134.819 1492.9
v 4.07699 -134.335 1492.78
v 4.15096 -134.339 1493.09
v 4.21061 -134.529 1493.14
v 4.36587 -134.095 1493.17
v 4.3972 -134.251 1492.78
v 4.65413 -134.425 1492.94
v 4.52382 -134.579 1493.05
v 4.62229 -134.389 1493.32
v 4.61946 -133.94 1493.1
v 4.72467 -133.81 1493.3
v 4.91836 -134.08 1493.09
v 5.02447 -133.85 1493.21
v 4.84202 -133.777 1493.61
v 5.04108 -133.761 1493.81
v 5.20213 -133.571 1493.47
v 5.53261 -133.715 1493.58
v 5.26521 -133.417 1493.78
v 5.42635 -133.661 1494.06
v 5.52163 -133.28 1493.82
v 5.62475 -133.678 1494.08
v 5.75063 -133.421 1493.74
v 5.74724 -133.677 1493.88
v 6.17538 -133.007 1494.14
v 6.15768 -132.842 1494.43
v 5.99687 -132.977 1494.46
v 6.77874 -133.01 1494.6
v 6.73457 -132.562 1494.69
v 6.68148 -132.785 1495.06
v 6.65837 -132.666 1495.03
v 6.71749 -132.546 1495
v 6.72736 -132.909 1495.02
v 6.95386 -132.936 1494.95
v 6.9678 -132.783 1494.66
v 7.07465 -132.317 1495.13
v 7.13738 -132.299 1495.08
v 7.60212 -132.361 1495.14
v 7.74902 -132.132 1495.32
v 7.63865 -132.106 1495.73
v 7.78092 -132.109 1495.87
v 7.84301 -132.258 1495.89
v 7.62724 -132.051 1495.64
v 8.18587 -132.219 1496.03
v 8.00525 -131.847 1495.78
v 8.20231 -131.816 1495.75
v 8.3405 -132.229 1495.94
v 8.38907 -132.145 1495.77
v 8.87423 -131.85 1496.59
v 8.8662 -131.47 1496.31
v 9.12583 -131.451 1496.35
v 8.8982 -131.438 1496.49
v 9.04326 -131.422 1496.72
v 9.11639 -131.463 1496.83
v 9.43446 -131.734 1496.65
v 9.55606 -131.506 1496.55
v 9.39297 -131.48 1497.03
v 9.60309 -131.65 1496.93
v 9.61698 -131.588 1496.65
v 9.5431 -131.38 1496.57
v 10.0171 -131.01 1497.07
v 10.5085 -131.302 1497.46
v 10.6115 -131.23 1497.4
v 10.7602 -131.186 1497.74
v 10.3922 -130.82 1497.47
v 10.3738 -130.846 1497.59
v 10.4654 -130.95 1497.78
v 10.638 -130.817 1497.87
v 10.7989 -131.089 1497.9
v 10.8461 -131.019 1497.46
v 10.9815 -130.81 1497.56
v 11.602 -130.37 1498.32
v 11.8942 -130.762 1498.52
v 11.9336 -130.296 1498.67
v 12.0308 -130.736 1498.49
v 11.9325 -130.398 1498.23
v 12.0224 -130.484 1498.81
v 12.0756 -130.229 1498.48
v 12.1581 -130.327 1498.9
v 12.4535 -130.486 1498.55
v 12.597 -130.29 1498.61
v 13.1587 -130.161 1499.51
v 13.4903 -130.243 1499.41
v 13.5314 -130.163 1499.26
v 13.5123 -129.727 1499.43
v 13.7675 -129.958 1499.33
v 13.6224 -130.161 1499.64
v 13.698 -129.841 1499.32
v 13.6659 -129.807 1499.83
v 13.6104 -129.698 1499.65
v 13.9433 -129.642 1499.57
v 14.6471 -129.352 1500.18
v 15.0782 -129.487 1500.1
v 14.9413 -129.696 1500.47
v 14.9911 -129.561 1500.59
v 15.145 -129.246 1500.28
v 14.932 -129.297 1500.47
v 15.0526 -129.347 1500.62
v 15.0963 -129.399 1500.67
v 15.28 -129.539 1500.23
v 15.3083 -129.292 1500.27
v 15.8963 -129.461 1500.7
v 16.1559 -129.176 1500.67
v 16.3004 -129.269 1500.8
v 16.1962 -129.36 1501.02
v 16.1356 -129.273 1501.15
v 16.1315 -129.038 1501.21
v 16.3268 -129.071 1501.31
v 16.2785 -128.923 1501.24
v 16.899 -128.775 1501.09
v 16.8075 -128.671 1501.35
v 17.4518 -128.959 1501.45
v 17.5545 -128.847 1501.38
v 17.1895 -128.693 1501.71
v 17.4042 -128.846 1501.77
v 17.4207 -128.909 1501.72
v 17.3215 -128.515 1501.45
v 17.4315 -128.801 1501.29
v 17.6818 -128.648 1501.93
v 17.6545 -128.433 1501.83
v 18.032 -128.758 1501.9
v 18.2521 -128.628 1502.07
v 18.178 -128.307 1501.69
v 18.2741 -128.523 1502.15
v 18.475 -128.321 1502.25
v 18.537 -128.17 1502.22
v 18.4498 -128.123 1501.99
v 18.7938 -128.498 1501.97
v 18.8995 -128.376 1501.91
v 18.7664 -128.317 1501.83
v 18.8798 -128.485 1502.16
v 18.9758 -128.263 1502.41
v 19.0614 -128.345 1502.37
v 19.4065 -127.93 1502.55
v 19.6563 -128.21 1502.34
v 19.6728 -128.186 1502.45
v 19.7098 -128.152 1502.24
v 19.7637 -128.114 1502.5
v 19.5976 -127.901 1502.12
v 19.6656 -127.997 1502.13
v 19.733 -128.081 1502.19
v 19.7615 -127.88 1502.18
v 19.8098 -127.974 1502.21
v 19.5318 -128.112 1502.56
v 19.5143 -128.018 1502.59
v 19.5391 -127.822 1502.54
v 19.5204 -127.741 1502.32
v 19.4821 -127.765 1502.41
v 19.6131 -127.906 1502.61
v 19.5415 -127.781 1502.22
v 19.6504 -128.109 1502.56
v 19.6607 -128.004 1502.61
v 19.7135 -127.949 1502.61
v 19.7103 -127.856 1502.58
v 19.7075 -127.796 1502.53
v 19.709 -127.733 1502.34
v 19.7142 -127.739 1502.44
v 19.7627 -128.006 1502.57
v 19.7664 -127.905 1502.57
v 19.7638 -127.841 1502.54
v 19.7572 -127.799 1502.24
v 19.7662 -127.789 1502.49
v 19.8138 -128.075 1502.26
v 19.8158 -128.117 1502.36
v 19.8549 -128.06 1502.36
v 19.8399 -128.056 1502.46
v 19.8406 -127.958 1502.5
v 19.8252 -127.873 1502.25
v 19.8502 -127.872 1502.3
v 19.8216 -127.862 1502.49
v 19.8121 -127.812 1502.3
v 19.8286 -127.815 1502.39
v 19.8609 -127.969 1502.29
v 19.8748 -127.959 1502.4
v -0.224273 -156.04 1489.29
v -0.226335 -151.457 1489.65
v 0.321476 -160.996 1486.94
v 0.168175 -159.086 1488.12
v 0.174197 -158.407 1488.47
v 0.0107611 -157.601 1488.79
v 0.0199566 -156.604 1489.11
v -0.0184976 -152.167 1489.84
v -0.0352933 -144.117 1490.01
v 0.633803 -161.126 1486.86
v 1.31552 -164.164 1484.07
v 1.88388 -165.862 1482.41
v 1.59093 -165.238 1482.9
v 2.47844 -167.476 1480.67
v 2.47844 -167.476 1480.67
v 3.00286 -169.287 1479.14
v 3.06505 -169.34 1479.14
v 3.06505 -169.34 1479.14
v 3.0665 -169.286 1479.08
v 3.0665 -169.286 1479.08
v 3.0665 -169.286 1479.08
v 3.11461 -169.194 1479.05
v 3.06935 -169.35 1479.19
v 3.16079 -169.341 1479.14
v 3.16419 -169.287 1479.07
v 3.21014 -169.234 1479.09
v 3.23089 -169.285 1479.14
v 3.23089 -169.285 1479.14
v 3.21281 -169.324 1479.18
v 3.23758 -169.279 1479.23
v 3.23758 -169.279 1479.23
v 3.20147 -169.159 1479.34
v 3.66639 -135.357 1492.28
v 4.21061 -134.529 1493.14
v 4.52382 -134.579 1493.05
v 19.709 -127.733 1502.34
vn -0.931806 -0.00291932 0.362945
vn -0.996767 0.00589603 -0.0801248
vn -0.930739 0.0255031 0.364793
vn -0.99897 0.0285976 -0.0352343
vn -0.991523 -0.0556348 -0.117414
vn -0.963655 -0.18321 0.194428
vn -0.97809 -0.00870606 -0.208001
vn -0.740423 -0.320975 0.59055
vn -0.816102 0.156056 -0.556439
vn -0.972335 -0.144074 0.18387
vn -0.861758 0.101899 -0.496981
vn -0.618764 -0.297719 0.726976
vn -0.102552 0.256587 -0.961065
vn -0.870622 -0.17808 0.45859
vn -0.436215 -0.253331 0.863446
vn -0.988926 -0.034842 -0.144264
vn -0.828618 0.0699556 -0.555426
vn 0.0692002 0.199451 -0.977461
vn -0.952723 -0.0999487 0.28693
vn -0.145142 -0.196392 0.969724
vn -0.95214 -0.00607591 -0.305602
vn -0.648479 0.0754914 -0.75748
vn -0.115846 0.13192 -0.984468
vn -0.641074 -0.164518 0.749638
vn -0.021099 -0.139674 0.989973
vn -0.46985 -0.125033 0.873847
vn -0.322697 0.0800165 -0.943114
vn 0.318575 0.105959 -0.941957
vn -0.990776 -0.0542827 0.124163
vn -0.777465 0.0321965 -0.628101
vn -0.768996 -0.085766 0.633475
vn 0.467122 -0.0733597 0.881144
vn -0.964664 -0.0376332 0.260781
vn -0.183744 -0.0891694 0.978921
vn -0.953264 -0.00546819 -0.302089
vn 0.00413595 0.0517664 -0.998651
vn 0.593391 0.0522435 -0.803217
vn 0.17529 -0.0470916 0.98339
vn -0.57923 0.0286116 -0.814662
vn -0.771495 -0.0382541 0.635085
vn -0.372408 -0.0456935 0.926943
vn 0.720916 -0.0163289 0.692831
vn -0.265174 0.00115897 -0.9642
vn 0.113243 -0.0114606 0.993501
vn -0.541794 0.000157522 -0.840511
vn -0.522502 -0.00478183 0.852625
vn 0.769996 -0.00485822 -0.63803
vn 0.462546 0.0032571 0.886589
vn -0.156527 0.0159888 0.987544
vn 0.903821 -0.00740113 0.427846
vn -0.669961 0.0283484 0.741855
vn 0.404859 -0.0290644 -0.913917
vn -0.317965 -0.0131731 -0.948011
vn -0.842709 0.00683043 -0.538326
vn -0.917033 0.0476666 0.395952
vn 0.0813061 0.012084 0.996616
vn -0.132202 -0.0135369 -0.99113
vn -0.689586 0.0197189 -0.723936
vn -0.982819 0.0448018 -0.179051
vn -0.396703 0.0305512 0.917438
vn -0.0255976 0.00529848 -0.999658
vn -0.516896 0.0373336 -0.855234
vn -0.91127 0.0626536 -0.407014
vn -0.982045 0.0769933 0.172217
vn -0.724645 0.0824948 -0.684167
vn -0.724725 0.0478609 0.687374
vn -0.951137 0.103807 -0.290795
vn -0.771606 0.137289 -0.621108
vn -0.988583 0.136622 -0.063545
vn -0.892761 -0.369889 0.257216
vn -0.985846 -0.0618204 -0.155841
vn -0.926173 0.108079 -0.361278
vn -0.933299 -0.293667 0.206671
vn -0.644337 -0.520706 0.560085
vn -0.344023 -0.565801 0.749345
vn -0.781287 -0.407459 0.47283
vn -0.990623 -0.136583 0.00348364
vn 0.122706 -0.521803 0.844195
vn -0.415429 0.433629 -0.799615
vn -0.867186 0.17439 -0.46645
vn -0.27028 -0.512059 0.815318
vn 0.780604 -0.234731 0.579274
vn -0.367636 0.40579 -0.836767
vn -0.870689 -0.299839 0.389868
vn -0.61112 -0.438772 0.658795
vn 0.348425 -0.415025 0.840449
vn 0.978405 -0.00141656 0.206691
vn -0.767153 0.219159 -0.602865
vn 0.879136 0.276602 -0.388086
vn -0.313735 -0.444337 0.839127
vn -0.449547 0.323605 -0.832578
vn 0.0323879 0.420045 -0.906925
vn 0.325298 -0.34447 0.880637
vn 0.750168 -0.215596 0.625113
vn 0.648902 0.318934 -0.690802
vn -0.249325 -0.387881 0.887348
vn 0.936685 -0.0509559 0.346445
vn -0.473777 0.262799 -0.840519
vn -0.00254813 -0.314703 0.949187
vn 0.703424 -0.189701 0.684987
vn 0.986307 0.125323 -0.107208
vn 0.458816 -0.23307 0.857418
vn 0.17157 0.268357 -0.947918
vn 0.924295 0.155742 -0.348458
vn 0.621219 -0.141179 0.770815
vn 0.828403 -0.0931213 0.552338
vn 0.982751 0.0210958 0.183726
vn 0.150049 -0.229259 0.96173
vn 0.730913 0.158603 -0.663785
vn 0.993873 0.0746879 -0.0814741
vn 0.441067 -0.133175 0.887539
vn 0.904523 -0.021462 0.425884
vn 0.483884 0.148663 -0.862413
vn 0.860232 0.094989 -0.500977
vn 0.978678 0.00412044 0.20536
vn 0.991701 -0.0133422 -0.12787
vn 0.902662 -0.0362133 -0.428825
vn 0.974482 -0.0270117 0.222835
vn 0.611894 -0.0105807 0.790869
vn 0.995986 -0.0522476 0.0726841
vn 0.774264 -0.0418884 0.631476
vn 0.529123 -0.0409625 -0.847556
vn 0.884256 -0.0553837 -0.463707
vn 0.447173 -0.0233428 0.894143
vn 0.931001 -0.0738177 0.357473
vn 0.342776 -0.0491455 0.938131
vn 0.705063 -0.0689789 0.705781
vn 0.934459 -0.0841328 -0.345988
vn 0.214174 -0.0218177 0.976552
vn -0.311615 0.0754742 -0.947206
vn 0.929533 -0.132737 0.34402
vn 0.235618 0.0119274 -0.971773
vn 0.549978 -0.104947 0.828559
vn -0.171471 -0.0375576 0.984473
vn -0.912362 0.0988697 0.397267
vn -0.636525 0.036017 0.770415
vn 0.0589459 0.0828445 -0.994818
vn -0.483795 0.168202 -0.858866
vn -0.884742 0.202819 -0.419639
vn -0.513945 -0.00278672 0.857818
vn -0.979651 0.180379 0.0880189
vn -0.83565 0.102685 0.539578
vn -0.922939 0.28005 -0.264111
vn -0.969678 -0.244384 0.000765154
vn -0.924956 -0.343862 0.161914
vn -0.816864 0.271234 -0.509083
vn -0.507774 -0.642606 0.57378
vn -0.0856363 -0.668256 0.738986
vn 0.00301185 0.652718 -0.757595
vn -0.584143 -0.582654 0.565059
vn 0.342481 -0.557888 0.755955
vn -0.137002 -0.626573 0.767227
vn -0.247917 0.550524 -0.797158
vn 0.362289 0.608847 -0.705728
vn 0.787203 -0.28859 0.545002
vn 0.562951 0.565547 -0.602696
vn 0.977973 0.203714 -0.0454947
vn 0.2689 -0.538521 0.798554
vn 0.354924 0.570828 -0.740395
vn 0.727727 0.465013 -0.50416
vn 0.950867 0.261769 -0.165313
vn 0.38342 0.535688 -0.752348
vn 0.889649 0.323827 -0.321964
vn 0.970662 -0.0250884 0.239135
vn 0.614077 -0.369802 0.697249
vn 0.68399 0.418192 -0.597723
vn 0.978951 0.175272 -0.104565
vn 0.582086 -0.0240465 -0.812771
vn 0.696483 -0.197964 0.689726
vn 0.797562 -0.0833245 -0.597454
vn 0.979217 -0.193847 0.0596371
vn 0.075798 -0.141979 0.986963
vn 0.614053 -0.246985 0.749624
vn 0.850949 -0.260399 0.456156
vn -0.69005 0.263506 -0.674089
vn -0.243871 0.208275 -0.947179
vn 0.362359 0.0523617 -0.930567
vn 0.344001 -0.223591 0.911959
vn -0.94313 0.212289 0.255809
vn 0.37433 -0.281417 0.883562
vn -0.738581 0.0840455 0.668905
vn -0.30607 -0.0941181 0.947345
vn -0.641966 0.334133 -0.690097
vn -0.904809 0.352252 -0.239247
vn -0.511546 0.527397 -0.67836
vn -0.834451 -0.491866 0.248515
vn -0.980213 -0.119355 -0.157912
vn 0.126183 0.717516 -0.685017
vn -0.425521 -0.690953 0.584394
vn -0.761067 -0.538866 0.361111
vn 0.760099 -0.345254 0.550499
vn 0.965488 0.258501 -0.0317875
vn 0.0936808 -0.677741 0.729309
vn -0.201164 0.648673 -0.734001
vn 0.448752 0.666841 -0.594933
vn 0.529635 -0.501576 0.684038
vn 0.933885 -0.107642 0.340987
vn 0.719893 0.528806 -0.449575
vn 0.974354 0.223356 -0.0273141
vn 0.954099 -0.239182 -0.180239
vn 0.84553 -0.306015 0.437532
vn 0.138119 0.149405 -0.979082
vn 0.65506 -0.0416077 -0.754431
vn 0.889314 -0.361837 0.279632
vn 0.767522 -0.369248 0.523991
vn -0.25321 0.291543 -0.922436
vn 0.205277 0.173681 -0.96317
vn -0.602409 0.400098 -0.69067
vn -0.919959 0.270497 0.283738
vn -0.133636 -0.227367 0.964596
vn -0.844709 0.435674 -0.310894
vn -0.199658 0.344411 -0.917342
vn -0.550803 0.458962 -0.697116
vn -0.67704 0.0619958 0.73333
vn -0.90696 0.421167 -0.00645253
vn -0.498786 -0.704899 0.504312
vn -0.972581 -0.153527 -0.174686
vn -0.821787 -0.519552 0.233947
vn -0.260876 0.648289 -0.715308
vn -0.959298 -0.28176 -0.0189281
vn -0.90604 0.128971 -0.40306
vn -0.553778 -0.674183 0.488679
vn -0.131154 -0.728805 0.672044
vn 0.939535 -0.065212 0.336188
vn 0.930892 0.354952 -0.0863146
vn 0.424707 -0.581225 0.694119
vn 0.920641 -0.27294 -0.27915
vn 0.650912 -0.430033 0.625608
vn 0.898349 -0.390639 0.200922
vn 0.566899 0.0177099 -0.823597
vn 0.812377 -0.163199 -0.559829
vn 0.917847 -0.321956 -0.232168
vn -0.236063 -0.224093 0.945546
vn 0.168755 0.245473 -0.954602
vn -0.267522 0.431055 -0.861756
vn 0.64818 -0.520992 0.555365
vn -0.536943 -0.0562 0.841745
vn 0.188578 -0.413378 0.890818
vn -0.704053 0.521592 -0.481925
vn -0.464947 0.535923 -0.704707
vn -0.865429 0.497123 -0.0624669
vn -0.865058 0.293749 0.406677
vn -0.055983 -0.36702 0.928527
vn -0.849167 -0.502838 0.161459
vn -0.964907 -0.133385 -0.226194
vn -0.487999 0.525542 -0.696895
vn -0.888725 -0.444398 0.112601
vn 0.739727 -0.337741 0.582009
vn -0.783889 0.288993 -0.549546
vn 0.696897 0.617279 -0.365105
vn 0.113159 -0.695227 0.709827
vn 0.142148 0.731994 -0.666317
vn 0.885984 -0.445645 0.128193
vn 0.875532 -0.323255 -0.359096
vn 0.360698 0.197645 -0.911501
vn 0.781193 -0.564893 0.265769
vn -0.0486089 0.408786 -0.911335
vn -0.710232 0.595902 -0.374796
vn -0.406065 0.590215 -0.69768
vn 0.411898 -0.556781 0.721343
vn 0.0346622 0.427179 -0.903502
vn -0.680341 0.0702992 0.729516
vn -0.836425 0.342436 0.427937
vn -0.850749 0.521295 0.0669144
vn -0.346277 0.577833 -0.739054
vn -0.926438 -0.375564 -0.0257932
vn -0.887455 0.0654957 -0.456218
vn -0.129371 -0.731023 0.669976
vn -0.815794 0.214876 -0.536943
vn -0.96143 -0.189829 -0.199042
vn 0.0169948 0.713899 -0.700042
vn 0.244064 -0.55721 0.793694
vn 0.5883 -0.642221 0.491381
vn -0.215349 -0.331975 0.918377
vn 0.848009 -0.34503 -0.402288
vn 0.825821 -0.563532 0.0212389
vn -0.668308 0.663754 -0.335849
vn -0.252103 0.608302 -0.752604
vn -0.696909 0.294665 -0.653828
vn -0.616597 -0.671209 0.411445
vn -0.949643 -0.236975 -0.20499
vn 0.475154 -0.518955 0.710573
vn 0.317101 0.725079 -0.611316
vn 0.921132 -0.0142642 0.388988
vn 0.683447 -0.0785973 -0.725756
vn 0.836261 -0.466675 -0.287892
vn 0.261316 -0.627112 0.733788
vn 0.71315 -0.670945 0.203102
vn 0.276809 0.328231 -0.903129
vn -0.80846 0.575866 0.121538
vn -0.193065 -0.38859 0.900957
vn -0.547117 0.71815 -0.430026
vn -0.121754 0.618004 -0.77669
vn -0.777036 0.287913 0.559751
vn -0.774119 -0.561454 -0.29242
vn -0.873233 -0.0945476 -0.478043
vn -0.642852 0.13756 -0.753538
vn -0.569248 -0.753361 -0.329247
vn -0.664943 -0.0465276 -0.745443
vn -0.272836 0.516568 -0.811615
vn -0.0993176 0.388942 -0.915893
vn -0.889457 -0.45697 0.00675066
vn -0.697177 -0.716798 0.0120107
vn -0.602139 -0.71064 0.363896
vn -0.41425 -0.855202 0.311492
vn -0.151045 -0.764879 0.626216
vn 0.117381 -0.655858 0.745702
vn -0.0385975 0.67145 -0.740044
vn 0.694339 -0.310317 0.649305
vn 0.949839 0.191263 0.247436
vn 0.722057 -0.68627 0.0875559
vn -0.0758796 -0.517479 0.852325
vn 0.456235 -0.73517 0.501374
vn -0.511126 -0.123301 0.850616
vn -0.654436 0.731557 -0.191146
vn -0.375044 0.746227 -0.549988
vn -0.777949 0.591315 0.212468
vn -0.0214091 -0.754855 -0.655542
vn -0.0337968 -0.763801 -0.644566
vn 0.344971 0.6256 -0.699728
vn 0.514046 -0.2251 -0.827699
vn 0.594159 -0.601851 -0.53362
vn 0.737128 0.524079 -0.426594
vn 0.286239 -0.880641 0.377543
vn 0.413934 -0.562366 0.715823
vn 0.546217 -0.837385 -0.0208073
vn 0.887759 -0.458916 -0.0357723
vn 0.936172 0.0577476 0.346768
vn 0.968691 0.246755 -0.0273966
vn 0.808894 -0.55064 -0.206123
vn 0.212836 0.435426 -0.874703
vn 0.50849 0.147654 -0.848314
vn -0.347519 -0.337019 0.875014
vn 0.150986 -0.709826 0.688004
vn -0.0738192 0.657954 -0.749431
vn -0.516161 0.793416 -0.322596
vn -0.700604 0.160255 0.695322
vn 0.767922 -0.311656 -0.559612
vn 0.776737 -0.56948 -0.269022
vn 0.295468 0.415745 -0.860148
vn -0.154666 0.742595 -0.651637
vn -0.744196 0.632175 0.215701
vn -0.0578973 -0.624249 0.779077
vn 0.225367 -0.777227 0.587475
vn -0.520975 0.821023 -0.233468
vn -0.742868 0.373707 0.555419
vn -0.162078 -0.555313 0.815695
vn -0.697682 0.688693 0.197337
vn 0.0812432 0.635876 -0.767503
vn 0.747597 -0.50819 -0.427599
vn 0.69408 -0.703029 -0.154931
vn 0.0414861 -0.727035 0.685346
vn -0.239962 0.822653 -0.515423
vn -0.495524 0.848668 -0.184982
vn 0.607391 0.0123117 -0.794308
vn 0.335625 0.426573 -0.839876
vn -0.723851 0.494762 0.480886
vn -0.637361 0.0677115 0.767585
vn 0.0112549 0.728722 -0.684717
vn 0.699027 -0.305445 -0.646579
vn -0.599831 0.797186 0.0685425
vn -0.303397 -0.48255 0.821642
vn -0.254779 0.869764 -0.422608
vn 0.152504 -0.832898 0.531999
vn 0.509028 0.204399 -0.836129
vn 0.620155 -0.773822 -0.12887
vn 0.210736 0.604304 -0.76838
vn -0.471615 0.878528 -0.0759392
vn -0.693437 0.573477 0.436198
vn 0.650311 -0.670765 -0.35661
vn -0.0847917 0.844427 -0.528917
vn -0.518919 -0.189918 0.833459
vn -0.67684 0.291952 0.67576
vn -0.646772 0.671589 0.361462
vn -0.175289 -0.658825 0.731589
vn 0.314332 -0.911777 0.264305
vn 0.682703 -0.301843 -0.665438
vn -0.491695 0.870193 0.0316242
vn -0.271593 0.916261 -0.294454
vn 0.584744 0.0259702 -0.810802
vn 0.252027 0.600742 -0.758678
vn -0.661292 0.477797 0.578276
vn -0.628197 0.13494 0.766264
vn -0.340435 -0.498501 0.797246
vn -0.585273 0.757391 0.289507
vn -0.0255642 -0.817854 0.574858
vn -0.363788 0.924403 -0.114618
vn -0.0418074 0.856551 -0.514367
vn 0.405944 -0.912837 0.0440203
vn 0.647598 -0.560473 -0.516223
vn -0.21025 -0.671472 0.710578
vn -0.179281 0.930329 -0.319917
vn 0.191091 0.695251 -0.6929
vn -0.466957 0.876403 0.117769
vn -0.612017 0.634016 0.472715
vn -0.635095 0.300918 0.711409
vn 0.48824 -0.854298 -0.178318
vn 0.594412 -0.0667372 -0.801386
vn -0.49148 -0.23353 0.838994
vn 0.154396 -0.929365 0.335325
vn 0.630026 -0.512746 -0.583232
vn 0.427932 0.366557 -0.826142
vn -0.0154087 0.876322 -0.481479
vn 0.358399 -0.933527 0.00880046
vn 0.557064 -0.728159 -0.39933
vn 0.138886 -0.937518 0.319015
vn -0.299841 0.948125 -0.105615
vn -0.522332 0.793363 0.31264
vn -0.589008 0.116592 0.799672
vn -0.610565 0.489086 0.622901
vn -0.17957 -0.720247 0.670074
vn 0.607659 -0.243231 -0.756035
vn 0.455036 0.300894 -0.838096
vn -0.367105 0.928337 0.0585267
vn 0.0955362 -0.928633 0.358488
vn -0.549998 0.677321 0.488609
vn 0.366447 -0.928675 -0.0572596
vn 0.266749 0.610975 -0.745355
vn -0.481759 -0.197926 0.853659
vn -0.0739896 0.918336 -0.388825
vn -0.585121 0.260991 0.7678
vn 0.586995 -0.487657 -0.64624
vn 0.510212 0.107867 -0.853257
vn -0.352062 -0.449301 0.821085
vn 0.321059 -0.94686 -0.019425
vn 0.536227 -0.646066 -0.543194
vn -0.192056 0.959198 -0.207492
vn 0.525336 -0.0516998 -0.849323
vn 0.0258089 -0.894527 0.446269
vn 0.378171 0.397438 -0.83608
vn -0.559051 0.272384 0.783115
vn -0.451149 0.845978 0.284227
vn 0.106681 0.785594 -0.609476
vn -0.296335 0.954896 -0.0189734
vn 0.462769 0.0910545 -0.88179
vn -0.137848 -0.736049 0.662744
vn -0.382296 -0.322389 0.865976
vn 0.0166622 0.847231 -0.530964
vn -0.49015 0.743628 0.45472
vn -0.536004 0.436427 0.722656
vn -0.491877 0.0406021 0.869718
vn 0.538117 -0.373574 -0.755561
vn 0.327496 0.417076 -0.847817
vn 0.443567 -0.832306 -0.332438
vn 0.480194 -0.0966409 -0.871823
vn 0.503913 -0.540707 -0.673578
vn 0.153756 -0.94387 0.29235
vn -0.181295 -0.628808 0.75613
vn -0.498205 0.252001 0.829631
vn -0.395168 -0.1583 0.904867
vn -0.498337 0.614152 0.611946
vn 0.198251 0.554606 -0.808151
vn -0.389692 0.898282 0.203052
vn 0.394149 -0.891029 -0.225197
vn 0.474993 -0.525085 -0.706164
vn -0.467525 0.312366 0.826951
vn -0.212949 -0.494492 0.842692
vn -0.0195634 -0.790395 0.612285
vn -0.119198 0.915992 -0.38308
vn 0.445262 -0.113865 -0.888131
vn -0.357015 -0.120458 0.926299
vn -0.452354 0.759327 0.467759
vn 0.17928 -0.932299 0.314129
vn -0.0015286 -0.75075 0.660584
vn 0.0280202 0.708435 -0.70522
vn -0.201482 -0.408107 0.890423
vn -0.371281 0.097279 0.923411
vn -0.448033 0.566537 0.691594
vn -0.28403 0.950837 -0.12343
vn 0.425452 -0.821346 -0.379976
vn 0.436803 -0.48099 -0.760165
vn 0.351074 0.0021479 -0.936345
vn 0.255376 -0.943371 0.211741
vn -0.194125 -0.32731 0.924761
vn 0.0296372 -0.722767 0.690456
vn -0.365781 0.29528 0.882618
vn 0.421321 -0.904776 -0.0622028
vn 0.320236 -0.875106 0.36282
vn 0.500903 -0.740658 -0.447797
vn 0.531946 -0.667651 0.520841
vn 0.208693 0.415059 -0.885536
vn 0.403383 -0.0838995 -0.911177
vn 0.515679 -0.434556 -0.738401
vn 0.480942 0.300755 -0.823554
vn 0.689986 -0.0903025 -0.718168
vn -0.0599892 -0.46467 0.883449
vn -0.230154 -0.0884784 0.969124
vn -0.238347 0.653812 0.718136
vn -0.164991 0.980083 -0.110526
vn -0.26481 0.911516 0.314667
vn -0.102803 0.231669 0.967347
vn -0.0164969 0.839281 -0.543447
vn 0.191906 -0.623088 0.758244
vn 0.0856882 -0.252426 0.963814
vn 0.299283 0.0621361 0.952139
vn 0.209478 0.463667 0.86089
vn 0.134346 0.763755 0.631371
vn 0.371783 0.890787 -0.261297
vn 0.254427 0.928225 0.271413
vn 0.544927 -0.283489 0.789106
vn 0.593775 0.197459 0.780027
vn 0.522739 0.503675 0.68779
vn 0.386582 0.688357 -0.613774
vn 0.561765 0.692477 0.452655
vn 0.742749 -0.48519 -0.461427
vn 0.656834 -0.75402 -0.00470253
vn 0.921273 -0.380482 -0.0805538
vn 0.83777 -0.403224 0.368174
vn 0.840828 -0.0141504 0.541117
vn 0.768097 0.328891 -0.549416
vn 0.921824 0.325119 -0.211042
vn 0.806049 0.37272 0.459744
vn 0.696295 0.655754 -0.291823
vn 0.779469 0.62086 0.0834264
vn 0.935206 -0.0571666 -0.349459
vn 0.991347 0.0578455 0.117832
vn -0.323833 0.187159 -0.927418
vn 0.374681 0.00626867 -0.927133
vn -0.537504 0.453164 -0.711148
vn 0.227205 0.485052 -0.844454
vn 0.566709 0.395571 -0.722748
vn 0.141525 0.329503 -0.933487
vn 0.719517 0.226989 -0.656332
vn 0.873356 0.0278663 -0.486285
vn -0.427168 0.0181202 0.903991
vn 0.910537 0.341423 -0.233137
vn 0.511577 0.678637 -0.527011
vn 0.96708 0.100105 0.233957
vn 0.640685 0.645024 -0.416492
vn 0.917744 0.397132 -0.00567508
vn 0.766706 0.57951 -0.276279
vn -0.680059 0.0423498 -0.731934
vn -0.00901389 -0.745642 -0.666286
vn -0.012776 -0.983315 -0.181461
vn -0.524299 -0.628812 -0.574201
vn -0.0214091 -0.754855 -0.655542
vn -0.0367482 -0.274243 -0.960958
vn 0.162286 -0.171516 -0.971723
vn 0.0345452 -0.994345 -0.100422
vn 0.322774 -0.915774 -0.239113
vn 0.401068 -0.371889 -0.837164
vn 0.771564 0.37888 -0.511017
vn 0.887759 -0.458916 -0.0357723
vn 0.980758 0.122746 -0.151812
vn 0.887759 -0.458916 -0.0357723
vn 0.993238 0.0629752 0.0975319
vn 0.600892 -0.580082 0.54994
vn 0.602686 -0.404017 0.688142
vn 0.520048 -0.777616 0.353361
vn -0.553191 -0.118012 0.824653
vn 0.366072 -0.835094 0.410621
vn -0.0904543 0.984563 0.149845
g grp1
usemtl mtl1
f 1//1 35//35 33//33 
f 1//1 2//2 35//35 
f 35//35 2//2 54//54 
f 51//51 3//3 1//1 
f 1//1 3//3 2//2 
f 2//2 3//3 4//4 
f 2//2 4//4 54//54 
f 84//84 6//6 5//5 
f 7//7 88//88 5//5 
f 91//91 88//88 9//9 
f 5//5 6//6 7//7 
f 6//6 10//10 7//7 
f 6//6 8//8 10//10 
f 7//7 9//9 88//88 
f 6//6 84//84 8//8 
f 11//11 7//7 10//10 
f 7//7 11//11 9//9 
f 9//9 11//11 91//91 
f 11//11 98//98 91//91 
f 10//10 8//8 12//12 
f 99//99 15//15 12//12 
f 11//11 10//10 16//16 
f 11//11 16//16 17//17 
f 11//11 17//17 98//98 
f 522//522 517//517 13//13 
f 103//103 522//522 13//13 
f 10//10 14//14 16//16 
f 10//10 12//12 14//14 
f 12//12 15//15 14//14 
f 103//103 13//13 18//18 
f 15//15 99//99 108//108 
f 517//517 18//18 13//13 
f 20//20 15//15 108//108 
f 14//14 15//15 24//24 
f 24//24 15//15 20//20 
f 108//108 111//111 20//20 
f 14//14 19//19 16//16 
f 16//16 21//21 17//17 
f 21//21 16//16 19//19 
f 103//103 18//18 109//109 
f 14//14 24//24 19//19 
f 24//24 20//20 25//25 
f 111//111 25//25 20//20 
f 21//21 22//22 17//17 
f 23//23 517//517 22//22 
f 22//22 27//27 23//23 
f 28//28 23//23 27//27 
f 18//18 517//517 23//23 
f 28//28 113//113 23//23 
f 23//23 113//113 18//18 
f 24//24 25//25 26//26 
f 21//21 30//30 22//22 
f 19//19 24//24 31//31 
f 31//31 24//24 26//26 
f 25//25 34//34 26//26 
f 25//25 111//111 32//32 
f 114//114 113//113 28//28 
f 19//19 29//29 21//21 
f 19//19 31//31 29//29 
f 21//21 29//29 35//35 
f 21//21 35//35 30//30 
f 25//25 32//32 34//34 
f 28//28 27//27 36//36 
f 31//31 33//33 29//29 
f 29//29 33//33 35//35 
f 26//26 34//34 31//31 
f 30//30 27//27 22//22 
f 32//32 38//38 34//34 
f 39//39 30//30 35//35 
f 39//39 27//27 30//30 
f 36//36 27//27 39//39 
f 28//28 36//36 37//37 
f 114//114 28//28 37//37 
f 36//36 39//39 45//45 
f 112//112 42//42 32//32 
f 40//40 1//1 33//33 
f 33//33 31//31 40//40 
f 40//40 31//31 41//41 
f 31//31 34//34 41//41 
f 42//42 38//38 32//32 
f 35//35 45//45 39//39 
f 38//38 41//41 34//34 
f 44//44 38//38 42//42 
f 36//36 45//45 43//43 
f 37//37 36//36 518//518 
f 46//46 1//1 40//40 
f 46//46 40//40 41//41 
f 38//38 44//44 41//41 
f 112//112 115//115 42//42 
f 45//45 35//35 54//54 
f 41//41 44//44 46//46 
f 37//37 518//518 47//47 
f 37//37 47//47 524//524 
f 43//43 45//45 53//53 
f 518//518 53//53 52//52 
f 47//47 518//518 52//52 
f 524//524 47//47 116//116 
f 48//48 44//44 42//42 
f 48//48 42//42 50//50 
f 53//53 45//45 54//54 
f 1//1 46//46 51//51 
f 44//44 49//49 46//46 
f 48//48 49//49 44//44 
f 119//119 48//48 50//50 
f 50//50 118//118 119//119 
f 53//53 57//57 52//52 
f 49//49 51//51 46//46 
f 56//56 49//49 48//48 
f 48//48 119//119 56//56 
f 52//52 122//122 117//117 
f 51//51 55//55 3//3 
f 51//51 66//66 55//55 
f 53//53 54//54 58//58 
f 3//3 55//55 4//4 
f 57//57 53//53 58//58 
f 59//59 54//54 4//4 
f 4//4 55//55 59//59 
f 54//54 59//59 58//58 
f 49//49 60//60 51//51 
f 129//129 56//56 119//119 
f 124//124 129//129 119//119 
f 56//56 60//60 49//49 
f 52//52 57//57 122//122 
f 55//55 66//66 64//64 
f 66//66 51//51 60//60 
f 525//525 60//60 56//56 
f 58//58 62//62 57//57 
f 61//61 57//57 62//62 
f 55//55 64//64 59//59 
f 59//59 63//63 58//58 
f 59//59 64//64 63//63 
f 58//58 63//63 62//62 
f 126//126 129//129 124//124 
f 62//62 63//63 65//65 
f 67//67 63//63 64//64 
f 63//63 67//67 65//65 
f 60//60 525//525 66//66 
f 66//66 525//525 136//136 
f 134//134 136//136 525//525 
f 66//66 135//135 64//64 
f 64//64 135//135 69//69 
f 64//64 69//69 67//67 
f 67//67 68//68 65//65 
f 67//67 69//69 68//68 
f 135//135 66//66 136//136 
f 71//71 70//70 73//73 
f 146//146 71//71 72//72 
f 146//146 519//519 153//153 
f 150//150 74//74 70//70 
f 150//150 152//152 74//74 
f 71//71 80//80 72//72 
f 70//70 74//74 73//73 
f 519//519 80//80 153//153 
f 152//152 75//75 74//74 
f 158//158 75//75 152//152 
f 79//79 153//153 80//80 
f 79//79 162//162 153//153 
f 153//153 162//162 159//159 
f 74//74 75//75 76//76 
f 74//74 76//76 73//73 
f 75//75 81//81 76//76 
f 75//75 158//158 78//78 
f 73//73 77//77 71//71 
f 71//71 77//77 80//80 
f 73//73 76//76 77//77 
f 78//78 81//81 75//75 
f 81//81 78//78 86//86 
f 78//78 165//165 86//86 
f 165//165 82//82 86//86 
f 83//83 162//162 79//79 
f 5//5 80//80 77//77 
f 76//76 84//84 77//77 
f 77//77 84//84 5//5 
f 81//81 85//85 76//76 
f 88//88 79//79 80//80 
f 5//5 88//88 80//80 
f 520//520 166//166 162//162 
f 79//79 88//88 83//83 
f 76//76 85//85 84//84 
f 81//81 90//90 85//85 
f 81//81 86//86 90//90 
f 82//82 94//94 86//86 
f 91//91 83//83 88//88 
f 92//92 520//520 91//91 
f 520//520 92//92 166//166 
f 521//521 89//89 166//166 
f 95//95 89//89 521//521 
f 167//167 89//89 87//87 
f 87//87 89//89 101//101 
f 95//95 101//101 89//89 
f 85//85 90//90 84//84 
f 90//90 93//93 96//96 
f 93//93 90//90 86//86 
f 92//92 91//91 98//98 
f 90//90 8//8 84//84 
f 8//8 90//90 96//96 
f 12//12 8//8 96//96 
f 93//93 86//86 94//94 
f 94//94 87//87 97//97 
f 97//97 87//87 101//101 
f 99//99 12//12 96//96 
f 94//94 100//100 93//93 
f 522//522 95//95 521//521 
f 103//103 95//95 522//522 
f 93//93 99//99 96//96 
f 99//99 93//93 102//102 
f 94//94 97//97 100//100 
f 100//100 97//97 106//106 
f 100//100 106//106 102//102 
f 93//93 100//100 102//102 
f 97//97 107//107 106//106 
f 107//107 101//101 104//104 
f 97//97 101//101 107//107 
f 101//101 95//95 104//104 
f 102//102 108//108 99//99 
f 108//108 102//102 105//105 
f 102//102 106//106 105//105 
f 95//95 523//523 104//104 
f 106//106 107//107 112//112 
f 106//106 112//112 105//105 
f 523//523 109//109 104//104 
f 111//111 108//108 105//105 
f 105//105 112//112 111//111 
f 107//107 104//104 110//110 
f 18//18 113//113 109//109 
f 109//109 110//110 104//104 
f 107//107 110//110 112//112 
f 114//114 110//110 109//109 
f 113//113 114//114 109//109 
f 110//110 114//114 112//112 
f 111//111 112//112 32//32 
f 524//524 114//114 37//37 
f 112//112 114//114 115//115 
f 42//42 115//115 50//50 
f 115//115 116//116 50//50 
f 117//117 116//116 47//47 
f 52//52 117//117 47//47 
f 50//50 116//116 118//118 
f 116//116 117//117 118//118 
f 118//118 121//121 119//119 
f 118//118 117//117 120//120 
f 118//118 120//120 121//121 
f 119//119 121//121 124//124 
f 117//117 122//122 123//123 
f 117//117 123//123 120//120 
f 120//120 123//123 128//128 
f 120//120 128//128 125//125 
f 120//120 125//125 121//121 
f 124//124 121//121 126//126 
f 61//61 122//122 57//57 
f 121//121 125//125 127//127 
f 127//127 126//126 121//121 
f 123//123 122//122 128//128 
f 127//127 133//133 126//126 
f 125//125 131//131 133//133 
f 127//127 125//125 133//133 
f 122//122 61//61 132//132 
f 125//125 128//128 131//131 
f 126//126 134//134 129//129 
f 126//126 133//133 134//134 
f 62//62 65//65 130//130 
f 130//130 65//65 68//68 
f 61//61 62//62 130//130 
f 132//132 61//61 130//130 
f 130//130 68//68 138//138 
f 130//130 137//137 132//132 
f 122//122 132//132 168//168 
f 168//168 132//132 137//137 
f 122//122 168//168 128//128 
f 137//137 130//130 138//138 
f 69//69 139//139 68//68 
f 139//139 138//138 68//68 
f 142//142 135//135 136//136 
f 134//134 140//140 136//136 
f 69//69 141//141 139//139 
f 134//134 133//133 172//172 
f 142//142 141//141 135//135 
f 135//135 141//141 69//69 
f 136//136 140//140 142//142 
f 140//140 134//134 172//172 
f 141//141 143//143 139//139 
f 139//139 143//143 175//175 
f 141//141 179//179 143//143 
f 139//139 175//175 138//138 
f 141//141 142//142 179//179 
f 143//143 179//179 184//184 
f 143//143 184//184 183//183 
f 144//144 186//186 190//190 
f 189//189 147//147 190//190 
f 144//144 145//145 146//146 
f 144//144 190//190 145//145 
f 146//146 145//145 71//71 
f 190//190 147//147 145//145 
f 151//151 148//148 196//196 
f 145//145 70//70 71//71 
f 145//145 147//147 150//150 
f 194//194 146//146 149//149 
f 198//198 149//149 154//154 
f 154//154 156//156 198//198 
f 145//145 150//150 70//70 
f 147//147 148//148 150//150 
f 146//146 153//153 149//149 
f 151//151 196//196 155//155 
f 150//150 148//148 152//152 
f 152//152 148//148 151//151 
f 154//154 149//149 153//153 
f 154//154 153//153 159//159 
f 160//160 154//154 159//159 
f 526//526 160//160 157//157 
f 154//154 160//160 156//156 
f 158//158 152//152 151//151 
f 151//151 155//155 158//158 
f 164//164 155//155 157//157 
f 162//162 160//160 159//159 
f 157//157 160//160 161//161 
f 157//157 161//161 164//164 
f 158//158 165//165 78//78 
f 158//158 155//155 165//165 
f 155//155 164//164 165//165 
f 160//160 162//162 163//163 
f 164//164 161//161 163//163 
f 161//161 160//160 163//163 
f 167//167 164//164 163//163 
f 167//167 87//87 164//164 
f 164//164 82//82 165//165 
f 82//82 164//164 87//87 
f 162//162 166//166 163//163 
f 163//163 166//166 167//167 
f 167//167 166//166 89//89 
f 82//82 87//87 94//94 
f 168//168 170//170 128//128 
f 128//128 170//170 171//171 
f 131//131 128//128 171//171 
f 168//168 137//137 177//177 
f 133//133 169//169 172//172 
f 131//131 169//169 133//133 
f 131//131 171//171 169//169 
f 169//169 171//171 174//174 
f 177//177 170//170 168//168 
f 177//177 203//203 170//170 
f 172//172 169//169 178//178 
f 173//173 178//178 169//169 
f 137//137 138//138 176//176 
f 177//177 137//137 176//176 
f 171//171 170//170 200//200 
f 200//200 170//170 203//203 
f 169//169 174//174 173//173 
f 138//138 175//175 176//176 
f 177//177 176//176 202//202 
f 201//201 174//174 171//171 
f 173//173 180//180 178//178 
f 173//173 201//201 180//180 
f 174//174 201//201 173//173 
f 183//183 175//175 143//143 
f 175//175 183//183 176//176 
f 176//176 206//206 202//202 
f 177//177 202//202 203//203 
f 142//142 181//181 179//179 
f 181//181 142//142 140//140 
f 140//140 182//182 181//181 
f 140//140 172//172 182//182 
f 180//180 172//172 178//178 
f 182//182 172//172 180//180 
f 183//183 206//206 176//176 
f 181//181 209//209 179//179 
f 179//179 209//209 184//184 
f 182//182 214//214 181//181 
f 181//181 214//214 209//209 
f 210//210 182//182 180//180 
f 182//182 210//210 214//214 
f 184//184 208//208 183//183 
f 184//184 209//209 211//211 
f 222//222 186//186 218//218 
f 218//218 186//186 220//220 
f 220//220 187//187 221//221 
f 220//220 186//186 187//187 
f 146//146 185//185 221//221 
f 221//221 187//187 146//146 
f 146//146 194//194 185//185 
f 222//222 189//189 186//186 
f 222//222 223//223 189//189 
f 185//185 194//194 188//188 
f 193//193 189//189 223//223 
f 226//226 193//193 223//223 
f 146//146 187//187 144//144 
f 186//186 144//144 187//187 
f 192//192 225//225 195//195 
f 189//189 190//190 186//186 
f 226//226 191//191 193//193 
f 224//224 192//192 191//191 
f 195//195 527//527 188//188 
f 191//191 192//192 197//197 
f 193//193 147//147 189//189 
f 147//147 193//193 148//148 
f 194//194 195//195 188//188 
f 195//195 194//194 149//149 
f 195//195 149//149 198//198 
f 148//148 193//193 196//196 
f 193//193 191//191 196//196 
f 192//192 195//195 198//198 
f 191//191 197//197 196//196 
f 197//197 192//192 199//199 
f 199//199 192//192 198//198 
f 196//196 197//197 155//155 
f 155//155 197//197 157//157 
f 157//157 198//198 526//526 
f 199//199 198//198 157//157 
f 199//199 157//157 197//197 
f 201//201 171//171 200//200 
f 203//203 227//227 200//200 
f 201//201 205//205 180//180 
f 204//204 201//201 200//200 
f 205//205 201//201 204//204 
f 200//200 229//229 204//204 
f 200//200 227//227 229//229 
f 202//202 206//206 207//207 
f 203//203 202//202 207//207 
f 228//228 180//180 205//205 
f 204//204 228//228 205//205 
f 204//204 229//229 228//228 
f 180//180 228//228 210//210 
f 183//183 208//208 206//206 
f 207//207 206//206 212//212 
f 206//206 208//208 212//212 
f 203//203 207//207 230//230 
f 184//184 211//211 208//208 
f 208//208 213//213 212//212 
f 208//208 211//211 213//213 
f 213//213 235//235 212//212 
f 214//214 210//210 237//237 
f 210//210 233//233 237//237 
f 235//235 213//213 239//239 
f 242//242 209//209 214//214 
f 214//214 237//237 242//242 
f 209//209 215//215 211//211 
f 211//211 215//215 239//239 
f 213//213 211//211 239//239 
f 242//242 215//215 209//209 
f 241//241 239//239 215//215 
f 215//215 242//242 241//241 
f 216//216 218//218 247//247 
f 247//247 218//218 217//217 
f 268//268 251//251 216//216 
f 249//249 221//221 185//185 
f 217//217 221//221 249//249 
f 188//188 252//252 219//219 
f 188//188 527//527 529//529 
f 529//529 527//527 250//250 
f 217//217 220//220 221//221 
f 220//220 217//217 218//218 
f 219//219 249//249 185//185 
f 216//216 222//222 218//218 
f 216//216 223//223 222//222 
f 251//251 223//223 216//216 
f 223//223 251//251 226//226 
f 251//251 248//248 226//226 
f 248//248 224//224 226//226 
f 219//219 185//185 188//188 
f 226//226 224//224 191//191 
f 224//224 225//225 192//192 
f 229//229 227//227 253//253 
f 229//229 253//253 228//228 
f 236//236 228//228 253//253 
f 212//212 234//234 207//207 
f 230//230 207//207 234//234 
f 231//231 227//227 203//203 
f 230//230 231//231 203//203 
f 231//231 254//254 232//232 
f 210//210 228//228 238//238 
f 253//253 227//227 232//232 
f 227//227 231//231 232//232 
f 234//234 212//212 235//235 
f 230//230 254//254 231//231 
f 237//237 233//233 243//243 
f 238//238 233//233 210//210 
f 243//243 233//233 238//238 
f 236//236 238//238 228//228 
f 239//239 241//241 258//258 
f 240//240 239//239 258//258 
f 239//239 240//240 235//235 
f 234//234 235//235 257//257 
f 257//257 235//235 240//240 
f 264//264 258//258 241//241 
f 242//242 264//264 241//241 
f 263//263 264//264 242//242 
f 260//260 243//243 238//238 
f 269//269 270//270 245//245 
f 244//244 245//245 270//270 
f 280//280 216//216 244//244 
f 247//247 245//245 244//244 
f 216//216 247//247 244//244 
f 269//269 245//245 249//249 
f 269//269 249//249 246//246 
f 219//219 271//271 246//246 
f 252//252 271//271 219//219 
f 280//280 268//268 216//216 
f 251//251 268//268 282//282 
f 248//248 251//251 282//282 
f 217//217 245//245 247//247 
f 245//245 217//217 249//249 
f 219//219 246//246 249//249 
f 224//224 248//248 528//528 
f 528//528 225//225 224//224 
f 254//254 253//253 232//232 
f 236//236 260//260 238//238 
f 236//236 256//256 260//260 
f 230//230 234//234 255//255 
f 234//234 257//257 255//255 
f 254//254 230//230 285//285 
f 256//256 273//273 260//260 
f 253//253 256//256 236//236 
f 257//257 240//240 259//259 
f 259//259 261//261 257//257 
f 259//259 240//240 258//258 
f 255//255 257//257 261//261 
f 237//237 262//262 242//242 
f 242//242 262//262 263//263 
f 243//243 274//274 237//237 
f 274//274 262//262 237//237 
f 272//272 243//243 260//260 
f 274//274 243//243 272//272 
f 260//260 273//273 272//272 
f 259//259 258//258 277//277 
f 264//264 277//277 258//258 
f 259//259 278//278 261//261 
f 255//255 261//261 289//289 
f 262//262 294//294 263//263 
f 290//290 264//264 263//263 
f 263//263 294//294 290//290 
f 280//280 266//266 281//281 
f 281//281 267//267 279//279 
f 281//281 266//266 267//267 
f 279//279 267//267 265//265 
f 269//269 265//265 267//267 
f 265//265 269//269 246//246 
f 265//265 246//246 271//271 
f 308//308 279//279 265//265 
f 308//308 265//265 283//283 
f 271//271 283//283 265//265 
f 266//266 280//280 244//244 
f 270//270 267//267 266//266 
f 244//244 270//270 266//266 
f 269//269 267//267 270//270 
f 282//282 284//284 248//248 
f 284//284 530//530 528//528 
f 248//248 284//284 528//528 
f 252//252 283//283 271//271 
f 531//531 529//529 250//250 
f 256//256 253//253 254//254 
f 285//285 275//275 254//254 
f 255//255 285//285 230//230 
f 276//276 256//256 254//254 
f 254//254 275//275 276//276 
f 276//276 273//273 256//256 
f 259//259 277//277 278//278 
f 255//255 289//289 285//285 
f 275//275 285//285 286//286 
f 274//274 314//314 262//262 
f 314//314 294//294 262//262 
f 274//274 272//272 287//287 
f 287//287 272//272 273//273 
f 276//276 275//275 286//286 
f 278//278 289//289 261//261 
f 290//290 277//277 264//264 
f 292//292 277//277 290//290 
f 293//293 278//278 292//292 
f 278//278 277//277 292//292 
f 282//282 309//309 284//284 
f 284//284 309//309 310//310 
f 284//284 310//310 530//530 
f 288//288 273//273 276//276 
f 276//276 286//286 288//288 
f 291//291 274//274 287//287 
f 291//291 314//314 274//274 
f 288//288 287//287 273//273 
f 288//288 313//313 287//287 
f 288//288 311//311 313//313 
f 330//330 288//288 286//286 
f 289//289 278//278 293//293 
f 292//292 290//290 315//315 
f 315//315 290//290 317//317 
f 295//295 303//303 302//302 
f 296//296 299//299 532//532 
f 295//295 302//302 296//296 
f 296//296 302//302 281//281 
f 298//298 305//305 303//303 
f 295//295 298//298 303//303 
f 298//298 295//295 535//535 
f 296//296 297//297 299//299 
f 299//299 297//297 301//301 
f 301//301 297//297 300//300 
f 533//533 536//536 318//318 
f 534//534 540//540 539//539 
f 318//318 536//536 319//319 
f 541//541 537//537 538//538 
f 320//320 301//301 300//300 
f 320//320 300//300 308//308 
f 281//281 302//302 280//280 
f 281//281 279//279 296//296 
f 304//304 280//280 302//302 
f 279//279 297//297 296//296 
f 303//303 304//304 302//302 
f 300//300 297//297 279//279 
f 303//303 305//305 304//304 
f 305//305 306//306 304//304 
f 280//280 304//304 306//306 
f 307//307 280//280 306//306 
f 540//540 324//324 539//539 
f 305//305 324//324 306//306 
f 325//325 306//306 324//324 
f 325//325 307//307 306//306 
f 320//320 308//308 283//283 
f 300//300 279//279 308//308 
f 307//307 325//325 309//309 
f 328//328 310//310 309//309 
f 325//325 548//548 309//309 
f 268//268 280//280 307//307 
f 268//268 307//307 282//282 
f 307//307 309//309 282//282 
f 311//311 288//288 330//330 
f 330//330 286//286 338//338 
f 285//285 338//338 286//286 
f 313//313 312//312 287//287 
f 287//287 312//312 291//291 
f 312//312 313//313 334//334 
f 312//312 314//314 291//291 
f 330//330 339//339 311//311 
f 549//549 313//313 311//311 
f 316//316 293//293 292//292 
f 316//316 292//292 315//315 
f 293//293 331//331 289//289 
f 317//317 290//290 294//294 
f 541//541 322//322 540//540 
f 322//322 326//326 540//540 
f 321//321 541//541 538//538 
f 541//541 321//321 322//322 
f 301//301 320//320 542//542 
f 327//327 545//545 543//543 
f 544//544 542//542 329//329 
f 544//544 329//329 546//546 
f 323//323 329//329 542//542 
f 320//320 323//323 542//542 
f 329//329 323//323 530//530 
f 324//324 540//540 326//326 
f 326//326 547//547 324//324 
f 547//547 325//325 324//324 
f 323//323 320//320 283//283 
f 325//325 547//547 548//548 
f 328//328 546//546 329//329 
f 329//329 310//310 328//328 
f 329//329 530//530 310//310 
f 338//338 339//339 330//330 
f 333//333 314//314 312//312 
f 313//313 549//549 334//334 
f 315//315 317//317 336//336 
f 336//336 316//316 315//315 
f 331//331 332//332 289//289 
f 335//335 293//293 316//316 
f 285//285 289//289 332//332 
f 338//338 285//285 332//332 
f 335//335 331//331 293//293 
f 314//314 337//337 294//294 
f 337//337 317//317 294//294 
f 337//337 314//314 333//333 
f 333//333 312//312 334//334 
f 347//347 333//333 334//334 
f 550//550 337//337 333//333 
f 316//316 336//336 335//335 
f 335//335 336//336 341//341 
f 337//337 342//342 317//317 
f 339//339 338//338 350//350 
f 347//347 334//334 343//343 
f 351//351 339//339 350//350 
f 335//335 340//340 331//331 
f 331//331 340//340 332//332 
f 341//341 336//336 345//345 
f 336//336 317//317 342//342 
f 345//345 336//336 342//342 
f 340//340 335//335 341//341 
f 337//337 346//346 342//342 
f 345//345 342//342 348//348 
f 348//348 342//342 346//346 
f 338//338 332//332 355//355 
f 343//343 334//334 344//344 
f 352//352 343//343 344//344 
f 549//549 551//551 334//334 
f 551//551 344//344 334//334 
f 344//344 551//551 352//352 
f 351//351 350//350 366//366 
f 338//338 355//355 350//350 
f 341//341 349//349 340//340 
f 340//340 355//355 332//332 
f 352//352 347//347 343//343 
f 355//355 360//360 350//350 
f 346//346 357//357 348//348 
f 349//349 341//341 353//353 
f 353//353 341//341 345//345 
f 345//345 348//348 354//354 
f 361//361 354//354 348//348 
f 353//353 345//345 354//354 
f 363//363 353//353 354//354 
f 361//361 363//363 354//354 
f 551//551 364//364 352//352 
f 551//551 366//366 364//364 
f 356//356 340//340 349//349 
f 340//340 356//356 355//355 
f 346//346 358//358 357//357 
f 337//337 358//358 346//346 
f 358//358 337//337 550//550 
f 347//347 352//352 362//362 
f 358//358 550//550 362//362 
f 348//348 357//357 361//361 
f 349//349 353//353 359//359 
f 359//359 353//353 363//363 
f 369//369 357//357 358//358 
f 360//360 366//366 350//350 
f 349//349 359//359 356//356 
f 369//369 358//358 373//373 
f 369//369 361//361 357//357 
f 358//358 362//362 372//372 
f 358//358 372//372 373//373 
f 352//352 364//364 362//362 
f 356//356 365//365 355//355 
f 365//365 360//360 355//355 
f 368//368 363//363 361//361 
f 361//361 369//369 368//368 
f 366//366 360//360 370//370 
f 359//359 367//367 356//356 
f 367//367 365//365 356//356 
f 380//380 377//377 360//360 
f 365//365 380//380 360//360 
f 359//359 363//363 367//367 
f 362//362 364//364 375//375 
f 362//362 375//375 372//372 
f 363//363 368//368 371//371 
f 368//368 369//369 374//374 
f 367//367 363//363 371//371 
f 369//369 373//373 374//374 
f 377//377 370//370 360//360 
f 376//376 375//375 364//364 
f 376//376 364//364 366//366 
f 372//372 383//383 373//373 
f 383//383 372//372 399//399 
f 366//366 370//370 376//376 
f 375//375 376//376 386//386 
f 367//367 380//380 365//365 
f 372//372 375//375 384//384 
f 372//372 384//384 399//399 
f 373//373 383//383 382//382 
f 373//373 382//382 374//374 
f 375//375 386//386 384//384 
f 378//378 374//374 385//385 
f 368//368 374//374 378//378 
f 371//371 368//368 379//379 
f 379//379 368//368 378//378 
f 374//374 382//382 385//385 
f 376//376 389//389 386//386 
f 378//378 385//385 387//387 
f 378//378 387//387 379//379 
f 381//381 380//380 367//367 
f 367//367 371//371 381//381 
f 388//388 379//379 387//387 
f 371//371 379//379 388//388 
f 389//389 376//376 370//370 
f 381//381 371//371 388//388 
f 380//380 381//381 402//402 
f 399//399 396//396 383//383 
f 382//382 383//383 396//396 
f 377//377 390//390 370//370 
f 370//370 390//390 389//389 
f 391//391 384//384 386//386 
f 388//388 387//387 392//392 
f 393//393 381//381 388//388 
f 389//389 390//390 397//397 
f 377//377 380//380 390//390 
f 402//402 381//381 393//393 
f 398//398 380//380 402//402 
f 385//385 382//382 395//395 
f 386//386 389//389 400//400 
f 391//391 386//386 400//400 
f 392//392 387//387 394//394 
f 387//387 385//385 394//394 
f 384//384 391//391 399//399 
f 391//391 400//400 411//411 
f 399//399 391//391 411//411 
f 388//388 392//392 393//393 
f 392//392 403//403 393//393 
f 385//385 395//395 394//394 
f 382//382 396//396 395//395 
f 380//380 401//401 390//390 
f 390//390 401//401 397//397 
f 397//397 400//400 389//389 
f 398//398 401//401 380//380 
f 402//402 413//413 398//398 
f 409//409 396//396 399//399 
f 396//396 409//409 410//410 
f 396//396 410//410 395//395 
f 392//392 394//394 407//407 
f 403//403 392//392 407//407 
f 412//412 401//401 398//398 
f 413//413 412//412 398//398 
f 413//413 402//402 393//393 
f 397//397 404//404 400//400 
f 397//397 405//405 404//404 
f 401//401 405//405 397//397 
f 400//400 404//404 406//406 
f 394//394 395//395 408//408 
f 395//395 410//410 408//408 
f 400//400 406//406 411//411 
f 407//407 394//394 408//408 
f 401//401 412//412 405//405 
f 405//405 417//417 404//404 
f 404//404 417//417 406//406 
f 412//412 422//422 405//405 
f 408//408 414//414 407//407 
f 408//408 416//416 414//414 
f 416//416 408//408 410//410 
f 417//417 405//405 422//422 
f 412//412 413//413 423//423 
f 409//409 399//399 419//419 
f 419//419 399//399 411//411 
f 418//418 393//393 403//403 
f 407//407 414//414 420//420 
f 407//407 420//420 403//403 
f 418//418 403//403 420//420 
f 414//414 427//427 420//420 
f 415//415 411//411 406//406 
f 406//406 417//417 415//415 
f 418//418 413//413 393//393 
f 418//418 423//423 413//413 
f 410//410 409//409 421//421 
f 421//421 409//409 419//419 
f 410//410 421//421 416//416 
f 417//417 429//429 415//415 
f 423//423 422//422 412//412 
f 422//422 426//426 417//417 
f 415//415 429//429 411//411 
f 426//426 425//425 417//417 
f 425//425 429//429 417//417 
f 419//419 431//431 421//421 
f 414//414 416//416 432//432 
f 427//427 414//414 432//432 
f 423//423 428//428 422//422 
f 428//428 426//426 422//422 
f 423//423 418//418 430//430 
f 416//416 421//421 431//431 
f 416//416 431//431 432//432 
f 411//411 424//424 419//419 
f 425//425 447//447 429//429 
f 426//426 428//428 442//442 
f 430//430 428//428 423//423 
f 411//411 429//429 424//424 
f 431//431 419//419 424//424 
f 427//427 432//432 434//434 
f 420//420 433//433 418//418 
f 418//418 433//433 430//430 
f 440//440 439//439 431//431 
f 432//432 431//431 439//439 
f 433//433 420//420 427//427 
f 430//430 433//433 443//443 
f 433//433 427//427 438//438 
f 427//427 434//434 438//438 
f 430//430 443//443 428//428 
f 432//432 439//439 434//434 
f 443//443 435//435 428//428 
f 428//428 435//435 442//442 
f 431//431 424//424 437//437 
f 424//424 429//429 436//436 
f 436//436 437//437 424//424 
f 431//431 437//437 441//441 
f 429//429 447//447 436//436 
f 431//431 441//441 440//440 
f 451//451 439//439 440//440 
f 439//439 453//453 434//434 
f 453//453 439//439 451//451 
f 449//449 451//451 440//440 
f 440//440 441//441 449//449 
f 425//425 426//426 444//444 
f 426//426 442//442 444//444 
f 435//435 445//445 442//442 
f 443//443 433//433 438//438 
f 445//445 435//435 443//443 
f 436//436 448//448 437//437 
f 444//444 442//442 446//446 
f 444//444 447//447 425//425 
f 446//446 442//442 445//445 
f 460//460 446//446 445//445 
f 448//448 436//436 447//447 
f 460//460 445//445 443//443 
f 443//443 452//452 460//460 
f 437//437 448//448 450//450 
f 450//450 441//441 437//437 
f 441//441 450//450 449//449 
f 449//449 450//450 456//456 
f 438//438 434//434 459//459 
f 438//438 452//452 443//443 
f 452//452 438//438 459//459 
f 446//446 454//454 444//444 
f 455//455 446//446 460//460 
f 444//444 454//454 447//447 
f 446//446 455//455 454//454 
f 458//458 448//448 447//447 
f 457//457 448//448 458//458 
f 472//472 460//460 452//452 
f 459//459 434//434 453//453 
f 457//457 450//450 448//448 
f 462//462 453//453 451//451 
f 451//451 449//449 456//456 
f 463//463 447//447 454//454 
f 463//463 458//458 447//447 
f 456//456 462//462 451//451 
f 450//450 461//461 456//456 
f 452//452 459//459 465//465 
f 452//452 465//465 472//472 
f 459//459 453//453 469//469 
f 463//463 464//464 458//458 
f 458//458 464//464 457//457 
f 455//455 470//470 454//454 
f 457//457 461//461 450//450 
f 462//462 456//456 468//468 
f 461//461 467//467 456//456 
f 455//455 460//460 472//472 
f 470//470 473//473 454//454 
f 454//454 473//473 463//463 
f 466//466 457//457 464//464 
f 473//473 464//464 463//463 
f 465//465 459//459 469//469 
f 468//468 456//456 467//467 
f 466//466 461//461 457//457 
f 466//466 467//467 461//461 
f 464//464 473//473 475//475 
f 464//464 475//475 466//466 
f 467//467 466//466 474//474 
f 466//466 475//475 474//474 
f 453//453 462//462 469//469 
f 492//492 481//481 465//465 
f 492//492 465//465 469//469 
f 455//455 471//471 470//470 
f 472//472 471//471 455//455 
f 481//481 472//472 465//465 
f 474//474 475//475 486//486 
f 468//468 467//467 476//476 
f 487//487 467//467 474//474 
f 476//476 467//467 487//487 
f 487//487 474//474 486//486 
f 488//488 468//468 476//476 
f 462//462 468//468 490//490 
f 488//488 490//490 468//468 
f 492//492 469//469 489//489 
f 489//489 469//469 490//490 
f 469//469 462//462 490//490 
f 471//471 479//479 470//470 
f 473//473 478//478 475//475 
f 475//475 478//478 493//493 
f 486//486 475//475 493//493 
f 479//479 477//477 470//470 
f 470//470 477//477 473//473 
f 477//477 478//478 473//473 
f 506//506 478//478 477//477 
f 506//506 480//480 478//478 
f 477//477 479//479 506//506 
f 480//480 506//506 508//508 
f 481//481 482//482 472//472 
f 503//503 481//481 492//492 
f 482//482 471//471 472//472 
f 479//479 471//471 483//483 
f 482//482 483//483 471//471 
f 482//482 481//481 484//484 
f 503//503 484//484 481//481 
f 479//479 483//483 505//505 
f 485//485 483//483 482//482 
f 483//483 485//485 505//505 
f 484//484 485//485 482//482 
f 485//485 484//484 510//510 
f 484//484 503//503 510//510 
f 485//485 515//515 505//505 
f 510//510 515//515 485//485 
f 493//493 494//494 486//486 
f 494//494 487//487 486//486 
f 494//494 491//491 487//487 
f 491//491 476//476 487//487 
f 476//476 491//491 488//488 
f 488//488 496//496 497//497 
f 496//496 488//488 491//491 
f 497//497 490//490 488//488 
f 503//503 492//492 498//498 
f 492//492 489//489 498//498 
f 494//494 495//495 491//491 
f 495//495 496//496 491//491 
f 497//497 499//499 490//490 
f 480//480 493//493 478//478 
f 500//500 493//493 480//480 
f 493//493 500//500 494//494 
f 494//494 500//500 495//495 
f 500//500 501//501 495//495 
f 501//501 496//496 495//495 
f 501//501 502//502 496//496 
f 502//502 504//504 497//497 
f 502//502 497//497 496//496 
f 504//504 499//499 497//497 
f 505//505 506//506 479//479 
f 508//508 500//500 480//480 
f 501//501 509//509 512//512 
f 500//500 509//509 501//501 
f 501//501 512//512 502//502 
f 512//512 504//504 502//502 
f 503//503 498//498 513//513 
f 503//503 513//513 510//510 
f 506//506 505//505 507//507 
f 506//506 507//507 508//508 
f 507//507 505//505 515//515 
f 516//516 509//509 508//508 
f 509//509 500//500 508//508 
f 516//516 512//512 509//509 
f 515//515 510//510 511//511 
f 511//511 516//516 515//515 
f 516//516 511//511 514//514 
f 504//504 512//512 514//514 
f 514//514 512//512 516//516 
f 511//511 510//510 513//513 
f 514//514 511//511 513//513 
f 498//498 514//514 513//513 
f 499//499 514//514 498//498 
f 504//504 514//514 499//499 
f 507//507 515//515 516//516 
f 507//507 516//516 508//508 
f 490//490 552//552 489//489 
f 552//552 490//490 499//499 
