#
# Compatibility version : 4.3
# File ID : FJ3991
# Representation ID : BP28993
# Build-up logic : FMA 3.0 is_a
# Concept ID : FMA52939
# English name : Right middle superior alveolar nerve
# Bounds(mm): (-28.855500,-164.280000,1465.805400)-(-21.554000,-138.530400,1505.011800)
# Volume(cm3): 0.014400
#
v -28.806 -139.076 1504.53
v -28.7693 -139.187 1503.85
v -28.8451 -138.911 1504.7
v -28.8167 -138.882 1504.43
v -28.8291 -138.809 1504.71
v -28.6835 -139.283 1504.34
v -28.5343 -139.336 1504.39
v -28.7884 -138.997 1504.83
v -28.8107 -138.903 1504.81
v -28.76 -139.056 1504.82
v -28.7737 -138.899 1504.87
v -28.7227 -138.999 1504.9
v -28.7205 -138.896 1504.92
v -28.6705 -139.134 1504.83
v -28.6359 -138.89 1504.97
v -28.6193 -139.056 1504.93
v -28.627 -138.987 1504.96
v -28.5742 -138.894 1504.99
v -28.5273 -139.15 1504.88
v -28.5268 -138.99 1504.99
v -28.5252 -138.84 1505
v -28.4531 -139.249 1504.66
v -28.4251 -139.146 1504.88
v -28.4755 -139.047 1504.97
v -28.474 -138.895 1505.01
v -28.7549 -138.804 1504.35
v -28.7792 -138.711 1504.72
v -28.7252 -138.648 1504.71
v -28.7202 -138.656 1504.76
v -28.6755 -138.619 1504.76
v -28.6464 -138.696 1504.34
v -28.6747 -138.607 1504.65
v -28.6209 -138.578 1504.71
v -28.5459 -138.64 1504.35
v -28.5774 -138.559 1504.65
v -28.5254 -138.544 1504.71
v -28.4762 -138.536 1504.65
v -28.7915 -138.802 1504.82
v -28.7512 -138.799 1504.87
v -28.7364 -138.705 1504.82
v -28.6835 -138.652 1504.81
v -28.6748 -138.796 1504.94
v -28.6768 -138.701 1504.88
v -28.6195 -138.797 1504.96
v -28.6201 -138.698 1504.91
v -28.6241 -138.611 1504.81
v -28.6274 -138.647 1504.86
v -28.5709 -138.621 1504.86
v -28.5237 -138.745 1504.97
v -28.5268 -138.574 1504.8
v -28.4769 -138.65 1504.92
v -28.1072 -141.104 1499.15
v -28.1202 -140.611 1498.93
v -28.33 -140.415 1499.93
v -28.2866 -140.303 1499.97
v -28.3397 -139.888 1500.98
v -28.1886 -139.92 1500.67
v -28.1674 -139.513 1501.74
v -28.3011 -139.27 1504.52
v -28.2129 -139.176 1504.63
v -28.1296 -139.155 1504.48
v -28.084 -139.028 1504.56
v -28.0339 -138.993 1504.33
v -28.4226 -138.99 1504.99
v -28.4242 -138.836 1505
v -28.3213 -139.118 1504.87
v -28.3306 -139.046 1504.94
v -28.3256 -138.99 1504.97
v -28.3319 -138.895 1504.99
v -28.3278 -138.841 1504.99
v -28.2757 -138.995 1504.94
v -28.2774 -138.943 1504.96
v -28.2745 -138.845 1504.97
v -28.2281 -139.048 1504.87
v -28.2268 -138.95 1504.93
v -28.1659 -138.954 1504.86
v -28.1773 -138.848 1504.9
v -28.1166 -138.902 1504.81
v -28.4047 -138.616 1504.36
v -28.4243 -138.546 1504.76
v -28.3764 -138.538 1504.65
v -28.2968 -138.648 1504.31
v -28.28 -138.567 1504.7
v -28.2107 -138.648 1504.44
v -28.2207 -138.596 1504.7
v -28.1256 -138.709 1504.76
v -28.154 -138.698 1504.41
v -28.1454 -138.66 1504.7
v -28.1655 -138.655 1504.76
v -28.0713 -138.819 1504.55
v -28.0726 -138.817 1504.35
v -28.4237 -138.7 1504.96
v -28.4285 -138.593 1504.86
v -28.3256 -138.747 1504.96
v -28.3319 -138.649 1504.9
v -28.3257 -138.582 1504.81
v -28.2321 -138.749 1504.92
v -28.2731 -138.697 1504.91
v -28.2755 -138.649 1504.88
v -28.2248 -138.697 1504.88
v -28.2273 -138.628 1504.81
v -28.171 -138.751 1504.87
v -28.1578 -138.703 1504.82
v -28.1167 -138.802 1504.81
v -27.6809 -142.72 1493.76
v -27.8277 -142.288 1495.03
v -27.6726 -142.044 1496.73
v -27.7202 -142.148 1494.85
v -27.6797 -141.869 1495.36
v -27.9386 -141.653 1496.39
v -27.9955 -141.784 1496.61
v -28.0756 -141.503 1497.63
v -27.8772 -141.43 1496.66
v -27.962 -140.807 1498.21
v -27.7437 -140.702 1498.36
v -28.0161 -140.915 1499.85
v -27.9605 -140.763 1500.29
v -27.9153 -140.528 1498.87
v -27.7761 -140.615 1500.47
v -27.7677 -140.101 1500.21
v -27.9771 -139.822 1500.87
v -27.9168 -139.395 1502.46
v -27.2517 -144.117 1490.13
v -27.3349 -144.139 1490.43
v -27.3004 -144.337 1490.48
v -27.4193 -143.883 1491.19
v -27.2785 -143.609 1491.1
v -27.3254 -143.633 1492.57
v -27.4679 -143.45 1492.86
v -27.484 -143.169 1492.37
v -27.6031 -143.152 1493.38
v -27.3159 -142.901 1492.63
v -27.5096 -142.663 1493.39
v -27.374 -142.924 1494.41
v -27.2953 -142.783 1494.73
v -27.5788 -142.678 1494.99
v -27.3708 -142.517 1493.56
v -27.4827 -142.276 1494.21
v -27.385 -142.243 1494.23
v -27.3715 -141.943 1495
v -27.2815 -141.941 1495.07
v -27.3792 -142.038 1496.56
v -27.5944 -141.856 1497.22
v -27.6317 -141.567 1496.03
v -27.538 -141.52 1496.12
v -27.2413 -141.556 1496.56
v -27.3824 -141.335 1496.8
v -27.5345 -141.052 1497.46
v -27.4507 -140.904 1498.19
v -27.5089 -140.878 1499.22
v -27.5788 -140.589 1498.93
v -27.5329 -140.585 1499.18
v -27.5226 -140.616 1499.56
v -27.6144 -140.278 1500.3
v -26.8488 -146.279 1486.14
v -26.8899 -146.12 1486.27
v -26.8534 -146.137 1486
v -26.8373 -146.027 1486.06
v -27.0414 -145.183 1487.88
v -26.9777 -145.202 1487.66
v -26.8619 -145.079 1487.68
v -27.1812 -144.87 1489.02
v -27.1667 -144.902 1489.14
v -27.0966 -145.088 1488.88
v -27.0313 -145.081 1489.08
v -27.0274 -144.641 1488.73
v -26.9223 -144.552 1488.77
v -27.0797 -144.577 1490.32
v -27.2342 -144.343 1490.72
v -26.9287 -144.159 1489.59
v -26.9632 -144.383 1490.83
v -27.1714 -143.688 1490.79
v -27.0843 -143.622 1490.85
v -26.9821 -143.628 1490.8
v -27.216 -143.682 1492.51
v -26.8484 -143.543 1492.46
v -26.8709 -143.128 1492.22
v -27.1171 -143.414 1493.12
v -27.0685 -142.981 1492.38
v -26.9843 -142.975 1492.46
v -27.2184 -142.901 1492.57
v -27.1856 -142.768 1492.89
v -26.8762 -142.938 1493.47
v -27.1723 -142.798 1494.56
v -27.0267 -142.526 1493.73
v -27.2151 -142.353 1493.96
v -27.1291 -142.335 1494.11
v -26.9584 -142.595 1493.78
v -27.0605 -142.173 1495.1
v -27.168 -142.31 1495.56
v -27.2224 -141.791 1495.67
v -26.5359 -147.435 1483.4
v -26.5193 -147.304 1483.51
v -26.4363 -147.366 1483.24
v -26.7177 -146.834 1484.94
v -26.6317 -146.992 1484.91
v -26.5471 -146.84 1485.41
v -26.6138 -146.341 1485.12
v -26.779 -145.868 1486.16
v -26.6295 -145.792 1486.1
v -26.725 -145.755 1486.26
v -26.524 -145.767 1486.09
v -26.5259 -145.653 1487.9
v -26.8136 -145.589 1488.07
v -26.7237 -145.141 1487.43
v -26.6195 -145.077 1487.53
v -26.5219 -145.092 1487.53
v -26.4769 -145.048 1488.96
v -26.5332 -144.756 1488.32
v -26.7329 -144.683 1488.39
v -26.6274 -144.712 1488.34
v -26.4652 -144.613 1488.86
v -26.696 -144.655 1490.05
v -26.7744 -144.143 1489.62
v -26.6345 -144.092 1489.91
v -26.827 -143.647 1490.83
v -26.6815 -143.652 1491.18
v -26.6494 -143.729 1491.34
v -26.07 -149.468 1479.68
v -26.079 -148.999 1480.3
v -26.0724 -149.186 1480.85
v -26.1917 -148.961 1481.12
v -26.0698 -149.007 1481.21
v -26.0414 -149.004 1481.27
v -26.0335 -148.978 1481.39
v -26.073 -148.91 1481.41
v -26.0231 -148.929 1481.48
v -26.3056 -148.615 1481.53
v -26.1226 -148.8 1481.58
v -26.098 -148.339 1482.48
v -26.3675 -148.147 1482.05
v -26.319 -148.132 1481.93
v -26.2718 -148.059 1481.95
v -26.186 -148.044 1481.87
v -26.4098 -148.099 1482.29
v -26.3674 -148.268 1482.31
v -26.3667 -147.975 1483.05
v -26.0794 -147.73 1482.35
v -26.2072 -147.434 1484.23
v -26.1864 -147.143 1483.42
v -26.0788 -147.202 1483.34
v -26.3131 -147.153 1483.44
v -26.4203 -146.996 1483.8
v -26.1416 -146.955 1485.06
v -26.1276 -146.641 1484.44
v -26.0818 -146.558 1484.7
v -26.4253 -146.375 1484.9
v -26.2796 -146.293 1485.06
v -26.0797 -146.175 1485.96
v -26.1833 -145.844 1486.22
v -26.1415 -145.895 1486.26
v -26.1818 -146.234 1486.36
v -26.4307 -145.703 1486.22
v -26.3235 -145.772 1486.14
v -26.3751 -145.162 1487.54
v -26.2805 -145.228 1487.85
v -26.3881 -144.975 1488.8
v -26.4051 -144.716 1488.86
v -25.6884 -151.544 1476.7
v -25.7552 -151.291 1476.97
v -25.6907 -151.178 1477.43
v -25.77 -150.823 1477.38
v -25.8039 -150.951 1477.35
v -25.7215 -150.747 1477.4
v -25.9671 -150.2 1478.66
v -25.7662 -150.141 1478.3
v -25.9568 -150.186 1478.92
v -25.6725 -149.931 1478.58
v -25.9318 -149.823 1479.73
v -25.76 -149.806 1480.8
v -25.9175 -149.799 1478.95
v -25.7754 -149.657 1479.04
v -25.8783 -149.452 1479.41
v -25.7514 -149.592 1481.05
v -25.7832 -149.31 1479.61
v -25.8754 -149.202 1480.88
v -25.8254 -149.209 1480.88
v -25.776 -149.169 1480.88
v -25.7754 -149.197 1480.83
v -25.7254 -149.168 1480.9
v -25.9381 -149.296 1481.08
v -25.9738 -149.179 1480.92
v -25.9754 -149.124 1481.03
v -25.9406 -149.218 1481.03
v -25.8779 -149.216 1480.93
v -25.9227 -149.181 1480.93
v -25.9134 -149.163 1480.98
v -25.7255 -149.128 1480.93
v -25.6868 -149.066 1480.93
v -25.6754 -149.094 1480.98
v -25.6449 -148.95 1481
v -25.6744 -148.954 1481.07
v -25.6601 -149.005 1481.08
v -25.5794 -149.155 1481.08
v -26.0184 -148.608 1480.83
v -25.8195 -148.663 1480.72
v -25.9724 -148.776 1481.69
v -25.8388 -148.903 1481.56
v -25.8063 -148.781 1481.62
v -25.7304 -148.869 1481.5
v -25.7453 -148.604 1481.72
v -25.6836 -148.72 1481.42
v -25.6894 -148.839 1481.43
v -25.8748 -148.705 1481.74
v -25.9271 -148.409 1481.14
v -25.823 -148.303 1481.39
v -25.7149 -148.402 1481.38
v -25.7571 -148.058 1482.47
v -25.9781 -148.134 1482.8
v -25.9695 -147.882 1482.08
v -25.8407 -147.637 1482.77
v -25.7958 -147.744 1482.71
v -25.9306 -147.543 1482.79
v -25.8246 -147.544 1483.21
v -25.9251 -147.566 1483.66
v -26 -146.776 1484.38
v -25.9421 -146.947 1484.18
v -25.2838 -153.864 1473.07
v -25.2522 -153.824 1472.95
v -25.3143 -153.594 1473.58
v -25.3158 -152.935 1474.08
v -25.5023 -152.618 1474.84
v -25.5001 -152.62 1474.98
v -25.4753 -152.522 1474.82
v -25.3301 -152.452 1474.73
v -25.4716 -152.456 1475.38
v -25.4817 -151.977 1475.49
v -25.3098 -152.228 1475.8
v -25.4269 -152.092 1476.02
v -25.3818 -151.912 1475.51
v -25.3315 -151.637 1475.93
v -25.2494 -151.844 1476.29
v -25.3173 -151.302 1476.48
v -25.5755 -151.183 1476.65
v -25.2663 -151.298 1479.73
v -25.527 -150.889 1477.07
v -25.3252 -150.635 1477.87
v -25.6295 -150.804 1478.11
v -25.422 -150.782 1479.86
v -25.4773 -150.627 1477.49
v -25.3947 -150.455 1477.9
v -25.5231 -150.484 1478.57
v -25.3999 -150.353 1480.05
v -25.2751 -150.532 1479.92
v -25.2639 -150.377 1480.4
v -25.2868 -150.169 1480.48
v -25.4673 -150.202 1480.62
v -25.4517 -150.06 1480.71
v -25.3882 -150.154 1480.62
v -25.5264 -149.906 1478.7
v -25.4297 -149.989 1478.79
v -25.63 -149.599 1479.16
v -25.5051 -149.679 1479.66
v -25.6243 -149.151 1480
v -25.6217 -148.761 1480.94
v -24.8961 -156.134 1470.02
v -25.0161 -155.454 1470.85
v -25.0036 -155.095 1471.12
v -25.0474 -155.132 1471.17
v -24.9645 -154.871 1471.35
v -24.8737 -154.943 1471.23
v -25.1126 -154.805 1471.84
v -24.9333 -154.578 1472.29
v -24.8422 -154.639 1472.13
v -24.8727 -154.462 1471.91
v -25.1236 -154.041 1472.51
v -25.0316 -153.944 1472.59
v -25.1637 -153.93 1473.22
v -25.0317 -153.557 1473.73
v -24.995 -153.307 1473.99
v -25.0264 -153.249 1473.61
v -25.001 -152.946 1474.19
v -24.9756 -153.11 1474.14
v -25.2252 -153.183 1474.35
v -25.2269 -152.648 1474.43
v -25.0889 -152.588 1474.61
v -25.2203 -152.118 1475.23
v -25.1805 -151.816 1475.8
v -25.1623 -151.892 1476.04
v -25.1288 -151.483 1479.66
v -25.0147 -151.584 1479.59
v -24.9564 -151.44 1479.64
v -25.218 -151.372 1476.6
v -25.1085 -150.747 1480.06
v -25.2202 -150.498 1479.98
v -25.186 -150.436 1480.23
v -24.4543 -158.945 1466.29
v -24.5569 -158.372 1467.07
v -24.5268 -158.324 1467.26
v -24.6204 -157.892 1467.61
v -24.5313 -157.934 1467.44
v -24.4845 -157.843 1467.52
v -24.6251 -157.886 1467.74
v -24.667 -157.648 1467.99
v -24.6469 -157.578 1467.95
v -24.6364 -157.558 1468.24
v -24.7182 -157.295 1468.39
v -24.5226 -157.179 1468.36
v -24.5685 -157.254 1468.66
v -24.6168 -156.835 1468.77
v -24.4655 -157.019 1468.72
v -24.5121 -156.727 1469.02
v -24.7954 -156.547 1469.24
v -24.6317 -156.474 1469.24
v -24.7307 -156.403 1469.34
v -24.7364 -156.118 1469.69
v -24.6289 -155.975 1469.94
v -24.7288 -155.572 1470.42
v -24.8246 -155.695 1470.75
v -24.7239 -155.806 1470.56
v -24.7278 -155.24 1470.9
v -24.6778 -155.345 1470.85
v -24.7027 -155.108 1471.22
v -24.7428 -154.864 1471.65
v -24.7832 -154.658 1471.73
v -24.7933 -154.425 1472.14
v -24.61 -153.209 1477.98
v -24.6801 -153.184 1478.1
v -24.6931 -153.18 1478.24
v -24.5656 -153.116 1478.01
v -24.5766 -153.106 1478.43
v -24.7547 -152.82 1478.61
v -24.5308 -152.977 1478.5
v -24.5124 -152.636 1478.51
v -24.4272 -153.022 1478.37
v -24.8629 -152.159 1478.73
v -24.6595 -152.351 1478.61
v -24.7922 -152.135 1478.74
v -24.7373 -152.193 1479.08
v -24.6716 -152.283 1478.97
v -24.6362 -152.255 1478.9
v -24.7261 -151.991 1478.93
v -24.3713 -159.32 1465.83
v -24.3253 -159.367 1465.82
v -24.3236 -159.32 1465.81
v -24.2757 -159.322 1465.81
v -24.4035 -159.364 1465.89
v -24.3987 -159.356 1465.95
v -24.391 -159.319 1465.85
v -24.4165 -159.305 1465.91
v -24.3729 -159.396 1465.9
v -24.3728 -159.381 1465.95
v -24.3737 -159.367 1465.85
v -24.3253 -159.394 1465.85
v -24.3237 -159.414 1465.9
v -24.3272 -159.406 1465.94
v -24.3258 -159.366 1466
v -24.2752 -159.387 1465.85
v -24.2754 -159.409 1465.9
v -24.2786 -159.397 1465.95
v -24.2875 -159.195 1466.2
v -24.2275 -159.379 1465.89
v -24.225 -159.356 1465.95
v -24.2182 -159.32 1465.85
v -24.196 -159.31 1465.9
v -24.3254 -159.27 1465.82
v -24.2779 -159.273 1465.82
v -24.4031 -159.247 1465.91
v -24.4306 -159.198 1466.11
v -24.3738 -159.258 1465.87
v -24.3827 -159.179 1466.22
v -24.3272 -159.174 1465.92
v -24.2447 -159.27 1465.84
v -24.2763 -159.24 1465.85
v -24.2844 -158.983 1466.16
v -24.2059 -159.266 1465.89
v -24.2286 -159.212 1465.92
v -24.2136 -159.147 1466.06
v -24.2253 -159.135 1466.17
v -24.3821 -158.9 1466.26
v -24.374 -158.555 1466.66
v -24.4257 -158.357 1466.9
v -24.3416 -158.116 1467.28
v -24.4267 -158.009 1467.33
v -24.4035 -157.811 1467.86
v -24.4126 -157.761 1467.67
v -24.3518 -157.955 1467.54
v -24.4275 -157.452 1468.09
v -24.1819 -154.837 1476.92
v -24.2125 -154.73 1476.92
v -24.1962 -154.657 1477.16
v -24.1407 -154.7 1477.15
v -24.1303 -154.553 1477.28
v -24.0937 -154.348 1477.41
v -24.3153 -154.131 1477.26
v -24.0696 -154.196 1477.44
v -24.1577 -153.828 1477.67
v -24.3282 -153.659 1477.58
v -24.3671 -153.606 1478.03
v -23.7033 -156.409 1475.49
v -23.7151 -156.407 1475.59
v -23.6967 -156.327 1475.76
v -23.8254 -155.701 1475.97
v -23.7113 -155.694 1475.95
v -23.6653 -155.962 1476.1
v -23.9076 -155.353 1476.62
v -23.8321 -155.281 1476.65
v -23.8645 -154.891 1476.87
v -23.9962 -154.439 1477.03
v -23.9545 -154.515 1477.12
v -24.0082 -154.323 1477.2
v -23.2815 -157.803 1474.43
v -23.3299 -157.73 1474.36
v -23.3229 -157.519 1474.41
v -23.4738 -157.234 1474.81
v -23.409 -157.442 1474.71
v -23.4194 -157.384 1474.63
v -23.3174 -157.179 1474.66
v -23.3395 -157.072 1475.13
v -23.3156 -156.886 1474.96
v -23.2876 -156.862 1475.04
v -23.5115 -156.754 1475.42
v -23.4336 -156.391 1475.42
v -23.4225 -156.358 1475.54
v -23.5031 -156.175 1475.81
v -22.9002 -159.309 1472.88
v -22.9563 -158.99 1473.08
v -22.8989 -159.238 1473.05
v -22.8835 -159.07 1473.27
v -22.8889 -158.766 1473.56
v -22.8396 -158.526 1473.64
v -23.0702 -158.509 1473.79
v -23.0713 -158.254 1473.7
v -22.9704 -158.285 1473.67
v -22.9167 -158.231 1473.82
v -23.1258 -158.163 1474.14
v -23.135 -157.923 1474.37
v -23.0128 -157.994 1474.22
v -23.1954 -157.419 1474.78
v -23.1898 -157.242 1474.84
v -22.5254 -160.681 1471.39
v -22.5183 -160.528 1471.78
v -22.5322 -160.255 1472.08
v -22.4738 -160.253 1472.05
v -22.5341 -159.753 1472.31
v -22.5154 -159.908 1472.35
v -22.5269 -159.753 1472.45
v -22.7653 -159.533 1472.81
v -22.785 -159.248 1472.74
v -22.7006 -159.307 1472.69
v -22.644 -159.259 1472.89
v -22.7597 -159.253 1473.09
v -22.7753 -159.021 1473.28
v -22.6956 -159.129 1473.1
v -22.0363 -162.786 1469.04
v -22.1563 -162.278 1469.66
v -22.1621 -162.069 1469.8
v -22.0754 -161.963 1469.87
v -22.1672 -162.14 1469.96
v -22.1241 -162.11 1470.04
v -22.0797 -162.032 1470.12
v -22.0499 -161.767 1470.2
v -22.2889 -161.713 1470.38
v -22.2786 -161.608 1470.59
v -22.1172 -161.594 1470.55
v -22.3928 -161.25 1470.93
v -22.2719 -161.407 1470.84
v -22.1831 -161.166 1470.92
v -22.2834 -161.051 1471.2
v -22.2524 -160.905 1471.13
v -22.2522 -160.946 1471.23
v -22.4254 -160.55 1471.41
v -22.3962 -160.269 1471.89
v -21.7154 -164.2 1467.25
v -21.6754 -164.253 1467.25
v -21.6754 -164.204 1467.22
v -21.6758 -164.152 1467.23
v -21.7482 -164.183 1467.32
v -21.7422 -164.15 1467.3
v -21.7181 -164.247 1467.3
v -21.7281 -164.212 1467.39
v -21.6723 -164.277 1467.3
v -21.6771 -164.269 1467.36
v -21.6785 -164.177 1467.49
v -21.6844 -164.054 1467.34
v -21.846 -163.702 1467.99
v -21.8454 -163.614 1467.97
v -21.7709 -163.927 1467.79
v -21.7789 -163.744 1468.05
v -21.7224 -163.857 1467.91
v -21.7379 -163.618 1467.89
v -21.6724 -163.828 1467.91
v -21.642 -163.714 1467.93
v -21.779 -163.589 1468.25
v -21.7253 -163.72 1468.08
v -21.672 -163.659 1468.07
v -21.7273 -163.533 1468.28
v -21.6891 -163.486 1468.24
v -21.9126 -163.184 1468.74
v -21.8318 -163.165 1468.76
v -21.7805 -163.111 1468.75
v -21.7693 -163.069 1468.69
v -21.9811 -163.002 1468.91
v -21.9845 -162.825 1469.18
v -21.9732 -162.79 1468.93
v -21.9257 -163.028 1468.94
v -21.9361 -162.793 1469.23
v -21.9254 -162.725 1468.98
v -21.8478 -162.699 1469.19
v -21.9125 -162.509 1469.27
v -21.9614 -162.378 1469.68
v -22.0085 -161.992 1470.05
v -21.6259 -164.253 1467.26
v -21.6277 -164.206 1467.23
v -21.5884 -164.202 1467.25
v -21.6255 -164.156 1467.23
v -21.6287 -164.089 1467.29
v -21.6255 -164.277 1467.3
v -21.6269 -164.268 1467.36
v -21.6282 -164.148 1467.51
v -21.5798 -164.245 1467.3
v -21.5781 -164.229 1467.36
v -21.5576 -164.199 1467.3
v -21.5652 -164.148 1467.3
v -21.5686 -164.127 1467.42
v -21.595 -164.009 1467.46
v -25.8754 -149.202 1480.88
v -25.8254 -149.209 1480.88
v -25.8254 -149.209 1480.88
v -25.8254 -149.209 1480.88
v -25.8254 -149.209 1480.88
v -25.776 -149.169 1480.88
v -25.776 -149.169 1480.88
v -25.776 -149.169 1480.88
v -25.776 -149.169 1480.88
v -25.7754 -149.197 1480.83
v -25.7754 -149.197 1480.83
v -25.7254 -149.168 1480.9
v -25.9754 -149.124 1481.03
v -25.8779 -149.216 1480.93
v -25.8779 -149.216 1480.93
v -25.8779 -149.216 1480.93
v -25.9227 -149.181 1480.93
v -25.9227 -149.181 1480.93
v -25.9134 -149.163 1480.98
v -25.9134 -149.163 1480.98
v -25.7255 -149.128 1480.93
v -25.6868 -149.066 1480.93
v -25.6868 -149.066 1480.93
v -25.6754 -149.094 1480.98
v -25.6754 -149.094 1480.98
v -25.6744 -148.954 1481.07
v -25.7453 -148.604 1481.72
v -25.6836 -148.72 1481.42
v -25.6836 -148.72 1481.42
v -24.3713 -159.32 1465.83
v -24.2754 -159.409 1465.9
v -24.2754 -159.409 1465.9
v -24.2275 -159.379 1465.89
v -24.4035 -157.811 1467.86
v -23.7113 -155.694 1475.95
v -23.9962 -154.439 1477.03
v -23.3299 -157.73 1474.36
v -23.3229 -157.519 1474.41
v -22.9563 -158.99 1473.08
v -22.5254 -160.681 1471.39
v -22.785 -159.248 1472.74
v -22.0363 -162.786 1469.04
v -22.1563 -162.278 1469.66
v -22.0754 -161.963 1469.87
v -22.4254 -160.55 1471.41
v -21.7154 -164.2 1467.25
v -21.7154 -164.2 1467.25
v -21.6754 -164.253 1467.25
v -21.6754 -164.253 1467.25
v -21.6754 -164.253 1467.25
v -21.6754 -164.204 1467.22
v -21.6754 -164.204 1467.22
v -21.6754 -164.204 1467.22
v -21.6758 -164.152 1467.23
v -21.7422 -164.15 1467.3
v -21.7181 -164.247 1467.3
v -21.6723 -164.277 1467.3
v -21.6723 -164.277 1467.3
v -21.6771 -164.269 1467.36
v -21.8454 -163.614 1467.97
v -21.7789 -163.744 1468.05
v -21.7379 -163.618 1467.89
v -21.9126 -163.184 1468.74
v -21.9254 -162.725 1468.98
v -21.6259 -164.253 1467.26
v -21.6277 -164.206 1467.23
v -21.6255 -164.156 1467.23
v -21.6287 -164.089 1467.29
v -21.6255 -164.277 1467.3
v -21.6255 -164.277 1467.3
v -21.6255 -164.277 1467.3
v -21.5798 -164.245 1467.3
v -21.5576 -164.199 1467.3
v -21.5652 -164.148 1467.3
v -21.595 -164.009 1467.46
vn -0.903269 -0.411801 0.120517
vn -0.994484 -0.0724436 -0.0758512
vn -0.994003 -0.0806328 0.0738715
vn -0.953031 0.261359 -0.153044
vn -0.945955 0.314823 0.0778249
vn -0.633479 -0.744393 0.211147
vn -0.219525 -0.922854 0.316462
vn -0.850704 -0.293442 0.436112
vn -0.930557 -0.0718788 0.359022
vn -0.729534 -0.571697 0.375423
vn -0.768813 0.00410962 0.639461
vn -0.600934 -0.353893 0.716686
vn -0.598384 0.00173882 0.801208
vn -0.458452 -0.742942 0.487708
vn -0.431672 0.0280117 0.901596
vn -0.317998 -0.529791 0.786256
vn -0.395367 -0.242421 0.885956
vn -0.255248 -0.0286849 0.96645
vn -0.144276 -0.807954 0.57131
vn -0.144166 -0.299001 0.9433
vn -0.15049 0.165413 0.974675
vn 0.0419471 -0.928952 0.367816
vn 0.152807 -0.790208 0.593483
vn -0.00451546 -0.541685 0.84057
vn -0.00819646 -0.0629551 0.997983
vn -0.794015 0.561124 -0.233837
vn -0.827219 0.549993 0.114966
vn -0.700296 0.713847 -0.00289078
vn -0.672989 0.684128 0.281166
vn -0.547081 0.803642 0.234226
vn -0.537951 0.787754 -0.300086
vn -0.588046 0.801964 -0.105149
vn -0.401557 0.900987 0.164239
vn -0.272432 0.909423 -0.314214
vn -0.35234 0.924152 -0.14765
vn -0.204174 0.968924 0.13964
vn -0.0985957 0.988044 -0.118522
vn -0.843734 0.309354 0.43865
vn -0.687663 0.309795 0.656618
vn -0.70562 0.541802 0.456675
vn -0.553612 0.695396 0.45819
vn -0.527204 0.296717 0.796251
vn -0.556063 0.535391 0.635728
vn -0.346741 0.266875 0.899193
vn -0.355456 0.544445 0.759758
vn -0.403326 0.818634 0.40886
vn -0.432064 0.68831 0.582709
vn -0.253219 0.757493 0.601734
vn -0.154175 0.411106 0.898456
vn -0.20994 0.897476 0.387893
vn -0.092248 0.656606 0.748571
vn -0.470383 -0.845167 0.253834
vn -0.65116 0.69021 -0.315596
vn -0.928525 0.308099 -0.207165
vn -0.79527 0.540289 -0.275015
vn -0.639356 0.702999 -0.311475
vn -0.40079 0.851068 -0.33919
vn -0.101196 0.936513 -0.335713
vn 0.322075 -0.874008 0.363838
vn 0.584452 -0.727528 0.35933
vn 0.773154 -0.55237 0.311642
vn 0.895528 -0.358693 0.263379
vn 0.989535 -0.0295153 0.141244
vn 0.113933 -0.310844 0.943608
vn 0.0818807 0.189793 0.978404
vn 0.396289 -0.749004 0.530989
vn 0.294269 -0.544596 0.785379
vn 0.302552 -0.321373 0.897319
vn 0.249417 -0.0742709 0.965544
vn 0.268516 0.140427 0.952985
vn 0.482956 -0.397822 0.780059
vn 0.451116 -0.177409 0.874654
vn 0.467769 0.0738823 0.880757
vn 0.626055 -0.543531 0.559133
vn 0.609909 -0.22707 0.759244
vn 0.778187 -0.36476 0.511248
vn 0.704861 0.0275904 0.708809
vn 0.910227 -0.141418 0.389214
vn 0.0129786 0.953466 -0.301221
vn 0.0481164 0.96814 0.245743
vn 0.160448 0.981491 -0.104557
vn 0.290876 0.921825 -0.256183
vn 0.350587 0.934804 0.0568453
vn 0.470904 0.860094 -0.196185
vn 0.564797 0.823676 0.0506139
vn 0.888475 0.414358 0.197282
vn 0.677087 0.720928 -0.1477
vn 0.779312 0.625878 0.0308175
vn 0.689061 0.661194 0.296677
vn 0.972925 0.217788 0.0773669
vn 0.879734 0.472847 -0.0498358
vn 0.0635849 0.482206 0.873747
vn 0.00554539 0.826037 0.563588
vn 0.277521 0.357132 0.891874
vn 0.200511 0.658561 0.725322
vn 0.262701 0.855565 0.44609
vn 0.516527 0.304671 0.800234
vn 0.382051 0.50369 0.774812
vn 0.389218 0.677817 0.623757
vn 0.551136 0.52207 0.650916
vn 0.506427 0.748782 0.427618
vn 0.70376 0.307312 0.640532
vn 0.728344 0.482602 0.486425
vn 0.914948 0.144423 0.376844
vn -0.933713 0.28771 -0.213079
vn -0.980581 0.124828 -0.151256
vn -0.0738824 -0.937369 0.340413
vn -0.749136 0.587513 -0.305978
vn -0.504224 0.788547 -0.352068
vn -0.85837 0.444839 -0.255576
vn -0.978717 -0.203239 -0.0284258
vn -0.880817 -0.467573 0.0744138
vn -0.659107 0.68011 -0.32098
vn -0.442466 0.827217 -0.346318
vn 0.0576924 0.94186 -0.331017
vn -0.114006 -0.940266 0.320784
vn 0.142722 -0.929348 0.340504
vn -0.188891 0.917983 -0.348751
vn 0.557142 -0.762604 0.328677
vn 0.47857 0.843717 -0.243131
vn 0.187448 0.933529 -0.305592
vn 0.729879 0.66636 -0.15245
vn -0.825477 0.480402 -0.296314
vn -0.972497 0.157574 -0.171523
vn -0.849157 -0.512252 0.128567
vn -0.994777 -0.0607801 -0.0820004
vn -0.647725 0.675082 -0.353152
vn -0.336234 -0.884023 0.324732
vn -0.599022 -0.761082 0.248852
vn -0.818895 0.495799 -0.289126
vn -0.826532 -0.547648 0.130102
vn -0.364349 0.848778 -0.383179
vn -0.555189 0.750415 -0.358668
vn -0.0141445 -0.931845 0.362582
vn 0.256014 -0.893036 0.370059
vn -0.373397 -0.878018 0.299431
vn -0.26053 0.887794 -0.379402
vn -0.349813 0.86008 -0.371341
vn -0.113859 0.922608 -0.368551
vn 0.115295 0.932187 -0.343126
vn 0.368136 0.881803 -0.294788
vn 0.483512 -0.802441 0.349722
vn 0.19889 -0.913483 0.354953
vn -0.257813 0.896019 -0.3615
vn -0.00193162 0.937473 -0.348053
vn 0.881254 0.465966 -0.0791642
vn 0.554823 0.798068 -0.235073
vn 0.313135 0.90279 -0.294817
vn 0.752792 0.640376 -0.15239
vn 0.898957 -0.373492 0.228869
vn 0.627452 0.752453 -0.200297
vn 0.846669 0.523727 -0.094136
vn 0.99485 0.0181219 0.0997263
vn 0.963936 0.265971 0.00934978
vn -0.916005 -0.392443 0.0832019
vn -0.991668 -0.11569 -0.0566664
vn -0.966097 0.169456 -0.194787
vn -0.871817 0.393615 -0.29155
vn -0.916481 0.31729 -0.243699
vn -0.785487 0.525193 -0.327387
vn -0.512842 0.756448 -0.405931
vn -0.965893 -0.258893 0.00501918
vn -0.916972 -0.394658 0.0583646
vn -0.779443 -0.600745 0.177691
vn -0.553137 -0.7847 0.279796
vn -0.626812 0.684062 -0.373049
vn -0.372466 0.831746 -0.411665
vn -0.310459 -0.884927 0.34716
vn -0.616612 -0.746046 0.251407
vn -0.185737 0.892944 -0.410064
vn 0.0727983 -0.913575 0.400102
vn -0.458841 0.799134 -0.388395
vn -0.246418 0.883568 -0.398228
vn 0.00852178 0.921795 -0.387583
vn -0.0561533 -0.92593 0.373497
vn 0.71585 -0.615602 0.329536
vn 0.641151 0.731202 -0.232957
vn 0.295815 -0.874561 0.384235
vn 0.174912 0.91762 -0.356901
vn 0.41144 0.859207 -0.304107
vn -0.145594 0.910746 -0.386451
vn 0.0014655 0.928656 -0.370938
vn 0.967526 -0.182401 0.174995
vn 0.517757 -0.778081 0.355692
vn 0.637088 0.737648 -0.223594
vn 0.228045 0.91427 -0.334822
vn 0.461026 0.842387 -0.278995
vn 0.854441 0.507843 -0.109659
vn 0.973876 0.226423 0.0172753
vn 0.755697 -0.58243 0.299495
vn 0.6693 0.715747 -0.199358
vn -0.944694 0.22946 -0.234308
vn -0.841309 0.431744 -0.325263
vn -0.671979 0.617137 -0.409373
vn -0.946077 -0.320508 0.0470532
vn -0.728919 -0.64357 0.233441
vn -0.313899 -0.864887 0.391713
vn -0.585132 0.692526 -0.421934
vn -0.710213 0.599013 -0.369839
vn -0.361656 0.82054 -0.442628
vn -0.549994 0.725504 -0.413703
vn -0.106758 0.887584 -0.448104
vn 0.338451 -0.840497 0.423101
vn -0.300559 -0.879611 0.368714
vn -0.250961 0.867067 -0.430364
vn 0.00280413 0.906433 -0.422339
vn 0.255432 0.886068 -0.386831
vn 0.692195 -0.627306 0.356866
vn 0.437975 0.835965 -0.330667
vn -0.0781974 0.905942 -0.416119
vn 0.18066 0.903333 -0.389039
vn 0.745779 0.63383 -0.205116
vn 0.467402 -0.792464 0.391837
vn 0.149903 0.911705 -0.382522
vn 0.606032 0.751594 -0.260444
vn 0.347746 0.875803 -0.334725
vn 0.845176 0.518808 -0.128515
vn 0.98814 0.146929 0.0446184
vn -0.897061 0.324422 -0.300053
vn -0.635536 0.6326 -0.442619
vn -0.429993 -0.809985 0.398786
vn -0.697336 -0.658911 0.282062
vn -0.418162 -0.824054 0.3822
vn -0.798395 -0.578412 0.167345
vn -0.84107 -0.488019 0.233321
vn -0.674459 -0.671527 0.306849
vn -0.622309 -0.631201 0.462943
vn -0.932864 -0.351523 0.0787136
vn -0.431456 -0.801189 0.414659
vn -0.0534249 -0.886184 0.460243
vn -0.923117 0.278116 -0.26553
vn -0.804902 0.472055 -0.359578
vn -0.645607 0.631918 -0.428802
vn -0.44052 0.761743 -0.475069
vn -0.991954 0.00780979 -0.126358
vn -0.811063 -0.551981 0.193634
vn -0.524897 -0.778252 0.344686
vn -0.0804678 0.867829 -0.490303
vn 0.166427 -0.877027 0.450694
vn -0.0183728 0.88122 -0.472349
vn 0.233072 0.86599 -0.442424
vn -0.275643 0.832966 -0.479779
vn -0.47336 0.755033 -0.453713
vn 0.549368 -0.727681 0.410701
vn 0.419903 0.821649 -0.385454
vn 0.608174 0.728975 -0.314197
vn -0.227506 0.854715 -0.466586
vn 0.14162 0.886222 -0.441082
vn 0.995398 0.073097 0.0619628
vn 0.7461 0.626207 -0.226275
vn 0.906276 0.408733 -0.107711
vn 0.78245 -0.526323 0.3328
vn 0.126847 0.897006 -0.423427
vn 0.427965 0.828723 -0.360643
vn 0.600872 0.746811 -0.285002
vn 0.977132 0.212583 0.00464113
vn 0.929405 -0.289434 0.228985
vn 0.904274 0.417035 -0.0914868
vn -0.799851 -0.546497 0.248153
vn -0.976007 -0.216928 0.0187655
vn -0.484823 -0.77152 0.41195
vn -0.801238 0.457259 -0.385917
vn -0.962244 0.161773 -0.218895
vn -0.605443 0.637789 -0.476093
vn -0.994293 -0.073172 -0.0776409
vn -0.360847 0.772395 -0.52268
vn -0.828703 -0.519452 0.208378
vn -0.00589092 0.849206 -0.528028
vn -0.420603 -0.808569 0.411472
vn -0.79589 -0.504456 0.334789
vn -0.659811 0.605441 -0.445073
vn -0.193373 0.828236 -0.525958
vn -0.383116 0.773638 -0.504684
vn -0.355938 -0.630543 0.689727
vn -0.0283355 0.857657 -0.51344
vn -0.046159 -0.886098 0.461193
vn -0.687519 0.243232 -0.68422
vn 0.307746 -0.809357 0.500233
vn 0.153838 -0.847074 0.508724
vn 0.14821 0.593618 -0.790981
vn -0.953545 -0.28081 -0.109077
vn -0.16187 -0.892316 0.421392
vn -0.857092 -0.284694 -0.429352
vn -0.857656 -0.141367 -0.49441
vn -0.51381 0.3817 -0.768312
vn -0.594345 -0.766615 -0.243012
vn -0.134382 -0.907033 0.399039
vn 0.294833 0.581966 -0.757885
vn 0.763061 -0.496641 -0.413625
vn 0.390258 0.604841 -0.694166
vn 0.86062 -0.411303 0.30027
vn 0.96082 0.210258 -0.180598
vn 0.888075 0.345208 -0.30357
vn 0.920824 0.365398 -0.136262
vn -0.292395 0.813519 -0.502684
vn 0.266003 0.844244 -0.465289
vn -0.0405219 -0.774299 0.631521
vn 0.280713 -0.544812 0.790178
vn 0.53792 -0.470912 0.699203
vn 0.755875 -0.27607 0.593665
vn 0.578688 -0.625704 0.523081
vn 0.876738 -0.384587 0.28883
vn 0.954545 -0.0111333 0.297859
vn 0.450604 -0.656622 0.604817
vn 0.00356251 0.867214 -0.497922
vn 0.471151 0.785991 -0.400293
vn 0.776606 0.576764 -0.25343
vn 0.953991 -0.219005 0.204788
vn 0.420531 -0.785122 0.454683
vn 0.2302 0.859399 -0.456553
vn 0.786994 0.570791 -0.234175
vn 0.918221 0.377395 -0.120183
vn 0.546492 0.756922 -0.358351
vn 0.98819 0.152829 0.0111017
vn 0.740722 -0.565893 0.362072
vn 0.769002 0.594672 -0.234525
vn 0.920484 0.375686 -0.107558
vn -0.989884 -0.14003 -0.022829
vn -0.857976 0.36476 -0.361702
vn -0.789155 -0.547511 0.278327
vn -0.492517 0.684874 -0.537005
vn -0.990992 0.0165493 -0.132891
vn -0.902179 -0.402132 0.156088
vn -0.842475 0.394773 -0.366592
vn -0.298947 0.770112 -0.563523
vn -0.516285 -0.745245 0.42197
vn -0.570038 0.651747 -0.500282
vn 0.339562 -0.775044 0.532921
vn -0.0459615 -0.846859 0.529828
vn -0.168022 0.811276 -0.56
vn 0.161097 0.830684 -0.532927
vn 0.657761 -0.606962 0.446036
vn 0.506936 0.744122 -0.435085
vn -0.371867 0.759102 -0.534302
vn -0.652984 -0.575434 0.492431
vn -0.0817067 0.83443 -0.545024
vn 0.99631 0.0129564 0.0848396
vn 0.0122124 -0.858415 0.51281
vn -0.835899 0.128052 -0.533737
vn 0.299102 0.819463 -0.488895
vn 0.715527 0.621116 -0.319744
vn 0.465428 -0.73818 0.488331
vn -0.231108 0.517952 -0.823599
vn 0.158175 0.612297 -0.774644
vn 0.817181 -0.158157 0.554258
vn 0.903464 -0.0420743 0.426594
vn 0.0862953 -0.57969 0.810255
vn 0.34523 -0.494761 0.797514
vn 0.504246 -0.41 0.760024
vn 0.522319 0.748373 -0.408805
vn 0.899676 0.406425 -0.159377
vn 0.297937 0.829831 -0.47182
vn 0.852588 -0.411935 0.321564
vn 0.624225 0.697707 -0.351494
vn 0.972304 0.230063 -0.0411694
vn -0.819452 -0.502684 0.27533
vn -0.986355 -0.164629 0.00143503
vn -0.666315 0.557649 -0.495027
vn -0.92889 0.234996 -0.286251
vn -0.334923 0.736117 -0.588181
vn 0.0253824 0.801836 -0.597005
vn -0.85174 -0.469169 0.233282
vn 0.263094 -0.776874 0.572056
vn 0.676376 -0.570483 0.465902
vn 0.400099 0.758286 -0.514706
vn -0.501661 0.67329 -0.543155
vn -0.0516235 0.808121 -0.58675
vn -0.37118 -0.78305 0.499057
vn 0.464091 -0.709751 0.529974
vn 0.762463 -0.500056 0.410601
vn 0.484091 0.73686 -0.471905
vn 0.888717 0.412052 -0.200987
vn 0.991235 -0.0458548 0.123901
vn -0.00811225 -0.833148 0.552991
vn 0.00294569 0.821161 -0.570689
vn 0.64498 0.6596 -0.385913
vn 0.357176 0.789352 -0.499349
vn 0.777893 0.556909 -0.291092
vn 0.911201 -0.301937 0.280264
vn -0.26903 -0.631217 0.727453
vn 0.247695 -0.532176 0.80959
vn 0.666131 -0.30312 0.68146
vn 0.943361 0.312336 -0.111874
vn 0.893904 -0.0514659 0.445295
vn 0.568083 0.592196 -0.571476
vn 0.965982 0.131863 0.222465
vn -0.89672 0.285036 -0.338598
vn -0.981166 -0.190396 0.0326094
vn -0.65588 -0.626456 0.421158
vn -0.957424 0.151915 -0.245479
vn -0.460491 0.659337 -0.594325
vn -0.0466461 0.767865 -0.638911
vn -0.919765 -0.353792 0.169891
vn -0.962981 -0.256358 0.0833595
vn -0.806554 0.407864 -0.427922
vn -0.585172 -0.671428 0.454708
vn -0.983986 0.0609257 -0.167511
vn 0.466898 0.713674 -0.522184
vn 0.0851518 -0.783863 0.615067
vn -0.069882 0.776737 -0.625936
vn 0.972011 0.220458 -0.0811961
vn 0.814456 0.488421 -0.313218
vn -0.742737 0.482709 -0.46404
vn 0.179715 0.783223 -0.595201
vn -0.3559 0.716586 -0.599867
vn -0.0944754 0.783308 -0.614413
vn 0.623162 0.647097 -0.439243
vn 0.307845 0.77188 -0.556267
vn -0.0756502 -0.808486 0.583633
vn 0.504517 -0.670217 0.544309
vn 0.644057 0.641606 -0.416571
vn 0.888172 0.404168 -0.218632
vn 0.978473 0.201003 -0.0467763
vn 0.967156 -0.153751 0.202411
vn 0.844349 0.469589 -0.257992
vn 0.972067 0.222783 -0.0738455
vn -0.650591 0.321961 -0.687803
vn -0.924865 0.00027379 -0.380296
vn -0.888199 -0.4208 0.184474
vn -0.364413 0.490133 -0.791816
vn -0.0472499 -0.621296 0.78215
vn -0.518227 -0.618768 0.590396
vn 0.507618 -0.425292 0.7493
vn 0.909486 0.387469 -0.150679
vn 0.842108 -0.149573 0.518152
vn -0.323684 0.497826 -0.80461
vn 0.541185 0.602831 -0.586271
vn 0.167996 0.62253 -0.764352
vn 0.562706 -0.382652 0.732761
vn 0.79415 -0.195656 0.575365
vn 0.957194 0.0806524 0.277983
vn 0.74746 0.525292 -0.406659
vn -0.495021 -0.278531 -0.823028
vn -0.13726 -0.485949 -0.863141
vn -0.146331 0.0245079 -0.988932
vn 0.340819 -0.126979 -0.931514
vn -0.879847 -0.427532 -0.207571
vn -0.816029 -0.525863 0.239927
vn -0.817665 0.0745352 -0.570848
vn -0.98631 -0.0382407 -0.160408
vn -0.541015 -0.838061 -0.0704052
vn -0.49937 -0.763542 0.40943
vn -0.578339 -0.528214 -0.621703
vn -0.140334 -0.849766 -0.508137
vn -0.0644969 -0.996972 -0.0434362
vn -0.173604 -0.919596 0.352427
vn -0.0693047 -0.788448 0.611184
vn 0.351167 -0.681924 -0.641609
vn 0.223885 -0.893125 -0.390134
vn 0.283396 -0.864872 0.414346
vn 0.404258 -0.689759 0.600673
vn 0.770171 -0.5706 -0.285047
vn 0.718012 -0.604069 0.345774
vn 0.7662 -0.130276 -0.629258
vn 0.989832 -0.13583 -0.0422232
vn -0.266424 0.528792 -0.805851
vn 0.20607 0.400244 -0.892939
vn -0.769507 0.414528 -0.485825
vn -0.922127 -0.344855 0.175375
vn -0.568912 0.529331 -0.629403
vn -0.410564 -0.72647 0.551071
vn -0.151088 0.738606 -0.656988
vn 0.57507 0.4336 -0.693748
vn 0.236044 0.711218 -0.662157
vn 0.477587 0.698755 -0.532591
vn 0.841098 0.36301 -0.400971
vn 0.638544 0.609448 -0.469931
vn 0.935391 0.314203 -0.162234
vn 0.91765 -0.260384 0.300199
vn -0.429197 0.669189 -0.606611
vn 0.0578986 0.768974 -0.636652
vn -0.128339 0.759167 -0.638118
vn 0.822498 0.478424 -0.307584
vn 0.164272 0.769058 -0.61771
vn 0.966834 -0.146537 0.209188
vn 0.658529 0.616098 -0.43216
vn 0.983721 0.174341 -0.0435688
vn 0.779013 0.52835 -0.337616
vn -0.874136 -0.437931 0.210007
vn -0.969875 -0.126509 -0.208177
vn -0.651688 -0.587284 0.48
vn -0.321372 -0.653156 0.685644
vn 0.110184 -0.605281 0.788349
vn 0.61426 -0.374348 0.694657
vn -0.656814 0.333989 -0.676052
vn 0.925317 -0.0254335 0.378341
vn 0.971603 0.134375 0.194757
vn 0.012194 0.615174 -0.788297
vn 0.293273 -0.536068 0.791595
vn -0.928697 0.0416998 -0.368487
vn -0.934566 -0.34607 0.0825929
vn -0.603087 -0.613928 0.509291
vn -0.488174 0.467476 -0.736988
vn -0.220985 0.590441 -0.776238
vn 0.364975 -0.543199 0.756127
vn -0.0549662 -0.650864 0.757202
vn 0.518876 -0.45162 0.725814
vn 0.891102 -0.105934 0.441264
vn 0.432181 0.636777 -0.638541
vn 0.973021 0.14444 0.179911
vn 0.951636 0.305781 -0.0297781
vn -0.676793 -0.593057 0.436159
vn -0.919998 -0.372872 0.120708
vn -0.352932 0.566218 -0.744873
vn -0.972606 -0.213937 -0.0909322
vn -0.907745 -0.395737 0.13925
vn -0.962884 -0.0543414 -0.26439
vn -0.0312594 0.660819 -0.749894
vn 0.421369 -0.531867 0.734551
vn 0.563104 0.628566 -0.536488
vn 0.841522 0.469005 -0.268096
vn -0.142578 -0.678058 0.721047
vn 0.723698 0.555529 -0.409449
vn 0.964205 0.265035 0.00803873
vn 0.824684 -0.215854 0.522784
vn -0.978811 -0.193559 -0.0668069
vn -0.949298 0.0459793 -0.310998
vn -0.737552 -0.564628 0.370422
vn -0.219782 -0.711748 0.667167
vn 0.294365 -0.618906 0.72822
vn 0.975675 0.058831 0.211183
vn -0.509774 -0.663013 0.548219
vn -0.330803 0.592812 -0.734264
vn 0.312958 0.692551 -0.649947
vn 0.89313 0.409992 -0.185
vn -0.198925 -0.69794 0.687974
vn 0.278681 -0.609887 0.741872
vn 0.762231 -0.321619 0.561752
vn 0.687967 -0.372438 0.622889
vn 0.957949 0.00565216 0.286884
vn -0.984638 -0.149616 -0.0900193
vn -0.342533 -0.723745 0.599053
vn 0.1222 -0.703211 0.700401
vn 0.581241 -0.514957 0.630062
vn 0.799061 0.511984 -0.315237
vn 0.806427 -0.313338 0.501492
vn 0.963225 -0.0317143 0.266818
vn -0.253213 -0.719688 0.646476
vn -0.583816 0.482737 -0.652782
vn 0.360016 0.701384 -0.615183
vn 0.977679 0.205565 0.0434394
vn 0.316514 -0.629322 0.70977
vn 0.648479 -0.439228 0.621734
vn 0.907063 -0.150771 0.393072
vn -0.980779 -0.194393 -0.0168602
vn -0.969988 -0.242865 0.0117937
vn -0.667048 0.487289 -0.563557
vn -0.292096 0.692952 -0.659164
vn -0.640426 -0.640434 0.423908
vn -0.180068 -0.762072 0.62195
vn 0.440891 -0.631554 0.637773
vn 0.900938 0.39743 -0.174241
vn -0.90386 -0.395722 0.162605
vn -0.558988 -0.673297 0.483945
vn 0.815796 -0.340353 0.467587
vn -0.867458 -0.44811 0.216134
vn -0.00235256 -0.742589 0.669743
vn 0.987318 0.0924415 0.129067
vn 0.432506 -0.615733 0.658644
vn 0.833041 0.484305 -0.267379
vn 0.92258 -0.155562 0.353053
vn -0.483572 0.575289 -0.659698
vn 0.986614 0.12479 0.104982
vn -0.522709 -0.587657 -0.617604
vn -0.505554 -0.796659 -0.331285
vn -0.643854 -0.458176 -0.612803
vn -0.394789 0.509907 -0.764288
vn -0.955673 -0.257235 -0.143243
vn -0.611368 0.474967 -0.632958
vn -0.749444 -0.658774 -0.0659544
vn -0.738244 -0.609182 0.289641
vn -0.540266 -0.831412 -0.129869
vn -0.586059 -0.766593 0.262429
vn -0.15564 -0.802776 0.57561
vn -0.332686 0.695273 -0.637115
vn -0.922041 -0.361106 0.139439
vn -0.989156 -0.024789 -0.144763
vn -0.517455 -0.712702 0.473599
vn -0.699811 -0.604426 0.380701
vn 0.0740327 -0.784734 0.615395
vn -0.289566 0.72322 -0.62698
vn 0.694461 -0.519718 0.497611
vn 0.98866 -0.0171492 0.149192
vn 0.108837 -0.767646 0.631565
vn 0.356787 -0.706255 0.611479
vn 0.821824 -0.382996 0.421804
vn 0.652035 -0.536024 0.536218
vn 0.954099 -0.135896 0.266886
vn -0.653038 -0.640343 0.404353
vn 0.3318 -0.706225 0.625424
vn 0.883276 -0.278811 0.376945
vn 0.977044 0.212845 -0.0090584
vn -0.809973 -0.517321 0.276268
vn -0.386253 -0.742747 0.546932
vn -0.508075 0.614009 -0.60403
vn -0.249458 -0.774558 0.581232
vn 0.148162 -0.745414 0.649928
vn -0.27202 0.714765 -0.644295
vn 0.990657 0.0731639 0.115086
vn 0.672022 0.623104 -0.400161
vn 0.710176 -0.467539 0.526362
vn 0.92996 -0.169403 0.326308
vn 0.464514 -0.588045 -0.662141
vn 0.217886 -0.489236 -0.844496
vn 0.725027 -0.157232 -0.670532
vn 0.399023 0.268961 -0.876607
vn 0.00402266 0.727705 -0.685879
vn 0.00524689 -0.89383 -0.448375
vn 0.292834 -0.886111 0.359242
vn 0.506499 -0.650913 0.565483
vn 0.674581 -0.564536 -0.475647
vn 0.793962 -0.519867 0.315219
vn 0.857184 -0.146565 -0.493715
vn 0.714105 0.407416 -0.569268
vn 0.969738 -0.110133 0.217895
vn 0.530793 0.696397 -0.483001
vn -0.299772 -0.906162 -0.298341
vn -0.105882 0.559987 -0.821708
vn -0.140129 -0.939068 -0.313873
vn 0.588306 -0.693094 0.416554
vn 0.305645 -0.414765 -0.85706
vn 0.588306 -0.693094 0.416554
vn 0.305645 -0.414765 -0.85706
vn 0.25604 0.588711 -0.766722
vn 0.771708 -0.500917 -0.391853
vn 0.588306 -0.693094 0.416554
vn -0.137658 -0.924754 -0.354797
vn 0.305645 -0.414765 -0.85706
vn -0.304774 -0.864753 0.399143
vn -0.379883 -0.886036 -0.265759
vn -0.812476 0.0901904 -0.575976
vn -0.586741 -0.723408 0.363891
vn -0.0728615 -0.937976 0.338957
vn -0.586741 -0.723408 0.363891
vn -0.76802 -0.166247 -0.618472
vn -0.586741 -0.723408 0.363891
vn 0.763061 -0.496641 -0.413625
vn 0.969806 0.122437 -0.210915
vn 0.751171 -0.546044 0.370916
vn 0.753982 -0.492083 -0.435162
vn 0.981019 0.0537146 -0.186321
vn 0.827407 -0.465688 0.3139
vn 0.940024 -0.15479 0.303967
vn 0.907522 0.350063 -0.232078
vn 0.964492 -0.0261802 0.262812
vn -0.521698 0.373155 -0.767194
vn 0.108302 -0.96905 0.221838
vn 0.560057 -0.790213 0.248798
vn 0.526171 -0.799778 0.288963
vn 0.597125 -0.603643 0.528258
vn 0.46882 0.643499 -0.605076
vn 0.840228 0.466873 -0.275765
vn -0.913856 0.102331 -0.392932
vn -0.876825 0.15385 -0.45553
vn -0.547155 0.50271 -0.669256
vn -0.670096 0.460443 -0.582206
vn 0.0304964 0.704013 -0.709532
vn -0.840362 0.330058 -0.429945
vn -0.889536 0.238593 -0.389614
vn 0.573939 0.668222 -0.473364
vn 0.375495 0.709996 -0.595743
vn -0.902914 -0.228229 -0.364222
vn -0.625752 0.199151 -0.75417
vn -0.74474 -0.314279 -0.58872
vn 0.0616384 -0.496739 -0.865708
vn 0.0478949 -0.908721 -0.414648
vn -0.588171 0.151257 -0.794466
vn 0.0281001 -0.470746 -0.881821
vn 0.01983 0.156391 -0.987496
vn -0.0154332 0.192245 -0.981226
vn -0.97158 -0.0513895 -0.231066
vn -0.643854 -0.458176 -0.612803
vn 0.0265814 -0.901634 -0.431683
vn 0.0131231 -0.986825 0.161255
vn 0.0154427 -0.92912 0.369455
vn -0.577505 0.590714 -0.563511
vn -0.101724 -0.792603 0.601193
vn 0.423112 0.738192 -0.525403
vn -0.0900646 -0.786724 0.6107
vn 0.368106 0.743076 -0.55887
vn 0.0265814 -0.901634 -0.431683
vn 0.305194 0.103416 -0.946658
vn 0.0314801 0.67765 -0.734711
vn 0.586791 0.638215 -0.498356
vn 0.00578717 -0.985869 0.167419
vn 0.518279 -0.762904 -0.386477
vn 0.570702 -0.806975 0.151956
vn 0.708076 -0.689513 0.152312
vn 0.976609 -0.181766 0.114872
vn 0.982775 0.184755 -0.00426819
vn 0.948778 0.301839 -0.0933475
g grp1
usemtl mtl1
f 2//2 112//112 1//1 
f 1//1 3//3 2//2 
f 2//2 3//3 4//4 
f 3//3 5//5 4//4 
f 116//116 7//7 52//52 
f 22//22 7//7 117//117 
f 55//55 54//54 26//26 
f 56//56 55//55 26//26 
f 2//2 4//4 54//54 
f 54//54 4//4 26//26 
f 6//6 1//1 112//112 
f 1//1 10//10 8//8 
f 1//1 9//9 3//3 
f 1//1 8//8 9//9 
f 3//3 9//9 5//5 
f 9//9 38//38 5//5 
f 112//112 52//52 6//6 
f 6//6 10//10 1//1 
f 7//7 6//6 52//52 
f 6//6 7//7 14//14 
f 14//14 10//10 6//6 
f 11//11 39//39 38//38 
f 9//9 11//11 38//38 
f 10//10 12//12 8//8 
f 11//11 8//8 12//12 
f 9//9 8//8 11//11 
f 11//11 13//13 39//39 
f 14//14 12//12 10//10 
f 11//11 12//12 13//13 
f 12//12 17//17 13//13 
f 39//39 13//13 42//42 
f 13//13 15//15 42//42 
f 12//12 16//16 17//17 
f 12//12 14//14 16//16 
f 15//15 13//13 17//17 
f 17//17 18//18 15//15 
f 18//18 44//44 15//15 
f 44//44 42//42 15//15 
f 19//19 14//14 7//7 
f 19//19 16//16 14//14 
f 16//16 20//20 17//17 
f 17//17 20//20 18//18 
f 19//19 7//7 22//22 
f 24//24 16//16 19//19 
f 20//20 16//16 24//24 
f 25//25 18//18 20//20 
f 25//25 21//21 18//18 
f 21//21 44//44 18//18 
f 21//21 49//49 44//44 
f 20//20 24//24 64//64 
f 64//64 25//25 20//20 
f 65//65 21//21 25//25 
f 65//65 49//49 21//21 
f 22//22 23//23 19//19 
f 23//23 24//24 19//19 
f 24//24 23//23 67//67 
f 24//24 67//67 64//64 
f 69//69 65//65 25//25 
f 56//56 31//31 57//57 
f 57//57 31//31 34//34 
f 34//34 58//58 57//57 
f 58//58 34//34 79//79 
f 4//4 5//5 26//26 
f 5//5 27//27 26//26 
f 56//56 26//26 31//31 
f 5//5 38//38 27//27 
f 38//38 40//40 27//27 
f 28//28 26//26 27//27 
f 31//31 26//26 32//32 
f 32//32 26//26 28//28 
f 27//27 29//29 28//28 
f 40//40 29//29 27//27 
f 41//41 29//29 40//40 
f 28//28 29//29 30//30 
f 30//30 29//29 41//41 
f 28//28 30//30 32//32 
f 30//30 46//46 33//33 
f 30//30 41//41 46//46 
f 30//30 33//33 32//32 
f 34//34 31//31 35//35 
f 32//32 35//35 31//31 
f 33//33 35//35 32//32 
f 34//34 35//35 37//37 
f 35//35 33//33 36//36 
f 33//33 50//50 36//36 
f 33//33 46//46 50//50 
f 79//79 34//34 37//37 
f 37//37 35//35 36//36 
f 37//37 36//36 80//80 
f 36//36 50//50 80//80 
f 39//39 40//40 38//38 
f 42//42 43//43 39//39 
f 43//43 40//40 39//39 
f 40//40 43//43 41//41 
f 42//42 45//45 43//43 
f 45//45 42//42 44//44 
f 41//41 43//43 47//47 
f 47//47 43//43 45//45 
f 41//41 47//47 46//46 
f 49//49 45//45 44//44 
f 51//51 45//45 49//49 
f 48//48 47//47 45//45 
f 45//45 51//51 48//48 
f 46//46 47//47 48//48 
f 46//46 48//48 50//50 
f 49//49 92//92 51//51 
f 65//65 92//92 49//49 
f 95//95 51//51 92//92 
f 93//93 48//48 51//51 
f 95//95 93//93 51//51 
f 80//80 50//50 93//93 
f 93//93 50//50 48//48 
f 110//110 54//54 55//55 
f 110//110 55//55 53//53 
f 113//113 110//110 53//53 
f 111//111 112//112 2//2 
f 114//114 53//53 57//57 
f 53//53 55//55 56//56 
f 114//114 57//57 118//118 
f 53//53 56//56 57//57 
f 7//7 116//116 117//117 
f 150//150 62//62 61//61 
f 58//58 79//79 121//121 
f 117//117 59//59 22//22 
f 119//119 60//60 59//59 
f 61//61 60//60 119//119 
f 61//61 74//74 60//60 
f 76//76 61//61 62//62 
f 150//150 63//63 62//62 
f 62//62 63//63 78//78 
f 76//76 62//62 78//78 
f 78//78 63//63 104//104 
f 150//150 153//153 63//63 
f 153//153 154//154 63//63 
f 59//59 23//23 22//22 
f 69//69 25//25 64//64 
f 70//70 65//65 69//69 
f 66//66 23//23 59//59 
f 67//67 23//23 66//66 
f 67//67 68//68 64//64 
f 64//64 68//68 69//69 
f 60//60 66//66 59//59 
f 60//60 74//74 66//66 
f 66//66 74//74 67//67 
f 74//74 71//71 67//67 
f 67//67 71//71 68//68 
f 68//68 72//72 69//69 
f 68//68 71//71 72//72 
f 73//73 69//69 72//72 
f 69//69 73//73 70//70 
f 74//74 75//75 71//71 
f 71//71 75//75 72//72 
f 75//75 73//73 72//72 
f 75//75 77//77 73//73 
f 74//74 61//61 76//76 
f 74//74 76//76 75//75 
f 75//75 76//76 77//77 
f 77//77 104//104 102//102 
f 78//78 104//104 77//77 
f 76//76 78//78 77//77 
f 82//82 121//121 79//79 
f 82//82 120//120 121//121 
f 91//91 122//122 87//87 
f 82//82 79//79 81//81 
f 79//79 37//37 81//81 
f 81//81 37//37 80//80 
f 80//80 96//96 83//83 
f 83//83 81//81 80//80 
f 82//82 81//81 83//83 
f 83//83 96//96 101//101 
f 120//120 82//82 84//84 
f 82//82 83//83 84//84 
f 83//83 85//85 84//84 
f 101//101 85//85 83//83 
f 84//84 87//87 120//120 
f 85//85 87//87 84//84 
f 86//86 104//104 90//90 
f 86//86 103//103 104//104 
f 88//88 86//86 91//91 
f 88//88 89//89 86//86 
f 101//101 103//103 89//89 
f 89//89 103//103 86//86 
f 88//88 91//91 87//87 
f 85//85 88//88 87//87 
f 89//89 88//88 85//85 
f 89//89 85//85 101//101 
f 90//90 104//104 63//63 
f 154//154 91//91 90//90 
f 91//91 86//86 90//90 
f 90//90 63//63 154//154 
f 70//70 94//94 65//65 
f 94//94 92//92 65//65 
f 94//94 95//95 92//92 
f 80//80 93//93 96//96 
f 95//95 96//96 93//93 
f 73//73 94//94 70//70 
f 73//73 97//97 94//94 
f 95//95 98//98 99//99 
f 94//94 98//98 95//95 
f 97//97 98//98 94//94 
f 99//99 96//96 95//95 
f 99//99 101//101 96//96 
f 77//77 97//97 73//73 
f 98//98 97//97 100//100 
f 100//100 99//99 98//98 
f 100//100 101//101 99//99 
f 102//102 97//97 77//77 
f 103//103 100//100 102//102 
f 102//102 100//100 97//97 
f 103//103 101//101 100//100 
f 103//103 102//102 104//104 
f 126//126 106//106 105//105 
f 129//129 136//136 131//131 
f 126//126 111//111 106//106 
f 111//111 126//126 131//131 
f 136//136 52//52 131//131 
f 108//108 113//113 109//109 
f 110//110 108//108 105//105 
f 110//110 105//105 106//106 
f 111//111 2//2 106//106 
f 131//131 112//112 111//111 
f 131//131 52//52 112//112 
f 54//54 106//106 2//2 
f 106//106 54//54 110//110 
f 108//108 110//110 113//113 
f 109//109 113//113 114//114 
f 109//109 114//114 144//144 
f 144//144 114//114 118//118 
f 144//144 118//118 145//145 
f 145//145 118//118 115//115 
f 136//136 107//107 52//52 
f 107//107 116//116 52//52 
f 107//107 143//143 116//116 
f 53//53 114//114 113//113 
f 116//116 143//143 117//117 
f 117//117 143//143 119//119 
f 115//115 118//118 58//58 
f 148//148 121//121 120//120 
f 148//148 120//120 151//151 
f 57//57 58//58 118//118 
f 122//122 151//151 120//120 
f 119//119 150//150 61//61 
f 119//119 59//59 117//117 
f 115//115 58//58 121//121 
f 87//87 122//122 120//120 
f 162//162 126//126 124//124 
f 164//164 125//125 163//163 
f 163//163 125//125 162//162 
f 159//159 124//124 123//123 
f 125//125 169//169 131//131 
f 126//126 162//162 131//131 
f 125//125 131//131 162//162 
f 123//123 124//124 130//130 
f 169//169 129//129 131//131 
f 129//129 169//169 128//128 
f 175//175 134//134 128//128 
f 172//172 132//132 173//173 
f 127//127 123//123 130//130 
f 127//127 130//130 133//133 
f 172//172 127//127 133//133 
f 172//172 133//133 132//132 
f 105//105 130//130 124//124 
f 105//105 124//124 126//126 
f 128//128 136//136 129//129 
f 136//136 128//128 134//134 
f 173//173 132//132 181//181 
f 130//130 105//105 108//108 
f 181//181 132//132 137//137 
f 130//130 108//108 133//133 
f 134//134 107//107 136//136 
f 134//134 135//135 107//107 
f 184//184 142//142 135//135 
f 132//132 133//133 137//137 
f 181//181 137//137 182//182 
f 109//109 133//133 108//108 
f 138//138 133//133 109//109 
f 137//137 133//133 138//138 
f 137//137 138//138 139//139 
f 182//182 137//137 139//139 
f 140//140 182//182 139//139 
f 186//186 182//182 140//140 
f 141//141 186//186 140//140 
f 143//143 107//107 135//135 
f 135//135 142//142 143//143 
f 142//142 119//119 143//143 
f 138//138 109//109 144//144 
f 138//138 144//144 139//139 
f 140//140 148//148 141//141 
f 141//141 147//147 191//191 
f 147//147 149//149 191//191 
f 190//190 119//119 142//142 
f 150//150 119//119 190//190 
f 139//139 144//144 145//145 
f 145//145 140//140 139//139 
f 148//148 140//140 145//145 
f 148//148 147//147 141//141 
f 145//145 115//115 148//148 
f 148//148 115//115 121//121 
f 151//151 147//147 148//148 
f 147//147 151//151 149//149 
f 146//146 154//154 189//189 
f 183//183 189//189 153//153 
f 183//183 153//153 150//150 
f 153//153 189//189 154//154 
f 149//149 151//151 152//152 
f 154//154 146//146 152//152 
f 152//152 146//146 149//149 
f 122//122 152//152 151//151 
f 154//154 152//152 91//91 
f 122//122 91//91 152//152 
f 155//155 164//164 162//162 
f 155//155 162//162 156//156 
f 157//157 159//159 158//158 
f 158//158 159//159 160//160 
f 158//158 160//160 199//199 
f 157//157 156//156 124//124 
f 124//124 159//159 157//157 
f 166//166 199//199 160//160 
f 161//161 199//199 166//166 
f 167//167 161//161 166//166 
f 124//124 156//156 162//162 
f 164//164 163//163 162//162 
f 204//204 165//165 164//164 
f 204//204 168//168 165//165 
f 204//204 171//171 168//168 
f 170//170 210//210 167//167 
f 167//167 166//166 172//172 
f 170//170 167//167 172//172 
f 166//166 160//160 123//123 
f 123//123 160//160 159//159 
f 165//165 169//169 164//164 
f 169//169 125//125 164//164 
f 168//168 169//169 165//165 
f 169//169 168//168 128//128 
f 166//166 123//123 127//127 
f 166//166 127//127 172//172 
f 170//170 172//172 173//173 
f 170//170 174//174 214//214 
f 173//173 174//174 170//170 
f 216//216 214//214 174//174 
f 175//175 128//128 168//168 
f 175//175 168//168 171//171 
f 171//171 178//178 175//175 
f 171//171 213//213 178//178 
f 176//176 178//178 213//213 
f 178//178 134//134 175//175 
f 177//177 216//216 180//180 
f 216//216 174//174 179//179 
f 179//179 180//180 216//216 
f 183//183 190//190 176//176 
f 178//178 135//135 134//134 
f 178//178 184//184 135//135 
f 178//178 176//176 184//184 
f 174//174 173//173 181//181 
f 174//174 181//181 182//182 
f 174//174 182//182 179//179 
f 186//186 179//179 182//182 
f 179//179 186//186 180//180 
f 177//177 185//185 188//188 
f 218//218 217//217 188//188 
f 217//217 177//177 188//188 
f 183//183 218//218 189//189 
f 189//189 218//218 188//188 
f 176//176 190//190 184//184 
f 189//189 188//188 146//146 
f 184//184 190//190 142//142 
f 187//187 180//180 186//186 
f 180//180 187//187 185//185 
f 185//185 177//177 180//180 
f 185//185 191//191 188//188 
f 191//191 185//185 187//187 
f 188//188 191//191 146//146 
f 186//186 141//141 187//187 
f 191//191 187//187 141//141 
f 191//191 149//149 146//146 
f 183//183 150//150 190//190 
f 235//235 192//192 231//231 
f 236//236 196//196 228//228 
f 232//232 231//231 193//193 
f 193//193 231//231 192//192 
f 232//232 193//193 194//194 
f 193//193 198//198 194//194 
f 247//247 243//243 198//198 
f 243//243 247//247 242//242 
f 228//228 196//196 195//195 
f 228//228 195//195 235//235 
f 192//192 235//235 157//157 
f 193//193 192//192 157//157 
f 235//235 195//195 156//156 
f 157//157 235//235 156//156 
f 195//195 155//155 156//156 
f 155//155 195//195 196//196 
f 155//155 196//196 164//164 
f 196//196 204//204 164//164 
f 196//196 197//197 204//204 
f 158//158 193//193 157//157 
f 193//193 158//158 199//199 
f 198//198 193//193 199//199 
f 204//204 197//197 239//239 
f 247//247 198//198 200//200 
f 202//202 247//247 200//200 
f 199//199 201//201 198//198 
f 198//198 201//201 200//200 
f 203//203 204//204 239//239 
f 201//201 199//199 161//161 
f 200//200 201//201 161//161 
f 202//202 200//200 205//205 
f 200//200 161//161 205//205 
f 206//206 202//202 205//205 
f 254//254 253//253 207//207 
f 203//203 171//171 204//204 
f 203//203 213//213 171//171 
f 202//202 206//206 253//253 
f 209//209 254//254 207//207 
f 205//205 161//161 167//167 
f 206//206 205//205 210//210 
f 207//207 253//253 206//206 
f 244//244 208//208 203//203 
f 208//208 244//244 252//252 
f 252//252 257//257 208//208 
f 203//203 208//208 213//213 
f 205//205 167//167 210//210 
f 211//211 206//206 210//210 
f 211//211 207//207 206//206 
f 207//207 211//211 209//209 
f 255//255 209//209 212//212 
f 255//255 212//212 250//250 
f 250//250 212//212 258//258 
f 210//210 170//170 214//214 
f 210//210 214//214 211//211 
f 214//214 209//209 211//211 
f 258//258 212//212 217//217 
f 215//215 212//212 209//209 
f 217//217 212//212 215//215 
f 176//176 213//213 208//208 
f 257//257 176//176 208//208 
f 209//209 214//214 216//216 
f 209//209 216//216 215//215 
f 183//183 257//257 218//218 
f 183//183 176//176 257//257 
f 258//258 217//217 218//218 
f 177//177 215//215 216//216 
f 217//217 215//215 177//177 
f 235//235 265//265 228//228 
f 221//221 229//229 222//222 
f 282//282 221//221 269//269 
f 228//228 222//222 236//236 
f 223//223 229//229 221//221 
f 223//223 226//226 229//229 
f 223//223 221//221 282//282 
f 283//283 281//281 224//224 
f 224//224 281//281 225//225 
f 224//224 223//223 629//629 
f 226//226 223//223 224//224 
f 225//225 226//226 224//224 
f 281//281 270//270 225//225 
f 225//225 227//227 226//226 
f 225//225 270//270 227//227 
f 229//229 226//226 227//227 
f 220//220 234//234 295//295 
f 230//230 229//229 297//297 
f 297//297 309//309 230//230 
f 234//234 220//220 233//233 
f 231//231 219//219 235//235 
f 219//219 231//231 232//232 
f 219//219 232//232 220//220 
f 220//220 232//232 233//233 
f 229//229 230//230 237//237 
f 236//236 222//222 237//237 
f 237//237 222//222 229//229 
f 239//239 230//230 309//309 
f 233//233 232//232 194//194 
f 234//234 233//233 194//194 
f 237//237 196//196 236//236 
f 237//237 230//230 197//197 
f 197//197 230//230 239//239 
f 309//309 244//244 239//239 
f 238//238 295//295 234//234 
f 234//234 242//242 238//238 
f 238//238 242//242 240//240 
f 241//241 238//238 240//240 
f 198//198 243//243 194//194 
f 234//234 194//194 243//243 
f 234//234 243//243 242//242 
f 196//196 237//237 197//197 
f 313//313 241//241 245//245 
f 242//242 247//247 240//240 
f 241//241 240//240 248//248 
f 248//248 240//240 247//247 
f 313//313 245//245 246//246 
f 316//316 313//313 246//246 
f 250//250 316//316 246//246 
f 202//202 248//248 247//247 
f 241//241 248//248 245//245 
f 316//316 250//250 251//251 
f 252//252 244//244 315//315 
f 252//252 315//315 308//308 
f 314//314 249//249 308//308 
f 239//239 244//244 203//203 
f 253//253 248//248 202//202 
f 245//245 248//248 254//254 
f 254//254 248//248 253//253 
f 254//254 246//246 245//245 
f 254//254 250//250 246//246 
f 308//308 257//257 252//252 
f 257//257 308//308 249//249 
f 251//251 256//256 249//249 
f 254//254 255//255 250//250 
f 251//251 258//258 256//256 
f 258//258 251//251 250//250 
f 254//254 209//209 255//255 
f 249//249 256//256 218//218 
f 249//249 218//218 257//257 
f 256//256 258//258 218//218 
f 261//261 259//259 326//326 
f 262//262 327//327 324//324 
f 259//259 261//261 267//267 
f 259//259 267//267 260//260 
f 324//324 263//263 262//262 
f 261//261 338//338 276//276 
f 327//327 262//262 264//264 
f 334//334 327//327 264//264 
f 263//263 219//219 262//262 
f 263//263 260//260 265//265 
f 263//263 265//265 219//219 
f 261//261 269//269 267//267 
f 266//266 334//334 264//264 
f 276//276 269//269 261//261 
f 284//284 281//281 283//283 
f 419//419 270//270 281//281 
f 260//260 267//267 265//265 
f 267//267 228//228 265//265 
f 264//264 262//262 271//271 
f 266//266 264//264 271//271 
f 266//266 272//272 268//268 
f 275//275 268//268 272//272 
f 352//352 268//268 275//275 
f 269//269 222//222 267//267 
f 267//267 222//222 228//228 
f 265//265 235//235 219//219 
f 219//219 271//271 262//262 
f 338//338 279//279 276//276 
f 278//278 279//279 338//338 
f 266//266 271//271 273//273 
f 272//272 266//266 273//273 
f 275//275 272//272 273//273 
f 269//269 221//221 222//222 
f 219//219 220//220 271//271 
f 282//282 269//269 276//276 
f 285//285 277//277 343//343 
f 618//618 280//280 343//343 
f 343//343 280//280 344//344 
f 344//344 280//280 290//290 
f 274//274 227//227 270//270 
f 271//271 220//220 273//273 
f 273//273 220//220 295//295 
f 630//630 286//286 617//617 
f 633//633 282//282 276//276 
f 619//619 630//630 617//617 
f 626//626 622//622 620//620 
f 627//627 619//619 617//617 
f 623//623 628//628 621//621 
f 288//288 280//280 624//624 
f 288//288 290//290 280//280 
f 290//290 385//385 344//344 
f 223//223 282//282 629//629 
f 287//287 282//282 633//633 
f 284//284 283//283 635//635 
f 629//629 282//282 287//287 
f 284//284 635//635 631//631 
f 634//634 632//632 636//636 
f 625//625 289//289 637//637 
f 640//640 637//637 289//289 
f 385//385 290//290 293//293 
f 641//641 638//638 293//293 
f 638//638 292//292 293//293 
f 639//639 353//353 291//291 
f 639//639 291//291 642//642 
f 346//346 386//386 303//303 
f 353//353 308//308 291//291 
f 308//308 302//302 291//291 
f 302//302 642//642 291//291 
f 293//293 292//292 644//644 
f 644//644 294//294 293//293 
f 386//386 294//294 303//303 
f 645//645 303//303 294//294 
f 297//297 229//229 227//227 
f 297//297 227//227 274//274 
f 298//298 297//297 274//274 
f 298//298 349//349 299//299 
f 300//300 299//299 349//349 
f 300//300 346//346 303//303 
f 296//296 352//352 275//275 
f 354//354 352//352 296//296 
f 273//273 295//295 275//275 
f 306//306 354//354 296//296 
f 305//305 275//275 295//295 
f 296//296 275//275 305//305 
f 310//310 296//296 305//305 
f 306//306 296//296 310//310 
f 306//306 307//307 354//354 
f 304//304 297//297 298//298 
f 304//304 298//298 299//299 
f 300//300 301//301 299//299 
f 643//643 300//300 303//303 
f 645//645 643//643 303//303 
f 355//355 312//312 314//314 
f 355//355 314//314 308//308 
f 312//312 355//355 307//307 
f 304//304 309//309 297//297 
f 299//299 301//301 304//304 
f 304//304 301//301 309//309 
f 302//302 315//315 301//301 
f 302//302 308//308 315//315 
f 238//238 305//305 295//295 
f 305//305 238//238 310//310 
f 307//307 311//311 312//312 
f 306//306 313//313 307//307 
f 307//307 313//313 311//311 
f 301//301 315//315 309//309 
f 310//310 238//238 241//241 
f 306//306 310//310 313//313 
f 241//241 313//313 310//310 
f 309//309 315//315 244//244 
f 317//317 312//312 311//311 
f 317//317 314//314 312//312 
f 314//314 317//317 249//249 
f 316//316 311//311 313//313 
f 316//316 317//317 311//311 
f 249//249 317//317 251//251 
f 251//251 317//317 316//316 
f 326//326 320//320 368//368 
f 368//368 374//374 326//326 
f 319//319 324//324 321//321 
f 319//319 318//318 322//322 
f 318//318 323//323 322//322 
f 318//318 320//320 323//323 
f 329//329 326//326 374//374 
f 321//321 324//324 327//327 
f 321//321 327//327 325//325 
f 375//375 321//321 325//325 
f 320//320 326//326 323//323 
f 323//323 260//260 322//322 
f 319//319 322//322 324//324 
f 374//374 328//328 329//329 
f 323//323 259//259 260//260 
f 326//326 259//259 323//323 
f 327//327 330//330 325//325 
f 375//375 325//325 330//330 
f 375//375 330//330 331//331 
f 377//377 375//375 331//331 
f 333//333 377//377 331//331 
f 260//260 263//263 322//322 
f 324//324 322//322 263//263 
f 330//330 327//327 334//334 
f 338//338 261//261 326//326 
f 329//329 338//338 326//326 
f 332//332 328//328 370//370 
f 419//419 422//422 335//335 
f 335//335 422//422 380//380 
f 333//333 341//341 378//378 
f 378//378 341//341 383//383 
f 342//342 329//329 328//328 
f 379//379 353//353 332//332 
f 373//373 383//383 337//337 
f 373//373 337//337 379//379 
f 330//330 334//334 336//336 
f 336//336 331//331 330//330 
f 340//340 331//331 336//336 
f 333//333 331//331 340//340 
f 336//336 334//334 266//266 
f 268//268 336//336 266//266 
f 268//268 340//340 336//336 
f 341//341 351//351 383//383 
f 337//337 383//383 351//351 
f 338//338 329//329 342//342 
f 332//332 342//342 328//328 
f 344//344 426//426 343//343 
f 333//333 340//340 341//341 
f 353//353 379//379 337//337 
f 332//332 353//353 342//342 
f 353//353 639//639 342//342 
f 342//342 278//278 338//338 
f 342//342 639//639 278//278 
f 426//426 339//339 631//631 
f 426//426 285//285 343//343 
f 270//270 419//419 335//335 
f 339//339 284//284 631//631 
f 281//281 284//284 339//339 
f 347//347 380//380 381//381 
f 347//347 381//381 349//349 
f 381//381 382//382 349//349 
f 345//345 349//349 382//382 
f 345//345 346//346 300//300 
f 349//349 345//345 300//300 
f 274//274 270//270 335//335 
f 380//380 274//274 335//335 
f 347//347 349//349 348//348 
f 352//352 340//340 268//268 
f 340//340 352//352 350//350 
f 350//350 341//341 340//340 
f 350//350 352//352 354//354 
f 350//350 354//354 341//341 
f 347//347 274//274 380//380 
f 274//274 347//347 298//298 
f 347//347 348//348 298//298 
f 348//348 349//349 298//298 
f 341//341 354//354 351//351 
f 385//385 293//293 294//294 
f 351//351 354//354 307//307 
f 308//308 353//353 337//337 
f 351//351 307//307 355//355 
f 351//351 355//355 337//337 
f 337//337 355//355 308//308 
f 356//356 357//357 397//397 
f 403//403 397//397 359//359 
f 397//397 357//357 359//359 
f 403//403 359//359 358//358 
f 405//405 403//403 358//358 
f 405//405 358//358 360//360 
f 405//405 360//360 406//406 
f 361//361 406//406 360//360 
f 408//408 406//406 361//361 
f 365//365 408//408 361//361 
f 409//409 410//410 363//363 
f 364//364 363//363 410//410 
f 360//360 358//358 366//366 
f 367//367 360//360 366//366 
f 361//361 360//360 367//367 
f 361//361 367//367 365//365 
f 319//319 359//359 318//318 
f 356//356 362//362 357//357 
f 362//362 318//318 357//357 
f 362//362 320//320 318//318 
f 359//359 357//357 318//318 
f 362//362 356//356 368//368 
f 320//320 362//362 368//368 
f 366//366 358//358 319//319 
f 319//319 358//358 359//359 
f 409//409 368//368 356//356 
f 365//365 367//367 371//371 
f 415//415 365//365 371//371 
f 363//363 364//364 369//369 
f 370//370 369//369 364//364 
f 373//373 370//370 414//414 
f 366//366 319//319 321//321 
f 367//367 366//366 321//321 
f 371//371 372//372 415//415 
f 416//416 415//415 372//372 
f 414//414 416//416 373//373 
f 409//409 363//363 368//368 
f 368//368 363//363 374//374 
f 374//374 363//363 369//369 
f 375//375 367//367 321//321 
f 371//371 367//367 375//375 
f 416//416 372//372 373//373 
f 328//328 374//374 369//369 
f 369//369 370//370 328//328 
f 376//376 372//372 371//371 
f 375//375 377//377 371//371 
f 377//377 376//376 371//371 
f 426//426 417//417 339//339 
f 339//339 417//417 418//418 
f 418//418 281//281 339//339 
f 380//380 421//421 381//381 
f 376//376 377//377 333//333 
f 378//378 376//376 333//333 
f 370//370 373//373 379//379 
f 332//332 370//370 379//379 
f 372//372 376//376 378//378 
f 380//380 422//422 421//421 
f 381//381 429//429 382//382 
f 382//382 429//429 430//430 
f 382//382 430//430 384//384 
f 382//382 384//384 345//345 
f 373//373 372//372 383//383 
f 372//372 378//378 383//383 
f 385//385 294//294 432//432 
f 432//432 294//294 424//424 
f 386//386 384//384 431//431 
f 424//424 294//294 386//386 
f 386//386 431//431 424//424 
f 384//384 386//386 345//345 
f 345//345 386//386 346//346 
f 459//459 389//389 388//388 
f 459//459 388//388 387//387 
f 461//461 389//389 459//459 
f 399//399 389//389 461//461 
f 470//470 387//387 391//391 
f 470//470 391//391 472//472 
f 387//387 388//388 390//390 
f 390//390 391//391 387//387 
f 474//474 472//472 391//391 
f 474//474 391//391 392//392 
f 388//388 393//393 390//390 
f 393//393 394//394 390//390 
f 389//389 393//393 388//388 
f 393//393 389//389 396//396 
f 393//393 396//396 394//394 
f 394//394 397//397 390//390 
f 391//391 390//390 395//395 
f 395//395 390//390 397//397 
f 396//396 389//389 399//399 
f 392//392 398//398 474//474 
f 398//398 476//476 474//474 
f 398//398 478//478 476//476 
f 396//396 356//356 394//394 
f 394//394 356//356 397//397 
f 478//478 401//401 477//477 
f 401//401 475//475 477//477 
f 478//478 398//398 401//401 
f 392//392 391//391 400//400 
f 398//398 392//392 400//400 
f 395//395 397//397 403//403 
f 391//391 395//395 403//403 
f 400//400 391//391 405//405 
f 401//401 398//398 402//402 
f 399//399 650//650 410//410 
f 409//409 356//356 396//396 
f 396//396 399//399 409//409 
f 391//391 403//403 405//405 
f 404//404 400//400 405//405 
f 398//398 400//400 404//404 
f 409//409 399//399 410//410 
f 404//404 405//405 406//406 
f 404//404 406//406 408//408 
f 408//408 407//407 404//404 
f 407//407 398//398 404//404 
f 402//402 412//412 401//401 
f 407//407 402//402 398//398 
f 407//407 412//412 402//402 
f 650//650 414//414 410//410 
f 407//407 408//408 411//411 
f 407//407 411//411 412//412 
f 414//414 475//475 401//401 
f 411//411 408//408 365//365 
f 412//412 411//411 415//415 
f 412//412 413//413 401//401 
f 401//401 413//413 414//414 
f 413//413 412//412 415//415 
f 414//414 364//364 410//410 
f 365//365 415//415 411//411 
f 370//370 364//364 414//414 
f 413//413 415//415 414//414 
f 414//414 415//415 416//416 
f 485//485 418//418 417//417 
f 420//420 485//485 417//417 
f 418//418 419//419 281//281 
f 421//421 489//489 423//423 
f 484//484 423//423 489//489 
f 423//423 484//484 425//425 
f 424//424 431//431 487//487 
f 487//487 431//431 425//425 
f 430//430 425//425 431//431 
f 425//425 430//430 423//423 
f 426//426 420//420 417//417 
f 488//488 426//426 428//428 
f 427//427 488//488 428//428 
f 385//385 427//427 428//428 
f 488//488 420//420 426//426 
f 427//427 432//432 424//424 
f 423//423 430//430 429//429 
f 432//432 427//427 385//385 
f 421//421 423//423 381//381 
f 385//385 428//428 344//344 
f 344//344 428//428 426//426 
f 423//423 429//429 381//381 
f 430//430 431//431 384//384 
f 433//433 443//443 439//439 
f 434//434 444//444 443//443 
f 443//443 433//433 434//434 
f 434//434 433//433 435//435 
f 646//646 460//460 456//456 
f 646//646 456//456 435//435 
f 434//434 436//436 448//448 
f 444//444 434//434 448//448 
f 436//436 434//434 435//435 
f 436//436 435//435 457//457 
f 457//457 435//435 456//456 
f 454//454 448//448 436//436 
f 463//463 454//454 436//436 
f 463//463 436//436 457//457 
f 443//443 441//441 437//437 
f 441//441 442//442 438//438 
f 437//437 441//441 438//438 
f 442//442 461//461 438//438 
f 443//443 437//437 439//439 
f 439//439 437//437 440//440 
f 437//437 438//438 440//440 
f 461//461 459//459 438//438 
f 438//438 459//459 440//440 
f 460//460 646//646 439//439 
f 460//460 439//439 458//458 
f 458//458 439//439 440//440 
f 443//443 444//444 441//441 
f 441//441 444//444 445//445 
f 445//445 446//446 441//441 
f 441//441 446//446 442//442 
f 461//461 442//442 447//447 
f 447//447 442//442 446//446 
f 448//448 449//449 444//444 
f 444//444 449//449 445//445 
f 647//647 450//450 445//445 
f 445//445 450//450 446//446 
f 446//446 450//450 447//447 
f 451//451 447//447 450//450 
f 451//451 461//461 447//447 
f 448//448 452//452 449//449 
f 649//649 453//453 648//648 
f 648//648 453//453 450//450 
f 448//448 454//454 452//452 
f 452//452 454//454 455//455 
f 452//452 455//455 453//453 
f 450//450 453//453 451//451 
f 454//454 463//463 466//466 
f 454//454 466//466 455//455 
f 451//451 453//453 469//469 
f 469//469 453//453 455//455 
f 464//464 457//457 456//456 
f 463//463 457//457 464//464 
f 470//470 460//460 458//458 
f 470//470 458//458 387//387 
f 387//387 458//458 440//440 
f 440//440 459//459 387//387 
f 456//456 460//460 462//462 
f 462//462 460//460 470//470 
f 471//471 462//462 470//470 
f 464//464 456//456 462//462 
f 462//462 465//465 464//464 
f 465//465 462//462 471//471 
f 463//463 464//464 467//467 
f 467//467 464//464 465//465 
f 467//467 465//465 468//468 
f 466//466 463//463 467//467 
f 467//467 468//468 466//466 
f 466//466 468//468 455//455 
f 455//455 468//468 469//469 
f 451//451 399//399 461//461 
f 471//471 470//470 472//472 
f 650//650 399//399 451//451 
f 469//469 650//650 451//451 
f 471//471 472//472 474//474 
f 471//471 474//474 465//465 
f 476//476 465//465 474//474 
f 473//473 468//468 465//465 
f 476//476 473//473 465//465 
f 468//468 473//473 477//477 
f 468//468 477//477 469//469 
f 475//475 469//469 477//477 
f 477//477 473//473 476//476 
f 476//476 478//478 477//477 
f 492//492 481//481 479//479 
f 480//480 479//479 419//419 
f 481//481 419//419 479//479 
f 419//419 481//481 422//422 
f 492//492 482//482 481//481 
f 496//496 482//482 492//492 
f 483//483 482//482 496//496 
f 494//494 493//493 488//488 
f 480//480 419//419 418//418 
f 482//482 422//422 481//481 
f 480//480 418//418 485//485 
f 493//493 485//485 488//488 
f 421//421 422//422 482//482 
f 421//421 482//482 483//483 
f 484//484 483//483 497//497 
f 483//483 496//496 497//497 
f 486//486 501//501 487//487 
f 421//421 483//483 489//489 
f 483//483 484//484 489//489 
f 488//488 485//485 420//420 
f 499//499 488//488 427//427 
f 652//652 427//427 424//424 
f 424//424 501//501 652//652 
f 487//487 501//501 424//424 
f 425//425 484//484 486//486 
f 486//486 487//487 425//425 
f 491//491 480//480 490//490 
f 512//512 495//495 496//496 
f 491//491 492//492 479//479 
f 491//491 479//479 480//480 
f 480//480 485//485 490//490 
f 493//493 490//490 485//485 
f 504//504 493//493 494//494 
f 654//654 490//490 493//493 
f 513//513 651//651 499//499 
f 513//513 652//652 514//514 
f 492//492 512//512 496//496 
f 496//496 495//495 497//497 
f 515//515 497//497 495//495 
f 498//498 497//497 515//515 
f 515//515 514//514 498//498 
f 500//500 498//498 514//514 
f 651//651 488//488 499//499 
f 498//498 484//484 497//497 
f 500//500 514//514 501//501 
f 501//501 514//514 652//652 
f 498//498 500//500 486//486 
f 498//498 486//486 484//484 
f 486//486 500//500 501//501 
f 502//502 506//506 503//503 
f 518//518 502//502 503//503 
f 523//523 504//504 508//508 
f 654//654 653//653 507//507 
f 506//506 492//492 491//491 
f 505//505 506//506 491//491 
f 505//505 490//490 507//507 
f 505//505 491//491 490//490 
f 503//503 506//506 507//507 
f 506//506 505//505 507//507 
f 502//502 492//492 506//506 
f 502//502 512//512 492//492 
f 509//509 512//512 527//527 
f 654//654 507//507 490//490 
f 508//508 504//504 494//494 
f 508//508 651//651 510//510 
f 513//513 510//510 651//651 
f 509//509 527//527 529//529 
f 509//509 529//529 515//515 
f 525//525 510//510 511//511 
f 525//525 511//511 514//514 
f 513//513 511//511 510//510 
f 529//529 530//530 515//515 
f 515//515 530//530 514//514 
f 514//514 511//511 513//513 
f 495//495 512//512 509//509 
f 495//495 509//509 515//515 
f 517//517 516//516 653//653 
f 538//538 519//519 518//518 
f 516//516 518//518 503//503 
f 519//519 538//538 542//542 
f 517//517 653//653 654//654 
f 655//655 504//504 523//523 
f 539//539 655//655 523//523 
f 524//524 657//657 523//523 
f 540//540 657//657 524//524 
f 519//519 522//522 518//518 
f 519//519 526//526 522//522 
f 520//520 526//526 519//519 
f 520//520 519//519 542//542 
f 520//520 528//528 527//527 
f 543//543 520//520 542//542 
f 543//543 528//528 520//520 
f 521//521 544//544 541//541 
f 544//544 521//521 528//528 
f 535//535 525//525 541//541 
f 525//525 521//521 541//541 
f 526//526 520//520 527//527 
f 525//525 530//530 521//521 
f 525//525 535//535 524//524 
f 522//522 502//502 518//518 
f 522//522 526//526 502//502 
f 510//510 525//525 524//524 
f 521//521 530//530 528//528 
f 526//526 512//512 502//502 
f 512//512 526//526 527//527 
f 524//524 523//523 508//508 
f 524//524 508//508 510//510 
f 529//529 527//527 528//528 
f 529//529 528//528 530//530 
f 530//530 525//525 514//514 
f 556//556 516//516 531//531 
f 556//556 518//518 516//516 
f 531//531 516//516 517//517 
f 556//556 532//532 518//518 
f 539//539 562//562 655//655 
f 532//532 538//538 518//518 
f 538//538 532//532 533//533 
f 542//542 538//538 533//533 
f 533//533 532//532 559//559 
f 533//533 559//559 534//534 
f 534//534 542//542 533//533 
f 536//536 542//542 534//534 
f 559//559 561//561 534//534 
f 536//536 534//534 561//561 
f 540//540 661//661 657//657 
f 540//540 560//560 661//661 
f 540//540 535//535 560//560 
f 542//542 536//536 543//543 
f 563//563 535//535 541//541 
f 561//561 563//563 536//536 
f 536//536 563//563 537//537 
f 563//563 541//541 537//537 
f 536//536 544//544 543//543 
f 536//536 537//537 544//544 
f 537//537 541//541 544//544 
f 540//540 524//524 535//535 
f 543//543 544//544 528//528 
f 577//577 576//576 545//545 
f 593//593 545//545 576//576 
f 593//593 546//546 545//545 
f 547//547 658//658 659//659 
f 595//595 658//658 547//547 
f 553//553 546//546 593//593 
f 593//593 549//549 553//553 
f 553//553 531//531 546//546 
f 547//547 659//659 656//656 
f 594//594 549//549 593//593 
f 594//594 550//550 549//549 
f 550//550 594//594 597//597 
f 595//595 547//547 548//548 
f 548//548 547//547 562//562 
f 549//549 554//554 553//553 
f 550//550 554//554 549//549 
f 550//550 557//557 554//554 
f 597//597 551//551 550//550 
f 557//557 550//550 551//551 
f 547//547 656//656 562//562 
f 552//552 660//660 560//560 
f 554//554 556//556 553//553 
f 553//553 556//556 531//531 
f 559//559 557//557 551//551 
f 555//555 559//559 551//551 
f 602//602 555//555 551//551 
f 558//558 555//555 602//602 
f 558//558 602//602 552//552 
f 558//558 552//552 560//560 
f 554//554 532//532 556//556 
f 554//554 557//557 532//532 
f 532//532 557//557 559//559 
f 559//559 555//555 561//561 
f 561//561 555//555 558//558 
f 558//558 560//560 561//561 
f 562//562 656//656 655//655 
f 560//560 660//660 661//661 
f 563//563 560//560 535//535 
f 561//561 560//560 563//563 
f 565//565 572//572 570//570 
f 566//566 664//664 672//672 
f 564//564 566//566 672//672 
f 568//568 662//662 570//570 
f 567//567 667//667 663//663 
f 663//663 569//569 567//567 
f 568//568 671//671 662//662 
f 665//665 604//604 603//603 
f 673//673 666//666 681//681 
f 681//681 608//608 673//673 
f 604//604 665//665 668//668 
f 682//682 669//669 606//606 
f 606//606 669//669 670//670 
f 607//607 683//683 567//567 
f 607//607 567//567 575//575 
f 570//570 571//571 568//568 
f 575//575 569//569 676//676 
f 577//577 671//671 576//576 
f 576//576 671//671 568//568 
f 571//571 576//576 568//568 
f 578//578 576//576 571//571 
f 570//570 572//572 573//573 
f 571//571 570//570 573//573 
f 574//574 571//571 573//573 
f 569//569 575//575 567//567 
f 574//574 578//578 571//571 
f 578//578 574//574 580//580 
f 685//685 609//609 674//674 
f 674//674 609//609 675//675 
f 574//574 675//675 609//609 
f 609//609 610//610 574//574 
f 574//574 610//610 580//580 
f 610//610 582//582 580//580 
f 581//581 575//575 676//676 
f 607//607 575//575 581//581 
f 616//616 684//684 678//678 
f 576//576 578//578 579//579 
f 580//580 677//677 578//578 
f 580//580 585//585 677//677 
f 582//582 585//585 580//580 
f 586//586 585//585 582//582 
f 586//586 582//582 583//583 
f 586//586 583//583 588//588 
f 589//589 576//576 579//579 
f 677//677 584//584 679//679 
f 587//587 584//584 585//585 
f 585//585 584//584 677//677 
f 587//587 585//585 586//586 
f 587//587 586//586 588//588 
f 616//616 678//678 600//600 
f 691//691 600//600 592//592 
f 583//583 691//691 592//592 
f 591//591 587//587 588//588 
f 589//589 593//593 576//576 
f 590//590 679//679 584//584 
f 584//584 587//587 590//590 
f 587//587 591//591 590//590 
f 588//588 583//583 592//592 
f 589//589 596//596 593//593 
f 581//581 676//676 595//595 
f 581//581 595//595 598//598 
f 600//600 678//678 680//680 
f 601//601 590//590 591//591 
f 592//592 599//599 591//591 
f 591//591 599//599 601//601 
f 600//600 599//599 592//592 
f 591//591 588//588 592//592 
f 658//658 595//595 676//676 
f 594//594 593//593 596//596 
f 596//596 597//597 594//594 
f 596//596 679//679 590//590 
f 596//596 590//590 597//597 
f 597//597 590//590 601//601 
f 548//548 598//598 595//595 
f 600//600 680//680 660//660 
f 660//660 552//552 600//600 
f 552//552 599//599 600//600 
f 552//552 602//602 599//599 
f 599//599 602//602 601//601 
f 551//551 597//597 601//601 
f 602//602 551//551 601//601 
f 611//611 686//686 603//603 
f 605//605 603//603 604//604 
f 611//611 603//603 605//605 
f 606//606 605//605 682//682 
f 611//611 605//605 613//613 
f 614//614 613//613 605//605 
f 606//606 614//614 605//605 
f 614//614 606//606 684//684 
f 609//609 687//687 688//688 
f 688//688 612//612 609//609 
f 612//612 610//610 609//609 
f 612//612 688//688 689//689 
f 615//615 612//612 689//689 
f 610//610 612//612 615//615 
f 689//689 690//690 615//615 
f 582//582 610//610 615//615 
f 684//684 616//616 614//614 
f 690//690 691//691 615//615 
f 583//583 615//615 691//691 
f 615//615 583//583 582//582 
