#
# Compatibility version : 4.3
# File ID : FJ3956
# Representation ID : BP28937
# Build-up logic : FMA 3.0 is_a
# Concept ID : FMA53252
# English name : Left mental nerve
# Bounds(mm): (3.387800,-171.624700,1427.875000)-(23.380800,-157.210100,1445.042500)
# Volume(cm3): 0.009800
#
v 3.5227 -171.012 1432.8
v 3.40506 -170.914 1432.76
v 3.41045 -170.819 1432.75
v 3.4244 -170.869 1432.7
v 3.52609 -170.716 1432.74
v 3.46803 -170.918 1432.68
v 3.51473 -170.79 1432.67
v 3.51804 -170.967 1432.69
v 3.5182 -170.913 1432.66
v 3.56567 -170.839 1432.64
v 3.40972 -170.911 1432.85
v 3.39067 -170.865 1432.8
v 3.40095 -170.86 1432.85
v 3.4015 -170.816 1432.8
v 3.4416 -170.859 1432.9
v 3.42312 -170.804 1432.85
v 3.47325 -170.743 1432.79
v 3.46657 -170.993 1432.8
v 3.47236 -170.953 1432.88
v 3.53885 -170.762 1432.9
v 3.62827 -170.644 1432.84
v 3.52128 -170.998 1432.86
v 3.62234 -170.787 1432.93
v 3.65555 -170.926 1432.7
v 3.62844 -170.872 1432.65
v 3.67062 -170.884 1432.9
v 3.71113 -170.927 1432.8
v 4.30388 -170.285 1432.6
v 4.36122 -170.326 1432.59
v 4.75241 -170.36 1428.02
v 4.74573 -170.315 1427.97
v 4.74125 -170.264 1428.02
v 4.51084 -170.079 1432.62
v 4.55553 -169.993 1432.71
v 4.78017 -170.319 1427.92
v 4.81908 -170.38 1427.92
v 4.8216 -170.321 1427.89
v 4.81827 -170.269 1427.89
v 4.91505 -170.366 1427.9
v 4.91631 -170.266 1427.89
v 4.98349 -170.348 1427.94
v 4.98345 -170.262 1427.92
v 4.76846 -170.372 1427.97
v 4.77583 -170.301 1428.12
v 4.77085 -170.228 1427.96
v 4.79797 -170.209 1428.11
v 4.82426 -170.16 1428.06
v 4.81941 -170.424 1428.02
v 4.82312 -170.352 1428.14
v 4.82709 -170.247 1428.16
v 4.87205 -170.399 1428.12
v 4.87652 -170.158 1427.97
v 4.91084 -170.429 1427.97
v 4.92969 -170.427 1428.04
v 4.93576 -170.295 1428.22
v 4.93864 -170.152 1428.25
v 4.93113 -170.104 1428.2
v 4.98639 -170.389 1427.99
v 5.02682 -170.343 1428.18
v 5.00599 -170.153 1428.32
v 5.15141 -170.113 1428.45
v 4.90782 -170.031 1432.58
v 5.12923 -170.057 1428.09
v 5.10869 -169.964 1428.25
v 5.05026 -170.047 1428.35
v 5.29663 -170.13 1428.49
v 5.36076 -170.138 1428.37
v 5.14 -169.972 1432.67
v 5.37611 -170.063 1428.29
v 5.24922 -169.879 1428.56
v 5.50396 -169.721 1428.59
v 5.53285 -169.811 1428.97
v 5.32621 -169.608 1432.55
v 5.21552 -169.76 1432.87
v 5.36552 -169.56 1432.86
v 5.41552 -169.775 1432.79
v 5.55478 -169.839 1428.5
v 5.70297 -169.819 1428.71
v 5.60847 -169.898 1428.9
v 5.79156 -169.797 1428.95
v 5.76552 -169.459 1432.86
v 5.56367 -169.629 1429.06
v 5.80767 -169.568 1428.94
v 5.86552 -169.326 1429.37
v 5.8328 -169.469 1429.6
v 5.91184 -169.553 1429.62
v 5.71679 -169.251 1432.62
v 5.90422 -169.334 1432.55
v 5.81679 -169.155 1432.72
v 6.0098 -169.581 1429.58
v 6.03158 -169.482 1429.29
v 6.08415 -169.523 1429.43
v 6.10733 -169.267 1429.58
v 6.21085 -169.341 1430.21
v 6.21698 -169.177 1430.48
v 6.13056 -169.313 1432.63
v 6.17885 -169.232 1432.87
v 6.29006 -169.067 1432.92
v 6.30267 -168.982 1432.58
v 6.26552 -168.957 1432.89
v 6.42047 -169.247 1430.28
v 6.41552 -169.166 1432.81
v 6.64406 -169.014 1432.86
v 6.36882 -168.89 1430.9
v 6.46552 -168.8 1430.69
v 6.51611 -168.835 1431.27
v 6.58824 -168.911 1432.61
v 6.67333 -168.851 1432.97
v 6.64482 -168.639 1431.47
v 6.87021 -168.887 1431.29
v 6.81818 -168.839 1431.08
v 6.9146 -168.757 1431.91
v 7.01402 -168.795 1431.84
v 6.77357 -168.967 1432.8
v 6.75796 -168.685 1431.12
v 7.10663 -168.518 1431.73
v 6.94519 -168.538 1432.13
v 7.11874 -168.337 1432.18
v 6.81475 -168.625 1432.98
v 6.799 -168.553 1432.89
v 6.86928 -168.525 1432.78
v 7.01649 -168.522 1432.71
v 7.07469 -168.446 1433.03
v 7.1205 -168.505 1433.07
v 7.40364 -168.622 1432.94
v 7.27453 -168.61 1432
v 7.27334 -168.421 1432.66
v 7.26552 -168.414 1432.76
v 7.35052 -168.465 1432.72
v 7.31552 -168.464 1432.75
v 7.31552 -168.415 1432.73
v 7.31552 -168.362 1432.79
v 7.34795 -168.313 1432.77
v 7.46552 -168.523 1432.83
v 7.46552 -168.497 1432.78
v 7.20095 -168.605 1433.07
v 7.43101 -168.292 1433.17
v 7.46288 -168.438 1433.18
v 7.51821 -168.492 1433.15
v 7.47227 -168.205 1432.91
v 7.45061 -168.205 1433.1
v 7.58795 -168.417 1432.44
v 7.61552 -168.479 1432.88
v 7.60202 -168.498 1432.92
v 7.74842 -168.451 1433.03
v 7.74484 -168.451 1432.8
v 7.726 -168.373 1433.28
v 7.71531 -168.28 1433.32
v 7.83575 -168.398 1433.24
v 8.00743 -168.255 1433.46
v 7.619 -168.171 1432.61
v 7.72503 -168.143 1433.32
v 8.10823 -168.302 1433.4
v 8.2045 -168.262 1433.25
v 7.94535 -167.989 1433.39
v 8.06929 -167.938 1433.25
v 8.15276 -168.1 1433.11
v 7.98753 -168.072 1433.51
v 8.45459 -167.922 1433.43
v 8.66374 -168.137 1433.75
v 8.65999 -168.02 1433.58
v 8.49809 -167.79 1433.86
v 8.67798 -168.119 1433.91
v 8.66216 -167.895 1434.09
v 9.11688 -168.006 1434.12
v 9.15392 -167.797 1433.94
v 8.94404 -167.97 1434.23
v 9.05109 -167.588 1434.16
v 9.10137 -167.636 1434.02
v 9.18359 -167.901 1434
v 9.16357 -167.632 1434.42
v 9.32544 -167.72 1434.56
v 9.84504 -171.472 1443.19
v 9.88377 -171.404 1443.17
v 9.90028 -171.466 1443.08
v 9.89577 -171.405 1443.11
v 9.91794 -171.568 1443.16
v 9.86209 -171.519 1443.25
v 9.85349 -171.468 1443.25
v 9.909 -171.567 1443.25
v 9.90389 -171.516 1443.29
v 9.91666 -171.468 1443.3
v 9.92921 -171.411 1443.24
v 9.63253 -167.832 1434.56
v 9.60863 -167.836 1434.33
v 9.67566 -167.402 1434.53
v 9.69252 -167.68 1434.29
v 9.86488 -167.518 1434.4
v 9.6361 -167.425 1434.62
v 9.6966 -167.502 1434.77
v 9.98061 -171.52 1443.04
v 10.014 -171.618 1443.2
v 10.0143 -171.595 1443.1
v 10.0675 -171.601 1443.11
v 10.0773 -171.559 1443.04
v 10.1122 -171.605 1443.15
v 10.1155 -171.316 1443.14
v 10.1712 -171.552 1443.05
v 10.1781 -171.559 1443.14
v 10.2343 -171.377 1442.83
v 10.35 -171.405 1442.85
v 9.96789 -171.564 1443.3
v 9.96348 -171.513 1443.31
v 9.97216 -171.459 1443.29
v 10.0178 -171.516 1443.3
v 10.066 -171.593 1443.25
v 10.0877 -171.448 1443.24
v 10.1359 -171.504 1443.23
v 10.1854 -171.278 1442.81
v 10.1393 -171.234 1442.87
v 10.2323 -171.159 1442.92
v 10.2007 -167.512 1435.02
v 10.4284 -171.383 1442.87
v 10.431 -171 1442.65
v 10.6531 -171.215 1442.7
v 10.4052 -171.155 1442.91
v 10.5055 -171.293 1442.88
v 10.5059 -171.197 1442.88
v 10.6448 -170.913 1442.31
v 10.336 -167.619 1434.71
v 10.7155 -167.305 1434.79
v 10.7948 -170.977 1442.57
v 10.8819 -171.019 1442.49
v 11.021 -170.814 1441.95
v 11.0782 -170.841 1442.28
v 11.0789 -170.906 1442.1
v 11.053 -170.544 1441.85
v 11.0693 -170.529 1441.99
v 11.1389 -167.404 1435.09
v 10.8655 -167.062 1435
v 10.907 -167.09 1435.29
v 11.325 -170.682 1441.74
v 11.4538 -170.61 1441.71
v 11.1814 -170.827 1442.12
v 11.2438 -170.516 1441.59
v 11.4875 -170.184 1441.27
v 11.5247 -170.344 1441.3
v 11.2219 -170.561 1442.04
v 11.3771 -170.301 1441.72
v 11.4526 -170.444 1441.82
v 11.0965 -170.56 1442.06
v 11.4132 -170.186 1441.46
v 11.1433 -166.954 1435.27
v 11.6746 -170.358 1441.54
v 11.7292 -170.275 1441.22
v 11.6692 -169.871 1441.12
v 11.6917 -169.937 1441.33
v 11.7694 -170.001 1441.38
v 11.8597 -170.074 1441.34
v 11.6155 -167.039 1435.11
v 11.7719 -167.175 1435.51
v 11.6655 -166.821 1435.24
v 12.0267 -169.958 1441
v 12.1022 -169.829 1441.01
v 12.023 -169.545 1440.57
v 12.1363 -169.576 1440.53
v 12.1021 -169.461 1440.9
v 12.1479 -169.217 1440.66
v 12.1838 -169.135 1440.41
v 12.2365 -169.43 1440.83
v 12.1655 -166.855 1435.74
v 12.1655 -166.602 1435.43
v 12.3904 -169.075 1440.58
v 12.3987 -169.381 1440.41
v 12.4344 -169.284 1440.61
v 12.4595 -169.337 1440.46
v 12.7199 -168.867 1440.01
v 12.3802 -167.018 1435.5
v 12.8094 -166.748 1435.7
v 12.4712 -166.501 1435.71
v 12.8624 -168.769 1440.07
v 12.9732 -168.396 1439.68
v 13.0654 -168.44 1439.78
v 12.8834 -168.139 1439.65
v 12.9649 -168.198 1439.58
v 13.0316 -168.282 1440.01
v 13.0308 -168.035 1439.88
v 12.989 -167.905 1439.67
v 13.0749 -166.575 1435.43
v 12.9704 -166.418 1435.39
v 13.1665 -168.297 1439.83
v 13.2527 -168.075 1439.44
v 13.3594 -167.839 1439.16
v 13.4235 -167.87 1439.23
v 13.4013 -167.967 1439.44
v 13.2239 -167.694 1439.14
v 13.2312 -167.527 1439.17
v 13.3226 -167.482 1439.32
v 13.5762 -167.633 1439.28
v 13.3725 -167.776 1439.58
v 13.2819 -167.451 1439.2
v 13.832 -167.285 1438.44
v 13.5584 -167.013 1438.58
v 13.5976 -166.989 1438.38
v 13.7706 -166.918 1438.6
v 13.8949 -166.995 1438.59
v 13.6675 -166.933 1438.6
v 13.8655 -166.527 1438.03
v 14.0528 -166.866 1437.86
v 14.1798 -166.829 1438.01
v 14.0108 -167.008 1438.42
v 14.1141 -166.63 1437.58
v 14.2416 -166.446 1437.95
v 14.2711 -166.22 1437.71
v 14.4923 -166.506 1437.45
v 14.4362 -166.035 1437.05
v 14.5669 -166.32 1437.56
v 15.0529 -169.003 1443.42
v 15.0552 -168.925 1443.39
v 15.0829 -169.053 1443.42
v 15.0854 -168.965 1443.33
v 15.1182 -169.052 1443.35
v 15.1599 -168.917 1443.21
v 15.0561 -169.001 1443.52
v 15.0443 -168.95 1443.51
v 15.0562 -168.872 1443.48
v 15.0613 -168.9 1443.56
v 15.068 -168.949 1443.57
v 15.0862 -168.896 1443.61
v 15.1157 -169.03 1443.56
v 15.1162 -168.946 1443.63
v 15.1178 -168.895 1443.64
v 15.0839 -168.822 1443.53
v 15.109 -168.838 1443.6
v 15.0349 -166.062 1436.56
v 14.8884 -166.156 1437.13
v 14.9469 -165.884 1436.44
v 15.0811 -165.711 1436.84
v 15.045 -165.901 1436.98
v 15.0815 -165.627 1436.3
v 15.0037 -165.595 1436.56
v 15.1645 -169.084 1443.38
v 15.1644 -169.084 1443.47
v 15.169 -169.044 1443.32
v 15.2148 -169.068 1443.42
v 15.2154 -169.051 1443.35
v 15.262 -168.988 1443.36
v 15.1673 -169.039 1443.57
v 15.1655 -168.988 1443.61
v 15.1655 -168.94 1443.64
v 15.2132 -169.044 1443.52
v 15.2499 -169.001 1443.51
v 15.2145 -168.997 1443.58
v 15.2469 -168.95 1443.56
v 15.2146 -168.946 1443.6
v 15.2561 -168.881 1443.55
v 15.2135 -168.892 1443.61
v 15.2785 -168.918 1443.48
v 15.1685 -168.6 1443.38
v 15.2655 -168.854 1443.16
v 15.1656 -168.845 1443.62
v 15.1732 -168.727 1443.53
v 15.2288 -168.738 1443.52
v 15.3655 -168.299 1442.58
v 15.4525 -168.438 1442.89
v 15.4305 -168.356 1443.05
v 15.4658 -168.153 1442.89
v 15.2726 -168.337 1443.14
v 15.3162 -168.358 1443.18
v 15.2785 -168.119 1442.68
v 15.4755 -167.783 1442.52
v 15.4642 -167.465 1441.76
v 15.4184 -167.6 1442.17
v 15.5094 -167.027 1441.32
v 15.4495 -165.815 1436.49
v 15.4368 -165.682 1436.58
v 15.3401 -165.284 1436.11
v 15.5155 -165.367 1436.44
v 15.1688 -165.236 1436.04
v 15.4804 -165.131 1436.16
v 15.6565 -167.868 1442.21
v 15.6686 -167.768 1442.3
v 15.5654 -167.479 1441.66
v 15.6562 -167.538 1441.74
v 15.7611 -167.493 1441.87
v 15.8003 -167.002 1441.14
v 15.7578 -167.145 1441.72
v 15.837 -167.053 1441.51
v 15.62 -166.787 1440.87
v 15.718 -166.924 1440.98
v 15.7684 -166.31 1440.18
v 15.8154 -166.373 1440.85
v 15.6006 -166.57 1441.02
v 15.6607 -166.068 1440.24
v 15.8617 -165.562 1439.76
v 15.6655 -165.38 1435.77
v 15.8239 -165.518 1439.29
v 15.8455 -165.285 1439.13
v 15.8668 -165.248 1439.2
v 15.8655 -164.834 1436.09
v 15.9649 -165.854 1439.55
v 16.1847 -165.655 1439.54
v 16.0724 -165.799 1439.96
v 16.0551 -165.214 1438.67
v 15.8604 -165.161 1435.6
v 16.0655 -165.172 1435.71
v 16.1155 -165.154 1435.96
v 16.1668 -164.997 1436.08
v 15.9952 -165.13 1436.13
v 15.984 -165.015 1436.14
v 16.1024 -164.905 1436.13
v 16.018 -164.931 1438.48
v 15.9872 -164.915 1438.67
v 16.1997 -164.821 1438.71
v 16.1754 -164.729 1438.56
v 16.0206 -165.016 1438.99
v 16.1171 -165.122 1439.15
v 16.1232 -164.88 1435.61
v 16.0155 -164.627 1435.98
v 16.098 -164.715 1438.32
v 16.1139 -164.714 1438.45
v 16.2655 -164.492 1438.12
v 16.3644 -165.148 1438.87
v 16.4494 -164.949 1435.74
v 16.5584 -164.931 1435.84
v 16.3994 -165.12 1438.58
v 16.3995 -164.504 1437.67
v 16.7628 -164.489 1437.4
v 16.6901 -164.735 1437.99
v 16.5365 -164.731 1438.35
v 16.4911 -164.338 1436.01
v 16.5155 -164.35 1437.97
v 16.8986 -164.612 1435.78
v 17.0974 -164.591 1436.06
v 17.0962 -164.485 1436.27
v 16.7788 -164.57 1437.92
v 16.747 -164.403 1437.92
v 16.7655 -164.352 1435.74
v 17.0655 -164.268 1436.38
v 16.7655 -163.976 1437.3
v 16.9505 -164.057 1437.55
v 17.0161 -164.243 1437.61
v 17.085 -164.356 1437.51
v 17.207 -164.288 1435.84
v 17.4463 -164.296 1436.04
v 17.4925 -163.707 1436.58
v 17.5155 -163.704 1436.64
v 17.2733 -163.805 1437.33
v 17.3655 -163.969 1437.32
v 17.5535 -163.928 1436.59
v 17.5655 -163.85 1436.69
v 17.5655 -163.805 1436.63
v 17.5655 -163.804 1436.65
v 17.6155 -163.843 1436.64
v 17.6753 -163.853 1436.65
v 17.6424 -163.851 1436.71
v 17.7354 -163.919 1436.6
v 17.7784 -163.83 1436.76
v 17.85 -163.807 1436.68
v 17.8811 -163.92 1436.54
v 17.6655 -163.954 1436.99
v 17.7182 -163.778 1437.14
v 17.6655 -163.633 1436.08
v 17.6655 -163.436 1437.12
v 17.7655 -163.191 1436.75
v 18.0464 -163.715 1436.29
v 18.0028 -163.733 1436.75
v 18.2567 -162.887 1436.69
v 18.2843 -162.889 1437.08
v 18.1979 -163.088 1437.08
v 18.2725 -163.129 1437.1
v 18.3458 -162.956 1437.16
v 18.6655 -163.269 1436.91
v 18.6618 -162.659 1436.81
v 18.8408 -162.795 1436.79
v 19.6979 -162.12 1438.13
v 19.9064 -161.702 1437.7
v 19.9601 -161.84 1437.63
v 19.9087 -161.497 1437.99
v 20.3247 -161.283 1438.05
v 20.1155 -161.455 1438.46
v 20.3007 -161.176 1438.37
v 20.3655 -161.933 1438.14
v 20.5155 -161.549 1438.6
v 20.4605 -161.395 1437.97
v 20.736 -161.16 1438.1
v 20.7018 -161.604 1438.12
v 20.9393 -161.192 1438.13
v 21.0749 -160.863 1438.2
v 20.793 -160.874 1438.28
v 20.7984 -160.765 1438.46
v 20.8155 -160.938 1438.78
v 21.3655 -160.967 1438.23
v 21.4911 -160.999 1438.58
v 21.4718 -160.666 1438.2
v 21.2408 -160.516 1438.35
v 21.2523 -160.405 1438.49
v 21.555 -160.239 1440.66
v 21.4975 -160.202 1438.62
v 21.6155 -160.767 1438.23
v 21.6135 -160.936 1438.42
v 21.8738 -160.497 1438.16
v 21.8432 -160.333 1438.86
v 21.8557 -160.341 1438.96
v 21.8158 -160.528 1439.67
v 21.6114 -160.442 1440.48
v 21.718 -160.512 1441.05
v 21.8291 -160.569 1440.67
v 21.7077 -160.382 1441.64
v 21.8857 -160.482 1441.99
v 21.7908 -160.209 1442.21
v 21.8923 -160.292 1442.63
v 21.8548 -160.313 1438.13
v 21.6419 -160.147 1438.34
v 21.7358 -160.259 1438.83
v 21.8026 -160.233 1438.85
v 21.7977 -160.183 1438.85
v 21.8016 -160.187 1438.91
v 21.7312 -160.178 1438.8
v 21.8045 -160.119 1438.91
v 21.8155 -160.087 1438.79
v 21.6315 -160.197 1439.55
v 21.8439 -159.952 1440.36
v 21.8558 -160.063 1442.15
v 21.9104 -159.864 1438.55
v 22.301 -160.473 1443.26
v 22.1381 -160.494 1438.26
v 21.9655 -160.453 1438.76
v 21.9655 -160.409 1438.86
v 22.0885 -160.455 1438.66
v 22.1613 -160.415 1438.73
v 22.0268 -160.519 1439.44
v 22.2113 -160.319 1439.91
v 22.0821 -160.479 1440.59
v 22.1781 -160.232 1440.66
v 22.127 -160.48 1441.61
v 22.3152 -160.309 1441.95
v 22.3473 -160.447 1442.71
v 21.9967 -160.17 1442.96
v 22.2818 -160.371 1443.66
v 22.1103 -160.038 1438.01
v 22.1436 -159.973 1437.98
v 22.2484 -160.117 1437.96
v 22.303 -160.19 1438.01
v 22.3121 -159.973 1439.38
v 22.1668 -160.069 1440.02
v 21.99 -159.972 1440.79
v 22.2274 -159.973 1442.03
v 22.0916 -159.939 1442.29
v 22.1666 -160.016 1443.13
v 22.2067 -159.784 1437.78
v 22.0077 -159.896 1438.14
v 22.0788 -159.941 1438.05
v 22.0938 -159.828 1438.07
v 22.0861 -159.742 1438.12
v 22.1185 -159.878 1438
v 22.0358 -159.755 1438.29
v 22.1501 -159.641 1438.2
v 22.1439 -159.66 1438.44
v 22.3324 -159.616 1438.56
v 21.9912 -159.81 1438.75
v 22.0316 -159.792 1439.07
v 22.1998 -159.811 1439.2
v 22.3476 -159.256 1437.32
v 22.2682 -158.142 1436.22
v 22.2602 -158.174 1436.54
v 22.0519 -157.676 1436.06
v 22.2244 -157.82 1435.96
v 22.2152 -157.684 1435.9
v 22.3178 -157.746 1435.88
v 22.0159 -157.669 1436.31
v 22.0829 -157.841 1436.18
v 22.1163 -157.676 1436.52
v 22.0504 -157.522 1436.07
v 22.1749 -157.536 1435.92
v 22.1707 -157.384 1436
v 22.2761 -157.283 1436.05
v 22.3158 -157.639 1435.85
v 22.0288 -157.465 1436.3
v 22.0712 -157.515 1436.45
v 22.1252 -157.364 1436.4
v 22.1259 -157.322 1436.2
v 22.2623 -157.245 1436.34
v 22.225 -157.515 1436.58
v 22.3144 -157.312 1436.49
v 22.3123 -157.218 1436.24
v 22.5836 -160.452 1444.01
v 22.4851 -160.142 1442.58
v 22.5079 -160.286 1442.74
v 22.6919 -160.42 1443.68
v 22.7608 -160.332 1443.57
v 22.4666 -160.112 1444.09
v 22.5685 -160.025 1437.72
v 22.3771 -160.122 1437.92
v 22.4868 -160.206 1438.09
v 22.46 -160.272 1438.4
v 22.4374 -160.152 1439.11
v 22.6721 -160.017 1443.34
v 22.4889 -159.978 1443.77
v 22.6921 -159.957 1443.67
v 22.6479 -159.732 1438.47
v 22.5085 -159.58 1437.18
v 22.4116 -159.401 1438.06
v 22.6524 -159.281 1437.91
v 22.4147 -159.19 1437
v 22.4147 -158.837 1437.04
v 22.4648 -159.121 1437.56
v 22.6117 -159.135 1437.7
v 22.6697 -158.95 1437.49
v 22.467 -158.737 1436.53
v 22.3758 -158.629 1436.75
v 22.6078 -158.71 1437.23
v 22.4699 -158.094 1436.03
v 22.364 -158.026 1436.72
v 22.4213 -158.394 1436.85
v 22.6502 -158.203 1436.93
v 22.4246 -157.755 1435.88
v 22.521 -157.697 1435.88
v 22.4789 -157.808 1436.73
v 22.3638 -157.537 1435.85
v 22.3597 -157.391 1435.91
v 22.4175 -157.634 1435.85
v 22.5121 -157.492 1435.89
v 22.5099 -157.323 1436
v 22.625 -157.616 1435.93
v 22.678 -157.484 1436.01
v 22.3699 -157.223 1436.34
v 22.4621 -157.277 1436.44
v 22.5166 -157.245 1436.34
v 22.5649 -157.25 1436.24
v 22.6124 -157.372 1436.46
v 22.6131 -157.313 1436.11
v 22.6524 -157.321 1436.29
v 22.7389 -157.451 1436.16
v 22.4263 -157.455 1436.6
v 22.463 -157.223 1436.19
v 23.0039 -160.396 1444.88
v 23.0169 -160.362 1444.97
v 23.1164 -160.37 1444.96
v 22.7625 -160.192 1443.42
v 22.9705 -160.216 1443.93
v 23.1018 -160.101 1444.21
v 22.8308 -160.263 1444.85
v 22.9059 -160.115 1444.93
v 22.8898 -160.353 1444.85
v 22.9319 -160.309 1444.96
v 22.9647 -160.212 1445.01
v 23.0614 -160.26 1445.04
v 23.0651 -160.157 1445.03
v 23.0681 -160.022 1444.95
v 23.1181 -160.309 1445.02
v 22.7552 -159.943 1437.74
v 22.9295 -159.996 1444.02
v 22.9907 -159.972 1444.79
v 22.7602 -159.686 1437.24
v 22.8489 -159.699 1438.02
v 22.7638 -159.217 1436.75
v 23.0611 -159.265 1437.1
v 22.842 -159.252 1437.77
v 23.1142 -158.84 1437.04
v 22.7592 -159.126 1437.69
v 22.8582 -158.913 1437.44
v 22.7504 -158.659 1436.32
v 22.9509 -158.655 1436.41
v 23.0801 -158.5 1436.53
v 22.8078 -158.632 1437.21
v 23.0179 -158.759 1437.19
v 22.7461 -158.233 1436.11
v 22.803 -158.235 1436.94
v 23.0299 -158.243 1436.74
v 22.8652 -157.894 1436.14
v 22.9897 -157.993 1436.39
v 22.7603 -157.894 1436.74
v 22.7747 -157.544 1436.42
v 23.1307 -160.406 1444.77
v 23.2043 -160.26 1445.01
v 23.1635 -160.208 1445.03
v 23.2181 -160.36 1444.91
v 23.2114 -160.326 1444.97
v 23.2092 -160.069 1444.97
v 23.2083 -159.989 1444.89
v 23.2308 -160.35 1444.7
v 23.2641 -160.164 1444.98
v 23.3063 -160.269 1444.92
v 23.2973 -160.278 1444.66
v 23.3412 -160.268 1444.81
v 23.342 -160.167 1444.9
v 23.3449 -160.073 1444.85
v 23.3094 -160.069 1444.9
v 23.3177 -160.032 1444.72
v 23.3071 -160.019 1444.83
v 23.3299 -160.185 1444.65
v 23.3736 -160.167 1444.81
v 23.1342 -159.941 1444.68
v 3.5227 -171.012 1432.8
v 3.5227 -171.012 1432.8
v 3.40506 -170.914 1432.76
v 3.41045 -170.819 1432.75
v 3.4244 -170.869 1432.7
v 3.46803 -170.918 1432.68
v 3.5182 -170.913 1432.66
v 3.46657 -170.993 1432.8
v 3.47236 -170.953 1432.88
v 3.52128 -170.998 1432.86
v 3.52128 -170.998 1432.86
v 3.67062 -170.884 1432.9
v 4.81827 -170.269 1427.89
v 4.81827 -170.269 1427.89
v 4.91505 -170.366 1427.9
v 4.91631 -170.266 1427.89
v 4.77085 -170.228 1427.96
v 4.91084 -170.429 1427.97
v 5.15141 -170.113 1428.45
v 5.29663 -170.13 1428.49
v 5.24922 -169.879 1428.56
v 5.50396 -169.721 1428.59
v 5.41552 -169.775 1432.79
v 5.60847 -169.898 1428.9
v 5.80767 -169.568 1428.94
v 5.86552 -169.326 1429.37
v 5.86552 -169.326 1429.37
v 5.8328 -169.469 1429.6
v 6.10733 -169.267 1429.58
v 6.26552 -168.957 1432.89
v 6.36882 -168.89 1430.9
v 6.46552 -168.8 1430.69
v 6.51611 -168.835 1431.27
v 6.58824 -168.911 1432.61
v 6.64482 -168.639 1431.47
v 7.01402 -168.795 1431.84
v 6.75796 -168.685 1431.12
v 7.10663 -168.518 1431.73
v 7.11874 -168.337 1432.18
v 7.11874 -168.337 1432.18
v 6.799 -168.553 1432.89
v 7.40364 -168.622 1432.94
v 7.27453 -168.61 1432
v 7.26552 -168.414 1432.76
v 7.35052 -168.465 1432.72
v 7.35052 -168.465 1432.72
v 7.31552 -168.464 1432.75
v 7.31552 -168.464 1432.75
v 7.31552 -168.464 1432.75
v 7.31552 -168.415 1432.73
v 7.31552 -168.415 1432.73
v 7.31552 -168.415 1432.73
v 7.31552 -168.415 1432.73
v 7.31552 -168.362 1432.79
v 7.31552 -168.362 1432.79
v 7.34795 -168.313 1432.77
v 7.46552 -168.497 1432.78
v 7.47227 -168.205 1432.91
v 7.45061 -168.205 1433.1
v 7.58795 -168.417 1432.44
v 7.619 -168.171 1432.61
v 8.2045 -168.262 1433.25
v 7.94535 -167.989 1433.39
v 8.06929 -167.938 1433.25
v 8.15276 -168.1 1433.11
v 8.15276 -168.1 1433.11
v 8.66374 -168.137 1433.75
v 8.65999 -168.02 1433.58
v 9.84504 -171.472 1443.19
v 9.84504 -171.472 1443.19
v 9.86209 -171.519 1443.25
v 9.86209 -171.519 1443.25
v 9.85349 -171.468 1443.25
v 9.85349 -171.468 1443.25
v 10.1393 -171.234 1442.87
v 10.2007 -167.512 1435.02
v 10.431 -171 1442.65
v 10.6448 -170.913 1442.31
v 10.7155 -167.305 1434.79
v 11.053 -170.544 1441.85
v 11.1389 -167.404 1435.09
v 11.1389 -167.404 1435.09
v 10.8655 -167.062 1435
v 10.907 -167.09 1435.29
v 11.6917 -169.937 1441.33
v 11.6155 -167.039 1435.11
v 11.6655 -166.821 1435.24
v 12.1479 -169.217 1440.66
v 12.1655 -166.602 1435.43
v 12.7199 -168.867 1440.01
v 12.3802 -167.018 1435.5
v 12.4712 -166.501 1435.71
v 12.9732 -168.396 1439.68
v 12.9649 -168.198 1439.58
v 13.0749 -166.575 1435.43
v 12.9704 -166.418 1435.39
v 12.9704 -166.418 1435.39
v 12.9704 -166.418 1435.39
v 13.4013 -167.967 1439.44
v 13.8655 -166.527 1438.03
v 13.8655 -166.527 1438.03
v 14.1798 -166.829 1438.01
v 14.1798 -166.829 1438.01
v 14.1141 -166.63 1437.58
v 14.2711 -166.22 1437.71
v 14.2711 -166.22 1437.71
v 14.4923 -166.506 1437.45
v 14.4923 -166.506 1437.45
v 14.4362 -166.035 1437.05
v 15.1178 -168.895 1443.64
v 15.0349 -166.062 1436.56
v 14.9469 -165.884 1436.44
v 15.0815 -165.627 1436.3
v 15.0037 -165.595 1436.56
v 15.1645 -169.084 1443.38
v 15.1655 -168.988 1443.61
v 15.1656 -168.845 1443.62
v 15.3655 -168.299 1442.58
v 15.4495 -165.815 1436.49
v 15.3401 -165.284 1436.11
v 15.3401 -165.284 1436.11
v 15.3401 -165.284 1436.11
v 15.4804 -165.131 1436.16
v 15.4804 -165.131 1436.16
v 15.6006 -166.57 1441.02
v 15.8617 -165.562 1439.76
v 15.6655 -165.38 1435.77
v 15.6655 -165.38 1435.77
v 15.6655 -165.38 1435.77
v 15.8655 -164.834 1436.09
v 15.9649 -165.854 1439.55
v 16.1847 -165.655 1439.54
v 16.0551 -165.214 1438.67
v 16.1232 -164.88 1435.61
v 16.0155 -164.627 1435.98
v 16.3644 -165.148 1438.87
v 16.3994 -165.12 1438.58
v 16.3994 -165.12 1438.58
v 16.3995 -164.504 1437.67
v 16.6901 -164.735 1437.99
v 16.6901 -164.735 1437.99
v 16.4911 -164.338 1436.01
v 16.4911 -164.338 1436.01
v 16.8986 -164.612 1435.78
v 16.7655 -164.352 1435.74
v 16.7655 -164.352 1435.74
v 17.0655 -164.268 1436.38
v 16.7655 -163.976 1437.3
v 16.7655 -163.976 1437.3
v 16.7655 -163.976 1437.3
v 16.9505 -164.057 1437.55
v 17.085 -164.356 1437.51
v 17.4925 -163.707 1436.58
v 17.4925 -163.707 1436.58
v 17.4925 -163.707 1436.58
v 17.5155 -163.704 1436.64
v 17.5155 -163.704 1436.64
v 17.5155 -163.704 1436.64
v 17.2733 -163.805 1437.33
v 17.5655 -163.805 1436.63
v 17.5655 -163.804 1436.65
v 17.6155 -163.843 1436.64
v 17.6155 -163.843 1436.64
v 17.6155 -163.843 1436.64
v 17.6753 -163.853 1436.65
v 17.85 -163.807 1436.68
v 17.6655 -163.954 1436.99
v 17.6655 -163.633 1436.08
v 17.6655 -163.436 1437.12
v 17.7655 -163.191 1436.75
v 17.7655 -163.191 1436.75
v 18.0464 -163.715 1436.29
v 18.0028 -163.733 1436.75
v 18.2843 -162.889 1437.08
v 18.2843 -162.889 1437.08
v 18.1979 -163.088 1437.08
v 18.2725 -163.129 1437.1
v 18.6655 -163.269 1436.91
v 18.6655 -163.269 1436.91
v 18.6655 -163.269 1436.91
v 18.6618 -162.659 1436.81
v 18.8408 -162.795 1436.79
v 19.6979 -162.12 1438.13
v 19.9087 -161.497 1437.99
v 20.1155 -161.455 1438.46
v 20.3655 -161.933 1438.14
v 20.5155 -161.549 1438.6
v 20.5155 -161.549 1438.6
v 20.7018 -161.604 1438.12
v 20.7018 -161.604 1438.12
v 21.0749 -160.863 1438.2
v 20.8155 -160.938 1438.78
v 20.8155 -160.938 1438.78
v 21.4911 -160.999 1438.58
v 21.4718 -160.666 1438.2
v 21.8432 -160.333 1438.86
v 21.8432 -160.333 1438.86
v 21.8432 -160.333 1438.86
v 21.8026 -160.233 1438.85
v 21.7977 -160.183 1438.85
v 21.8155 -160.087 1438.79
v 21.8439 -159.952 1440.36
v 21.8439 -159.952 1440.36
v 22.301 -160.473 1443.26
v 21.9655 -160.453 1438.76
v 21.9655 -160.409 1438.86
v 21.9655 -160.409 1438.86
v 22.1613 -160.415 1438.73
v 22.2113 -160.319 1439.91
v 22.1781 -160.232 1440.66
v 22.3473 -160.447 1442.71
v 22.3121 -159.973 1439.38
v 22.1668 -160.069 1440.02
v 21.99 -159.972 1440.79
v 22.2274 -159.973 1442.03
v 22.3324 -159.616 1438.56
v 22.1998 -159.811 1439.2
v 22.4666 -160.112 1444.09
v 22.4374 -160.152 1439.11
v 22.6921 -159.957 1443.67
v 22.6479 -159.732 1438.47
v 22.4648 -159.121 1437.56
v 22.9059 -160.115 1444.93
v 22.7602 -159.686 1437.24
v 22.7638 -159.217 1436.75
v 22.842 -159.252 1437.77
v 23.3736 -160.167 1444.81
vn -0.311093 -0.886284 -0.343107
vn -0.856539 -0.267613 -0.441277
vn -0.956091 0.0897697 -0.278982
vn -0.869787 -0.168798 -0.463657
vn -0.569799 0.704332 -0.423374
vn -0.568514 -0.588707 -0.574644
vn -0.458945 0.383475 -0.801446
vn -0.0847654 -0.759594 -0.64485
vn -0.0412112 -0.419895 -0.906637
vn -0.195766 0.0429724 -0.979709
vn -0.841941 -0.384758 0.378281
vn -0.999935 -0.0071988 -0.00882323
vn -0.900116 0.12202 0.418212
vn -0.888233 0.454664 0.0657524
vn -0.538086 0.0614233 0.840649
vn -0.682526 0.565681 0.462777
vn -0.64386 0.765139 -0.00271874
vn -0.49422 -0.77201 -0.399685
vn -0.592116 -0.596639 0.541684
vn -0.398484 0.486607 0.777448
vn -0.5164 0.753064 0.407708
vn -0.390463 -0.85802 0.333678
vn -0.0721683 -0.0137714 0.997297
vn 0.383702 -0.763319 -0.519728
vn 0.167678 -0.408918 -0.897034
vn 0.137791 -0.337724 0.931105
vn 0.489977 -0.860294 0.140775
vn -0.236807 0.2629 -0.935311
vn 0.00156175 -0.0867673 -0.996227
vn -0.880823 -0.440124 0.174473
vn -0.937815 -0.0797174 -0.337859
vn -0.960467 0.262326 0.0932093
vn -0.439133 0.600194 -0.668528
vn -0.557985 0.81287 -0.167018
vn -0.711609 -0.125666 -0.691246
vn -0.369375 -0.672361 -0.641477
vn -0.271943 -0.191022 -0.943164
vn -0.651546 0.141931 -0.745214
vn 0.163182 -0.359573 -0.918738
vn 0.130595 -0.0500761 -0.99017
vn 0.642052 -0.402902 -0.652256
vn 0.536842 0.0546478 -0.841911
vn -0.734429 -0.568256 -0.371078
vn -0.803562 -0.077432 0.590163
vn -0.822429 0.229264 -0.520624
vn -0.795376 0.409543 0.446824
vn -0.670192 0.742056 0.0140169
vn -0.419182 -0.905902 0.0602255
vn -0.553903 -0.518595 0.651346
vn -0.712832 0.138198 0.687584
vn -0.161887 -0.813885 0.558018
vn -0.24441 0.779467 -0.576797
vn -0.123856 -0.926023 -0.356569
vn 0.264603 -0.95339 0.145027
vn -0.314114 -0.550313 0.77362
vn -0.72988 0.276165 0.625307
vn -0.709691 0.607713 0.356404
vn 0.607819 -0.714285 -0.34692
vn 0.162601 -0.862271 0.479634
vn -0.654099 -0.0537626 0.754496
vn -0.738217 -0.0802825 0.669769
vn 0.262955 -0.442736 -0.857228
vn 0.280507 0.607244 -0.743351
vn -0.487577 0.866446 -0.107422
vn -0.767774 0.443533 0.462387
vn 0.371815 -0.892451 0.255509
vn 0.594222 -0.804291 0.00417554
vn 0.518696 -0.813545 -0.262867
vn 0.774319 -0.206535 -0.598142
vn -0.817785 0.221157 0.531335
vn 0.213648 0.766527 -0.605633
vn -0.626693 -0.487936 0.607597
vn -0.159094 0.225478 -0.96117
vn 0.178089 -0.257941 0.949606
vn -0.237569 0.353193 0.904884
vn 0.526721 -0.80757 0.26532
vn 0.630579 0.351821 -0.691804
vn 0.868831 -0.217826 -0.444618
vn -0.232088 -0.798746 0.555104
vn 0.660585 -0.75033 -0.025148
vn 0.179073 -0.353563 0.91811
vn -0.874794 0.221969 0.430657
vn 0.273381 0.784233 -0.556993
vn -0.790797 0.593181 0.15092
vn -0.800812 -0.324617 0.503313
vn -0.391971 -0.769369 0.50441
vn -0.439047 0.711668 -0.548422
vn 0.150252 -0.17917 -0.972277
vn -0.536292 0.82377 0.183832
vn 0.237971 -0.930861 0.27725
vn 0.855976 0.156188 -0.49286
vn 0.886367 -0.370998 -0.276973
vn 0.24749 0.851013 -0.463169
vn -0.0632828 -0.929206 0.364102
vn -0.718882 -0.499541 0.483393
vn 0.461825 -0.697252 -0.548231
vn 0.246256 -0.53665 0.807072
vn -0.049223 -0.0836232 0.995281
vn -0.167424 0.407832 -0.897576
vn -0.495485 0.679691 0.540845
vn 0.677691 -0.73497 -0.0235407
vn 0.445942 -0.784603 0.430736
vn 0.330611 -0.737156 0.58932
vn -0.921475 0.00768407 0.388361
vn 0.223031 0.881821 -0.415511
vn -0.92172 0.132076 0.364675
vn 0.372556 -0.419033 -0.828018
vn -0.0487982 -0.226394 0.972813
vn -0.569648 0.820993 -0.038366
vn 0.793244 -0.581433 -0.180832
vn 0.904901 0.0146475 -0.425371
vn -0.453969 -0.753511 0.475535
vn 0.594879 -0.802067 -0.0529824
vn 0.502678 -0.863259 -0.0458173
vn 0.747212 0.426145 -0.509975
vn 0.819253 0.195965 -0.538908
vn -0.877517 0.088347 0.471338
vn 0.0885119 0.930169 -0.356301
vn -0.382754 0.352014 0.854158
vn -0.512315 0.650615 0.560565
vn -0.423893 0.833263 -0.354947
vn -0.114442 0.510536 -0.852206
vn -0.501144 0.522545 0.689784
vn -0.333193 0.0850523 0.939015
vn 0.273656 -0.854587 0.441354
vn 0.83151 -0.413901 -0.37051
vn -0.830087 -0.210448 0.516398
vn -0.108349 0.500413 -0.858981
vn -0.653804 -0.556188 0.513025
vn 0.35248 -0.291398 -0.889295
vn -0.704358 -0.565391 0.429199
vn -0.215551 0.665926 -0.714199
vn -0.85639 0.32309 0.402753
vn 0.322367 -0.782736 -0.532356
vn -0.283959 -0.853464 0.436997
vn 0.035015 -0.54777 0.835896
vn -0.504455 0.301202 0.809199
vn -0.236306 -0.318557 0.917976
vn 0.0450712 -0.749631 0.66032
vn -0.261634 0.754001 -0.602519
vn -0.42334 0.904934 -0.0433313
vn 0.814826 -0.122951 -0.566517
vn 0.175968 -0.982908 0.0541059
vn 0.419807 -0.842882 -0.336618
vn 0.376067 -0.924549 -0.0615072
vn 0.508722 -0.850867 -0.131252
vn -0.122458 -0.670575 0.731665
vn -0.427914 -0.177269 0.886265
vn 0.173973 -0.905704 0.386565
vn -0.341067 -0.587743 0.733643
vn -0.0123312 0.938863 -0.344071
vn -0.570046 0.290319 0.768611
vn 0.18131 -0.956352 0.229167
vn 0.451572 -0.881946 -0.135106
vn -0.601645 0.513616 0.611737
vn -0.121726 0.955793 -0.267662
vn 0.443983 0.617671 -0.649123
vn -0.624521 0.173787 0.761427
vn 0.467392 0.460761 -0.754483
vn 0.251948 -0.966801 0.0426426
vn 0.627249 -0.566094 -0.53488
vn -0.556502 0.732031 0.392984
vn 0.0329609 -0.94528 0.324592
vn -0.61786 -0.013972 0.786164
vn 0.360329 -0.921399 -0.145559
vn 0.546317 0.100956 -0.831472
vn -0.30505 -0.649538 0.696452
vn -0.262936 0.963091 -0.057629
vn 0.193041 0.775794 -0.600732
vn 0.575315 -0.556822 -0.599134
vn -0.591188 0.458581 0.663476
vn -0.459076 -0.240319 0.855276
vn -0.807125 -0.493205 -0.324497
vn -0.673356 0.730332 0.114921
vn -0.7712 -0.136851 -0.621709
vn -0.824458 0.438305 -0.357992
vn -0.64087 -0.700677 -0.313588
vn -0.768057 -0.625433 -0.137554
vn -0.972156 -0.168744 0.162598
vn -0.542763 -0.780117 0.311169
vn -0.545834 -0.250707 0.799507
vn -0.292031 0.423569 0.8575
vn -0.25596 0.781164 0.569445
vn 0.0532114 -0.918147 0.392652
vn 0.510848 -0.655147 -0.556612
vn -0.136884 0.953632 -0.268045
vn 0.536591 -0.242523 -0.808241
vn 0.28887 0.517856 -0.80522
vn -0.447085 0.82326 0.349797
vn -0.517434 0.345267 0.782977
vn -0.462713 -0.537921 -0.704654
vn -0.13716 -0.987667 0.0755071
vn -0.278115 -0.8407 -0.464624
vn 0.0472181 -0.929567 -0.365616
vn -0.0871894 -0.769083 -0.633175
vn 0.362671 -0.931798 0.0149177
vn 0.0985789 0.715312 0.691817
vn 0.321856 -0.887422 -0.329986
vn 0.679384 -0.67332 0.291681
vn -0.293557 -0.611521 -0.734756
vn 0.112644 -0.856488 -0.503725
vn -0.0965716 -0.615545 0.782163
vn -0.0240966 0.0609931 0.997847
vn 0.144063 0.541206 0.828457
vn 0.375092 0.0222309 0.926721
vn 0.437203 -0.649939 0.621637
vn 0.398338 0.411949 0.819527
vn 0.647886 -0.0902851 0.756368
vn -0.638022 -0.176534 -0.749509
vn -0.750423 0.137911 -0.64641
vn -0.229467 0.877923 0.420234
vn -0.124711 -0.73155 0.670285
vn 0.569518 -0.821843 -0.0149342
vn -0.627122 0.777111 -0.0530731
vn 0.71703 -0.655354 0.237443
vn 0.249158 0.651967 0.716142
vn 0.766743 -0.356552 0.533831
vn 0.602634 0.210617 0.769722
vn -0.674656 -0.184402 -0.714727
vn 0.460787 -0.695555 -0.551251
vn 0.195768 0.494777 -0.846682
vn 0.569722 0.328638 0.753269
vn 0.781267 -0.200149 0.591237
vn -0.312923 -0.647102 -0.695225
vn 0.775429 -0.0517732 0.629308
vn 0.399143 -0.886905 -0.232562
vn -0.820167 0.183718 -0.541824
vn -0.444312 0.860892 0.247895
vn 0.253451 -0.963614 0.0849165
vn 0.100669 0.661305 -0.743331
vn -0.441988 0.759296 0.477615
vn 0.146763 -0.856 -0.495707
vn 0.619649 -0.779799 -0.0891513
vn 0.777235 -0.562675 0.281606
vn -0.666232 -0.239133 -0.706364
vn -0.834597 0.114946 -0.538735
vn -0.324725 -0.580363 -0.746815
vn 0.294168 0.644912 0.705374
vn -0.139792 0.812912 0.56536
vn 0.575282 0.333845 0.746725
vn -0.0885091 0.848649 0.521499
vn -0.727826 0.685591 -0.0153126
vn -0.331004 0.942702 0.0418309
vn 0.851033 -0.404025 0.335421
vn 0.396482 -0.805863 -0.439758
vn -0.765752 0.639683 0.0665537
vn -0.603482 0.740837 0.294908
vn 0.305365 0.534103 0.788344
vn 0.751321 0.0497807 0.658057
vn 0.357756 -0.318418 -0.87785
vn 0.108715 -0.822125 0.558831
vn 0.0374363 0.562216 -0.826143
vn 0.745303 -0.659634 -0.0969808
vn 0.881185 -0.358852 0.307797
vn -0.625796 -0.205563 -0.752411
vn -0.0990414 -0.599916 -0.793909
vn 0.0751204 0.626652 0.77567
vn -0.75397 0.638235 0.155515
vn -0.877243 0.333722 -0.345072
vn 0.522408 0.329959 0.786268
vn -0.183823 -0.0952277 0.978336
vn -0.346578 0.92061 -0.179889
vn 0.245846 0.469533 0.847997
vn 0.511717 -0.731025 -0.451384
vn 0.811513 -0.104784 0.574862
vn 0.837209 -0.545353 0.0408741
vn -0.0818682 -0.553419 -0.828869
vn 0.297964 -0.887857 0.350609
vn 0.307106 -0.807824 0.503096
vn -0.413563 0.881702 0.227086
vn 0.796263 -0.600781 -0.0708996
vn -0.218261 -0.467816 -0.856452
vn 0.611562 -0.693453 -0.380938
vn -0.868158 0.154014 -0.471785
vn -0.204641 -0.517955 -0.830569
vn 0.577527 0.19997 0.791502
vn -0.039473 0.644972 0.763186
vn -0.744238 0.643216 0.179951
vn 0.232432 -0.205536 -0.950647
vn -0.0735691 0.538035 -0.839706
vn 0.885465 -0.319229 0.337706
vn 0.255264 -0.74778 -0.612915
vn -0.086751 -0.744232 -0.662263
vn 0.393319 -0.811581 -0.432015
vn 0.589191 -0.745597 -0.31135
vn -0.747168 -0.217371 -0.628084
vn -0.909515 0.373235 -0.18297
vn -0.19507 0.787829 0.584186
vn 0.900218 -0.10925 0.421511
vn 0.557419 0.398078 0.728573
vn -0.679335 0.701036 0.216916
vn 0.444668 -0.808294 -0.385916
vn -0.795469 0.601628 0.0726101
vn -0.91593 0.173027 -0.362123
vn 0.189121 0.715368 0.672668
vn 0.665218 0.369087 0.649046
vn -0.370147 0.814622 0.446523
vn -0.901882 0.200723 -0.382516
vn 0.216883 -0.833842 -0.507611
vn 0.598649 -0.766255 -0.233392
vn 0.902974 -0.0316989 0.428525
vn -0.55915 -0.478038 -0.677371
vn 0.662886 0.321605 0.676131
vn 0.0582504 0.773204 0.631477
vn 0.495017 -0.843016 -0.210434
vn -0.801475 -0.0276755 -0.597388
vn 0.828202 -0.243739 0.504652
vn -0.944634 -0.277966 -0.174361
vn -0.978637 0.0218613 -0.204433
vn -0.66687 -0.740428 -0.0839656
vn -0.825522 -0.297437 -0.47963
vn -0.54968 -0.646892 -0.528567
vn -0.357952 -0.591903 -0.722164
vn -0.850657 -0.454938 0.263465
vn -0.991946 -0.0207556 0.124946
vn -0.966335 0.251727 0.0531935
vn -0.932178 0.187994 0.309359
vn -0.833116 -0.223361 0.505991
vn -0.808224 0.155835 0.567882
vn -0.452952 -0.711072 0.537783
vn -0.46201 -0.33788 0.81999
vn -0.569031 0.272752 0.775764
vn -0.864584 0.422455 0.272077
vn -0.573076 0.533297 0.622236
vn 0.376233 -0.872193 -0.312616
vn 0.79194 -0.310476 0.525771
vn -0.726051 -0.0654885 -0.684516
vn 0.114968 0.739224 0.663573
vn 0.674042 0.159548 0.721257
vn -0.71376 0.0454067 -0.698917
vn -0.732468 0.664466 -0.148238
vn -0.37099 -0.888298 -0.270726
vn 0.021315 -0.970981 0.238206
vn 0.0114071 -0.743782 -0.668325
vn 0.64569 -0.763468 0.0141648
vn 0.573031 -0.725534 -0.381099
vn 0.868158 -0.479024 -0.12976
vn 0.196712 -0.788716 0.582436
vn -0.165591 -0.578038 0.799032
vn 0.25362 -0.141814 0.956852
vn 0.571805 -0.735633 0.363157
vn 0.861333 -0.445948 0.243385
vn 0.625226 -0.507617 0.592805
vn 0.857073 -0.194179 0.477201
vn 0.677452 -0.207976 0.705552
vn 0.861507 0.0747466 0.502214
vn 0.661432 0.124628 0.739578
vn 0.963995 -0.166651 0.20722
vn -0.68257 0.601678 0.414827
vn 0.479599 -0.679501 -0.555215
vn 0.364046 0.320936 0.87434
vn -0.133541 0.681611 0.719426
vn 0.60645 0.420324 0.674941
vn -0.794013 -0.327218 -0.51232
vn 0.94984 -0.312645 0.00755122
vn 0.914488 0.090305 0.394407
vn 0.667759 0.443495 0.597837
vn -0.525334 0.688571 0.499894
vn 0.199549 0.673531 0.711714
vn -0.97478 0.211551 -0.0710619
vn -0.0889509 0.76054 0.643169
vn -0.899921 -0.247041 -0.359324
vn -0.903913 0.39012 0.175349
vn -0.984054 -0.0498642 -0.17074
vn 0.775438 -0.352946 0.52357
vn 0.681999 -0.0286595 0.730791
vn 0.250431 -0.637411 0.728692
vn 0.206494 0.519206 0.829328
vn -0.352163 0.410658 0.841036
vn -0.724615 0.685769 -0.0682277
vn 0.77559 -0.55745 -0.29616
vn 0.952944 0.0476137 0.299384
vn -0.318138 -0.695147 -0.644638
vn 0.295324 -0.754917 -0.585563
vn 0.968787 -0.246001 -0.0305978
vn 0.689275 -0.61315 -0.385936
vn 0.629266 0.527224 0.571016
vn 0.973894 0.0555099 0.22011
vn -0.638663 -0.555975 -0.531979
vn -0.0235413 -0.784454 -0.619739
vn -0.429343 -0.684159 -0.589569
vn 0.16564 0.760122 0.628314
vn -0.913415 0.372918 0.163111
vn -0.950709 0.300188 0.0777115
vn -0.0963435 0.807127 0.582464
vn 0.39936 -0.860623 -0.315973
vn -0.814374 -0.385101 -0.434157
vn -0.981802 0.151801 -0.114114
vn -0.780713 0.576956 0.24002
vn -0.420002 0.657829 0.625188
vn 0.0674079 -0.818821 -0.570077
vn 0.727488 -0.624532 -0.284116
vn 0.772956 0.428094 0.468267
vn -0.609173 -0.563491 -0.558019
vn 0.264555 -0.334619 -0.904456
vn 0.46425 -0.817582 -0.340634
vn 0.554981 -0.753724 0.351989
vn 0.272345 -0.434759 0.858378
vn 0.647162 -0.274041 0.711395
vn 0.304993 0.0990745 0.947187
vn 0.0158582 -0.156528 0.987546
vn -0.919312 -0.10918 -0.378081
vn -0.867107 0.493736 0.0659605
vn 0.195853 0.777276 0.597899
vn -0.258888 0.854766 0.449835
vn -0.376272 0.810314 0.449233
vn 0.340199 0.725994 0.59766
vn 0.230204 -0.122573 -0.965392
vn -0.455157 0.869027 -0.193971
vn -0.901734 0.409495 -0.138524
vn -0.634536 0.733155 0.244639
vn -0.638266 0.757623 0.136472
vn 0.953227 -0.269983 0.135898
vn 0.43172 -0.544263 -0.719303
vn 0.53177 -0.819218 -0.214714
vn 0.642735 -0.721214 -0.258345
vn -0.592141 -0.38155 -0.709781
vn 0.107108 -0.832356 -0.543793
vn 0.478598 -0.828801 -0.289885
vn 0.780408 0.285368 0.556353
vn -0.46773 0.814167 -0.344036
vn -0.0176335 0.841698 0.539661
vn 0.59237 -0.645746 -0.481778
vn 0.565152 -0.822661 0.061898
vn 0.238978 -0.676495 0.696594
vn 0.832794 -0.0556646 0.550777
vn 0.575806 0.447812 0.684041
vn -0.424614 0.80454 -0.415233
vn -0.183203 -0.264636 0.946787
vn -0.636331 -0.0943802 -0.765621
vn -0.248476 0.856344 0.452697
vn 0.62303 0.174022 0.762594
vn 0.439021 -0.862601 -0.251356
vn 0.396137 -0.0915537 -0.913616
vn 0.665866 -0.602184 -0.440452
vn -0.508887 0.0815004 0.856966
vn -0.567984 -0.214731 -0.794534
vn 0.394881 0.230101 0.889451
vn 0.619526 -0.113663 0.776703
vn -0.176885 -0.37589 0.909625
vn -0.144782 -0.81749 -0.557448
vn -0.370192 -0.153764 0.916141
vn -0.406708 -0.524259 -0.748159
vn -0.233776 -0.495901 0.83632
vn -0.111487 -0.655362 0.747042
vn 0.125021 -0.97337 -0.192149
vn -0.00453782 -0.59869 0.800968
vn 0.320968 -0.927191 -0.193124
vn 0.27646 -0.959864 0.0472258
vn 0.407317 -0.793181 0.452722
vn 0.6194 -0.489548 0.613748
vn 0.402924 -0.209899 0.890839
vn -0.527877 0.757586 -0.383938
vn -0.437907 0.751776 0.493021
vn -0.673712 0.4587 -0.579402
vn 0.527933 -0.0862946 -0.844891
vn 0.431155 -0.896306 0.103635
vn -0.47936 0.822966 -0.304862
vn -0.65047 0.741022 0.166661
vn -0.124084 0.0327859 0.99173
vn -0.22167 -0.0281267 0.974716
vn -0.571024 0.0796284 0.817063
vn 0.6887 -0.716073 -0.113714
vn -0.260724 0.786038 -0.560506
vn 0.380168 0.273412 -0.883582
vn 0.157825 -0.777231 0.609101
vn -0.0230663 0.660141 -0.750787
vn 0.350385 0.328387 -0.87715
vn -0.311742 0.779801 -0.542888
vn -0.133951 0.641302 -0.755506
vn -0.513486 -0.0495258 0.856668
vn -0.670927 0.69335 0.262912
vn 0.284322 -0.781421 0.555466
vn -0.348437 -0.171554 0.921499
vn 0.22627 0.310336 -0.923306
vn 0.0292719 0.376861 -0.925807
vn 0.688277 -0.404861 -0.601966
vn 0.268442 0.0161758 -0.96316
vn -0.235952 0.497411 -0.834811
vn -0.328713 0.659639 -0.675888
vn -0.593643 0.791614 -0.144689
vn -0.33817 -0.108275 0.934835
vn 0.283561 -0.184026 -0.941131
vn 0.503452 -0.697257 0.510263
vn 0.0314339 -0.168773 -0.985154
vn -0.4158 0.515821 -0.749026
vn -0.580552 0.747716 -0.322304
vn -0.968026 0.243485 0.0603427
vn -0.633798 0.756041 0.163409
vn 0.282125 -0.470883 -0.835867
vn 0.583707 -0.745994 -0.320592
vn 0.0824381 -0.458929 -0.88464
vn 0.205516 -0.46648 0.860325
vn -0.802856 -0.584747 -0.116161
vn -0.531258 -0.834503 -0.146184
vn -0.809921 -0.58636 -0.0144846
vn -0.598092 -0.797494 0.0793051
vn -0.0681746 -0.997643 0.00773545
vn -0.896021 -0.417041 0.152392
vn -0.431203 -0.892202 0.134311
vn -0.965789 0.171003 0.194959
vn -0.912143 -0.321003 0.254858
vn -0.396256 0.0900243 -0.913716
vn -0.648141 0.538006 -0.538946
vn -0.319226 0.14712 0.936189
vn -0.269981 -0.0161416 0.96273
vn -0.457497 0.289856 0.840643
vn -0.992542 -0.121245 -0.0126482
vn -0.448137 0.415963 0.791295
vn -0.953604 0.277482 -0.116807
vn -0.632308 0.602054 0.487563
vn -0.986077 0.0312226 -0.163333
vn -0.640506 0.767692 0.0200243
vn -0.719371 0.681612 0.133827
vn -0.661842 0.71801 0.215469
vn 0.146104 -0.989105 -0.0180089
vn 0.461262 -0.736332 -0.495027
vn 0.344735 -0.680582 0.646502
vn -0.574772 -0.817051 0.0454283
vn 0.422213 -0.832899 0.357791
vn 0.346732 -0.932323 0.102716
vn 0.276893 -0.959274 -0.0558929
vn 0.796417 -0.600755 0.0693841
vn 0.708679 -0.705396 -0.0137782
vn 0.933479 -0.358243 -0.0166974
vn 0.452084 -0.890652 -0.0485685
vn 0.96344 -0.199207 -0.179164
vn 0.200568 -0.979192 -0.0309129
vn -0.910635 0.286872 0.297404
vn -0.788556 -0.517906 0.331592
vn -0.515851 -0.018643 -0.856475
vn -0.713203 -0.157852 -0.682952
vn -0.406604 -0.420211 -0.811231
vn 0.0505877 -0.691987 -0.720135
vn 0.530227 0.782207 0.327125
vn 0.949372 0.261295 0.174409
vn 0.292544 0.954664 -0.0550934
vn 0.845145 0.491958 -0.209062
vn -0.19274 0.980156 0.0463118
vn -0.621381 0.754964 0.209561
vn -0.871746 -0.19594 -0.449072
vn -0.658122 0.272744 -0.701774
vn -0.685391 0.163565 -0.709567
vn -0.845808 0.173709 -0.504415
vn -0.87344 0.38425 -0.29909
vn -0.868082 0.0101178 -0.496318
vn -0.704866 0.701246 -0.106857
vn -0.712778 0.6987 0.0613675
vn -0.587522 0.803774 0.0936224
vn -0.265305 0.92576 0.269409
vn -0.748339 0.662862 0.0245406
vn -0.332783 0.93449 0.126431
vn -0.0386161 0.978735 0.201459
vn -0.950204 0.311625 0.00142116
vn -0.853141 -0.449669 -0.264477
vn -0.926458 -0.244865 0.285861
vn -0.848747 -0.20674 -0.48671
vn -0.581443 -0.482393 -0.65515
vn -0.515057 -0.21219 -0.830477
vn -0.227796 -0.357551 -0.905685
vn -0.983533 -0.128227 0.127361
vn -0.856662 -0.458366 -0.236709
vn -0.776751 -0.0658421 0.626356
vn -0.901806 0.23856 -0.360326
vn -0.537382 0.185159 -0.822762
vn -0.571024 0.559862 -0.600405
vn -0.226606 0.855626 -0.465355
vn -0.200959 -0.0746678 -0.97675
vn -0.933606 0.342656 0.104726
vn -0.81804 0.208746 0.535944
vn -0.647852 0.619512 0.443274
vn -0.674851 0.727086 -0.126179
vn -0.399323 0.879226 0.259814
vn -0.448885 0.311578 0.837509
vn -0.226801 0.721296 0.654442
vn -0.240961 0.967649 -0.0747922
vn -0.142489 -0.984115 0.105903
vn 0.942123 0.157269 -0.296094
vn 0.868957 -0.431641 -0.242075
vn 0.399909 -0.90543 -0.14237
vn 0.773816 -0.54877 -0.316321
vn -0.90384 0.0678992 0.422448
vn 0.0824486 -0.860377 -0.502946
vn -0.113628 -0.800043 -0.589085
vn 0.343339 -0.835803 -0.428429
vn 0.661158 -0.74853 0.0507268
vn 0.841975 -0.526787 0.116504
vn 0.763306 0.581273 -0.281931
vn -0.321912 0.936513 0.13898
vn -0.00978582 0.999924 0.00752819
vn 0.859516 0.305746 0.409574
vn -0.457979 -0.632972 -0.624181
vn -0.379596 0.852106 0.360308
vn 0.0793666 0.827547 0.555758
vn -0.953955 -0.122196 -0.273929
vn -0.944571 0.223266 0.240705
vn -0.843071 0.504306 0.186832
vn -0.160914 0.80752 0.567467
vn -0.137027 0.719282 0.681071
vn -0.651464 -0.496531 -0.57363
vn -0.989664 -0.136027 0.0454156
vn -0.483948 0.554205 0.677238
vn -0.185372 -0.49269 -0.850232
vn -0.616046 0.0854406 0.783063
vn -0.801908 0.187687 0.567201
vn -0.288612 0.423312 0.858784
vn 0.0508512 -0.299491 -0.952743
vn 0.326018 -0.113889 -0.938478
vn -0.145449 0.344025 0.927627
vn -0.0899378 0.223657 -0.97051
vn -0.115299 0.549382 -0.827578
vn 0.111413 -0.0409267 -0.992931
vn 0.333451 0.286613 -0.898144
vn 0.287485 0.723529 -0.627581
vn 0.566693 0.0337361 -0.823238
vn 0.688301 0.380264 -0.617771
vn -0.0209279 0.96217 0.271643
vn 0.18975 0.78519 0.589468
vn 0.351022 0.897088 0.26836
vn 0.465019 0.88479 -0.0300684
vn 0.521775 0.639019 0.56516
vn 0.594487 0.731467 -0.333977
vn 0.703877 0.697847 0.132544
vn 0.867976 0.452191 -0.205284
vn 0.0695464 0.500859 0.862731
vn 0.15905 0.969421 -0.186884
vn -0.162173 -0.94933 0.269207
vn -0.246006 -0.718292 0.650798
vn 0.144108 -0.867644 0.475843
vn 0.932431 -0.0700353 -0.354496
vn 0.89484 -0.17644 -0.410037
vn 0.868119 0.292165 -0.40126
vn -0.836765 -0.143276 0.528485
vn -0.825584 0.154148 0.542817
vn -0.57129 -0.721173 0.391838
vn -0.553496 -0.443475 0.704962
vn -0.531576 0.0380424 0.846156
vn -0.141679 -0.244551 0.95923
vn -0.130249 0.320364 0.938298
vn -0.170665 0.718758 0.673989
vn 0.141716 -0.473731 0.869193
vn 0.695495 -0.696874 -0.175081
vn 0.575003 0.773774 -0.265791
vn -0.344557 0.888992 0.301617
vn 0.578451 -0.689154 -0.436419
vn 0.949933 -0.0317595 0.310836
vn -0.305101 -0.623426 -0.719898
vn 0.861885 -0.420377 -0.283616
vn 0.369156 0.687172 0.625714
vn 0.976917 0.100978 0.188248
vn 0.154615 0.739866 0.654746
vn 0.272704 0.663426 0.696777
vn -0.00270697 -0.546521 -0.837441
vn 0.621273 -0.380274 -0.685137
vn 0.957181 -0.0452892 -0.285927
vn 0.113008 0.610681 0.783772
vn 0.629049 0.468297 0.62048
vn 0.364719 -0.300046 -0.881449
vn 0.183452 0.518924 0.834903
vn 0.877421 0.362046 0.314729
vn 0.804093 0.0391377 -0.593214
vn 0.953782 0.277131 -0.116186
vn 0.422338 0.503443 0.753775
vn 0.807056 0.505167 0.305723
vn 0.223604 -0.973799 0.0414279
vn 0.464707 -0.275762 0.841429
vn 0.231555 0.0206086 0.972603
vn 0.508008 -0.828632 0.235152
vn 0.447947 -0.607785 0.655699
vn 0.283576 0.485771 0.826807
vn 0.232242 0.869544 0.43584
vn 0.569496 -0.809463 -0.142983
vn 0.58154 0.0777151 0.809797
vn 0.730924 -0.411772 0.544236
vn 0.788275 -0.550047 -0.275808
vn 0.854395 -0.518713 0.0307624
vn 0.872529 -0.0128055 0.488394
vn 0.882541 0.403565 0.241366
vn 0.635511 0.486843 0.599258
vn 0.800588 0.557327 -0.220101
vn 0.590571 0.78177 0.200156
vn 0.926576 -0.108788 -0.36003
vn 0.992278 0.108886 0.0593932
vn 0.218255 0.975842 -0.00986208
vn 0.381002 -0.916018 -0.125492
vn -0.297424 -0.927272 0.227388
vn -0.8844 -0.46357 0.0542134
vn -0.653865 0.620618 -0.432774
vn -0.520304 0.276828 -0.807867
vn -0.404766 0.113219 -0.907384
vn -0.408184 0.123289 -0.904536
vn -0.577042 -0.764989 0.286031
vn -0.0173987 -0.309453 0.950756
vn 0.0695217 -0.454699 0.887928
vn 0.413212 -0.830007 0.374626
vn 0.451805 -0.732637 0.509034
vn -0.232661 0.626773 -0.743656
vn -0.0716785 0.0834351 -0.993932
vn 0.487506 -0.680583 -0.546941
vn 0.130659 0.571985 -0.809791
vn -0.593397 0.735171 -0.327725
vn 0.504699 -0.790572 -0.346807
vn -0.263526 -0.700772 0.662928
vn -0.223995 -0.70449 0.673439
vn -0.595384 0.803309 -0.0145818
vn -0.518374 0.850013 -0.0936265
vn 0.289133 -0.434079 0.853216
vn 0.411678 -0.889892 0.196503
vn 0.770483 0.286371 -0.569515
vn -0.501718 0.842897 -0.194431
vn 0.182187 0.859361 -0.477815
vn -0.836288 0.513507 0.192176
vn 0.748944 0.427435 -0.506342
vn -0.19308 0.154433 0.968953
vn -0.752726 0.655828 0.0573897
vn -0.605107 0.795833 -0.022265
vn -0.720428 -0.474909 0.505416
vn 0.0600432 0.143082 -0.987888
vn -0.875075 0.356633 0.327195
vn 0.0204171 -0.957753 0.286867
vn 0.242006 0.885319 -0.397044
vn 0.11544 0.920146 -0.374172
vn -0.449265 0.88981 -0.0799888
vn -0.667221 0.719988 0.190874
vn -0.480767 0.872811 -0.0840475
vn 0.473879 -0.836613 -0.274804
vn 0.847283 -0.429481 -0.312502
vn -0.395848 -0.273648 -0.876596
vn -0.133398 -0.922328 -0.36265
vn -0.562366 -0.246403 -0.789322
vn 0.0836336 0.189572 -0.978298
vn -0.481283 -0.261207 -0.836742
vn -0.223574 -0.936545 -0.269996
vn -0.481283 -0.261207 -0.836742
vn -0.874779 0.127171 0.467535
vn -0.288873 0.66879 -0.685034
vn -0.826312 0.393444 -0.403001
vn -0.826312 0.393444 -0.403001
vn -0.772946 0.594403 0.221899
vn -0.826312 0.393444 -0.403001
vn 0.232704 -0.889334 -0.393616
vn -0.631499 0.763404 0.135734
vn -0.542971 0.623467 0.562559
vn 0.793815 -0.227875 -0.563853
vn 0.622446 0.47331 -0.623329
vn 0.715411 -0.410333 -0.565521
vn -0.373818 0.927497 0.00292946
vn -0.0424854 0.948763 -0.313118
vn 0.731924 -0.291736 -0.615773
vn 0.636525 0.238001 -0.733615
vn 0.572484 -0.699038 -0.428494
vn 0.632087 0.0220281 -0.774585
vn -0.972156 -0.168744 0.162598
vn -0.911467 0.366698 -0.186439
vn -0.972156 -0.168744 0.162598
vn -0.699488 -0.357107 0.619025
vn -0.642815 0.663617 0.382625
vn -0.68897 -0.000871532 0.724789
vn -0.723577 0.625628 -0.291591
vn -0.36352 -0.0894082 0.927286
vn -0.602337 0.798137 -0.0129665
vn -0.802221 0.396954 -0.445946
vn 0.455645 -0.334584 -0.824888
vn -0.726299 0.67829 -0.111412
vn 0.39291 -0.469427 -0.790734
vn 0.409705 -0.734472 -0.54101
vn -0.226723 0.961318 -0.156409
vn -0.391296 0.186569 0.901154
vn -0.0101245 0.694993 0.718946
vn 0.0386189 0.520528 -0.852971
vn -0.241692 0.917512 -0.315843
vn -0.238099 0.695565 0.677863
vn -0.139582 0.413511 -0.899736
vn 0.555815 -0.689928 -0.463755
vn 0.398642 -0.721417 -0.566253
vn -0.33291 0.427237 0.840618
vn 0.325487 -0.690426 -0.646042
vn -0.670346 -0.16696 -0.723022
vn 0.384745 -0.686961 -0.616487
vn 0.158665 -0.100074 -0.982248
vn -0.224291 0.877853 -0.423164
vn -0.149006 0.43401 -0.8885
vn 0.885147 -0.440538 0.149805
vn -0.418892 0.801344 0.427057
vn -0.552691 0.828113 0.0936047
vn 0.907967 -0.200832 0.367781
vn 0.859425 -0.466253 0.209753
vn -0.363487 -0.634914 -0.681734
vn -0.556628 0.82566 0.0919256
vn -0.128976 0.903592 0.408518
vn 0.245864 -0.887267 -0.390268
vn 0.799202 -0.50288 0.329223
vn -0.631308 0.77462 -0.0376021
vn 0.000349152 0.000366594 1
vn -0.31061 -0.629248 -0.712438
vn -0.31061 -0.629248 -0.712438
vn -0.785756 0.540547 -0.30066
vn -0.269698 0.861672 0.429865
vn 0.373684 -0.893769 -0.248067
vn 0.488913 -0.46581 0.737554
vn -0.271658 0.562096 0.781185
vn 0.205729 -0.74467 -0.634935
vn 0.541209 -0.820609 -0.183556
vn -0.32737 0.221261 0.918625
vn -0.790125 0.582937 -0.189438
vn -0.698773 0.149198 -0.699612
vn -0.340709 0.724986 0.598592
vn -0.368509 0.0841307 0.925809
vn -0.412643 0.731601 0.542665
vn -0.669599 0.650401 0.358631
vn -0.680867 0.0386327 -0.731387
vn -0.256563 -0.62121 -0.740455
vn 0.352494 -0.76177 0.543557
vn -0.0155671 0.176004 0.984266
vn 0.0612616 -0.808381 -0.585464
vn 0.973855 -0.00243494 0.227158
vn 0.0924763 -0.852335 -0.514756
vn -0.139582 0.413511 -0.899736
vn -0.420479 0.64684 0.636236
vn 0.77658 0.375826 0.505646
vn 0.237999 -0.861853 -0.447845
vn 0.91644 -0.393572 0.0723769
vn -0.899721 0.301161 -0.315918
vn 0.830315 -0.555333 0.0467194
vn 0.891127 -0.156098 0.426059
vn -0.453633 0.675464 0.581348
vn -0.545414 0.119026 0.829673
vn 0.261903 -0.152503 -0.952969
vn -0.13007 0.392749 -0.910401
vn 0.202363 0.105418 -0.97362
vn -0.454318 0.666326 0.591274
vn -0.869439 0.416782 -0.26527
vn -0.286183 0.823075 0.490558
vn -0.673712 0.4587 -0.579402
vn 0.403109 0.471483 0.784352
vn 0.770947 -0.15521 0.617698
vn -0.693695 0.707288 -0.136125
vn -0.842718 -0.501112 0.196755
vn -0.875997 0.353571 0.328051
vn -0.673712 0.4587 -0.579402
vn -0.846966 -0.395133 0.355693
vn -0.875997 0.353571 0.328051
vn -0.286833 0.752897 0.592345
vn -0.718018 -0.695084 0.0361632
vn -0.779633 -0.608782 0.146822
vn -0.614426 -0.787909 0.0409926
vn -0.55224 -0.552851 -0.624008
vn -0.0692464 -0.993933 -0.0854498
vn 0.0360864 -0.997887 0.0540362
vn -0.0989515 -0.511026 0.853851
vn 0.478767 -0.868868 -0.1259
vn 0.351467 0.176271 -0.919456
vn 0.0922981 0.102753 0.990416
vn -0.620848 0.783166 0.0346329
vn -0.875997 0.353571 0.328051
vn 0.759948 -0.52805 -0.379002
vn -0.20552 -0.422541 0.882735
vn 0.0883958 -0.0304344 0.99562
vn -0.647886 0.227337 0.727022
vn -0.614569 0.27276 0.740208
vn 0.0574271 -0.749754 0.65922
vn 0.431926 -0.456428 0.77789
vn 0.133864 -0.77473 0.617959
vn 0.682908 -0.709786 -0.172745
vn 0.243267 0.447998 -0.860301
vn 0.734043 -0.407218 -0.543465
vn -0.452857 -0.160175 0.877077
vn -0.658332 0.75159 0.0413685
vn -0.690097 0.593819 0.413696
vn 0.678187 -0.706954 -0.200695
vn 0.321522 -0.773606 0.546038
vn 0.225559 -0.374951 0.899186
vn 0.47332 -0.12642 -0.871772
vn 0.648964 -0.754241 -0.0998304
vn 0.103112 0.0312993 -0.994177
vn -0.474471 0.49656 0.726846
vn 0.216072 -0.42135 0.880782
vn 0.432811 -0.754514 0.493338
vn -0.321301 0.362362 -0.874905
vn -0.201787 0.0298752 0.978974
vn -0.926743 -0.330063 0.179461
vn -0.519553 -0.834658 0.182785
vn -0.960519 -0.226864 0.161044
vn -0.995575 0.0661265 0.0667655
vn -0.990632 0.136556 -0.000639548
vn 0.0175036 0.991873 0.126022
vn 0.340153 0.939808 0.0324976
vn -0.504156 -0.842187 0.191171
vn -0.497848 -0.79035 0.357064
vn -0.142628 -0.974988 -0.170456
vn 0.245835 -0.898244 0.364311
vn -0.143191 -0.974918 -0.170383
vn 0.982326 0.106197 0.154137
vn 0.91087 0.41214 -0.0213678
vn 0.682878 -0.70489 -0.191855
vn 0.907055 0.235737 0.348825
vn 0.508543 0.84603 0.160054
vn 0.806855 0.590643 -0.0112012
vn 0.208212 0.977021 -0.0455877
vn 0.419205 0.777745 0.46838
vn 0.577052 0.763206 0.290736
vn -0.659294 0.69043 0.29772
vn 0.943337 0.128953 0.305757
vn 0.497609 0.845308 -0.194526
vn 0.424499 0.765072 0.484215
vn -0.403207 0.758685 0.511685
vn -0.496904 0.609333 0.617899
vn -0.163776 -0.742829 -0.64914
vn 0.508329 -0.574897 -0.641168
vn 0.847979 0.272462 0.454639
vn 0.924719 -0.307302 -0.224634
g grp1
usemtl mtl1
f 3//3 4//4 2//2 
f 2//2 12//12 3//3 
f 12//12 14//14 3//3 
f 688//688 14//14 17//17 
f 5//5 688//688 17//17 
f 4//4 6//6 2//2 
f 7//7 690//690 689//689 
f 689//689 688//688 7//7 
f 5//5 7//7 688//688 
f 5//5 17//17 34//34 
f 33//33 5//5 34//34 
f 8//8 1//1 18//18 
f 18//18 2//2 6//6 
f 18//18 6//6 8//8 
f 8//8 6//6 9//9 
f 691//691 690//690 10//10 
f 10//10 690//690 7//7 
f 8//8 25//25 24//24 
f 685//685 8//8 24//24 
f 24//24 27//27 685//685 
f 25//25 8//8 9//9 
f 9//9 10//10 25//25 
f 692//692 19//19 11//11 
f 687//687 692//692 11//11 
f 687//687 11//11 12//12 
f 11//11 13//13 12//12 
f 11//11 15//15 13//13 
f 12//12 13//13 14//14 
f 13//13 16//16 14//14 
f 13//13 15//15 16//16 
f 17//17 14//14 16//16 
f 692//692 22//22 19//19 
f 15//15 11//11 19//19 
f 16//16 15//15 20//20 
f 21//21 17//17 16//16 
f 16//16 20//20 21//21 
f 34//34 17//17 21//21 
f 686//686 22//22 692//692 
f 693//693 694//694 26//26 
f 23//23 15//15 693//693 
f 23//23 20//20 15//15 
f 27//27 695//695 685//685 
f 696//696 695//695 27//27 
f 26//26 23//23 693//693 
f 24//24 25//25 62//62 
f 25//25 10//10 29//29 
f 62//62 25//25 29//29 
f 28//28 29//29 10//10 
f 10//10 7//7 28//28 
f 27//27 76//76 696//696 
f 26//26 74//74 23//23 
f 707//707 74//74 26//26 
f 75//75 23//23 74//74 
f 20//20 23//23 75//75 
f 7//7 33//33 28//28 
f 5//5 33//33 7//7 
f 62//62 68//68 24//24 
f 29//29 28//28 73//73 
f 75//75 21//21 20//20 
f 24//24 68//68 27//27 
f 62//62 29//29 73//73 
f 76//76 27//27 68//68 
f 35//35 36//36 43//43 
f 31//31 35//35 43//43 
f 45//45 35//35 31//31 
f 32//32 45//45 31//31 
f 43//43 48//48 30//30 
f 43//43 30//30 31//31 
f 30//30 44//44 32//32 
f 31//31 30//30 32//32 
f 44//44 46//46 32//32 
f 47//47 701//701 32//32 
f 32//32 46//46 47//47 
f 73//73 28//28 33//33 
f 89//89 34//34 21//21 
f 707//707 102//102 74//74 
f 48//48 43//43 36//36 
f 35//35 37//37 36//36 
f 38//38 37//37 35//35 
f 45//45 38//38 35//35 
f 697//697 701//701 52//52 
f 53//53 48//48 36//36 
f 53//53 36//36 39//39 
f 39//39 36//36 37//37 
f 39//39 37//37 40//40 
f 40//40 37//37 698//698 
f 700//700 697//697 52//52 
f 52//52 63//63 700//700 
f 699//699 41//41 58//58 
f 699//699 58//58 702//702 
f 41//41 39//39 42//42 
f 42//42 39//39 40//40 
f 41//41 69//69 58//58 
f 42//42 69//69 41//41 
f 48//48 49//49 30//30 
f 49//49 60//60 44//44 
f 30//30 49//49 44//44 
f 46//46 44//44 50//50 
f 44//44 60//60 50//50 
f 52//52 701//701 47//47 
f 48//48 54//54 51//51 
f 48//48 51//51 49//49 
f 46//46 50//50 56//56 
f 50//50 60//60 56//56 
f 53//53 54//54 48//48 
f 51//51 55//55 49//49 
f 49//49 55//55 60//60 
f 63//63 52//52 64//64 
f 64//64 52//52 47//47 
f 54//54 59//59 51//51 
f 56//56 57//57 46//46 
f 47//47 46//46 57//57 
f 58//58 54//54 702//702 
f 51//51 59//59 55//55 
f 65//65 56//56 60//60 
f 57//57 56//56 65//65 
f 67//67 59//59 54//54 
f 58//58 67//67 54//54 
f 59//59 67//67 66//66 
f 55//55 59//59 704//704 
f 60//60 55//55 61//61 
f 700//700 63//63 42//42 
f 704//704 703//703 55//55 
f 63//63 69//69 42//42 
f 88//88 62//62 73//73 
f 57//57 65//65 64//64 
f 47//47 57//57 64//64 
f 63//63 64//64 71//71 
f 60//60 70//70 65//65 
f 64//64 65//65 705//705 
f 33//33 34//34 87//87 
f 87//87 34//34 89//89 
f 67//67 58//58 69//69 
f 704//704 79//79 703//703 
f 708//708 66//66 67//67 
f 706//706 64//64 705//705 
f 63//63 77//77 69//69 
f 71//71 77//77 63//63 
f 60//60 61//61 70//70 
f 61//61 82//82 70//70 
f 84//84 70//70 82//82 
f 72//72 703//703 79//79 
f 82//82 61//61 72//72 
f 73//73 33//33 87//87 
f 89//89 21//21 75//75 
f 81//81 74//74 102//102 
f 81//81 75//75 74//74 
f 83//83 77//77 71//71 
f 67//67 69//69 78//78 
f 80//80 67//67 78//78 
f 77//77 78//78 69//69 
f 77//77 709//709 78//78 
f 86//86 72//72 79//79 
f 708//708 67//67 80//80 
f 80//80 78//78 92//92 
f 91//91 92//92 78//78 
f 79//79 90//90 86//86 
f 80//80 90//90 708//708 
f 62//62 88//88 96//96 
f 96//96 68//68 62//62 
f 102//102 76//76 68//68 
f 706//706 705//705 710//710 
f 83//83 71//71 711//711 
f 93//93 83//83 711//711 
f 78//78 709//709 91//91 
f 91//91 709//709 713//713 
f 72//72 85//85 82//82 
f 82//82 712//712 84//84 
f 86//86 85//85 72//72 
f 121//121 87//87 89//89 
f 99//99 87//87 121//121 
f 99//99 73//73 87//87 
f 89//89 75//75 100//100 
f 97//97 81//81 102//102 
f 91//91 111//111 92//92 
f 111//111 91//91 713//713 
f 85//85 86//86 95//95 
f 94//94 86//86 90//90 
f 94//94 95//95 86//86 
f 104//104 85//85 95//95 
f 90//90 101//101 94//94 
f 90//90 80//80 101//101 
f 92//92 101//101 80//80 
f 101//101 92//92 111//111 
f 73//73 99//99 88//88 
f 98//98 75//75 81//81 
f 98//98 714//714 75//75 
f 102//102 68//68 96//96 
f 98//98 81//81 97//97 
f 714//714 98//98 119//119 
f 102//102 103//103 97//97 
f 98//98 97//97 108//108 
f 108//108 119//119 98//98 
f 105//105 93//93 711//711 
f 84//84 715//715 716//716 
f 84//84 712//712 715//715 
f 101//101 113//113 94//94 
f 108//108 97//97 103//103 
f 134//134 114//114 96//96 
f 114//114 102//102 96//96 
f 111//111 713//713 115//115 
f 112//112 95//95 94//94 
f 721//721 93//93 105//105 
f 106//106 104//104 95//95 
f 95//95 112//112 717//717 
f 716//716 715//715 109//109 
f 112//112 94//94 720//720 
f 107//107 96//96 88//88 
f 718//718 88//88 99//99 
f 122//122 99//99 121//121 
f 718//718 99//99 122//122 
f 100//100 120//120 89//89 
f 121//121 89//89 725//725 
f 102//102 114//114 103//103 
f 119//119 120//120 100//100 
f 106//106 719//719 104//104 
f 111//111 110//110 101//101 
f 101//101 110//110 113//113 
f 113//113 110//110 126//126 
f 727//727 110//110 111//111 
f 717//717 112//112 117//117 
f 117//117 112//112 129//129 
f 96//96 107//107 134//134 
f 134//134 107//107 130//130 
f 731//731 718//718 122//122 
f 135//135 112//112 143//143 
f 119//119 108//108 124//124 
f 125//125 103//103 114//114 
f 103//103 136//136 108//108 
f 134//134 726//726 114//114 
f 136//136 103//103 125//125 
f 105//105 118//118 721//721 
f 111//111 115//115 116//116 
f 716//716 109//109 723//723 
f 721//721 118//118 722//722 
f 106//106 117//117 719//719 
f 151//151 722//722 118//118 
f 117//117 724//724 719//719 
f 135//135 129//129 112//112 
f 121//121 725//725 141//141 
f 122//122 121//121 140//140 
f 742//742 121//121 141//141 
f 123//123 119//119 124//124 
f 120//120 119//119 123//123 
f 120//120 123//123 743//743 
f 112//112 720//720 143//143 
f 726//726 134//134 144//144 
f 116//116 126//126 111//111 
f 113//113 126//126 146//146 
f 116//116 745//745 142//142 
f 126//126 116//116 142//142 
f 126//126 142//142 146//146 
f 117//117 742//742 724//724 
f 133//133 742//742 117//117 
f 724//724 742//742 156//156 
f 127//127 117//117 129//129 
f 133//133 117//117 127//127 
f 720//720 146//146 143//143 
f 731//731 122//122 128//128 
f 129//129 131//131 127//127 
f 734//734 732//732 728//728 
f 127//127 735//735 133//133 
f 736//736 128//128 132//132 
f 122//122 132//132 128//128 
f 132//132 122//122 140//140 
f 729//729 134//134 733//733 
f 732//732 734//734 730//730 
f 740//740 737//737 738//738 
f 739//739 742//742 133//133 
f 125//125 139//139 136//136 
f 729//729 741//741 134//134 
f 134//134 741//741 144//144 
f 741//741 143//143 144//144 
f 124//124 136//136 138//138 
f 124//124 108//108 136//136 
f 124//124 137//137 123//123 
f 136//136 139//139 138//138 
f 124//124 138//138 137//137 
f 743//743 123//123 137//137 
f 148//148 137//137 138//138 
f 138//138 139//139 147//147 
f 748//748 151//151 118//118 
f 742//742 141//141 156//156 
f 142//142 154//154 146//146 
f 144//144 143//143 145//145 
f 146//146 145//145 143//143 
f 145//145 726//726 144//144 
f 146//146 153//153 145//145 
f 125//125 149//149 139//139 
f 148//148 138//138 147//147 
f 139//139 149//149 147//147 
f 145//145 149//149 726//726 
f 145//145 153//153 149//149 
f 149//149 153//153 147//147 
f 147//147 153//153 150//150 
f 148//148 147//147 150//150 
f 157//157 745//745 156//156 
f 137//137 148//148 152//152 
f 155//155 743//743 137//137 
f 155//155 137//137 152//152 
f 152//152 148//148 158//158 
f 155//155 152//152 158//158 
f 158//158 148//148 150//150 
f 141//141 747//747 156//156 
f 146//146 154//154 153//153 
f 142//142 745//745 157//157 
f 744//744 749//749 746//746 
f 749//749 161//161 746//746 
f 159//159 157//157 156//156 
f 156//156 747//747 162//162 
f 168//168 156//156 162//162 
f 155//155 158//158 162//162 
f 154//154 160//160 153//153 
f 163//163 153//153 160//160 
f 150//150 153//153 163//163 
f 169//169 159//159 156//156 
f 159//159 752//752 750//750 
f 166//166 752//752 159//159 
f 166//166 159//159 169//169 
f 161//161 751//751 746//746 
f 166//166 169//169 188//188 
f 162//162 158//158 164//164 
f 158//158 150//150 164//164 
f 168//168 162//162 189//189 
f 164//164 150//150 167//167 
f 164//164 171//171 162//162 
f 150//150 163//163 167//167 
f 165//165 163//163 160//160 
f 161//161 170//170 751//751 
f 166//166 170//170 752//752 
f 751//751 170//170 165//165 
f 164//164 167//167 172//172 
f 171//171 164//164 172//172 
f 163//163 184//184 167//167 
f 189//189 162//162 171//171 
f 169//169 156//156 168//168 
f 171//171 172//172 190//190 
f 170//170 185//185 165//165 
f 187//187 170//170 166//166 
f 172//172 167//167 184//184 
f 212//212 172//172 184//184 
f 170//170 187//187 185//185 
f 186//186 169//169 168//168 
f 186//186 188//188 169//169 
f 188//188 187//187 166//166 
f 168//168 189//189 186//186 
f 190//190 172//172 760//760 
f 171//171 190//190 189//189 
f 173//173 175//175 177//177 
f 177//177 178//178 173//173 
f 755//755 179//179 753//753 
f 754//754 174//174 176//176 
f 183//183 174//174 757//757 
f 757//757 174//174 754//754 
f 214//214 176//176 174//174 
f 178//178 177//177 180//180 
f 175//175 176//176 210//210 
f 754//754 176//176 175//175 
f 214//214 759//759 176//176 
f 214//214 174//174 211//211 
f 174//174 183//183 211//211 
f 193//193 192//192 177//177 
f 177//177 192//192 180//180 
f 177//177 191//191 193//193 
f 175//175 191//191 177//177 
f 756//756 181//181 758//758 
f 180//180 181//181 756//756 
f 758//758 181//181 182//182 
f 183//183 757//757 182//182 
f 192//192 202//202 180//180 
f 180//180 202//202 181//181 
f 181//181 202//202 203//203 
f 203//203 182//182 181//181 
f 204//204 183//183 182//182 
f 203//203 204//204 182//182 
f 165//165 184//184 163//163 
f 220//220 185//185 187//187 
f 185//185 220//220 165//165 
f 220//220 184//184 165//165 
f 187//187 188//188 221//221 
f 186//186 189//189 243//243 
f 763//763 220//220 187//187 
f 190//190 231//231 189//189 
f 760//760 768//768 190//190 
f 189//189 231//231 243//243 
f 200//200 191//191 209//209 
f 195//195 200//200 201//201 
f 195//195 193//193 191//191 
f 191//191 175//175 209//209 
f 175//175 210//210 209//209 
f 183//183 204//204 197//197 
f 194//194 192//192 193//193 
f 194//194 193//193 195//195 
f 198//198 196//196 194//194 
f 194//194 196//196 192//192 
f 196//196 199//199 206//206 
f 196//196 206//206 192//192 
f 198//198 194//194 195//195 
f 199//199 208//208 206//206 
f 211//211 183//183 197//197 
f 198//198 199//199 196//196 
f 197//197 207//207 216//216 
f 208//208 199//199 217//217 
f 208//208 218//218 207//207 
f 195//195 191//191 200//200 
f 218//218 216//216 207//207 
f 195//195 201//201 198//198 
f 199//199 198//198 213//213 
f 217//217 199//199 213//213 
f 198//198 201//201 213//213 
f 208//208 217//217 218//218 
f 202//202 192//192 206//206 
f 202//202 205//205 203//203 
f 207//207 204//204 205//205 
f 205//205 204//204 203//203 
f 202//202 206//206 205//205 
f 197//197 204//204 207//207 
f 206//206 208//208 205//205 
f 208//208 207//207 205//205 
f 219//219 209//209 210//210 
f 200//200 209//209 224//224 
f 224//224 209//209 219//219 
f 211//211 241//241 214//214 
f 216//216 211//211 197//197 
f 211//211 216//216 241//241 
f 230//230 188//188 186//186 
f 230//230 221//221 188//188 
f 217//217 213//213 215//215 
f 224//224 201//201 200//200 
f 214//214 241//241 228//228 
f 215//215 223//223 217//217 
f 217//217 223//223 218//218 
f 223//223 222//222 218//218 
f 201//201 226//226 213//213 
f 213//213 226//226 215//215 
f 218//218 222//222 216//216 
f 214//214 762//762 759//759 
f 214//214 227//227 762//762 
f 238//238 241//241 216//216 
f 220//220 229//229 184//184 
f 184//184 251//251 212//212 
f 760//760 261//261 768//768 
f 223//223 225//225 222//222 
f 222//222 225//225 240//240 
f 215//215 226//226 234//234 
f 223//223 215//215 234//234 
f 225//225 223//223 234//234 
f 219//219 235//235 224//224 
f 227//227 235//235 762//762 
f 764//764 761//761 228//228 
f 224//224 235//235 237//237 
f 226//226 201//201 224//224 
f 244//244 225//225 234//234 
f 240//240 225//225 244//244 
f 234//234 226//226 233//233 
f 222//222 238//238 216//216 
f 240//240 238//238 222//222 
f 229//229 251//251 184//184 
f 261//261 760//760 251//251 
f 767//767 186//186 243//243 
f 226//226 232//232 233//233 
f 237//237 232//232 224//224 
f 232//232 226//226 224//224 
f 234//234 233//233 244//244 
f 236//236 237//237 235//235 
f 237//237 245//245 232//232 
f 239//239 228//228 241//241 
f 764//764 228//228 242//242 
f 239//239 241//241 238//238 
f 227//227 236//236 235//235 
f 764//764 242//242 236//236 
f 242//242 228//228 239//239 
f 240//240 239//239 238//238 
f 239//239 246//246 242//242 
f 239//239 247//247 246//246 
f 248//248 769//769 239//239 
f 239//239 240//240 248//248 
f 236//236 242//242 246//246 
f 236//236 255//255 237//237 
f 252//252 221//221 230//230 
f 250//250 220//220 763//763 
f 765//765 220//220 250//250 
f 770//770 221//221 252//252 
f 232//232 245//245 233//233 
f 233//233 245//245 244//244 
f 244//244 249//249 240//240 
f 244//244 254//254 249//249 
f 258//258 246//246 247//247 
f 249//249 248//248 240//240 
f 257//257 769//769 248//248 
f 249//249 260//260 248//248 
f 260//260 257//257 248//248 
f 249//249 265//265 260//260 
f 254//254 244//244 253//253 
f 249//249 254//254 265//265 
f 259//259 255//255 236//236 
f 246//246 259//259 236//236 
f 771//771 767//767 243//243 
f 252//252 280//280 770//770 
f 243//243 231//231 270//270 
f 244//244 245//245 253//253 
f 237//237 255//255 256//256 
f 237//237 256//256 245//245 
f 253//253 245//245 264//264 
f 266//266 253//253 264//264 
f 264//264 245//245 256//256 
f 769//769 257//257 772//772 
f 275//275 267//267 256//256 
f 778//778 255//255 259//259 
f 259//259 246//246 258//258 
f 256//256 255//255 275//275 
f 259//259 274//274 778//778 
f 263//263 772//772 257//257 
f 260//260 263//263 257//257 
f 279//279 765//765 250//250 
f 229//229 268//268 251//251 
f 251//251 269//269 261//261 
f 268//268 269//269 251//251 
f 279//279 250//250 780//780 
f 771//771 243//243 262//262 
f 262//262 243//243 270//270 
f 781//781 771//771 262//262 
f 768//768 261//261 776//776 
f 254//254 253//253 266//266 
f 267//267 264//264 256//256 
f 774//774 271//271 264//264 
f 265//265 254//254 266//266 
f 265//265 263//263 260//260 
f 266//266 264//264 271//271 
f 265//265 266//266 271//271 
f 274//274 259//259 278//278 
f 259//259 258//258 278//278 
f 278//278 772//772 277//277 
f 267//267 275//275 272//272 
f 273//273 774//774 777//777 
f 263//263 277//277 772//772 
f 766//766 779//779 775//775 
f 268//268 396//396 269//269 
f 396//396 386//386 269//269 
f 774//774 273//273 271//271 
f 273//273 777//777 282//282 
f 276//276 277//277 263//263 
f 265//265 271//271 281//281 
f 265//265 276//276 263//263 
f 281//281 271//271 273//273 
f 265//265 281//281 276//276 
f 286//286 778//778 274//274 
f 290//290 277//277 276//276 
f 291//291 287//287 278//278 
f 287//287 274//274 278//278 
f 775//775 779//779 396//396 
f 272//272 275//275 282//282 
f 275//275 283//283 282//282 
f 282//282 283//283 284//284 
f 285//285 282//282 284//284 
f 273//273 783//783 281//281 
f 282//282 285//285 273//273 
f 783//783 289//289 281//281 
f 281//281 289//289 290//290 
f 276//276 281//281 290//290 
f 286//286 283//283 778//778 
f 274//274 287//287 286//286 
f 288//288 291//291 278//278 
f 285//285 284//284 292//292 
f 277//277 288//288 278//278 
f 287//287 291//291 293//293 
f 293//293 291//291 297//297 
f 291//291 288//288 297//297 
f 288//288 295//295 297//297 
f 288//288 277//277 290//290 
f 290//290 295//295 288//288 
f 287//287 294//294 286//286 
f 287//287 293//293 294//294 
f 776//776 261//261 369//369 
f 300//300 285//285 292//292 
f 786//786 289//289 783//783 
f 786//786 301//301 289//289 
f 283//283 292//292 284//284 
f 283//283 286//286 302//302 
f 283//283 299//299 292//292 
f 299//299 283//283 302//302 
f 299//299 300//300 292//292 
f 289//289 296//296 290//290 
f 296//296 289//289 301//301 
f 294//294 293//293 298//298 
f 301//301 303//303 296//296 
f 296//296 295//295 290//290 
f 294//294 302//302 286//286 
f 298//298 302//302 294//294 
f 293//293 297//297 784//784 
f 297//297 304//304 784//784 
f 295//295 304//304 297//297 
f 262//262 270//270 409//409 
f 776//776 369//369 819//819 
f 367//367 261//261 269//269 
f 299//299 305//305 300//300 
f 296//296 303//303 295//295 
f 301//301 786//786 303//303 
f 299//299 302//302 791//791 
f 787//787 792//792 307//307 
f 307//307 303//303 786//786 
f 303//303 304//304 295//295 
f 327//327 302//302 306//306 
f 302//302 298//298 306//306 
f 785//785 789//789 793//793 
f 369//369 261//261 804//804 
f 307//307 329//329 303//303 
f 307//307 326//326 329//329 
f 327//327 306//306 330//330 
f 428//428 262//262 409//409 
f 310//310 314//314 308//308 
f 308//308 315//315 309//309 
f 308//308 314//314 315//315 
f 315//315 316//316 309//309 
f 316//316 360//360 309//309 
f 314//314 310//310 320//320 
f 313//313 312//312 311//311 
f 308//308 311//311 310//310 
f 311//311 312//312 310//310 
f 311//311 308//308 309//309 
f 311//311 354//354 313//313 
f 312//312 334//334 332//332 
f 310//310 312//312 332//332 
f 332//332 333//333 310//310 
f 310//310 333//333 320//320 
f 334//334 312//312 313//313 
f 314//314 318//318 315//315 
f 315//315 317//317 316//316 
f 318//318 319//319 317//317 
f 315//315 318//318 317//317 
f 320//320 318//318 314//314 
f 320//320 321//321 318//318 
f 321//321 322//322 319//319 
f 318//318 321//321 319//319 
f 317//317 323//323 316//316 
f 319//319 323//323 317//317 
f 319//319 324//324 323//323 
f 319//319 322//322 324//324 
f 320//320 333//333 338//338 
f 320//320 338//338 339//339 
f 321//321 320//320 339//339 
f 321//321 339//339 340//340 
f 340//340 794//794 321//321 
f 340//340 351//351 794//794 
f 801//801 324//324 322//322 
f 323//323 360//360 316//316 
f 360//360 323//323 349//349 
f 309//309 360//360 311//311 
f 324//324 349//349 323//323 
f 324//324 352//352 349//349 
f 801//801 352//352 324//324 
f 302//302 325//325 791//791 
f 326//326 307//307 792//792 
f 326//326 792//792 365//365 
f 326//326 365//365 366//366 
f 329//329 326//326 366//366 
f 795//795 788//788 796//796 
f 811//811 327//327 330//330 
f 812//812 795//795 796//796 
f 797//797 793//793 331//331 
f 789//789 331//331 793//793 
f 368//368 328//328 329//329 
f 303//303 328//328 304//304 
f 329//329 328//328 303//303 
f 367//367 269//269 813//813 
f 805//805 797//797 331//331 
f 798//798 790//790 328//328 
f 799//799 334//334 336//336 
f 336//336 335//335 799//799 
f 799//799 335//335 333//333 
f 335//335 341//341 333//333 
f 336//336 337//337 335//335 
f 341//341 335//335 342//342 
f 342//342 335//335 337//337 
f 334//334 350//350 336//336 
f 350//350 337//337 336//336 
f 337//337 348//348 342//342 
f 313//313 350//350 334//334 
f 337//337 350//350 355//355 
f 348//348 337//337 355//355 
f 355//355 356//356 348//348 
f 348//348 356//356 346//346 
f 333//333 341//341 338//338 
f 338//338 341//341 343//343 
f 800//800 338//338 343//343 
f 800//800 343//343 345//345 
f 800//800 345//345 340//340 
f 345//345 347//347 340//340 
f 347//347 353//353 351//351 
f 347//347 351//351 340//340 
f 343//343 341//341 342//342 
f 344//344 342//342 348//348 
f 344//344 343//343 342//342 
f 343//343 344//344 345//345 
f 345//345 344//344 346//346 
f 345//345 346//346 347//347 
f 353//353 347//347 346//346 
f 344//344 348//348 346//346 
f 350//350 313//313 802//802 
f 352//352 358//358 349//349 
f 356//356 353//353 346//346 
f 353//353 352//352 351//351 
f 350//350 371//371 355//355 
f 802//802 371//371 350//350 
f 371//371 372//372 355//355 
f 355//355 372//372 356//356 
f 356//356 372//372 357//357 
f 360//360 349//349 358//358 
f 353//353 359//359 352//352 
f 359//359 358//358 352//352 
f 353//353 357//357 359//359 
f 356//356 357//357 353//353 
f 354//354 311//311 360//360 
f 354//354 360//360 362//362 
f 373//373 354//354 362//362 
f 363//363 360//360 358//358 
f 360//360 363//363 362//362 
f 363//363 358//358 361//361 
f 358//358 359//359 361//361 
f 361//361 359//359 357//357 
f 361//361 357//357 377//377 
f 377//377 357//357 372//372 
f 362//362 363//363 364//364 
f 379//379 362//362 364//364 
f 363//363 383//383 364//364 
f 379//379 373//373 362//362 
f 374//374 802//802 373//373 
f 809//809 363//363 361//361 
f 802//802 374//374 371//371 
f 364//364 383//383 384//384 
f 325//325 396//396 803//803 
f 803//803 791//791 325//325 
f 366//366 368//368 329//329 
f 806//806 811//811 330//330 
f 396//396 325//325 386//386 
f 805//805 331//331 370//370 
f 807//807 798//798 328//328 
f 807//807 328//328 368//368 
f 807//807 368//368 390//390 
f 808//808 369//369 804//804 
f 807//807 819//819 369//369 
f 807//807 390//390 819//819 
f 371//371 376//376 375//375 
f 371//371 375//375 372//372 
f 372//372 375//375 378//378 
f 372//372 378//378 377//377 
f 373//373 379//379 380//380 
f 374//374 373//373 380//380 
f 374//374 376//376 371//371 
f 378//378 376//376 392//392 
f 375//375 376//376 378//378 
f 393//393 377//377 378//378 
f 379//379 364//364 387//387 
f 384//384 387//387 364//364 
f 376//376 380//380 391//391 
f 376//376 391//391 392//392 
f 380//380 376//376 374//374 
f 393//393 382//382 377//377 
f 816//816 393//393 378//378 
f 361//361 382//382 809//809 
f 377//377 382//382 361//361 
f 391//391 381//381 387//387 
f 391//391 416//416 392//392 
f 381//381 391//391 380//380 
f 381//381 380//380 379//379 
f 381//381 379//379 387//387 
f 385//385 809//809 382//382 
f 393//393 407//407 382//382 
f 382//382 407//407 385//385 
f 388//388 387//387 384//384 
f 810//810 384//384 383//383 
f 803//803 396//396 397//397 
f 400//400 368//368 366//366 
f 399//399 400//400 366//366 
f 399//399 366//366 365//365 
f 394//394 387//387 402//402 
f 387//387 388//388 402//402 
f 388//388 384//384 389//389 
f 384//384 810//810 389//389 
f 403//403 388//388 389//389 
f 388//388 403//403 402//402 
f 406//406 389//389 810//810 
f 406//406 403//403 389//389 
f 279//279 780//780 395//395 
f 400//400 814//814 368//368 
f 387//387 394//394 391//391 
f 815//815 817//817 821//821 
f 816//816 413//413 393//393 
f 413//413 816//816 822//822 
f 821//821 817//817 418//418 
f 407//407 406//406 385//385 
f 407//407 393//393 820//820 
f 779//779 395//395 396//396 
f 408//408 395//395 780//780 
f 399//399 365//365 397//397 
f 398//398 399//399 397//397 
f 397//397 396//396 415//415 
f 396//396 395//395 414//414 
f 414//414 415//415 396//396 
f 399//399 398//398 400//400 
f 398//398 401//401 400//400 
f 401//401 814//814 400//400 
f 814//814 401//401 429//429 
f 403//403 410//410 402//402 
f 411//411 403//403 406//406 
f 404//404 405//405 406//406 
f 407//407 420//420 404//404 
f 404//404 422//422 405//405 
f 406//406 407//407 404//404 
f 820//820 420//420 407//407 
f 773//773 818//818 782//782 
f 818//818 773//773 829//829 
f 414//414 395//395 408//408 
f 421//421 428//428 409//409 
f 831//831 819//819 390//390 
f 402//402 417//417 394//394 
f 823//823 402//402 410//410 
f 410//410 412//412 823//823 
f 410//410 403//403 411//411 
f 411//411 405//405 412//412 
f 411//411 406//406 405//405 
f 410//410 411//411 412//412 
f 412//412 405//405 422//422 
f 415//415 414//414 423//423 
f 418//418 419//419 821//821 
f 822//822 824//824 413//413 
f 825//825 420//420 820//820 
f 420//420 825//825 426//426 
f 398//398 429//429 401//401 
f 417//417 418//418 394//394 
f 437//437 418//418 417//417 
f 404//404 427//427 422//422 
f 420//420 427//427 404//404 
f 427//427 420//420 426//426 
f 826//826 819//819 831//831 
f 429//429 436//436 827//827 
f 430//430 437//437 417//417 
f 412//412 832//832 823//823 
f 828//828 414//414 408//408 
f 828//828 408//408 434//434 
f 415//415 424//424 397//397 
f 424//424 425//425 397//397 
f 423//423 424//424 415//415 
f 423//423 435//435 424//424 
f 398//398 397//397 425//425 
f 398//398 425//425 429//429 
f 433//433 419//419 418//418 
f 825//825 836//836 426//426 
f 426//426 432//432 427//427 
f 432//432 426//426 836//836 
f 830//830 434//434 408//408 
f 453//453 421//421 837//837 
f 453//453 428//428 421//421 
f 442//442 436//436 429//429 
f 418//418 437//437 443//443 
f 412//412 422//422 833//833 
f 422//422 431//431 833//833 
f 432//432 438//438 835//835 
f 439//439 438//438 432//432 
f 835//835 422//422 427//427 
f 432//432 835//835 427//427 
f 840//840 834//834 455//455 
f 833//833 431//431 843//843 
f 423//423 434//434 435//435 
f 450//450 447//447 425//425 
f 447//447 429//429 425//425 
f 425//425 424//424 450//450 
f 447//447 440//440 429//429 
f 441//441 418//418 443//443 
f 439//439 836//836 451//451 
f 432//432 836//836 439//439 
f 434//434 830//830 852//852 
f 854//854 453//453 837//837 
f 442//442 429//429 440//440 
f 845//845 838//838 844//844 
f 845//845 841//841 838//838 
f 454//454 854//854 833//833 
f 438//438 452//452 853//853 
f 451//451 452//452 439//439 
f 439//439 452//452 438//438 
f 833//833 843//843 454//454 
f 463//463 424//424 435//435 
f 852//852 456//456 434//434 
f 447//447 444//444 440//440 
f 845//845 844//844 846//846 
f 442//442 440//440 444//444 
f 443//443 847//847 441//441 
f 447//447 445//445 444//444 
f 441//441 446//446 418//418 
f 849//849 446//446 848//848 
f 446//446 441//441 848//848 
f 418//418 446//446 448//448 
f 449//449 446//446 849//849 
f 448//448 446//446 449//449 
f 450//450 457//457 447//447 
f 424//424 463//463 450//450 
f 447//447 850//850 445//445 
f 857//857 850//850 447//447 
f 457//457 448//448 449//449 
f 851//851 433//433 418//418 
f 451//451 862//862 452//452 
f 842//842 855//855 839//839 
f 854//854 454//454 459//459 
f 458//458 453//453 854//854 
f 435//435 856//856 463//463 
f 434//434 456//456 435//435 
f 448//448 457//457 418//418 
f 450//450 463//463 457//457 
f 418//418 457//457 851//851 
f 457//457 463//463 851//851 
f 461//461 853//853 452//452 
f 862//862 461//461 452//452 
f 458//458 854//854 459//459 
f 464//464 453//453 458//458 
f 852//852 465//465 456//456 
f 458//458 469//469 464//464 
f 460//460 858//858 853//853 
f 461//461 460//460 853//853 
f 859//859 860//860 462//462 
f 461//461 462//462 460//460 
f 458//458 459//459 868//868 
f 462//462 471//471 859//859 
f 865//865 465//465 852//852 
f 466//466 861//861 863//863 
f 462//462 461//461 471//471 
f 464//464 469//469 467//467 
f 468//468 865//865 467//467 
f 856//856 866//866 463//463 
f 468//468 465//465 865//865 
f 867//867 471//471 461//461 
f 463//463 866//866 477//477 
f 468//468 873//873 465//465 
f 471//471 867//867 474//474 
f 459//459 472//472 868//868 
f 466//466 863//863 473//473 
f 870//870 864//864 874//874 
f 468//468 467//467 475//475 
f 468//468 475//475 873//873 
f 473//473 871//871 466//466 
f 470//470 467//467 469//469 
f 475//475 467//467 470//470 
f 459//459 869//869 472//472 
f 874//874 484//484 870//870 
f 878//878 871//871 473//473 
f 873//873 475//475 478//478 
f 476//476 478//478 475//475 
f 474//474 482//482 471//471 
f 472//472 869//869 876//876 
f 480//480 469//469 481//481 
f 480//480 470//470 469//469 
f 470//470 476//476 475//475 
f 470//470 480//480 476//476 
f 868//868 472//472 481//481 
f 481//481 472//472 489//489 
f 483//483 873//873 478//478 
f 877//877 872//872 484//484 
f 478//478 476//476 483//483 
f 480//480 479//479 476//476 
f 483//483 476//476 875//875 
f 480//480 486//486 479//479 
f 493//493 877//877 484//484 
f 487//487 481//481 489//489 
f 480//480 481//481 487//487 
f 472//472 876//876 489//489 
f 874//874 491//491 484//484 
f 873//873 483//483 491//491 
f 485//485 483//483 875//875 
f 490//490 483//483 485//485 
f 479//479 486//486 879//879 
f 486//486 503//503 879//879 
f 486//486 480//480 487//487 
f 486//486 504//504 503//503 
f 504//504 486//486 487//487 
f 504//504 487//487 489//489 
f 489//489 876//876 511//511 
f 489//489 511//511 515//515 
f 483//483 490//490 491//491 
f 500//500 498//498 526//526 
f 492//492 490//490 485//485 
f 492//492 485//485 503//503 
f 505//505 876//876 880//880 
f 494//494 508//508 881//881 
f 508//508 494//494 512//512 
f 493//493 484//484 518//518 
f 494//494 519//519 495//495 
f 519//519 494//494 882//882 
f 520//520 518//518 484//484 
f 495//495 890//890 522//522 
f 889//889 519//519 882//882 
f 512//512 494//494 495//495 
f 512//512 495//495 496//496 
f 522//522 498//498 495//495 
f 496//496 495//495 498//498 
f 496//496 488//488 512//512 
f 496//496 498//498 497//497 
f 488//488 496//496 499//499 
f 498//498 500//500 497//497 
f 496//496 497//497 499//499 
f 497//497 500//500 499//499 
f 499//499 501//501 488//488 
f 501//501 514//514 488//488 
f 499//499 502//502 501//501 
f 501//501 529//529 514//514 
f 500//500 502//502 499//499 
f 501//501 502//502 529//529 
f 503//503 504//504 543//543 
f 542//542 543//543 504//504 
f 545//545 542//542 504//504 
f 489//489 547//547 504//504 
f 545//545 504//504 547//547 
f 505//505 509//509 876//876 
f 509//509 511//511 876//876 
f 506//506 505//505 880//880 
f 883//883 881//881 508//508 
f 507//507 505//505 506//506 
f 509//509 505//505 507//507 
f 883//883 508//508 884//884 
f 512//512 510//510 508//508 
f 507//507 511//511 509//509 
f 884//884 508//508 885//885 
f 508//508 510//510 885//885 
f 551//551 510//510 512//512 
f 512//512 513//513 551//551 
f 511//511 510//510 551//551 
f 511//511 551//551 515//515 
f 552//552 886//886 553//553 
f 488//488 513//513 512//512 
f 513//513 488//488 514//514 
f 514//514 540//540 539//539 
f 551//551 513//513 552//552 
f 526//526 516//516 500//500 
f 516//516 528//528 577//577 
f 490//490 492//492 517//517 
f 490//490 517//517 491//491 
f 484//484 586//586 520//520 
f 586//586 521//521 520//520 
f 586//586 491//491 517//517 
f 484//484 491//491 586//586 
f 892//892 522//522 890//890 
f 518//518 520//520 891//891 
f 520//520 521//521 891//891 
f 586//586 522//522 521//521 
f 522//522 586//586 523//523 
f 587//587 523//523 586//586 
f 524//524 498//498 522//522 
f 524//524 522//522 523//523 
f 524//524 523//523 525//525 
f 524//524 526//526 498//498 
f 526//526 579//579 895//895 
f 579//579 526//526 527//527 
f 524//524 527//527 526//526 
f 524//524 525//525 527//527 
f 527//527 578//578 579//579 
f 526//526 528//528 516//516 
f 500//500 530//530 502//502 
f 888//888 530//530 500//500 
f 502//502 530//530 529//529 
f 529//529 530//530 582//582 
f 533//533 503//503 531//531 
f 531//531 503//503 543//543 
f 492//492 503//503 533//533 
f 533//533 531//531 532//532 
f 531//531 543//543 532//532 
f 546//546 541//541 532//532 
f 532//532 543//543 546//546 
f 532//532 541//541 533//533 
f 534//534 492//492 533//533 
f 492//492 585//585 517//517 
f 585//585 492//492 534//534 
f 533//533 584//584 534//534 
f 893//893 903//903 536//536 
f 897//897 535//535 901//901 
f 901//901 887//887 897//897 
f 897//897 887//887 537//537 
f 536//536 898//898 894//894 
f 536//536 894//894 893//893 
f 894//894 898//898 538//538 
f 537//537 887//887 899//899 
f 514//514 539//539 513//513 
f 894//894 538//538 527//527 
f 578//578 527//527 538//538 
f 539//539 540//540 589//589 
f 539//539 899//899 887//887 
f 514//514 529//529 540//540 
f 529//529 902//902 540//540 
f 540//540 902//902 589//589 
f 541//541 546//546 544//544 
f 541//541 544//544 545//545 
f 545//545 544//544 542//542 
f 546//546 543//543 544//544 
f 542//542 544//544 543//543 
f 549//549 489//489 515//515 
f 551//551 549//549 515//515 
f 547//547 548//548 545//545 
f 547//547 489//489 549//549 
f 549//549 551//551 552//552 
f 548//548 547//547 549//549 
f 549//549 552//552 550//550 
f 549//549 550//550 593//593 
f 552//552 553//553 550//550 
f 535//535 900//900 901//901 
f 545//545 595//595 541//541 
f 545//545 554//554 595//595 
f 545//545 597//597 554//554 
f 548//548 597//597 545//545 
f 593//593 906//906 548//548 
f 549//549 593//593 548//548 
f 555//555 556//556 562//562 
f 555//555 601//601 556//556 
f 601//601 555//555 600//600 
f 604//604 563//563 556//556 
f 559//559 558//558 557//557 
f 600//600 555//555 558//558 
f 600//600 558//558 603//603 
f 603//603 558//558 560//560 
f 568//568 560//560 559//559 
f 560//560 558//558 559//559 
f 561//561 557//557 562//562 
f 557//557 558//558 562//562 
f 563//563 570//570 561//561 
f 562//562 556//556 561//561 
f 561//561 556//556 563//563 
f 562//562 558//558 555//555 
f 563//563 574//574 570//570 
f 563//563 604//604 574//574 
f 564//564 557//557 561//561 
f 564//564 565//565 557//557 
f 565//565 564//564 566//566 
f 564//564 572//572 566//566 
f 565//565 568//568 559//559 
f 565//565 559//559 557//557 
f 567//567 566//566 572//572 
f 576//576 567//567 572//572 
f 568//568 565//565 610//610 
f 611//611 565//565 566//566 
f 610//610 565//565 611//611 
f 611//611 566//566 567//567 
f 564//564 561//561 569//569 
f 564//564 569//569 572//572 
f 570//570 569//569 561//561 
f 570//570 571//571 569//569 
f 570//570 574//574 571//571 
f 569//569 571//571 572//572 
f 572//572 571//571 573//573 
f 571//571 575//575 573//573 
f 571//571 574//574 575//575 
f 572//572 573//573 576//576 
f 573//573 575//575 617//617 
f 576//576 573//573 617//617 
f 625//625 574//574 609//609 
f 575//575 574//574 625//625 
f 576//576 617//617 626//626 
f 528//528 580//580 577//577 
f 665//665 577//577 580//580 
f 888//888 577//577 530//530 
f 578//578 630//630 579//579 
f 581//581 895//895 579//579 
f 579//579 630//630 581//581 
f 630//630 578//578 588//588 
f 895//895 581//581 580//580 
f 530//530 633//633 582//582 
f 577//577 635//635 530//530 
f 584//584 533//533 592//592 
f 592//592 583//583 584//584 
f 585//585 583//583 642//642 
f 583//583 645//645 642//642 
f 584//584 585//585 534//534 
f 585//585 584//584 583//583 
f 586//586 517//517 585//585 
f 585//585 642//642 586//586 
f 586//586 646//646 587//587 
f 903//903 646//646 896//896 
f 591//591 896//896 646//646 
f 903//903 896//896 536//536 
f 588//588 578//578 538//538 
f 539//539 590//590 899//899 
f 538//538 904//904 588//588 
f 539//539 589//589 590//590 
f 589//589 644//644 684//684 
f 590//590 589//589 684//684 
f 541//541 592//592 533//533 
f 592//592 647//647 908//908 
f 583//583 592//592 908//908 
f 905//905 649//649 900//900 
f 905//905 900//900 535//535 
f 647//647 592//592 600//600 
f 592//592 541//541 595//595 
f 594//594 651//651 598//598 
f 594//594 593//593 550//550 
f 900//900 649//649 594//594 
f 594//594 598//598 593//593 
f 649//649 651//651 594//594 
f 554//554 596//596 595//595 
f 596//596 601//601 595//595 
f 600//600 592//592 595//595 
f 597//597 596//596 554//554 
f 596//596 605//605 601//601 
f 906//906 599//599 602//602 
f 597//597 602//602 596//596 
f 596//596 602//602 605//605 
f 906//906 593//593 598//598 
f 906//906 598//598 599//599 
f 656//656 602//602 599//599 
f 651//651 599//599 598//598 
f 651//651 652//652 599//599 
f 653//653 600//600 603//603 
f 603//603 658//658 653//653 
f 600//600 595//595 601//601 
f 605//605 556//556 601//601 
f 605//605 602//602 606//606 
f 604//604 556//556 605//605 
f 604//604 605//605 606//606 
f 609//609 604//604 606//606 
f 606//606 659//659 609//609 
f 606//606 602//602 656//656 
f 659//659 606//606 656//656 
f 603//603 560//560 607//607 
f 607//607 560//560 568//568 
f 607//607 568//568 612//612 
f 608//608 607//607 612//612 
f 603//603 607//607 658//658 
f 608//608 658//658 607//607 
f 615//615 658//658 608//608 
f 604//604 609//609 574//574 
f 663//663 609//609 659//659 
f 612//612 568//568 610//610 
f 614//614 611//611 567//567 
f 614//614 567//567 626//626 
f 610//610 613//613 612//612 
f 613//613 610//610 611//611 
f 608//608 612//612 613//613 
f 613//613 615//615 608//608 
f 614//614 616//616 613//613 
f 614//614 613//613 611//611 
f 622//622 616//616 614//614 
f 626//626 622//622 614//614 
f 613//613 616//616 615//615 
f 616//616 622//622 624//624 
f 616//616 661//661 615//615 
f 616//616 624//624 661//661 
f 626//626 567//567 576//576 
f 619//619 617//617 618//618 
f 618//618 617//617 575//575 
f 625//625 618//618 575//575 
f 619//619 618//618 621//621 
f 621//621 618//618 625//625 
f 622//622 626//626 620//620 
f 621//621 623//623 619//619 
f 619//619 623//623 620//620 
f 664//664 623//623 621//621 
f 623//623 624//624 622//622 
f 622//622 620//620 623//623 
f 663//663 664//664 621//621 
f 623//623 664//664 624//624 
f 663//663 625//625 609//609 
f 621//621 625//625 663//663 
f 626//626 617//617 619//619 
f 619//619 620//620 626//626 
f 577//577 627//627 635//635 
f 636//636 635//635 628//628 
f 628//628 635//635 627//627 
f 577//577 665//665 627//627 
f 627//627 629//629 628//628 
f 628//628 629//629 641//641 
f 665//665 629//629 627//627 
f 630//630 631//631 581//581 
f 630//630 588//588 632//632 
f 632//632 588//588 643//643 
f 631//631 630//630 632//632 
f 530//530 635//635 633//633 
f 635//635 636//636 633//633 
f 633//633 634//634 582//582 
f 636//636 637//637 633//633 
f 634//634 633//633 637//637 
f 639//639 907//907 637//637 
f 902//902 907//907 644//644 
f 636//636 638//638 637//637 
f 636//636 628//628 638//638 
f 907//907 640//640 644//644 
f 640//640 907//907 639//639 
f 641//641 638//638 628//628 
f 639//639 637//637 638//638 
f 667//667 638//638 641//641 
f 667//667 639//639 638//638 
f 669//669 641//641 629//629 
f 667//667 670//670 639//639 
f 644//644 640//640 671//671 
f 586//586 642//642 646//646 
f 904//904 643//643 588//588 
f 904//904 684//684 643//643 
f 589//589 902//902 644//644 
f 671//671 684//684 644//644 
f 645//645 648//648 642//642 
f 646//646 642//642 648//648 
f 591//591 646//646 910//910 
f 645//645 909//909 648//648 
f 646//646 648//648 650//650 
f 649//649 657//657 652//652 
f 910//910 646//646 657//657 
f 649//649 652//652 651//651 
f 600//600 653//653 647//647 
f 654//654 909//909 653//653 
f 654//654 648//648 909//909 
f 657//657 656//656 652//652 
f 657//657 646//646 650//650 
f 652//652 656//656 599//599 
f 654//654 653//653 658//658 
f 658//658 661//661 654//654 
f 654//654 661//661 655//655 
f 654//654 655//655 648//648 
f 660//660 657//657 650//650 
f 660//660 663//663 657//657 
f 648//648 655//655 650//650 
f 655//655 660//660 650//650 
f 655//655 661//661 662//662 
f 655//655 662//662 660//660 
f 663//663 659//659 657//657 
f 657//657 659//659 656//656 
f 658//658 615//615 661//661 
f 662//662 624//624 664//664 
f 664//664 660//660 662//662 
f 664//664 663//663 660//660 
f 661//661 624//624 662//662 
f 668//668 629//629 665//665 
f 668//668 665//665 672//672 
f 682//682 581//581 631//631 
f 632//632 680//680 682//682 
f 643//643 680//680 632//632 
f 631//631 632//632 682//682 
f 629//629 668//668 669//669 
f 641//641 669//669 666//666 
f 641//641 666//666 667//667 
f 673//673 670//670 667//667 
f 670//670 640//640 639//639 
f 640//640 670//670 671//671 
f 581//581 672//672 580//580 
f 580//580 672//672 665//665 
f 674//674 669//669 668//668 
f 669//669 674//674 666//666 
f 667//667 666//666 673//673 
f 679//679 671//671 670//670 
f 668//668 672//672 676//676 
f 674//674 668//668 676//676 
f 581//581 675//675 672//672 
f 674//674 677//677 673//673 
f 666//666 674//674 673//673 
f 677//677 679//679 673//673 
f 679//679 670//670 673//673 
f 671//671 679//679 681//681 
f 676//676 672//672 675//675 
f 675//675 581//581 682//682 
f 679//679 677//677 678//678 
f 683//683 682//682 680//680 
f 683//683 680//680 678//678 
f 681//681 678//678 680//680 
f 678//678 681//681 679//679 
f 681//681 680//680 684//684 
f 675//675 682//682 676//676 
f 676//676 682//682 911//911 
f 674//674 676//676 677//677 
f 677//677 676//676 683//683 
f 683//683 678//678 677//677 
f 671//671 681//681 684//684 
f 684//684 680//680 643//643 
