#
# Compatibility version : 4.3
# File ID : FJ3990
# Representation ID : BP28919
# Build-up logic : FMA 3.0 is_a
# Concept ID : FMA53251
# English name : Right mental nerve
# Bounds(mm): (-24.690700,-171.621100,1427.871800)-(-4.697700,-157.210900,1445.044600)
# Volume(cm3): 0.009600
#
v -24.5205 -160.377 1444.87
v -24.441 -160.407 1444.75
v -24.686 -160.178 1444.76
v -24.6677 -160.128 1444.69
v -24.6835 -160.121 1444.8
v -24.6282 -160.276 1444.72
v -24.6194 -160.265 1444.91
v -24.6436 -160.223 1444.67
v -24.6681 -160.218 1444.85
v -24.6402 -160.121 1444.9
v -24.6257 -160.081 1444.62
v -24.6322 -160.034 1444.69
v -24.6328 -160.024 1444.8
v -24.6216 -160.312 1444.82
v -24.5538 -160.352 1444.73
v -24.5259 -160.206 1445.01
v -24.4714 -160.307 1445
v -24.4716 -160.025 1444.94
v -24.5544 -159.981 1444.65
v -24.5034 -159.95 1444.76
v -24.4367 -158.716 1436.85
v -24.3637 -160.414 1444.84
v -24.375 -160.371 1444.96
v -24.2633 -160.381 1444.89
v -24.0965 -160.374 1444.66
v -24.162 -160.079 1443.7
v -24.125 -160.236 1443.58
v -24.4267 -160.153 1444.22
v -24.3511 -160.297 1444.17
v -24.4328 -160.049 1444.3
v -24.4254 -160.206 1445.04
v -24.3719 -160.258 1445.04
v -24.33 -160.311 1445.01
v -24.2775 -160.343 1444.97
v -24.2748 -160.271 1445.01
v -24.2814 -160.16 1445.01
v -24.2418 -160.023 1444.83
v -24.1849 -160.314 1444.9
v -24.1832 -160.215 1444.94
v -24.1598 -160.122 1444.87
v -24.0398 -159.998 1438.03
v -24.3594 -159.984 1444.3
v -24.3385 -159.943 1444.71
v -24.2332 -159.609 1437.81
v -24.0753 -159.264 1436.79
v -24.2115 -159.525 1437.13
v -24.1079 -159.167 1437.71
v -24.1006 -159.482 1438.04
v -24.381 -158.955 1436.76
v -24.2976 -158.974 1437.37
v -24.209 -158.57 1436.33
v -24.0754 -158.569 1437.17
v -24.1137 -158.148 1436.11
v -24.3525 -158.358 1436.41
v -24.3687 -158.29 1436.7
v -24.3059 -158 1436.39
v -24.1587 -157.787 1436.14
v -24.1612 -157.731 1436.52
v -24.1518 -157.619 1436.31
v -24.0159 -157.431 1436.11
v -23.9387 -160.453 1444.08
v -23.7092 -160.256 1442.25
v -23.8711 -160.319 1442.99
v -23.8788 -160.17 1442.85
v -24.0556 -160.395 1443.73
v -23.863 -160.243 1444.38
v -23.8785 -160.099 1444.3
v -23.674 -159.986 1437.73
v -23.747 -160.197 1438.03
v -23.6512 -160.116 1437.92
v -23.7976 -160.161 1438.95
v -23.7261 -160.075 1439.2
v -23.7338 -159.999 1442.63
v -23.9994 -159.948 1443.8
v -23.9596 -159.793 1437.36
v -23.729 -159.797 1438.9
v -23.7015 -159.697 1438.73
v -23.7795 -159.428 1437.08
v -23.7068 -159.21 1437.56
v -23.8795 -159.251 1437.86
v -23.8094 -159.42 1438.12
v -23.7692 -158.934 1436.71
v -23.7083 -159.106 1437
v -23.7135 -158.898 1437.06
v -24.0254 -159 1437.56
v -23.8254 -158.947 1437.38
v -23.8602 -158.593 1436.33
v -23.6993 -158.689 1436.82
v -23.6453 -158.445 1436.56
v -23.8254 -158.49 1437.01
v -23.9191 -158.211 1436.07
v -23.7278 -158.081 1436.03
v -23.661 -158.384 1436.36
v -23.6758 -158.286 1436.74
v -23.7898 -157.716 1435.88
v -23.9854 -157.88 1436.76
v -23.81 -157.995 1436.79
v -23.9198 -157.55 1435.93
v -23.8233 -157.324 1436.01
v -23.6759 -157.584 1435.85
v -23.6784 -157.389 1435.92
v -23.6696 -157.265 1436.05
v -23.9277 -157.317 1436.35
v -23.6805 -157.25 1436.39
v -23.8349 -157.382 1436.52
v -23.7769 -157.227 1436.23
v -23.5931 -160.479 1442.93
v -23.5592 -160.45 1443.35
v -23.4047 -160.515 1438.26
v -23.5098 -160.417 1438.64
v -23.3102 -160.412 1438.83
v -23.2606 -160.459 1438.76
v -23.4553 -160.456 1439.74
v -23.4493 -160.388 1440.45
v -23.5159 -160.217 1441.03
v -23.4593 -160.415 1441.02
v -23.5169 -160.457 1442.11
v -23.603 -160.329 1443.77
v -23.5526 -160.178 1443.65
v -23.5606 -160.189 1438
v -23.5036 -160.101 1437.97
v -23.4308 -159.963 1437.98
v -23.5316 -159.937 1439.5
v -23.269 -159.88 1439.62
v -23.5536 -160.229 1439.84
v -23.525 -160.078 1439.83
v -23.3854 -159.951 1439.92
v -23.4591 -160.109 1440.35
v -23.3683 -160 1440.4
v -23.3862 -160.008 1440.83
v -23.5967 -160.036 1441.94
v -23.4771 -159.956 1441.81
v -23.5284 -159.931 1442.5
v -23.6453 -159.974 1443.36
v -23.4309 -159.902 1438
v -23.3993 -159.924 1438.04
v -23.4072 -159.769 1438.1
v -23.42 -159.697 1438.23
v -23.5796 -159.764 1439
v -23.4163 -159.727 1438.73
v -23.4255 -159.795 1439.16
v -23.5884 -159.485 1437.55
v -23.5466 -159.533 1437.83
v -23.5356 -158.139 1436.43
v -23.5347 -158.044 1436.54
v -23.638 -157.753 1435.88
v -23.5392 -157.807 1435.94
v -23.4348 -157.814 1436.04
v -23.4301 -157.679 1435.96
v -23.3371 -157.745 1436.22
v -23.328 -157.681 1436.33
v -23.5809 -157.913 1436.63
v -23.5276 -157.593 1435.89
v -23.5289 -157.441 1435.93
v -23.5313 -157.343 1436
v -23.4357 -157.427 1436
v -23.4272 -157.534 1435.96
v -23.3479 -157.627 1436.07
v -23.5772 -157.237 1436.28
v -23.4822 -157.352 1436.44
v -23.4795 -157.312 1436.1
v -23.4292 -157.321 1436.25
v -23.3543 -157.472 1436.11
v -23.3503 -157.467 1436.35
v -23.3076 -157.571 1436.25
v -23.6391 -157.47 1436.6
v -23.4275 -157.62 1436.51
v -23.0815 -160.572 1438.18
v -23.1754 -160.342 1438.91
v -23.1531 -160.333 1438.86
v -23.0919 -160.474 1439.49
v -23.1593 -160.564 1440.34
v -22.9256 -160.43 1440.46
v -23.1117 -160.484 1441.59
v -22.9732 -160.293 1441.45
v -23.2368 -160.326 1442.7
v -23.1927 -160.015 1438.2
v -23.0462 -160.334 1438.17
v -23.1595 -159.999 1438.83
v -23.1133 -160.181 1438.9
v -23.0754 -160.234 1438.84
v -22.986 -160.076 1438.63
v -23.0993 -159.949 1439.59
v -22.9787 -160.198 1439.48
v -23.2019 -159.946 1440.55
v -22.9963 -160.034 1440.43
v -23.2365 -159.959 1441.82
v -23.1093 -160.085 1441.92
v -22.693 -160.856 1438.21
v -22.7754 -161.066 1438.55
v -22.4561 -160.737 1438.24
v -22.7328 -160.272 1438.49
v -22.3909 -161.276 1438.23
v -22.2255 -161.123 1438.13
v -22.1201 -161.023 1438.16
v -22.1181 -160.762 1438.56
v -22.2665 -160.662 1438.45
v -21.5981 -161.997 1438
v -21.8565 -161.581 1437.97
v -21.8097 -161.295 1438.02
v -21.8789 -161.007 1438.27
v -22.0254 -161.09 1438.76
v -21.3483 -161.403 1438.04
v -21.5094 -161.305 1438.46
v -21.2254 -162.082 1438.2
v -21.2265 -161.797 1437.63
v -21.128 -161.713 1437.68
v -20.1254 -162.644 1436.81
v -20.4378 -162.157 1437.26
v -20.3104 -162.189 1437.34
v -19.7254 -163.499 1436.67
v -19.6148 -163.453 1436.44
v -19.2524 -163.434 1436.23
v -19.5443 -162.879 1436.77
v -19.4754 -162.984 1437
v -18.868 -163.557 1436.57
v -18.8754 -163.504 1436.64
v -18.4754 -164.322 1437.16
v -18.8254 -163.704 1436.64
v -18.5254 -163.915 1437.38
v -18.1754 -164.731 1435.83
v -18.1754 -164.708 1436.13
v -18.0282 -164.685 1437.98
v -18.1723 -164.301 1435.76
v -18.1254 -164.376 1437.18
v -17.8453 -164.803 1437.89
v -17.8604 -164.788 1438.36
v -17.8165 -164.966 1438.35
v -17.9254 -164.527 1438.13
v -17.7519 -164.75 1438.49
v -17.9001 -164.167 1437.36
v -17.3307 -166.258 1440.31
v -17.3735 -165.538 1439.08
v -17.4977 -165.616 1439.33
v -17.3043 -165.461 1439.64
v -17.4296 -165.758 1439.82
v -17.5848 -165.114 1438.41
v -17.5254 -165.356 1438.82
v -17.6001 -165.338 1439.12
v -17.2148 -165.078 1435.59
v -17.5192 -165.117 1435.87
v -17.4358 -165.144 1435.96
v -17.4929 -165.104 1435.96
v -17.5034 -165.067 1436.01
v -17.414 -165.183 1435.83
v -17.3897 -165.204 1435.94
v -17.3864 -165.197 1435.97
v -17.4141 -165.126 1436.01
v -17.4456 -165.04 1436.05
v -17.363 -165.087 1436.08
v -17.5851 -164.877 1438.07
v -17.5174 -164.842 1438.73
v -17.3031 -165.154 1438.67
v -17.3106 -164.931 1438.53
v -17.6194 -165.064 1438.94
v -17.2641 -164.645 1435.88
v -17.5524 -164.64 1437.88
v -17.3993 -164.714 1438.39
v -16.8754 -167.754 1442.48
v -17.054 -167.527 1442.04
v -16.9681 -167.63 1441.85
v -16.9561 -166.872 1440.94
v -17.1298 -166.8 1440.85
v -17.0849 -166.631 1441.17
v -16.8488 -166.931 1441.15
v -16.9331 -166.814 1441.39
v -17.1737 -165.551 1439.74
v -17.0038 -165.914 1440.04
v -17.1376 -165.395 1435.88
v -17.0036 -165.355 1435.72
v -16.9754 -165.389 1435.82
v -16.8109 -165.446 1435.82
v -17.1585 -165.41 1436.16
v -17.1367 -165.318 1436.22
v -17.1387 -165.462 1439.24
v -17.1744 -165.261 1439.19
v -17.2254 -164.883 1436.12
v -16.9754 -164.983 1436.12
v -16.5412 -169.053 1443.42
v -16.578 -168.966 1443.33
v -16.5758 -168.98 1443.46
v -16.5279 -169.05 1443.36
v -16.5243 -169.063 1443.47
v -16.4774 -169.09 1443.42
v -16.4861 -169.023 1443.3
v -16.5655 -168.878 1443.54
v -16.5236 -169.043 1443.52
v -16.525 -168.995 1443.57
v -16.4773 -169.069 1443.52
v -16.4755 -169.035 1443.57
v -16.4754 -168.945 1443.64
v -16.6933 -168.527 1442.87
v -16.617 -168.702 1443.01
v -16.6391 -168.538 1442.83
v -16.5758 -168.662 1442.96
v -16.5725 -168.547 1442.86
v -16.6111 -168.644 1443.38
v -16.4675 -168.643 1443.07
v -16.4754 -168.845 1443.63
v -16.7883 -168.281 1442.93
v -16.5754 -168.325 1443.13
v -16.5241 -168.419 1443.18
v -16.7766 -167.887 1442.13
v -16.7018 -167.68 1442.2
v -16.7677 -165.751 1436.52
v -16.6696 -165.894 1436.51
v -16.577 -165.882 1436.31
v -16.7754 -165.493 1435.94
v -16.7254 -165.445 1435.9
v -16.6501 -165.284 1436.11
v -16.4325 -169.042 1443.35
v -16.3701 -168.991 1443.41
v -16.4266 -169.059 1443.52
v -16.4285 -168.945 1443.63
v -16.375 -168.948 1443.56
v -16.3774 -168.844 1443.45
v -16.4312 -168.824 1443.59
v -16.2098 -166.115 1437.14
v -16.2433 -165.892 1436.46
v -16.3707 -165.646 1436.81
v -15.6754 -166.591 1437.48
v -15.9102 -166.312 1437.52
v -15.7217 -166.229 1437.69
v -15.4254 -166.891 1437.94
v -15.6127 -166.546 1437.39
v -15.349 -166.621 1437.63
v -15.5954 -166.693 1437.89
v -15.3254 -166.133 1435.81
v -15.6135 -166.129 1437.27
v -14.9656 -167.316 1438.46
v -15.2153 -167.065 1438.62
v -15.048 -167.032 1438.74
v -15.1208 -166.626 1438.07
v -15.1754 -166.167 1435.51
v -14.5716 -167.955 1439.3
v -14.48 -167.856 1439.27
v -14.6059 -168.066 1439.69
v -14.6169 -168.078 1439.46
v -14.4704 -168.087 1439.87
v -14.819 -167.622 1439.38
v -14.5754 -167.704 1439.61
v -14.2099 -168.713 1440.06
v -14.0544 -168.905 1440.07
v -14.3648 -168.463 1439.79
v -14.315 -168.46 1439.74
v -14.2057 -168.431 1439.71
v -14.0615 -168.472 1439.8
v -14.422 -168.21 1439.54
v -14.3291 -168.155 1439.53
v -14.3557 -167.874 1439.44
v -14.3016 -167.899 1439.7
v -13.9161 -168.983 1440.07
v -13.9888 -168.417 1439.89
v -14.0321 -166.847 1435.55
v -13.8188 -166.92 1435.65
v -13.6946 -167.008 1435.54
v -13.9422 -166.505 1435.38
v -13.7254 -166.855 1435.76
v -14.252 -166.2 1435.62
v -13.3655 -169.888 1440.87
v -13.3156 -169.858 1440.78
v -13.5826 -169.499 1440.47
v -13.4206 -169.567 1440.52
v -13.5234 -169.608 1440.89
v -13.3754 -169.488 1440.93
v -13.6609 -169.131 1440.21
v -13.4785 -169.265 1440.38
v -13.4732 -169.156 1440.43
v -13.3259 -169.37 1440.72
v -13.4254 -167.101 1435.36
v -13.2779 -167.134 1435.54
v -13.2202 -167.192 1435.4
v -13.3754 -166.709 1435.67
v -13.2754 -166.682 1435.39
v -13.1005 -170.255 1441.37
v -13.0368 -170.287 1441.22
v -12.9877 -170.299 1441.55
v -12.9766 -170.258 1441.18
v -12.9099 -170.459 1441.46
v -12.8535 -170.458 1441.42
v -12.9844 -169.897 1441.03
v -12.9888 -169.853 1441.1
v -12.8754 -170.163 1441.17
v -13.0394 -169.804 1441.14
v -12.8793 -167.081 1435.09
v -13.1764 -166.885 1435.19
v -12.7262 -170.639 1441.81
v -12.4691 -170.807 1441.92
v -12.5058 -170.751 1442.13
v -12.6783 -170.26 1441.44
v -12.7254 -170.344 1441.77
v -12.5754 -170.337 1441.64
v -12.8254 -170.082 1441.42
v -12.6644 -167.043 1435.05
v -12.5141 -167.121 1435.45
v -12.0539 -171.151 1442.57
v -12.3794 -170.732 1441.86
v -12.2343 -170.707 1441.98
v -12.2371 -170.639 1442.14
v -12.1758 -170.682 1442.1
v -12.1393 -170.906 1442.5
v -12.146 -167.507 1434.98
v -12.3103 -167.465 1435.18
v -12.1831 -167.42 1435.26
v -12.2654 -167.22 1434.89
v -12.1041 -167.101 1434.96
v -12.1017 -167.069 1435.15
v -11.7164 -171.328 1442.74
v -11.6754 -171.101 1442.62
v -11.686 -171.044 1442.72
v -11.8186 -171.278 1442.87
v -11.9637 -167.476 1434.8
v -11.6334 -167.427 1434.62
v -11.6994 -167.309 1434.69
v -11.963 -167.178 1435.2
v -11.446 -171.572 1443.08
v -11.4509 -171.577 1443.17
v -11.4829 -171.282 1443.09
v -11.3709 -171.616 1443.15
v -11.3918 -171.512 1443
v -11.2737 -171.597 1443.16
v -11.2825 -171.574 1443.1
v -11.3889 -171.553 1443.26
v -11.4015 -171.446 1443.24
v -11.3217 -171.603 1443.25
v -11.2803 -171.515 1443.31
v -11.2787 -171.466 1443.3
v -11.283 -171.418 1443.26
v -11.4754 -167.706 1434.84
v -11.5018 -167.458 1435.03
v -11.4387 -167.266 1434.78
v -11.2469 -171.509 1443.07
v -11.1855 -171.523 1443.15
v -11.1961 -171.427 1443.09
v -11.153 -171.471 1443.19
v -11.1848 -171.411 1443.18
v -11.2159 -171.516 1443.29
v -11.2282 -171.466 1443.29
v -11.2445 -171.397 1443.22
v -11.1764 -171.521 1443.24
v -11.1635 -171.468 1443.25
v -11.1136 -167.744 1434.4
v -11.2004 -167.469 1434.44
v -10.9589 -167.693 1434.26
v -11.1754 -167.403 1434.84
v -10.5483 -167.575 1434.14
v -10.533 -167.545 1434.25
v -10.2188 -167.963 1433.78
v -10.1385 -168.067 1433.8
v -10.0754 -168.064 1434.06
v -10.4254 -167.751 1433.93
v -10.0254 -167.84 1434.15
v -9.53913 -168.25 1433.26
v -9.55664 -168.269 1433.47
v -9.62544 -167.879 1433.4
v -9.47544 -168.145 1433.11
v -9.3102 -168.073 1433.52
v -8.94302 -168.473 1432.58
v -8.87893 -168.283 1432.45
v -9.01516 -168.464 1432.91
v -8.97544 -168.501 1433.03
v -8.84373 -168.505 1432.79
v -9.25593 -168.216 1433.46
v -8.87544 -168.44 1433.2
v -8.81603 -168.179 1432.96
v -9.25778 -168.022 1433.43
v -9.08932 -168.176 1433.37
v -8.49498 -168.516 1431.84
v -8.64927 -168.597 1432.13
v -8.52544 -168.285 1432.21
v -8.6989 -168.607 1432.4
v -8.74555 -168.537 1432.82
v -8.72544 -168.507 1432.73
v -8.68139 -168.31 1432.82
v -8.67544 -168.513 1432.77
v -8.66044 -168.465 1432.72
v -8.58585 -168.423 1432.66
v -8.62544 -168.415 1432.73
v -8.57544 -168.414 1432.76
v -8.82544 -168.289 1433.22
v -8.13619 -168.803 1431.1
v -8.27119 -168.837 1431.58
v -8.33756 -168.713 1432.08
v -8.14077 -168.766 1432.64
v -8.22544 -168.889 1432.8
v -8.22544 -168.837 1432.94
v -8.30141 -168.5 1431.64
v -8.27544 -168.594 1432.17
v -7.78126 -169.174 1430.67
v -7.70045 -168.929 1430.36
v -7.91076 -169.061 1430.62
v -7.78529 -168.772 1430.8
v -7.65072 -168.882 1430.8
v -7.87669 -168.888 1431.35
v -7.93518 -168.968 1432.64
v -7.83835 -168.866 1432.6
v -8.02544 -168.703 1432.97
v -7.88108 -168.674 1431.18
v -8.01415 -168.617 1431.62
v -7.29283 -169.636 1429.33
v -7.26488 -169.626 1429.48
v -7.46742 -169.349 1429.57
v -7.31495 -169.587 1429.26
v -7.32824 -169.256 1429.53
v -7.27523 -169.218 1429.66
v -7.51023 -169.418 1429.99
v -7.43221 -169.398 1430.04
v -7.48291 -169.174 1432.56
v -7.2932 -169.412 1432.63
v -7.20512 -169.371 1432.87
v -7.48525 -169.039 1430.07
v -7.31055 -169.172 1429.89
v -7.57335 -168.929 1430.44
v -7.49281 -168.953 1432.66
v -7.00293 -169.862 1428.72
v -6.90283 -169.901 1428.55
v -6.86506 -169.847 1428.49
v -6.883 -169.771 1428.55
v -7.04816 -169.721 1428.76
v -7.01333 -169.852 1428.98
v -6.91616 -169.753 1429.1
v -6.88216 -169.904 1428.89
v -6.84355 -169.721 1429.02
v -6.85154 -169.619 1432.56
v -6.84312 -169.728 1432.71
v -7.11954 -169.567 1428.94
v -7.02247 -169.489 1429.02
v -6.92849 -169.532 1429
v -7.01132 -169.595 1429.33
v -6.99926 -169.49 1429.29
v -7.16373 -169.59 1429.52
v -7.16411 -169.427 1429.67
v -7.0196 -169.381 1432.55
v -6.97034 -169.37 1432.86
v -6.62212 -170.159 1428.25
v -6.53877 -170.149 1428.13
v -6.73202 -170.094 1428.48
v -6.62887 -170.116 1428.52
v -6.83242 -169.732 1428.56
v -6.71269 -169.899 1428.34
v -6.6131 -169.873 1428.66
v -6.58221 -170.027 1428.59
v -6.57398 -169.868 1428.35
v -6.47886 -170.036 1428.49
v -6.48066 -169.908 1428.37
v -6.80885 -169.865 1428.89
v -6.5065 -169.903 1432.61
v -6.41745 -169.68 1432.6
v -6.50819 -169.907 1432.8
v -6.54589 -169.563 1432.79
v -6.27851 -170.313 1427.91
v -6.22224 -170.369 1427.9
v -6.25918 -170.202 1427.93
v -6.17652 -170.274 1427.88
v -6.18929 -170.189 1427.93
v -6.12946 -170.367 1427.91
v -6.09241 -170.316 1427.92
v -6.12457 -170.223 1427.91
v -6.33688 -170.345 1428.18
v -6.33198 -170.247 1428.29
v -6.31472 -170.157 1428.32
v -6.29595 -170.402 1428.04
v -6.28991 -170.39 1427.98
v -6.17728 -170.43 1427.97
v -6.18357 -170.429 1428.07
v -6.18346 -170.397 1428.13
v -6.19106 -170.15 1428.17
v -6.12705 -170.415 1428.07
v -6.13605 -170.35 1428.14
v -6.08156 -170.217 1427.97
v -6.15027 -170.161 1427.98
v -6.13651 -170.156 1428.07
v -6.07418 -170.365 1427.97
v -6.06899 -170.359 1428.07
v -6.04516 -170.314 1428.02
v -6.05122 -170.31 1428.07
v -6.0853 -170.305 1428.12
v -6.05863 -170.27 1427.96
v -6.04757 -170.264 1428.02
v -6.08466 -170.255 1428.11
v -6.0791 -170.212 1428.06
v -5.82541 -170.179 1432.58
v -5.98071 -170.064 1432.88
v -4.87917 -171.012 1432.81
v -5.05483 -170.905 1432.75
v -4.92907 -170.952 1432.71
v -4.99244 -170.842 1432.65
v -5.05594 -170.909 1432.8
v -4.9416 -170.956 1432.86
v -4.95622 -170.853 1432.93
v -4.99808 -170.677 1432.91
v -4.82562 -171.017 1432.81
v -4.829 -170.985 1432.71
v -4.82647 -171.012 1432.76
v -4.87341 -170.84 1432.65
v -4.77549 -170.992 1432.76
v -4.78124 -170.918 1432.68
v -4.73493 -170.869 1432.7
v -4.84694 -170.776 1432.67
v -4.88566 -170.684 1432.74
v -4.715 -170.915 1432.76
v -4.72288 -170.817 1432.75
v -4.82769 -170.998 1432.86
v -4.86255 -170.829 1432.94
v -4.77875 -171.001 1432.81
v -4.77384 -170.981 1432.85
v -4.73577 -170.964 1432.81
v -4.78095 -170.909 1432.92
v -4.75223 -170.858 1432.9
v -4.83546 -170.768 1432.9
v -4.82929 -170.721 1432.84
v -4.72 -170.91 1432.85
v -4.70162 -170.865 1432.8
v -4.72972 -170.815 1432.85
v -24.5259 -160.206 1445.01
v -24.162 -160.079 1443.7
v -24.4254 -160.206 1445.04
v -23.8094 -159.42 1438.12
v -23.5592 -160.45 1443.35
v -23.5098 -160.417 1438.64
v -23.3102 -160.412 1438.83
v -23.3102 -160.412 1438.83
v -23.2606 -160.459 1438.76
v -23.4493 -160.388 1440.45
v -23.5159 -160.217 1441.03
v -23.603 -160.329 1443.77
v -23.5036 -160.101 1437.97
v -23.4308 -159.963 1437.98
v -23.4308 -159.963 1437.98
v -23.4591 -160.109 1440.35
v -23.3683 -160 1440.4
v -23.4163 -159.727 1438.73
v -23.5466 -159.533 1437.83
v -23.1754 -160.342 1438.91
v -23.1754 -160.342 1438.91
v -23.1531 -160.333 1438.86
v -23.1531 -160.333 1438.86
v -23.1531 -160.333 1438.86
v -23.1531 -160.333 1438.86
v -23.0919 -160.474 1439.49
v -22.9256 -160.43 1440.46
v -22.9256 -160.43 1440.46
v -22.9732 -160.293 1441.45
v -23.2368 -160.326 1442.7
v -23.1927 -160.015 1438.2
v -23.0462 -160.334 1438.17
v -23.1133 -160.181 1438.9
v -23.1133 -160.181 1438.9
v -23.0754 -160.234 1438.84
v -23.0754 -160.234 1438.84
v -22.986 -160.076 1438.63
v -23.0993 -159.949 1439.59
v -22.9787 -160.198 1439.48
v -22.693 -160.856 1438.21
v -22.693 -160.856 1438.21
v -22.7754 -161.066 1438.55
v -22.7754 -161.066 1438.55
v -22.1181 -160.762 1438.56
v -21.5981 -161.997 1438
v -22.0254 -161.09 1438.76
v -22.0254 -161.09 1438.76
v -22.0254 -161.09 1438.76
v -21.5094 -161.305 1438.46
v -21.5094 -161.305 1438.46
v -21.2254 -162.082 1438.2
v -21.2254 -162.082 1438.2
v -19.7254 -163.499 1436.67
v -19.7254 -163.499 1436.67
v -19.7254 -163.499 1436.67
v -19.7254 -163.499 1436.67
v -19.7254 -163.499 1436.67
v -19.7254 -163.499 1436.67
v -19.6148 -163.453 1436.44
v -19.2524 -163.434 1436.23
v -19.4754 -162.984 1437
v -19.4754 -162.984 1437
v -19.4754 -162.984 1437
v -19.4754 -162.984 1437
v -18.868 -163.557 1436.57
v -18.868 -163.557 1436.57
v -18.8754 -163.504 1436.64
v -18.8754 -163.504 1436.64
v -18.4754 -164.322 1437.16
v -18.4754 -164.322 1437.16
v -18.8254 -163.704 1436.64
v -18.8254 -163.704 1436.64
v -18.8254 -163.704 1436.64
v -18.8254 -163.704 1436.64
v -18.5254 -163.915 1437.38
v -18.5254 -163.915 1437.38
v -18.5254 -163.915 1437.38
v -18.1754 -164.731 1435.83
v -18.1754 -164.731 1435.83
v -18.1754 -164.731 1435.83
v -18.0282 -164.685 1437.98
v -18.1723 -164.301 1435.76
v -18.1723 -164.301 1435.76
v -17.8453 -164.803 1437.89
v -17.8165 -164.966 1438.35
v -17.9254 -164.527 1438.13
v -17.9254 -164.527 1438.13
v -17.9001 -164.167 1437.36
v -17.9001 -164.167 1437.36
v -17.9001 -164.167 1437.36
v -17.9001 -164.167 1437.36
v -17.4977 -165.616 1439.33
v -17.4296 -165.758 1439.82
v -17.6001 -165.338 1439.12
v -17.6001 -165.338 1439.12
v -17.2148 -165.078 1435.59
v -17.2148 -165.078 1435.59
v -17.4358 -165.144 1435.96
v -17.4929 -165.104 1435.96
v -17.3897 -165.204 1435.94
v -17.3897 -165.204 1435.94
v -17.3897 -165.204 1435.94
v -17.2641 -164.645 1435.88
v -17.3993 -164.714 1438.39
v -17.3993 -164.714 1438.39
v -16.8754 -167.754 1442.48
v -16.8754 -167.754 1442.48
v -17.054 -167.527 1442.04
v -16.9681 -167.63 1441.85
v -17.0849 -166.631 1441.17
v -16.9331 -166.814 1441.39
v -17.0038 -165.914 1440.04
v -17.1376 -165.395 1435.88
v -17.0036 -165.355 1435.72
v -16.9754 -165.389 1435.82
v -17.1585 -165.41 1436.16
v -17.1367 -165.318 1436.22
v -17.1744 -165.261 1439.19
v -17.2254 -164.883 1436.12
v -17.2254 -164.883 1436.12
v -16.9754 -164.983 1436.12
v -16.9754 -164.983 1436.12
v -16.9754 -164.983 1436.12
v -16.9754 -164.983 1436.12
v -16.9754 -164.983 1436.12
v -16.9754 -164.983 1436.12
v -16.5243 -169.063 1443.47
v -16.4774 -169.09 1443.42
v -16.5236 -169.043 1443.52
v -16.525 -168.995 1443.57
v -16.4755 -169.035 1443.57
v -16.4754 -168.945 1443.64
v -16.4754 -168.945 1443.64
v -16.4754 -168.945 1443.64
v -16.6933 -168.527 1442.87
v -16.4754 -168.845 1443.63
v -16.4754 -168.845 1443.63
v -16.7883 -168.281 1442.93
v -16.5754 -168.325 1443.13
v -16.7766 -167.887 1442.13
v -16.7677 -165.751 1436.52
v -16.7677 -165.751 1436.52
v -16.7754 -165.493 1435.94
v -16.7754 -165.493 1435.94
v -16.7254 -165.445 1435.9
v -16.7254 -165.445 1435.9
v -16.6501 -165.284 1436.11
v -16.6501 -165.284 1436.11
v -16.6501 -165.284 1436.11
v -16.6501 -165.284 1436.11
v -16.4325 -169.042 1443.35
v -16.3701 -168.991 1443.41
v -16.3701 -168.991 1443.41
v -16.4285 -168.945 1443.63
v -16.375 -168.948 1443.56
v -16.2098 -166.115 1437.14
v -16.2433 -165.892 1436.46
v -16.3707 -165.646 1436.81
v -15.6754 -166.591 1437.48
v -15.9102 -166.312 1437.52
v -15.7217 -166.229 1437.69
v -15.7217 -166.229 1437.69
v -15.4254 -166.891 1437.94
v -15.6127 -166.546 1437.39
v -15.3254 -166.133 1435.81
v -15.6135 -166.129 1437.27
v -15.2153 -167.065 1438.62
v -15.048 -167.032 1438.74
v -15.1208 -166.626 1438.07
v -15.1754 -166.167 1435.51
v -14.3016 -167.899 1439.7
v -13.9422 -166.505 1435.38
v -13.9422 -166.505 1435.38
v -14.252 -166.2 1435.62
v -13.5234 -169.608 1440.89
v -13.3259 -169.37 1440.72
v -13.4254 -167.101 1435.36
v -13.2754 -166.682 1435.39
v -12.9877 -170.299 1441.55
v -12.7262 -170.639 1441.81
v -12.4691 -170.807 1441.92
v -12.5058 -170.751 1442.13
v -12.6783 -170.26 1441.44
v -12.8254 -170.082 1441.42
v -12.8254 -170.082 1441.42
v -12.0539 -171.151 1442.57
v -12.2343 -170.707 1441.98
v -12.1041 -167.101 1434.96
v -11.6754 -171.101 1442.62
v -11.3709 -171.616 1443.15
v -11.2803 -171.515 1443.31
v -11.4754 -167.706 1434.84
v -11.1961 -171.427 1443.09
v -11.153 -171.471 1443.19
v -11.2159 -171.516 1443.29
v -11.1635 -171.468 1443.25
v -11.2004 -167.469 1434.44
v -10.9589 -167.693 1434.26
v -11.1754 -167.403 1434.84
v -10.1385 -168.067 1433.8
v -10.0754 -168.064 1434.06
v -10.0754 -168.064 1434.06
v -10.4254 -167.751 1433.93
v -10.0254 -167.84 1434.15
v -9.55664 -168.269 1433.47
v -9.55664 -168.269 1433.47
v -9.62544 -167.879 1433.4
v -9.47544 -168.145 1433.11
v -9.3102 -168.073 1433.52
v -8.87893 -168.283 1432.45
v -8.87893 -168.283 1432.45
v -8.97544 -168.501 1433.03
v -8.87544 -168.44 1433.2
v -8.81603 -168.179 1432.96
v -8.49498 -168.516 1431.84
v -8.64927 -168.597 1432.13
v -8.72544 -168.507 1432.73
v -8.72544 -168.507 1432.73
v -8.68139 -168.31 1432.82
v -8.68139 -168.31 1432.82
v -8.67544 -168.513 1432.77
v -8.67544 -168.513 1432.77
v -8.67544 -168.513 1432.77
v -8.67544 -168.513 1432.77
v -8.67544 -168.513 1432.77
v -8.66044 -168.465 1432.72
v -8.66044 -168.465 1432.72
v -8.62544 -168.415 1432.73
v -8.62544 -168.415 1432.73
v -8.62544 -168.415 1432.73
v -8.62544 -168.415 1432.73
v -8.57544 -168.414 1432.76
v -8.57544 -168.414 1432.76
v -8.82544 -168.289 1433.22
v -8.13619 -168.803 1431.1
v -8.13619 -168.803 1431.1
v -8.27119 -168.837 1431.58
v -8.22544 -168.889 1432.8
v -8.22544 -168.837 1432.94
v -8.22544 -168.837 1432.94
v -8.27544 -168.594 1432.17
v -7.65072 -168.882 1430.8
v -7.87669 -168.888 1431.35
v -8.02544 -168.703 1432.97
v -8.02544 -168.703 1432.97
v -7.20512 -169.371 1432.87
v -7.20512 -169.371 1432.87
v -7.49281 -168.953 1432.66
v -6.84312 -169.728 1432.71
v -6.99926 -169.49 1429.29
v -7.16411 -169.427 1429.67
v -6.97034 -169.37 1432.86
v -6.48066 -169.908 1428.37
v -6.54589 -169.563 1432.79
v -6.27851 -170.313 1427.91
v -6.22224 -170.369 1427.9
v -6.12946 -170.367 1427.91
v -5.98071 -170.064 1432.88
v -4.829 -170.985 1432.71
v -4.829 -170.985 1432.71
v -4.87341 -170.84 1432.65
v -4.78124 -170.918 1432.68
v -4.78124 -170.918 1432.68
v -4.73493 -170.869 1432.7
v -4.73493 -170.869 1432.7
v -4.715 -170.915 1432.76
v -4.72288 -170.817 1432.75
v -4.78095 -170.909 1432.92
v -4.75223 -170.858 1432.9
v -4.82929 -170.721 1432.84
v -4.70162 -170.865 1432.8
v -4.70162 -170.865 1432.8
v -4.72972 -170.815 1432.85
vn -0.418831 -0.869057 0.263288
vn -0.273054 -0.96103 -0.043168
vn -0.968475 -0.211362 -0.131842
vn -0.939331 0.106508 -0.326056
vn -0.964853 0.244479 0.096373
vn -0.790745 -0.569744 -0.223861
vn -0.710317 -0.410042 0.572114
vn -0.871595 -0.315724 -0.375022
vn -0.937588 -0.265272 0.224856
vn -0.746484 0.255995 0.61419
vn -0.853199 0.311629 -0.418256
vn -0.809356 0.539102 -0.233051
vn -0.653006 0.726022 0.215581
vn -0.747907 -0.661167 0.0591103
vn -0.551021 -0.819637 -0.156752
vn -0.351443 0.398445 0.847189
vn -0.308654 -0.495618 0.811847
vn -0.132113 0.720468 0.680788
vn -0.520223 0.829868 -0.201709
vn -0.234384 0.964049 0.125193
vn -0.996983 0.0383814 0.0674662
vn -0.0155713 -0.980938 0.193697
vn 0.00422221 -0.838594 0.54474
vn 0.353216 -0.868526 0.347708
vn 0.613795 -0.709057 0.347124
vn -0.910033 0.174437 -0.376047
vn -0.883103 -0.305983 -0.355672
vn -0.895284 0.00535209 -0.445464
vn -0.788804 -0.488235 -0.373384
vn -0.742846 0.540914 -0.394452
vn -0.256273 -0.212776 0.942895
vn 0.0880854 -0.153492 0.984216
vn 0.147186 -0.515996 0.843851
vn 0.418061 -0.654216 0.630259
vn 0.499406 -0.228424 0.835713
vn 0.388587 0.363854 0.846528
vn 0.450324 0.783883 0.427476
vn 0.694274 -0.486905 0.530006
vn 0.757042 0.00463971 0.65335
vn 0.729147 0.431563 0.531129
vn -0.705981 -0.702436 -0.0904109
vn -0.54498 0.781412 -0.303962
vn 0.159253 0.964584 0.210277
vn -0.973148 -0.129846 0.190062
vn -0.101226 -0.658685 -0.745579
vn -0.67395 -0.633773 -0.379635
vn -0.264029 0.731604 0.628526
vn -0.633246 0.555115 0.539301
vn -0.835924 -0.37325 -0.402388
vn -0.640887 0.481344 0.597974
vn -0.411172 -0.452733 -0.791183
vn 0.118251 0.562614 0.818219
vn -0.54421 -0.17992 -0.819429
vn -0.907743 -0.0482366 -0.416745
vn -0.893524 0.335973 0.297887
vn -0.957081 0.275111 -0.0911588
vn -0.839989 0.162793 -0.517606
vn -0.750685 0.49434 0.438293
vn -0.88979 0.455855 -0.0216799
vn -0.747413 0.57423 -0.334117
vn 0.157203 -0.981312 0.110969
vn -0.94831 -0.250572 -0.194736
vn -0.764587 -0.602541 -0.228804
vn -0.954516 0.0465122 -0.29451
vn -0.551936 -0.802634 -0.226151
vn 0.887909 -0.063218 0.455655
vn 0.740011 0.575676 0.347824
vn 0.444243 -0.652402 -0.61402
vn -0.254001 -0.785536 -0.564284
vn 0.163047 -0.759439 -0.629816
vn -0.921153 -0.324273 0.215229
vn -0.898148 0.262177 0.352977
vn -0.650993 0.736379 -0.184269
vn -0.24804 0.961872 -0.115228
vn -0.0569661 -0.821544 -0.567291
vn -0.525517 0.734655 0.429084
vn -0.151525 0.923238 0.353088
vn 0.628968 -0.498233 -0.596794
vn 0.753063 0.586898 0.2974
vn 0.247126 0.795228 0.553662
vn -0.187013 0.841542 0.506787
vn 0.902829 -0.277509 -0.328464
vn 0.991296 0.0130709 -0.131001
vn 0.939926 0.279043 0.196657
vn -0.0540874 0.734255 0.676715
vn 0.566717 0.616538 0.546546
vn 0.401122 -0.560896 -0.724221
vn 0.991078 -0.0115068 0.132784
vn 0.967183 -0.245973 0.0636701
vn 0.732801 0.324703 0.597972
vn -0.0621945 -0.435813 -0.897886
vn 0.256567 -0.493114 -0.831271
vn 0.834792 -0.460675 -0.301498
vn 0.852882 0.0159065 0.521862
vn -0.231116 -0.171112 -0.957761
vn -0.283881 0.490347 0.823997
vn 0.443455 0.258453 0.858225
vn -0.509658 0.213429 -0.833485
vn -0.39492 0.709897 -0.583168
vn 0.0106584 0.110536 -0.993815
vn -0.02324 0.535615 -0.844143
vn 0.087169 0.895932 -0.435554
vn -0.609416 0.751347 0.253157
vn -0.00697681 0.871708 0.489975
vn -0.331604 0.637581 0.695363
vn -0.287114 0.954871 -0.0760754
vn -0.201977 -0.978248 -0.0472923
vn 0.649608 -0.722043 0.238041
vn -0.503954 -0.76951 -0.392281
vn -0.358028 -0.93286 -0.0398505
vn -0.321119 -0.878688 0.353256
vn -0.334659 -0.67455 0.658016
vn -0.690228 -0.720161 0.070375
vn -0.982358 -0.185305 0.0252177
vn -0.974708 -0.202399 -0.094758
vn -0.790188 -0.608013 -0.0769616
vn -0.475347 -0.877098 -0.0688784
vn 0.658088 -0.689899 0.301596
vn 0.885354 0.334479 0.322912
vn 0.0572174 -0.552324 -0.831663
vn 0.284586 -0.387278 -0.876941
vn 0.673906 -0.430888 -0.600155
vn -0.599627 0.737843 0.309896
vn 0.072018 0.993073 0.0928414
vn -0.97761 -0.0784476 0.195253
vn -0.855452 0.465015 0.227955
vn -0.541929 0.821485 0.177414
vn -0.995989 0.05073 0.0737053
vn -0.337458 0.938954 0.066994
vn -0.675626 0.73471 -0.0610813
vn -0.859459 0.477656 -0.182141
vn -0.480088 0.871908 -0.0963965
vn -0.076415 0.997002 -0.0121328
vn 0.466035 0.868417 0.169305
vn 0.913049 0.114198 -0.391537
vn 0.765302 0.268528 -0.584983
vn 0.878467 0.347845 -0.327566
vn 0.725292 0.685002 -0.0687311
vn -0.288464 0.891797 0.34855
vn 0.15235 0.959053 0.238759
vn -0.019679 0.977724 0.208968
vn 0.974221 0.136177 -0.179858
vn 0.904454 0.418553 -0.0823204
vn 0.924197 -0.369361 0.097124
vn 0.882832 -0.206997 0.421615
vn 0.164009 -0.305586 -0.937933
vn 0.467362 -0.4162 -0.779968
vn 0.740126 -0.454271 -0.495834
vn 0.673081 -0.209413 -0.709301
vn 0.935083 -0.338423 -0.10531
vn 0.937622 -0.163578 0.306769
vn 0.708533 -0.0253703 0.705222
vn 0.417656 -0.0331483 -0.908001
vn 0.384405 0.374124 -0.843957
vn 0.372106 0.679667 -0.632131
vn 0.668803 0.474861 -0.572023
vn 0.709769 0.164271 -0.685013
vn 0.909884 -0.0939747 -0.404079
vn 0.302577 0.951196 0.0606065
vn 0.540609 0.635408 0.551361
vn 0.554758 0.770113 -0.314911
vn 0.712647 0.699858 0.0482996
vn 0.883319 0.379189 -0.275615
vn 0.894289 0.335073 0.296604
vn 0.998295 0.0561969 -0.0157802
vn 0.200754 0.468083 0.860579
vn 0.715176 0.081846 0.694136
vn -0.0419457 -0.405574 -0.913099
vn 0.506799 -0.854448 -0.114334
vn 0.258139 -0.715184 0.64952
vn 0.33436 -0.931575 -0.142728
vn -0.111128 -0.993728 -0.0124889
vn 0.631828 -0.774308 0.0352266
vn 0.453685 -0.88642 0.0918138
vn 0.848184 -0.510687 0.140652
vn 0.754303 -0.625031 0.200908
vn 0.653722 0.36199 -0.664538
vn 0.218851 -0.0652009 -0.973578
vn 0.875928 0.466936 0.121333
vn 0.782837 -0.347077 0.516434
vn 0.153514 0.0978018 0.983295
vn 0.659628 0.751386 -0.0175836
vn 0.338887 0.937329 0.081056
vn 0.908776 -0.376763 -0.179376
vn -0.0737839 0.99727 0.00305019
vn 0.767767 0.640096 0.0284649
vn 0.437544 0.89594 0.0764648
vn 0.832835 0.524992 0.175415
vn -0.47546 -0.609078 -0.634793
vn -0.315552 -0.603391 0.732357
vn 0.22438 0.432082 -0.873475
vn 0.618146 0.711659 -0.33382
vn -0.575628 -0.398659 -0.713949
vn -0.188052 0.131643 -0.973297
vn 0.129047 0.492945 -0.860437
vn 0.611534 0.785042 -0.0986629
vn 0.534517 0.720796 -0.4413
vn -0.686719 -0.510346 -0.517652
vn -0.501552 -0.0222238 -0.864842
vn -0.078984 0.465313 -0.881615
vn 0.369169 0.74932 -0.549758
vn 0.153514 0.0978018 0.983295
vn 0.480667 0.834878 -0.268213
vn 0.579447 0.540304 0.610175
vn -0.355881 -0.761723 0.541412
vn -0.238599 0.453353 -0.858803
vn 0.0659902 0.701514 -0.709594
vn -0.155194 0.519302 -0.840381
vn 0.258453 0.7953 -0.548361
vn 0.609372 0.790451 -0.0620701
vn -0.394767 -0.83404 0.385404
vn -0.719164 -0.524011 -0.456306
vn -0.494516 -0.0684215 -0.866472
vn 0.528475 0.784198 -0.325189
vn 0.533415 -0.0862263 0.841447
vn 0.538047 0.749494 -0.3857
vn 0.599502 0.715285 -0.359116
vn -0.12149 -0.752389 -0.647419
vn -0.1247 -0.682604 -0.72007
vn -0.726305 -0.263471 0.634873
vn -0.692162 -0.568924 -0.444114
vn -0.352768 -0.761313 0.544019
vn -0.889101 -0.105024 0.445499
vn -0.392447 -0.150238 -0.907421
vn 0.34308 -0.591239 -0.729885
vn 0.0696044 -0.840162 -0.53785
vn -0.895975 0.109431 0.430412
vn -0.554519 -0.787931 -0.267719
vn 0.0410679 0.846643 0.530574
vn -0.574974 0.568635 0.588269
vn 0.616813 0.78711 -0.000269251
vn -0.921552 -0.372609 -0.10911
vn -0.00382429 -0.832757 -0.553626
vn -0.407137 -0.800621 -0.439596
vn -0.320639 0.730597 0.602843
vn -0.975441 0.0279303 0.218482
vn -0.165997 -0.863329 -0.476559
vn -0.529737 -0.774927 -0.34477
vn -0.957872 -0.244208 0.151139
vn -0.291461 -0.157074 -0.943599
vn -0.532769 -0.836044 0.131101
vn -0.285787 -0.448375 0.846927
vn -0.488201 -0.778937 0.393596
vn -0.363476 -0.693425 0.62213
vn -0.546059 -0.798793 -0.252486
vn -0.678343 -0.719334 0.149696
vn -0.747349 -0.575808 0.331533
vn -0.614427 -0.533739 0.581035
vn -0.300196 -0.421384 0.855756
vn -0.50688 -0.166853 0.845715
vn 0.364238 -0.724067 -0.585711
vn 0.081184 0.849637 0.521081
vn 0.703252 -0.490942 -0.514211
vn 0.966186 0.0578801 -0.251264
vn -0.758194 0.407515 0.508993
vn 0.448197 0.72712 0.520016
vn 0.844539 -0.17 -0.507794
vn 0.166331 0.846383 0.505934
vn -0.699082 0.426474 0.573937
vn -0.934402 -0.348105 -0.0756068
vn -0.558867 -0.684733 -0.46777
vn 0.464769 -0.662291 -0.587674
vn -0.367272 -0.764119 -0.530315
vn -0.689827 0.506463 0.517334
vn 0.902486 -0.264027 -0.340306
vn 0.694403 0.595393 0.404119
vn 0.375459 0.781006 0.499059
vn 0.746363 0.577557 0.33071
vn -0.503863 -0.748188 -0.431668
vn -0.43073 -0.620822 -0.655021
vn -0.125472 -0.887892 -0.442612
vn -0.371019 -0.919742 0.128136
vn -0.771298 -0.413455 0.483895
vn -0.628186 -0.0278181 0.777566
vn 0.935307 -0.17063 -0.309979
vn 0.526357 0.751196 0.398312
vn -0.194644 -0.24369 0.95012
vn 0.0779947 0.249589 0.965206
vn -0.744871 -0.665598 -0.0463385
vn -0.85413 -0.480481 -0.198997
vn -0.917641 -0.350873 0.186611
vn -0.543666 -0.748588 -0.379531
vn -0.432315 -0.882072 0.187224
vn -0.193273 -0.973121 -0.125222
vn 0.0406341 -0.761413 -0.646992
vn -0.856967 0.0113107 0.515248
vn -0.857359 -0.438451 0.269623
vn -0.863774 -0.23151 0.447546
vn -0.173399 -0.907129 0.38347
vn -0.437294 -0.665257 0.60515
vn -0.405892 -0.566322 0.717308
vn -0.919946 -0.38177 -0.0891694
vn -0.445313 -0.690476 -0.570035
vn -0.104128 -0.734818 -0.670224
vn 0.0601816 -0.688967 -0.72229
vn 0.47532 -0.554798 -0.68284
vn -0.657654 0.409006 0.632619
vn 0.887255 -0.182387 -0.42369
vn -0.640673 0.32459 0.69583
vn -0.971957 -0.20382 0.117292
vn 0.557058 0.676808 0.481267
vn 0.806885 0.515067 0.28921
vn 0.0347085 -0.745594 -0.665496
vn 0.940787 0.328136 0.0851241
vn -0.479372 -0.833693 -0.27415
vn -0.703531 -0.703434 0.101118
vn -0.0778757 -0.820193 -0.566761
vn 0.0456413 -0.726138 -0.686032
vn 0.075765 -0.697104 -0.712956
vn 0.76978 0.161756 -0.617474
vn 0.594508 -0.540388 -0.595434
vn 0.795993 -0.604371 0.0336212
vn 0.571856 -0.763483 0.300123
vn 0.443497 -0.595253 0.670063
vn 0.785516 -0.500526 0.363919
vn 0.968639 0.241095 0.0600952
vn 0.720827 0.447462 0.529326
vn -0.738645 0.089419 0.668138
vn 0.777557 0.0978234 -0.621156
vn -0.55294 0.290271 0.781025
vn -0.20546 -0.890246 -0.406508
vn -0.70863 0.155627 0.688203
vn -0.752366 0.123214 0.647119
vn -0.703549 -0.697013 -0.138535
vn 0.194158 -0.747499 -0.635254
vn 0.733312 -0.251409 -0.631702
vn -0.895646 -0.362063 0.258319
vn -0.398564 -0.85064 0.342867
vn 0.829103 0.111606 -0.547844
vn 0.325383 -0.666781 -0.670469
vn -0.895051 -0.0415969 0.444019
vn -0.556106 0.4774 0.68032
vn 0.34914 0.839449 0.416445
vn -0.218501 -0.306949 -0.926304
vn 0.156085 -0.679131 -0.71723
vn 0.594704 -0.418393 -0.686494
vn -0.889425 -0.264391 0.372855
vn -0.5132 -0.762169 -0.394618
vn -0.590974 0.233037 0.772298
vn -0.753782 0.213588 0.621445
vn -0.0488457 0.69173 0.720502
vn -0.839823 -0.540942 0.0455929
vn -0.58815 -0.698506 -0.407639
vn -0.650332 -0.684919 -0.328565
vn -0.270544 -0.677593 -0.683867
vn 0.186569 -0.477949 -0.858345
vn 0.618863 -0.138007 -0.773281
vn 0.00951 -0.631853 -0.77503
vn 0.427253 -0.406027 -0.807835
vn 0.856143 0.0532204 -0.513992
vn 0.403782 0.734371 0.545581
vn -0.084895 -0.613866 -0.784832
vn 0.859052 0.256299 -0.443103
vn -0.460439 -0.886791 -0.0399752
vn -0.320388 -0.830869 0.454982
vn -0.363827 -0.922012 0.132374
vn 0.0551758 0.273535 -0.960278
vn -0.0273166 -0.432442 0.901248
vn 0.309111 0.767739 -0.561273
vn -0.702487 -0.684665 -0.194283
vn -0.17952 -0.740471 -0.64767
vn -0.29892 -0.720089 -0.626193
vn 0.285836 -0.504419 -0.814776
vn -0.873273 -0.325028 0.362975
vn 0.0537481 0.64822 0.759554
vn 0.413003 -0.327873 -0.849663
vn 0.754118 -0.00328189 -0.656731
vn 0.879467 0.403245 -0.252847
vn 0.806867 0.589024 0.0448949
vn -0.409958 -0.865894 -0.286639
vn -0.119423 -0.796846 0.592263
vn -0.313249 -0.949063 0.033983
vn 0.411796 0.645569 0.643168
vn 0.126163 0.714031 -0.688653
vn -0.827441 -0.544258 0.138292
vn -0.414744 -0.800892 -0.431925
vn -0.843975 -0.264113 0.466853
vn 0.184568 -0.656287 -0.731588
vn -0.521286 -0.821178 -0.232222
vn -0.0552155 -0.815012 -0.576807
vn 0.871613 0.224384 -0.435824
vn 0.818421 0.574141 -0.0234292
vn 0.685154 -0.192765 -0.702428
vn 0.605822 0.734502 0.305756
vn -0.269716 0.0645191 -0.960776
vn -0.018942 0.528771 -0.848553
vn -0.578758 -0.809472 -0.0989636
vn -0.403396 -0.881155 -0.246653
vn -0.811206 -0.401169 0.425451
vn 0.789107 0.602947 -0.11732
vn -0.0250007 0.8076 0.589201
vn 0.585324 0.799966 0.1321
vn 0.709033 0.697332 0.104886
vn -0.162508 0.374242 -0.912981
vn 0.282239 -0.113982 0.952549
vn -0.409079 -0.883312 -0.22894
vn 0.418488 -0.554203 -0.719533
vn 0.826074 0.29379 -0.480926
vn 0.441703 0.872402 0.209315
vn 0.752457 0.625492 -0.206319
vn -0.519478 0.390236 0.76017
vn -0.36592 -0.890041 -0.271899
vn -0.189016 -0.94428 0.269459
vn 0.115389 -0.619662 0.776341
vn -0.290882 0.243212 -0.92533
vn -0.120728 0.584163 -0.802607
vn 0.361207 0.912848 0.190361
vn 0.0901848 -0.776277 -0.623907
vn 0.517688 -0.378455 -0.767314
vn 0.508308 0.853282 0.116331
vn -0.741091 -0.132916 0.658117
vn -0.436467 -0.412104 -0.799792
vn -0.398818 0.130093 -0.907755
vn -0.250423 0.483807 -0.838582
vn 0.452472 0.486575 0.747338
vn -0.186415 -0.895813 -0.403446
vn -0.584587 -0.757468 0.290689
vn -0.101312 0.74488 0.659462
vn 0.15186 -0.938896 -0.308891
vn 0.256854 -0.640384 -0.723833
vn 0.436963 -0.891085 -0.122599
vn 0.324285 -0.766729 -0.554045
vn -0.540787 -0.272407 0.795829
vn -0.435469 0.3603 0.824955
vn 0.0448144 -0.860257 0.507888
vn -0.155358 0.183488 0.970668
vn -0.162961 0.439998 0.883089
vn -0.0586531 0.679952 0.730907
vn 0.167446 -0.684998 0.709041
vn 0.391052 -0.224941 0.892457
vn 0.199861 0.964327 -0.173579
vn 0.561594 -0.416534 -0.714921
vn 0.758258 -0.530662 -0.378739
vn 0.777855 0.580242 -0.241373
vn 0.944353 -0.309632 -0.111022
vn 0.724733 0.683107 0.0901441
vn 0.319005 -0.710422 0.627325
vn 0.271072 0.446112 0.852938
vn 0.302185 0.80398 0.512152
vn 0.757656 -0.606122 0.242019
vn 0.815409 -0.109524 0.568429
vn -0.507941 -0.527265 -0.681166
vn -0.365107 0.335429 -0.868438
vn -0.572661 -0.435307 -0.694671
vn 0.444922 0.830829 0.334316
vn -0.102443 0.840095 -0.532678
vn 0.362458 0.928368 0.082202
vn -0.643793 -0.359406 -0.675543
vn -0.344437 -0.935992 -0.0726837
vn 0.384689 -0.47404 0.792023
vn -0.580477 0.0164144 -0.814111
vn 0.513539 -0.245563 0.822178
vn -0.569723 -0.764706 -0.301064
vn -0.375315 -0.925334 -0.0538066
vn -0.46244 0.558064 -0.688995
vn -0.528507 0.472278 -0.705431
vn 0.578496 -0.128422 0.805512
vn -0.779127 -0.413478 -0.471167
vn -0.461127 0.663088 -0.58964
vn -0.298852 -0.953982 -0.0245976
vn -0.437537 -0.870195 -0.226546
vn -0.0700703 -0.996918 0.0352827
vn 0.436277 -0.376055 0.817463
vn 0.228151 -0.383904 0.894743
vn 0.594288 0.768093 0.238444
vn 0.574925 0.697415 0.427872
vn 0.565646 0.147919 0.811274
vn -0.866795 -0.0653458 -0.494365
vn -0.669094 -0.720118 -0.183691
vn 0.122518 0.960593 -0.2495
vn -0.368301 -0.92945 0.0218159
vn -0.384469 -0.76913 -0.510512
vn 0.341475 -0.817057 0.464557
vn 0.79801 0.541555 0.264384
vn -0.082602 -0.950687 -0.29895
vn 0.610309 -0.593656 0.524495
vn 0.813402 -0.23206 0.533409
vn 0.696461 -0.562827 0.44516
vn 0.280175 0.683264 -0.674279
vn 0.426466 -0.0485331 0.903201
vn -0.887692 -0.345418 -0.304449
vn -0.350308 -0.928256 0.124999
vn 0.213047 -0.892384 0.397822
vn -0.249733 -0.137721 -0.958471
vn -0.422465 -0.855146 0.300416
vn -0.389529 -0.848724 0.35768
vn -0.56035 0.65199 -0.510799
vn 0.68149 -0.466756 0.563659
vn -0.233896 -0.944769 0.229575
vn -0.284731 0.851844 -0.439647
vn -0.862154 -0.462269 -0.20736
vn 0.224795 0.945595 -0.235197
vn 0.921547 0.0540832 0.384481
vn 0.401527 -0.796576 0.451932
vn -0.409348 -0.514567 -0.753429
vn 0.129933 0.41502 -0.900486
vn 0.50403 0.771681 0.387893
vn 0.59863 0.800991 0.00745579
vn 0.840838 0.461412 0.283002
vn -0.614477 -0.788271 0.0323656
vn -0.135734 -0.932853 0.33371
vn -0.808205 0.312637 -0.499062
vn -0.899118 -0.290019 -0.327835
vn -0.202957 0.863092 -0.462472
vn 0.395019 0.895887 -0.203336
vn -0.214374 -0.940272 0.264449
vn 0.275995 -0.852479 0.443967
vn -0.19697 -0.207163 -0.958273
vn -0.444297 -0.665191 -0.6001
vn -0.401161 -0.685732 0.607323
vn 0.188687 0.939794 -0.284929
vn 0.727698 0.684826 0.0383152
vn 0.572128 0.817706 -0.0634571
vn 0.33456 0.670351 -0.662343
vn -0.834124 -0.469338 -0.289757
vn -0.83435 -0.286594 -0.470876
vn -0.721155 0.174787 -0.670361
vn -0.539517 0.517479 -0.664182
vn -0.827208 0.110485 -0.550927
vn -0.285846 -0.912822 0.29163
vn 0.623116 -0.517217 0.586697
vn 0.229206 -0.802114 0.551432
vn 0.781323 -0.224982 0.582166
vn -0.212745 -0.345002 -0.914174
vn -0.533747 -0.841375 0.0848682
vn -0.502458 0.636756 -0.584874
vn 0.0894476 0.910782 -0.403083
vn 0.556951 0.823424 -0.108532
vn 0.813504 -0.248057 0.526002
vn 0.777062 0.621127 0.101862
vn 0.49919 -0.674082 0.544448
vn 0.640845 -0.568538 0.515832
vn 0.139905 0.247589 -0.958711
vn 0.0276506 -0.027603 0.999236
vn -0.747186 -0.582022 -0.320879
vn -0.716235 -0.065255 -0.694802
vn -0.569497 -0.82066 0.0468037
vn 0.0211651 -0.840595 0.541251
vn -0.199615 0.782997 -0.589126
vn -0.408871 0.537012 -0.737863
vn 0.845726 0.0475316 0.531496
vn 0.563195 -0.426869 0.707526
vn 0.136337 0.867101 -0.479113
vn 0.778232 0.137931 0.612642
vn 0.519872 0.844994 -0.125371
vn 0.511461 -0.579769 0.634252
vn -0.420589 -0.676784 -0.604209
vn 0.456781 0.661185 -0.595135
vn -0.421733 -0.600686 0.679203
vn 0.548004 0.834185 0.0618597
vn -0.657366 -0.462749 -0.594755
vn -0.284344 -0.726668 -0.625382
vn -0.304147 0.474968 -0.825772
vn 0.0498415 0.125286 -0.990868
vn 0.0464405 0.680653 -0.731132
vn 0.439933 -0.677441 -0.589519
vn 0.645684 -0.0876214 -0.758561
vn 0.483079 0.473737 -0.736347
vn -0.159607 -0.868815 0.468706
vn 0.296028 -0.587928 0.7528
vn 0.660961 -0.0473857 0.748923
vn -0.438496 -0.898682 0.00955578
vn -0.587263 -0.672134 -0.450953
vn 0.0720828 -0.951664 -0.298562
vn -0.0284712 -0.959678 0.279657
vn 0.172907 -0.753687 0.634082
vn 0.742963 0.448267 0.497053
vn 0.485629 -0.826527 0.284637
vn 0.504359 -0.472039 0.72305
vn 0.737284 0.618367 -0.272093
vn 0.42111 0.835551 -0.352876
vn 0.660539 0.748152 0.0629113
vn 0.773187 -0.55265 -0.311062
vn 0.803968 -0.493855 0.331275
vn 0.979003 -0.189901 -0.0741036
vn 0.938407 -0.0324395 0.344006
vn 0.739659 -0.131106 0.660087
vn 0.88233 0.111783 -0.457164
vn 0.959472 0.277507 0.0490264
vn 0.81764 0.26578 0.510711
vn 0.805644 0.553538 0.211031
vn 0.112292 0.0922332 -0.989385
vn 0.0272518 0.0592419 0.997872
vn -0.342654 -0.938017 0.0520899
vn -0.495937 -0.82588 -0.268269
vn -0.343706 -0.760496 -0.550919
vn -0.150184 -0.410702 -0.899316
vn -0.527741 -0.824325 0.204886
vn -0.395169 -0.715442 0.576181
vn -0.177457 -0.36651 0.913334
vn 0.252448 0.420051 0.87168
vn 0.122431 -0.983581 0.132583
vn -0.103603 -0.459629 -0.882047
vn 0.0555423 -0.957215 -0.283996
vn -0.0518515 -0.309541 -0.949471
vn 0.559459 -0.743758 -0.365827
vn -0.0372049 -0.410714 -0.911005
vn 0.716167 -0.365116 -0.594806
vn 0.45332 0.419402 -0.786513
vn 0.57557 0.769463 -0.27685
vn 0.850252 -0.452211 -0.2694
vn 0.711846 0.654856 -0.253848
vn 0.0208485 -0.790874 0.611624
vn 0.173822 0.132879 0.975771
vn 0.451638 -0.88583 0.106439
vn 0.541161 -0.679849 0.494925
vn 0.779152 -0.622667 0.0721659
vn 0.318848 -0.437975 0.840544
vn 0.424501 0.304731 0.852607
vn 0.432401 0.529381 0.729922
vn 0.627684 0.778215 -0.0198771
vn 0.874701 -0.25185 0.414089
vn 0.93658 0.0591448 -0.345428
vn 0.5436 0.5663 0.619519
vn -0.52461 -0.199271 0.827693
vn -0.555957 0.791307 -0.254452
vn -0.0198559 0.350516 0.936346
vn 0.572596 0.782483 0.244651
vn 0.134618 -0.989213 0.0577591
vn -0.386335 -0.753258 0.532304
vn 0.258139 -0.715184 0.64952
vn 0.396232 -0.909384 -0.126573
vn 0.258139 -0.715184 0.64952
vn -0.514939 -0.857039 0.0179574
vn -0.905763 0.41262 -0.0966308
vn 0.93356 -0.0193932 0.357897
vn 0.698859 -0.333436 -0.632785
vn 0.840363 0.194267 -0.506014
vn 0.332877 -0.124755 -0.934681
vn -0.778486 0.625332 0.054036
vn -0.775267 0.630722 0.0339206
vn 0.65697 0.750989 0.0663756
vn 0.614198 0.741439 0.270238
vn 0.886036 -0.323169 0.332417
vn 0.908375 -0.36015 -0.212479
vn -0.230671 -0.479641 0.846602
vn 0.445248 -0.894781 0.0334825
vn 0.782837 -0.347077 0.516434
vn 0.153514 0.0978018 0.983295
vn 0.908781 -0.371279 -0.190446
vn 0.915113 -0.378436 -0.139119
vn 0.984349 0.176146 0.00540854
vn 0.962046 0.251546 0.105796
vn 0.953357 0.146793 0.263748
vn 0.707832 0.668731 -0.227536
vn 0.573561 0.49277 -0.654374
vn 0.904685 -0.367321 -0.215915
vn 0.966824 0.254336 0.0237481
vn 0.644344 -0.355337 0.677168
vn 0.758183 0.405799 0.510379
vn 0.604778 0.475225 0.639066
vn 0.841788 0.532321 -0.0895985
vn 0.941884 0.320769 -0.0998071
vn 0.0528191 0.072032 -0.996003
vn -0.322177 -0.276309 -0.905459
vn -0.661417 -0.749915 0.0124148
vn -0.59366 -0.628772 -0.502209
vn 0.538229 0.547492 0.640751
vn -0.406614 -0.812747 0.417263
vn -0.24245 -0.550777 0.798663
vn 0.527822 0.552376 0.645201
vn 0.456616 -0.127348 0.880502
vn 0.49558 -0.106909 0.861958
vn 0.677451 0.72244 0.138349
vn 0.49558 -0.106909 0.861958
vn 0.221804 -0.596995 0.770973
vn -0.712149 -0.540397 -0.448124
vn 0.221804 -0.596995 0.770973
vn -0.18254 -0.694711 -0.695741
vn -0.0790662 -0.489577 0.868368
vn -0.564646 -0.342042 0.751121
vn -0.60056 -0.797175 0.0619592
vn -0.51116 -0.00672904 -0.859459
vn 0.426639 0.774767 -0.466599
vn 0.666963 0.719885 0.192159
vn 0.221804 -0.596995 0.770973
vn -0.555316 -0.236012 0.797448
vn 0.269769 0.590554 0.760573
vn 0.966589 0.240293 -0.0892438
vn 0.599169 0.538783 0.592207
vn 0.966589 0.240293 -0.0892438
vn 0.651917 0.152907 -0.742714
vn -0.749843 -0.382681 0.539713
vn -0.563186 -0.824283 -0.0581313
vn -0.0833909 -0.49581 0.864418
vn 0.966589 0.240293 -0.0892438
vn 0.566645 0.469224 0.677305
vn 0.634127 0.0759015 -0.769494
vn 0.269769 0.590554 0.760573
vn -0.0566737 0.749313 0.659786
vn 0.367831 0.883452 0.290194
vn -0.424716 -0.146987 -0.893314
vn -0.539873 -0.839149 0.0660802
vn -0.397161 -0.662832 -0.634757
vn -0.590281 -0.794278 -0.143844
vn 0.359098 0.770852 -0.526152
vn 0.0551758 0.273535 -0.960278
vn -0.550225 -0.814022 -0.186066
vn -0.937737 -0.244354 0.246861
vn -0.829939 0.142129 0.539445
vn -0.335633 0.723909 0.602749
vn 0.269769 0.590554 0.760573
vn 0.668452 -0.0216098 -0.743441
vn 0.367831 0.883452 0.290194
vn 0.883825 0.419547 -0.206962
vn -0.870311 -0.463523 -0.166448
vn -0.646711 0.543216 0.535427
vn -0.830521 -0.535434 -0.153443
vn -0.918482 0.164427 0.359658
vn -0.372439 -0.575232 -0.728284
vn 0.0551758 0.273535 -0.960278
vn -0.651549 -0.65018 0.390833
vn -0.285787 -0.448375 0.846927
vn -0.285787 -0.448375 0.846927
vn -0.749911 -0.607747 0.261299
vn -0.479372 -0.833693 -0.27415
vn 0.403737 0.804922 -0.434854
vn 0.367831 0.883452 0.290194
vn 0.926548 0.342191 -0.15625
vn 0.493311 0.70922 0.503639
vn -0.0212683 0.755537 0.654761
vn -0.767028 0.402048 0.500026
vn -0.487806 -0.715735 -0.499768
vn 0.0556547 0.785097 0.616867
vn 0.0468968 0.778261 0.626188
vn 0.989607 0.027331 -0.141177
vn -0.106841 -0.856863 -0.504352
vn -0.314285 -0.935164 -0.163382
vn -0.309101 -0.891546 0.331061
vn -0.479372 -0.833693 -0.27415
vn 0.0779947 0.249589 0.965206
vn 0.971142 0.22804 -0.0698645
vn 0.495569 0.603511 0.624649
vn 0.0779947 0.249589 0.965206
vn 0.345118 0.72512 0.595898
vn -0.418146 0.437876 0.795876
vn 0.676844 0.728237 0.107489
vn 0.487308 0.503145 0.713705
vn -0.214281 -0.532578 0.818807
vn 0.183864 0.128194 0.974556
vn -0.848063 -0.491318 0.198482
vn 0.650341 -0.752338 -0.105094
vn -0.452537 -0.750852 0.481074
vn -0.449632 -0.614034 0.648686
vn 0.273516 -0.697062 0.662792
vn -0.750531 -0.00868519 0.660778
vn 0.229319 -0.603398 0.763756
vn 0.292581 0.0944424 0.951565
vn -0.544251 -0.675361 -0.497673
vn 0.462959 0.178226 0.868277
vn 0.311924 0.688539 0.654689
vn -0.640824 0.455938 0.617628
vn -0.481901 0.554299 0.678619
vn 0.833035 -0.317734 -0.452877
vn -0.699098 0.0410288 0.713847
vn -0.767587 -0.541502 0.342909
vn 0.735001 0.108888 -0.669266
vn 0.759221 -0.61927 0.200221
vn -0.335532 -0.819415 0.464734
vn 0.759221 -0.61927 0.200221
vn 0.759221 -0.61927 0.200221
vn -0.303713 -0.705014 0.64087
vn 0.480042 0.842263 0.245259
vn 0.487308 0.503145 0.713705
vn 0.669748 -0.735279 -0.10393
vn 0.787101 -0.31328 -0.531345
vn 0.994375 0.0694978 -0.0799336
vn 0.578564 0.19274 0.792537
vn 0.925024 0.204756 0.320009
vn -0.797187 -0.418945 0.434716
vn 0.366904 -0.592777 -0.716936
vn 0.529411 0.820606 0.215244
vn -0.754193 -0.651211 0.0843634
vn -0.796497 -0.544466 0.262961
vn 0.344753 0.870422 0.351442
vn -0.593991 0.408087 0.693282
vn -0.132336 -0.858002 -0.496307
vn -0.595933 -0.755466 -0.272276
vn 0.487308 0.503145 0.713705
vn 0.381502 0.873711 0.301803
vn -0.588481 0.443291 0.676154
vn 0.283697 0.83344 0.47423
vn 0.912197 0.20457 -0.355033
vn -0.462283 -0.859662 -0.217428
vn 0.874887 0.465682 -0.133093
vn 0.207288 0.698684 -0.684742
vn -0.232513 -0.209358 -0.949793
vn 0.464847 0.831687 0.303667
vn -0.472003 0.328671 0.818039
vn 0.443555 0.726742 0.524504
vn -0.316519 -0.233093 -0.919502
vn 0.374278 0.921914 0.0999476
vn -0.45515 0.465687 0.75893
vn -0.826998 -0.365281 0.427369
vn 0.170889 -0.748856 -0.640322
vn -0.642826 0.224737 0.732303
vn 0.833101 0.173123 -0.52533
vn -0.274168 0.626744 0.729399
vn 0.394569 0.786375 0.47532
vn -0.778951 -0.496622 0.382887
vn 0.628992 -0.300291 -0.717074
vn 0.195088 0.945344 -0.261276
vn 0.767266 0.546688 -0.335314
vn -0.408809 -0.904787 0.119316
vn -0.024423 -0.547343 0.836552
vn -0.326193 -0.93801 -0.117198
vn 0.75705 -0.207131 -0.619655
vn 0.888572 0.457808 -0.0291884
vn 0.552839 -0.00648063 0.833263
vn 0.633919 0.661282 0.401064
vn -0.0836569 0.805481 -0.586687
vn -0.466647 0.171692 -0.867619
vn 0.48938 0.101351 0.866161
vn -0.602492 -0.514198 -0.610413
vn -0.248124 -0.965805 0.0752072
vn 0.163417 -0.877819 0.450255
vn -0.330083 0.611773 -0.718874
vn 0.584419 0.666385 0.463017
vn 0.148626 -0.776979 0.611731
vn -0.0885665 -0.924737 0.370159
vn 0.298413 0.952909 -0.0539899
vn -0.718788 -0.283773 -0.634678
vn 0.658794 0.432674 0.615453
vn -0.805202 -0.112947 -0.582146
vn -0.663969 0.45593 -0.592683
vn -0.258651 -0.885455 0.386094
vn -0.205483 -0.882746 0.422536
vn 0.395958 0.827425 -0.398227
vn -0.636976 0.527906 -0.561762
vn -0.872957 -0.0711247 -0.482585
vn -0.0568491 -0.995204 -0.0796082
vn 0.412564 -0.67456 -0.612176
vn 0.859888 0.0259729 0.509821
vn 0.314666 0.729234 -0.60762
vn 0.412564 -0.67456 -0.612176
vn -0.418805 -0.507962 -0.752713
vn 0.811169 -0.5097 -0.286723
vn 0.369094 -0.461762 -0.806564
vn -0.19276 0.0833371 -0.977701
vn 0.412564 -0.67456 -0.612176
vn 0.811169 -0.5097 -0.286723
vn 0.811169 -0.5097 -0.286723
vn 0.878148 0.0989742 0.468038
vn 0.282703 0.684499 -0.671968
vn 0.369094 -0.461762 -0.806564
vn 0.369094 -0.461762 -0.806564
vn -0.10964 0.185513 -0.976506
vn 0.559906 0.760496 0.328863
vn -0.682651 0.52369 -0.509644
vn -0.888587 0.0579287 -0.455035
vn -0.806161 -0.542101 -0.23713
vn -0.502181 -0.730646 -0.46257
vn 0.062664 -0.269526 0.960952
vn -0.264435 -0.610731 0.746379
vn 0.871581 0.32533 0.366751
vn 0.778116 0.618372 0.110232
vn 0.91697 0.0300443 0.397823
vn 0.0882492 -0.21606 0.972384
vn 0.313811 0.356034 0.880206
vn 0.0143162 -0.0728846 0.997238
vn -0.248877 -0.430232 0.867733
vn 0.5412 0.840887 0.00350252
vn -0.4822 -0.826541 0.290367
vn 0.900999 0.0559342 0.430199
vn 0.919768 0.0126641 0.392259
vn 0.350616 0.461531 0.814897
vn 0.813202 0.427445 0.394959
vn 0.355141 0.53177 0.768828
vn -0.375208 0.127832 -0.918084
vn -0.0609348 -0.185153 -0.980819
vn 0.240069 -0.196573 -0.950645
vn 0.0419122 0.107671 0.993303
vn -0.280435 -0.857768 -0.430803
vn 0.404975 -0.73927 -0.538029
vn 0.361107 0.231895 -0.903231
vn 0.627622 -0.50986 -0.588331
vn 0.413289 0.157408 -0.896892
vn 0.487978 0.316717 -0.813368
vn 0.950062 0.0621129 -0.305817
vn 0.943528 0.0606422 -0.325694
vn 0.943528 0.0606422 -0.325694
vn 0.337493 0.109967 0.934883
vn 0.801812 -0.0511879 0.59538
vn 0.497471 0.673995 0.546125
vn 0.948149 -0.310847 0.0662344
vn 0.929865 0.279695 0.239003
vn 0.894524 0.361339 0.263177
g grp1
usemtl mtl1
f 15//15 2//2 1//1 
f 29//29 6//6 8//8 
f 42//42 30//30 19//19 
f 8//8 4//4 28//28 
f 28//28 4//4 11//11 
f 74//74 42//42 19//19 
f 65//65 6//6 29//29 
f 29//29 8//8 28//28 
f 30//30 28//28 11//11 
f 3//3 9//9 5//5 
f 9//9 10//10 5//5 
f 8//8 3//3 4//4 
f 3//3 5//5 4//4 
f 12//12 4//4 5//5 
f 6//6 14//14 9//9 
f 9//9 14//14 7//7 
f 3//3 8//8 6//6 
f 9//9 3//3 6//6 
f 9//9 7//7 10//10 
f 16//16 18//18 10//10 
f 7//7 615//615 10//10 
f 12//12 11//11 4//4 
f 30//30 11//11 12//12 
f 5//5 13//13 12//12 
f 10//10 13//13 5//5 
f 30//30 12//12 19//19 
f 19//19 12//12 13//13 
f 6//6 65//65 15//15 
f 15//15 1//1 14//14 
f 14//14 1//1 7//7 
f 14//14 6//6 15//15 
f 615//615 7//7 17//17 
f 18//18 13//13 10//10 
f 20//20 13//13 18//18 
f 15//15 65//65 2//2 
f 17//17 7//7 1//1 
f 17//17 31//31 615//615 
f 617//617 18//18 16//16 
f 31//31 17//17 32//32 
f 19//19 13//13 20//20 
f 74//74 19//19 20//20 
f 74//74 20//20 43//43 
f 49//49 44//44 21//21 
f 44//44 50//50 21//21 
f 65//65 61//61 2//2 
f 22//22 1//1 2//2 
f 22//22 23//23 1//1 
f 1//1 23//23 17//17 
f 17//17 23//23 33//33 
f 61//61 22//22 2//2 
f 61//61 24//24 22//22 
f 22//22 24//24 23//23 
f 23//23 24//24 34//34 
f 33//33 23//23 34//34 
f 25//25 24//24 61//61 
f 63//63 65//65 27//27 
f 28//28 30//30 26//26 
f 42//42 616//616 30//30 
f 29//29 27//27 65//65 
f 27//27 29//29 28//28 
f 27//27 28//28 26//26 
f 32//32 17//17 33//33 
f 617//617 36//36 18//18 
f 34//34 35//35 33//33 
f 33//33 35//35 32//32 
f 36//36 617//617 32//32 
f 25//25 38//38 24//24 
f 38//38 35//35 34//34 
f 38//38 34//34 24//24 
f 32//32 35//35 36//36 
f 40//40 37//37 36//36 
f 35//35 39//39 36//36 
f 39//39 40//40 36//36 
f 35//35 38//38 39//39 
f 40//40 39//39 66//66 
f 41//41 113//113 71//71 
f 74//74 73//73 616//616 
f 616//616 42//42 74//74 
f 43//43 20//20 18//18 
f 134//134 43//43 37//37 
f 43//43 18//18 37//37 
f 37//37 18//18 36//36 
f 41//41 46//46 75//75 
f 41//41 75//75 69//69 
f 44//44 46//46 41//41 
f 44//44 41//41 71//71 
f 71//71 72//72 44//44 
f 44//44 72//72 48//48 
f 46//46 44//44 49//49 
f 45//45 46//46 49//49 
f 75//75 46//46 45//45 
f 44//44 48//48 50//50 
f 50//50 48//48 47//47 
f 51//51 45//45 49//49 
f 87//87 45//45 51//51 
f 50//50 55//55 21//21 
f 85//85 50//50 47//47 
f 91//91 51//51 53//53 
f 87//87 51//51 91//91 
f 55//55 50//50 96//96 
f 50//50 85//85 52//52 
f 49//49 21//21 54//54 
f 21//21 55//55 54//54 
f 49//49 54//54 51//51 
f 54//54 53//53 51//51 
f 55//55 56//56 54//54 
f 58//58 55//55 96//96 
f 52//52 96//96 50//50 
f 97//97 96//96 52//52 
f 54//54 57//57 53//53 
f 55//55 58//58 56//56 
f 54//54 56//56 57//57 
f 56//56 58//58 59//59 
f 56//56 59//59 57//57 
f 57//57 59//59 60//60 
f 65//65 107//107 61//61 
f 108//108 118//118 61//61 
f 131//131 64//64 73//73 
f 62//62 64//64 131//131 
f 27//27 64//64 63//63 
f 64//64 62//62 63//63 
f 26//26 73//73 64//64 
f 62//62 117//117 63//63 
f 117//117 107//107 63//63 
f 64//64 27//27 26//26 
f 63//63 107//107 65//65 
f 118//118 25//25 61//61 
f 67//67 66//66 119//119 
f 66//66 626//626 119//119 
f 118//118 66//66 25//25 
f 66//66 38//38 25//25 
f 67//67 37//37 40//40 
f 67//67 40//40 66//66 
f 38//38 66//66 39//39 
f 75//75 68//68 70//70 
f 75//75 70//70 69//69 
f 41//41 69//69 109//109 
f 70//70 120//120 69//69 
f 41//41 110//110 113//113 
f 71//71 125//125 72//72 
f 71//71 113//113 125//125 
f 123//123 72//72 126//126 
f 48//48 72//72 76//76 
f 74//74 134//134 133//133 
f 74//74 43//43 134//134 
f 37//37 67//67 134//134 
f 75//75 45//45 78//78 
f 78//78 68//68 75//75 
f 78//78 122//122 68//68 
f 48//48 76//76 81//81 
f 76//76 77//77 81//81 
f 81//81 77//77 140//140 
f 76//76 139//139 77//77 
f 87//87 78//78 45//45 
f 78//78 142//142 628//628 
f 618//618 79//79 80//80 
f 81//81 47//47 48//48 
f 80//80 85//85 47//47 
f 81//81 80//80 47//47 
f 78//78 82//82 142//142 
f 87//87 82//82 78//78 
f 82//82 83//83 142//142 
f 142//142 83//83 84//84 
f 82//82 88//88 83//83 
f 83//83 88//88 84//84 
f 84//84 88//88 90//90 
f 79//79 84//84 86//86 
f 142//142 84//84 79//79 
f 85//85 80//80 86//86 
f 80//80 79//79 86//86 
f 91//91 92//92 87//87 
f 147//147 87//87 92//92 
f 82//82 89//89 88//88 
f 93//93 82//82 87//87 
f 82//82 93//93 89//89 
f 88//88 94//94 90//90 
f 88//88 89//89 94//94 
f 94//94 89//89 145//145 
f 85//85 86//86 52//52 
f 52//52 90//90 97//97 
f 86//86 90//90 52//52 
f 90//90 94//94 97//97 
f 84//84 90//90 86//86 
f 147//147 148//148 87//87 
f 148//148 93//93 87//87 
f 94//94 152//152 97//97 
f 91//91 53//53 95//95 
f 146//146 95//95 100//100 
f 146//146 91//91 95//95 
f 92//92 91//91 146//146 
f 166//166 96//96 97//97 
f 98//98 53//53 57//57 
f 57//57 60//60 98//98 
f 53//53 98//98 95//95 
f 99//99 98//98 60//60 
f 101//101 98//98 99//99 
f 101//101 99//99 102//102 
f 100//100 95//95 98//98 
f 100//100 98//98 101//101 
f 102//102 99//99 106//106 
f 153//153 146//146 100//100 
f 59//59 58//58 103//103 
f 106//106 60//60 103//103 
f 60//60 59//59 103//103 
f 99//99 60//60 106//106 
f 103//103 58//58 105//105 
f 103//103 104//104 106//106 
f 102//102 106//106 159//159 
f 58//58 96//96 105//105 
f 103//103 105//105 104//104 
f 105//105 166//166 104//104 
f 96//96 166//166 105//105 
f 104//104 159//159 106//106 
f 107//107 619//619 61//61 
f 174//174 619//619 107//107 
f 109//109 110//110 41//41 
f 168//168 109//109 69//69 
f 112//112 111//111 620//620 
f 620//620 190//190 112//112 
f 170//170 621//621 623//623 
f 125//125 114//114 128//128 
f 113//113 114//114 125//125 
f 172//172 624//624 113//113 
f 114//114 115//115 128//128 
f 113//113 110//110 172//172 
f 117//117 62//62 116//116 
f 114//114 116//116 115//115 
f 116//116 624//624 172//172 
f 117//117 116//116 172//172 
f 62//62 131//131 625//625 
f 116//116 62//62 115//115 
f 172//172 174//174 117//117 
f 117//117 174//174 107//107 
f 176//176 118//118 108//108 
f 67//67 119//119 134//134 
f 119//119 626//626 644//644 
f 121//121 120//120 70//70 
f 168//168 69//69 120//120 
f 68//68 121//121 70//70 
f 121//121 168//168 120//120 
f 68//68 122//122 627//627 
f 135//135 136//136 628//628 
f 628//628 136//136 177//177 
f 121//121 629//629 178//178 
f 72//72 123//123 76//76 
f 72//72 125//125 126//126 
f 123//123 126//126 127//127 
f 141//141 123//123 127//127 
f 125//125 128//128 126//126 
f 127//127 126//126 630//630 
f 141//141 127//127 124//124 
f 127//127 129//129 124//124 
f 127//127 630//630 631//631 
f 630//630 130//130 631//631 
f 124//124 129//129 185//185 
f 625//625 130//130 630//630 
f 132//132 185//185 130//130 
f 129//129 130//130 185//185 
f 130//130 625//625 131//131 
f 131//131 132//132 130//130 
f 131//131 73//73 132//132 
f 185//185 132//132 133//133 
f 133//133 134//134 187//187 
f 185//185 133//133 187//187 
f 133//133 132//132 73//73 
f 73//73 74//74 133//133 
f 142//142 79//79 143//143 
f 137//137 142//142 143//143 
f 135//135 628//628 142//142 
f 135//135 142//142 137//137 
f 137//137 143//143 138//138 
f 136//136 135//135 137//137 
f 177//177 136//136 137//137 
f 137//137 138//138 645//645 
f 632//632 138//138 618//618 
f 140//140 77//77 141//141 
f 139//139 141//141 77//77 
f 140//140 141//141 183//183 
f 76//76 123//123 139//139 
f 141//141 139//139 123//123 
f 141//141 124//124 183//183 
f 618//618 633//633 79//79 
f 138//138 633//633 618//618 
f 144//144 89//89 93//93 
f 145//145 89//89 144//144 
f 148//148 150//150 93//93 
f 93//93 150//150 144//144 
f 94//94 145//145 152//152 
f 146//146 147//147 92//92 
f 146//146 153//153 147//147 
f 153//153 149//149 147//147 
f 149//149 148//148 147//147 
f 148//148 149//149 158//158 
f 145//145 144//144 151//151 
f 150//150 151//151 144//144 
f 167//167 152//152 145//145 
f 150//150 148//148 158//158 
f 167//167 145//145 151//151 
f 167//167 151//151 164//164 
f 152//152 167//167 97//97 
f 102//102 155//155 101//101 
f 100//100 101//101 154//154 
f 154//154 101//101 155//155 
f 157//157 153//153 154//154 
f 100//100 154//154 153//153 
f 102//102 161//161 155//155 
f 157//157 149//149 153//153 
f 154//154 156//156 157//157 
f 154//154 155//155 156//156 
f 156//156 161//161 163//163 
f 156//156 155//155 161//161 
f 157//157 156//156 163//163 
f 163//163 161//161 162//162 
f 149//149 157//157 158//158 
f 158//158 157//157 163//163 
f 166//166 160//160 104//104 
f 160//160 159//159 104//104 
f 166//166 167//167 160//160 
f 161//161 102//102 159//159 
f 162//162 159//159 160//160 
f 159//159 162//162 161//161 
f 162//162 164//164 163//163 
f 162//162 160//160 164//164 
f 163//163 164//164 165//165 
f 160//160 167//167 164//164 
f 158//158 165//165 150//150 
f 150//150 165//165 151//151 
f 151//151 165//165 164//164 
f 163//163 165//165 158//158 
f 167//167 166//166 97//97 
f 109//109 168//168 189//189 
f 109//109 656//656 110//110 
f 636//636 112//112 190//190 
f 178//178 168//168 121//121 
f 654//654 168//168 178//178 
f 622//622 637//637 169//169 
f 638//638 180//180 634//634 
f 202//202 181//181 639//639 
f 622//622 171//171 110//110 
f 622//622 169//169 171//171 
f 640//640 635//635 647//647 
f 171//171 172//172 110//110 
f 171//171 173//173 172//172 
f 641//641 640//640 184//184 
f 653//653 652//652 186//186 
f 653//653 186//186 642//642 
f 172//172 173//173 174//174 
f 173//173 175//175 174//174 
f 642//642 186//186 643//643 
f 174//174 176//176 108//108 
f 174//174 175//175 176//176 
f 177//177 646//646 628//628 
f 182//182 645//645 138//138 
f 192//192 646//646 177//177 
f 645//645 182//182 192//192 
f 182//182 632//632 179//179 
f 179//179 632//632 652//652 
f 180//180 638//638 649//649 
f 650//650 179//179 648//648 
f 179//179 650//650 651//651 
f 179//179 652//652 653//653 
f 184//184 640//640 647//647 
f 179//179 653//653 648//648 
f 183//183 124//124 186//186 
f 124//124 185//185 186//186 
f 188//188 643//643 186//186 
f 186//186 185//185 187//187 
f 188//188 186//186 187//187 
f 134//134 188//188 187//187 
f 644//644 643//643 188//188 
f 188//188 119//119 644//644 
f 134//134 119//119 188//188 
f 182//182 138//138 632//632 
f 657//657 109//109 189//189 
f 193//193 657//657 189//189 
f 191//191 654//654 178//178 
f 194//194 193//193 655//655 
f 194//194 654//654 191//191 
f 636//636 190//190 660//660 
f 192//192 197//197 646//646 
f 197//197 191//191 646//646 
f 182//182 196//196 192//192 
f 651//651 650//650 661//661 
f 193//193 198//198 657//657 
f 199//199 193//193 194//194 
f 190//190 659//659 205//205 
f 660//660 190//190 205//205 
f 197//197 201//201 191//191 
f 195//195 194//194 191//191 
f 201//201 195//195 191//191 
f 658//658 661//661 204//204 
f 196//196 197//197 192//192 
f 658//658 651//651 661//661 
f 193//193 199//199 198//198 
f 201//201 200//200 195//195 
f 200//200 194//194 195//195 
f 200//200 199//199 194//194 
f 199//199 200//200 206//206 
f 663//663 662//662 665//665 
f 196//196 201//201 197//197 
f 211//211 205//205 659//659 
f 207//207 206//206 200//200 
f 207//207 200//200 201//201 
f 196//196 203//203 201//201 
f 203//203 207//207 201//201 
f 664//664 203//203 196//196 
f 198//198 199//199 212//212 
f 199//199 206//206 208//208 
f 208//208 206//206 207//207 
f 209//209 208//208 207//207 
f 203//203 209//209 207//207 
f 214//214 208//208 209//209 
f 209//209 203//203 210//210 
f 663//663 665//665 215//215 
f 664//664 675//675 210//210 
f 664//664 210//210 203//203 
f 667//667 198//198 212//212 
f 208//208 673//673 199//199 
f 210//210 214//214 209//209 
f 675//675 214//214 210//210 
f 673//673 208//208 213//213 
f 668//668 676//676 666//666 
f 214//214 674//674 208//208 
f 667//667 212//212 221//221 
f 673//673 213//213 692//692 
f 219//219 218//218 669//669 
f 277//277 685//685 670//670 
f 674//674 214//214 216//216 
f 217//217 214//214 231//231 
f 216//216 214//214 217//217 
f 679//679 681//681 686//686 
f 671//671 220//220 677//677 
f 689//689 702//702 678//678 
f 675//675 231//231 214//214 
f 693//693 222//222 672//672 
f 224//224 692//692 213//213 
f 670//670 222//222 277//277 
f 683//683 220//220 671//671 
f 733//733 680//680 687//687 
f 682//682 703//703 688//688 
f 226//226 218//218 225//225 
f 223//223 220//220 683//683 
f 695//695 684//684 698//698 
f 698//698 228//228 695//695 
f 218//218 219//219 225//225 
f 690//690 229//229 258//258 
f 699//699 239//239 227//227 
f 240//240 692//692 224//224 
f 241//241 243//243 222//222 
f 222//222 693//693 241//241 
f 244//244 222//222 243//243 
f 249//249 222//222 244//244 
f 222//222 249//249 277//277 
f 226//226 251//251 237//237 
f 237//237 251//251 233//233 
f 699//699 227//227 223//223 
f 700//700 223//223 227//227 
f 698//698 237//237 228//228 
f 255//255 230//230 227//227 
f 680//680 733//733 256//256 
f 225//225 251//251 226//226 
f 223//223 700//700 220//220 
f 252//252 258//258 229//229 
f 225//225 257//257 251//251 
f 225//225 703//703 257//257 
f 227//227 230//230 700//700 
f 252//252 701//701 230//230 
f 704//704 691//691 718//718 
f 688//688 703//703 225//225 
f 233//233 263//263 234//234 
f 263//263 232//232 706//706 
f 708//708 238//238 706//706 
f 233//233 253//253 262//262 
f 709//709 232//232 236//236 
f 706//706 232//232 708//708 
f 234//234 238//238 233//233 
f 228//228 237//237 238//238 
f 237//237 233//233 238//238 
f 253//253 254//254 275//275 
f 238//238 708//708 228//228 
f 709//709 236//236 255//255 
f 255//255 227//227 709//709 
f 235//235 255//255 707//707 
f 245//245 246//246 241//241 
f 241//241 246//246 243//243 
f 713//713 714//714 242//242 
f 241//241 693//693 245//245 
f 243//243 248//248 244//244 
f 712//712 248//248 243//243 
f 248//248 249//249 244//244 
f 694//694 710//710 245//245 
f 712//712 715//715 247//247 
f 247//247 248//248 712//712 
f 249//249 248//248 250//250 
f 249//249 250//250 277//277 
f 269//269 245//245 710//710 
f 257//257 253//253 251//251 
f 251//251 253//253 233//233 
f 253//253 257//257 254//254 
f 230//230 235//235 252//252 
f 258//258 252//252 276//276 
f 254//254 719//719 732//732 
f 255//255 235//235 230//230 
f 267//267 252//252 235//235 
f 267//267 276//276 252//252 
f 216//216 717//717 674//674 
f 696//696 674//674 717//717 
f 717//717 359//359 696//696 
f 257//257 719//719 254//254 
f 719//719 257//257 705//705 
f 292//292 300//300 260//260 
f 260//260 261//261 292//292 
f 749//749 723//723 294//294 
f 294//294 261//261 303//303 
f 752//752 259//259 722//722 
f 754//754 262//262 265//265 
f 261//261 260//260 232//232 
f 304//304 266//266 720//720 
f 261//261 232//232 263//263 
f 261//261 263//263 303//303 
f 303//303 263//263 262//262 
f 232//232 260//260 236//236 
f 722//722 259//259 264//264 
f 707//707 264//264 235//235 
f 707//707 722//722 264//264 
f 721//721 725//725 724//724 
f 725//725 267//267 724//724 
f 266//266 268//268 267//267 
f 262//262 275//275 265//265 
f 233//233 262//262 263//263 
f 724//724 267//267 235//235 
f 265//265 275//275 726//726 
f 262//262 253//253 275//275 
f 268//268 276//276 267//267 
f 732//732 726//726 275//275 
f 270//270 710//710 334//334 
f 273//273 247//247 715//715 
f 306//306 245//245 269//269 
f 269//269 710//710 270//270 
f 728//728 271//271 727//727 
f 272//272 271//271 728//728 
f 273//273 248//248 247//247 
f 248//248 274//274 250//250 
f 274//274 277//277 250//250 
f 248//248 273//273 274//274 
f 305//305 730//730 716//716 
f 755//755 274//274 273//273 
f 275//275 254//254 732//732 
f 278//278 734//734 731//731 
f 735//735 256//256 733//733 
f 282//282 284//284 279//279 
f 280//280 282//282 279//279 
f 279//279 284//284 283//283 
f 282//282 280//280 293//293 
f 279//279 281//281 280//280 
f 279//279 741//741 281//281 
f 287//287 281//281 741//741 
f 281//281 300//300 280//280 
f 282//282 285//285 284//284 
f 289//289 743//743 283//283 
f 289//289 283//283 284//284 
f 282//282 293//293 285//285 
f 295//295 285//285 293//293 
f 285//285 296//296 311//311 
f 284//284 285//285 311//311 
f 765//765 313//313 742//742 
f 284//284 313//313 289//289 
f 287//287 288//288 281//281 
f 286//286 281//281 288//288 
f 289//289 290//290 743//743 
f 290//290 744//744 743//743 
f 744//744 290//290 291//291 
f 288//288 746//746 286//286 
f 286//286 746//746 299//299 
f 297//297 286//286 299//299 
f 313//313 745//745 289//289 
f 745//745 313//313 314//314 
f 747//747 745//745 314//314 
f 768//768 750//750 748//748 
f 768//768 317//317 750//750 
f 293//293 749//749 294//294 
f 295//295 293//293 294//294 
f 295//295 294//294 296//296 
f 316//316 298//298 304//304 
f 293//293 280//280 749//749 
f 292//292 280//280 300//300 
f 281//281 286//286 300//300 
f 300//300 286//286 297//297 
f 301//301 751//751 317//317 
f 302//302 301//301 317//317 
f 295//295 296//296 285//285 
f 304//304 302//302 316//316 
f 302//302 317//317 316//316 
f 753//753 259//259 752//752 
f 752//752 297//297 753//753 
f 753//753 297//297 299//299 
f 302//302 304//304 301//301 
f 294//294 303//303 296//296 
f 754//754 304//304 298//298 
f 296//296 754//754 298//298 
f 301//301 304//304 720//720 
f 754//754 265//265 304//304 
f 265//265 726//726 304//304 
f 268//268 266//266 304//304 
f 306//306 269//269 307//307 
f 306//306 246//246 245//245 
f 306//306 756//756 246//246 
f 307//307 321//321 306//306 
f 727//727 308//308 307//307 
f 310//310 319//319 757//757 
f 755//755 323//323 320//320 
f 323//323 755//755 318//318 
f 727//727 271//271 308//308 
f 308//308 271//271 309//309 
f 759//759 729//729 272//272 
f 761//761 758//758 760//760 
f 328//328 759//759 272//272 
f 759//759 328//328 762//762 
f 320//320 736//736 274//274 
f 737//737 772//772 763//763 
f 320//320 274//274 755//755 
f 312//312 313//313 765//765 
f 312//312 315//315 313//313 
f 296//296 298//298 311//311 
f 311//311 298//298 766//766 
f 767//767 316//316 769//769 
f 298//298 316//316 767//767 
f 315//315 314//314 313//313 
f 769//769 316//316 317//317 
f 768//768 769//769 317//317 
f 325//325 321//321 307//307 
f 756//756 306//306 770//770 
f 318//318 322//322 323//323 
f 774//774 770//770 306//306 
f 728//728 784//784 328//328 
f 328//328 272//272 728//728 
f 771//771 307//307 308//308 
f 771//771 325//325 307//307 
f 357//357 711//711 697//697 
f 773//773 327//327 774//774 
f 327//327 323//323 322//322 
f 773//773 324//324 327//327 
f 321//321 325//325 777//777 
f 325//325 771//771 326//326 
f 773//773 774//774 306//306 
f 775//775 763//763 772//772 
f 786//786 696//696 359//359 
f 338//338 337//337 327//327 
f 325//325 326//326 330//330 
f 324//324 338//338 327//327 
f 338//338 324//324 778//778 
f 331//331 323//323 327//327 
f 319//319 310//310 329//329 
f 763//763 775//775 780//780 
f 326//326 319//319 329//329 
f 334//334 710//710 787//787 
f 779//779 738//738 764//764 
f 337//337 340//340 327//327 
f 338//338 325//325 330//330 
f 327//327 340//340 331//331 
f 341//341 332//332 340//340 
f 782//782 333//333 775//775 
f 326//326 783//783 350//350 
f 781//781 332//332 776//776 
f 340//340 332//332 781//781 
f 341//341 333//333 782//782 
f 783//783 326//326 329//329 
f 333//333 780//780 775//775 
f 358//358 739//739 328//328 
f 256//256 373//373 788//788 
f 338//338 330//330 335//335 
f 348//348 338//338 335//335 
f 335//335 330//330 336//336 
f 336//336 330//330 326//326 
f 349//349 348//348 335//335 
f 349//349 335//335 336//336 
f 342//342 337//337 338//338 
f 340//340 337//337 339//339 
f 341//341 340//340 339//339 
f 338//338 344//344 342//342 
f 345//345 344//344 338//338 
f 345//345 338//338 348//348 
f 345//345 348//348 346//346 
f 326//326 350//350 336//336 
f 365//365 351//351 341//341 
f 339//339 365//365 341//341 
f 351//351 333//333 341//341 
f 350//350 783//783 785//785 
f 328//328 784//784 354//354 
f 328//328 354//354 355//355 
f 735//735 373//373 256//256 
f 344//344 343//343 342//342 
f 343//343 344//344 345//345 
f 342//342 364//364 337//337 
f 347//347 346//346 349//349 
f 350//350 347//347 349//349 
f 347//347 350//350 353//353 
f 353//353 350//350 785//785 
f 339//339 337//337 364//364 
f 785//785 368//368 353//353 
f 346//346 348//348 349//349 
f 349//349 336//336 350//350 
f 369//369 368//368 785//785 
f 790//790 351//351 365//365 
f 358//358 328//328 355//355 
f 352//352 366//366 363//363 
f 342//342 343//343 360//360 
f 342//342 360//360 364//364 
f 362//362 343//343 352//352 
f 352//352 343//343 345//345 
f 352//352 345//345 346//346 
f 366//366 346//346 347//347 
f 366//366 352//352 346//346 
f 365//365 339//339 789//789 
f 370//370 354//354 784//784 
f 370//370 356//356 354//354 
f 355//355 354//354 356//356 
f 787//787 791//791 334//334 
f 362//362 363//363 361//361 
f 343//343 362//362 360//360 
f 361//361 360//360 362//362 
f 364//364 375//375 377//377 
f 352//352 363//363 362//362 
f 360//360 375//375 364//364 
f 384//384 790//790 365//365 
f 347//347 367//367 366//366 
f 353//353 367//367 347//347 
f 367//367 353//353 368//368 
f 367//367 363//363 366//366 
f 385//385 791//791 787//787 
f 358//358 355//355 371//371 
f 356//356 370//370 372//372 
f 355//355 356//356 371//371 
f 372//372 371//371 356//356 
f 403//403 371//371 372//372 
f 374//374 386//386 786//786 
f 385//385 786//786 386//386 
f 374//374 786//786 359//359 
f 373//373 740//740 358//358 
f 373//373 792//792 788//788 
f 375//375 376//376 379//379 
f 379//379 387//387 375//375 
f 376//376 378//378 380//380 
f 379//379 376//376 380//380 
f 380//380 378//378 397//397 
f 378//378 383//383 397//397 
f 794//794 377//377 375//375 
f 376//376 375//375 360//360 
f 376//376 360//360 361//361 
f 361//361 363//363 378//378 
f 378//378 376//376 361//361 
f 378//378 363//363 383//383 
f 384//384 393//393 382//382 
f 789//789 793//793 365//365 
f 384//384 365//365 393//393 
f 798//798 365//365 793//793 
f 382//382 390//390 381//381 
f 390//390 382//382 393//393 
f 382//382 368//368 369//369 
f 384//384 382//382 369//369 
f 363//363 367//367 383//383 
f 367//367 368//368 381//381 
f 381//381 368//368 382//382 
f 367//367 381//381 383//383 
f 406//406 386//386 374//374 
f 394//394 385//385 386//386 
f 386//386 406//406 394//394 
f 371//371 395//395 358//358 
f 358//358 395//395 373//373 
f 373//373 407//407 792//792 
f 379//379 388//388 387//387 
f 794//794 389//389 377//377 
f 795//795 380//380 397//397 
f 388//388 379//379 380//380 
f 383//383 381//381 797//797 
f 391//391 798//798 793//793 
f 392//392 799//799 391//391 
f 390//390 393//393 392//392 
f 400//400 390//390 392//392 
f 399//399 400//400 392//392 
f 399//399 392//392 391//391 
f 412//412 402//402 370//370 
f 370//370 402//402 372//372 
f 385//385 412//412 791//791 
f 792//792 407//407 802//802 
f 404//404 395//395 371//371 
f 404//404 371//371 403//403 
f 388//388 396//396 387//387 
f 408//408 397//397 409//409 
f 396//396 388//388 408//408 
f 411//411 389//389 800//800 
f 411//411 401//401 796//796 
f 795//795 397//397 408//408 
f 383//383 797//797 398//398 
f 398//398 797//797 400//400 
f 801//801 397//397 383//383 
f 793//793 796//796 401//401 
f 793//793 401//401 391//391 
f 794//794 800//800 389//389 
f 400//400 803//803 398//398 
f 372//372 402//402 403//403 
f 429//429 404//404 403//403 
f 412//412 385//385 405//405 
f 405//405 385//385 394//394 
f 394//394 406//406 405//405 
f 413//413 405//405 414//414 
f 415//415 407//407 373//373 
f 415//415 373//373 395//395 
f 802//802 407//407 431//431 
f 404//404 430//430 395//395 
f 416//416 396//396 408//408 
f 401//401 418//418 391//391 
f 391//391 410//410 399//399 
f 418//418 410//410 391//391 
f 399//399 410//410 400//400 
f 803//803 400//400 410//410 
f 409//409 397//397 801//801 
f 403//403 402//402 806//806 
f 442//442 412//412 405//405 
f 413//413 442//442 405//405 
f 442//442 402//402 412//412 
f 405//405 406//406 414//414 
f 407//407 445//445 431//431 
f 415//415 395//395 430//430 
f 415//415 445//445 407//407 
f 411//411 800//800 417//417 
f 417//417 396//396 416//416 
f 408//408 420//420 416//416 
f 408//408 409//409 420//420 
f 401//401 424//424 418//418 
f 416//416 420//420 422//422 
f 422//422 419//419 416//416 
f 417//417 416//416 804//804 
f 411//411 424//424 401//401 
f 417//417 804//804 425//425 
f 420//420 432//432 422//422 
f 422//422 421//421 419//419 
f 425//425 419//419 421//421 
f 409//409 432//432 420//420 
f 425//425 421//421 440//440 
f 421//421 433//433 440//440 
f 422//422 433//433 421//421 
f 418//418 439//439 410//410 
f 417//417 423//423 411//411 
f 424//424 411//411 423//423 
f 417//417 425//425 423//423 
f 426//426 424//424 423//423 
f 805//805 423//423 425//425 
f 426//426 427//427 424//424 
f 428//428 424//424 427//427 
f 428//428 418//418 424//424 
f 425//425 437//437 805//805 
f 809//809 438//438 426//426 
f 438//438 427//427 426//426 
f 438//438 428//428 427//427 
f 439//439 418//418 428//428 
f 438//438 439//439 428//428 
f 434//434 803//803 410//410 
f 402//402 442//442 806//806 
f 414//414 443//443 413//413 
f 406//406 443//443 414//414 
f 431//431 811//811 802//802 
f 813//813 415//415 430//430 
f 429//429 430//430 404//404 
f 447//447 431//431 445//445 
f 433//433 422//422 432//432 
f 409//409 807//807 432//432 
f 435//435 433//433 807//807 
f 433//433 432//432 807//807 
f 433//433 435//435 440//440 
f 410//410 436//436 434//434 
f 439//439 436//436 410//410 
f 440//440 435//435 441//441 
f 439//439 810//810 436//436 
f 436//436 810//810 808//808 
f 808//808 434//434 436//436 
f 440//440 437//437 425//425 
f 809//809 441//441 438//438 
f 810//810 439//439 438//438 
f 809//809 440//440 441//441 
f 430//430 429//429 450//450 
f 442//442 449//449 806//806 
f 814//814 442//442 444//444 
f 815//815 806//806 449//449 
f 442//442 413//413 444//444 
f 443//443 812//812 413//413 
f 812//812 443//443 451//451 
f 446//446 811//811 431//431 
f 817//817 811//811 446//446 
f 446//446 455//455 817//817 
f 447//447 446//446 431//431 
f 430//430 452//452 813//813 
f 448//448 812//812 451//451 
f 814//814 444//444 448//448 
f 449//449 454//454 815//815 
f 450//450 452//452 430//430 
f 817//817 455//455 456//456 
f 821//821 446//446 447//447 
f 445//445 818//818 447//447 
f 822//822 453//453 448//448 
f 453//453 814//814 448//448 
f 448//448 451//451 822//822 
f 466//466 821//821 447//447 
f 450//450 463//463 452//452 
f 466//466 447//447 818//818 
f 453//453 454//454 449//449 
f 464//464 463//463 819//819 
f 458//458 453//453 822//822 
f 454//454 453//453 461//461 
f 827//827 820//820 826//826 
f 816//816 819//819 463//463 
f 459//459 456//456 455//455 
f 459//459 455//455 470//470 
f 463//463 457//457 452//452 
f 823//823 466//466 818//818 
f 824//824 468//468 458//458 
f 458//458 822//822 824//824 
f 471//471 460//460 453//453 
f 458//458 471//471 453//453 
f 461//461 460//460 472//472 
f 461//461 453//453 460//460 
f 462//462 472//472 460//460 
f 463//463 464//464 480//480 
f 467//467 463//463 480//480 
f 480//480 466//466 467//467 
f 465//465 466//466 848//848 
f 821//821 465//465 470//470 
f 467//467 466//466 823//823 
f 463//463 467//467 457//457 
f 466//466 465//465 821//821 
f 469//469 471//471 458//458 
f 471//471 482//482 483//483 
f 471//471 483//483 462//462 
f 851//851 471//471 469//469 
f 826//826 485//485 486//486 
f 827//827 826//826 486//486 
f 495//495 852//852 472//472 
f 458//458 468//468 830//830 
f 487//487 829//829 825//825 
f 487//487 459//459 470//470 
f 471//471 462//462 460//460 
f 483//483 473//473 462//462 
f 476//476 473//473 483//483 
f 488//488 477//477 476//476 
f 483//483 488//488 476//476 
f 465//465 474//474 855//855 
f 855//855 499//499 465//465 
f 465//465 499//499 470//470 
f 461//461 472//472 852//852 
f 831//831 475//475 462//462 
f 475//475 472//472 462//462 
f 835//835 832//832 840//840 
f 472//472 836//836 484//484 
f 478//478 476//476 477//477 
f 841//841 842//842 837//837 
f 477//477 833//833 843//843 
f 479//479 844//844 834//834 
f 495//495 472//472 484//484 
f 846//846 838//838 845//845 
f 833//833 477//477 488//488 
f 484//484 839//839 847//847 
f 497//497 465//465 848//848 
f 464//464 858//858 480//480 
f 491//491 851//851 481//481 
f 469//469 481//481 851//851 
f 494//494 488//488 483//483 
f 834//834 514//514 496//496 
f 858//858 464//464 853//853 
f 829//829 487//487 849//849 
f 850//850 830//830 468//468 
f 499//499 498//498 470//470 
f 857//857 499//499 855//855 
f 496//496 484//484 847//847 
f 496//496 479//479 834//834 
f 497//497 550//550 465//465 
f 834//834 828//828 514//514 
f 481//481 502//502 491//491 
f 500//500 491//491 503//503 
f 502//502 503//503 491//491 
f 489//489 500//500 506//506 
f 491//491 500//500 489//489 
f 494//494 483//483 489//489 
f 489//489 483//483 482//482 
f 491//491 489//489 482//482 
f 508//508 509//509 495//495 
f 508//508 495//495 484//484 
f 509//509 852//852 495//495 
f 525//525 510//510 854//854 
f 509//509 525//525 852//852 
f 853//853 860//860 858//858 
f 849//849 487//487 502//502 
f 502//502 487//487 490//490 
f 470//470 490//490 487//487 
f 490//490 470//470 492//492 
f 499//499 857//857 493//493 
f 498//498 499//499 856//856 
f 508//508 484//484 496//496 
f 486//486 485//485 863//863 
f 470//470 498//498 492//492 
f 522//522 531//531 501//501 
f 531//531 507//507 501//501 
f 531//531 532//532 507//507 
f 527//527 504//504 505//505 
f 856//856 530//530 512//512 
f 506//506 507//507 489//489 
f 501//501 506//506 500//500 
f 501//501 507//507 506//506 
f 532//532 494//494 507//507 
f 507//507 494//494 489//489 
f 508//508 524//524 509//509 
f 533//533 508//508 496//496 
f 465//465 550//550 862//862 
f 534//534 858//858 860//860 
f 868//868 859//859 866//866 
f 505//505 504//504 511//511 
f 502//502 490//490 504//504 
f 490//490 511//511 504//504 
f 490//490 492//492 511//511 
f 511//511 492//492 513//513 
f 512//512 513//513 856//856 
f 513//513 512//512 505//505 
f 511//511 513//513 505//505 
f 513//513 492//492 498//498 
f 498//498 856//856 513//513 
f 865//865 864//864 857//857 
f 864//864 493//493 857//857 
f 519//519 516//516 515//515 
f 516//516 537//537 515//515 
f 516//516 519//519 517//517 
f 519//519 518//518 517//517 
f 516//516 536//536 535//535 
f 535//535 537//537 516//516 
f 536//536 516//516 517//517 
f 517//517 518//518 540//540 
f 539//539 540//540 518//518 
f 543//543 539//539 527//527 
f 515//515 500//500 503//503 
f 519//519 515//515 503//503 
f 519//519 503//503 502//502 
f 537//537 500//500 515//515 
f 500//500 537//537 520//520 
f 546//546 521//521 522//522 
f 522//522 520//520 538//538 
f 864//864 523//523 541//541 
f 520//520 501//501 500//500 
f 501//501 520//520 522//522 
f 521//521 531//531 522//522 
f 531//531 521//521 529//529 
f 529//529 521//521 523//523 
f 547//547 509//509 524//524 
f 533//533 524//524 508//508 
f 519//519 502//502 526//526 
f 518//518 519//519 526//526 
f 526//526 502//502 504//504 
f 527//527 526//526 504//504 
f 518//518 526//526 539//539 
f 539//539 526//526 527//527 
f 505//505 528//528 527//527 
f 505//505 512//512 528//528 
f 512//512 530//530 528//528 
f 523//523 864//864 529//529 
f 530//530 545//545 528//528 
f 531//531 529//529 532//532 
f 865//865 529//529 864//864 
f 548//548 862//862 550//550 
f 514//514 533//533 496//496 
f 535//535 562//562 537//537 
f 563//563 562//562 535//535 
f 563//563 535//535 536//536 
f 520//520 537//537 538//538 
f 559//559 538//538 537//537 
f 537//537 562//562 559//559 
f 542//542 561//561 544//544 
f 536//536 540//540 553//553 
f 553//553 540//540 543//543 
f 540//540 536//536 517//517 
f 540//540 539//539 543//543 
f 528//528 545//545 543//543 
f 542//542 522//522 538//538 
f 541//541 542//542 544//544 
f 867//867 541//541 544//544 
f 867//867 864//864 541//541 
f 528//528 543//543 527//527 
f 522//522 542//542 546//546 
f 546//546 542//542 523//523 
f 523//523 542//542 541//541 
f 546//546 523//523 521//521 
f 525//525 509//509 547//547 
f 514//514 548//548 533//533 
f 587//587 547//547 524//524 
f 583//583 534//534 860//860 
f 510//510 525//525 549//549 
f 868//868 866//866 872//872 
f 552//552 564//564 563//563 
f 563//563 551//551 552//552 
f 870//870 869//869 554//554 
f 554//554 869//869 553//553 
f 555//555 554//554 553//553 
f 555//555 553//553 543//543 
f 564//564 552//552 556//556 
f 573//573 564//564 556//556 
f 871//871 870//870 554//554 
f 558//558 554//554 555//555 
f 571//571 558//558 555//555 
f 543//543 571//571 555//555 
f 557//557 573//573 556//556 
f 554//554 557//557 871//871 
f 558//558 557//557 554//554 
f 558//558 570//570 578//578 
f 570//570 558//558 571//571 
f 578//578 573//573 557//557 
f 558//558 578//578 557//557 
f 536//536 551//551 563//563 
f 553//553 869//869 536//536 
f 560//560 542//542 538//538 
f 538//538 559//559 560//560 
f 560//560 561//561 542//542 
f 563//563 564//564 562//562 
f 566//566 560//560 559//559 
f 572//572 867//867 567//567 
f 564//564 565//565 562//562 
f 562//562 565//565 559//559 
f 566//566 559//559 565//565 
f 569//569 560//560 566//566 
f 573//573 568//568 564//564 
f 564//564 568//568 565//565 
f 568//568 566//566 565//565 
f 566//566 568//568 569//569 
f 561//561 560//560 569//569 
f 571//571 543//543 545//545 
f 573//573 574//574 568//568 
f 574//574 569//569 568//568 
f 577//577 580//580 561//561 
f 569//569 577//577 561//561 
f 567//567 580//580 581//581 
f 561//561 580//580 567//567 
f 581//581 572//572 567//567 
f 572//572 570//570 571//571 
f 545//545 572//572 571//571 
f 573//573 575//575 574//574 
f 574//574 575//575 576//576 
f 574//574 576//576 577//577 
f 569//569 574//574 577//577 
f 573//573 578//578 575//575 
f 575//575 578//578 579//579 
f 575//575 579//579 576//576 
f 576//576 579//579 580//580 
f 577//577 576//576 580//580 
f 578//578 570//570 579//579 
f 579//579 570//570 581//581 
f 580//580 579//579 581//581 
f 572//572 581//581 570//570 
f 567//567 867//867 544//544 
f 561//561 567//567 544//544 
f 524//524 582//582 587//587 
f 591//591 868//868 872//872 
f 872//872 861//861 549//549 
f 582//582 524//524 533//533 
f 548//548 582//582 533//533 
f 550//550 600//600 548//548 
f 585//585 525//525 547//547 
f 548//548 600//600 599//599 
f 548//548 599//599 582//582 
f 584//584 594//594 592//592 
f 584//584 592//592 603//603 
f 585//585 588//588 525//525 
f 595//595 587//587 582//582 
f 875//875 582//582 599//599 
f 587//587 586//586 547//547 
f 547//547 586//586 585//585 
f 585//585 586//586 584//584 
f 588//588 585//585 584//584 
f 587//587 597//597 593//593 
f 586//586 587//587 593//593 
f 873//873 594//594 586//586 
f 586//586 594//594 584//584 
f 597//597 587//587 595//595 
f 549//549 525//525 588//588 
f 590//590 872//872 549//549 
f 584//584 589//589 588//588 
f 589//589 549//549 588//588 
f 590//590 549//549 589//589 
f 604//604 872//872 590//590 
f 604//604 591//591 872//872 
f 610//610 868//868 591//591 
f 603//603 589//589 584//584 
f 589//589 603//603 590//590 
f 592//592 594//594 605//605 
f 592//592 605//605 603//603 
f 876//876 596//596 874//874 
f 874//874 596//596 594//594 
f 594//594 596//596 605//605 
f 875//875 599//599 877//877 
f 607//607 605//605 596//596 
f 876//876 601//601 596//596 
f 598//598 601//601 876//876 
f 599//599 878//878 877//877 
f 599//599 600//600 602//602 
f 600//600 611//611 602//602 
f 550//550 611//611 600//600 
f 607//607 596//596 601//601 
f 881//881 880//880 879//879 
f 599//599 602//602 878//878 
f 880//880 881//881 613//613 
f 605//605 606//606 603//603 
f 608//608 603//603 606//606 
f 603//603 608//608 590//590 
f 608//608 604//604 590//590 
f 610//610 591//591 604//604 
f 610//610 884//884 868//868 
f 606//606 605//605 607//607 
f 607//607 612//612 606//606 
f 612//612 608//608 606//606 
f 882//882 609//609 604//604 
f 609//609 614//614 610//610 
f 604//604 609//609 610//610 
f 614//614 884//884 610//610 
f 612//612 607//607 601//601 
f 601//601 885//885 612//612 
f 612//612 886//886 887//887 
f 612//612 887//887 883//883 
f 608//608 612//612 883//883 
f 886//886 602//602 887//887 
f 887//887 602//602 611//611 
