#
# Compatibility version : 4.3
# File ID : FJ3985
# Representation ID : BP29281
# Build-up logic : FMA 3.0 is_a
# Concept ID : FMA52997
# English name : Right mandibular nerve
# Bounds(mm): (-39.940300,-114.342900,1477.958300)-(-21.748100,-83.203700,1519.610200)
# Volume(cm3): 0.056300
#
v -39.8055 -112.644 1482.25
v -39.7664 -112.707 1483.15
v -39.7135 -112.327 1484.78
v -39.9231 -112.153 1484.03
v -39.6905 -111.731 1483.88
v -39.872 -112.1 1484.91
v -39.8745 -111.842 1484.21
v -39.8626 -111.447 1486.32
v -39.7093 -111.711 1486.57
v -39.7916 -111.11 1486.5
v -39.7176 -111.148 1485.89
v -39.6966 -110.835 1487.89
v -38.9062 -113.842 1478.41
v -39.0853 -113.885 1479.29
v -39.115 -113.723 1478.98
v -39.1136 -113.519 1478.98
v -39.4223 -113.38 1480
v -39.5314 -113.314 1480.71
v -39.203 -113.667 1480.48
v -39.0123 -113.192 1482.01
v -39.3972 -113.167 1479.97
v -39.2136 -113.187 1479.52
v -38.9468 -113.018 1479.49
v -39.5771 -113.112 1480.68
v -39.57 -112.605 1481.33
v -39.1662 -112.488 1481.12
v -39.0175 -112.392 1481.59
v -39.4094 -113.037 1482.72
v -39.301 -112.547 1484.33
v -38.9858 -112.358 1484.19
v -38.8778 -112.307 1483
v -39.4877 -112.026 1486.03
v -38.8671 -111.586 1486.4
v -39.0209 -111.701 1486.82
v -39.2919 -111.219 1488.53
v -39.2885 -111.389 1484.76
v -39.4965 -110.988 1486.04
v -38.8814 -111.053 1486.44
v -39.4898 -110.569 1487.58
v -39.5252 -110.889 1488.75
v -39.4788 -110.389 1488.47
v -39.0158 -110.471 1490.59
v -39.05 -110.499 1487.58
v -38.9117 -110.055 1488.92
v -39.1735 -109.934 1490.61
v -39.0534 -110.089 1491.07
v -38.8983 -109.491 1491.22
v -38.6284 -114.245 1478.3
v -38.7377 -114.192 1478.43
v -38.6492 -114.252 1478.49
v -38.4328 -114.258 1478.2
v -38.4271 -114.313 1478.31
v -38.4691 -114.289 1478.64
v -38.2448 -114.284 1478.47
v -38.2286 -114.231 1478.2
v -38.8188 -114.044 1478.33
v -38.7887 -113.954 1478.19
v -38.7979 -113.756 1478.2
v -38.778 -113.531 1478.35
v -38.6243 -114.066 1478.09
v -38.6233 -113.869 1478.02
v -38.6146 -113.642 1478.08
v -38.4178 -113.979 1477.99
v -38.4287 -113.772 1477.97
v -38.472 -113.367 1478.37
v -38.3297 -113.572 1478.06
v -38.2232 -113.774 1478
v -38.2537 -113.399 1478.35
v -38.1345 -114.051 1478.09
v -38.1336 -113.569 1478.14
v -38.0353 -113.559 1478.28
v -38.1798 -113.376 1478.61
v -38.459 -113.547 1480.11
v -38.8008 -113.681 1480.49
v -38.684 -112.862 1480.27
v -38.4991 -113.152 1480.36
v -38.732 -112.984 1481.64
v -38.738 -112.734 1481.58
v -38.5793 -110.868 1488.83
v -38.7382 -110.924 1489.43
v -38.3543 -110.048 1489.8
v -38.0377 -109.684 1490.99
v -38.3401 -110.182 1491.75
v -38.6201 -109.817 1492.27
v -38.7121 -109.531 1492.32
v -38.5246 -109.253 1491.31
v -38.0919 -109.332 1491.34
v -38.7199 -109.341 1492.19
v -38.5592 -109.258 1492.74
v -38.4692 -109.01 1492.55
v -38.2803 -109.253 1493.45
v -38.0469 -108.633 1493.84
v -38.0629 -114.109 1478.68
v -38.0287 -114.058 1478.2
v -38.0371 -114.149 1478.31
v -38.0331 -113.868 1478.12
v -38.0285 -113.674 1478.17
v -37.9704 -113.611 1478.53
v -37.9183 -113.95 1478.39
v -37.9355 -113.858 1478.26
v -37.9143 -113.748 1478.37
v -37.969 -113.71 1478.69
v -37.975 -109.889 1491.15
v -38.0076 -110.053 1491.77
v -37.592 -109.599 1492.59
v -37.8718 -109.334 1493.9
v -37.6939 -109.418 1492.03
v -37.9455 -108.732 1494.3
v -37.6871 -108.764 1494.78
v -37.6342 -108.293 1494
v -37.5331 -108.27 1495.05
v -37.4917 -108.141 1494.89
v -37.2492 -109.293 1493.93
v -37.0749 -109.073 1493.75
v -36.4764 -108.561 1496.06
v -36.9254 -108.525 1494.03
v -37.1257 -107.987 1494.67
v -36.7228 -108.372 1496.28
v -36.6746 -107.964 1496.61
v -36.336 -108.544 1495.36
v -35.8243 -107.728 1497.66
v -35.6502 -107.836 1497.65
v -36.3327 -107.301 1496.5
v -36.2287 -107.281 1497.04
v -35.8189 -107.204 1497.8
v -34.9853 -107.659 1497.34
v -35.1618 -107.805 1497.67
v -35.2543 -107.275 1496.86
v -35.478 -107.283 1498.22
v -35.2617 -106.72 1497.58
v -34.7794 -107.503 1498.39
v -34.5826 -107.092 1499.01
v -34.4591 -106.475 1498.07
v -34.0488 -106.67 1498.19
v -34.6219 -106.386 1498.98
v -34.4308 -106.206 1498.93
v -34.6672 -106.586 1499.08
v -34.0294 -107.205 1498.65
v -33.8419 -106.973 1498.5
v -34.0073 -106.524 1499.67
v -33.9473 -106.212 1499.71
v -33.4073 -105.726 1499.35
v -32.7465 -106.554 1499.93
v -32.6345 -106.489 1499.62
v -32.509 -106.117 1499.44
v -33.27 -106.594 1499.97
v -32.7272 -106.087 1500.55
v -32.7915 -105.657 1499.45
v -32.9888 -105.555 1500.21
v -32.8378 -105.795 1500.52
v -32.26 -105.163 1500.36
v -31.7832 -106.028 1500.78
v -31.8408 -105.158 1500.98
v -31.7175 -105.628 1501.13
v -30.4418 -105.323 1500.61
v -30.6518 -105.59 1500.66
v -30.2179 -105.113 1501.79
v -30.6632 -104.923 1500.5
v -30.6568 -104.561 1500.82
v -30.3686 -104.882 1501.81
v -29.4131 -104.971 1501.99
v -27.7717 -104.4 1502.4
v -27.2149 -104.097 1502.18
v -27.2701 -102.988 1502.87
v -26.1727 -103.651 1502.93
v -26.9759 -103.027 1502.3
v -26.3774 -103.246 1502.36
v -26.5772 -103.035 1503.54
v -26.3363 -102.467 1503.02
v -25.8452 -103.35 1502.77
v -25.8254 -103.266 1503.66
v -25.4204 -102.942 1502.91
v -25.6254 -102.488 1504.13
v -25.7911 -102.107 1503.55
v -25.6234 -102.034 1503.41
v -25.6337 -102.217 1504.07
v -24.6818 -102.643 1503.6
v -24.6011 -102.649 1504.1
v -24.7254 -102.501 1504.52
v -25.2045 -102.306 1503.12
v -24.8171 -102.358 1503.32
v -24.9982 -102.058 1504.7
v -24.8868 -101.485 1504.73
v -24.5823 -101.181 1504.44
v -24.4965 -100.933 1505.14
v -24.5247 -101.317 1505.46
v -24.2228 -102.365 1504.31
v -24.1532 -101.718 1503.98
v -24.0357 -102.073 1504.19
v -24.0282 -102.065 1504.95
v -23.7863 -101.904 1504.74
v -24.3306 -101.772 1505.37
v -24.5326 -101.357 1504.1
v -24.0323 -101.204 1504.39
v -23.82 -101.326 1506.14
v -24.3122 -100.986 1506.04
v -24.0242 -101.102 1506.37
v -23.7798 -100.385 1505.48
v -24.1711 -99.9063 1507.39
v -24.077 -100.038 1507.66
v -23.9254 -99.4256 1507.15
v -23.9234 -98.843 1509.52
v -24.0375 -97.7521 1510.52
v -23.7277 -97.2889 1511.7
v -23.9965 -97.2407 1510.53
v -23.9841 -96.2124 1512.52
v -23.7084 -95.8565 1513.29
v -23.7934 -95.1429 1512.54
v -23.887 -95.112 1513.87
v -23.9633 -94.8371 1513.07
v -24.0604 -94.4945 1513.94
v -23.731 -94.1907 1514.88
v -23.9916 -93.5985 1515.06
v -24.0063 -93.3954 1514.48
v -23.6946 -92.9261 1514.5
v -24.0678 -92.8839 1515.24
v -23.884 -92.852 1515.83
v -23.8089 -91.665 1515.56
v -23.9969 -91.9601 1516.25
v -23.8056 -91.6013 1516.77
v -23.9858 -90.7934 1516.52
v -23.9188 -90.633 1517.17
v -23.7139 -90.2313 1517.61
v -23.9189 -89.5741 1517.55
v -23.7285 -88.2982 1518.3
v -23.7917 -88.0229 1517.98
v -23.6445 -87.9894 1517.65
v -23.6607 -87.0318 1518.52
v -23.4836 -101.19 1504.99
v -23.3519 -101.179 1505.95
v -23.3057 -101.086 1505.49
v -23.5276 -101.268 1506.12
v -23.3539 -100.519 1505.63
v -23.1738 -100.409 1507.22
v -23.0286 -99.8585 1507.24
v -23.3399 -100.259 1507.73
v -23.3456 -99.6573 1506.73
v -23.5439 -99.7866 1508.54
v -23.6318 -98.9709 1509.65
v -23.3272 -98.9116 1509.74
v -23.0604 -99.0462 1509.26
v -23.3411 -97.3726 1509.83
v -23.0571 -97.9574 1509.33
v -22.9066 -97.818 1510.57
v -23.044 -97.806 1510.92
v -23.6442 -97.0429 1510.27
v -22.8508 -96.9189 1511.29
v -23.4261 -97.0504 1512.07
v -23.2407 -95.5842 1511.97
v -22.9262 -95.9714 1511.92
v -23.1584 -95.879 1513.23
v -23.0567 -94.0699 1513.64
v -22.9224 -94.7701 1513.97
v -22.885 -94.2145 1513.85
v -23.5149 -94.4035 1514.77
v -23.2226 -93.785 1515.24
v -22.9379 -92.9166 1515.64
v -22.8486 -92.7432 1515.47
v -23.5244 -92.6852 1516.17
v -23.2188 -92.2245 1516.47
v -23.4158 -91.6234 1515.43
v -23.0224 -92.1009 1515.29
v -23.251 -90.7762 1517.42
v -23.0228 -91.1149 1517.09
v -23.5304 -89.8605 1516.57
v -23.1067 -90.2534 1516.37
v -22.9375 -88.9344 1518.29
v -23.3261 -88.6462 1518.49
v -23.2961 -87.9306 1517.46
v -23.3202 -87.4431 1518.9
v -23.0101 -87.0056 1519.08
v -23.1351 -86.2871 1518.01
v -23.442 -85.9191 1518.44
v -23.4983 -85.9442 1518.67
v -23.3758 -86.2102 1519.05
v -23.0176 -85.9518 1519.32
v -23.019 -85.0915 1518.29
v -23.2782 -84.9487 1519.03
v -23.2381 -84.6314 1518.88
v -23.0214 -84.7003 1519.37
v -22.9184 -83.72 1518.65
v -22.9846 -83.6501 1519.04
v -22.8869 -83.7281 1519.34
v -22.7536 -89.8674 1517.01
v -22.7359 -88.9761 1518.04
v -22.7583 -87.8721 1517.64
v -22.6007 -87.3518 1518.76
v -22.8026 -86.9196 1517.86
v -22.41 -86.9899 1518.32
v -22.1428 -85.6114 1518.86
v -22.8073 -85.1337 1518.2
v -22.4206 -85.0957 1518.27
v -22.1059 -85.1591 1518.6
v -22.4438 -85.3436 1519.38
v -22.7169 -84.5591 1519.53
v -22.643 -83.8059 1518.37
v -22.5228 -83.3801 1518.56
v -22.341 -83.7875 1518.34
v -22.1309 -83.3645 1518.64
v -22.8166 -83.4517 1519.23
v -22.8083 -83.3776 1518.85
v -22.7344 -83.8109 1519.5
v -22.7155 -83.5653 1519.44
v -22.6314 -83.3732 1519.34
v -22.622 -83.2631 1519.13
v -22.5161 -83.2202 1518.85
v -22.4318 -83.469 1519.49
v -22.4223 -83.308 1519.33
v -22.421 -83.2124 1519.13
v -22.2295 -83.2283 1518.83
v -22.2366 -83.2108 1519.03
v -22.2062 -83.2777 1519.23
v -22.1324 -83.8838 1519.53
v -22.1399 -83.4711 1519.42
v -22.0617 -83.2842 1519.04
v -22.5287 -83.765 1519.58
v -22.344 -83.9227 1519.6
v -22.3228 -83.66 1519.58
v -21.9578 -83.8678 1518.52
v -22.0287 -83.3132 1518.84
v -22.0192 -83.3838 1519.23
v -21.9075 -83.669 1519.35
v -21.8846 -83.5096 1518.76
v -21.9251 -83.392 1519.03
v -21.8062 -84.0433 1519.15
v -21.878 -84.1255 1519.24
v -21.779 -83.9502 1518.86
v -21.7797 -83.7808 1519.15
v -21.7946 -83.5949 1518.96
v -21.8358 -83.5725 1519.16
v -39.8055 -112.644 1482.25
v -39.0175 -112.392 1481.59
v -38.8778 -112.307 1483
v -39.2885 -111.389 1484.76
v -38.8814 -111.053 1486.44
v -38.4991 -113.152 1480.36
v -38.732 -112.984 1481.64
v -38.738 -112.734 1481.58
v -38.5793 -110.868 1488.83
v -38.0919 -109.332 1491.34
v -37.2492 -109.293 1493.93
v -36.9254 -108.525 1494.03
v -36.336 -108.544 1495.36
v -34.9853 -107.659 1497.34
v -35.2543 -107.275 1496.86
v -35.2617 -106.72 1497.58
v -34.0488 -106.67 1498.19
v -33.4073 -105.726 1499.35
v -32.509 -106.117 1499.44
v -30.6518 -105.59 1500.66
v -30.6568 -104.561 1500.82
v -27.2149 -104.097 1502.18
v -27.2701 -102.988 1502.87
v -25.6337 -102.217 1504.07
v -24.7254 -102.501 1504.52
v -24.8171 -102.358 1503.32
v -24.9982 -102.058 1504.7
v -24.8868 -101.485 1504.73
v -24.4965 -100.933 1505.14
v -24.4965 -100.933 1505.14
v -24.5247 -101.317 1505.46
v -24.3306 -101.772 1505.37
v -23.9254 -99.4256 1507.15
v -23.7934 -95.1429 1512.54
v -23.9633 -94.8371 1513.07
v -23.6946 -92.9261 1514.5
v -23.1738 -100.409 1507.22
v -23.3456 -99.6573 1506.73
v -23.6442 -97.0429 1510.27
v -22.8026 -86.9196 1517.86
v -22.41 -86.9899 1518.32
vn -0.929226 0.318971 -0.18654
vn -0.786103 -0.60703 0.116435
vn -0.566857 -0.788522 0.23855
vn -0.996235 -0.0866677 0.00217503
vn -0.460741 0.842113 -0.280291
vn -0.886399 -0.439389 0.145715
vn -0.901827 0.40843 -0.141041
vn -0.994067 -0.0649467 0.0872491
vn -0.721901 -0.640636 0.26162
vn -0.880786 0.467776 -0.0734962
vn -0.659575 0.726071 -0.194374
vn -0.981013 0.173472 0.0867239
vn -0.92294 -0.0818504 -0.376143
vn -0.778787 -0.625633 -0.0455464
vn -0.939199 -0.239248 -0.246304
vn -0.903136 0.207613 -0.375822
vn -0.965246 -0.163328 -0.204019
vn -0.881664 -0.471509 -0.0186781
vn -0.430787 -0.884332 0.179941
vn 0.546767 -0.778525 0.308133
vn -0.906545 0.288621 -0.308017
vn -0.706393 0.592222 -0.387663
vn -0.393171 0.839568 -0.374891
vn -0.979837 0.0525256 -0.192769
vn -0.731561 0.614699 -0.294895
vn 0.0442784 0.959252 -0.279062
vn 0.250589 0.929475 -0.270707
vn -0.153721 -0.949454 0.273692
vn 0.291698 -0.913588 0.283318
vn 0.869159 -0.463676 0.171953
vn 0.712873 0.676081 -0.186354
vn -0.12506 -0.945724 0.299943
vn 0.955911 -0.29324 0.0156393
vn 0.565336 -0.800145 0.200407
vn -0.343852 -0.876885 0.335914
vn 0.691738 0.693631 -0.200935
vn -0.201378 0.93675 -0.286263
vn 0.5184 0.798638 -0.305677
vn -0.493017 0.845447 -0.205315
vn -0.889378 -0.371467 0.266494
vn -0.76286 0.642332 -0.0738555
vn -0.574404 -0.724679 0.380658
vn 0.290928 0.901742 -0.319722
vn 0.225212 0.912202 -0.342297
vn -0.967367 0.197188 0.159118
vn -0.894541 -0.301919 0.329609
vn -0.748301 0.662778 -0.0277747
vn -0.497624 -0.795389 -0.346017
vn -0.677031 -0.72418 -0.13112
vn -0.424796 -0.904535 0.036956
vn -0.111034 -0.766636 -0.632409
vn -0.0535445 -0.984953 -0.16432
vn -0.0515477 -0.978985 0.19731
vn 0.366923 -0.924482 0.103438
vn 0.337397 -0.785806 -0.518335
vn -0.812702 -0.482835 -0.326168
vn -0.787979 -0.217446 -0.576027
vn -0.78924 0.206267 -0.578407
vn -0.61507 0.620205 -0.486861
vn -0.486687 -0.514273 -0.706158
vn -0.49601 -0.0273401 -0.867886
vn -0.431421 0.509175 -0.744725
vn 0.00211351 -0.366289 -0.930499
vn -0.102131 0.183643 -0.977673
vn -0.153744 0.873627 -0.461669
vn 0.0620324 0.644801 -0.761829
vn 0.376691 0.124599 -0.917921
vn 0.298807 0.880702 -0.36753
vn 0.445864 -0.379342 -0.810743
vn 0.465072 0.602815 -0.648322
vn 0.714252 0.639007 -0.285507
vn 0.577658 0.808032 -0.115742
vn 0.864397 -0.374406 0.335615
vn 0.322186 -0.879032 0.351423
vn 0.724532 0.688919 -0.0210633
vn 0.838886 0.543421 0.0310446
vn 0.780376 -0.560335 0.277556
vn 0.811875 0.580391 -0.0632829
vn 0.765111 -0.640543 0.065648
vn 0.337612 -0.912677 0.2303
vn 0.909204 0.298049 -0.290716
vn 0.896073 0.279305 -0.345025
vn -0.0252126 -0.940545 0.338733
vn -0.659737 -0.61475 0.432237
vn -0.941394 -0.0833755 0.326843
vn -0.263894 0.93065 -0.253478
vn 0.31026 0.859085 -0.407077
vn -0.923483 0.342396 0.173042
vn -0.937338 0.214093 0.274885
vn -0.728366 0.684983 0.0167774
vn -0.845201 -0.298052 0.443622
vn -0.827017 0.542669 0.146809
vn 0.769198 -0.564581 0.299304
vn 0.750353 -0.42591 -0.50554
vn 0.704932 -0.694613 -0.143472
vn 0.697502 -0.0604571 -0.714028
vn 0.747778 0.302718 -0.590924
vn 0.866313 0.497684 0.042564
vn 0.963288 -0.266971 -0.0283295
vn 0.90704 -0.0360903 -0.419494
vn 0.96565 0.227288 -0.125935
vn 0.966697 0.0853497 0.241272
vn 0.961537 -0.164955 -0.219626
vn 0.699367 -0.714252 0.0270275
vn 0.900209 -0.39284 -0.187882
vn -0.35863 -0.8123 0.459949
vn 0.937798 0.0468831 -0.344002
vn -0.921652 0.095821 0.376001
vn -0.799552 -0.297342 0.521827
vn -0.464541 0.87571 -0.131659
vn -0.883995 0.30029 0.3583
vn -0.707663 0.700375 0.0932114
vn 0.149002 -0.944486 0.292821
vn 0.890537 -0.394877 -0.225868
vn 0.110948 -0.939658 0.323627
vn 0.903916 -0.0574199 -0.423838
vn 0.0582594 0.922181 -0.382345
vn -0.483654 -0.667935 0.565634
vn -0.820165 -0.0813431 0.566315
vn 0.582678 -0.812703 -0.000573827
vn -0.54844 -0.513478 0.659965
vn -0.237814 -0.796254 0.55626
vn -0.453904 0.887211 -0.0826322
vn -0.758836 0.594132 0.266786
vn -0.808785 0.269442 0.52275
vn 0.832193 -0.226374 -0.506172
vn 0.407364 -0.907635 0.101254
vn 0.800304 -0.122907 -0.586862
vn -0.687973 -0.194302 0.699242
vn 0.235005 0.787414 -0.56987
vn 0.080863 -0.913809 0.398013
vn -0.374982 -0.60901 0.698925
vn 0.22878 0.725614 -0.648956
vn 0.47814 0.447044 -0.755999
vn -0.697346 0.596792 0.396922
vn -0.508191 0.85896 0.0626857
vn -0.73555 0.169022 0.656047
vn 0.497646 -0.865766 -0.0528996
vn 0.723086 -0.437054 -0.534911
vn -0.5552 -0.22826 0.799781
vn -0.67683 0.317286 0.664252
vn -0.364222 0.924266 -0.11435
vn 0.338265 -0.934071 0.114404
vn 0.584774 -0.715091 -0.382995
vn 0.645704 -0.425976 -0.633727
vn -0.135582 -0.750761 0.64651
vn -0.343846 -0.428481 0.835568
vn 0.257612 0.584343 -0.769532
vn -0.599363 0.675228 0.42992
vn -0.57108 0.143782 0.808204
vn -0.408754 0.912644 0.000406594
vn 0.0227781 -0.802385 0.596372
vn -0.553609 0.493154 0.671056
vn -0.361781 -0.247869 0.898708
vn 0.53018 -0.336681 -0.778174
vn 0.547426 -0.550868 -0.629975
vn -0.187219 -0.482329 0.85575
vn 0.288665 0.346906 -0.892372
vn 0.0615775 0.697275 -0.714154
vn -0.419564 -0.0308241 0.907202
vn 0.0660522 -0.789104 0.610698
vn 0.320892 -0.922696 0.213682
vn 0.482446 -0.854939 -0.190591
vn -0.586452 0.583053 0.562249
vn 0.494288 -0.869184 -0.0140823
vn -0.113973 0.792812 -0.598714
vn 0.446801 0.00717174 -0.894605
vn -0.478183 -0.00422823 0.87825
vn -0.42284 0.876547 -0.22994
vn 0.61394 -0.578873 -0.536642
vn 0.0758333 -0.769883 0.633663
vn 0.6306 -0.262798 -0.730261
vn -0.536921 -0.138546 0.832178
vn -0.604901 0.793549 0.0661429
vn -0.349287 0.872121 -0.342643
vn -0.669 0.171896 0.723112
vn 0.713206 -0.601632 -0.359689
vn 0.457228 -0.867741 0.194855
vn -0.372916 -0.472439 0.798583
vn 0.309088 0.471863 -0.825718
vn 0.468182 0.207892 -0.858828
vn -0.784327 0.129424 0.606696
vn -0.755246 0.646518 0.107792
vn -0.506298 0.828014 -0.240944
vn -0.952657 0.165147 0.255286
vn -0.69504 -0.411745 0.589394
vn 0.683652 -0.729252 -0.0284923
vn 0.6561 0.226104 -0.720007
vn 0.837365 -0.32256 -0.441334
vn 0.387551 -0.840516 0.378598
vn 0.83367 -0.547468 -0.0726182
vn -0.602707 -0.458906 0.652801
vn -0.0444987 0.794838 -0.605188
vn 0.426082 0.585896 -0.689333
vn -0.00317854 -0.841045 0.540956
vn -0.915751 -0.21996 0.33618
vn -0.557765 -0.643495 0.524226
vn -0.0281653 0.845456 -0.533303
vn -0.996859 0.0539931 0.0579429
vn -0.861122 -0.38828 0.328189
vn -0.171153 0.827904 -0.534117
vn -0.728588 -0.5368 0.425447
vn -0.971007 -0.178866 0.158595
vn -0.493612 -0.66303 0.562796
vn -0.908693 0.330939 -0.25447
vn -0.828024 -0.416841 0.374992
vn -0.342401 -0.674446 0.654128
vn -0.686926 0.512902 -0.514844
vn -0.759887 -0.454711 0.464554
vn -0.969013 0.172633 -0.17667
vn -0.998101 -0.0450378 0.0420238
vn -0.475654 -0.57811 0.66298
vn -0.872586 -0.315144 0.3732
vn -0.859291 0.329177 -0.391486
vn -0.297899 0.614631 -0.7304
vn -0.999691 -0.00662207 0.0239723
vn -0.652818 -0.453297 0.606918
vn -0.579336 0.48567 -0.654595
vn -0.927833 -0.195036 0.317942
vn -0.551064 -0.439306 0.709463
vn -0.953475 0.188243 -0.235477
vn -0.894853 -0.190746 0.403552
vn -0.578111 -0.345546 0.739179
vn -0.953704 -0.0707497 0.292306
vn -0.823564 -0.129567 0.552227
vn -0.985149 0.144499 -0.0927404
vn -0.691685 0.328962 -0.642928
vn -0.960292 0.0536075 0.273799
vn 0.872871 0.0622895 -0.483958
vn 0.821105 -0.553069 0.141076
vn 0.970839 -0.160429 -0.178139
vn 0.461749 -0.791683 0.400034
vn 0.746073 0.456998 -0.484281
vn 0.62281 -0.688926 0.370796
vn 0.990592 0.0510434 -0.126975
vn 0.391025 -0.782572 0.484439
vn 0.0784252 0.813784 -0.575852
vn -0.049107 -0.825143 0.562786
vn -0.273625 -0.76567 0.582132
vn 0.278803 -0.773154 0.569651
vn 0.777843 -0.527433 0.341723
vn 0.157896 0.769884 -0.618343
vn 0.668984 0.572613 -0.473893
vn 0.936632 -0.282603 0.207016
vn 0.657212 -0.581687 0.479283
vn -0.651067 0.584179 -0.48461
vn 0.99944 0.0178389 -0.0283078
vn 0.0696304 -0.755246 0.651733
vn 0.300937 0.697749 -0.650064
vn 0.830624 0.408005 -0.378941
vn 0.400851 -0.653375 0.642199
vn 0.531322 0.562621 -0.633368
vn 0.897279 -0.309866 0.314443
vn 0.960874 0.188544 -0.202909
vn -0.0207207 -0.672389 0.739908
vn 0.434007 -0.585147 0.685012
vn 0.802806 -0.371566 0.466305
vn 0.999367 -0.034531 0.00850862
vn -0.149302 -0.586939 0.795746
vn 0.376853 -0.542242 0.75097
vn 0.0378502 0.573274 -0.818489
vn 0.73691 0.386026 -0.55493
vn 0.0468763 -0.503608 0.86266
vn 0.621106 -0.42665 0.657417
vn -0.374925 0.468387 -0.800028
vn 0.429133 0.411395 -0.804114
vn 0.441004 -0.394777 0.806019
vn -0.200324 -0.372101 0.906317
vn -0.0564616 0.372022 -0.926505
vn -0.455233 -0.214829 0.864067
vn 0.134884 -0.300976 0.944045
vn -0.360624 0.284307 -0.888324
vn -0.846477 0.251309 -0.469383
vn -0.985326 0.158918 0.0622783
vn -0.792452 -0.0132688 0.60979
vn -0.28093 -0.140507 0.949387
vn -0.551702 0.225866 -0.802875
vn -0.922149 0.148743 0.357095
vn -0.968982 0.232316 -0.0842813
vn -0.657062 0.0453153 0.752473
vn -0.781578 0.358767 -0.510316
vn -0.928439 0.35739 0.101354
vn -0.794494 0.246762 0.554876
vn 0.95061 0.103174 -0.292739
vn 0.905701 -0.242055 0.348017
vn 0.512821 0.284953 -0.809825
vn 0.761342 -0.292922 0.578407
vn 0.12425 0.22761 -0.965793
vn 0.763158 0.142538 -0.630296
vn 0.965993 -0.231567 0.115037
vn -0.0921359 0.16604 -0.981805
vn 0.454379 0.0300605 -0.890301
vn 0.862374 -0.10826 -0.494561
vn 0.350652 -0.219266 0.910476
vn -0.209049 -0.0608207 0.976012
vn -0.369252 0.294962 -0.881278
vn -0.228733 0.683693 -0.692997
vn 0.17023 0.259857 -0.950524
vn 0.396137 0.623357 -0.674168
vn -0.715657 0.592813 0.369334
vn -0.684428 0.704462 -0.187858
vn -0.52254 0.131664 0.842387
vn -0.499061 0.410574 0.763129
vn -0.379977 0.708089 0.59517
vn -0.409746 0.880086 0.239911
vn -0.201674 0.963494 -0.17609
vn -0.0970688 0.544265 0.833279
vn -0.0371827 0.815251 0.577913
vn -0.0521046 0.968615 0.243044
vn 0.217252 0.93282 -0.287487
vn 0.187395 0.979398 0.0752534
vn 0.281067 0.857778 0.430369
vn 0.492705 0.00617897 0.870175
vn 0.371285 0.534947 0.758933
vn 0.481419 0.869183 0.11295
vn -0.219283 0.177602 0.95936
vn 0.112204 -0.0472337 0.992562
vn 0.156784 0.254649 0.954239
vn 0.689038 0.103423 -0.717308
vn 0.570996 0.788397 -0.228895
vn 0.601821 0.661882 0.446906
vn 0.729604 0.214882 0.649233
vn 0.807527 0.431134 -0.402523
vn 0.751552 0.656136 0.0682278
vn 0.947614 -0.175028 0.267193
vn 0.792551 -0.186069 0.580725
vn 0.975317 -0.0529493 -0.214367
vn 0.950523 0.0423658 0.307751
vn 0.947824 0.315424 -0.0462239
vn 0.846883 0.421632 0.324061
vn -0.949812 -0.312526 -0.0135599
vn 0.771154 0.631406 -0.0815313
vn 0.993611 -0.10029 0.0517615
vn -0.00607951 0.954487 -0.29819
vn 0.995622 0.0325328 -0.0876291
vn 0.972497 -0.0256297 0.231502
vn 0.988658 0.0294858 0.147263
vn 0.992227 0.0420536 0.117116
vn 0.983146 -0.0720601 -0.168019
vn 0.776207 0.482368 -0.405985
vn 0.689278 -0.724113 -0.0235615
vn 0.418333 0.745911 -0.51828
vn 0.886769 -0.233407 -0.39895
vn 0.600362 -0.789418 -0.128006
vn 0.33587 0.705676 -0.623869
vn -0.344127 0.925895 -0.155869
vn 0.715864 -0.192095 -0.671295
vn 0.0271338 0.825287 -0.564061
vn 0.458393 0.206784 -0.864359
vn 0.453127 -0.880977 -0.13622
vn -0.272589 0.926367 -0.259883
vn 0.525112 -0.416062 -0.742395
vn -0.465012 0.882336 -0.0724341
vn -0.700828 0.625992 0.342015
vn 0.239667 -0.847873 0.472939
vn 0.747365 -0.220168 -0.626875
vn -0.462671 -0.491582 0.737756
vn -0.84377 0.207058 0.495155
vn -0.566879 0.770777 -0.290775
vn -0.901538 0.427841 -0.0646661
vn -0.911811 0.251871 0.324286
vn -0.0535027 -0.809168 0.585136
vn -0.843296 0.477162 -0.247323
vn -0.123897 0.72943 -0.672741
vn -0.675468 0.531199 -0.51144
vn -0.220825 0.652487 -0.724911
vn 0.964067 -0.256553 0.068953
vn 0.746509 0.521413 -0.413343
vn -0.0682514 0.787862 -0.612059
vn 0.754831 0.0501858 -0.653997
vn 0.972984 -0.196639 0.120972
g grp1
usemtl mtl1
f 21//21 24//24 25//25 
f 24//24 1//1 25//25 
f 2//2 4//4 331//331 
f 4//4 2//2 6//6 
f 6//6 3//3 9//9 
f 2//2 3//3 6//6 
f 3//3 2//2 28//28 
f 4//4 7//7 1//1 
f 25//25 1//1 7//7 
f 25//25 7//7 5//5 
f 5//5 26//26 25//25 
f 4//4 8//8 7//7 
f 4//4 6//6 8//8 
f 9//9 8//8 6//6 
f 8//8 10//10 7//7 
f 8//8 9//9 40//40 
f 5//5 7//7 11//11 
f 5//5 11//11 37//37 
f 7//7 10//10 11//11 
f 11//11 10//10 39//39 
f 37//37 11//11 39//39 
f 40//40 12//12 8//8 
f 8//8 12//12 10//10 
f 10//10 12//12 41//41 
f 35//35 40//40 9//9 
f 40//40 45//45 12//12 
f 56//56 15//15 13//13 
f 58//58 13//13 16//16 
f 21//21 16//16 17//17 
f 16//16 21//21 22//22 
f 14//14 15//15 56//56 
f 13//13 15//15 16//16 
f 16//16 22//22 59//59 
f 15//15 14//14 17//17 
f 16//16 15//15 17//17 
f 18//18 19//19 2//2 
f 18//18 331//331 24//24 
f 18//18 2//2 331//331 
f 14//14 18//18 17//17 
f 18//18 14//14 19//19 
f 24//24 17//17 18//18 
f 28//28 2//2 19//19 
f 74//74 28//28 19//19 
f 20//20 28//28 74//74 
f 29//29 28//28 20//20 
f 23//23 22//22 25//25 
f 59//59 22//22 23//23 
f 25//25 22//22 21//21 
f 25//25 26//26 23//23 
f 17//17 24//24 21//21 
f 30//30 20//20 77//77 
f 20//20 30//30 29//29 
f 78//78 36//36 31//31 
f 338//338 333//333 30//30 
f 32//32 3//3 28//28 
f 29//29 32//32 28//28 
f 30//30 34//34 29//29 
f 32//32 29//29 34//34 
f 34//34 30//30 33//33 
f 26//26 334//334 27//27 
f 26//26 5//5 334//334 
f 31//31 36//36 38//38 
f 333//333 335//335 33//33 
f 30//30 333//333 33//33 
f 43//43 38//38 36//36 
f 32//32 9//9 3//3 
f 34//34 80//80 32//32 
f 34//34 79//79 80//80 
f 33//33 79//79 34//34 
f 35//35 9//9 32//32 
f 32//32 80//80 35//35 
f 334//334 5//5 37//37 
f 43//43 334//334 37//37 
f 43//43 37//37 44//44 
f 81//81 33//33 335//335 
f 44//44 37//37 39//39 
f 41//41 39//39 10//10 
f 86//86 44//44 39//39 
f 41//41 86//86 39//39 
f 12//12 45//45 41//41 
f 40//40 46//46 45//45 
f 35//35 42//42 40//40 
f 40//40 42//42 46//46 
f 44//44 86//86 87//87 
f 42//42 84//84 46//46 
f 45//45 47//47 41//41 
f 46//46 85//85 45//45 
f 84//84 85//85 46//46 
f 88//88 47//47 45//45 
f 49//49 14//14 56//56 
f 48//48 50//50 49//49 
f 50//50 14//14 49//49 
f 49//49 56//56 48//48 
f 50//50 48//48 52//52 
f 50//50 19//19 14//14 
f 48//48 60//60 51//51 
f 52//52 48//48 51//51 
f 52//52 53//53 50//50 
f 50//50 53//53 19//19 
f 53//53 74//74 19//19 
f 60//60 63//63 51//51 
f 51//51 55//55 52//52 
f 55//55 54//54 52//52 
f 52//52 54//54 53//53 
f 55//55 51//51 63//63 
f 54//54 74//74 53//53 
f 54//54 93//93 74//74 
f 55//55 95//95 54//54 
f 60//60 48//48 56//56 
f 57//57 61//61 60//60 
f 13//13 57//57 56//56 
f 57//57 60//60 56//56 
f 58//58 61//61 57//57 
f 13//13 58//58 57//57 
f 59//59 58//58 16//16 
f 65//65 59//59 23//23 
f 62//62 61//61 58//58 
f 58//58 59//59 62//62 
f 62//62 59//59 65//65 
f 63//63 60//60 61//61 
f 64//64 63//63 61//61 
f 64//64 61//61 62//62 
f 62//62 66//66 64//64 
f 62//62 65//65 66//66 
f 68//68 65//65 26//26 
f 64//64 67//67 63//63 
f 63//63 67//67 69//69 
f 64//64 66//66 67//67 
f 66//66 65//65 68//68 
f 68//68 26//26 72//72 
f 55//55 63//63 69//69 
f 96//96 69//69 67//67 
f 66//66 70//70 67//67 
f 70//70 66//66 68//68 
f 71//71 70//70 68//68 
f 71//71 68//68 72//72 
f 69//69 94//94 55//55 
f 94//94 95//95 55//55 
f 96//96 94//94 69//69 
f 67//67 70//70 97//97 
f 71//71 97//97 70//70 
f 102//102 75//75 76//76 
f 102//102 336//336 73//73 
f 93//93 73//73 74//74 
f 98//98 75//75 102//102 
f 20//20 74//74 73//73 
f 77//77 20//20 73//73 
f 73//73 336//336 337//337 
f 26//26 65//65 23//23 
f 72//72 26//26 75//75 
f 75//75 26//26 27//27 
f 76//76 75//75 78//78 
f 332//332 78//78 75//75 
f 36//36 78//78 332//332 
f 336//336 338//338 337//337 
f 337//337 338//338 30//30 
f 33//33 81//81 339//339 
f 38//38 43//43 44//44 
f 38//38 44//44 81//81 
f 80//80 79//79 104//104 
f 83//83 42//42 35//35 
f 104//104 83//83 80//80 
f 80//80 83//83 35//35 
f 340//340 81//81 44//44 
f 81//81 340//340 82//82 
f 103//103 339//339 81//81 
f 79//79 103//103 104//104 
f 104//104 103//103 105//105 
f 81//81 82//82 103//103 
f 45//45 85//85 88//88 
f 83//83 84//84 42//42 
f 83//83 104//104 113//113 
f 84//84 106//106 91//91 
f 83//83 106//106 84//84 
f 47//47 86//86 41//41 
f 47//47 88//88 90//90 
f 47//47 90//90 86//86 
f 88//88 89//89 90//90 
f 85//85 89//89 88//88 
f 86//86 90//90 110//110 
f 87//87 86//86 117//117 
f 117//117 86//86 110//110 
f 85//85 91//91 89//89 
f 91//91 85//85 84//84 
f 89//89 91//91 108//108 
f 89//89 92//92 90//90 
f 89//89 108//108 92//92 
f 90//90 92//92 110//110 
f 91//91 106//106 109//109 
f 54//54 95//95 93//93 
f 95//95 94//94 99//99 
f 95//95 99//99 93//93 
f 102//102 73//73 93//93 
f 96//96 100//100 94//94 
f 99//99 94//94 100//100 
f 97//97 100//100 96//96 
f 67//67 97//97 96//96 
f 100//100 97//97 101//101 
f 101//101 97//97 71//71 
f 101//101 98//98 102//102 
f 71//71 98//98 101//101 
f 71//71 72//72 98//98 
f 75//75 98//98 72//72 
f 102//102 93//93 99//99 
f 99//99 100//100 101//101 
f 99//99 101//101 102//102 
f 107//107 103//103 82//82 
f 103//103 107//107 105//105 
f 106//106 83//83 113//113 
f 105//105 114//114 104//104 
f 340//340 107//107 82//82 
f 107//107 340//340 116//116 
f 105//105 107//107 114//114 
f 107//107 116//116 114//114 
f 109//109 108//108 91//91 
f 112//112 110//110 92//92 
f 108//108 111//111 92//92 
f 114//114 341//341 104//104 
f 108//108 109//109 111//111 
f 118//118 109//109 106//106 
f 109//109 118//118 119//119 
f 117//117 342//342 87//87 
f 111//111 112//112 92//92 
f 109//109 119//119 111//111 
f 106//106 113//113 115//115 
f 115//115 118//118 106//106 
f 120//120 115//115 341//341 
f 120//120 341//341 114//114 
f 130//130 342//342 117//117 
f 110//110 112//112 123//123 
f 119//119 124//124 111//111 
f 117//117 110//110 123//123 
f 124//124 112//112 111//111 
f 123//123 112//112 124//124 
f 114//114 116//116 343//343 
f 343//343 116//116 126//126 
f 116//116 128//128 126//126 
f 119//119 118//118 121//121 
f 122//122 118//118 115//115 
f 121//121 118//118 122//122 
f 117//117 123//123 346//346 
f 342//342 130//130 345//345 
f 125//125 124//124 119//119 
f 119//119 129//129 125//125 
f 121//121 129//129 119//119 
f 120//120 127//127 115//115 
f 120//120 344//344 127//127 
f 344//344 138//138 127//127 
f 132//132 121//121 122//122 
f 131//131 122//122 115//115 
f 127//127 131//131 115//115 
f 131//131 132//132 122//122 
f 345//345 130//130 133//133 
f 132//132 129//129 121//121 
f 123//123 124//124 136//136 
f 346//346 123//123 136//136 
f 126//126 128//128 139//139 
f 345//345 133//133 134//134 
f 128//128 347//347 139//139 
f 125//125 129//129 137//137 
f 131//131 146//146 132//132 
f 138//138 131//131 127//127 
f 132//132 140//140 129//129 
f 132//132 146//146 140//140 
f 125//125 135//135 124//124 
f 125//125 137//137 135//135 
f 124//124 135//135 136//136 
f 346//346 136//136 142//142 
f 129//129 140//140 137//137 
f 135//135 137//137 141//141 
f 135//135 149//149 136//136 
f 141//141 137//137 140//140 
f 135//135 141//141 149//149 
f 139//139 138//138 344//344 
f 138//138 139//139 144//144 
f 138//138 143//143 131//131 
f 138//138 144//144 143//143 
f 146//146 131//131 143//143 
f 347//347 145//145 139//139 
f 134//134 133//133 148//148 
f 140//140 146//146 147//147 
f 130//130 348//348 133//133 
f 147//147 150//150 140//140 
f 140//140 150//150 141//141 
f 141//141 150//150 149//149 
f 148//148 133//133 348//348 
f 146//146 143//143 152//152 
f 148//148 349//349 134//134 
f 139//139 145//145 144//144 
f 154//154 150//150 147//147 
f 136//136 149//149 151//151 
f 153//153 149//149 150//150 
f 151//151 149//149 153//153 
f 152//152 147//147 146//146 
f 152//152 154//154 147//147 
f 155//155 144//144 145//145 
f 142//142 136//136 151//151 
f 148//148 348//348 159//159 
f 148//148 158//158 349//349 
f 150//150 154//154 153//153 
f 351//351 142//142 151//151 
f 143//143 162//162 152//152 
f 161//161 152//152 162//162 
f 158//158 148//148 159//159 
f 158//158 155//155 349//349 
f 157//157 154//154 152//152 
f 154//154 160//160 153//153 
f 157//157 160//160 154//154 
f 151//151 153//153 164//164 
f 155//155 156//156 144//144 
f 144//144 350//350 143//143 
f 161//161 157//157 152//152 
f 159//159 166//166 158//158 
f 351//351 151//151 166//166 
f 166//166 151//151 353//353 
f 160//160 168//168 153//153 
f 164//164 153//153 168//168 
f 157//157 168//168 160//160 
f 350//350 163//163 143//143 
f 143//143 163//163 162//162 
f 157//157 161//161 171//171 
f 169//169 166//166 353//353 
f 352//352 156//156 155//155 
f 167//167 155//155 158//158 
f 167//167 352//352 155//155 
f 162//162 171//171 161//161 
f 165//165 162//162 163//163 
f 171//171 168//168 157//157 
f 162//162 165//165 171//171 
f 167//167 158//158 166//166 
f 169//169 353//353 174//174 
f 168//168 176//176 164//164 
f 352//352 167//167 170//170 
f 165//165 163//163 170//170 
f 165//165 178//178 171//171 
f 166//166 180//180 167//167 
f 170//170 167//167 172//172 
f 176//176 168//168 173//173 
f 168//168 179//179 173//173 
f 171//171 179//179 168//168 
f 166//166 169//169 175//175 
f 174//174 175//175 169//169 
f 193//193 166//166 175//175 
f 354//354 174//174 353//353 
f 176//176 173//173 182//182 
f 354//354 183//183 174//174 
f 170//170 177//177 165//165 
f 172//172 167//167 181//181 
f 172//172 177//177 170//170 
f 356//356 177//177 172//172 
f 179//179 357//357 173//173 
f 178//178 355//355 171//171 
f 178//178 165//165 177//177 
f 187//187 178//178 177//177 
f 190//190 178//178 187//187 
f 167//167 180//180 181//181 
f 193//193 180//180 166//166 
f 356//356 189//189 177//177 
f 180//180 194//194 188//188 
f 188//188 181//181 180//180 
f 194//194 180//180 193//193 
f 182//182 358//358 176//176 
f 192//192 186//186 357//357 
f 182//182 361//361 358//358 
f 179//179 192//192 357//357 
f 197//197 186//186 192//192 
f 184//184 193//193 175//175 
f 175//175 174//174 184//184 
f 361//361 185//185 358//358 
f 174//174 183//183 184//184 
f 359//359 184//184 183//183 
f 198//198 184//184 359//359 
f 185//185 361//361 196//196 
f 187//187 177//177 189//189 
f 188//188 189//189 356//356 
f 188//188 229//229 189//189 
f 187//187 189//189 191//191 
f 189//189 229//229 191//191 
f 355//355 178//178 190//190 
f 362//362 355//355 190//190 
f 190//190 187//187 191//191 
f 229//229 188//188 194//194 
f 184//184 198//198 193//193 
f 186//186 197//197 196//196 
f 362//362 190//190 195//195 
f 195//195 197//197 362//362 
f 197//197 200//200 196//196 
f 194//194 193//193 198//198 
f 200//200 199//199 196//196 
f 196//196 199//199 185//185 
f 201//201 198//198 359//359 
f 360//360 199//199 363//363 
f 200//200 197//197 202//202 
f 239//239 197//197 238//238 
f 202//202 197//197 239//239 
f 198//198 201//201 237//237 
f 199//199 203//203 205//205 
f 199//199 200//200 203//203 
f 239//239 204//204 202//202 
f 363//363 199//199 205//205 
f 205//205 203//203 211//211 
f 203//203 200//200 202//202 
f 363//363 205//205 246//246 
f 203//203 206//206 211//211 
f 205//205 211//211 210//210 
f 203//203 202//202 206//206 
f 202//202 204//204 206//206 
f 365//365 246//246 205//205 
f 246//246 365//365 208//208 
f 248//248 207//207 204//204 
f 204//204 207//207 206//206 
f 212//212 209//209 207//207 
f 209//209 206//206 207//207 
f 209//209 211//211 206//206 
f 208//208 365//365 214//214 
f 214//214 210//210 211//211 
f 214//214 215//215 208//208 
f 216//216 211//211 213//213 
f 209//209 213//213 211//211 
f 209//209 212//212 213//213 
f 214//214 211//211 216//216 
f 212//212 259//259 217//217 
f 212//212 217//217 213//213 
f 216//216 213//213 219//219 
f 217//217 219//219 213//213 
f 215//215 214//214 218//218 
f 215//215 218//218 261//261 
f 216//216 221//221 214//214 
f 214//214 221//221 218//218 
f 259//259 220//220 217//217 
f 217//217 220//220 219//219 
f 216//216 219//219 221//221 
f 219//219 222//222 221//221 
f 219//219 220//220 222//222 
f 220//220 259//259 263//263 
f 222//222 220//220 223//223 
f 220//220 263//263 223//223 
f 222//222 223//223 224//224 
f 221//221 222//222 224//224 
f 224//224 226//226 221//221 
f 225//225 226//226 224//224 
f 224//224 223//223 225//225 
f 221//221 226//226 227//227 
f 225//225 228//228 226//226 
f 225//225 275//275 228//228 
f 230//230 190//190 191//191 
f 232//232 190//190 230//230 
f 230//230 191//191 231//231 
f 191//191 229//229 231//231 
f 231//231 229//229 233//233 
f 231//231 235//235 230//230 
f 232//232 195//195 190//190 
f 234//234 232//232 230//230 
f 195//195 232//232 236//236 
f 229//229 194//194 233//233 
f 233//233 194//194 198//198 
f 237//237 233//233 198//198 
f 231//231 233//233 235//235 
f 230//230 235//235 367//367 
f 368//368 235//235 233//233 
f 232//232 234//234 236//236 
f 197//197 195//195 238//238 
f 236//236 238//238 195//195 
f 239//239 238//238 240//240 
f 236//236 240//240 238//238 
f 234//234 241//241 236//236 
f 235//235 241//241 367//367 
f 236//236 241//241 240//240 
f 201//201 369//369 237//237 
f 237//237 369//369 242//242 
f 243//243 368//368 242//242 
f 241//241 245//245 240//240 
f 235//235 247//247 244//244 
f 248//248 239//239 240//240 
f 240//240 245//245 248//248 
f 235//235 244//244 241//241 
f 244//244 245//245 241//241 
f 368//368 243//243 235//235 
f 250//250 235//235 243//243 
f 235//235 250//250 247//247 
f 244//244 253//253 245//245 
f 204//204 239//239 248//248 
f 253//253 244//244 247//247 
f 242//242 369//369 364//364 
f 243//243 242//242 249//249 
f 242//242 364//364 249//249 
f 243//243 249//249 250//250 
f 250//250 254//254 247//247 
f 251//251 248//248 245//245 
f 253//253 251//251 245//245 
f 366//366 249//249 364//364 
f 250//250 249//249 252//252 
f 254//254 250//250 252//252 
f 254//254 253//253 247//247 
f 212//212 207//207 255//255 
f 207//207 248//248 251//251 
f 255//255 207//207 251//251 
f 249//249 215//215 252//252 
f 253//253 254//254 258//258 
f 256//256 255//255 251//251 
f 253//253 256//256 251//251 
f 253//253 257//257 256//256 
f 257//257 253//253 258//258 
f 255//255 256//256 259//259 
f 254//254 252//252 262//262 
f 254//254 262//262 258//258 
f 255//255 259//259 212//212 
f 256//256 260//260 259//259 
f 257//257 260//260 256//256 
f 261//261 252//252 215//215 
f 263//263 259//259 260//260 
f 260//260 257//257 264//264 
f 285//285 264//264 257//257 
f 261//261 218//218 265//265 
f 261//261 262//262 252//252 
f 265//265 266//266 261//261 
f 266//266 262//262 261//261 
f 268//268 223//223 263//263 
f 260//260 264//264 263//263 
f 264//264 267//267 263//263 
f 285//285 267//267 264//264 
f 218//218 221//221 265//265 
f 269//269 266//266 265//265 
f 265//265 221//221 227//227 
f 227//227 269//269 265//265 
f 269//269 286//286 266//266 
f 286//286 289//289 266//266 
f 263//263 267//267 268//268 
f 227//227 272//272 269//269 
f 223//223 268//268 225//225 
f 267//267 271//271 268//268 
f 267//267 287//287 271//271 
f 225//225 270//270 275//275 
f 268//268 270//270 225//225 
f 270//270 268//268 271//271 
f 276//276 270//270 271//271 
f 288//288 269//269 272//272 
f 269//269 288//288 286//286 
f 270//270 276//276 275//275 
f 276//276 271//271 294//294 
f 273//273 227//227 226//226 
f 228//228 274//274 226//226 
f 228//228 275//275 274//274 
f 227//227 273//273 272//272 
f 274//274 273//273 226//226 
f 288//288 272//272 291//291 
f 276//276 280//280 275//275 
f 280//280 276//276 295//295 
f 294//294 295//295 276//276 
f 272//272 273//273 277//277 
f 272//272 277//277 291//291 
f 275//275 278//278 274//274 
f 275//275 280//280 278//278 
f 281//281 277//277 273//273 
f 277//277 296//296 291//291 
f 274//274 279//279 273//273 
f 274//274 278//278 279//279 
f 273//273 279//279 281//281 
f 280//280 283//283 278//278 
f 302//302 280//280 295//295 
f 283//283 280//280 302//302 
f 277//277 281//281 296//296 
f 281//281 297//297 296//296 
f 297//297 281//281 301//301 
f 278//278 282//282 279//279 
f 281//281 279//279 282//282 
f 301//301 281//281 282//282 
f 283//283 282//282 278//278 
f 283//283 300//300 282//282 
f 257//257 258//258 285//285 
f 284//284 258//258 262//262 
f 258//258 284//284 285//285 
f 266//266 284//284 262//262 
f 284//284 266//266 289//289 
f 284//284 371//371 285//285 
f 267//267 285//285 287//287 
f 287//287 285//285 371//371 
f 287//287 371//371 290//290 
f 370//370 289//289 286//286 
f 293//293 289//289 370//370 
f 371//371 293//293 290//290 
f 294//294 271//271 287//287 
f 326//326 287//287 290//290 
f 291//291 292//292 288//288 
f 292//292 293//293 370//370 
f 295//295 294//294 317//317 
f 287//287 326//326 294//294 
f 294//294 313//313 317//317 
f 326//326 313//313 294//294 
f 316//316 295//295 317//317 
f 306//306 297//297 301//301 
f 291//291 296//296 298//298 
f 292//292 291//291 298//298 
f 298//298 296//296 297//297 
f 299//299 298//298 297//297 
f 310//310 299//299 297//297 
f 297//297 306//306 310//310 
f 298//298 319//319 292//292 
f 319//319 298//298 299//299 
f 323//323 319//319 299//299 
f 303//303 283//283 302//302 
f 283//283 303//303 300//300 
f 300//300 301//301 282//282 
f 302//302 295//295 316//316 
f 316//316 303//303 302//302 
f 307//307 303//303 316//316 
f 303//303 304//304 300//300 
f 304//304 303//303 307//307 
f 301//301 300//300 305//305 
f 300//300 304//304 305//305 
f 301//301 305//305 306//306 
f 308//308 304//304 307//307 
f 304//304 308//308 305//305 
f 306//306 305//305 309//309 
f 308//308 309//309 305//305 
f 308//308 307//307 314//314 
f 314//314 312//312 308//308 
f 311//311 309//309 312//312 
f 312//312 309//309 308//308 
f 314//314 307//307 318//318 
f 311//311 310//310 306//306 
f 321//321 312//312 314//314 
f 311//311 312//312 315//315 
f 312//312 321//321 315//315 
f 313//313 314//314 318//318 
f 313//313 322//322 314//314 
f 322//322 321//321 314//314 
f 321//321 324//324 315//315 
f 320//320 323//323 299//299 
f 310//310 320//320 299//299 
f 315//315 320//320 310//310 
f 311//311 315//315 310//310 
f 317//317 318//318 316//316 
f 318//318 307//307 316//316 
f 313//313 318//318 317//317 
f 311//311 306//306 309//309 
f 326//326 290//290 325//325 
f 292//292 319//319 293//293 
f 327//327 293//293 319//319 
f 323//323 327//327 319//319 
f 323//323 329//329 327//327 
f 324//324 321//321 330//330 
f 321//321 322//322 330//330 
f 323//323 320//320 324//324 
f 320//320 315//315 324//324 
f 326//326 328//328 322//322 
f 313//313 326//326 322//322 
f 330//330 322//322 328//328 
f 329//329 323//323 324//324 
f 293//293 327//327 290//290 
f 290//290 327//327 325//325 
f 327//327 328//328 325//325 
f 325//325 328//328 326//326 
f 327//327 329//329 328//328 
f 328//328 329//329 330//330 
f 330//330 329//329 324//324 
