#
# Compatibility version : 4.3
# File ID : FJ3940
# Representation ID : BP29137
# Build-up logic : FMA 3.0 is_a
# Concept ID : FMA52804
# English name : Left greater palatine nerve
# Bounds(mm): (13.594800,-165.628600,1465.934900)-(20.091700,-127.971700,1501.373200)
# Volume(cm3): 0.005800
#
v 13.8838 -164.689 1466.62
v 13.9011 -164.644 1466.57
v 13.8407 -164.419 1466.77
v 13.8528 -164.428 1466.85
v 13.9263 -164.433 1466.67
v 13.8129 -164.101 1467.01
v 13.8312 -164.016 1466.99
v 13.8416 -163.923 1467.21
v 13.8389 -163.367 1467.47
v 13.9168 -163.595 1467.46
v 13.9194 -162.908 1467.84
v 13.9509 -162.222 1468.13
v 13.9155 -144.891 1473.25
v 13.787 -144.405 1473.27
v 13.9097 -144.365 1473.43
v 13.7423 -143.933 1473.29
v 13.8556 -144.198 1473.15
v 13.731 -143.747 1473.53
v 13.8174 -143.337 1473.36
v 13.6566 -143.421 1473.53
v 13.6392 -142.995 1473.55
v 13.8275 -142.986 1473.78
v 13.6023 -142.324 1473.81
v 13.6402 -142.473 1473.85
v 13.9163 -142.204 1473.91
v 13.9417 -142.129 1473.8
v 13.8723 -142.076 1473.71
v 13.6205 -141.641 1473.99
v 13.6241 -141.974 1473.96
v 13.672 -141.973 1473.74
v 13.8222 -141.815 1474.1
v 13.6268 -141.617 1473.93
v 13.8238 -141.301 1473.89
v 13.96 -141.331 1473.96
v 13.7207 -141.647 1474.13
v 13.7177 -141.204 1473.96
v 13.8728 -141.119 1474.3
v 13.709 -140.83 1474.18
v 13.7468 -140.831 1474.32
v 13.8299 -140.788 1474.39
v 13.8246 -140.638 1474.12
v 13.7861 -140.387 1474.37
v 13.8399 -140.193 1474.36
v 14.1657 -165.36 1466.11
v 14.2565 -165.356 1466.04
v 14.3155 -165.604 1466.07
v 14.3154 -165.566 1465.97
v 14.3115 -165.51 1465.96
v 14.1683 -165.293 1466.31
v 14.2688 -165.356 1466.26
v 14.0005 -165.012 1466.46
v 13.9717 -164.987 1466.4
v 14.0209 -165.055 1466.3
v 14.0854 -165.25 1466.26
v 14.0666 -165.039 1466.26
v 14.1801 -165.124 1466.19
v 14.1732 -165.111 1466.41
v 14.2386 -165.134 1466.31
v 14.2161 -165.087 1466.26
v 14.3066 -165.258 1466.16
v 14.2942 -165.265 1466.25
v 14.0655 -164.745 1466.46
v 13.9628 -164.524 1466.84
v 14.0708 -164.806 1466.62
v 14.1013 -164.742 1466.57
v 14.0155 -164.423 1466.87
v 14.0229 -164.326 1466.81
v 13.9671 -164.171 1467.07
v 14.0097 -163.872 1467.21
v 13.9655 -163.81 1467.1
v 13.9715 -163.479 1467.53
v 13.9692 -163.396 1467.36
v 14.0323 -163.493 1467.41
v 13.9628 -163.055 1467.54
v 13.9729 -162.899 1467.87
v 14.0722 -162.997 1467.7
v 14.064 -162.848 1467.71
v 14.0985 -162.614 1467.96
v 14.1229 -162.434 1467.95
v 13.9794 -162.252 1467.98
v 14.0751 -162.241 1467.95
v 14.0183 -162.188 1468.21
v 14.1165 -162.077 1468.26
v 14.038 -161.573 1468.42
v 14.1135 -161.758 1468.41
v 14.1713 -161.55 1468.49
v 14.0365 -161.482 1468.41
v 14.1148 -161.504 1468.51
v 14.1703 -161.377 1468.56
v 14.1719 -161.098 1468.66
v 14.2798 -160.78 1468.53
v 14.3558 -160.876 1468.63
v 14.3155 -160.78 1468.77
v 14.1772 -160.656 1468.67
v 14.205 -160.538 1468.8
v 14.3365 -159.806 1468.99
v 14.3702 -150.013 1470.92
v 14.3434 -148.667 1471.46
v 14.3366 -148.527 1471.43
v 14.3652 -146.645 1472.63
v 14.1541 -145.901 1472.72
v 14.2155 -145.877 1472.98
v 14.08 -144.936 1473.26
v 14.0745 -144.661 1473.03
v 14.1573 -144.713 1473.24
v 13.9824 -143.237 1473.51
v 13.9928 -141.313 1474.09
v 13.966 -141.136 1474.25
v 14.0438 -140.895 1474.19
v 14.0123 -140.643 1474.13
v 14.0135 -140.497 1474.5
v 14.0316 -140.181 1474.26
v 14.139 -140.247 1474.32
v 14.1181 -140.396 1474.46
v 14.0744 -139.824 1474.75
v 14.1917 -139.862 1474.72
v 14.2987 -139.785 1474.58
v 14.0237 -139.525 1474.77
v 14.1144 -139.421 1474.59
v 14.329 -139.463 1474.59
v 14.2727 -139.096 1475.05
v 14.3655 -165.629 1466.02
v 14.3673 -165.597 1465.97
v 14.3609 -165.55 1466.13
v 14.366 -165.526 1465.94
v 14.3603 -165.461 1465.96
v 14.3629 -165.364 1466.06
v 14.4133 -165.613 1466.02
v 14.4117 -165.605 1466.07
v 14.4141 -165.571 1465.96
v 14.4547 -165.568 1466.02
v 14.45 -165.564 1466.07
v 14.4339 -165.521 1465.97
v 14.4198 -165.503 1466.12
v 14.4386 -165.469 1466.02
v 14.4354 -165.454 1466.07
v 14.4612 -165.517 1466.05
v 14.3702 -160.097 1469
v 14.3934 -159.651 1469.1
v 14.6284 -159.552 1469.06
v 14.6197 -159.257 1469.03
v 14.6155 -159.393 1469.22
v 14.6584 -158.856 1469.39
v 14.6251 -158.647 1469.25
v 14.6472 -158.432 1469.4
v 14.5975 -151.793 1470.56
v 14.5887 -151.487 1470.46
v 14.4933 -151.088 1470.6
v 14.5155 -150.988 1470.76
v 14.6124 -150.786 1470.84
v 14.4683 -150.412 1470.68
v 14.4655 -150.239 1470.97
v 14.5776 -150.679 1470.59
v 14.6467 -150.448 1470.87
v 14.6204 -150.227 1470.74
v 14.687 -150.485 1470.78
v 14.5144 -149.948 1470.78
v 14.3923 -149.748 1471.09
v 14.6154 -149.889 1471
v 14.3781 -149.548 1470.95
v 14.5155 -149.545 1471.19
v 14.6247 -149.8 1470.95
v 14.5987 -149.361 1471.14
v 14.5877 -149.269 1471.08
v 14.515 -148.907 1471.16
v 14.5987 -148.82 1471.3
v 14.4155 -148.416 1471.36
v 14.5655 -148.387 1471.69
v 14.5617 -148.197 1471.49
v 14.4026 -147.883 1471.82
v 14.4215 -147.772 1471.81
v 14.4655 -147.849 1471.67
v 14.5689 -147.698 1471.75
v 14.5618 -147.399 1471.97
v 14.6576 -147.683 1471.81
v 14.7239 -147.734 1471.94
v 14.7155 -147.484 1471.95
v 14.6155 -147.571 1472.19
v 14.4753 -146.951 1472.31
v 14.5446 -147.244 1472.15
v 14.5184 -147.198 1472.26
v 14.5457 -147.165 1472.21
v 14.5549 -146.962 1472.24
v 14.6045 -147.303 1472.36
v 14.6053 -147.17 1472.14
v 14.6655 -147.205 1472.09
v 14.7305 -146.864 1472.34
v 14.515 -146.865 1472.6
v 14.6008 -146.741 1472.63
v 14.7131 -146.762 1472.49
v 14.396 -146.082 1472.57
v 14.4878 -146.041 1472.72
v 14.3853 -145.751 1472.93
v 14.3839 -139.056 1475.09
v 14.5417 -138.877 1475.12
v 14.5215 -138.74 1474.87
v 14.7597 -138.401 1475.21
v 14.578 -137.807 1475.52
v 14.8666 -158.126 1469.59
v 14.9208 -158.183 1469.53
v 14.9737 -158.035 1469.52
v 14.8511 -157.418 1469.65
v 15.0034 -157.326 1469.49
v 14.9723 -157.248 1469.52
v 15.0917 -157.371 1469.59
v 15.1155 -157.356 1469.54
v 15.1479 -157.218 1469.64
v 15.1199 -157.121 1469.58
v 15.1155 -157.07 1469.63
v 15.1463 -157.094 1469.68
v 14.8891 -157.526 1469.71
v 15.015 -157.074 1469.84
v 15.121 -157.237 1469.72
v 15.0155 -157.07 1469.59
v 15.16 -157.029 1469.74
v 15.1026 -157.016 1469.83
v 14.9693 -156.628 1469.86
v 14.9915 -156.412 1469.79
v 15.1116 -156.478 1469.71
v 15.0602 -155.486 1469.89
v 14.999 -155.333 1470.03
v 15.0655 -155.289 1470.14
v 14.9762 -154.705 1470.16
v 14.9569 -154.488 1470.09
v 14.9939 -154.318 1470.04
v 14.9271 -154.152 1470.23
v 14.9564 -153.854 1470.34
v 15.1447 -153.955 1470.18
v 14.8487 -153.557 1470.22
v 14.898 -153.658 1470.33
v 14.7655 -152.213 1470.57
v 14.787 -152.205 1470.31
v 14.8345 -151.843 1470.41
v 14.8469 -151.766 1470.54
v 15.0479 -148.314 1471.74
v 15.0367 -148.102 1471.62
v 14.7655 -147.743 1471.94
v 15.0686 -147.805 1472.05
v 14.9088 -147.487 1471.98
v 14.7655 -147.412 1472.36
v 15.0079 -147.533 1472.07
v 14.8979 -137.883 1475.36
v 14.738 -137.74 1475.72
v 14.9813 -137.71 1475.63
v 14.9078 -137.292 1475.56
v 14.9825 -137.504 1475.83
v 15.0102 -137.39 1475.56
v 15.0759 -137.399 1475.65
v 14.9323 -136.748 1476.17
v 14.934 -136.77 1475.9
v 15.1097 -136.658 1476.32
v 15.0736 -135.717 1476.62
v 15.1555 -134.581 1477.36
v 15.5154 -158.106 1468.11
v 15.5155 -158.14 1468.28
v 15.4655 -157.935 1468.27
v 15.5155 -157.902 1468.32
v 15.5014 -157.903 1468.59
v 15.455 -157.775 1468.66
v 15.1655 -157.43 1469.1
v 15.2669 -157.46 1469.26
v 15.275 -157.481 1469.03
v 15.172 -156.839 1469.82
v 15.2246 -156.327 1469.84
v 15.1615 -156.196 1470
v 15.2447 -155.871 1469.97
v 15.2093 -155.608 1469.89
v 15.2454 -155.506 1469.97
v 15.1453 -155.325 1469.9
v 15.1617 -154.944 1470.18
v 15.1616 -154.385 1470.22
v 15.147 -154.378 1470.05
v 15.461 -149.06 1470.93
v 15.3581 -148.922 1471.26
v 15.4629 -148.954 1470.93
v 15.5126 -148.651 1471.17
v 15.458 -148.711 1471.45
v 15.2348 -148.57 1471.29
v 15.3654 -148.366 1471.64
v 15.2331 -148.047 1471.71
v 15.2126 -136.969 1475.93
v 15.1669 -136.345 1476.07
v 15.2386 -136.735 1475.96
v 15.2066 -136.612 1475.96
v 15.3063 -136.544 1476.13
v 15.2467 -136.65 1476.26
v 15.3473 -136.241 1476.25
v 15.3139 -135.92 1476.34
v 15.408 -135.97 1476.53
v 15.156 -135.845 1476.37
v 15.2682 -135.558 1476.52
v 15.2063 -135.758 1476.83
v 15.432 -135.562 1476.63
v 15.1672 -135.192 1476.81
v 15.4074 -135.153 1476.8
v 15.3531 -135.454 1477.01
v 15.2622 -134.739 1477.04
v 15.3155 -134.934 1477.35
v 15.3669 -134.791 1477
v 15.4715 -134.836 1477.04
v 15.5146 -134.91 1477.16
v 15.2022 -134.606 1477.49
v 15.4792 -134.563 1477.54
v 15.4637 -134.245 1477.4
v 15.2064 -134.192 1477.5
v 15.316 -134.134 1477.45
v 15.4137 -134.071 1477.49
v 15.552 -133.936 1477.76
v 15.3155 -133.853 1478.13
v 15.2014 -133.622 1478
v 15.2498 -133.498 1478.02
v 15.409 -133.51 1477.93
v 15.4695 -133.559 1477.91
v 15.2043 -133.576 1478.18
v 15.5487 -133.637 1478.21
v 15.3227 -133.085 1478.8
v 15.4128 -133.264 1478.66
v 15.2433 -132.848 1478.73
v 15.3244 -132.746 1478.68
v 15.5612 -132.972 1478.49
v 15.5122 -132.772 1478.63
v 15.2776 -132.693 1479.09
v 15.2736 -132.445 1479.21
v 15.3044 -132.348 1479.19
v 15.4232 -132.51 1479.46
v 15.4672 -132.184 1479.25
v 15.3682 -132.136 1479.37
v 15.347 -131.911 1479.77
v 15.4657 -131.769 1479.8
v 15.4237 -131.816 1480.3
v 15.381 -131.64 1480.35
v 15.4414 -131.363 1480.55
v 15.5229 -130.922 1481.43
v 15.5349 -130.937 1481.64
v 15.9476 -158.44 1467.3
v 15.9132 -158.46 1467.51
v 15.7275 -158.237 1467.69
v 15.8389 -158.247 1467.56
v 15.8866 -158.237 1467.57
v 15.7023 -158.317 1467.78
v 15.6655 -158.111 1467.89
v 15.7331 -158.103 1468.03
v 15.7613 -158.337 1467.85
v 15.778 -158.151 1467.82
v 15.8599 -158.257 1467.82
v 15.5655 -157.935 1468.42
v 15.6155 -158.156 1468.23
v 15.8934 -149.677 1470.19
v 15.7647 -149.519 1470.59
v 15.8524 -149.426 1470.75
v 15.7016 -149.361 1470.51
v 15.788 -149.237 1470.52
v 15.7655 -149.016 1470.86
v 15.5737 -149.166 1471.06
v 15.6163 -148.946 1470.86
v 15.6862 -148.931 1471.13
v 15.6151 -132.633 1479.21
v 15.637 -132.557 1479.03
v 15.6125 -132.077 1479.44
v 15.5707 -131.75 1479.82
v 15.6143 -131.772 1480.47
v 15.7608 -131.674 1480.44
v 15.8069 -131.244 1480.79
v 15.5771 -130.934 1481.19
v 15.6146 -131.072 1480.88
v 15.6222 -131.101 1481.61
v 15.819 -131.103 1481.62
v 15.9433 -130.901 1481.71
v 15.8173 -130.758 1482.43
v 15.8027 -130.56 1481.89
v 15.6611 -130.485 1482.59
v 15.7106 -130.624 1482.6
v 15.7638 -130.346 1482.44
v 15.8146 -130.061 1483.45
v 15.8291 -130.323 1483.43
v 15.8713 -129.97 1484.05
v 16.179 -158.558 1466.95
v 16.1955 -158.446 1466.94
v 16.2782 -158.62 1466.89
v 16.2541 -158.414 1466.97
v 16.3054 -158.516 1466.75
v 16.0149 -158.515 1467.26
v 16.0766 -158.543 1467.24
v 16.3079 -158.545 1467.06
v 16.322 -158.452 1467.02
v 15.9758 -158.445 1467.53
v 16.0206 -158.377 1467.54
v 16.0259 -158.325 1467.5
v 16.2269 -149.931 1469.6
v 16.1912 -150.053 1469.82
v 16.0705 -149.82 1470.24
v 16.1508 -149.563 1470.29
v 16.2036 -149.759 1470.21
v 15.9768 -149.357 1470.4
v 15.9614 -130.698 1482.48
v 16.1168 -130.393 1483.05
v 16.0159 -130.457 1483.19
v 15.9636 -130.275 1482.63
v 16.1702 -130.093 1483.41
v 16.1147 -130.092 1484.45
v 16.2654 -130.057 1484.41
v 16.0128 -129.91 1484.78
v 16.1878 -129.816 1485.48
v 15.9631 -129.878 1483.76
v 16.2067 -129.733 1484.29
v 16.0145 -129.702 1484.69
v 16.2924 -129.403 1485.68
v 16.2201 -129.481 1486.14
v 16.4925 -158.63 1466.49
v 16.5576 -158.69 1466.47
v 16.5561 -158.692 1466.57
v 16.5693 -158.64 1466.4
v 16.5588 -158.587 1466.4
v 16.5576 -158.521 1466.47
v 16.6151 -158.703 1466.47
v 16.6155 -158.685 1466.43
v 16.6154 -158.592 1466.38
v 16.6152 -158.543 1466.41
v 16.6151 -158.513 1466.45
v 16.6092 -158.508 1466.51
v 16.6561 -158.683 1466.52
v 16.6674 -158.683 1466.46
v 16.6626 -158.638 1466.4
v 16.7029 -158.636 1466.46
v 16.6675 -158.63 1466.56
v 16.6633 -158.588 1466.4
v 16.704 -158.586 1466.45
v 16.7 -158.586 1466.51
v 16.6622 -158.53 1466.45
v 16.6679 -158.537 1466.51
v 16.4159 -158.475 1466.7
v 16.4517 -158.645 1466.78
v 16.5924 -158.573 1466.67
v 16.5502 -158.507 1466.66
v 16.6858 -150.272 1468.93
v 16.3959 -150.007 1469.4
v 16.363 -149.882 1469.6
v 16.4784 -150.219 1469.58
v 16.4894 -149.967 1469.63
v 16.5329 -150.081 1469.61
v 16.3685 -129.803 1485.72
v 16.3689 -129.859 1484.55
v 16.5995 -129.623 1486.02
v 16.5231 -129.583 1486.99
v 16.6128 -129.599 1486.85
v 16.4994 -129.396 1487.61
v 16.6117 -129.338 1486.33
v 16.5567 -129.122 1487.57
v 16.7026 -129.122 1488.89
v 16.9826 -150.91 1468.16
v 17.0078 -150.89 1468.06
v 16.9161 -150.818 1468.23
v 16.997 -150.834 1468.07
v 17.0244 -150.938 1468.25
v 17.0675 -150.938 1468.05
v 17.066 -150.845 1468.01
v 17.1104 -150.983 1468.11
v 17.1635 -150.981 1468.16
v 17.117 -150.893 1468.01
v 17.1156 -150.845 1468
v 17.1176 -150.795 1468.02
v 17.0769 -150.934 1468.29
v 17.0496 -150.731 1468.09
v 16.8304 -150.615 1468.41
v 16.9257 -150.445 1468.74
v 16.7832 -129.353 1488.69
v 16.9155 -129.395 1488.41
v 16.9909 -129.266 1488.05
v 16.8718 -128.988 1488.42
v 16.9613 -129.159 1489.99
v 17.0826 -128.862 1490.46
v 17.1632 -150.941 1468.05
v 17.1654 -150.894 1468.02
v 17.1637 -150.846 1468.01
v 17.2003 -150.795 1468.05
v 17.2274 -150.934 1468.15
v 17.2133 -150.888 1468.06
v 17.2522 -150.885 1468.15
v 17.2355 -150.783 1468.16
v 17.1402 -150.835 1468.38
v 17.1546 -150.729 1468.39
v 17.2087 -150.936 1468.21
v 17.2408 -150.88 1468.21
v 17.1423 -150.703 1468.14
v 17.4655 -129.175 1491.5
v 17.2871 -128.937 1489.78
v 17.5183 -129.081 1490.8
v 17.6293 -128.958 1491.21
v 17.6159 -128.747 1493.18
v 17.8001 -128.645 1493.16
v 18.2438 -128.991 1494.44
v 18.236 -128.808 1493.97
v 18.2609 -128.842 1495.93
v 18.308 -128.951 1495.71
v 18.3691 -128.585 1495
v 18.3706 -128.516 1495.93
v 18.5437 -128.497 1496.05
v 18.7406 -128.905 1496.86
v 18.8249 -128.803 1497.88
v 18.9491 -128.55 1497.04
v 19.0684 -128.744 1497.52
v 18.8958 -128.376 1498.12
v 18.9552 -128.639 1498.71
v 18.8856 -128.506 1498.53
v 19.1028 -128.332 1498.29
v 19.1733 -128.771 1498.38
v 19.386 -128.399 1498.72
v 19.3586 -128.227 1500.14
v 19.5007 -128.143 1499.96
v 19.6227 -128.462 1499.46
v 19.8774 -128.317 1500.36
v 19.5686 -128.247 1501.06
v 19.622 -128.336 1501.12
v 19.6703 -128.225 1501.3
v 19.6923 -128.453 1500.96
v 19.7646 -128.363 1501.29
v 19.7728 -128.223 1501.36
v 19.847 -128.426 1501.16
v 19.9108 -128.315 1501.34
v 19.9101 -128.214 1501.37
v 19.5747 -128.188 1499.78
v 19.7845 -128.229 1500.15
v 19.5748 -128.189 1501.07
v 19.6358 -128.172 1501.25
v 19.6462 -128.083 1501.18
v 19.7679 -128.121 1501.34
v 19.7682 -128.011 1501.25
v 19.749 -127.991 1501.09
v 19.8652 -128.033 1501.3
v 19.8628 -127.992 1501.24
v 19.9562 -128.026 1501.25
v 19.8965 -127.987 1501.04
v 19.9552 -128.405 1500.89
v 20.0155 -128.321 1501.25
v 20.0565 -128.224 1501.25
v 20.0122 -128.221 1501.31
v 20.0421 -128.295 1500.98
v 19.9608 -128.119 1501.33
v 20.0419 -128.128 1501.26
v 20.0541 -128.082 1501.16
v 20.0139 -128.074 1501.25
v 19.9945 -128.044 1501.03
v 20.0114 -128.031 1501.15
v 20.064 -128.192 1501.01
v 20.086 -128.178 1501.16
v 20.0661 -128.133 1501.07
v 13.8129 -164.101 1467.01
v 13.8416 -163.923 1467.21
v 13.8389 -163.367 1467.47
v 13.8389 -163.367 1467.47
v 13.9168 -163.595 1467.46
v 13.9509 -162.222 1468.13
v 13.8556 -144.198 1473.15
v 13.8174 -143.337 1473.36
v 13.6392 -142.995 1473.55
v 13.8275 -142.986 1473.78
v 13.672 -141.973 1473.74
v 13.8222 -141.815 1474.1
v 13.7177 -141.204 1473.96
v 13.8728 -141.119 1474.3
v 14.1657 -165.36 1466.11
v 14.3155 -165.604 1466.07
v 14.3154 -165.566 1465.97
v 13.9717 -164.987 1466.4
v 14.0854 -165.25 1466.26
v 14.1732 -165.111 1466.41
v 14.0655 -164.745 1466.46
v 14.0708 -164.806 1466.62
v 14.1013 -164.742 1466.57
v 14.0155 -164.423 1466.87
v 14.0229 -164.326 1466.81
v 14.0229 -164.326 1466.81
v 14.0097 -163.872 1467.21
v 13.9655 -163.81 1467.1
v 13.9655 -163.81 1467.1
v 13.9628 -163.055 1467.54
v 14.1229 -162.434 1467.95
v 13.9794 -162.252 1467.98
v 14.0751 -162.241 1467.95
v 14.1713 -161.55 1468.49
v 14.1719 -161.098 1468.66
v 14.2798 -160.78 1468.53
v 14.3558 -160.876 1468.63
v 14.3558 -160.876 1468.63
v 14.3155 -160.78 1468.77
v 14.3434 -148.667 1471.46
v 14.3434 -148.667 1471.46
v 14.2155 -145.877 1472.98
v 14.2155 -145.877 1472.98
v 14.2155 -145.877 1472.98
v 14.08 -144.936 1473.26
v 14.0745 -144.661 1473.03
v 14.0745 -144.661 1473.03
v 14.1573 -144.713 1473.24
v 14.1573 -144.713 1473.24
v 13.9824 -143.237 1473.51
v 13.9824 -143.237 1473.51
v 13.966 -141.136 1474.25
v 14.0438 -140.895 1474.19
v 14.0135 -140.497 1474.5
v 14.139 -140.247 1474.32
v 14.1181 -140.396 1474.46
v 14.0744 -139.824 1474.75
v 14.1917 -139.862 1474.72
v 14.2987 -139.785 1474.58
v 14.0237 -139.525 1474.77
v 14.1144 -139.421 1474.59
v 14.2727 -139.096 1475.05
v 14.3655 -165.629 1466.02
v 14.3655 -165.629 1466.02
v 14.3673 -165.597 1465.97
v 14.3673 -165.597 1465.97
v 14.366 -165.526 1465.94
v 14.366 -165.526 1465.94
v 14.4133 -165.613 1466.02
v 14.4117 -165.605 1466.07
v 14.4141 -165.571 1465.96
v 14.4141 -165.571 1465.96
v 14.4547 -165.568 1466.02
v 14.45 -165.564 1466.07
v 14.45 -165.564 1466.07
v 14.4339 -165.521 1465.97
v 14.4386 -165.469 1466.02
v 14.3702 -160.097 1469
v 14.6284 -159.552 1469.06
v 14.6197 -159.257 1469.03
v 14.6155 -159.393 1469.22
v 14.6472 -158.432 1469.4
v 14.4655 -150.239 1470.97
v 14.5776 -150.679 1470.59
v 14.687 -150.485 1470.78
v 14.5144 -149.948 1470.78
v 14.3923 -149.748 1471.09
v 14.3781 -149.548 1470.95
v 14.5155 -149.545 1471.19
v 14.515 -148.907 1471.16
v 14.5987 -148.82 1471.3
v 14.4155 -148.416 1471.36
v 14.5655 -148.387 1471.69
v 14.4026 -147.883 1471.82
v 14.4655 -147.849 1471.67
v 14.5618 -147.399 1471.97
v 14.7239 -147.734 1471.94
v 14.7239 -147.734 1471.94
v 14.7239 -147.734 1471.94
v 14.7155 -147.484 1471.95
v 14.6155 -147.571 1472.19
v 14.6155 -147.571 1472.19
v 14.6155 -147.571 1472.19
v 14.5184 -147.198 1472.26
v 14.5549 -146.962 1472.24
v 14.7305 -146.864 1472.34
v 14.7131 -146.762 1472.49
v 14.396 -146.082 1472.57
v 14.396 -146.082 1472.57
v 14.4878 -146.041 1472.72
v 14.3853 -145.751 1472.93
v 14.578 -137.807 1475.52
v 14.9737 -158.035 1469.52
v 14.8511 -157.418 1469.65
v 15.0034 -157.326 1469.49
v 15.0034 -157.326 1469.49
v 15.0034 -157.326 1469.49
v 15.0034 -157.326 1469.49
v 14.9723 -157.248 1469.52
v 14.9723 -157.248 1469.52
v 14.9723 -157.248 1469.52
v 14.9723 -157.248 1469.52
v 14.9723 -157.248 1469.52
v 15.0917 -157.371 1469.59
v 15.1155 -157.356 1469.54
v 15.1155 -157.356 1469.54
v 15.1479 -157.218 1469.64
v 15.1199 -157.121 1469.58
v 15.1155 -157.07 1469.63
v 15.0155 -157.07 1469.59
v 15.0155 -157.07 1469.59
v 15.0155 -157.07 1469.59
v 14.9693 -156.628 1469.86
v 14.9915 -156.412 1469.79
v 15.1116 -156.478 1469.71
v 15.1116 -156.478 1469.71
v 15.0655 -155.289 1470.14
v 14.9939 -154.318 1470.04
v 14.9564 -153.854 1470.34
v 14.7655 -152.213 1470.57
v 14.787 -152.205 1470.31
v 14.8469 -151.766 1470.54
v 14.8469 -151.766 1470.54
v 15.0479 -148.314 1471.74
v 15.0479 -148.314 1471.74
v 14.7655 -147.743 1471.94
v 14.7655 -147.743 1471.94
v 14.7655 -147.743 1471.94
v 14.7655 -147.743 1471.94
v 15.0686 -147.805 1472.05
v 14.9088 -147.487 1471.98
v 14.9088 -147.487 1471.98
v 14.9088 -147.487 1471.98
v 14.7655 -147.412 1472.36
v 14.7655 -147.412 1472.36
v 15.0079 -147.533 1472.07
v 14.738 -137.74 1475.72
v 14.9323 -136.748 1476.17
v 14.9323 -136.748 1476.17
v 14.934 -136.77 1475.9
v 15.0736 -135.717 1476.62
v 15.0736 -135.717 1476.62
v 15.5154 -158.106 1468.11
v 15.5155 -158.14 1468.28
v 15.5155 -158.14 1468.28
v 15.5155 -158.14 1468.28
v 15.4655 -157.935 1468.27
v 15.5155 -157.902 1468.32
v 15.5014 -157.903 1468.59
v 15.455 -157.775 1468.66
v 15.1655 -157.43 1469.1
v 15.2669 -157.46 1469.26
v 15.2669 -157.46 1469.26
v 15.275 -157.481 1469.03
v 15.1453 -155.325 1469.9
v 15.1617 -154.944 1470.18
v 15.1616 -154.385 1470.22
v 15.461 -149.06 1470.93
v 15.3581 -148.922 1471.26
v 15.3581 -148.922 1471.26
v 15.4629 -148.954 1470.93
v 15.5126 -148.651 1471.17
v 15.2348 -148.57 1471.29
v 15.2348 -148.57 1471.29
v 15.3654 -148.366 1471.64
v 15.2331 -148.047 1471.71
v 15.2331 -148.047 1471.71
v 15.2063 -135.758 1476.83
v 15.4792 -134.563 1477.54
v 15.3155 -133.853 1478.13
v 15.5487 -133.637 1478.21
v 15.4128 -133.264 1478.66
v 15.4232 -132.51 1479.46
v 15.4237 -131.816 1480.3
v 15.9132 -158.46 1467.51
v 15.6655 -158.111 1467.89
v 15.6655 -158.111 1467.89
v 15.7331 -158.103 1468.03
v 15.7331 -158.103 1468.03
v 15.7613 -158.337 1467.85
v 15.5655 -157.935 1468.42
v 15.8934 -149.677 1470.19
v 15.7647 -149.519 1470.59
v 15.8524 -149.426 1470.75
v 15.7016 -149.361 1470.51
v 15.5737 -149.166 1471.06
v 15.6862 -148.931 1471.13
v 15.6151 -132.633 1479.21
v 15.6143 -131.772 1480.47
v 15.7608 -131.674 1480.44
v 15.6146 -131.072 1480.88
v 15.6222 -131.101 1481.61
v 15.9433 -130.901 1481.71
v 15.8027 -130.56 1481.89
v 15.7106 -130.624 1482.6
v 16.179 -158.558 1466.95
v 16.2541 -158.414 1466.97
v 16.3079 -158.545 1467.06
v 16.322 -158.452 1467.02
v 16.2269 -149.931 1469.6
v 16.1912 -150.053 1469.82
v 16.0705 -149.82 1470.24
v 16.1168 -130.393 1483.05
v 16.1147 -130.092 1484.45
v 15.9631 -129.878 1483.76
v 16.2067 -129.733 1484.29
v 16.0145 -129.702 1484.69
v 16.2924 -129.403 1485.68
v 16.2924 -129.403 1485.68
v 16.4925 -158.63 1466.49
v 16.5693 -158.64 1466.4
v 16.5693 -158.64 1466.4
v 16.6155 -158.685 1466.43
v 16.6154 -158.592 1466.38
v 16.6154 -158.592 1466.38
v 16.6152 -158.543 1466.41
v 16.6674 -158.683 1466.46
v 16.7029 -158.636 1466.46
v 16.6633 -158.588 1466.4
v 16.6633 -158.588 1466.4
v 16.704 -158.586 1466.45
v 16.704 -158.586 1466.45
v 16.704 -158.586 1466.45
v 16.4159 -158.475 1466.7
v 16.5502 -158.507 1466.66
v 16.6858 -150.272 1468.93
v 16.363 -149.882 1469.6
v 16.4784 -150.219 1469.58
v 16.3685 -129.803 1485.72
v 16.3689 -129.859 1484.55
v 16.5995 -129.623 1486.02
v 16.5995 -129.623 1486.02
v 16.4994 -129.396 1487.61
v 16.6117 -129.338 1486.33
v 16.5567 -129.122 1487.57
v 16.5567 -129.122 1487.57
v 16.7026 -129.122 1488.89
v 16.7026 -129.122 1488.89
v 17.0675 -150.938 1468.05
v 17.1104 -150.983 1468.11
v 16.8304 -150.615 1468.41
v 16.7832 -129.353 1488.69
v 16.9909 -129.266 1488.05
v 16.8718 -128.988 1488.42
v 16.9613 -129.159 1489.99
v 17.0826 -128.862 1490.46
v 17.0826 -128.862 1490.46
v 17.2003 -150.795 1468.05
v 17.2522 -150.885 1468.15
v 17.2522 -150.885 1468.15
v 17.2522 -150.885 1468.15
v 17.2355 -150.783 1468.16
v 17.1423 -150.703 1468.14
v 17.4655 -129.175 1491.5
v 17.2871 -128.937 1489.78
v 17.6159 -128.747 1493.18
v 19.9108 -128.315 1501.34
v 20.0155 -128.321 1501.25
v 20.0565 -128.224 1501.25
vn -0.968534 -0.246884 0.0314678
vn -0.785346 0.216069 -0.580126
vn -0.979692 0.0125086 -0.200119
vn -0.791048 -0.411954 0.452258
vn -0.0724827 0.554946 -0.828723
vn -0.952329 -0.1895 0.23908
vn -0.583002 0.425698 -0.692019
vn -0.888126 -0.225078 0.400714
vn -0.789211 0.341019 -0.510737
vn -0.0318892 -0.533028 0.845496
vn -0.669623 -0.310742 0.674569
vn -0.815356 -0.177023 0.551232
vn -0.687699 -0.334396 0.644399
vn -0.98208 -0.182899 0.0454632
vn -0.231721 -0.283314 0.930612
vn -0.827475 0.0355718 -0.560375
vn -0.582689 0.124599 -0.803087
vn -0.680132 -0.25395 0.687699
vn -0.0498637 0.233684 -0.971033
vn -0.986863 -0.117158 0.111241
vn -0.540454 0.170745 -0.823867
vn -0.204718 -0.256816 0.94453
vn -0.999959 -0.00898955 0.000729589
vn -0.718215 -0.199057 0.666741
vn 0.842936 -0.168804 0.510847
vn 0.978498 0.0323735 -0.2037
vn 0.638839 0.189579 -0.745617
vn -0.986383 0.0278805 0.162082
vn -0.854972 -0.103906 0.508161
vn -0.340935 0.235255 -0.910175
vn -0.119942 -0.270658 0.955175
vn -0.936589 0.144499 -0.319252
vn 0.109604 0.266747 -0.957514
vn 0.82853 0.0850588 -0.553446
vn -0.456418 -0.219856 0.862175
vn -0.287729 0.289202 -0.913003
vn -0.0842969 -0.278007 0.956873
vn -0.962954 0.198609 -0.182411
vn -0.837355 -0.052458 0.544137
vn -0.316709 -0.243061 0.916852
vn -0.496105 0.363279 -0.788611
vn -0.978064 0.155611 0.138478
vn -0.873057 0.341582 -0.347985
vn -0.885388 -0.417993 -0.203399
vn -0.364097 0.354783 -0.86114
vn -0.789569 -0.584914 -0.185626
vn -0.659152 -0.675348 -0.330794
vn -0.507091 0.088683 -0.857318
vn -0.165303 -0.604755 0.779068
vn 0.4238 -0.319162 0.847661
vn -0.564228 -0.590702 0.576817
vn -0.927371 -0.0735669 -0.366839
vn -0.846103 0.00132204 -0.533018
vn -0.912195 -0.334918 -0.236072
vn -0.390214 0.401252 -0.828692
vn 0.28086 0.636365 -0.718441
vn 0.205718 -0.480922 0.852287
vn 0.930312 0.184283 0.317111
vn 0.781078 0.539567 -0.314301
vn 0.814994 0.560825 -0.145809
vn 0.85287 0.149875 0.50015
vn 0.0856306 0.591483 -0.801758
vn 0.0233923 -0.572366 0.819664
vn 0.166003 -0.534392 0.828775
vn 0.883611 0.413406 -0.219834
vn 0.550927 -0.438989 0.709766
vn 0.891469 0.337771 -0.301983
vn 0.473659 -0.482751 0.736613
vn 0.980508 0.107728 -0.164314
vn -0.137913 0.546097 -0.826292
vn 0.558513 -0.447246 0.698595
vn 0.48141 0.420829 -0.768861
vn 0.996406 -0.0208516 -0.082097
vn 0.438181 0.400778 -0.804596
vn 0.0882307 -0.475551 0.875252
vn 0.993613 -0.0323768 -0.108096
vn 0.793493 0.224241 -0.56576
vn 0.857404 -0.304816 0.414664
vn 0.810659 0.15396 -0.564915
vn -0.935133 0.228469 -0.270794
vn 0.704935 0.226503 -0.672134
vn -0.389763 -0.34627 0.853336
vn 0.457116 -0.415798 0.78623
vn -0.811829 -0.112656 0.572924
vn 0.0452185 -0.395877 0.917189
vn 0.182516 -0.391195 0.902028
vn -0.99032 0.138408 0.0104474
vn -0.309117 -0.317265 0.896543
vn 0.0250269 -0.36118 0.93216
vn -0.666473 -0.151768 0.729918
vn -0.389969 0.371868 -0.8424
vn 0.990376 -0.135241 -0.029406
vn 0.098274 -0.341419 0.934759
vn -0.876863 0.292547 -0.381481
vn -0.883062 8.85141e-05 0.469256
vn -0.979983 0.197062 0.0282958
vn -0.986195 -0.110297 0.12351
vn -0.974492 -0.0767201 0.2109
vn -0.964898 0.149124 -0.216179
vn -0.811523 -0.408306 0.417991
vn -0.900585 -0.0833407 -0.426617
vn -0.499625 -0.4419 0.74505
vn -0.0806418 -0.292686 0.952802
vn 0.0769604 0.289165 -0.954181
vn 0.71083 -0.0740271 0.699458
vn 0.670015 0.223523 -0.707896
vn 0.991307 -0.104106 0.0804486
vn 0.493471 -0.314402 0.810948
vn 0.923106 -0.0220573 -0.383912
vn 0.666407 0.126274 -0.734817
vn 0.0301588 -0.336058 0.941358
vn 0.210878 0.298555 -0.930804
vn 0.671875 0.109258 -0.732561
vn 0.974843 -0.22122 0.0272388
vn 0.0288779 -0.37622 0.92608
vn 0.785535 -0.41154 0.462136
vn 0.924703 -0.137884 -0.354841
vn -0.696095 -0.0996485 0.711001
vn -0.314042 0.448191 -0.83696
vn 0.717253 0.0704732 -0.69324
vn -0.61545 -0.158998 0.771972
vn -0.540214 -0.74475 -0.391813
vn -0.438293 -0.748259 -0.498003
vn 0.22607 -0.539422 0.81112
vn -0.209181 -0.35379 -0.911634
vn 0.175711 0.51274 -0.840371
vn 0.630979 0.657447 -0.411861
vn 0.535934 -0.830768 0.15033
vn 0.385268 -0.860999 0.332039
vn 0.615839 -0.558403 -0.555813
vn 0.908807 -0.250643 -0.333537
vn 0.728342 -0.673218 0.12765
vn 0.445741 0.299294 -0.843646
vn 0.730427 -0.0663872 0.679757
vn 0.486824 0.576508 -0.656232
vn 0.888864 0.440201 0.127059
vn 0.989833 0.126799 0.0644465
vn 0.0485866 -0.318497 0.946678
vn -0.771863 -0.024063 0.635333
vn 0.882286 -0.306852 0.356951
vn 0.813079 -0.00669365 -0.582115
vn 0.860191 -0.314721 0.401274
vn -0.230192 -0.221449 0.947614
vn -0.723895 0.331914 -0.604821
vn -0.883093 0.0668296 0.464414
vn -0.884373 -0.19775 0.422823
vn -0.641488 0.0489138 -0.765572
vn -0.961698 -0.0675358 -0.265662
vn -0.599912 -0.243361 0.762155
vn 0.0639161 -0.198292 0.978057
vn -0.644237 0.125959 -0.754383
vn -0.828774 -0.222914 0.513267
vn -0.270088 0.172791 -0.947204
vn 0.640962 -0.116299 0.758711
vn 0.722034 0.239902 -0.648933
vn 0.941778 0.0122578 0.336012
vn -0.274829 0.269778 -0.92287
vn -0.878422 -0.205569 0.431412
vn 0.90342 -0.0554554 0.425155
vn -0.913568 0.104797 -0.392952
vn -0.0908534 -0.324762 0.941422
vn 0.992929 0.0890702 -0.0784812
vn 0.972561 -0.0588877 0.225072
vn 0.895028 0.176824 -0.40946
vn 0.608174 0.285178 -0.740809
vn 0.992721 -0.0100188 -0.120018
vn -0.823013 0.272314 -0.498492
vn 0.910594 -0.205449 0.358621
vn 0.457605 0.3811 -0.803343
vn -0.99398 0.105026 0.0311826
vn -0.879196 0.349578 -0.323743
vn -0.803636 0.373377 -0.463421
vn 0.100997 0.517075 -0.849961
vn -0.728108 0.483766 -0.485623
vn 0.519478 0.386275 -0.76219
vn 0.688344 -0.427268 0.586194
vn 0.96852 0.0346254 -0.246516
vn -0.233254 -0.500533 0.833702
vn -0.76658 0.0389034 -0.640969
vn -0.785365 0.429384 -0.445905
vn -0.907056 -0.309717 0.285175
vn -0.83917 0.169482 -0.516788
vn -0.502959 0.235381 -0.831641
vn -0.599029 -0.452774 0.660424
vn -0.601566 0.36688 -0.709589
vn 0.0689418 0.52473 -0.848472
vn 0.356856 0.500911 -0.788506
vn -0.238573 -0.442747 0.864325
vn 0.502237 -0.180117 0.845763
vn 0.846466 0.0586682 0.529201
vn 0.591878 0.412489 -0.692483
vn 0.78749 0.387291 -0.479443
vn 0.95999 0.19407 0.20188
vn 0.0942293 -0.440158 0.892962
vn 0.65852 -0.491388 0.56999
vn 0.317462 0.307139 -0.897153
vn 0.939683 -0.337944 0.0528124
vn -0.762507 -0.0892285 0.640797
vn 0.170901 -0.277243 0.945478
vn 0.744598 -0.309776 0.591281
vn 0.976075 -0.156014 -0.151454
vn -0.924034 0.0562626 0.378147
vn -0.916102 -0.381445 -0.123518
vn -0.876457 0.251317 -0.410685
vn 0.960497 -0.20423 -0.189039
vn -0.100602 -0.940715 -0.323935
vn 0.87035 -0.360748 0.335188
vn 0.298151 0.75747 -0.580814
vn 0.240397 0.668999 -0.703313
vn 0.983824 0.0272551 -0.177051
vn -0.628712 -0.0737327 0.774135
vn -0.198364 -0.180155 0.963429
vn 0.917503 -0.237778 0.318826
vn -0.746815 0.411024 -0.522807
vn 0.989217 -0.138298 0.0482111
vn 0.513872 -0.253877 0.81944
vn -0.696047 -0.0827486 0.713212
vn -0.83159 0.191254 -0.521422
vn 0.530195 0.113052 -0.840305
vn -0.629177 0.0957136 -0.771346
vn -0.999775 -0.0178509 0.0114363
vn -0.805772 -0.115554 0.580844
vn -0.952118 -0.116767 0.282555
vn -0.943637 -0.0321793 -0.329416
vn -0.326135 0.0890692 -0.941118
vn -0.860718 -0.144554 0.488128
vn 0.257977 -0.0959335 0.961376
vn 0.984138 0.120061 -0.130602
vn -0.989523 -0.106695 -0.0972688
vn -0.790637 -0.178031 0.585832
vn -0.548471 -0.20838 0.809788
vn -0.341492 0.0999581 -0.934554
vn 0.775924 0.204186 -0.596867
vn 0.739471 -0.0260477 0.672684
vn -0.918818 -0.351002 -0.180478
vn -0.173339 0.517889 -0.837702
vn -0.0310439 -0.827508 0.560594
vn 0.658104 -0.165928 0.734416
vn 0.187497 0.364932 -0.911959
vn 0.0529649 -0.443143 0.894885
vn 0.765113 0.51901 -0.381093
vn 0.832741 -0.0105763 -0.553562
vn -0.66857 -0.158501 0.726562
vn 0.874678 -0.40846 0.260959
vn -0.0590029 0.465554 -0.883051
vn 0.410006 -0.514381 0.753199
vn 0.611935 0.209255 -0.762724
vn 0.937721 -0.11704 -0.32708
vn -0.580118 -0.280689 0.764642
vn -0.950656 0.294182 -0.0985449
vn -0.039236 -0.481941 0.875325
vn -0.989572 0.14302 -0.0171016
vn -0.999085 0.02595 0.0340038
vn -0.904761 -0.379593 -0.193177
vn -0.859502 -0.502377 -0.0941988
vn -0.804457 0.303447 -0.510655
vn -0.00781753 0.870001 -0.492988
vn 0.436131 -0.675119 0.594982
vn 0.946863 0.207406 0.24583
vn -0.747407 0.410106 -0.522681
vn 0.952965 0.254452 0.16466
vn 0.17171 0.846499 -0.50394
vn 0.873102 -0.174501 0.455238
vn 0.977036 -0.0286047 -0.211145
vn 0.512167 -0.173806 0.841116
vn 0.916058 -0.0787899 0.39323
vn 0.691605 0.103864 -0.714769
vn 0.995976 0.0443439 -0.0778769
vn -0.257993 0.119405 -0.95874
vn 0.196995 -0.111296 0.974067
vn 0.410207 -0.0662784 0.909581
vn 0.679628 0.155391 -0.716909
vn -0.88573 -0.454566 -0.0940812
vn -0.911763 -0.386001 -0.140328
vn -0.845363 0.0208575 -0.533784
vn 0.0420285 0.678994 -0.73294
vn 0.345301 -0.483128 0.804583
vn -0.92459 -0.338356 -0.175067
vn 0.927622 0.29415 0.230203
vn 0.192248 0.617205 -0.762954
vn 0.972146 -0.230253 -0.043761
vn 0.106573 0.465939 -0.878375
vn 0.855402 0.0674791 -0.51355
vn 0.529101 0.312664 -0.788855
vn 0.984171 -0.142916 -0.104796
vn 0.759338 -0.433303 0.485442
vn 0.874682 0.118744 -0.469927
vn 0.517297 0.369357 -0.771997
vn 0.957687 -0.231862 0.170515
vn -0.488418 0.484407 -0.725808
vn 0.0452201 0.508178 -0.860064
vn -0.21566 -0.485022 0.847493
vn 0.886693 0.164092 -0.432261
vn -0.740161 0.392124 -0.54626
vn 0.514507 0.415582 -0.750049
vn 0.374866 -0.512809 0.772336
vn -0.37809 0.521188 -0.765121
vn 0.00679838 -0.56003 0.828444
vn 0.213147 0.527688 -0.822261
vn 0.790923 0.301862 -0.532279
vn 0.995651 -0.0902249 0.0232113
vn -0.759285 -0.343147 0.552934
vn 0.336132 -0.540545 0.77125
vn 0.614904 0.439625 -0.654692
vn -0.797138 0.376281 -0.472212
vn -0.274781 0.577156 -0.769017
vn 0.21407 0.573876 -0.790468
vn 0.944197 0.171508 -0.281206
vn -0.569865 -0.512928 0.641996
vn -0.95417 0.21524 -0.207921
vn -0.649365 0.511699 -0.562573
vn -0.052457 0.65197 -0.756428
vn 0.5257 0.53032 -0.665132
vn -0.959364 -0.149683 0.239198
vn 0.328073 -0.633684 0.70058
vn -0.462087 -0.601361 0.651798
vn 0.300181 -0.683839 0.665024
vn -0.93652 0.276194 -0.215981
vn -0.473462 0.642661 -0.602346
vn 0.74682 0.4342 -0.503716
vn 0.360062 0.651968 -0.667303
vn -0.818919 -0.387973 0.422905
vn -0.995804 0.0910935 0.0087359
vn -0.846282 0.433027 -0.310314
vn 0.269394 -0.732614 0.625062
vn -0.0376102 0.764852 -0.643108
vn -0.572096 0.6589 -0.488423
vn -0.873916 0.430218 -0.226239
vn -0.390526 0.771954 -0.501573
vn -0.380925 -0.745579 0.546817
vn -0.994432 0.00882271 0.105012
vn -0.777126 0.570333 -0.266073
vn -0.923032 0.378794 -0.0672826
vn -0.94359 -0.232165 0.236087
vn -0.864542 -0.23055 -0.446558
vn -0.502276 -0.864458 0.02078
vn -0.792121 0.29099 -0.536534
vn -0.335047 0.816162 -0.470768
vn 0.277186 0.947528 -0.159245
vn -0.767509 -0.621492 -0.157092
vn -0.699099 0.466752 -0.541667
vn 0.446414 0.87933 -0.16581
vn 0.167443 -0.88017 0.444143
vn 0.52981 0.847215 -0.0390826
vn 0.882116 0.290268 0.370966
vn 0.674769 0.731786 -0.0957943
vn 0.621405 -0.527919 0.578927
vn -0.856573 0.0779083 -0.510111
vn -0.832729 -0.55198 -0.0433693
vn -0.134143 -0.810916 0.569579
vn -0.873166 -0.0210958 -0.486966
vn -0.248961 0.69111 -0.678517
vn 0.675421 0.703197 -0.222084
vn -0.340053 -0.810747 0.476501
vn -0.0123284 0.729001 -0.684401
vn 0.875628 0.479771 0.055634
vn 0.383234 -0.731713 0.563673
vn 0.972731 0.12858 -0.193034
vn 0.605308 0.593631 -0.530288
vn 0.255175 0.783413 -0.5667
vn -0.212446 -0.81601 0.537581
vn 0.995174 -0.0813449 -0.0548704
vn 0.82656 0.442675 -0.347616
vn -0.528971 0.7806 -0.332945
vn -0.307934 0.833657 -0.458467
vn -0.160027 -0.872789 0.461119
vn 0.448123 -0.824722 0.344992
vn 0.798713 -0.575054 0.177116
vn -0.0779699 -0.917515 0.389984
vn -0.161384 0.908322 -0.385883
vn -0.992341 0.0195216 0.121977
vn -0.887772 -0.369598 0.274333
vn -0.52089 0.814532 -0.255367
vn -0.822355 0.564865 -0.0682663
vn -0.555096 -0.761514 0.334612
vn -0.984523 0.130725 0.11673
vn -0.833043 -0.0611209 -0.549821
vn -0.498348 0.700953 -0.510209
vn -0.402776 -0.911782 -0.0801575
vn 0.365637 0.930572 0.0185981
vn -0.74969 0.319302 -0.579665
vn -0.62655 -0.763121 -0.15837
vn -0.109228 -0.974399 0.196511
vn 0.613296 -0.579989 0.536173
vn 0.487776 0.867462 0.0979041
vn 0.378258 -0.790892 0.481051
vn 0.841471 -0.0973798 0.531455
vn 0.769455 0.582682 0.261572
vn -0.833363 0.143065 -0.53389
vn -0.255739 -0.88343 0.392618
vn -0.25175 -0.855109 0.453223
vn 0.894644 0.402077 0.1948
vn 0.726673 -0.310865 0.612625
vn 0.487305 0.804295 -0.340063
vn 0.448796 -0.845298 0.28992
vn 0.73088 -0.667169 0.143873
vn 0.265935 -0.923976 0.274858
vn 0.398181 0.839216 -0.370362
vn 0.901337 0.354936 -0.24822
vn -0.408061 -0.868094 0.282663
vn 0.620155 -0.777293 0.105942
vn -0.819131 -0.509197 0.264088
vn -0.592655 -0.764864 0.252474
vn -0.024679 0.959793 -0.279622
vn 0.236 0.927437 -0.290112
vn -0.836294 0.548279 0.00182965
vn -0.269938 0.940291 -0.20733
vn -0.97958 0.137537 0.146651
vn -0.801662 -0.0434286 -0.596198
vn -0.440048 -0.837501 -0.323958
vn -0.00845953 -0.988823 0.148856
vn -0.531538 -0.662906 -0.527279
vn -0.597905 0.266679 -0.755905
vn -0.366916 0.813891 -0.450505
vn 0.072181 -0.990691 -0.115418
vn -0.337963 -0.808589 -0.481627
vn 0.176876 -0.244622 -0.953349
vn -0.348697 0.623104 -0.700108
vn 0.0533771 0.942928 -0.328691
vn 0.21321 0.976901 -0.0143384
vn 0.539702 -0.789043 0.293483
vn 0.465858 -0.803472 -0.370687
vn 0.49631 -0.371442 -0.78467
vn 0.910381 -0.344358 0.229398
vn 0.800522 -0.323464 0.504514
vn 0.317264 -0.0956073 -0.943506
vn 0.819671 -0.0845714 -0.566557
vn 0.930049 0.176682 0.322168
vn 0.545616 0.780911 -0.304106
vn 0.698975 0.683278 0.211105
vn 0.134039 0.987717 -0.0802995
vn 0.399549 -0.793942 0.458277
vn 0.813002 0.132721 0.566933
vn 0.32925 0.941631 0.0701789
vn -0.214019 0.804295 -0.554351
vn -0.249001 0.786643 -0.56497
vn -0.196977 0.794569 -0.574334
vn -0.172131 -0.889771 0.422704
vn 0.807575 0.586627 0.0607522
vn 0.874523 -0.0511371 0.48228
vn 0.465793 -0.879013 0.101851
vn 0.95729 0.206697 -0.202167
vn 0.609314 -0.792448 0.0276284
vn -0.210237 -0.960568 0.181962
vn 0.313964 -0.945884 0.0820401
vn -0.944514 -0.260409 0.2002
vn 0.914287 0.335588 -0.226846
vn -0.820152 0.569957 0.0500062
vn -0.964846 -0.152521 0.214033
vn -0.696351 -0.700807 -0.154806
vn -0.741699 -0.348764 -0.572928
vn -0.905192 -0.259266 -0.336761
vn -0.75023 0.16851 -0.639342
vn -0.391801 -0.903765 0.172339
vn -0.587313 -0.769279 -0.251541
vn -0.412249 0.0478352 -0.909814
vn -0.344205 -0.936995 0.0596994
vn 0.347174 -0.936366 0.0518539
vn 0.00811788 -0.357312 -0.93395
vn 0.00331334 0.0511852 -0.998684
vn 0.0554834 0.521095 -0.851693
vn 0.0445702 -0.899755 0.434113
vn -0.350414 0.654822 -0.66964
vn -0.848841 0.139779 -0.509834
vn 0.670009 0.739306 -0.067196
vn -0.635976 -0.745637 0.198898
vn 0.394119 -0.918663 0.0269859
vn 0.833444 -0.543205 -0.101491
vn 0.18695 0.971371 -0.146586
vn -0.973005 -0.0843157 0.214828
vn -0.598419 0.801086 0.0125032
vn 0.351105 -0.733157 -0.582414
vn 0.407692 -0.351453 -0.842774
vn 0.39915 0.0469763 -0.915682
vn 0.633766 0.364066 -0.682493
vn 0.776756 -0.626094 -0.0682397
vn 0.810008 -0.197998 -0.551982
vn 0.838234 -0.434518 -0.329481
vn 0.881162 0.467469 0.0708973
vn 0.67111 -0.453569 0.586418
vn 0.916375 0.190146 0.35228
vn 0.589906 -0.683871 0.429339
vn 0.911961 -0.201297 0.357502
vn 0.107456 0.809873 -0.57668
vn -0.118818 -0.988696 0.09145
vn 0.913683 0.343673 -0.216962
vn 0.813037 -0.567017 -0.132145
vn 0.977994 0.0215219 -0.207518
vn -0.976876 -0.0133267 0.213389
vn -0.0326873 0.998027 -0.0536111
vn 0.663823 -0.738685 -0.116972
vn 0.973097 0.047179 -0.225513
vn -0.884784 -0.402828 0.23428
vn -0.433471 -0.888746 0.149106
vn 0.582225 0.792909 -0.179749
vn -0.275639 0.961246 0.00543363
vn 0.316447 0.938457 -0.138418
vn 0.129673 -0.991025 0.0324713
vn -0.414506 -0.891093 0.184768
vn 0.86185 0.441934 -0.248817
vn 0.882306 -0.429135 -0.193338
vn -0.518502 0.853112 0.057924
vn -0.830983 -0.48486 0.272725
vn -0.953819 0.197403 0.226412
vn 0.149532 0.979983 -0.13143
vn 0.297896 -0.954391 0.0198953
vn 0.768892 0.580427 -0.26816
vn -0.730331 0.674215 0.109778
vn -0.14967 0.984882 -0.0872175
vn 0.964276 -0.00846006 -0.264765
vn 0.955851 0.0806696 -0.282562
vn -0.933516 -0.151633 0.324893
vn -0.758436 -0.535741 0.371156
vn -0.735842 -0.170815 0.655255
vn -0.348781 -0.905766 0.240708
vn -0.36039 -0.709122 0.606024
vn -0.257876 -0.159639 0.952898
vn 0.171155 -0.949353 0.263504
vn 0.233857 -0.352644 0.906065
vn 0.208594 0.0299589 0.977543
vn 0.456428 0.855845 -0.243319
vn 0.823442 0.4796 -0.303195
vn -0.935818 0.247889 0.25059
vn -0.846984 0.193782 0.495042
vn -0.740322 0.590313 0.321642
vn -0.340126 0.402048 0.850101
vn -0.37674 0.797755 0.470802
vn -0.344707 0.937415 0.0493044
vn 0.0703503 0.680926 0.728966
vn 0.0583264 0.95667 0.285272
vn 0.394536 0.815882 0.422703
vn 0.234642 0.969177 -0.0750874
vn 0.638268 -0.769601 -0.0181066
vn 0.660722 -0.731866 0.166788
vn 0.909385 -0.411726 0.059167
vn 0.644165 -0.0873537 0.759882
vn 0.929412 -0.351552 -0.112268
vn 0.410683 0.3943 0.822111
vn 0.820226 0.273818 0.502248
vn 0.864621 0.4982 0.0650192
vn 0.671926 0.578836 0.462022
vn 0.678156 0.694355 -0.24078
vn 0.594058 0.801228 0.0716254
vn 0.968757 0.0769749 -0.235764
vn 0.9971 0.0492854 0.0579852
vn 0.90272 0.373776 -0.213044
vn -0.953634 0.155682 -0.257576
vn -0.321335 -0.546066 0.773664
vn -0.886937 -0.192623 0.419808
vn -0.947878 0.223557 -0.227046
vn -0.780461 -0.282178 0.557903
vn -0.985755 0.151409 -0.0732321
vn 0.0769604 0.289165 -0.954181
vn -0.059562 0.244908 -0.967715
vn -0.968861 0.0141053 -0.247204
vn 0.736697 -0.126292 0.664325
vn -0.870329 0.140122 -0.472115
vn 0.526791 -0.25603 0.810518
vn -0.82082 0.245214 -0.515872
vn 0.44516 -0.319982 0.836328
vn -0.681667 0.0739595 -0.727915
vn -0.219868 -0.770137 0.598788
vn -0.498324 -0.270669 -0.823658
vn -0.865057 -0.453448 0.21462
vn -0.702781 -0.594657 0.390489
vn 0.788084 -0.0661076 0.612007
vn 0.773043 0.49389 -0.398091
vn 0.85247 -0.10893 0.511301
vn 0.919408 -0.0439422 0.390842
vn 0.970607 -0.038726 0.237535
vn 0.995568 0.0926225 0.0163165
vn 0.406596 0.551293 -0.72853
vn 0.744158 -0.359001 0.563336
vn 0.491612 0.475657 -0.72943
vn 0.915433 0.211411 -0.342475
vn -0.541415 0.437269 -0.718099
vn 0.990673 -0.13256 0.0315302
vn -0.418353 0.415564 -0.807643
vn -0.276769 0.426379 -0.861162
vn 0.803377 -0.322503 0.500577
vn -0.0870014 -0.320122 0.943373
vn 0.765825 0.111704 -0.633273
vn 0.824193 -0.318323 0.468376
vn 0.832864 0.0395516 -0.552063
vn 0.835434 -0.322013 0.445373
vn -0.358153 -0.406962 0.840302
vn -0.737405 -0.239864 0.631426
vn -0.917433 -0.316459 0.241185
vn -0.187019 -0.306449 0.933334
vn 0.226616 -0.279696 0.932961
vn 0.539259 -0.14395 0.829746
vn 0.53754 0.301718 -0.787412
vn 0.870933 0.288845 -0.397548
vn 0.919352 0.252312 -0.301879
vn 0.946246 0.117784 0.301241
vn 0.889944 -0.0677843 0.451004
vn 0.929821 0.170661 -0.326048
vn 0.927809 -0.202222 0.313491
vn 0.957838 -0.203423 0.202893
vn 0.566923 -0.36835 0.736829
vn 0.969167 -0.162871 -0.1849
vn 0.70333 -0.363381 0.610967
vn -0.618121 -0.140925 0.773348
vn 0.187464 -0.419589 0.888146
vn 0.823408 -0.390376 0.411832
vn -0.924058 0.349498 -0.154818
vn -0.891175 0.388994 -0.233431
vn -0.150442 -0.367021 0.917967
vn 0.154438 -0.937396 0.31215
vn 0.227479 -0.822193 -0.521779
vn -0.0998408 -0.425391 -0.899486
vn 0.262937 -0.79458 -0.547272
vn -0.275722 0.311041 -0.909522
vn 0.403748 0.173174 -0.898331
vn 0.403917 -0.74868 -0.525671
vn 0.459033 -0.467539 0.755444
vn 0.0355537 -0.425221 -0.904391
vn 0.421488 -0.00916208 -0.906788
vn 0.729197 -0.671974 0.129317
vn 0.475025 -0.427312 0.769256
vn 0.946648 -0.0824552 0.311543
vn 0.907724 0.0196612 -0.419106
vn 0.894479 0.412834 -0.171686
vn -0.568941 -0.145136 0.80947
vn 0.89513 -0.0667953 -0.440773
vn -0.29666 0.30108 -0.90628
vn 0.220874 -0.324059 0.919892
vn -0.899358 0.28446 -0.332021
vn 0.00890636 -0.254041 0.967152
vn 0.419261 0.23932 -0.875755
vn 0.935489 0.175984 -0.306415
vn 0.439311 0.280968 -0.853266
vn -0.302872 -0.322451 0.896825
vn -0.279795 0.305473 -0.910165
vn 0.785219 -0.167878 0.596027
vn -0.07278 0.367506 -0.927169
vn 0.96852 0.0346254 -0.246516
vn 0.0198843 0.414048 -0.910038
vn -0.275823 -0.404117 0.87213
vn -0.710351 -0.309101 0.632343
vn -0.0374877 0.505788 -0.861843
vn -0.160322 0.583464 -0.796157
vn 0.96852 0.0346254 -0.246516
vn -0.188476 -0.854785 0.483548
vn 0.0139001 0.0102082 -0.999851
vn 0.285743 0.27156 -0.919025
vn -0.54549 -0.419285 0.7257
vn 0.77484 -0.373903 0.509725
vn -0.0310439 -0.827508 0.560594
vn -0.923483 0.151418 -0.352494
vn 0.234337 0.474991 -0.848216
vn 0.856507 0.43235 -0.281902
vn 0.932715 0.352077 -0.0779999
vn -0.369385 0.22184 -0.902409
vn 0.202288 0.339023 -0.918773
vn 0.965271 0.243391 0.0949371
vn 0.66204 -0.0786914 0.745326
vn -0.911965 0.374046 -0.168549
vn 0.877849 -0.287451 0.383083
vn -0.846268 0.235063 -0.478096
vn -0.108748 0.252629 -0.961433
vn 0.758682 0.0058057 -0.651436
vn -0.100602 -0.940715 -0.323935
vn -0.3997 -0.829833 0.389381
vn -0.35307 0.278894 -0.893062
vn -0.932915 -0.320611 -0.163947
vn -0.796651 0.336915 -0.501832
vn 0.942078 -0.0871026 -0.323886
vn -0.398206 0.295848 -0.868277
vn -0.100602 -0.940715 -0.323935
vn 0.672929 -0.541814 0.503591
vn -0.3997 -0.829833 0.389381
vn 0.969527 0.225781 -0.0950822
vn 0.941581 0.310298 -0.130925
vn 0.727894 0.167513 -0.664914
vn 0.21169 0.783042 -0.584835
vn 0.324672 0.13761 -0.935762
vn 0.942078 -0.0871026 -0.323886
vn -0.988937 0.0598178 0.135742
vn -0.83288 0.161632 -0.529326
vn 0.942078 -0.0871026 -0.323886
vn -0.383795 0.19643 -0.902284
vn 0.0379628 -0.14637 0.988501
vn -0.821831 -0.00780751 -0.569677
vn -0.721085 -0.16904 0.671909
vn 0.469689 -0.0913249 0.878096
vn 0.393012 0.186865 -0.900346
vn 0.967691 0.160176 -0.194723
vn 0.924199 0.0644525 0.376432
vn 0.0592444 -0.567943 0.820933
vn -0.74768 -0.518333 0.415098
vn 0.0875553 0.0243763 -0.995861
vn -0.906394 -0.39462 -0.150749
vn -0.48954 0.357603 -0.79528
vn -0.74768 -0.518333 0.415098
vn 0.561574 -0.273246 0.781007
vn -0.47602 0.370105 -0.797764
vn 0.241154 0.528769 -0.813786
vn 0.699035 0.547017 -0.460568
vn -0.74768 -0.518333 0.415098
vn 0.127365 -0.774194 0.620001
vn 0.931196 0.240196 0.27419
vn -0.0166422 -0.446932 0.894413
vn -0.970421 0.240164 -0.0245943
vn -0.848395 -0.105972 0.518649
vn -0.56742 0.483463 -0.666557
vn -0.882324 -0.173966 0.43731
vn -0.869052 0.314135 -0.382188
vn -0.795683 0.328247 -0.509061
vn 0.217069 -0.80701 0.549196
vn -0.3997 -0.829833 0.389381
vn -0.459915 -0.877195 0.137863
vn -0.0745652 0.86327 -0.499204
vn 0.690634 0.713278 -0.119414
vn 0.942784 0.0928843 0.320204
vn 0.728251 0.674321 -0.122236
vn 0.0427763 0.84723 -0.5295
vn 0.87539 0.483262 -0.0122684
vn 0.677916 -0.491099 0.547039
vn 0.886755 0.462079 -0.0122147
vn 0.392609 0.144047 -0.908355
vn 0.847307 -0.0461174 0.529097
vn 0.949675 0.0288092 0.311909
vn -0.858288 -0.00253321 -0.513161
vn -0.0861959 -0.657561 0.748454
vn -0.535562 -0.76374 0.360382
vn -0.441723 0.504434 -0.741908
vn 0.846846 0.530283 -0.0406316
vn -0.314534 0.515715 -0.796936
vn -0.829321 0.0208213 -0.558385
vn 0.668965 -0.207813 0.713652
vn 0.906211 0.42192 0.0276602
vn 0.683119 0.596867 -0.42083
vn -0.844608 -0.193226 0.499301
vn 0.826688 -0.360704 0.431833
vn 0.292028 -0.615983 0.731632
vn 0.969836 -0.18324 0.160755
vn -0.26597 -0.664885 0.697988
vn -0.49515 -0.643587 0.583629
vn -0.873229 -0.360644 0.327729
vn 0.0808582 -0.930799 0.356477
vn 0.201694 0.939604 -0.27652
vn -0.115275 0.877076 -0.466314
vn 0.902843 -0.0100303 0.429854
vn 0.790753 0.611369 0.0306071
vn -0.452181 -0.882397 0.130032
vn 0.931199 0.170727 0.322058
vn -0.828058 -0.556421 -0.068668
vn -0.319564 -0.82394 0.467977
vn 0.554602 -0.44335 0.704172
vn -0.569978 0.455267 -0.684001
vn 0.121419 -0.631774 0.765584
vn 0.777351 -0.158258 0.608835
vn 0.98559 -0.161704 0.0496376
vn 0.452228 -0.763248 0.461457
vn 0.645015 -0.678168 0.3522
vn 0.450941 0.751211 -0.48201
vn -0.802529 -0.48614 0.345854
vn 0.986247 0.0475308 -0.158296
vn 0.572899 0.695869 -0.433074
vn -0.400084 -0.825726 0.39763
vn -0.681954 -0.667876 -0.298127
vn -0.224244 0.895283 -0.384945
vn 0.839976 0.100065 0.533318
vn 0.836894 0.24235 0.49079
vn -0.377301 0.689564 -0.618179
vn -0.790749 -0.610042 -0.0506375
vn 0.438732 -0.613484 0.656622
vn 0.988952 0.00414904 -0.148177
vn 0.278542 -0.938357 0.204697
vn -0.624015 0.766846 -0.150177
vn 0.299 0.923931 -0.238641
vn -0.233607 0.953475 -0.190559
vn -0.731737 0.681586 0.000447408
vn 0.147948 0.970535 -0.190192
vn -0.6563 -0.647053 -0.388063
vn -0.58917 -0.0436533 -0.806829
vn 0.029299 -0.434369 -0.900258
vn 0.242308 -0.718027 -0.652475
vn -0.3512 0.218645 -0.910414
vn 0.242093 0.427531 -0.870981
vn 0.336576 0.62894 -0.700821
vn 0.784112 -0.600457 0.156906
vn 0.791902 -0.31202 -0.524913
vn 0.482358 0.526758 -0.699898
vn 0.812963 -0.0672282 -0.578421
vn 0.997295 -0.0123586 0.0724531
vn 0.704379 0.490404 -0.51318
vn 0.820504 0.571166 0.0232927
vn -0.441086 0.769819 -0.461327
vn 0.749211 0.49811 0.436542
vn 0.42731 0.86647 -0.25814
vn 0.454828 0.841766 -0.290793
vn 0.568788 -0.546008 0.615106
vn -0.12775 -0.969816 0.207692
vn 0.893238 -0.448801 -0.0265411
vn 0.90435 -0.420238 -0.0744985
vn 0.96323 0.180822 -0.198725
vn -0.591014 -0.778202 0.212377
vn 0.35584 0.910069 -0.212492
vn -0.0380568 0.989173 -0.141731
vn -0.517042 0.854071 0.0568345
vn -0.890395 0.444474 0.0981823
vn -0.558527 0.82876 0.0347183
vn -0.200563 -0.568873 -0.797595
vn 0.16658 -0.869267 -0.46543
vn -0.443047 0.664695 -0.601572
vn -0.0695725 -0.990979 0.114544
vn 0.935104 0.279028 -0.218459
vn -0.558527 0.82876 0.0347183
vn -0.603916 -0.77601 0.181917
vn -0.303633 0.952781 0.00388809
vn -0.97558 0.0665605 0.209318
vn 0.673854 0.684026 -0.279339
vn 0.876723 -0.431014 0.213503
vn 0.97336 0.136306 0.184365
vn 0.902809 0.200941 -0.380208
vn 0.925384 0.158947 -0.344093
vn 0.608744 0.770793 -0.187907
vn 0.0780293 -0.996097 0.0412638
vn 0.40295 0.9019 -0.155591
vn -0.574484 0.813864 0.0871373
vn 0.214553 -0.858958 0.464929
vn 0.659134 -0.34925 0.666008
vn 0.847469 -0.02327 0.530335
g grp1
usemtl mtl1
f 55//55 53//53 2//2 
f 2//2 53//53 52//52 
f 51//51 1//1 564//564 
f 4//4 1//1 51//51 
f 2//2 52//52 1//1 
f 3//3 7//7 2//2 
f 2//2 1//1 3//3 
f 1//1 4//4 3//3 
f 2//2 7//7 5//5 
f 55//55 2//2 5//5 
f 55//55 5//5 62//62 
f 4//4 6//6 3//3 
f 7//7 3//3 547//547 
f 4//4 8//8 6//6 
f 63//63 548//548 4//4 
f 7//7 70//70 5//5 
f 9//9 7//7 547//547 
f 6//6 8//8 549//549 
f 548//548 63//63 10//10 
f 63//63 68//68 10//10 
f 68//68 71//71 10//10 
f 8//8 551//551 549//549 
f 72//72 70//70 7//7 
f 11//11 549//549 551//551 
f 72//72 7//7 74//74 
f 576//576 7//7 9//9 
f 11//11 12//12 549//549 
f 11//11 82//82 12//12 
f 10//10 71//71 75//75 
f 11//11 10//10 75//75 
f 82//82 11//11 75//75 
f 80//80 550//550 552//552 
f 552//552 87//87 80//80 
f 552//552 84//84 87//87 
f 14//14 13//13 18//18 
f 18//18 13//13 15//15 
f 101//101 14//14 16//16 
f 17//17 101//101 16//16 
f 104//104 553//553 19//19 
f 554//554 106//106 592//592 
f 15//15 103//103 22//22 
f 16//16 554//554 17//17 
f 14//14 20//20 16//16 
f 18//18 20//20 14//14 
f 22//22 18//18 15//15 
f 554//554 16//16 21//21 
f 16//16 20//20 555//555 
f 20//20 18//18 24//24 
f 18//18 22//22 24//24 
f 105//105 596//596 556//556 
f 555//555 20//20 23//23 
f 20//20 24//24 23//23 
f 30//30 554//554 21//21 
f 555//555 23//23 557//557 
f 30//30 33//33 554//554 
f 106//106 27//27 26//26 
f 596//596 26//26 25//25 
f 596//596 25//25 556//556 
f 23//23 32//32 557//557 
f 554//554 27//27 106//106 
f 23//23 29//29 28//28 
f 23//23 24//24 29//29 
f 28//28 32//32 23//23 
f 24//24 35//35 29//29 
f 24//24 22//22 35//35 
f 22//22 31//31 35//35 
f 27//27 34//34 26//26 
f 35//35 39//39 29//29 
f 29//29 39//39 28//28 
f 33//33 30//30 36//36 
f 557//557 32//32 559//559 
f 556//556 25//25 558//558 
f 25//25 26//26 107//107 
f 27//27 554//554 33//33 
f 33//33 34//34 27//27 
f 31//31 40//40 35//35 
f 40//40 31//31 37//37 
f 558//558 25//25 108//108 
f 558//558 108//108 560//560 
f 32//32 38//38 559//559 
f 32//32 28//28 38//38 
f 28//28 39//39 38//38 
f 35//35 40//40 39//39 
f 37//37 111//111 40//40 
f 36//36 41//41 33//33 
f 39//39 118//118 42//42 
f 38//38 39//39 42//42 
f 40//40 118//118 39//39 
f 559//559 38//38 41//41 
f 108//108 600//600 560//560 
f 111//111 115//115 40//40 
f 118//118 40//40 603//603 
f 606//606 43//43 42//42 
f 38//38 42//42 43//43 
f 41//41 38//38 43//43 
f 43//43 119//119 41//41 
f 46//46 54//54 44//44 
f 561//561 55//55 45//45 
f 45//45 55//55 56//56 
f 47//47 122//122 46//46 
f 561//561 48//48 563//563 
f 44//44 47//47 46//46 
f 562//562 49//49 565//565 
f 48//48 561//561 45//45 
f 126//126 48//48 45//45 
f 56//56 126//126 45//45 
f 122//122 47//47 123//123 
f 562//562 609//609 129//129 
f 562//562 129//129 124//124 
f 49//49 562//562 124//124 
f 611//611 563//563 125//125 
f 125//125 563//563 48//48 
f 49//49 124//124 50//50 
f 48//48 126//126 613//613 
f 127//127 126//126 56//56 
f 60//60 127//127 56//56 
f 54//54 52//52 53//53 
f 564//564 565//565 51//51 
f 565//565 49//49 51//51 
f 55//55 561//561 53//53 
f 53//53 44//44 54//54 
f 64//64 51//51 49//49 
f 57//57 49//49 50//50 
f 62//62 56//56 55//55 
f 566//566 58//58 568//568 
f 57//57 64//64 49//49 
f 58//58 59//59 65//65 
f 568//568 58//58 569//569 
f 567//567 59//59 56//56 
f 60//60 58//58 61//61 
f 566//566 50//50 61//61 
f 566//566 61//61 58//58 
f 60//60 59//59 58//58 
f 60//60 56//56 59//59 
f 51//51 63//63 4//4 
f 63//63 51//51 64//64 
f 567//567 65//65 59//59 
f 567//567 67//67 65//65 
f 66//66 63//63 64//64 
f 568//568 569//569 570//570 
f 569//569 571//571 570//570 
f 572//572 5//5 574//574 
f 572//572 62//62 5//5 
f 570//570 571//571 69//69 
f 571//571 575//575 69//69 
f 66//66 68//68 63//63 
f 68//68 66//66 573//573 
f 69//69 575//575 73//73 
f 68//68 573//573 71//71 
f 72//72 77//77 73//73 
f 71//71 573//573 73//73 
f 73//73 575//575 72//72 
f 71//71 73//73 78//78 
f 73//73 76//76 78//78 
f 76//76 73//73 77//77 
f 74//74 77//77 72//72 
f 75//75 71//71 78//78 
f 75//75 78//78 83//83 
f 578//578 576//576 9//9 
f 77//77 74//74 81//81 
f 579//579 576//576 578//578 
f 76//76 77//77 79//79 
f 77//77 81//81 79//79 
f 76//76 577//577 78//78 
f 83//83 82//82 75//75 
f 84//84 12//12 82//82 
f 82//82 88//88 84//84 
f 82//82 83//83 85//85 
f 579//579 578//578 91//91 
f 88//88 82//82 85//85 
f 78//78 577//577 92//92 
f 81//81 582//582 79//79 
f 94//94 80//80 87//87 
f 91//91 578//578 94//94 
f 83//83 78//78 583//583 
f 85//85 83//83 86//86 
f 88//88 85//85 86//86 
f 86//86 89//89 88//88 
f 83//83 583//583 580//580 
f 88//88 90//90 84//84 
f 84//84 95//95 87//87 
f 84//84 90//90 95//95 
f 89//89 581//581 88//88 
f 86//86 93//93 89//89 
f 89//89 93//93 581//581 
f 580//580 583//583 585//585 
f 87//87 95//95 94//94 
f 79//79 582//582 584//584 
f 94//94 95//95 96//96 
f 93//93 138//138 581//581 
f 95//95 90//90 624//624 
f 95//95 139//139 96//96 
f 95//95 624//624 139//139 
f 151//151 97//97 160//160 
f 97//97 98//98 99//99 
f 170//170 99//99 98//98 
f 181//181 100//100 101//101 
f 188//188 102//102 100//100 
f 100//100 588//588 101//101 
f 101//101 13//13 14//14 
f 101//101 588//588 13//13 
f 103//103 13//13 589//589 
f 191//191 593//593 192//192 
f 593//593 594//594 192//192 
f 101//101 17//17 654//654 
f 553//553 104//104 655//655 
f 13//13 103//103 15//15 
f 594//594 593//593 597//597 
f 591//591 105//105 556//556 
f 26//26 34//34 107//107 
f 25//25 107//107 598//598 
f 110//110 34//34 33//33 
f 107//107 34//34 109//109 
f 107//107 599//599 598//598 
f 598//598 599//599 114//114 
f 110//110 109//109 34//34 
f 110//110 113//113 109//109 
f 112//112 113//113 110//110 
f 33//33 112//112 110//110 
f 599//599 601//601 114//114 
f 108//108 602//602 600//600 
f 112//112 33//33 41//41 
f 41//41 119//119 112//112 
f 196//196 112//112 119//119 
f 114//114 601//601 117//117 
f 118//118 603//603 121//121 
f 600//600 602//602 116//116 
f 111//111 604//604 115//115 
f 115//115 604//604 194//194 
f 602//602 605//605 116//116 
f 112//112 120//120 113//113 
f 196//196 120//120 112//112 
f 117//117 601//601 120//120 
f 607//607 43//43 606//606 
f 196//196 119//119 245//245 
f 608//608 115//115 194//194 
f 118//118 121//121 243//243 
f 118//118 243//243 198//198 
f 606//606 658//658 607//607 
f 607//607 658//658 250//250 
f 129//129 609//609 128//128 
f 610//610 612//612 615//615 
f 612//612 130//130 615//615 
f 617//617 611//611 125//125 
f 136//136 60//60 61//61 
f 136//136 127//127 60//60 
f 131//131 615//615 130//130 
f 129//129 128//128 619//619 
f 132//132 129//129 619//619 
f 616//616 620//620 124//124 
f 614//614 133//133 618//618 
f 131//131 130//130 622//622 
f 137//137 131//131 622//622 
f 137//137 621//621 131//131 
f 124//124 620//620 134//134 
f 134//134 621//621 137//137 
f 124//124 134//134 50//50 
f 133//133 614//614 126//126 
f 133//133 126//126 135//135 
f 623//623 136//136 137//137 
f 137//137 136//136 134//134 
f 134//134 136//136 61//61 
f 50//50 134//134 61//61 
f 135//135 126//126 127//127 
f 136//136 623//623 127//127 
f 622//622 623//623 137//137 
f 91//91 94//94 144//144 
f 96//96 144//144 94//94 
f 585//585 583//583 142//142 
f 584//584 582//582 141//141 
f 626//626 91//91 144//144 
f 140//140 142//142 583//583 
f 141//141 625//625 584//584 
f 624//624 143//143 139//139 
f 138//138 93//93 627//627 
f 143//143 138//138 627//627 
f 139//139 143//143 211//211 
f 139//139 145//145 96//96 
f 139//139 211//211 145//145 
f 628//628 144//144 96//96 
f 141//141 205//205 625//625 
f 144//144 628//628 204//204 
f 144//144 665//665 626//626 
f 143//143 627//627 199//199 
f 146//146 231//231 149//149 
f 225//225 147//147 232//232 
f 149//149 231//231 150//150 
f 229//229 146//146 148//148 
f 147//147 229//229 148//148 
f 232//232 147//147 153//153 
f 233//233 687//687 630//630 
f 146//146 97//97 148//148 
f 146//146 149//149 97//97 
f 686//686 234//234 154//154 
f 686//686 154//154 150//150 
f 147//147 148//148 151//151 
f 147//147 151//151 153//153 
f 148//148 97//97 151//151 
f 149//149 152//152 97//97 
f 629//629 149//149 150//150 
f 155//155 233//233 630//630 
f 154//154 156//156 159//159 
f 151//151 157//157 153//153 
f 632//632 155//155 630//630 
f 155//155 632//632 165//165 
f 631//631 155//155 162//162 
f 156//156 162//162 159//159 
f 152//152 158//158 97//97 
f 633//633 629//629 161//161 
f 150//150 154//154 629//629 
f 154//154 161//161 629//629 
f 151//151 634//634 157//157 
f 636//636 157//157 634//634 
f 98//98 97//97 158//158 
f 160//160 97//97 99//99 
f 154//154 159//159 635//635 
f 164//164 155//155 165//165 
f 155//155 164//164 162//162 
f 159//159 162//162 163//163 
f 99//99 167//167 160//160 
f 164//164 165//165 169//169 
f 162//162 164//164 163//163 
f 163//163 164//164 166//166 
f 635//635 159//159 163//163 
f 164//164 169//169 166//166 
f 636//636 634//634 638//638 
f 163//163 168//168 635//635 
f 161//161 639//639 633//633 
f 168//168 163//163 166//166 
f 638//638 169//169 636//636 
f 639//639 586//586 633//633 
f 586//586 639//639 178//178 
f 172//172 167//167 99//99 
f 172//172 99//99 171//171 
f 171//171 99//99 170//170 
f 638//638 641//641 169//169 
f 169//169 641//641 173//173 
f 172//172 171//171 174//174 
f 640//640 587//587 647//647 
f 648//648 168//168 166//166 
f 648//648 166//166 176//176 
f 637//637 177//177 643//643 
f 237//237 649//649 644//644 
f 174//174 171//171 180//180 
f 173//173 641//641 642//642 
f 185//185 174//174 180//180 
f 173//173 642//642 186//186 
f 169//169 173//173 175//175 
f 175//175 173//173 186//186 
f 166//166 169//169 175//175 
f 166//166 175//175 646//646 
f 175//175 186//186 646//646 
f 186//186 239//239 646//646 
f 646//646 692//692 645//645 
f 184//184 181//181 640//640 
f 184//184 640//640 647//647 
f 647//647 240//240 184//184 
f 170//170 650//650 171//171 
f 171//171 650//650 180//180 
f 182//182 185//185 180//180 
f 182//182 180//180 650//650 
f 179//179 182//182 650//650 
f 179//179 183//183 185//185 
f 182//182 179//179 185//185 
f 187//187 651//651 191//191 
f 185//185 186//186 642//642 
f 185//185 183//183 186//186 
f 187//187 186//186 651//651 
f 239//239 186//186 187//187 
f 188//188 184//184 240//240 
f 240//240 189//189 188//188 
f 101//101 183//183 179//179 
f 179//179 650//650 101//101 
f 181//181 184//184 100//100 
f 188//188 100//100 184//184 
f 189//189 240//240 238//238 
f 190//190 189//189 238//238 
f 653//653 241//241 652//652 
f 702//702 190//190 238//238 
f 183//183 101//101 654//654 
f 653//653 656//656 193//193 
f 190//190 657//657 189//189 
f 656//656 653//653 652//652 
f 189//189 590//590 188//188 
f 591//591 590//590 189//189 
f 192//192 187//187 191//191 
f 189//189 657//657 591//591 
f 591//591 657//657 105//105 
f 193//193 656//656 595//595 
f 120//120 242//242 117//117 
f 196//196 242//242 120//120 
f 604//604 195//195 194//194 
f 197//197 116//116 605//605 
f 195//195 116//116 197//197 
f 703//703 608//608 194//194 
f 119//119 706//706 245//245 
f 246//246 703//703 194//194 
f 195//195 246//246 194//194 
f 197//197 244//244 195//195 
f 244//244 246//246 195//195 
f 198//198 243//243 249//249 
f 200//200 142//142 140//140 
f 627//627 200//200 199//199 
f 199//199 211//211 143//143 
f 205//205 201//201 625//625 
f 659//659 200//200 140//140 
f 203//203 666//666 254//254 
f 211//211 202//202 145//145 
f 628//628 660//660 204//204 
f 661//661 626//626 665//665 
f 662//662 205//205 141//141 
f 200//200 659//659 213//213 
f 670//670 663//663 206//206 
f 205//205 213//213 201//201 
f 214//214 260//260 667//667 
f 209//209 208//208 676//676 
f 205//205 671//671 207//207 
f 262//262 717//717 676//676 
f 205//205 207//207 213//213 
f 208//208 262//262 676//676 
f 207//207 210//210 213//213 
f 673//673 674//674 210//210 
f 213//213 210//210 215//215 
f 675//675 210//210 674//674 
f 199//199 212//212 211//211 
f 212//212 217//217 211//211 
f 216//216 212//212 199//199 
f 216//216 200//200 213//213 
f 199//199 200//200 216//216 
f 204//204 660//660 218//218 
f 675//675 677//677 219//219 
f 215//215 210//210 264//264 
f 210//210 675//675 264//264 
f 211//211 679//679 202//202 
f 202//202 679//679 680//680 
f 263//263 213//213 215//215 
f 213//213 263//263 216//216 
f 681//681 678//678 668//668 
f 669//669 680//680 682//682 
f 216//216 265//265 212//212 
f 212//212 222//222 217//217 
f 679//679 221//221 680//680 
f 221//221 220//220 680//680 
f 221//221 217//217 222//222 
f 680//680 220//220 682//682 
f 682//682 220//220 269//269 
f 265//265 683//683 212//212 
f 223//223 221//221 222//222 
f 224//224 684//684 220//220 
f 269//269 220//220 225//225 
f 221//221 224//224 220//220 
f 221//221 223//223 224//224 
f 222//222 226//226 223//223 
f 269//269 225//225 232//232 
f 270//270 227//227 683//683 
f 687//687 272//272 721//721 
f 227//227 270//270 271//271 
f 223//223 229//229 224//224 
f 223//223 226//226 229//229 
f 684//684 224//224 229//229 
f 222//222 685//685 226//226 
f 226//226 685//685 230//230 
f 226//226 230//230 229//229 
f 272//272 687//687 233//233 
f 228//228 233//233 688//688 
f 228//228 689//689 723//723 
f 229//229 230//230 146//146 
f 230//230 231//231 146//146 
f 230//230 685//685 231//231 
f 271//271 686//686 227//227 
f 686//686 271//271 234//234 
f 229//229 147//147 684//684 
f 688//688 233//233 631//631 
f 234//234 156//156 154//154 
f 233//233 155//155 631//631 
f 274//274 235//235 278//278 
f 729//729 236//236 276//276 
f 725//725 277//277 690//690 
f 278//278 235//235 693//693 
f 276//276 236//236 280//280 
f 729//729 694//694 236//236 
f 697//697 236//236 694//694 
f 698//698 280//280 236//236 
f 240//240 690//690 238//238 
f 702//702 238//238 279//279 
f 702//702 279//279 732//732 
f 691//691 700//700 695//695 
f 701//701 649//649 237//237 
f 692//692 646//646 239//239 
f 733//733 699//699 241//241 
f 241//241 699//699 652//652 
f 242//242 197//197 117//117 
f 196//196 247//247 242//242 
f 197//197 242//242 248//248 
f 242//242 247//247 248//248 
f 246//246 251//251 703//703 
f 244//244 197//197 248//248 
f 247//247 196//196 245//245 
f 658//658 704//704 250//250 
f 249//249 243//243 251//251 
f 247//247 245//245 284//284 
f 284//284 283//283 247//247 
f 247//247 283//283 248//248 
f 251//251 246//246 286//286 
f 250//250 704//704 252//252 
f 284//284 245//245 282//282 
f 249//249 251//251 292//292 
f 251//251 286//286 296//296 
f 290//290 245//245 706//706 
f 282//282 245//245 290//290 
f 705//705 734//734 707//707 
f 292//292 251//251 296//296 
f 291//291 282//282 290//290 
f 302//302 707//707 734//734 
f 708//708 290//290 706//706 
f 290//290 708//708 294//294 
f 302//302 253//253 707//707 
f 294//294 708//708 305//305 
f 708//708 253//253 305//305 
f 255//255 254//254 340//340 
f 256//256 709//709 667//667 
f 256//256 667//667 260//260 
f 713//713 717//717 257//257 
f 255//255 203//203 254//254 
f 258//258 710//710 347//347 
f 259//259 261//261 715//715 
f 714//714 718//718 716//716 
f 716//716 346//346 714//714 
f 747//747 259//259 715//715 
f 664//664 711//711 672//672 
f 207//207 671//671 719//719 
f 710//710 258//258 671//671 
f 671//671 258//258 719//719 
f 262//262 257//257 717//717 
f 718//718 714//714 720//720 
f 674//674 718//718 720//720 
f 718//718 674//674 673//673 
f 219//219 264//264 675//675 
f 215//215 264//264 263//263 
f 263//263 265//265 216//216 
f 264//264 219//219 267//267 
f 263//263 264//264 265//265 
f 721//721 267//267 219//219 
f 265//265 264//264 266//266 
f 265//265 266//266 722//722 
f 264//264 267//267 268//268 
f 264//264 268//268 266//266 
f 266//266 268//268 722//722 
f 270//270 683//683 265//265 
f 272//272 267//267 721//721 
f 267//267 272//272 268//268 
f 268//268 272//272 228//228 
f 268//268 228//228 723//723 
f 722//722 268//268 723//723 
f 272//272 233//233 228//228 
f 273//273 349//349 274//274 
f 730//730 275//275 724//724 
f 354//354 726//726 749//749 
f 727//727 729//729 355//355 
f 273//273 274//274 278//278 
f 725//725 752//752 277//277 
f 690//690 277//277 238//238 
f 277//277 731//731 696//696 
f 728//728 732//732 356//356 
f 356//356 732//732 279//279 
f 246//246 244//244 286//286 
f 244//244 248//248 281//281 
f 248//248 283//283 281//281 
f 286//286 244//244 281//281 
f 284//284 282//282 288//288 
f 286//286 281//281 285//285 
f 281//281 283//283 285//285 
f 286//286 285//285 289//289 
f 287//287 283//283 284//284 
f 288//288 287//287 284//284 
f 283//283 287//287 285//285 
f 287//287 288//288 293//293 
f 285//285 287//287 289//289 
f 288//288 282//282 291//291 
f 286//286 289//289 296//296 
f 287//287 293//293 289//289 
f 293//293 288//288 295//295 
f 295//295 288//288 291//291 
f 302//302 292//292 298//298 
f 296//296 298//298 292//292 
f 289//289 293//293 301//301 
f 299//299 295//295 291//291 
f 297//297 291//291 290//290 
f 290//290 294//294 297//297 
f 299//299 291//291 297//297 
f 295//295 299//299 300//300 
f 293//293 295//295 300//300 
f 300//300 301//301 293//293 
f 298//298 296//296 303//303 
f 296//296 289//289 735//735 
f 297//297 294//294 305//305 
f 297//297 306//306 299//299 
f 307//307 299//299 306//306 
f 301//301 300//300 308//308 
f 303//303 315//315 298//298 
f 302//302 314//314 253//253 
f 309//309 302//302 298//298 
f 315//315 736//736 298//298 
f 299//299 304//304 300//300 
f 301//301 735//735 289//289 
f 308//308 300//300 304//304 
f 314//314 302//302 309//309 
f 310//310 305//305 253//253 
f 297//297 305//305 306//306 
f 312//312 307//307 306//306 
f 307//307 304//304 299//299 
f 304//304 307//307 313//313 
f 312//312 313//313 307//307 
f 304//304 313//313 308//308 
f 737//737 735//735 301//301 
f 305//305 310//310 311//311 
f 306//306 305//305 311//311 
f 312//312 306//306 311//311 
f 321//321 313//313 312//312 
f 313//313 321//321 320//320 
f 308//308 313//313 320//320 
f 253//253 314//314 310//310 
f 321//321 312//312 319//319 
f 311//311 319//319 312//312 
f 311//311 310//310 318//318 
f 309//309 322//322 314//314 
f 309//309 316//316 322//322 
f 736//736 315//315 317//317 
f 738//738 316//316 309//309 
f 315//315 357//357 325//325 
f 316//316 738//738 739//739 
f 325//325 317//317 315//315 
f 310//310 314//314 318//318 
f 319//319 311//311 318//318 
f 319//319 318//318 324//324 
f 320//320 321//321 358//358 
f 318//318 314//314 323//323 
f 314//314 322//322 323//323 
f 324//324 318//318 323//323 
f 322//322 316//316 739//739 
f 319//319 324//324 327//327 
f 319//319 327//327 326//326 
f 321//321 319//319 326//326 
f 359//359 321//321 326//326 
f 358//358 321//321 359//359 
f 739//739 330//330 322//322 
f 324//324 323//323 328//328 
f 328//328 327//327 324//324 
f 326//326 327//327 329//329 
f 360//360 359//359 326//326 
f 322//322 331//331 323//323 
f 323//323 331//331 328//328 
f 329//329 327//327 328//328 
f 329//329 328//328 332//332 
f 360//360 326//326 329//329 
f 740//740 331//331 322//322 
f 330//330 739//739 361//361 
f 361//361 366//366 330//330 
f 329//329 332//332 365//365 
f 329//329 365//365 360//360 
f 332//332 328//328 331//331 
f 740//740 334//334 331//331 
f 331//331 334//334 333//333 
f 332//332 331//331 333//333 
f 758//758 334//334 740//740 
f 364//364 332//332 333//333 
f 382//382 340//340 335//335 
f 336//336 340//340 382//382 
f 340//340 337//337 335//335 
f 343//343 741//741 386//386 
f 336//336 746//746 340//340 
f 338//338 337//337 341//341 
f 742//742 339//339 338//338 
f 344//344 339//339 742//742 
f 387//387 388//388 345//345 
f 344//344 388//388 339//339 
f 345//345 388//388 344//344 
f 746//746 712//712 340//340 
f 710//710 343//343 347//347 
f 341//341 709//709 256//256 
f 254//254 337//337 340//340 
f 341//341 337//337 709//709 
f 743//743 713//713 257//257 
f 742//742 714//714 342//342 
f 344//344 742//742 342//342 
f 346//346 342//342 714//714 
f 347//347 345//345 744//744 
f 386//386 347//347 343//343 
f 345//345 344//344 745//745 
f 387//387 347//347 386//386 
f 345//345 347//347 387//387 
f 347//347 744//744 715//715 
f 744//744 747//747 715//715 
f 348//348 351//351 389//389 
f 751//751 352//352 766//766 
f 391//391 350//350 749//749 
f 391//391 749//749 390//390 
f 748//748 349//349 273//273 
f 355//355 394//394 352//352 
f 724//724 351//351 348//348 
f 751//751 727//727 352//352 
f 724//724 275//275 351//351 
f 352//352 727//727 355//355 
f 276//276 353//353 355//355 
f 353//353 394//394 355//355 
f 728//728 356//356 353//353 
f 354//354 749//749 350//350 
f 752//752 750//750 277//277 
f 750//750 753//753 277//277 
f 750//750 393//393 753//753 
f 276//276 355//355 729//729 
f 731//731 277//277 753//753 
f 301//301 308//308 737//737 
f 737//737 308//308 358//358 
f 308//308 320//320 358//358 
f 754//754 737//737 358//358 
f 362//362 754//754 358//358 
f 363//363 358//358 359//359 
f 755//755 325//325 357//357 
f 755//755 357//357 756//756 
f 756//756 367//367 755//755 
f 359//359 360//360 363//363 
f 363//363 360//360 757//757 
f 358//358 363//363 362//362 
f 366//366 361//361 367//367 
f 332//332 364//364 365//365 
f 365//365 364//364 370//370 
f 757//757 760//760 363//363 
f 756//756 368//368 367//367 
f 367//367 369//369 366//366 
f 396//396 367//367 368//368 
f 395//395 367//367 396//396 
f 362//362 363//363 759//759 
f 759//759 363//363 399//399 
f 395//395 369//369 367//367 
f 333//333 373//373 364//364 
f 373//373 370//370 364//364 
f 373//373 333//333 371//371 
f 363//363 398//398 399//399 
f 333//333 334//334 371//371 
f 398//398 363//363 760//760 
f 758//758 372//372 334//334 
f 372//372 371//371 334//334 
f 369//369 761//761 366//366 
f 369//369 395//395 397//397 
f 371//371 372//372 375//375 
f 375//375 761//761 369//369 
f 373//373 371//371 374//374 
f 398//398 370//370 373//373 
f 374//374 371//371 376//376 
f 398//398 373//373 404//404 
f 771//771 373//373 374//374 
f 375//375 402//402 371//371 
f 376//376 406//406 374//374 
f 771//771 374//374 406//406 
f 381//381 377//377 335//335 
f 337//337 381//381 335//335 
f 762//762 379//379 382//382 
f 382//382 379//379 383//383 
f 381//381 409//409 377//377 
f 337//337 378//378 381//381 
f 776//776 379//379 762//762 
f 381//381 413//413 409//409 
f 385//385 380//380 339//339 
f 382//382 383//383 336//336 
f 335//335 762//762 382//382 
f 379//379 432//432 383//383 
f 432//432 386//386 383//383 
f 387//387 386//386 384//384 
f 764//764 765//765 387//387 
f 386//386 432//432 384//384 
f 386//386 741//741 383//383 
f 763//763 338//338 339//339 
f 378//378 337//337 338//338 
f 378//378 338//338 763//763 
f 339//339 388//388 385//385 
f 765//765 388//388 387//387 
f 348//348 389//389 464//464 
f 436//436 807//807 766//766 
f 748//748 767//767 349//349 
f 392//392 393//393 440//440 
f 436//436 766//766 437//437 
f 439//439 793//793 394//394 
f 439//439 392//392 440//440 
f 437//437 766//766 352//352 
f 394//394 793//793 352//352 
f 768//768 393//393 750//750 
f 439//439 394//394 392//392 
f 353//353 392//392 394//394 
f 392//392 353//353 356//356 
f 393//393 392//392 753//753 
f 759//759 399//399 769//769 
f 396//396 397//397 395//395 
f 369//369 397//397 375//375 
f 400//400 375//375 397//397 
f 405//405 399//399 398//398 
f 404//404 405//405 398//398 
f 401//401 397//397 396//396 
f 399//399 442//442 769//769 
f 399//399 447//447 442//442 
f 400//400 402//402 375//375 
f 401//401 770//770 397//397 
f 396//396 796//796 401//401 
f 400//400 403//403 402//402 
f 401//401 441//441 770//770 
f 371//371 402//402 376//376 
f 400//400 795//795 403//403 
f 405//405 404//404 773//773 
f 405//405 447//447 399//399 
f 402//402 408//408 376//376 
f 773//773 407//407 405//405 
f 402//402 403//403 408//408 
f 376//376 408//408 406//406 
f 408//408 774//774 406//406 
f 795//795 444//444 403//403 
f 403//403 446//446 408//408 
f 381//381 414//414 413//413 
f 410//410 379//379 776//776 
f 410//410 411//411 379//379 
f 411//411 432//432 379//379 
f 410//410 776//776 412//412 
f 409//409 413//413 777//777 
f 410//410 416//416 415//415 
f 410//410 415//415 411//411 
f 415//415 421//421 411//411 
f 425//425 432//432 421//421 
f 421//421 432//432 411//411 
f 778//778 423//423 779//779 
f 416//416 410//410 412//412 
f 423//423 778//778 417//417 
f 780//780 777//777 413//413 
f 418//418 780//780 413//413 
f 414//414 418//418 413//413 
f 419//419 418//418 414//414 
f 419//419 414//414 420//420 
f 414//414 431//431 420//420 
f 430//430 420//420 434//434 
f 434//434 420//420 431//431 
f 779//779 423//423 422//422 
f 415//415 779//779 422//422 
f 422//422 421//421 415//415 
f 426//426 423//423 417//417 
f 785//785 781//781 782//782 
f 429//429 785//785 782//782 
f 429//429 782//782 419//419 
f 429//429 419//419 420//420 
f 424//424 421//421 783//783 
f 422//422 423//423 784//784 
f 425//425 421//421 424//424 
f 786//786 427//427 423//423 
f 423//423 427//427 784//784 
f 424//424 787//787 428//428 
f 424//424 428//428 425//425 
f 788//788 785//785 429//429 
f 428//428 789//789 430//430 
f 430//430 789//789 429//429 
f 420//420 430//430 429//429 
f 381//381 378//378 790//790 
f 790//790 378//378 763//763 
f 384//384 432//432 433//433 
f 381//381 790//790 414//414 
f 791//791 765//765 433//433 
f 433//433 765//765 764//764 
f 434//434 431//431 380//380 
f 385//385 434//434 380//380 
f 430//430 791//791 433//433 
f 425//425 428//428 433//433 
f 432//432 425//425 433//433 
f 428//428 430//430 433//433 
f 452//452 348//348 464//464 
f 462//462 438//438 390//390 
f 748//748 452//452 767//767 
f 435//435 807//807 436//436 
f 481//481 439//439 440//440 
f 438//438 391//391 390//390 
f 393//393 768//768 794//794 
f 794//794 440//440 393//393 
f 435//435 436//436 437//437 
f 792//792 793//793 465//465 
f 793//793 439//439 465//465 
f 443//443 441//441 401//401 
f 401//401 796//796 797//797 
f 798//798 442//442 447//447 
f 444//444 799//799 403//403 
f 795//795 445//445 444//444 
f 444//444 466//466 799//799 
f 443//443 445//445 441//441 
f 445//445 467//467 444//444 
f 443//443 467//467 445//445 
f 449//449 408//408 446//446 
f 444//444 467//467 808//808 
f 446//446 470//470 449//449 
f 800//800 772//772 775//775 
f 448//448 774//774 408//408 
f 775//775 801//801 469//469 
f 469//469 800//800 775//775 
f 448//448 408//408 803//803 
f 802//802 804//804 810//810 
f 451//451 450//450 452//452 
f 452//452 450//450 767//767 
f 453//453 456//456 451//451 
f 451//451 452//452 453//453 
f 456//456 453//453 463//463 
f 453//453 807//807 463//463 
f 462//462 454//454 457//457 
f 450//450 451//451 455//455 
f 450//450 455//455 457//457 
f 454//454 450//450 457//457 
f 454//454 767//767 450//450 
f 451//451 456//456 805//805 
f 463//463 461//461 456//456 
f 805//805 459//459 472//472 
f 806//806 805//805 472//472 
f 459//459 805//805 456//456 
f 459//459 456//456 460//460 
f 460//460 456//456 461//461 
f 461//461 463//463 484//484 
f 457//457 458//458 462//462 
f 806//806 472//472 458//458 
f 472//472 459//459 473//473 
f 460//460 474//474 459//459 
f 474//474 473//473 459//459 
f 460//460 461//461 474//474 
f 461//461 475//475 474//474 
f 484//484 475//475 461//461 
f 454//454 462//462 390//390 
f 480//480 794//794 462//462 
f 463//463 807//807 435//435 
f 484//484 463//463 435//435 
f 792//792 465//465 819//819 
f 453//453 452//452 464//464 
f 465//465 439//439 481//481 
f 440//440 794//794 480//480 
f 480//480 481//481 440//440 
f 467//467 443//443 468//468 
f 798//798 447//447 809//809 
f 467//467 485//485 808//808 
f 799//799 466//466 811//811 
f 447//447 486//486 809//809 
f 469//469 821//821 800//800 
f 810//810 804//804 471//471 
f 469//469 812//812 490//490 
f 469//469 490//490 821//821 
f 472//472 476//476 458//458 
f 476//476 482//482 458//458 
f 458//458 482//482 462//462 
f 477//477 472//472 473//473 
f 472//472 477//477 476//476 
f 477//477 473//473 474//474 
f 814//814 819//819 479//479 
f 483//483 482//482 476//476 
f 476//476 477//477 478//478 
f 476//476 815//815 483//483 
f 816//816 479//479 483//483 
f 477//477 474//474 475//475 
f 475//475 818//818 477//477 
f 477//477 818//818 817//817 
f 480//480 462//462 482//482 
f 465//465 481//481 479//479 
f 480//480 482//482 483//483 
f 483//483 479//479 481//481 
f 480//480 483//483 481//481 
f 465//465 479//479 819//819 
f 467//467 468//468 487//487 
f 820//820 811//811 466//466 
f 487//487 468//468 488//488 
f 809//809 486//486 488//488 
f 821//821 490//490 495//495 
f 470//470 813//813 449//449 
f 489//489 813//813 470//470 
f 812//812 822//822 490//490 
f 497//497 495//495 490//490 
f 467//467 487//487 820//820 
f 491//491 820//820 487//487 
f 820//820 494//494 811//811 
f 492//492 486//486 495//495 
f 487//487 488//488 492//492 
f 492//492 491//491 487//487 
f 822//822 502//502 496//496 
f 822//822 496//496 490//490 
f 470//470 493//493 489//489 
f 492//492 501//501 491//491 
f 811//811 494//494 493//493 
f 492//492 488//488 486//486 
f 493//493 504//504 489//489 
f 502//502 822//822 504//504 
f 820//820 498//498 494//494 
f 820//820 491//491 498//498 
f 494//494 499//499 493//493 
f 499//499 494//494 498//498 
f 491//491 506//506 498//498 
f 506//506 491//491 501//501 
f 500//500 492//492 495//495 
f 497//497 500//500 495//495 
f 492//492 500//500 501//501 
f 490//490 496//496 497//497 
f 507//507 500//500 497//497 
f 497//497 496//496 505//505 
f 506//506 499//499 498//498 
f 506//506 515//515 499//499 
f 497//497 505//505 507//507 
f 496//496 502//502 505//505 
f 493//493 499//499 503//503 
f 503//503 504//504 493//493 
f 504//504 508//508 502//502 
f 503//503 499//499 515//515 
f 506//506 518//518 515//515 
f 500//500 510//510 501//501 
f 500//500 507//507 510//510 
f 510//510 507//507 511//511 
f 507//507 522//522 511//511 
f 504//504 503//503 512//512 
f 503//503 513//513 512//512 
f 512//512 523//523 504//504 
f 503//503 515//515 513//513 
f 505//505 521//521 507//507 
f 502//502 508//508 509//509 
f 505//505 502//502 509//509 
f 505//505 509//509 521//521 
f 504//504 523//523 508//508 
f 533//533 506//506 501//501 
f 537//537 501//501 510//510 
f 510//510 511//511 537//537 
f 518//518 506//506 533//533 
f 533//533 501//501 537//537 
f 523//523 512//512 524//524 
f 512//512 514//514 524//524 
f 515//515 516//516 513//513 
f 514//514 512//512 513//513 
f 516//516 517//517 514//514 
f 513//513 516//516 514//514 
f 517//517 516//516 519//519 
f 514//514 517//517 526//526 
f 516//516 515//515 518//518 
f 518//518 823//823 516//516 
f 534//534 823//823 518//518 
f 517//517 519//519 520//520 
f 521//521 522//522 507//507 
f 508//508 523//523 525//525 
f 509//509 508//508 528//528 
f 528//528 508//508 525//525 
f 521//521 509//509 532//532 
f 524//524 525//525 523//523 
f 526//526 524//524 514//514 
f 525//525 524//524 526//526 
f 525//525 526//526 527//527 
f 525//525 527//527 528//528 
f 529//529 527//527 526//526 
f 528//528 527//527 530//530 
f 527//527 529//529 530//530 
f 532//532 509//509 528//528 
f 520//520 526//526 517//517 
f 529//529 538//538 531//531 
f 538//538 529//529 526//526 
f 531//531 530//530 529//529 
f 532//532 528//528 530//530 
f 538//538 526//526 520//520 
f 530//530 531//531 532//532 
f 522//522 544//544 511//511 
f 518//518 533//533 534//534 
f 520//520 519//519 536//536 
f 536//536 538//538 520//520 
f 537//537 534//534 533//533 
f 535//535 534//534 537//537 
f 824//824 825//825 536//536 
f 519//519 824//824 536//536 
f 825//825 539//539 536//536 
f 537//537 545//545 535//535 
f 511//511 544//544 537//537 
f 537//537 544//544 545//545 
f 825//825 545//545 539//539 
f 544//544 522//522 546//546 
f 546//546 522//522 542//542 
f 539//539 538//538 536//536 
f 539//539 541//541 538//538 
f 541//541 531//531 538//538 
f 522//522 521//521 542//542 
f 542//542 521//521 532//532 
f 531//531 543//543 532//532 
f 540//540 542//542 543//543 
f 543//543 531//531 541//541 
f 543//543 541//541 540//540 
f 532//532 543//543 542//542 
f 544//544 546//546 545//545 
f 545//545 546//546 540//540 
f 545//545 540//540 539//539 
f 540//540 546//546 542//542 
f 541//541 539//539 540//540 
