#
# Compatibility version : 4.3
# File ID : FJ3951
# Representation ID : BP29377
# Build-up logic : FMA 3.0 is_a
# Concept ID : FMA52998
# English name : Left mandibular nerve
# Bounds(mm): (20.453800,-114.340300,1477.958300)-(38.619400,-83.199600,1519.611800)
# Volume(cm3): 0.054800
#
v 20.7996 -85.1406 1518.6
v 20.7615 -85.1915 1519
v 20.8204 -84.6092 1519.38
v 20.6029 -83.7486 1518.57
v 20.7118 -83.4213 1518.65
v 20.4845 -84.0501 1518.87
v 20.5121 -84.0037 1519.17
v 20.5025 -83.5942 1518.95
v 20.6355 -83.5826 1519.34
v 20.7136 -83.384 1519.23
v 20.7471 -83.305 1518.85
v 21.5859 -98.4709 1509.25
v 21.5506 -97.1551 1511.21
v 21.5802 -95.5686 1512.49
v 21.5393 -94.3697 1514.03
v 21.6172 -94.3105 1514.41
v 21.5314 -91.9256 1515.78
v 21.5012 -91.1385 1516.68
v 21.523 -90.2654 1516.68
v 21.472 -88.9918 1517.28
v 21.32 -88.8274 1517.84
v 21.3627 -88.2938 1518.36
v 21.3363 -87.7062 1517.8
v 21.5155 -87.2541 1517.75
v 21.1159 -87.2196 1518.39
v 21.2241 -86.4538 1519.08
v 21.0859 -86.4984 1518.27
v 21.3155 -84.7246 1518.25
v 21.1307 -84.6234 1519.53
v 21.5174 -84.3404 1519.47
v 20.8323 -83.8842 1518.38
v 20.8244 -83.6105 1518.42
v 20.9167 -83.3117 1518.63
v 21.0305 -83.7503 1518.33
v 21.1186 -83.5183 1518.41
v 21.2067 -83.2974 1518.64
v 21.4089 -83.7678 1518.42
v 21.4039 -83.5086 1518.52
v 21.6068 -83.6849 1518.65
v 20.8189 -83.8838 1519.53
v 20.8313 -83.4842 1519.43
v 20.9377 -83.224 1518.84
v 20.9297 -83.2863 1519.23
v 21.2145 -83.5747 1519.51
v 21.2196 -83.2191 1518.83
v 21.2134 -83.214 1519.03
v 21.3163 -83.3686 1519.32
v 21.4131 -83.3352 1518.74
v 21.4159 -83.3125 1519.13
v 21.4169 -83.2874 1518.94
v 21.5618 -83.6962 1519.34
v 21.5811 -83.4826 1519.14
v 21.5454 -83.3978 1518.94
v 21.1126 -83.872 1519.59
v 22.2812 -101.648 1504.96
v 22.3467 -101.38 1504.64
v 22.0474 -101.257 1505.63
v 22.0322 -101.028 1505.31
v 22.1322 -101.012 1506.51
v 22.0859 -100.562 1505.53
v 22.3291 -100.373 1505.53
v 21.8189 -100.279 1506.38
v 21.7599 -100.19 1507.25
v 22.1029 -100.214 1507.83
v 22.3061 -99.2357 1509.29
v 21.6561 -98.8502 1509.31
v 21.8358 -98.2043 1510.55
v 22.2321 -98.1789 1508.76
v 21.7826 -97.5338 1509.82
v 22.0198 -97.4404 1511.62
v 22.0321 -96.8884 1510.44
v 21.6643 -96.9707 1511.82
v 21.825 -97.1406 1511.87
v 22.2298 -97.1283 1511.98
v 22.0127 -96.742 1512.43
v 21.908 -95.738 1511.81
v 22.2211 -95.9841 1511.49
v 21.8258 -95.931 1513.18
v 22.1188 -95.7817 1513.46
v 22.0155 -94.0898 1513.43
v 22.0095 -94.4067 1514.74
v 22.3181 -94.3671 1514.77
v 21.6547 -93.7763 1514.04
v 22.214 -93.1987 1515.77
v 21.818 -92.4853 1516.2
v 21.8155 -91.5693 1515.56
v 22.0212 -91.2236 1517.16
v 21.7283 -90.0919 1516.53
v 22.3013 -90.0288 1517.78
v 22.2034 -89.5041 1516.77
v 21.6313 -89.6999 1517.88
v 21.9108 -88.6682 1517.15
v 21.8115 -88.7892 1518.42
v 22.2937 -88.3697 1518.43
v 21.9864 -86.718 1517.94
v 22.3327 -86.935 1518.51
v 21.7077 -86.4716 1519.2
v 22.1448 -85.8377 1518.55
v 22.047 -86.1751 1519.06
v 21.7943 -84.921 1518.41
v 21.8892 -84.6376 1519.09
v 21.6807 -83.7078 1519.15
v 21.6922 -83.6827 1518.95
v 23.1177 -102.094 1503.66
v 22.8362 -102.197 1504.1
v 22.8304 -102.286 1504.42
v 23.1588 -101.729 1503.75
v 22.5192 -101.855 1505.2
v 22.6264 -101.512 1505.86
v 22.9314 -101.602 1505.61
v 22.6228 -101.263 1504.39
v 22.967 -101.153 1504.38
v 23.0231 -100.939 1506.03
v 23.1686 -101.346 1505.53
v 22.8227 -101.16 1506.18
v 23.0155 -100.729 1505.21
v 22.7084 -100.166 1505.93
v 22.9404 -100.313 1506.33
v 22.8462 -100.217 1507.18
v 22.5478 -99.9473 1508.14
v 22.6063 -98.2973 1508.92
v 22.523 -98.6751 1509.86
v 22.7475 -98.5468 1509.44
v 22.6937 -97.4022 1510.4
v 22.4095 -96.9858 1510.42
v 22.6539 -96.7893 1511.91
v 22.5253 -95.801 1511.9
v 22.7359 -96.1716 1512.09
v 22.4116 -96.0042 1513.13
v 22.5788 -94.2224 1513.54
v 22.6398 -94.6256 1514.21
v 22.7398 -94.0084 1514.1
v 22.5679 -93.4862 1515.33
v 22.7458 -93.108 1515.22
v 22.4911 -91.6993 1515.53
v 22.7318 -92.0244 1515.77
v 22.6741 -91.5047 1516.54
v 22.4927 -91.3425 1516.92
v 22.5115 -89.5154 1517.01
v 22.5397 -89.6474 1517.71
v 22.5798 -89.0455 1517.67
v 22.4021 -88.1334 1517.68
v 23.357 -102.635 1504.26
v 23.5822 -102.874 1503.8
v 23.7713 -102.737 1504.22
v 23.8094 -102.394 1503.12
v 23.9233 -101.733 1503.88
v 24.0225 -101.905 1504.26
v 23.3988 -102.21 1504.8
v 23.4655 -101.843 1504.97
v 23.5239 -101.488 1504.86
v 23.5397 -101.364 1504.56
v 23.2815 -101.192 1505.28
v 24.7054 -103.338 1503.58
v 24.0826 -103.082 1503.07
v 24.7662 -103.028 1503.77
v 24.3373 -102.277 1503.04
v 24.4513 -102.104 1503.55
v 24.0091 -102.357 1504.37
v 25.1603 -103.794 1502.68
v 25.2685 -103.441 1502.26
v 25.1347 -103.716 1503.13
v 25.2603 -102.617 1502.84
v 25.5598 -103.244 1502.16
v 24.9669 -102.71 1503.66
v 24.971 -102.52 1503.52
v 26.3305 -104.014 1502.88
v 26.4348 -103.67 1502.93
v 27.1396 -104.67 1501.67
v 27.1728 -104.755 1501.92
v 26.5998 -103.402 1501.96
v 27.0155 -103.487 1502.37
v 28.6245 -104.902 1500.79
v 28.6504 -104.515 1500.88
v 29.4628 -104.985 1500.45
v 28.8198 -104.37 1501.01
v 29.2756 -104.447 1501.16
v 29.6276 -105.78 1500.75
v 30.2596 -105.013 1501.08
v 29.809 -104.879 1500.45
v 29.9051 -104.789 1500.57
v 30.0392 -105.802 1501.04
v 30.3585 -105.766 1499.97
v 30.4198 -105.566 1501.11
v 31.8502 -106.755 1499.58
v 31.4155 -106.344 1499.34
v 31.7435 -106.391 1500.21
v 31.5155 -105.624 1499.48
v 32.3155 -105.991 1498.9
v 32.3151 -106.093 1499.94
v 32.1488 -105.731 1499.38
v 32.078 -105.72 1499.86
v 33.5155 -107.644 1497.78
v 33.2571 -107.212 1498.88
v 33.5153 -106.608 1498.86
v 33.0136 -106.662 1499.39
v 34.2214 -107.939 1497.48
v 34.0155 -107.175 1496.86
v 34.1251 -107.505 1498.12
v 33.8491 -106.594 1498.17
v 34.9155 -108.517 1495.72
v 35.0018 -108.5 1496.2
v 34.8684 -107.986 1495.46
v 35.0395 -108.342 1496.56
v 34.7859 -107.616 1497.46
v 35.0009 -107.293 1496.52
v 34.3902 -107.031 1496.86
v 34.9204 -107.352 1497.18
v 35.6859 -108.919 1493.84
v 35.7494 -109.134 1493.97
v 35.9029 -109.227 1494.32
v 35.8426 -108.517 1493.72
v 35.6139 -107.892 1494.91
v 35.8752 -108.335 1495.78
v 35.8281 -107.942 1495.73
v 35.2756 -108.089 1496.68
v 35.4075 -107.886 1496.59
v 36.634 -113.922 1478.63
v 36.607 -113.76 1478.37
v 36.6278 -113.722 1478.6
v 36.7491 -114.123 1478.66
v 36.6691 -114.05 1478.3
v 36.6909 -113.561 1478.36
v 36.8153 -114.06 1478.09
v 36.7226 -113.861 1478.13
v 36.8169 -113.672 1478.07
v 36.7178 -113.665 1478.17
v 36.7407 -113.497 1478.52
v 36.3918 -109.635 1492.05
v 36.6035 -109.95 1492.09
v 36.7037 -109.591 1493.37
v 36.4681 -109.335 1491.88
v 36.6884 -109.086 1491.88
v 36.6687 -108.889 1494.19
v 36.0023 -109.14 1494.65
v 36.1895 -108.944 1494.86
v 36.1202 -108.525 1493.41
v 36.5076 -108.503 1493.38
v 36.0903 -108.074 1494.92
v 36.8178 -114.232 1478.31
v 36.9217 -114.242 1478.2
v 37.014 -114.325 1478.41
v 37.0383 -114.282 1478.68
v 37.1155 -114.27 1478.2
v 37.2125 -114.299 1478.31
v 37.2437 -114.286 1478.61
v 37.2118 -114.167 1478.1
v 37.3268 -114.268 1478.42
v 37.311 -114.202 1478.2
v 37.415 -114.173 1478.3
v 36.8173 -114.161 1478.18
v 36.8183 -113.538 1478.17
v 36.8329 -113.427 1478.39
v 36.9123 -114.161 1478.11
v 36.9228 -114.065 1478.04
v 36.9185 -113.871 1477.99
v 36.9231 -113.674 1478.02
v 36.9162 -113.567 1478.08
v 37.0233 -114.162 1478.08
v 37.0253 -113.569 1478.05
v 37.0314 -113.388 1478.31
v 37.1097 -113.975 1477.98
v 37.1183 -113.773 1477.97
v 37.2117 -114.071 1478.03
v 37.2208 -113.578 1478.07
v 37.2251 -113.456 1478.21
v 37.3125 -114.093 1478.09
v 37.3125 -113.967 1478.04
v 37.4912 -114.129 1478.46
v 37.436 -114.064 1478.19
v 37.5077 -114.049 1478.31
v 37.4818 -113.955 1478.19
v 37.4045 -113.766 1478.1
v 37.4562 -113.549 1478.32
v 37.5562 -113.931 1478.34
v 37.5448 -113.755 1478.3
v 36.8925 -113.601 1479.36
v 36.8641 -113.466 1479.15
v 37.0796 -113.762 1479.69
v 37.3277 -113.506 1480.59
v 37.2805 -113.061 1479.39
v 37.2626 -113.129 1480.74
v 37.602 -112.826 1482.62
v 37.581 -112.36 1482.44
v 37.6048 -112.145 1483.99
v 37.5155 -111.291 1487.96
v 37.3007 -110.626 1488.32
v 37.0586 -110.519 1489.94
v 37.3852 -110.819 1489.78
v 36.9609 -110.108 1490.01
v 37.1079 -109.652 1490.33
v 37.3265 -110.257 1491.46
v 37.509 -109.953 1491.73
v 37.5079 -109.626 1491.98
v 36.7871 -109.985 1492.33
v 36.9209 -109.469 1493.32
v 37.2875 -109.46 1490.65
v 37.3491 -109.232 1492.01
v 37.1743 -109.389 1492.95
v 37.1188 -109.151 1493.08
v 37.6022 -114.055 1479.07
v 37.7745 -113.82 1478.96
v 37.855 -113.8 1479.39
v 37.8578 -113.511 1479.14
v 37.8152 -113.78 1480.12
v 38.0483 -113.481 1479.77
v 37.5696 -113.697 1480.51
v 38.0826 -113.546 1480.27
v 38.2151 -113.288 1481.42
v 37.63 -113.005 1479.55
v 38.1418 -113.054 1480.28
v 38.2697 -113.207 1480.79
v 37.6761 -112.464 1481.39
v 38.3451 -112.454 1481.86
v 38.0892 -112.958 1482.97
v 37.9128 -112.552 1484.21
v 38.1709 -111.749 1483.57
v 37.7021 -111.75 1484.22
v 37.7155 -112.199 1484.9
v 38.1567 -111.986 1486.12
v 37.6647 -111.377 1485.46
v 37.8111 -110.745 1486.86
v 38.1742 -110.781 1486.77
v 38.0936 -110.999 1488.83
v 37.6842 -110.215 1488.44
v 38.1972 -110.43 1488.42
v 37.7751 -109.8 1490.03
v 37.9715 -110.216 1490.17
v 38.4274 -112.682 1481.72
v 38.5143 -112.649 1482.42
v 38.464 -112.554 1483.74
v 38.5521 -112.221 1483.13
v 38.596 -112.213 1483.92
v 38.4125 -111.633 1484.28
v 38.472 -111.744 1486.21
v 38.4664 -111.108 1486.94
v 21.32 -88.8274 1517.84
v 21.2145 -83.5747 1519.51
v 22.0322 -101.028 1505.31
v 21.8155 -91.5693 1515.56
v 21.9864 -86.718 1517.94
v 22.4911 -91.6993 1515.53
v 22.4021 -88.1334 1517.68
v 23.7713 -102.737 1504.22
v 23.9233 -101.733 1503.88
v 24.0225 -101.905 1504.26
v 23.4655 -101.843 1504.97
v 23.5397 -101.364 1504.56
v 24.4513 -102.104 1503.55
v 24.971 -102.52 1503.52
v 27.0155 -103.487 1502.37
v 29.6276 -105.78 1500.75
v 30.3585 -105.766 1499.97
v 31.4155 -106.344 1499.34
v 31.4155 -106.344 1499.34
v 33.5155 -107.644 1497.78
v 34.0155 -107.175 1496.86
v 34.9155 -108.517 1495.72
v 34.8684 -107.986 1495.46
v 37.0383 -114.282 1478.68
v 37.3277 -113.506 1480.59
v 37.602 -112.826 1482.62
v 37.5155 -111.291 1487.96
v 37.3007 -110.626 1488.32
v 37.5696 -113.697 1480.51
v 37.6761 -112.464 1481.39
v 38.0892 -112.958 1482.97
v 37.7155 -112.199 1484.9
v 38.1972 -110.43 1488.42
v 37.7751 -109.8 1490.03
v 38.464 -112.554 1483.74
v 38.472 -111.744 1486.21
vn -0.832592 -0.102441 -0.544332
vn -0.94042 -0.238802 0.242042
vn -0.664364 -0.221391 0.713867
vn -0.806416 0.122351 -0.578553
vn -0.657127 0.577139 -0.484865
vn -0.984795 -0.100788 -0.141495
vn -0.907334 -0.0817904 0.412377
vn -0.932297 0.361255 -0.0177998
vn -0.764626 0.29573 0.572618
vn -0.615803 0.703375 0.355037
vn -0.553752 0.827041 -0.0967577
vn -0.990558 0.0817246 -0.110069
vn -0.982259 -0.146685 0.116835
vn -0.907069 0.308235 -0.286735
vn -0.99949 0.0160385 -0.0276226
vn -0.836975 -0.368134 0.404908
vn -0.937656 0.192406 -0.28945
vn -0.959094 -0.180492 0.218088
vn -0.896902 0.182082 -0.403005
vn -0.785326 0.188695 -0.589625
vn -0.969097 0.0268724 -0.245213
vn -0.812629 -0.293752 0.503333
vn -0.828594 0.0910532 -0.552396
vn -0.466279 0.198172 -0.862155
vn -0.984331 -0.111423 -0.136665
vn -0.525757 -0.290985 0.799317
vn -0.847428 -0.00875908 -0.530837
vn -0.0290716 0.115775 -0.99285
vn -0.153093 -0.162392 0.974778
vn 0.473248 0.0199861 0.880703
vn -0.470156 0.00441324 -0.882572
vn -0.402411 0.384887 -0.830619
vn -0.258397 0.783201 -0.565533
vn -0.0482396 0.189747 -0.980647
vn 0.0715622 0.508144 -0.858294
vn 0.156937 0.824936 -0.543002
vn 0.428668 0.237075 -0.871802
vn 0.499279 0.520348 -0.69279
vn 0.80509 0.361095 -0.470574
vn -0.494114 0.00565719 0.869379
vn -0.311153 0.489594 0.814544
vn -0.172702 0.974169 -0.145494
vn -0.183858 0.878509 0.440929
vn -0.0508256 0.574859 0.816672
vn 0.217264 0.9533 -0.2098
vn 0.15706 0.970181 0.184611
vn 0.363226 0.712834 0.599946
vn 0.573161 0.729425 -0.373397
vn 0.535022 0.80345 0.261187
vn 0.497908 0.866218 -0.0418686
vn 0.688133 0.28974 0.665225
vn 0.78241 0.532187 0.323438
vn 0.778061 0.622291 -0.0858782
vn 0.0100965 0.103358 0.994593
vn -0.873813 -0.463687 -0.14644
vn -0.836468 0.0659707 -0.54403
vn -0.88855 -0.454701 0.0610491
vn -0.83124 0.312539 -0.459738
vn -0.531635 -0.75368 0.386433
vn -0.705777 0.483238 -0.518034
vn -0.205011 0.781636 -0.58908
vn -0.965724 0.132972 -0.222927
vn -0.903298 -0.39581 0.165489
vn -0.409773 -0.76954 0.48979
vn 0.120551 -0.800101 0.587627
vn -0.854762 -0.435627 0.282156
vn -0.495799 -0.697895 0.516843
vn 0.117624 0.80676 -0.579053
vn -0.593814 0.626727 -0.504577
vn -0.154998 -0.767933 0.621494
vn -0.0885516 0.76363 -0.639553
vn -0.811256 -0.444123 0.380289
vn -0.518234 -0.649045 0.556933
vn 0.286118 -0.728565 0.622358
vn -0.197293 -0.726572 0.658156
vn -0.426957 0.663791 -0.614075
vn 0.17752 0.725681 -0.664736
vn -0.544882 -0.595435 0.590391
vn -0.0067332 -0.710463 0.703703
vn -0.111724 0.671755 -0.732299
vn -0.316483 -0.627592 0.711314
vn 0.325894 -0.633228 0.702008
vn -0.798568 0.398703 -0.450917
vn 0.128577 -0.599143 0.79025
vn -0.548053 -0.501327 0.669559
vn -0.744505 0.371754 -0.554537
vn -0.0580655 -0.522781 0.850487
vn -0.464374 0.40886 -0.785614
vn 0.401441 -0.3969 0.825418
vn 0.218171 0.486755 -0.845855
vn -0.583091 -0.413457 0.699327
vn -0.0270822 0.399905 -0.916156
vn -0.137121 -0.391053 0.910096
vn 0.67413 -0.190483 0.713628
vn 0.165916 0.288601 -0.942964
vn 0.980864 0.0908981 0.172175
vn 0.16205 -0.214716 0.963139
vn 0.92425 0.232785 -0.302609
vn 0.726358 -0.0332461 0.686512
vn 0.638694 0.227707 -0.734997
vn 0.923518 0.144426 0.355326
vn 0.907637 0.292902 0.300671
vn 0.941453 0.333327 -0.0505981
vn -0.709523 -0.00385538 -0.704672
vn -0.80461 -0.456776 -0.379419
vn -0.661057 -0.749191 0.0414187
vn -0.361735 0.511137 -0.779671
vn -0.525646 -0.79603 0.300053
vn 0.106194 -0.809681 0.577182
vn 0.520792 -0.567239 0.637978
vn -0.528944 0.499691 -0.685949
vn 0.14505 0.831746 -0.535873
vn 0.907662 -0.219442 0.357764
vn 0.801091 -0.251267 0.543248
vn 0.627889 -0.570952 0.528933
vn 0.700836 0.681698 -0.21004
vn 0.468093 0.771088 -0.431639
vn 0.9576 0.287079 -0.0242373
vn 0.923346 -0.271699 0.271315
vn 0.624756 -0.619267 0.475593
vn 0.773758 0.530408 -0.34636
vn 0.664904 -0.584314 0.465273
vn 0.994833 -0.0655557 0.0775183
vn 0.884308 0.362257 -0.294565
vn 0.455346 0.691478 -0.560819
vn 0.819088 -0.432767 0.376574
vn 0.725346 0.504147 -0.468731
vn 0.997968 0.0481052 -0.0417934
vn 0.493701 -0.628961 0.600556
vn 0.6407 0.523525 -0.561627
vn 0.822971 -0.392312 0.410865
vn 0.947069 0.216597 -0.236951
vn 0.690704 -0.444804 0.570155
vn 0.976027 -0.133617 0.171805
vn 0.144714 0.586634 -0.796818
vn 0.965936 0.170503 -0.194669
vn 0.934649 -0.172594 0.310875
vn 0.575475 -0.430835 0.695133
vn 0.807703 0.325691 -0.491468
vn 0.841251 -0.195215 0.50417
vn 0.99624 0.0679426 0.0537523
vn 0.540826 0.380945 -0.749925
vn -0.246989 -0.855146 0.455765
vn -0.56858 -0.822548 -0.0114616
vn -0.149282 -0.802002 0.578367
vn -0.470792 0.184562 -0.862724
vn 0.358524 0.867111 -0.345803
vn 0.72206 0.22732 0.653418
vn 0.367588 -0.592915 0.716471
vn 0.524993 -0.42814 0.73558
vn 0.865077 0.210657 0.455265
vn 0.825611 0.531035 0.190707
vn 0.939377 0.234415 0.250242
vn -0.00614235 -0.722731 0.691103
vn -0.677509 -0.481338 -0.556143
vn 0.342232 -0.322286 0.882615
vn 0.0722219 0.778299 -0.623727
vn 0.30373 0.876681 -0.373066
vn 0.589441 -0.180833 0.787311
vn -0.537741 -0.808183 -0.240158
vn -0.533679 -0.259922 -0.804753
vn -0.274991 -0.890166 0.363297
vn 0.403397 0.899876 -0.165811
vn -0.245434 0.385862 -0.88931
vn 0.6151 0.196365 0.763605
vn 0.58602 0.799266 0.13325
vn 0.201616 -0.460721 0.864342
vn 0.499615 0.157375 0.851832
vn -0.534435 -0.64696 -0.543896
vn -0.370042 -0.924707 0.0893584
vn 0.163541 0.844501 -0.509972
vn 0.425611 0.904905 -0.00154352
vn -0.412814 0.0256577 -0.910454
vn -0.153122 0.520393 -0.840086
vn -0.259573 0.413782 -0.872586
vn 0.104934 0.829875 -0.547993
vn 0.368365 0.927206 -0.0677991
vn -0.5414 -0.72439 -0.426785
vn 0.560441 0.547505 0.621405
vn -0.0613468 0.693922 -0.717433
vn 0.126535 0.873582 -0.469939
vn -0.060571 -0.809734 0.583662
vn -0.57002 -0.612183 -0.548005
vn 0.385954 -0.197278 0.901177
vn -0.294262 -0.934162 0.201869
vn -0.605123 -0.691615 -0.394328
vn 0.263341 -0.581784 0.769532
vn -0.180311 0.604157 -0.776197
vn -0.295001 0.626691 -0.721271
vn 0.622688 0.192391 0.758449
vn 0.246288 0.931811 -0.266592
vn 0.579112 0.754903 0.307816
vn -0.419525 -0.904367 0.0782266
vn 0.204152 -0.752074 0.626663
vn 0.754944 0.302342 0.581936
vn 0.584307 -0.229542 0.778393
vn -0.0387139 -0.913038 0.406032
vn -0.422408 0.635472 -0.646334
vn 0.516101 -0.510706 0.687618
vn 0.601704 0.78283 0.158524
vn -0.479645 -0.873535 0.0829296
vn -0.221072 -0.939074 0.263187
vn -0.883221 -0.105046 -0.45704
vn 0.249629 -0.819382 0.516041
vn 0.760431 -0.0938742 0.642598
vn 0.456124 0.88572 -0.0863136
vn -0.019087 0.890974 -0.453652
vn 0.796232 0.471892 0.378593
vn -0.925703 -0.108428 -0.362377
vn -0.778807 -0.618484 -0.10458
vn -0.396831 -0.902992 0.164713
vn -0.718124 0.489997 -0.494167
vn -0.175302 0.867778 -0.465006
vn 0.835668 -0.171855 0.521656
vn 0.849646 0.439512 0.291429
vn 0.625195 -0.481765 0.614031
vn 0.848138 0.04003 0.528262
vn -0.94784 -0.226934 0.223832
vn -0.977752 0.090806 -0.189091
vn -0.94814 0.272737 0.163232
vn -0.673827 -0.694106 0.253325
vn -0.87439 -0.413836 -0.253343
vn -0.808767 0.560099 -0.1794
vn -0.594086 -0.368109 -0.715233
vn -0.762838 -0.0383643 -0.64545
vn -0.557336 0.304065 -0.772607
vn -0.78235 0.340916 -0.521253
vn -0.763902 0.643514 0.0484074
vn -0.936126 -0.278446 -0.214791
vn -0.641821 -0.764785 0.0562969
vn 0.309254 -0.848621 0.42919
vn -0.841223 0.353049 -0.409513
vn -0.514184 0.732801 -0.445664
vn 0.906871 -0.0270517 0.420538
vn 0.0694157 -0.917301 0.392098
vn 0.554867 -0.642387 0.52864
vn -0.357964 0.816323 -0.453298
vn 0.283632 0.92901 -0.237685
vn 0.746996 0.65839 0.0923047
vn -0.588536 -0.792322 -0.160785
vn -0.283695 -0.833928 -0.473372
vn -0.187838 -0.981211 -0.0440702
vn -0.481756 -0.828802 0.284603
vn 0.0656779 -0.868303 -0.491666
vn 0.241014 -0.948766 -0.204341
vn 0.208239 -0.966798 0.148117
vn 0.245374 -0.671939 -0.698777
vn 0.507171 -0.855901 -0.101051
vn 0.462499 -0.74452 -0.48144
vn 0.678578 -0.668032 -0.305393
vn -0.585494 -0.628326 -0.512253
vn -0.523098 0.680251 -0.513446
vn -0.518714 0.827271 -0.215774
vn -0.353995 -0.625258 -0.695514
vn -0.282818 -0.401056 -0.871302
vn -0.366703 -0.0485369 -0.929071
vn -0.264314 0.31701 -0.910847
vn -0.312753 0.635397 -0.706014
vn -0.0643348 -0.631827 -0.772435
vn -0.0299669 0.626311 -0.778997
vn -0.130812 0.893662 -0.42925
vn 0.0401685 -0.249772 -0.967471
vn 0.136442 0.17166 -0.975662
vn 0.237923 -0.445991 -0.862835
vn 0.360513 0.528702 -0.768443
vn 0.259715 0.805023 -0.533373
vn 0.491235 -0.497979 -0.714637
vn 0.492058 -0.177689 -0.852236
vn 0.761554 -0.636953 -0.119693
vn 0.689869 -0.453087 -0.564618
vn 0.846879 -0.42615 -0.318106
vn 0.808275 -0.161242 -0.566298
vn 0.631102 0.206356 -0.747748
vn 0.662349 0.554423 -0.503894
vn 0.923925 -0.142214 -0.355159
vn 0.864481 0.156093 -0.477816
vn -0.946036 -0.0284584 0.32281
vn -0.872384 0.469164 0.137227
vn -0.796073 -0.460261 0.392973
vn -0.512733 -0.784513 0.348776
vn -0.416745 0.898593 -0.137311
vn -0.978967 0.0499409 0.197814
vn -0.490264 -0.822047 0.289622
vn -0.956798 0.290229 -0.0174722
vn -0.999171 0.0355382 0.0198794
vn -0.95771 -0.283892 -0.0468615
vn -0.977946 -0.188197 -0.0905738
vn -0.878111 -0.475581 -0.0523789
vn -0.346261 -0.912202 0.219069
vn -0.945247 0.148099 -0.290818
vn -0.5918 0.703659 -0.393238
vn 0.321604 -0.868373 0.377491
vn 0.788686 -0.480763 0.383198
vn 0.961493 0.0522274 0.26982
vn -0.128378 -0.948413 0.289881
vn 0.667474 -0.580659 0.466168
vn -0.0549343 0.936339 -0.346774
vn 0.810544 0.583418 0.0514085
vn 0.889493 -0.215308 0.403044
vn 0.925571 0.273639 0.261612
vn 0.586649 -0.808317 0.0496611
vn 0.920003 -0.320117 -0.226098
vn 0.801528 -0.595054 -0.0588524
vn 0.898181 0.240318 -0.368128
vn 0.429808 -0.887003 0.168791
vn 0.96361 -0.173417 -0.203429
vn -0.521677 -0.767182 0.373209
vn 0.817521 -0.575787 -0.011374
vn 0.712239 -0.692928 0.112101
vn 0.322239 0.874807 -0.361766
vn 0.870802 0.376554 -0.316086
vn 0.970813 -0.213082 -0.110082
vn -0.806645 0.588524 -0.0544374
vn 0.660097 0.690468 -0.295846
vn -0.337719 -0.894008 0.29444
vn -0.385465 -0.881211 0.27365
vn 0.0500112 0.952142 -0.301536
vn -0.755165 0.629513 -0.182863
vn -0.986363 -0.161886 0.0296945
vn 0.0751187 -0.949679 0.304083
vn -0.927586 0.34723 -0.137899
vn -0.420334 0.856787 -0.298723
vn 0.374982 0.892135 -0.251959
vn 0.750946 -0.581809 0.312377
vn -0.331453 0.87511 -0.352592
vn 0.663246 0.730064 -0.164655
vn 0.43925 0.877591 -0.19208
vn 0.979742 0.0867291 0.180511
vn 0.955231 0.217602 -0.200459
vn 0.973522 -0.227198 -0.025215
vn 0.474458 -0.844696 0.247748
vn 0.936143 0.320562 -0.144488
vn 0.999333 -0.0344719 0.0120422
vn 0.741198 0.643748 -0.190298
vn 0.53482 -0.796884 0.280967
vn 0.980692 0.19285 0.0324384
vn -0.926263 -0.223296 0.303604
vn 0.466905 0.232208 0.853276
vn -0.957213 -0.213774 -0.195051
vn -0.0276652 0.563438 -0.825695
vn 0.691836 0.284919 -0.663464
vn 0.763828 0.375463 -0.52497
vn 0.962223 0.184654 -0.200077
vn 0.289239 -0.518707 0.804539
vn 0.676612 0.724279 0.132724
vn 0.734846 0.653632 0.181016
vn 0.831314 0.0351704 0.554689
vn 0.418643 0.841325 -0.341922
vn 0.622944 0.769242 0.142157
vn 0.63885 0.410025 0.650961
vn 0.549197 0.438352 0.711499
vn -0.250598 -0.923834 0.289364
vn -0.464807 0.0720325 -0.882477
vn -0.512834 0.282305 -0.810743
vn -0.694074 -0.413025 -0.589638
vn -0.814309 -0.257205 -0.520333
vn -0.797053 -0.236687 -0.555595
vn -0.881009 -0.320825 -0.347699
vn -0.526071 0.650614 -0.547677
vn 0.0600155 -0.974469 0.216353
vn -0.922262 -0.273912 0.272771
vn -0.984305 -0.120029 0.129371
vn -0.434192 -0.876412 0.208278
vn -0.682244 0.65797 -0.318777
vn 0.0984567 -0.956427 0.27487
vn -0.169955 0.949544 -0.263594
vn 0.343743 -0.906465 0.245279
vn -0.423001 -0.864257 0.272266
vn 0.94943 0.302056 0.0857075
vn 0.894213 0.443165 0.0631493
vn 0.892878 -0.441301 0.0895667
vn 0.960765 -0.241411 0.136568
g grp1
usemtl mtl1
f 1//1 2//2 6//6 
f 7//7 6//6 2//2 
f 2//2 3//3 7//7 
f 3//3 40//40 7//7 
f 29//29 40//40 3//3 
f 6//6 4//4 1//1 
f 4//4 31//31 1//1 
f 5//5 4//4 8//8 
f 4//4 32//32 31//31 
f 32//32 4//4 5//5 
f 6//6 7//7 8//8 
f 7//7 9//9 8//8 
f 6//6 8//8 4//4 
f 40//40 9//9 7//7 
f 9//9 10//10 8//8 
f 9//9 41//41 10//10 
f 5//5 8//8 11//11 
f 11//11 8//8 10//10 
f 40//40 41//41 9//9 
f 11//11 33//33 5//5 
f 41//41 43//43 10//10 
f 33//33 11//11 42//42 
f 11//11 10//10 43//43 
f 42//42 11//11 43//43 
f 62//62 12//12 69//69 
f 12//12 66//66 13//13 
f 13//13 72//72 16//16 
f 12//12 13//13 14//14 
f 16//16 15//15 13//13 
f 13//13 15//15 14//14 
f 14//14 15//15 83//83 
f 15//15 17//17 83//83 
f 15//15 18//18 17//17 
f 86//86 83//83 17//17 
f 15//15 16//16 18//18 
f 19//19 17//17 18//18 
f 18//18 21//21 19//19 
f 85//85 91//91 18//18 
f 19//19 21//21 20//20 
f 18//18 91//91 22//22 
f 337//337 22//22 25//25 
f 18//18 22//22 337//337 
f 21//21 25//25 20//20 
f 25//25 27//27 23//23 
f 23//23 27//27 24//24 
f 25//25 23//23 20//20 
f 23//23 24//24 20//20 
f 1//1 24//24 27//27 
f 25//25 2//2 1//1 
f 25//25 22//22 2//2 
f 25//25 1//1 27//27 
f 1//1 28//28 24//24 
f 95//95 24//24 28//28 
f 26//26 3//3 2//2 
f 2//2 22//22 26//26 
f 26//26 29//29 3//3 
f 97//97 29//29 26//26 
f 28//28 1//1 31//31 
f 100//100 95//95 28//28 
f 29//29 97//97 30//30 
f 31//31 34//34 28//28 
f 34//34 37//37 28//28 
f 100//100 28//28 37//37 
f 100//100 37//37 39//39 
f 54//54 29//29 30//30 
f 101//101 51//51 30//30 
f 34//34 31//31 32//32 
f 32//32 5//5 33//33 
f 36//36 33//33 42//42 
f 34//34 32//32 35//35 
f 33//33 35//35 32//32 
f 35//35 33//33 36//36 
f 36//36 42//42 45//45 
f 34//34 35//35 37//37 
f 35//35 38//38 37//37 
f 36//36 38//38 35//35 
f 36//36 48//48 38//38 
f 48//48 36//36 45//45 
f 38//38 48//48 39//39 
f 38//38 39//39 37//37 
f 43//43 46//46 42//42 
f 46//46 45//45 42//42 
f 47//47 43//43 44//44 
f 47//47 46//46 43//43 
f 51//51 338//338 30//30 
f 51//51 47//47 338//338 
f 51//51 52//52 47//47 
f 50//50 46//46 49//49 
f 52//52 49//49 47//47 
f 47//47 49//49 46//46 
f 50//50 48//48 45//45 
f 48//48 50//50 53//53 
f 39//39 48//48 53//53 
f 46//46 50//50 45//45 
f 52//52 51//51 102//102 
f 103//103 39//39 53//53 
f 52//52 53//53 49//49 
f 53//53 50//50 49//49 
f 29//29 54//54 40//40 
f 40//40 54//54 41//41 
f 44//44 41//41 54//54 
f 44//44 43//43 41//41 
f 30//30 338//338 54//54 
f 106//106 108//108 55//55 
f 108//108 109//109 59//59 
f 55//55 108//108 57//57 
f 56//56 58//58 60//60 
f 339//339 56//56 55//55 
f 60//60 111//111 56//56 
f 57//57 62//62 339//339 
f 62//62 60//60 58//58 
f 108//108 59//59 57//57 
f 57//57 339//339 55//55 
f 57//57 59//59 63//63 
f 57//57 63//63 62//62 
f 60//60 69//69 61//61 
f 62//62 69//69 60//60 
f 64//64 63//63 59//59 
f 109//109 64//64 59//59 
f 12//12 63//63 66//66 
f 63//63 64//64 66//66 
f 109//109 65//65 64//64 
f 65//65 109//109 120//120 
f 117//117 112//112 61//61 
f 117//117 61//61 68//68 
f 12//12 62//62 63//63 
f 67//67 66//66 64//64 
f 120//120 122//122 65//65 
f 68//68 61//61 69//69 
f 71//71 68//68 69//69 
f 68//68 71//71 125//125 
f 65//65 67//67 64//64 
f 66//66 72//72 13//13 
f 66//66 67//67 72//72 
f 67//67 73//73 72//72 
f 70//70 67//67 65//65 
f 70//70 73//73 67//67 
f 70//70 65//65 74//74 
f 74//74 65//65 122//122 
f 126//126 74//74 122//122 
f 70//70 75//75 73//73 
f 74//74 75//75 70//70 
f 76//76 71//71 69//69 
f 71//71 77//77 125//125 
f 125//125 77//77 127//127 
f 74//74 126//126 129//129 
f 75//75 74//74 79//79 
f 79//79 74//74 129//129 
f 77//77 71//71 76//76 
f 77//77 130//130 127//127 
f 12//12 14//14 69//69 
f 14//14 76//76 69//69 
f 80//80 77//77 76//76 
f 130//130 77//77 80//80 
f 72//72 73//73 78//78 
f 78//78 16//16 72//72 
f 75//75 78//78 73//73 
f 79//79 78//78 75//75 
f 79//79 81//81 78//78 
f 79//79 129//129 82//82 
f 81//81 79//79 82//82 
f 130//130 80//80 135//135 
f 14//14 83//83 76//76 
f 78//78 81//81 16//16 
f 131//131 133//133 82//82 
f 80//80 76//76 83//83 
f 83//83 86//86 80//80 
f 81//81 85//85 16//16 
f 84//84 85//85 81//81 
f 84//84 87//87 85//85 
f 81//81 82//82 84//84 
f 133//133 84//84 82//82 
f 135//135 80//80 340//340 
f 85//85 18//18 16//16 
f 86//86 19//19 88//88 
f 17//17 19//19 86//86 
f 85//85 87//87 91//91 
f 138//138 89//89 87//87 
f 88//88 19//19 20//20 
f 88//88 20//20 92//92 
f 340//340 88//88 90//90 
f 90//90 88//88 92//92 
f 92//92 142//142 90//90 
f 93//93 91//91 87//87 
f 87//87 89//89 93//93 
f 90//90 142//142 139//139 
f 22//22 91//91 93//93 
f 26//26 22//22 93//93 
f 92//92 20//20 24//24 
f 89//89 94//94 93//93 
f 341//341 142//142 92//92 
f 97//97 26//26 93//93 
f 93//93 94//94 97//97 
f 92//92 24//24 95//95 
f 341//341 100//100 98//98 
f 341//341 98//98 142//142 
f 94//94 99//99 97//97 
f 343//343 98//98 96//96 
f 94//94 96//96 99//99 
f 97//97 99//99 30//30 
f 101//101 99//99 96//96 
f 99//99 101//101 30//30 
f 96//96 98//98 101//101 
f 98//98 103//103 101//101 
f 100//100 39//39 98//98 
f 102//102 51//51 101//101 
f 103//103 102//102 101//101 
f 39//39 103//103 98//98 
f 102//102 103//103 52//52 
f 103//103 53//53 52//52 
f 105//105 144//144 106//106 
f 55//55 105//105 106//106 
f 105//105 155//155 144//144 
f 104//104 155//155 105//105 
f 109//109 108//108 143//143 
f 106//106 143//143 108//108 
f 149//149 109//109 143//143 
f 110//110 109//109 149//149 
f 149//149 114//114 110//110 
f 107//107 104//104 111//111 
f 112//112 107//107 111//111 
f 61//61 112//112 111//111 
f 105//105 56//56 104//104 
f 55//55 56//56 105//105 
f 56//56 111//111 104//104 
f 111//111 60//60 61//61 
f 116//116 153//153 152//152 
f 114//114 115//115 110//110 
f 114//114 113//113 115//115 
f 113//113 118//118 119//119 
f 114//114 153//153 113//113 
f 153//153 118//118 113//113 
f 116//116 118//118 153//153 
f 109//109 110//110 115//115 
f 115//115 120//120 109//109 
f 120//120 115//115 113//113 
f 119//119 120//120 113//113 
f 116//116 112//112 117//117 
f 118//118 116//116 117//117 
f 119//119 118//118 123//123 
f 117//117 121//121 118//118 
f 122//122 120//120 119//119 
f 121//121 117//117 68//68 
f 118//118 121//121 123//123 
f 121//121 68//68 125//125 
f 123//123 121//121 124//124 
f 119//119 123//123 122//122 
f 123//123 126//126 122//122 
f 121//121 125//125 124//124 
f 126//126 123//123 128//128 
f 125//125 127//127 124//124 
f 123//123 124//124 128//128 
f 128//128 124//124 127//127 
f 128//128 127//127 132//132 
f 126//126 131//131 129//129 
f 129//129 131//131 82//82 
f 131//131 126//126 128//128 
f 127//127 130//130 132//132 
f 132//132 130//130 136//136 
f 128//128 134//134 131//131 
f 128//128 132//132 134//134 
f 134//134 133//133 131//131 
f 130//130 342//342 136//136 
f 137//137 133//133 134//134 
f 137//137 138//138 133//133 
f 132//132 136//136 134//134 
f 134//134 136//136 137//137 
f 133//133 138//138 84//84 
f 90//90 135//135 340//340 
f 84//84 138//138 87//87 
f 90//90 139//139 342//342 
f 342//342 139//139 136//136 
f 136//136 139//139 141//141 
f 136//136 141//141 137//137 
f 141//141 139//139 343//343 
f 140//140 138//138 137//137 
f 138//138 140//140 89//89 
f 89//89 140//140 94//94 
f 137//137 141//141 140//140 
f 94//94 140//140 141//141 
f 343//343 96//96 141//141 
f 141//141 96//96 94//94 
f 144//144 143//143 106//106 
f 146//146 104//104 107//107 
f 104//104 146//146 155//155 
f 157//157 107//107 112//112 
f 107//107 157//157 146//146 
f 146//146 157//157 164//164 
f 147//147 157//157 112//112 
f 145//145 149//149 143//143 
f 150//150 114//114 149//149 
f 114//114 347//347 151//151 
f 114//114 151//151 153//153 
f 347//347 159//159 151//151 
f 149//149 159//159 150//150 
f 344//344 159//159 149//149 
f 148//148 151//151 159//159 
f 152//152 346//346 345//345 
f 116//116 348//348 112//112 
f 348//348 147//147 112//112 
f 151//151 152//152 153//153 
f 152//152 151//151 346//346 
f 143//143 162//162 154//154 
f 155//155 160//160 144//144 
f 146//146 161//161 155//155 
f 164//164 161//161 146//146 
f 143//143 144//144 162//162 
f 145//145 143//143 154//154 
f 344//344 156//156 159//159 
f 154//154 156//156 344//344 
f 165//165 148//148 159//159 
f 165//165 159//159 156//156 
f 147//147 158//158 157//157 
f 345//345 166//166 349//349 
f 161//161 164//164 173//173 
f 160//160 155//155 161//161 
f 162//162 144//144 160//160 
f 162//162 182//182 154//154 
f 154//154 182//182 167//167 
f 156//156 154//154 167//167 
f 156//156 167//167 168//168 
f 168//168 165//165 156//156 
f 157//157 171//171 164//164 
f 163//163 171//171 157//157 
f 346//346 166//166 345//345 
f 165//165 350//350 148//148 
f 165//165 168//168 350//350 
f 158//158 163//163 157//157 
f 160//160 161//161 169//169 
f 173//173 164//164 174//174 
f 164//164 171//171 174//174 
f 172//172 163//163 166//166 
f 168//168 351//351 350//350 
f 166//166 163//163 349//349 
f 160//160 169//169 170//170 
f 162//162 160//160 170//170 
f 169//169 161//161 173//173 
f 182//182 162//162 170//170 
f 163//163 172//172 171//171 
f 171//171 176//176 174//174 
f 176//176 171//171 177//177 
f 169//169 178//178 170//170 
f 352//352 182//182 170//170 
f 177//177 171//171 172//172 
f 173//173 174//174 175//175 
f 188//188 173//173 175//175 
f 180//180 175//175 174//174 
f 174//174 176//176 180//180 
f 181//181 180//180 176//176 
f 178//178 169//169 183//183 
f 185//185 182//182 352//352 
f 173//173 353//353 169//169 
f 173//173 188//188 353//353 
f 167//167 184//184 168//168 
f 182//182 184//184 167//167 
f 184//184 179//179 168//168 
f 179//179 351//351 168//168 
f 180//180 188//188 175//175 
f 181//181 176//176 177//177 
f 177//177 172//172 179//179 
f 183//183 186//186 178//178 
f 186//186 185//185 178//178 
f 182//182 185//185 187//187 
f 184//184 182//182 187//187 
f 187//187 190//190 184//184 
f 188//188 181//181 191//191 
f 181//181 188//188 180//180 
f 177//177 191//191 181//181 
f 194//194 187//187 185//185 
f 187//187 196//196 190//190 
f 189//189 353//353 188//188 
f 189//189 188//188 191//191 
f 192//192 191//191 177//177 
f 192//192 177//177 179//179 
f 190//190 179//179 184//184 
f 185//185 186//186 193//193 
f 187//187 194//194 196//196 
f 185//185 197//197 194//194 
f 189//189 354//354 353//353 
f 192//192 179//179 190//190 
f 193//193 197//197 185//185 
f 198//198 354//354 189//189 
f 190//190 195//195 192//192 
f 195//195 200//200 192//192 
f 192//192 200//200 191//191 
f 196//196 195//195 190//190 
f 193//193 201//201 202//202 
f 203//203 358//358 356//356 
f 202//202 197//197 193//193 
f 197//197 199//199 194//194 
f 359//359 198//198 213//213 
f 356//356 355//355 357//357 
f 203//203 356//356 357//357 
f 198//198 189//189 207//207 
f 205//205 195//195 199//199 
f 200//200 195//195 208//208 
f 196//196 194//194 199//199 
f 199//199 195//195 196//196 
f 189//189 191//191 207//207 
f 206//206 207//207 191//191 
f 200//200 206//206 191//191 
f 211//211 202//202 201//201 
f 210//210 358//358 209//209 
f 358//358 203//203 209//209 
f 359//359 213//213 237//237 
f 197//197 202//202 204//204 
f 197//197 204//204 199//199 
f 216//216 199//199 204//204 
f 216//216 205//205 199//199 
f 205//205 216//216 217//217 
f 205//205 217//217 208//208 
f 208//208 217//217 215//215 
f 213//213 198//198 207//207 
f 206//206 213//213 207//207 
f 206//206 208//208 215//215 
f 200//200 208//208 206//206 
f 205//205 208//208 195//195 
f 201//201 210//210 211//211 
f 211//211 235//235 202//202 
f 235//235 204//204 202//202 
f 203//203 212//212 209//209 
f 237//237 212//212 359//359 
f 238//238 237//237 213//213 
f 206//206 238//238 213//213 
f 216//216 204//204 236//236 
f 236//236 214//214 216//216 
f 214//214 215//215 217//217 
f 216//216 214//214 217//217 
f 239//239 206//206 215//215 
f 240//240 221//221 222//222 
f 222//222 251//251 240//240 
f 218//218 220//220 219//219 
f 221//221 218//218 222//222 
f 221//221 279//279 218//218 
f 225//225 224//224 222//222 
f 219//219 225//225 222//222 
f 219//219 222//222 218//218 
f 227//227 225//225 219//219 
f 227//227 219//219 223//223 
f 219//219 220//220 223//223 
f 220//220 228//228 223//223 
f 220//220 278//278 228//228 
f 251//251 222//222 224//224 
f 225//225 256//256 224//224 
f 226//226 256//256 225//225 
f 227//227 226//226 225//225 
f 226//226 227//227 252//252 
f 223//223 252//252 227//227 
f 252//252 223//223 253//253 
f 228//228 253//253 223//223 
f 253//253 228//228 281//281 
f 218//218 277//277 220//220 
f 218//218 279//279 277//277 
f 229//229 232//232 290//290 
f 290//290 232//232 291//291 
f 229//229 209//209 232//232 
f 288//288 230//230 229//229 
f 289//289 230//230 288//288 
f 229//229 210//210 209//209 
f 230//230 211//211 210//210 
f 295//295 211//211 230//230 
f 289//289 295//295 230//230 
f 210//210 229//229 230//230 
f 235//235 211//211 295//295 
f 296//296 236//236 231//231 
f 235//235 231//231 236//236 
f 291//291 232//232 233//233 
f 212//212 232//232 209//209 
f 212//212 233//233 232//232 
f 233//233 212//212 237//237 
f 233//233 237//237 297//297 
f 238//238 297//297 237//237 
f 239//239 234//234 300//300 
f 296//296 234//234 236//236 
f 236//236 204//204 235//235 
f 234//234 214//214 236//236 
f 239//239 238//238 206//206 
f 214//214 234//234 215//215 
f 239//239 215//215 234//234 
f 240//240 242//242 221//221 
f 251//251 254//254 241//241 
f 242//242 240//240 241//241 
f 240//240 251//251 241//241 
f 307//307 279//279 221//221 
f 242//242 243//243 221//221 
f 221//221 243//243 307//307 
f 241//241 254//254 259//259 
f 242//242 241//241 244//244 
f 259//259 247//247 244//244 
f 244//244 241//241 259//259 
f 249//249 245//245 244//244 
f 244//244 245//245 242//242 
f 245//245 246//246 242//242 
f 242//242 246//246 360//360 
f 244//244 247//247 249//249 
f 245//245 248//248 246//246 
f 248//248 245//245 249//249 
f 250//250 248//248 249//249 
f 269//269 248//248 250//250 
f 248//248 301//301 246//246 
f 246//246 365//365 360//360 
f 224//224 255//255 254//254 
f 254//254 251//251 224//224 
f 255//255 224//224 256//256 
f 257//257 256//256 226//226 
f 226//226 258//258 257//257 
f 252//252 258//258 226//226 
f 261//261 258//258 252//252 
f 261//261 252//252 253//253 
f 261//261 253//253 281//281 
f 259//259 254//254 255//255 
f 256//256 257//257 263//263 
f 257//257 260//260 263//263 
f 257//257 258//258 260//260 
f 260//260 258//258 261//261 
f 310//310 261//261 281//281 
f 255//255 262//262 259//259 
f 262//262 255//255 256//256 
f 262//262 256//256 263//263 
f 266//266 260//260 261//261 
f 266//266 261//261 310//310 
f 264//264 247//247 259//259 
f 262//262 264//264 259//259 
f 265//265 263//263 260//260 
f 265//265 260//260 266//266 
f 267//267 247//247 264//264 
f 247//247 267//267 249//249 
f 267//267 264//264 268//268 
f 268//268 264//264 262//262 
f 262//262 263//263 268//268 
f 274//274 265//265 266//266 
f 310//310 274//274 266//266 
f 267//267 270//270 249//249 
f 268//268 270//270 267//267 
f 270//270 268//268 272//272 
f 268//268 263//263 273//273 
f 263//263 265//265 273//273 
f 249//249 270//270 250//250 
f 250//250 270//270 271//271 
f 269//269 250//250 271//271 
f 248//248 269//269 301//301 
f 275//275 271//271 272//272 
f 271//271 270//270 272//272 
f 273//273 272//272 268//268 
f 265//265 274//274 273//273 
f 269//269 271//271 302//302 
f 271//271 275//275 302//302 
f 273//273 276//276 272//272 
f 272//272 276//276 275//275 
f 276//276 273//273 274//274 
f 274//274 304//304 276//276 
f 274//274 310//310 304//304 
f 220//220 277//277 278//278 
f 228//228 278//278 281//281 
f 278//278 313//313 281//281 
f 307//307 280//280 279//279 
f 279//279 282//282 277//277 
f 278//278 277//277 282//282 
f 279//279 361//361 282//282 
f 283//283 280//280 307//307 
f 281//281 366//366 310//310 
f 313//313 278//278 282//282 
f 282//282 284//284 313//313 
f 362//362 282//282 361//361 
f 282//282 362//362 284//284 
f 362//362 285//285 284//284 
f 362//362 319//319 285//285 
f 284//284 285//285 318//318 
f 321//321 285//285 319//319 
f 285//285 321//321 318//318 
f 319//319 286//286 287//287 
f 368//368 320//320 363//363 
f 287//287 321//321 319//319 
f 286//286 288//288 287//287 
f 288//288 290//290 287//287 
f 289//289 363//363 320//320 
f 320//320 292//292 289//289 
f 291//291 364//364 290//290 
f 325//325 364//364 291//291 
f 290//290 288//288 229//229 
f 363//363 289//289 288//288 
f 299//299 293//293 294//294 
f 295//295 289//289 292//292 
f 231//231 235//235 295//295 
f 292//292 231//231 295//295 
f 292//292 296//296 231//231 
f 296//296 292//292 293//293 
f 296//296 293//293 299//299 
f 291//291 233//233 297//297 
f 297//297 325//325 291//291 
f 298//298 300//300 294//294 
f 298//298 239//239 300//300 
f 238//238 239//239 298//298 
f 234//234 296//296 299//299 
f 299//299 294//294 300//300 
f 299//299 300//300 234//234 
f 304//304 302//302 275//275 
f 276//276 304//304 275//275 
f 269//269 303//303 301//301 
f 302//302 303//303 269//269 
f 306//306 302//302 304//304 
f 302//302 306//306 303//303 
f 246//246 305//305 365//365 
f 301//301 305//305 246//246 
f 301//301 303//303 305//305 
f 308//308 305//305 303//303 
f 308//308 303//303 306//306 
f 306//306 304//304 311//311 
f 308//308 306//306 312//312 
f 306//306 311//311 312//312 
f 307//307 315//315 283//283 
f 367//367 365//365 305//305 
f 309//309 305//305 308//308 
f 309//309 308//308 312//312 
f 311//311 304//304 310//310 
f 312//312 311//311 329//329 
f 310//310 314//314 311//311 
f 329//329 311//311 314//314 
f 309//309 367//367 305//305 
f 367//367 309//309 331//331 
f 315//315 316//316 283//283 
f 283//283 316//316 368//368 
f 320//320 367//367 331//331 
f 317//317 314//314 310//310 
f 317//317 334//334 314//314 
f 313//313 284//284 318//318 
f 318//318 317//317 366//366 
f 366//366 317//317 310//310 
f 317//317 323//323 334//334 
f 315//315 320//320 316//316 
f 320//320 368//368 316//316 
f 320//320 335//335 324//324 
f 336//336 324//324 372//372 
f 320//320 324//324 292//292 
f 317//317 318//318 322//322 
f 322//322 318//318 321//321 
f 321//321 364//364 322//322 
f 336//336 334//334 323//323 
f 317//317 322//322 323//323 
f 336//336 323//323 326//326 
f 369//369 328//328 336//336 
f 328//328 324//324 336//336 
f 293//293 292//292 324//324 
f 293//293 324//324 328//328 
f 322//322 325//325 323//323 
f 322//322 364//364 325//325 
f 325//325 297//297 323//323 
f 327//327 326//326 323//323 
f 370//370 328//328 369//369 
f 327//327 323//323 297//297 
f 327//327 238//238 298//298 
f 238//238 327//327 297//297 
f 298//298 328//328 370//370 
f 293//293 328//328 294//294 
f 294//294 328//328 298//298 
f 309//309 312//312 330//330 
f 329//329 330//330 312//312 
f 330//330 329//329 332//332 
f 329//329 314//314 332//332 
f 330//330 332//332 333//333 
f 330//330 371//371 309//309 
f 371//371 330//330 333//333 
f 333//333 372//372 371//371 
f 332//332 314//314 334//334 
f 333//333 332//332 334//334 
f 333//333 334//334 336//336 
f 335//335 320//320 331//331 
f 333//333 336//336 372//372 
